<svg width="1032" height="151" viewBox="0 0 1032 151" fill="none" xmlns="http://www.w3.org/2000/svg">
<path d="M137.558 38.4563C135.9 36.9133 134.171 36.9312 132.128 37.6027C134.362 40.16 134.373 40.1636 137.558 38.4563ZM209.088 33.0666C208.583 33.3988 208.599 33.9238 209.119 34.2381C209.636 34.5489 211.857 35.3989 212.723 35.5775L213.531 35.6418C213.757 35.6597 214.145 35.4061 214.25 35.2096C214.366 34.9953 214.386 34.5775 214.207 34.4739L213.042 33.7881C211.675 33.1416 209.589 32.7309 209.088 33.0666ZM587.83 8.85063C589.186 9.86856 590.677 9.24709 591.139 7.47553L588.809 6.65404L588.273 6.46474C587.135 7.09693 586.385 7.75769 586.603 7.93628L586.723 8.022L587.83 8.85063ZM897.443 95.3211C898.795 95.2532 899.245 94.8032 898.441 94.3246C897.637 93.846 894.686 94.296 893.59 94.4531C892.499 94.6103 896.088 95.3889 897.443 95.3211ZM912.886 107.318C913.053 107.475 912.677 107.94 912.04 108.351C911.41 108.765 911.255 110.015 912.226 109.654L913.053 109.361L914.056 109.004C915.399 108.704 915.862 107.983 915.089 107.4L914.413 106.911C914.176 106.736 913.9 106.454 913.648 106.461L913.193 106.468C912.692 106.625 912.719 107.165 912.886 107.318ZM250.481 134.049C249.385 134.049 248.752 134.545 249.079 135.149C249.405 135.752 251.079 136.917 252.17 136.585C253.262 136.253 251.58 134.049 250.481 134.049ZM630.112 7.55411C629.134 7.55411 629.332 8.32202 630.567 9.26494L631.856 9.61497L632.245 9.72212C633.484 8.52918 631.099 7.55411 630.112 7.55411ZM775.871 7.29694C776.858 7.80412 777.638 7.95413 777.607 7.63268C777.58 7.31123 777.809 6.36474 777.953 6.09686C778.093 5.83256 777.642 4.90035 776.481 4.84677C775.316 4.7932 774.884 6.78977 775.871 7.29694ZM905.052 21.8408C903.821 20.9729 903.759 20.7586 904.908 21.3622C906.058 21.9658 909.702 22.8623 910.012 22.6659C910.323 22.4695 909.849 21.3622 908.109 20.7729L907.173 21.0979L905.052 21.8408ZM750.873 5.77541C751.432 5.04679 751.075 4.76819 750.081 5.15036C749.086 5.53611 746.6 5.24323 746.173 5.53253L746.177 5.79684C746.177 6.35402 745.645 7.11836 746.954 7.37552L747.657 7.51482C748.465 7.81484 750.318 6.50403 750.873 5.77541ZM886.471 93.971C886.77 93.4745 885.95 92.953 884.649 92.8173L883.872 93.128L882.998 93.4781C882.392 94.3103 882.229 95.4282 882.633 95.9604L883.123 96.0068L883.802 96.0711C884.583 95.7461 886.175 94.4746 886.471 93.971ZM103.052 132.72C103.526 131.917 103.778 130.631 103.608 129.856L102.19 130.145C101.712 130.241 101.129 131.22 100.854 130.327C100.531 129.309 100.162 128.881 98.9621 129.502L98.7679 129.602C99.2107 130.388 100.248 131.484 101.071 132.045L101.965 132.349L103.052 132.72ZM459.476 10.0829C457.045 9.91856 455.802 10.5686 456.711 11.5222L458.136 11.2722C459.515 11.0294 460.847 10.6222 462.149 10.1972C462.316 10.1436 462.25 9.51853 462.117 9.20422C462.055 9.06136 461.414 8.88277 461.298 8.95778L459.476 10.0829ZM321.56 14.5867C321.634 15.0689 322.286 14.9011 323.009 14.2153C323.739 13.5331 323.972 11.4008 322.993 11.5794C322.018 11.758 319.68 12.4259 319.625 12.6116C319.571 12.7938 319.711 13.2688 320.053 13.2331C320.391 13.1974 321.49 14.1117 321.56 14.5867ZM615.866 8.36488C616.98 8.87563 617.077 8.8542 616.083 8.31845C615.085 7.7827 612.836 6.09329 612.517 6.67547C612.203 7.25408 612.673 9.07921 614.184 9.60068L614.518 9.3578L615.866 8.36488ZM245.866 16.2226C245.773 16.7476 246.426 16.9119 247.311 16.594C248.197 16.2726 250.434 15.1189 250.764 14.6618L250.166 14.0796C249.735 13.6545 250.085 12.6866 248.795 12.8902L247.572 13.0831C246.791 13.9046 245.956 15.7011 245.866 16.2226ZM117.695 31.8987C117.544 31.3772 116.911 30.9308 116.281 30.9022C115.66 30.8772 114.374 31.3058 113.458 31.7237C112.545 32.138 111.325 34.231 111.364 34.5203L111.566 34.6703L111.764 34.8168C112.145 34.8418 114.005 34.0131 115.893 32.9738L117.559 31.9808L117.695 31.8987ZM255.103 13.8188C253.852 14.3189 254.431 15.0832 256.381 15.5118L257.732 15.9118C259.076 16.3047 259.601 15.5297 260.234 15.0046C260.49 14.7903 260.475 14.3046 260.385 13.9724C260.319 13.7188 256.524 13.2617 256.109 13.4224L255.103 13.8188ZM1014.19 117.305C1014.48 116.437 1013.62 116.058 1012.26 116.462L1011.18 116.951C1010.32 117.337 1009.54 117.876 1010.93 118.619L1011.3 118.819C1011.45 119.612 1013.9 118.173 1014.19 117.305ZM833.686 6.13615C835.104 5.85399 836.082 5.18965 835.857 4.65747C835.639 4.12529 833.239 3.32881 832.606 3.5574C831.973 3.79313 832.268 6.41831 833.686 6.13615ZM855.413 6.02185C856.074 6.5076 857.258 6.2433 858.047 5.44324L858.268 4.79319C858.427 4.32173 858.086 3.67169 857.721 3.21094C857.243 2.6109 856.528 2.35731 855.58 2.90378L854.87 3.31809C853.712 3.73955 854.753 5.53967 855.413 6.02185ZM647.362 143.803C646.767 143.557 646.278 143.785 646.278 144.31C646.278 144.832 645.998 146.11 645.66 146.075C645.323 146.046 644.165 146.21 644.185 146.55C644.2 146.889 644.34 147.821 644.398 147.871C644.464 147.921 646.841 147.685 649.533 147.232L649.389 146.343L649.296 145.757C649.323 145.135 647.956 144.05 647.362 143.803ZM902.543 99.107C902.073 99.4606 902.528 99.6214 903.549 99.4642C904.574 99.307 907.309 100.871 908.435 100.836C909.562 100.804 909.907 98.682 908.672 98.5784C907.441 98.4784 903.013 98.757 902.543 99.107ZM159.309 20.6979C160.634 21.0015 161.71 21.0658 161.686 20.8408C161.663 20.6157 161.951 19.58 162.207 19.1121C162.463 18.6406 161.644 18.1727 160.844 18.7049L159.484 17.9798C158.241 17.3227 157.841 18.7549 157.006 19.1835C156.136 19.63 156.299 20.2229 157.029 20.7658C157.612 21.1979 157.969 21.6658 158.94 20.9658L159.309 20.6979ZM1002.26 111.815C1002.94 112.172 1003.66 112.008 1003.86 111.451C1004.07 110.89 1002.7 109.054 1002.4 108.551L1001.52 109.215L999.875 110.447C998.441 110.165 996.915 109.944 996.484 109.958L996.329 110.111C996.185 110.261 996.235 110.711 996.418 110.811C997.33 111.315 998.321 111.74 999.269 112.204L999.544 112.34C999.797 112.533 1001.59 111.454 1002.26 111.815ZM925.747 20.5979C925.7 19.8978 925.436 19.6978 925.152 20.1514C924.873 20.6086 923.641 21.2408 922.869 20.8193C922.092 20.3943 919.451 20.1764 919.734 20.4157C920.018 20.6515 920.2 21.2908 919.785 21.5408C919.365 21.7873 919.109 22.5445 921.128 22.0837L922.01 22.3909L923.269 22.8373C924.706 22.7909 925.789 21.2944 925.747 20.5979ZM181.791 19.2264C182.431 18.1584 181.383 17.3262 179.464 17.3762L178.272 16.2797L178.217 16.2261C177.483 16.5976 176.745 17.3012 176.578 17.7905C176.407 18.2799 178.827 19.2764 179.534 19.4192V19.555C179.538 20.7693 180.047 21.0301 181.041 20.0014L181.791 19.2264ZM144.876 37.0669C144.833 37.6741 144.227 37.8955 143.528 37.5634C142.829 37.2312 143.303 38.7742 145 38.7099L146.5 38.8528L149.362 39.1242C150.376 37.867 150.469 36.9883 149.568 37.1669C148.667 37.3455 146.166 36.8562 146.026 36.4454C145.886 36.0311 145.459 35.0346 145.362 35.0453C145.264 35.0596 144.919 36.4633 144.876 37.0669ZM1001.27 127.584C1001.76 127.684 1002.81 126.916 1003.62 125.877C1004.42 124.834 1001.92 122.337 1002.31 122.13L1002.29 121.966L1002.19 121.137C1001 120.844 999.859 120.823 999.649 121.094C999.44 121.366 1000.19 122.559 1000.48 123.048C1000.77 123.53 1000.31 124.941 1000.8 125.498C1001.29 126.052 1000.78 127.48 1001.27 127.584ZM988.389 41.1243C988.688 40.8636 988.393 39.4635 987.725 38.0098L984.948 37.9777L982.33 37.9491C981.114 39.3599 980.854 41.1636 981.759 41.9601L982.198 41.8744L983.363 41.653C984.529 41.0458 985.752 40.76 986.09 41.0101C986.428 41.2636 988.086 41.3815 988.389 41.1243ZM969.777 30.8093C970.585 29.77 970.033 28.5163 968.557 28.0198L967.314 27.8341L965.469 27.5627C963.395 27.4412 962.308 27.7448 963.046 28.2413C963.791 28.7378 968.969 31.8451 969.777 30.8093ZM231.798 13.6545C231.989 13.2224 232.276 12.7259 232.435 12.5545C232.595 12.383 234.148 12.5545 235.698 12.8973L237.512 11.5794L238.312 11.0008C239.112 11.2722 240.638 11.4937 241.71 11.4901C242.782 11.4901 246.472 9.80784 246.659 9.88998L246.678 9.98999L246.814 10.6043C246.919 11.2829 248.108 11.4294 249.448 10.9293C250.788 10.4293 255.973 11.2901 257.639 11.4044C259.305 11.5187 264.009 9.85427 264.992 9.95428C265.974 10.0543 268.522 10.9615 269.307 11.0722C270.095 11.1865 272.255 10.1793 272.81 10.0186C273.374 9.85784 274.733 9.88641 274.752 9.12922C274.772 8.36845 277.836 9.65783 278.765 9.6364L279.394 9.31495C280.983 8.49703 281.196 8.95778 281.693 10.1186L282.066 10.9936C283.068 9.91141 284.408 9.30781 285.041 9.65783C285.678 10.0114 288.553 10.1329 289.943 9.85784L290.949 9.29709L291.87 8.77919C292.821 8.88277 294.138 9.08993 294.802 9.23994L295.183 9.53639C295.855 10.0543 296.286 10.7436 296.958 11.2615L297.105 11.3758C297.762 11.1436 298.228 10.5722 298.143 10.1079C298.053 9.64711 300.03 8.86135 301.502 8.5899L302.714 9.40424L303.013 9.60068C304.377 10.2186 306.179 10.2722 307.014 9.71855L307.853 9.35066L308.342 9.13636C309.045 9.11851 309.585 9.50424 309.535 9.99714L309.488 10.4436L309.457 10.7222C309.414 11.0258 309.892 11.2579 310.517 11.2294L310.766 11.0079C311.267 10.5508 311.469 9.91142 311.939 9.42567L312.525 8.81134C313.388 9.07207 314.526 9.20422 315.05 9.10779C315.582 9.00778 318.274 9.21851 320.204 10.5972L322.779 9.20779C323.152 9.00421 324.329 9.0685 324.481 9.27566L325.553 10.7579C327.005 10.1329 328.543 9.29352 328.971 8.89349C329.402 8.48989 331.041 7.71841 331.398 8.32917C331.752 8.93992 333.499 10.215 334.342 9.53282L335.208 9.3578L336.704 9.0435C338.483 8.96849 340.153 8.88634 340.417 8.86134C340.677 8.83634 342.246 8.46489 343.396 8.24701C344.55 8.02914 348.791 9.42924 349.218 8.95421L349.758 8.66847L350.244 8.40774C350.947 8.30059 351.254 8.55418 350.916 8.97921L350.993 9.31138C351.071 9.62926 351.627 9.90784 352.034 10.1507L352.99 10.715C353.137 10.0364 353.456 9.15422 353.701 8.75776C353.949 8.36131 356.047 7.68269 357.942 7.90413L359.538 8.17915L359.876 8.23987C360.21 8.62204 360.354 8.92206 360.199 8.91134C360.047 8.89706 359.507 9.77212 359.057 10.7865C358.614 11.8008 354.512 11.4401 354.198 11.5865L354.105 11.7865L354 12.0009C354.085 12.2973 355.817 13.3331 357.853 14.3117L360.218 13.4081L361.216 13.0259C362.471 12.758 362.467 12.2616 361.213 11.9187C359.958 11.5794 361.469 8.56489 362.677 8.11129L364.145 8.08272C366.833 8.03271 369.591 8.63275 372.271 7.6184C372.997 7.34695 374.57 7.73269 375.292 8.2113L376.019 8.69347C376.349 9.70426 376.947 10.0507 377.339 9.46139C377.739 8.87206 379.728 7.45053 380.901 7.56482C382.082 7.67912 385.803 7.33623 386.696 6.26473L387.687 6.95407L387.943 7.13265C388.195 7.34338 388.906 8.10415 389.516 8.82563L390.817 8.17558L391.182 7.997C391.982 8.07915 392.732 8.50417 392.852 8.93634C392.965 9.36852 393.656 10.5329 393.924 9.82926L394.002 9.47567C394.06 9.21851 393.901 8.91134 394.033 8.69704C394.534 7.9077 395.202 8.03986 396.053 8.47203C398.111 9.51496 396.534 7.4791 397.529 7.46125L398.142 7.44695C398.846 7.21479 400.391 7.29695 401.58 7.62911L402.629 6.85763C402.924 6.63976 403.841 6.49332 403.984 6.6219L406.291 8.66847C407.748 7.0505 409.775 6.33974 410.801 7.08979C411.822 7.83984 416.324 7.01478 417.109 7.46482C417.889 7.91485 421.424 6.67904 423.172 6.80048L424.651 6.11115L424.869 6.00757C425.351 6.18615 427.005 6.60047 428.551 6.92192L431.037 6.55761L432.804 6.29688C433.072 7.25766 433.946 7.6434 434.75 7.15408C435.55 6.66476 438.63 7.31838 439.065 7.31481C439.5 7.31481 441.124 6.68261 442.378 6.2683L443.769 6.54332L445.354 6.85763C447.175 6.70405 448.873 6.76476 449.133 6.99692C449.389 7.22551 450.189 7.25766 450.702 6.87549C451.215 6.48974 453.545 5.34681 453.953 5.77898C454.357 6.21116 455.748 7.2398 456.497 7.42195C457.251 7.60411 460.459 7.26123 461.966 6.74334C463.481 6.22544 467.544 6.73976 468.363 6.74691C469.183 6.75405 471.672 6.129 472.34 6.39331C473.012 6.65761 475.121 7.33624 475.518 7.30052L475.727 7.1505L476.935 6.30402C478.551 6.42545 480.248 6.52189 480.707 6.51118C481.161 6.50403 483.165 6.12544 484.323 6.02543C485.484 5.92899 488.094 6.18972 488.254 4.83963L490.534 6.03971L490.93 6.24687C491.396 6.41117 492.646 6.51475 493.718 6.4826C494.79 6.45046 498.395 6.77191 499.486 6.2683C500.574 5.76469 504.252 5.18251 504.99 5.18608L505.413 5.4361C506.35 5.98257 506.99 6.7219 508.478 6.61475L509.748 6.52546C510.373 5.84684 511.282 5.18608 511.764 5.05393L512.246 5.01464L513.71 4.88606C515.252 4.53604 517.493 4.00028 518.693 3.68597L519.555 4.87891C520.41 6.07186 521.956 6.16829 523.447 5.28609L530.559 4.53604L532.637 4.70033C534.921 4.8682 537.438 4.92892 538.23 4.83963C539.026 4.75034 540.903 5.84327 541.019 5.30395C541.132 4.76105 541.978 4.30745 542.705 5.20037C543.427 6.09686 548.306 5.08607 550.026 5.13965C551.751 5.19322 556.524 4.28244 556.959 4.14672L557.107 4.23601L559.919 5.98256C563.508 5.6754 566.732 5.52182 567.089 5.63969L567.159 5.57897C568.165 4.71462 569.016 4.2003 570.783 4.90749L571.618 5.24323C573.102 4.78963 575.533 4.25744 577.017 4.061L578.33 4.03243L580.175 3.99671C582.148 4.12886 584.078 4.47175 584.459 4.75748C584.839 5.04679 586.036 5.6004 586.195 5.31109C586.358 5.01821 587.558 4.22887 588.564 4.09672C589.574 3.96456 592.907 3.86098 593.61 4.21101L593.59 4.56818L593.52 6.12187C594.868 5.90042 597.125 5.41467 598.535 5.04679L599.956 5.73969C600.57 6.03972 602.019 6.06471 602.469 5.73612C603.65 4.88249 604.982 5.12179 606.303 4.97892L607.577 4.8432C608.94 4.51817 610.599 4.10743 611.255 3.93599C611.915 3.76098 613.9 4.78248 614.964 4.63961C616.029 4.49318 619.315 4.23958 619.89 4.23601C620.46 4.23244 621.843 3.64669 622.181 3.8967C622.523 4.15029 625.164 5.6504 627.297 6.6719L627.522 3.76098C627.522 3.70383 628.73 3.53596 629.227 3.68597L632.183 4.60033C633.569 4.2253 637.127 3.78956 640.087 3.6324H643.012C643.334 4.49318 646.13 4.73605 649.226 4.16815L652.124 4.30031C652.85 4.33602 652.73 5.36467 651.856 5.77541L651.471 5.95756C650.791 6.04328 650.714 6.28973 651.304 6.50403C651.891 6.7219 653.553 6.7862 653.553 6.11115C653.553 5.43967 654.458 3.2788 655.565 3.12522C656.672 2.97521 660.56 3.98243 661.826 3.79313L663.015 3.80027C664.335 3.80741 665.803 3.84313 666.938 4.26816L668.899 5.0075C670.744 4.42532 672.958 3.64312 673.812 3.27166C674.671 2.90021 676.042 4.75033 676.197 4.76819C676.353 4.78248 677.203 4.37888 677.937 3.99314L678.804 4.55032C680.116 5.39681 680.889 5.32895 681.033 3.83598L681.072 3.4431C681.868 3.03236 682.921 3.20737 683.41 3.84313C683.899 4.47532 686.867 4.06815 688.471 3.98242C690.079 3.89313 694.822 3.61812 695.509 3.70384L695.82 3.01093C695.897 2.83592 697.241 2.70019 697.478 2.89663C698.053 3.37524 697.758 4.70391 699.269 4.13958L699.863 3.91814C700.069 2.84663 701.696 2.52518 703.487 3.20737L705.149 3.83241C705.522 3.97171 709.604 3.61097 709.907 3.3931C711.03 2.5859 712.125 1.75369 712.521 3.77527L712.545 3.90027C712.89 3.99671 713.788 4.18601 714.549 4.32173C715.306 4.46103 717.567 4.76463 717.827 4.51104C718.095 4.25387 718.903 3.40024 719.031 3.23951C719.159 3.07522 720.356 2.48946 721.4 2.30016C722.449 2.11443 725.37 2.89306 725.506 2.70019C725.646 2.50375 727.308 2.32874 727.86 2.73948C728.415 3.1538 730.648 4.22887 731.165 3.90027C731.686 3.56811 733.332 2.93235 733.709 3.20023C734.094 3.4681 735.422 3.98243 735.511 3.54311C735.608 3.10379 736.482 2.58589 737.271 3.31809L738.013 3.35738L739.516 3.4431C740.009 4.30745 740.867 4.53961 741.423 3.95742C741.974 3.37881 743.695 1.94656 743.843 2.25016C743.99 2.55732 744.853 3.12522 745.466 2.89306C746.076 2.65733 747.956 2.20016 748.107 2.46803L748.228 2.77162C748.581 3.67526 749.886 3.69312 750.034 3.16451C750.543 1.37152 751.848 1.44653 753.328 2.19301L754.501 2.78591C755.639 2.51447 757.705 1.97871 759.092 1.59654L760.16 2.53232C761.337 3.56811 762.599 3.84313 764.149 2.9645C764.281 2.88949 764.836 3.07879 765.034 3.25023L766.301 4.35388C766.771 3.91813 767.512 3.16808 767.951 2.68948H768.34L770.029 2.70376C771.863 2.91092 773.603 3.06093 773.898 3.03593C774.193 3.0145 775.502 2.65019 776.252 2.52161C777.001 2.39302 779.844 3.81455 780.788 3.36452C781.736 2.91806 784.494 2.3966 784.878 3.18237C785.267 3.97171 788.941 2.55733 790.533 2.43946C792.126 2.3216 796.352 3.26094 796.457 2.80734C796.554 2.35016 797.152 1.17866 797.478 1.58583L797.626 1.82156L797.766 2.03943C797.878 2.29302 799.036 2.57875 800.345 2.66805C801.65 2.76091 804.446 3.80027 803.786 4.2503C803.122 4.70034 794.305 4.85748 792.476 5.15393C790.654 5.45038 790.794 6.36831 791.932 6.054L793.089 6.42189L793.21 6.4576C793.54 6.15401 794.666 5.53968 795.711 5.09679C796.76 4.6539 798.224 7.16122 798.663 7.27194C799.102 7.37909 799.673 6.41474 799.622 5.97899L799.754 5.61826C800.271 4.19315 800.158 4.48246 798.97 4.14672L797.517 3.73598C796.169 4.04671 794.864 4.42531 794.62 4.57533L794.363 4.69676L792.992 5.34324C794.538 4.94321 797.016 5.23608 798.504 5.99328C799.991 6.75405 803.281 6.9112 804.174 6.71476C805.064 6.51832 808.272 7.0505 809.088 6.80763C809.9 6.56475 809.837 5.0075 809.581 4.66462C809.317 4.32531 808.07 3.43239 807.406 3.43239C806.742 3.43239 805.763 3.13237 806.707 2.76448C807.647 2.3966 810.199 1.11794 810.366 0.857203C810.529 0.59647 812.436 0.71791 812.712 0.889351C812.991 1.06436 814.234 2.23944 814.809 2.82877C815.388 3.4181 818.623 4.67533 818.887 4.93963C819.155 5.20394 819.559 4.03243 819.435 3.58597L819.105 3.46453L817.951 3.03235C816.685 2.69662 815.939 1.968 816.3 1.41439L816.114 1.2108C815.652 0.700052 815.423 0.0892934 816.405 0.35717L818.01 0.792914C819.781 0.992928 822.131 1.3751 823.23 1.64655C824.333 1.91442 828.889 0.91792 829.534 0.710763C830.182 0.507177 831.612 0.282163 832.509 0L833.36 0.282165C833.503 0.328596 833.791 0.23216 833.864 0.29645L834.443 0.80363C835.049 1.38581 835.919 1.54297 836.381 1.15365C836.844 0.76434 838.553 0.803627 839.364 1.14294C840.176 1.48225 843.237 0.792914 844.453 1.3501L845.474 1.943C845.598 2.01443 845.066 2.63233 844.992 3.0145L844.922 3.35738C845.031 3.76455 845.443 3.50739 845.839 2.79305C846.235 2.07872 848.826 1.46439 848.709 1.26081C848.593 1.05722 848.95 0.414314 849.82 0.385741C850.686 0.357168 854.237 1.36795 855.693 1.81084C857.154 2.2573 861.383 1.25366 861.686 1.31795C861.989 1.38224 862.677 1.75012 862.529 1.97871C862.378 2.20372 861.395 2.8502 860.886 3.12165C860.373 3.3931 861.679 5.87185 863.896 6.16115L864.774 4.60033L865.473 3.35738C864.184 1.74655 864.335 0.260735 865.807 0.0571496L866.242 0.342884C867.124 0.921496 867.365 2.02515 868.895 2.10372C868.922 2.10729 868.934 2.27873 868.949 2.3716C869.233 4.15744 869.245 4.10386 871.556 4.37531L872.729 4.51104C874.263 4.92892 875.514 4.60747 875.514 3.80027C875.514 2.99307 876.057 1.05364 876.722 0.971495L876.892 1.09293L877.762 1.72512C878.656 2.48232 878.648 3.22166 877.747 3.37167C876.85 3.51811 877.079 5.50039 877.778 5.58611C878.477 5.67183 880.415 4.3896 880.726 4.66462C881.041 4.93606 882.14 5.6004 882.493 5.54682L882.688 5.44324L882.971 5.2968C883.227 5.07893 883.833 4.66819 884.311 4.38245C884.789 4.09672 886.801 5.54682 887.201 5.08607C887.593 4.62176 889.065 3.81813 889.78 4.10029C890.499 4.38603 892.848 4.82177 893.334 4.6289C893.823 4.43603 895.062 3.58597 895.21 4.08243C895.361 4.5789 896.224 5.78613 896.826 5.73969L897.226 5.57182L899.789 4.49674C902.143 5.51467 904.369 6.50046 904.745 6.68976C905.114 6.87906 906.206 7.2648 906.326 7.14336C906.447 7.02193 906.703 6.23259 906.885 5.66469C907.064 5.10036 909.305 5.48611 909.907 5.68969C910.505 5.88971 912.113 5.77898 912.172 6.14687C912.226 6.51832 914.374 5.95399 915.061 5.49325C915.749 5.02893 918.736 4.69319 919.148 4.37174L919.567 4.086C919.812 3.9217 920.348 3.67169 920.402 3.71098L922.888 5.66111C923.156 4.00385 924.379 2.87878 925.618 3.16094C926.85 3.4431 928.617 5.92542 928.749 5.57182C928.881 5.2218 929.312 4.3896 929.51 4.24316C930.392 4.87177 931.367 5.45038 932.062 6.18258C932.268 6.40402 931.612 7.03264 931.499 7.49339L931.402 7.92556C931.456 8.42203 932.019 8.87563 932.641 8.92564L932.901 8.73991C934.478 7.5934 935.177 7.972 935.542 9.4221L935.562 9.51139C936.49 9.46853 937.279 9.10779 937.306 8.71133C937.341 8.31487 937.356 7.45767 936.797 7.35409C936.238 7.25051 937.115 5.95399 937.888 5.79327C938.657 5.63254 940.172 7.46481 940.417 8.5256L940.296 9.47924C940.25 9.85427 939.329 10.4722 938.844 10.4543L936.723 10.3793C934.408 10.0829 932.583 10.3257 932.66 10.9151C932.738 11.508 936.203 11.8151 936.684 12.4366C937.17 13.0581 937.302 14.2296 937.434 14.6546C937.566 15.0796 936.843 16.5797 936.206 17.2512L935.531 17.812C934.703 18.487 933.81 19.1156 932.932 19.7585L932.855 19.8193C932.695 19.8335 932.602 19.1978 932.649 18.4049C932.691 17.6155 931.099 15.5404 930.404 15.9476C929.705 16.3547 927.93 17.7048 928.365 18.1406L928.695 18.362L929.118 18.6513C929.642 18.9156 929.825 19.2942 929.518 19.4871C929.215 19.6835 928.706 20.4586 929.071 20.78C929.433 21.1015 936.447 21.9301 935.95 22.0909C935.453 22.2516 935.03 22.6373 936.074 22.598C937.119 22.5587 937.989 24.4553 938.319 24.416C938.646 24.3803 939.419 24.1124 939.31 23.9088C939.197 23.7053 939.434 23.2874 940.095 23.4302L940.689 23.5624C942.658 24.4767 943.579 25.2768 942.736 25.3411C941.893 25.4054 939.485 26.009 939.489 26.5233C939.492 27.0412 940.429 28.1306 941.027 28.7842C941.629 29.4342 944.802 29.7557 945.023 29.5664C945.245 29.3771 946.717 28.9556 947.575 29.2414C948.438 29.5271 950.384 29.6985 949.805 28.9235C949.23 28.1484 952.007 25.3589 953.13 24.0481L954.38 24.016L956.206 23.966C956.73 23.0195 957.231 22.6052 957.317 23.0445C957.398 23.4838 958.031 24.7589 958.424 24.3124C958.812 23.866 960.474 23.2516 961.348 23.8231C962.218 24.3946 965.318 25.7054 966.289 25.459C967.256 25.2125 969.959 23.6445 971.975 24.1446L973.805 24.5553C973.851 24.566 974.014 24.1089 974.228 23.9374C974.612 23.6267 975.11 23.1052 975.494 23.1338L976.823 23.2374C976.508 24.016 975.929 25.0161 975.537 25.4697C975.149 25.9197 975.49 28.0163 977.599 28.7235L978.706 26.5019C978.963 25.9911 980.303 25.6875 981.219 25.4982C981.577 25.4268 982.392 25.8661 982.571 26.1983C982.835 26.7019 982.792 27.2412 983.69 26.6126C984.447 26.0769 985.247 25.9804 985.74 26.7233C986.109 27.2769 986.494 28.0591 986.238 28.5592C985.775 29.4557 984.808 30.2057 984.094 31.0379L983.375 31.8773C983.923 32.738 985.519 33.7953 986.929 34.2274C988.331 34.6596 991.256 34.8775 992.297 34.8703C993.334 34.8632 997.54 37.0562 998.158 37.8134C998.779 38.5706 1002.06 39.0206 1002.27 39.2206C1002.48 39.4242 1002.45 40.9708 1002.31 42.5637L1003.53 43.8638L1003.98 44.346C1004.26 45.0068 1003.63 45.8783 1002.59 46.2747L1001.86 46.8855C1000.7 47.8641 1000.81 47.9427 999.906 47.4105C999.766 47.3319 999.669 47.2141 999.529 47.1391L998.065 46.3247C997.439 47.3712 996.62 47.632 996.243 46.8998C995.87 46.1711 992.425 46.014 991.462 46.1604C990.495 46.3069 987.822 47.1569 989.085 47.5105C990.355 47.8605 992.736 49.1713 992.266 49.8357L993.252 50.2786L994.891 51.0143C996.01 49.8535 996.969 49.0963 997.024 49.3285C997.078 49.5607 997.956 50.1536 998.686 50.275C999.42 50.3929 998.539 52.2894 997.346 52.5144L996.725 53.0966L996.033 53.7395C995.443 54.8646 995.342 55.929 995.812 56.1076C996.278 56.2861 996.449 57.5505 995.241 58.5542C994.041 59.5578 991.279 62.1937 991.656 62.2973C992.029 62.4009 992.798 63.1616 992.289 63.6938L991.838 63.7045L990.914 63.7331C989.997 63.9545 988.991 64.8832 988.681 65.8047L989.702 66.5619C990.021 66.7976 988.44 71.0872 987.993 71.3372L986.941 71.9301C985.791 72.5516 984.839 73.4481 984.828 73.916C984.816 74.3838 983.394 75.9697 983.076 76.5983L982.598 77.0662L981.53 78.1127C982.264 79.1878 982.855 80.9843 982.851 82.0987L982.583 83.1023L982.198 84.531C983.592 84.6917 984.171 85.2132 983.472 85.6954C982.773 86.174 979.805 87.5455 978.625 87.5241L977.405 87.5669L975.591 87.6348C974.236 88.5991 972.733 89.4921 972.251 89.6135L972.204 89.5528C971.136 88.1098 970.064 90.1814 968.849 89.5099C967.843 88.9492 966.522 88.6742 965.229 88.4027L965.1 88.3777C964.599 89.2849 963.368 89.6278 962.366 89.1385C961.372 88.6492 958.532 89.9385 958.299 89.9742L958.225 89.91C957.406 89.192 956.14 89.8992 955.588 89.6314L954.011 88.8563C952.667 89.4206 950.419 89.3671 949.02 88.742L947.579 89.7457L947.319 89.9278C946.709 89.8385 944.383 89.267 942.145 88.6599L940.102 89.8385L939.768 90.0314C939.143 89.9564 937.993 90.0028 937.212 90.1385C936.432 90.2743 933.81 89.5135 933.177 89.3421C932.544 89.1706 930.45 89.4635 929.806 89.7885C929.161 90.11 925.63 89.7028 924.174 89.8242L922.81 89.8992C922.162 89.935 921.272 89.9421 920.876 89.6564L919.905 88.9706C918.992 89.3313 917.015 89.9457 915.504 90.3314L914.145 90.7279C913.78 90.835 913.547 91.2029 913.252 91.4529L912.506 92.0958C912.129 91.4029 911.441 90.9707 910.975 91.1386C910.509 91.3029 909.072 92.9316 909.099 94.296L909.002 95.5818L908.983 95.8032C906.419 95.7925 903.739 95.9854 903.029 96.239L903.39 95.9854L905.911 94.2317C905.876 95.7675 906.419 96.8997 907.126 96.7497C907.825 96.6033 907.884 94.9282 907.857 94.2924C907.829 93.6531 906.691 91.9208 906.369 91.7065C906.047 91.4886 904.248 92.5601 903.53 93.1173C902.811 93.6781 906.963 96.414 910.191 97.1855L911.096 96.514L912.125 95.7532C913.038 94.4781 914.832 93.7317 916.114 94.0995C917.392 94.4674 920.538 95.7425 920.449 94.8389L920.69 94.2853L920.783 94.0745C921.657 94.0281 922.286 94.1567 922.181 94.3638C922.068 94.5674 922.15 95.2996 922.678 95.3603C923.206 95.4211 924.543 95.8497 924.395 96.1711L924.321 96.1675L922.849 96.064C921.591 96.8712 921.396 97.7284 922.406 97.9641L922.756 97.7355L924.209 96.7819C925.949 96.8104 928.085 97.0283 928.955 97.2676C929.829 97.5069 931.903 96.2211 932.295 96.1247L932.536 96.2283L933.445 96.6104C934.354 97.0497 935.869 97.189 936.82 96.9212L937.749 97.5498C938.032 97.7462 938.887 97.4712 939.485 97.4283L939.85 97.3998C940.25 97.3962 940.58 97.7498 940.58 98.1784V99.0927C940.58 99.6678 939.962 100.875 939.209 101.775L937.616 101.725L935.919 101.671C933.558 101.693 933.845 102.857 936.552 104.257L939.407 104.086L940.596 104.015C941.217 103.361 942.363 102.7 943.147 102.547L944.359 103.361C944.437 104.615 944.954 106.033 945.501 106.511L946.278 106.386C946.554 106.34 946.888 105.768 946.826 105.482L946.775 105.24C946.259 105.029 945.155 105.054 944.32 105.297L943.268 105.043C942.592 104.879 941.807 105.636 940.351 105.29L938.389 104.825C935.818 105.307 932.971 106.461 932.062 107.386L933.239 108.379L933.538 108.629C934.152 108.797 936.125 107.904 937.919 106.647L940.363 107.447L944.421 109.451L946.2 107.818C945.268 106.622 944.957 105.111 945.513 104.461C946.064 103.811 948.119 102.572 949.257 103.593L949.801 104.35C950.018 104.654 949.754 105.272 949.459 105.629L949.067 106.1C948.605 107.915 949.273 109.24 950.551 109.043C951.832 108.847 953.84 111.411 953.281 111.769C952.718 112.126 951.032 113.572 952.073 113.362C953.122 113.154 963.496 112.029 965.089 111.465C966.681 110.901 964.537 110.536 962.401 110.801L960.61 111.476L960.078 111.676C959.395 111.758 958.928 111.661 959.041 111.458C959.154 111.254 958.913 110.526 958.245 110.29L958.132 110.394C957.406 111.026 956.851 111.765 956.182 112.44L955.678 112.951C956.229 113.633 957.561 114.433 958.629 114.726C959.698 115.022 961.81 112.997 962.098 112.765C962.389 112.533 963.368 112.879 963.554 114.072L965.535 113.333L966.654 112.919C964.199 112.683 960.575 112.09 958.598 111.604C956.621 111.119 956.781 109.504 957.293 109.036C957.806 108.565 959.208 107.361 959.313 107.404L959.36 107.515C959.639 108.197 959.628 109.297 960.195 109.497L961.768 110.047C961.849 109.022 962.195 107.929 962.541 107.618C962.886 107.308 967.497 108.008 970.713 108.59L973.68 107.315L974.698 106.875C974.515 107.65 974.71 108.504 975.129 108.776C975.545 109.047 977.137 109.583 977.25 109.043C977.355 108.504 978.629 107.597 979.903 107.911C981.18 108.226 980.128 111.058 980.734 111.576C981.344 112.094 985.045 112.329 988.001 111.276L990.662 110.522L990.996 110.426C991.858 111.236 992.782 111.758 993.035 111.583C993.291 111.404 994.006 110.829 994.076 110.676L994.037 110.658L992.953 110.09C991.737 109.504 990.219 109.058 989.574 109.101L988.976 109.143C988.607 109.168 988.145 109.276 987.881 109.154C985.504 108.083 985.822 109.39 985.76 110.436L985.744 110.658C985.519 110.894 985.298 110.636 985.247 110.086C985.197 109.536 982.917 109.24 982.61 108.886L982.688 108.593C982.75 108.358 983.48 107.972 983.705 108.04C985.03 108.443 986.203 106.79 987.686 107.922L987.873 108.065C989.388 107.272 990.817 107.061 991.054 107.593L991.586 107.922L991.827 108.076C992.639 107.736 993.843 107.193 994.499 106.865C995.155 106.536 997.478 105.922 997.762 106.465C998.041 107.004 999.02 108.486 999.222 108.397L999.56 108.315L1001.57 107.843C1003.77 107.304 1006.54 107.147 1007.74 107.5L1007.73 107.59C1007.62 108.936 1008.66 110.458 1006.84 111.615C1006.69 111.711 1006.94 112.419 1007.25 112.59C1007.53 112.747 1008.4 112.697 1008.58 112.504C1009.15 111.926 1009.48 111.222 1009.97 110.594L1010.25 110.226C1010.66 109.869 1011.14 109.944 1011.32 110.397C1011.49 110.847 1012.46 112.122 1012.94 112.279C1013.41 112.437 1014.98 112.183 1015.38 112.462C1015.78 112.74 1017.03 113.312 1017.16 113.04C1017.29 112.769 1018 112.319 1018.38 112.747C1018.76 113.176 1020.93 113.762 1022.01 112.69L1023.19 112.019L1023.26 111.976C1024.02 112.587 1024.33 113.329 1023.96 113.629C1023.58 113.926 1022.88 114.933 1023.47 115.001C1024.05 115.069 1025.7 115.647 1025.47 116.09C1025.24 116.537 1025.16 118.016 1025.96 118.108C1026.76 118.201 1027.5 119.166 1025.52 120.009L1023.92 120.776C1023.37 121.044 1022.82 121.484 1022.62 121.93C1022.42 122.377 1022.43 123.077 1022.78 123.402C1023.1 123.694 1024.1 123.827 1024.64 123.687L1025.75 123.394C1025.75 122.512 1026.04 121.494 1026.38 121.13L1026.81 120.976C1028.08 120.516 1031.83 121.802 1031.96 122.78L1032 123.062C1031.4 123.434 1030.23 124.105 1029.4 124.559C1028.57 125.016 1026.76 126.684 1026.7 126.873C1026.65 127.066 1026 127.055 1025.38 126.284L1024.73 126.177L1024.15 126.08C1023.17 126.702 1022.8 127.441 1023.33 127.727C1023.86 128.009 1025.68 130.527 1025.64 132.384L1025.74 134.31L1025.84 136.438C1023.64 137.674 1021.76 138.363 1021.66 137.967C1021.56 137.57 1020.86 136.795 1020.33 137.124C1019.8 137.449 1020.08 139.292 1019.53 139.363C1018.98 139.431 1017.66 140.249 1018.37 140.953H1018.91C1019.82 140.953 1020.69 140.389 1021.63 140.274C1022.34 140.192 1023.57 139.896 1023.57 140.942C1023.58 141.492 1023.33 142.396 1022.86 142.535L1021.24 143.024C1019.56 143.289 1018.3 142.232 1018.44 140.674L1015.9 141.085L1013.9 141.41C1014.72 142.817 1014.64 144.01 1013.71 144.057C1012.79 144.103 1010.14 143.889 1010.05 143.464C1009.96 143.039 1009.21 142.307 1008.6 142.899C1007.99 143.492 1006.05 144.903 1005.94 144.425C1005.83 143.949 1005.09 142.721 1004.63 143.171C1004.18 143.617 1001.24 144.732 999.226 144.546L997.82 145.189L996.325 145.875C994.88 145.789 992.402 145.796 990.821 145.896L989.364 145.828L988.879 145.81C988.331 145.975 986.548 145.896 984.913 145.628C983.278 145.364 978.683 146.271 978.298 146.114C977.918 145.953 976.104 145.739 975.16 145.664C974.216 145.589 971.8 145.764 971.078 145.367C970.356 144.967 967.361 146.714 965.951 147.203L965.702 145.353L965.617 144.75C964.627 145.117 963.283 145.607 962.63 145.839C961.978 146.071 960.777 146.885 960.381 146.385C959.981 145.885 956.893 146.514 956.019 146.61C955.141 146.71 952.57 146.307 952.046 146.135C951.522 145.968 949.995 146.925 949.673 147.157C949.346 147.385 947.742 146.964 947.323 146.821C946.903 146.678 944.647 147.003 943.268 147.55C941.893 148.096 936.944 146.6 935.457 146.503C933.973 146.407 930.143 148.118 929.495 148.207C928.846 148.296 926.395 148.032 925.42 148.832L923.645 147.789C922.888 147.346 921.024 148.071 919.66 148.068C918.526 148.061 917.396 147.657 916.258 147.635C915.415 147.618 914.545 147.907 913.706 148.107L911.776 148.568C911.659 147.493 911.663 147.182 911.787 147.878C911.911 148.575 908.68 147.775 907.542 148.132L906.524 148.057L902.294 147.739C897.63 147.51 892.468 147.4 890.829 147.5C889.182 147.596 884.703 148.536 884.369 148.671C884.039 148.807 882.423 149.011 880.858 149.2L880.435 148.818C879.079 147.614 877.568 148.861 876.694 148.511L875.125 147.885C873.506 148.032 871.466 148.011 870.596 147.846C869.726 147.678 866.157 148.886 864.168 149.111L862.257 148.246L861.177 147.757C859.344 148.128 857.321 148.264 856.68 148.057C856.039 147.846 854.493 148.482 854.128 148.1C853.767 147.721 852.12 146.985 851.316 147.35C850.512 147.714 847.579 148.653 846.779 148.711C845.979 148.771 843.804 148.414 843.167 148.15C842.526 147.885 838.918 148.864 836.758 149.278C834.595 149.693 828.528 148.636 828.054 148.989C827.58 149.339 825.611 148.443 825.121 148.357C824.632 148.268 823.327 148.589 823.121 148.321C822.915 148.053 822.173 147.532 821.983 147.832C821.797 148.132 820.441 148.618 819.462 148.136C818.487 147.65 815.1 148.918 814.289 149L813.811 148.746C812.051 147.821 810.533 147.853 808.742 148.775C807.22 149.557 805.604 147.646 804.617 148.2C803.122 149.032 801.49 149.178 800.314 148.757C799.288 148.393 798.869 148.493 797.983 148.718C797.404 148.861 795.995 148.207 795.932 148.293C795.148 149.425 794.239 147.843 793.641 148.368C793.004 148.928 792.74 148.675 792.103 148.339L790.821 147.66C789.182 147.871 785.69 148.289 783.06 148.589C780.435 148.889 771.362 148.621 770.239 148.843L769.206 148.864L766.231 148.928C762.976 148.846 759.69 149.114 758.932 149.525C758.179 149.936 754.275 149.203 752.667 148.968L751.164 148.903C749.42 148.828 747.665 148.868 745.917 148.893L744.787 148.911C744.367 148.25 743.87 147.718 743.68 147.732C743.485 147.743 742.542 147.996 742.006 148.275C741.47 148.55 739.815 149.343 739.248 149.036C738.685 148.732 734.952 149.543 732.319 149.471C729.689 149.4 722.014 148.782 721.063 148.65C720.111 148.518 717.163 149.264 716.471 148.828C715.784 148.393 712.432 149.418 711.519 149.486C710.61 149.55 707.196 149.775 706.023 149.896C704.858 150.018 701.413 149.068 700.566 149.286C699.715 149.503 696.6 149.539 695.754 149.303C694.907 149.071 690.891 149.514 689.151 149.45L687.488 149.068L686.16 148.761C683.997 149.278 679.938 149.7 677.141 149.696C674.348 149.693 665.271 149.918 663.178 150.229L662.556 148.186L662.506 148.025C661.077 148.053 660.059 148.296 660.238 148.568C660.42 148.836 660.253 149.657 659.364 149.639C658.47 149.621 655.122 149.996 653.782 150.368L652.298 149.75L651.463 149.4C650.92 148.9 650.104 148.468 649.649 148.443L649.459 148.586C649.055 148.889 648.725 149.65 648.511 149.621L644.336 149.064C639.761 149.768 635.95 149.936 635.88 149.439C635.803 148.943 634.789 147.789 633.81 148.136L633.006 148.053C631.243 147.878 631.938 149.207 631.216 149.471C630.505 149.732 629.534 149.557 628.71 149.689C627.763 149.843 626.873 150.211 625.922 150.318L625.358 150.382C624.682 150.186 623.393 149.875 622.488 149.696C621.583 149.514 619.21 149.95 618.65 150.154C618.099 150.357 615.497 149.921 614.661 150.114C613.823 150.307 609.647 150.475 607.27 151L605.165 149.721C604.648 149.407 603.211 149.436 602.66 149.757L600.9 150.782C599.067 150.279 596.577 149.746 595.365 149.603L595.222 149.836C594.138 151.561 592.685 149.318 591.435 150.139L590.234 150.921C588.906 150.304 586.358 149.557 584.571 149.261L582.874 150.196L581.682 150.854C580.765 149.803 578.955 149.153 577.654 149.407L577.269 149.886C576.376 150.996 575.673 149.382 574.958 149.943L574.737 150.118C574.457 150.268 572.962 150.168 571.404 149.893C569.855 149.618 561.348 150.475 560.886 150.561L560.727 150.443C559.651 149.625 558.284 149.186 557.142 149.993C555.728 150.982 555.433 149.146 554.077 149.578L553.044 149.911C551.526 149.421 548.24 149.264 545.738 149.553L543.443 149.65C542.083 149.707 539.865 149.903 539.504 149.421L538.525 148.1C537.508 148.668 536.362 149.103 535.985 149.068C535.605 149.032 534.067 149.125 532.932 148.982L531.961 148.95C531.072 148.918 530.163 149.446 529.231 149.628L529.114 149.653C528.8 149.175 528.19 148.561 527.755 148.286C527.316 148.007 526.256 149.168 525.89 149.75L524.865 149.678L523.583 149.593C522.166 149.636 519.711 149.775 518.118 149.896L516.619 149.714L515.116 149.532C513.399 149.611 511.912 149.307 511.811 148.861C511.714 148.414 511.403 147.325 511.321 147.321C511.232 147.318 510.913 147.675 510.797 148.111C510.68 148.55 509.744 149.736 509.01 149.614L508.754 149.371C507.352 148.025 507.387 148.007 505.429 149.193L505.215 149.325C504.982 149.45 503.169 149.675 501.184 149.821C499.199 149.971 494.01 148.436 493.404 148.746C492.798 149.057 491.625 148.421 492.188 148C492.747 147.578 493.792 146.357 492.747 146.596C491.707 146.839 489.341 148.318 488.941 148.832L488.584 148.828C487.811 148.825 487.046 148.364 486.273 148.357C485.589 148.35 484.909 148.796 484.195 148.861C483.36 148.936 482.354 149.011 481.658 148.743L479.219 147.803C476.617 148.336 473.739 148.807 472.814 148.853L472.065 148.657C470.849 148.332 468.076 147.793 466.961 148.132L464.654 148.836C462.564 148.039 460.587 147.76 460.257 148.221C459.931 148.678 454.889 148.2 451.867 148.111L449.067 148.096L446.977 148.089C444.709 148 441.225 148.268 439.228 148.682L437.306 148.146C436.253 147.853 433.519 147.21 432.684 146.818C432.268 146.621 431.018 146.753 430.998 146.839C430.664 148.393 429.856 148.628 428.384 147.475L428.279 147.393C428.101 147.357 426.302 147.696 424.286 148.157L422.741 147.828C420.849 147.421 419.385 146.968 417.633 148.028C417.186 148.3 416.029 147.964 415.221 147.828L414.596 147.721C413.939 147.51 412.805 147.646 412.071 148.025C411.337 148.407 407.981 147.753 407.08 147.657C406.175 147.56 402.201 147.557 400.279 147.864L398.865 146.657C398.834 146.628 398.414 146.925 398.15 146.964L393.808 147.618C391.462 147.139 389.236 146.732 388.852 146.707C388.475 146.685 385.422 146.914 382.525 146.921L379.922 147.243L379.662 147.271C379.18 146.432 378.629 146.189 378.442 146.728C378.248 147.268 373.906 147.625 371.249 147.964L369.128 146.56L368.95 146.439C368.32 146.693 366.576 146.925 365.073 146.95L363.718 146.56C362.595 146.239 361.679 148.207 360.191 146.846C359.946 146.625 359.041 146.778 358.447 146.803C358.07 146.821 357.69 147.018 357.336 146.982L356.726 146.921C356.109 146.771 354.485 146.932 353.118 147.278L352.287 146.335C351.145 145.035 350.29 147.153 348.904 146.328C347.502 145.492 348.271 144.317 347.42 143.621C347.028 143.296 345.68 143.274 345.059 143.521L343.804 144.021C342.569 144.828 341.827 145.56 342.149 145.65C342.472 145.735 342.254 146.203 340.821 146.453L339.516 146.243C338.724 146.118 337.939 145.739 337.174 145.775L334.781 145.885C333.336 144.585 332.156 143.917 332.156 144.4C332.156 144.878 331.002 146.771 329.588 146.728C328.178 146.693 325.024 145.153 324.846 145.389L324.636 145.578L324.275 145.903C323.875 146.225 322.329 146.393 320.849 146.282C319.373 146.171 315.159 145.4 314.681 145.053C314.203 144.71 312.743 144.671 312.677 145.196C312.615 145.725 310.533 145.735 310.428 145.717C310.319 145.703 309.989 144.714 309.841 143.449L307.635 144.646C306.618 145.2 305.282 145.45 304.042 145.717L303.405 145.857C302.368 145.792 301.514 145.171 301.502 144.478L301.526 143.871C301.545 143.199 301.599 142.485 300.287 142.61C298.923 142.735 299.584 143.589 299.413 144.139L299.335 144.375C299.079 144.85 298.605 144.91 298.29 144.514C297.976 144.117 296.418 143.649 295.738 144.603L295.191 145.182C294.946 145.439 294.429 145.717 294.064 145.696L293.726 145.678C293.416 145.328 292.965 144.532 292.732 143.907C292.499 143.282 290.468 142.999 290.906 143.196C291.353 143.396 290.794 144.953 288.689 146.207L286.82 144.635L286.079 144.01C285.321 144.3 284.117 144.846 283.406 145.225C282.692 145.6 278.994 144.325 278.664 144.185L278.365 144.189L278.066 144.196C277.743 144.342 277.6 144.592 277.747 144.75C277.891 144.907 276.555 145.782 274.267 146.157L273.04 145.607L271.136 144.76C269.315 145.078 267.986 145.021 268.188 144.639C268.39 144.253 267.272 142.085 265.112 140.949L262.253 142.353L260.502 143.214C257.628 142.442 255.922 141.864 256.715 141.924L256.781 141.792L257.6 140.185C259.368 140.517 261.038 140.849 261.306 140.928C261.578 141.003 261.776 139.66 259.876 139.792L258.835 139.221L256.536 137.963C255.841 139.213 255.215 140.021 255.146 139.753C255.08 139.485 254.435 138.696 253.86 138.596C253.289 138.488 252.011 139.478 251.875 139.738C251.735 140.003 250.43 141.039 249.525 141.664C248.628 142.292 247.261 145.278 247.125 144.682C246.989 144.085 246.154 142.621 245.548 142.649C244.938 142.682 242.95 142.442 242.511 142.292C242.072 142.146 241.004 142.532 241.582 142.785C242.165 143.039 243.703 143.996 243.781 144.278L243.676 144.507C243.614 144.653 243.186 144.85 243.019 144.807L241.951 144.542C240.565 144.125 239.427 143.396 239.427 142.917C239.427 142.439 238.902 141.124 238.261 141.314C237.624 141.506 237.112 143.339 236.871 143.853C236.638 144.371 234.241 144.117 234.001 144.046C233.768 143.978 233.224 142.707 233.938 141.549C234.653 140.392 234.937 138.046 233.892 139.196C232.843 140.339 229.596 142.942 228.916 142.517C228.24 142.092 226.733 143.457 226.423 143.942C226.116 144.425 223.502 144.585 223.086 143.982C222.663 143.378 226.05 142.289 226.947 141.999C227.84 141.706 230.423 140.821 230.625 140.539C230.827 140.256 231.002 139.192 230.913 138.86L230.726 138.821C230.287 138.735 229.557 138.667 229.359 138.846L228.629 139.506C227.957 140.31 227.207 140.939 226.959 140.906C226.71 140.874 225.999 140.424 225.957 139.996C225.914 139.567 224.873 138.231 224.512 137.846C224.147 137.46 222.974 136.553 222.721 136.699C222.465 136.842 221.047 137.72 220.286 138.51L221.168 138.553L223.183 138.66C224.038 139.721 224.741 140.703 224.753 140.846C224.764 140.985 224.108 141.667 223.245 141.717L222.465 141.821L221.828 141.903C221.152 142.082 220.371 142.342 220.095 142.482C219.82 142.624 218.736 142.057 218.332 142.339C217.928 142.621 216.677 142.814 216.32 142.228C215.967 141.642 213.928 140.299 212.844 140.992L212.098 141.478L211.314 141.985C210.684 141.589 209.208 140.846 208.039 140.331L207.309 139.485L206.579 138.635C205.429 139.163 203.98 139.81 203.355 140.074L203.029 140.435L202.388 141.139C201.77 142.082 200.318 142.567 199.164 142.217C198.01 141.867 196.006 140.453 195.245 140.26C194.484 140.071 192.678 139.938 192.988 140.717L192.728 140.939C192.223 141.364 191.279 141.478 190.67 141.856L190.514 141.953C190.821 142.485 190.802 143.024 190.475 143.149C190.153 143.271 189.197 142.807 188.867 142.267C188.537 141.731 185.71 140.267 183.527 140.531L183.729 142.778C183.783 143.41 181.274 143.699 180.827 143.078C180.373 142.457 180.528 141.899 181.794 141.76C182.171 141.721 182.808 140.956 182.68 140.735L182.156 139.842C181.705 140.417 180.252 140.785 178.932 140.66C177.611 140.539 174.081 141.617 173.63 141.424L173.172 141.353C172.593 141.26 171.808 141.103 171.412 141.303L169.785 142.117C168.099 141.646 166.448 141.196 166.122 141.114C165.792 141.035 164.192 141.199 162.77 141.306L161.655 140.603L161.298 140.378C160.607 140.196 159.927 140.442 159.791 140.921C159.655 141.403 158.066 143.028 156.68 143.067C155.289 143.099 151.522 142.882 151.378 143.11L151.211 143.314L151.001 143.571C150.745 143.835 150.438 143.842 150.325 143.589L150.155 143.385L149.712 142.857C149.234 142.339 147.719 142.471 146.352 143.146L146.173 143.007L144.888 142.006C143.987 142.653 142.825 143.042 142.309 142.871C141.792 142.699 139.415 143.024 138.44 142.707C137.461 142.392 134.206 143.485 133.383 143.653C132.563 143.821 129.942 143.132 128.827 143.664L127.499 142.657L126.508 141.903C124.869 142.417 122.438 142.842 121.105 142.849L119.936 143.367L118.736 143.896C117.493 143.453 115.862 142.621 115.112 142.039L114.13 143.114C113.275 144.05 112.44 142.66 111.617 142.657C110.712 142.653 109.34 143.535 108.983 143.31C107.604 142.446 106.101 142.532 104.61 142.621C102.8 142.728 100.772 142.014 99.2146 143.324L99.0554 143.46C98.597 143.41 97.5639 143.146 96.7637 142.871C95.9636 142.596 92.5378 142.249 90.9221 142.717L89.551 142.535C86.6729 142.149 83.8491 141.485 81.0798 140.774C80.4738 140.621 80.2175 139.767 79.7203 139.281C79.4601 139.024 79.0134 138.692 78.6677 138.703C77.9919 138.724 77.25 139.167 76.6868 139.046L76.2984 138.96C76.077 138.313 75.0749 137.578 74.0767 137.317C73.0785 137.056 70.0916 137.431 69.3964 137.535L68.7206 137.138C67.2912 136.303 65.5239 136.092 62.6148 136.099C62.3701 136.099 61.7991 135.288 61.9234 135.16C62.5487 134.535 63.714 134.085 61.4884 133.885C60.4746 133.795 60.5756 132.938 61.3291 132.406L61.702 132.142C62.0632 131.827 62.1176 131.181 61.8302 130.709C61.5466 130.234 63.0226 129.57 63.5702 129.934C64.1257 130.299 66.2347 129.723 66.794 130.124L67.0854 130.566C67.2951 130.884 66.996 131.374 67.1669 131.72C67.3029 131.992 67.769 132.231 68.1651 132.349L68.3826 132.413C68.74 132.242 69.5362 131.552 70.1538 130.877C70.7714 130.206 72.1852 127.82 71.8278 127.198C71.4744 126.58 68.305 127.13 67.4194 126.902L67.3106 126.541L67.0116 125.552C66.3085 124.634 65.4385 124.266 65.0773 124.741C64.7122 125.212 64.2461 127.227 63.3411 126.491C62.4322 125.752 58.5831 124.673 57.9966 124.237C57.4023 123.805 59.0297 122.273 59.791 122.737C60.5484 123.202 62.84 124.255 63.1974 124.055C63.5586 123.855 64.3276 122.644 64.8442 121.862L66.2114 122.598C66.6193 122.816 67.7418 122.852 67.9049 122.666C68.4098 122.094 68.3166 121.651 67.1436 121.294L66.2736 121.03C65.5045 120.034 65.5084 118.912 66.2891 118.537L66.7552 118.041L67.0232 117.751C66.8484 117.187 66.3901 116.594 66.0017 116.433C65.621 116.269 63.3178 115.215 61.5039 114.955L61.0883 116.187L60.4202 118.155C58.552 117.665 57.4877 117.101 58.0548 116.901C58.6219 116.701 59.6395 116.151 59.4259 115.99C59.2084 115.833 58.0004 114.919 57.1926 114.297L56.4196 113.762L55.7399 113.29C54.8504 113.515 53.3861 113.34 52.485 112.901L51.5567 112.754C50.5546 112.597 49.4671 112.719 48.4184 112.719C46.6666 112.719 44.8683 112.537 43.1749 112.772C41.5319 113.004 40.2657 112.044 38.5955 112.351C37.7643 112.504 36.5835 112.001 35.729 111.597L34.556 111.04C33.1811 111.04 30.637 110.851 28.8969 110.611C27.1607 110.376 21.3656 108.111 19.3614 107.583L17.4699 107.233L16.1843 106.997C14.7199 106.89 12.8245 106.622 11.9739 106.408L11.1777 106.04L7.97716 104.557C8.49374 102.943 9.20453 100.989 9.56576 100.214L7.18479 100.557C6.0118 100.725 5.39034 100.236 5.64281 99.3499L5.81372 98.7499C6.01181 98.0891 5.88751 97.289 5.53405 96.9676C5.18449 96.6461 4.32999 95.5818 4.79608 95.3818C5.25829 95.1746 6.9634 94.121 7.61205 93.4995L6.29145 93.1316C5.19225 92.8245 4.73393 92.3958 5.26605 91.8351L6.22155 90.8457C5.31655 90.3314 3.86778 87.9027 2.99774 85.4489L1.0285 83.5095L0.562414 83.0487C1.35089 81.7344 1.53343 80.6093 0.974125 80.545C0.407047 80.4843 -0.435799 79.8771 0.267222 79.3306C0.974128 78.7842 0.286645 76.859 0.80323 76.7519C1.31981 76.6411 2.73362 75.4982 2.31803 74.5553L1.96457 73.6731C1.5917 72.7409 0.849836 71.7479 1.02462 70.8693C1.20329 69.98 2.14324 69.062 3.06766 68.4084C3.68911 67.9727 5.36316 68.187 5.68942 67.7441L6.3808 66.8155C7.37513 66.9298 8.64911 67.0548 9.20842 67.094C9.76773 67.1262 12.4128 64.9367 12.941 65.1225C13.4693 65.3082 16.5571 64.4189 17.6486 64.3617L18.7011 64.0545C19.5207 63.8188 21.0316 64.7046 21.6919 64.4081C22.8222 63.9045 23.3271 63.9867 24.3525 64.4974C24.9856 64.8046 26.3412 64.6653 27.1102 64.3581L29.398 63.4545C29.1688 64.5153 30.7768 64.1688 32.9752 62.683L36.2068 63.1473L36.7272 63.2223C37.407 62.8723 38.3314 62.733 38.7781 62.9116C39.2325 63.0866 41.8232 62.983 43.6798 61.7151L46.3171 62.8295C47.1366 63.1759 49.2729 62.1616 49.7312 62.5294L51.1955 63.6867C52.3064 63.0366 54.2989 62.0437 55.6234 61.4794L56.7536 61.2686C57.9111 61.0579 59.4958 61.0543 60.7154 61.2436C62.739 61.5544 64.4908 61.9294 66.46 60.9972L67.9981 60.2721C70.0567 60.19 71.9249 60.3757 72.1425 60.6829L72.391 60.9365L72.8765 61.4436C73.4514 61.9973 74.4457 61.758 75.0788 60.915C75.7158 60.065 80.2486 60.7722 81.7167 60.8543C83.1811 60.9365 87.5157 59.2899 88.6266 59.2292L89.6675 59.2613C92.0795 59.3399 93.3224 59.2649 94.3906 58.9113C94.8333 58.7649 95.2955 58.4684 95.715 58.5006L96.5113 58.5649C97.2182 58.272 98.6592 57.8291 99.7195 57.5791L100.605 57.7505L101.335 57.8934C102 58.5899 102.501 58.347 102.454 57.3505L104.497 57.6255C105.736 57.7934 107.282 58.1041 108.389 57.1183C108.463 57.054 109.072 57.1826 109.08 57.2469C109.162 57.9041 109.224 58.7077 110.42 58.4077C110.976 58.272 111.1 57.2576 111.679 57.0576C112.995 56.604 114.464 56.1968 115.881 56.1647L117.528 56.129C119.4 56.3147 121.54 56.2647 122.282 56.0147C123.028 55.7647 125.654 55.4361 126.333 55.5039C127.017 55.5682 129.254 55.6325 129.526 55.4289C129.798 55.2253 130.924 54.661 131.025 54.9217C131.13 55.1825 132.082 55.7825 132.847 55.5039C133.608 55.2253 136.117 54.7146 136.591 55.0325C137.061 55.3504 138.941 56.1826 139.419 55.9611C139.889 55.7432 140.833 54.6646 141.349 54.1503C141.866 53.6359 144.348 53.9003 145.226 53.6752L146.127 53.6574L147.249 53.6359C148.547 53.6109 150.733 53.7967 152.104 54.0538L153.413 54.2003C153.763 54.236 154.213 54.161 154.513 54.0145L157.356 52.6644C159.057 53.6502 160.513 54.1217 160.599 53.711C160.68 53.3002 161.558 52.218 162.3 52.518L162.887 52.6287L163.454 52.7395C164.126 52.7323 165.334 52.143 166.145 51.4251L167.509 51.3286L168.049 51.2929C168.631 50.6857 168.573 49.7571 167.917 49.2285L167.206 49.0749C165.994 48.8177 166.056 49.6071 165.796 50.2286C165.691 50.4714 164.619 50.5107 163.978 50.6C162.595 50.8 160.851 51.4394 159.9 51.0393C158.323 50.375 156.87 50.7357 155.39 50.6322C153.825 50.5179 152.236 50.6072 150.663 50.6072C149.086 50.6072 147.49 50.4893 145.936 50.6357C143.715 50.8429 142.946 49.4785 141.804 48.6177L140.475 47.6105C139.042 47.6141 137.244 47.7962 136.483 48.0141C135.713 48.232 134.529 48.2963 133.942 48.3677C133.356 48.4392 131.453 47.4034 130.862 47.0891C130.28 46.7747 127.949 46.0854 127.526 46.4926L127.238 46.939C126.792 47.6284 126.834 47.6391 128.341 47.6712C128.59 47.6784 129.056 47.7748 129.056 47.8105C129.021 48.1677 128.986 48.8035 128.811 48.832C127.782 48.9856 126.283 49.6892 126.054 48.232L125.941 47.4962C126.182 46.5819 126.465 45.6568 126.559 45.4389C126.656 45.2175 126.57 44.6889 126.162 44.7817L125.79 44.8568C125.312 44.946 124.83 45.0246 124.349 45.1032L122.457 45.4104C123.218 46.3033 122.834 47.4605 121.603 47.9784C120.371 48.4999 116.635 48.4856 116.592 48.0891L116.689 47.7498L116.856 47.1998C117.14 46.6105 116.988 46.1604 116.514 46.1961C116.044 46.2354 114.576 45.3818 114.763 44.1781L114.374 44.0674L110.762 43.0352C111.481 40.785 112.964 39.1385 114.06 39.3778L114.852 39.6064C115.605 39.8278 116.289 40.1993 117.062 40.3529C117.474 40.435 118.091 40.2957 118.453 40.0921L119.361 39.5814C120.507 39.5135 122.041 38.9885 122.768 38.417L122.729 37.9313L122.682 37.4169C121.874 36.9205 120.426 36.499 119.455 36.474L118.825 36.7883C118.309 37.0419 118.798 38.267 117.501 37.9777L116.592 37.7741C115.691 37.1312 114.65 37.1026 114.273 37.7134C113.896 38.3206 111.659 37.6348 111.76 37.4419C111.869 37.2491 111.842 36.5883 111.368 36.5883C110.894 36.5883 109.379 36.8776 109.294 37.2312C109.205 37.5848 108.653 38.6135 108.292 38.5813L108.222 38.467C108.024 38.1384 108.074 37.6991 107.802 37.4241L106.723 36.3276C104.92 36.3883 103.227 36.424 102.959 36.4026C102.691 36.3776 102.283 34.9882 103.639 33.4631L105.557 34.3167L107.033 34.9703C108.676 34.9346 110.055 34.3489 110.098 33.6738C110.137 32.9952 109.838 31.0772 109.321 31.0772C108.808 31.0772 107.398 31.3879 107.88 31.763L108.024 32.0951L108.16 32.413C108.032 32.9309 107.165 33.1774 106.222 32.9595C105.278 32.7452 103.697 31.888 104.804 31.538L104.843 31.1986C104.901 30.7022 104.21 30.1021 103.662 29.6664C103.545 29.57 102.683 30.1521 102.198 30.12C101.697 30.0807 101.184 29.7128 100.807 29.3985C100.737 29.3414 101.246 28.8556 101.541 28.602L101.611 28.5377C101.852 28.5699 103.479 28.8128 105.227 29.0771C106.971 29.3414 111.663 28.0627 112.121 28.3377L112.522 28.3092C113.042 28.2699 113.543 27.9591 113.997 27.7055C114.133 27.627 114.168 27.3127 114.071 27.1734L113.928 26.9555C113.636 26.7662 113.788 26.459 114.265 26.2733C114.743 26.0911 116.398 25.7733 116.763 26.0268C117.12 26.2804 118.421 26.7805 118.771 26.5197C119.117 26.2626 120.597 26.0911 121.136 26.8233C121.684 27.5555 123.203 29.4592 123.308 29.4342C123.413 29.4092 123.401 28.202 123.047 26.8126L122.9 25.534L122.869 25.2697C123.529 24.9339 124.38 24.8732 124.76 25.1339L124.916 25.4268L125.324 26.209C125.751 27.2841 126.679 27.0341 127.378 25.659L128.322 24.9839L129.425 24.1946C129.981 23.1624 130.606 22.523 130.816 22.7659C131.021 23.0123 132.513 23.841 133.476 23.841L134.35 24.1839L135.181 24.5124C136.486 24.691 137.551 24.4374 137.551 23.9446C137.551 23.4517 137.92 22.473 138.366 22.6838L138.797 22.8373C139.803 23.1945 140.813 23.7481 141.843 23.7803C142.348 23.7981 142.88 22.4159 143.451 22.3909L144.476 22.3516C145.696 22.373 146.973 22.5159 147.315 22.6659C147.661 22.8123 149.051 22.5337 148.974 21.4729L149.145 20.7479L149.339 19.9371C149.793 19.0764 151.988 18.9049 154.217 19.5585L156.761 17.7691C158.284 16.6976 159.562 14.8403 162.238 16.6548L162.32 16.7119C163.461 15.9118 164.906 15.6833 165.528 16.2047L166.219 16.5797L166.553 16.7619C167.101 16.7333 168.192 16.7083 168.977 16.6976C169.758 16.6869 172.212 15.8083 173.179 15.5832C174.147 15.3618 177.716 15.2297 178.92 15.1904C180.124 15.1546 182.917 13.8438 183.589 14.3332C184.261 14.8225 185.795 16.3154 185.667 16.6869C185.539 17.0583 185.88 18.3406 186.863 18.3013L187.826 18.387L189.407 18.5263C190.37 17.712 191.652 16.4297 192.25 15.6797C192.852 14.9261 194.907 13.0652 195.358 13.3652L195.723 13.5188L197.556 14.3046C197.276 15.1832 196.531 16.2154 195.898 16.594L195.645 17.0369L195.447 17.3941C195.676 17.9191 196.138 18.2906 196.472 18.212C196.806 18.1334 198.574 17.0334 199.96 16.144L201.848 16.8048L202.384 16.9941C202.928 17.2548 203.817 16.7798 204.357 15.9333C204.905 15.0904 207.068 13.0295 207.81 13.4688L208.533 13.6224L209.83 13.901C210.968 14.5296 212.397 15.1368 213.003 15.2511C213.609 15.3689 213.555 17.0655 213.834 17.3334C214.106 17.6013 215.147 17.6834 215.33 18.037C215.52 18.3906 217.043 17.8691 217.229 17.3012C217.419 16.7333 219.991 16.8833 220.538 16.9941C221.094 17.1012 223.187 16.3083 225.083 16.669L226.873 16.8262L228.563 16.9762C230.381 17.3477 232.183 17.1691 232.563 16.5726C232.94 15.9761 231.604 14.0867 231.798 13.6545Z" fill="#AAC8CA"/>
<path d="M258.552 98.776C259.363 98.776 260.045 99.0533 260.6 99.608C261.155 100.12 261.432 100.803 261.432 101.656C261.432 102.509 261.112 103.213 260.472 103.768C259.875 104.323 259.149 104.579 258.296 104.536C257.101 104.408 256.035 104.301 255.096 104.216C254.2 104.173 253.325 104.152 252.472 104.152C251.661 104.152 250.787 104.173 249.848 104.216C248.952 104.301 247.885 104.408 246.648 104.536C245.795 104.579 245.069 104.323 244.472 103.768C243.875 103.213 243.576 102.509 243.576 101.656C243.576 100.803 243.875 100.099 244.472 99.544C245.069 98.9467 245.795 98.6907 246.648 98.776C247.117 98.8187 247.608 98.8613 248.12 98.904C248.675 98.9467 249.208 98.9893 249.72 99.032H249.848C250.147 99.032 250.296 98.8613 250.296 98.52V66.2C250.296 65.9013 250.211 65.752 250.04 65.752C249.869 65.7093 249.741 65.816 249.656 66.072L236.472 96.536C236.173 97.2187 235.725 97.7733 235.128 98.2C234.573 98.584 233.933 98.776 233.208 98.776C232.525 98.776 231.864 98.5627 231.224 98.136C230.627 97.7093 230.2 97.176 229.944 96.536L217.784 66.008C217.741 65.752 217.635 65.624 217.464 65.624C217.251 65.624 217.144 65.7947 217.144 66.136V98.52C217.144 98.8613 217.293 99.032 217.592 99.032C218.147 99.032 218.68 99.0107 219.192 98.968C219.747 98.8827 220.28 98.8187 220.792 98.776C221.645 98.6907 222.371 98.9467 222.968 99.544C223.565 100.099 223.864 100.803 223.864 101.656C223.864 102.509 223.565 103.213 222.968 103.768C222.371 104.323 221.645 104.579 220.792 104.536C219.597 104.408 218.531 104.301 217.592 104.216C216.696 104.173 215.821 104.152 214.968 104.152C214.115 104.152 213.24 104.173 212.344 104.216C211.448 104.301 210.381 104.408 209.144 104.536C208.291 104.579 207.544 104.323 206.904 103.768C206.307 103.213 206.008 102.509 206.008 101.656C206.008 100.803 206.285 100.12 206.84 99.608C207.395 99.0533 208.077 98.776 208.888 98.776C209.571 98.776 210.189 98.84 210.744 98.968C211.171 98.968 211.384 98.776 211.384 98.392V62.04C211.384 61.656 211.192 61.464 210.808 61.464C210.552 61.5067 210.275 61.5493 209.976 61.592C209.677 61.592 209.357 61.592 209.016 61.592C208.205 61.592 207.523 61.3147 206.968 60.76C206.413 60.2053 206.136 59.5227 206.136 58.712C206.136 57.8587 206.456 57.1547 207.096 56.6C207.736 56.0453 208.483 55.8107 209.336 55.896C210.744 56.0667 211.917 56.1947 212.856 56.28C213.795 56.3653 214.755 56.408 215.736 56.408C216.973 56.408 218.083 56.7493 219.064 57.432C220.088 58.1147 220.813 59.032 221.24 60.184L232.952 90.072C233.08 90.328 233.208 90.456 233.336 90.456C233.549 90.456 233.677 90.328 233.72 90.072L246.328 60.12C246.797 59.0107 247.544 58.1147 248.568 57.432C249.592 56.7493 250.701 56.408 251.896 56.408C252.92 56.408 253.88 56.3653 254.776 56.28C255.672 56.1947 256.781 56.0667 258.104 55.896C258.957 55.8107 259.704 56.0667 260.344 56.664C260.984 57.2187 261.304 57.9227 261.304 58.776C261.304 59.5867 261.027 60.2693 260.472 60.824C259.917 61.336 259.235 61.592 258.424 61.592C258.125 61.592 257.827 61.5707 257.528 61.528C257.272 61.4853 256.973 61.464 256.632 61.464H256.504C256.205 61.464 256.056 61.6347 256.056 61.976V98.392C256.056 98.776 256.269 98.968 256.696 98.968C257.336 98.84 257.955 98.776 258.552 98.776ZM300.907 91.224C301.803 91.224 302.55 91.544 303.147 92.184C303.744 92.7813 304 93.5067 303.915 94.36L303.531 99.736C303.488 100.931 303.04 101.933 302.187 102.744C301.334 103.555 300.331 103.96 299.179 103.96H276.523C275.755 103.96 274.944 104.024 274.091 104.152C273.28 104.28 272.491 104.387 271.723 104.472C270.827 104.6 270.038 104.365 269.355 103.768C268.672 103.171 268.331 102.403 268.331 101.464C268.331 100.525 268.672 99.7787 269.355 99.224C270.038 98.6267 270.827 98.392 271.723 98.52C271.851 98.5627 272 98.584 272.171 98.584C272.342 98.584 272.534 98.6053 272.747 98.648H272.875C273.216 98.648 273.387 98.4773 273.387 98.136V62.168C273.387 61.784 273.216 61.592 272.875 61.592C272.704 61.592 272.512 61.6347 272.299 61.72C272.128 61.7627 271.936 61.8053 271.723 61.848C270.827 61.976 270.038 61.7627 269.355 61.208C268.672 60.6107 268.331 59.8427 268.331 58.904C268.331 57.9653 268.672 57.1973 269.355 56.6C270.038 56.0027 270.827 55.768 271.723 55.896C272.576 55.9813 273.451 56.088 274.347 56.216C275.243 56.344 276.096 56.408 276.907 56.408H299.179C300.331 56.408 301.334 56.8133 302.187 57.624C303.04 58.4347 303.488 59.4373 303.531 60.632L303.915 66.008C304 66.8187 303.744 67.544 303.147 68.184C302.55 68.824 301.803 69.144 300.907 69.144C300.054 69.144 299.328 68.8667 298.731 68.312C298.176 67.7147 297.899 67.0107 297.899 66.2C297.899 65.688 297.92 65.1333 297.963 64.536C298.048 63.896 298.112 63.2773 298.155 62.68C298.155 62.296 297.963 62.104 297.579 62.104H279.723C279.339 62.104 279.147 62.296 279.147 62.68V75.864C279.147 76.248 279.339 76.44 279.723 76.44H295.403C296.171 76.44 296.832 76.7173 297.387 77.272C297.942 77.8267 298.219 78.488 298.219 79.256C298.219 80.024 297.942 80.6853 297.387 81.24C296.832 81.752 296.171 82.008 295.403 82.008H279.723C279.339 82.008 279.147 82.2 279.147 82.584V97.688C279.147 98.072 279.339 98.264 279.723 98.264H297.579C297.963 98.264 298.155 98.072 298.155 97.688C298.112 97.048 298.048 96.4507 297.963 95.896C297.92 95.2987 297.899 94.7227 297.899 94.168C297.899 93.3573 298.176 92.6747 298.731 92.12C299.328 91.5227 300.054 91.224 300.907 91.224ZM320.663 68.504C320.535 70.1253 320.876 71.448 321.687 72.472C322.54 73.4533 323.692 74.2853 325.143 74.968C326.636 75.6507 328.279 76.2693 330.071 76.824C331.863 77.3787 333.655 77.9973 335.447 78.68C337.239 79.32 338.882 80.152 340.375 81.176C341.911 82.1573 343.127 83.4373 344.023 85.016C344.962 86.552 345.431 88.5147 345.431 90.904C345.431 93.5067 344.727 95.832 343.319 97.88C341.954 99.928 340.055 101.549 337.623 102.744C335.191 103.939 332.439 104.536 329.367 104.536C325.527 104.536 322.327 103.853 319.767 102.488C317.207 101.08 315.223 99.544 313.815 97.88C312.748 96.6427 312.215 95.32 312.215 93.912C312.215 92.7173 312.599 91.6933 313.367 90.84C314.135 89.9867 315.244 89.56 316.695 89.56C317.89 89.56 318.871 90.008 319.639 90.904C320.45 91.8 320.855 92.8027 320.855 93.912C320.855 94.4667 320.727 95.0427 320.471 95.64C320.343 95.9813 320.386 96.2373 320.599 96.408C321.708 97.2613 322.946 97.9013 324.311 98.328C325.719 98.7547 327.127 98.968 328.535 98.968C330.412 98.968 332.204 98.648 333.911 98.008C335.618 97.3253 337.004 96.3867 338.071 95.192C339.138 93.9547 339.671 92.5253 339.671 90.904C339.671 89.4533 339.223 88.2587 338.327 87.32C337.431 86.3387 336.236 85.528 334.743 84.888C333.292 84.2053 331.692 83.5867 329.943 83.032C328.194 82.4773 326.423 81.8587 324.631 81.176C322.882 80.4933 321.26 79.6613 319.767 78.68C318.316 77.656 317.143 76.3973 316.247 74.904C315.351 73.4107 314.903 71.5547 314.903 69.336C314.903 66.904 315.33 64.8347 316.183 63.128C317.079 61.3787 318.274 59.992 319.767 58.968C321.26 57.9013 322.924 57.1333 324.759 56.664C326.594 56.152 328.471 55.896 330.391 55.896C332.823 55.896 335.148 56.2373 337.367 56.92C339.586 57.6027 341.378 58.5413 342.743 59.736C344.151 60.9307 344.855 62.296 344.855 63.832C344.812 65.0267 344.364 66.0507 343.511 66.904C342.7 67.7573 341.698 68.184 340.503 68.184C339.308 68.184 338.284 67.7573 337.431 66.904C336.62 66.0507 336.215 65.0267 336.215 63.832C336.215 63.4053 336.236 63.1067 336.279 62.936C336.364 62.5947 336.343 62.4027 336.215 62.36C335.66 62.0613 334.828 61.8053 333.719 61.592C332.652 61.3787 331.5 61.272 330.263 61.272C328.855 61.272 327.426 61.4853 325.975 61.912C324.567 62.296 323.372 63.0213 322.391 64.088C321.41 65.112 320.834 66.584 320.663 68.504ZM410.623 90.456C411.391 91.1387 411.775 91.992 411.775 93.016C411.775 93.6987 411.604 94.2747 411.263 94.744C409.044 97.8587 406.292 100.269 403.007 101.976C399.722 103.683 396.244 104.536 392.575 104.536C389.375 104.536 386.367 103.917 383.551 102.68C380.735 101.4 378.26 99.6507 376.127 97.432C373.994 95.1707 372.308 92.568 371.071 89.624C369.876 86.68 369.279 83.5227 369.279 80.152C369.279 76.7813 369.876 73.624 371.071 70.68C372.266 67.736 373.93 65.1547 376.063 62.936C378.196 60.7173 380.671 58.9893 383.487 57.752C386.303 56.472 389.332 55.832 392.575 55.832C398.634 55.832 403.732 57.816 407.871 61.784C410.175 63.8747 411.327 65.9227 411.327 67.928C411.327 69.1653 410.9 70.2107 410.047 71.064C409.194 71.9173 408.17 72.344 406.975 72.344C405.695 72.344 404.65 71.896 403.839 71C403.028 70.104 402.623 69.1013 402.623 67.992C402.623 67.224 402.815 66.52 403.199 65.88C403.412 65.5387 403.391 65.2613 403.135 65.048C400.66 62.5733 397.14 61.336 392.575 61.336C389.247 61.336 386.26 62.168 383.615 63.832C380.97 65.4533 378.879 67.6933 377.343 70.552C375.807 73.368 375.039 76.568 375.039 80.152C375.039 83.6933 375.807 86.872 377.343 89.688C378.879 92.4613 380.97 94.6587 383.615 96.28C386.26 97.9013 389.247 98.712 392.575 98.712C395.519 98.712 398.25 98.0507 400.767 96.728C403.284 95.4053 405.332 93.5493 406.911 91.16C407.423 90.3067 408.148 89.88 409.087 89.88C409.684 89.88 410.196 90.072 410.623 90.456ZM442.44 55.832C445.64 55.832 448.648 56.472 451.464 57.752C454.28 58.9893 456.754 60.7387 458.888 63C461.021 65.2187 462.685 67.8 463.88 70.744C465.117 73.688 465.736 76.824 465.736 80.152C465.736 83.5227 465.117 86.68 463.88 89.624C462.685 92.568 461.021 95.1707 458.888 97.432C456.754 99.6507 454.28 101.4 451.464 102.68C448.648 103.917 445.64 104.536 442.44 104.536C439.24 104.536 436.232 103.917 433.416 102.68C430.6 101.4 428.125 99.6507 425.992 97.432C423.858 95.1707 422.173 92.568 420.936 89.624C419.741 86.68 419.144 83.5227 419.144 80.152C419.144 76.824 419.741 73.688 420.936 70.744C422.173 67.8 423.858 65.2187 425.992 63C428.125 60.7387 430.6 58.9893 433.416 57.752C436.232 56.472 439.24 55.832 442.44 55.832ZM442.44 98.712C445.81 98.712 448.797 97.9227 451.4 96.344C454.002 94.7227 456.05 92.5253 457.544 89.752C459.08 86.936 459.848 83.736 459.848 80.152C459.848 76.568 459.08 73.3893 457.544 70.616C456.05 67.8427 453.981 65.6667 451.336 64.088C448.733 62.4667 445.768 61.656 442.44 61.656C439.069 61.656 436.061 62.4667 433.416 64.088C430.813 65.6667 428.744 67.864 427.208 70.68C425.714 73.4533 424.968 76.6107 424.968 80.152C424.968 83.6933 425.714 86.872 427.208 89.688C428.744 92.504 430.834 94.7227 433.48 96.344C436.125 97.9227 439.112 98.712 442.44 98.712ZM521.552 98.776C522.363 98.776 523.045 99.0533 523.6 99.608C524.155 100.12 524.432 100.803 524.432 101.656C524.432 102.509 524.112 103.213 523.472 103.768C522.875 104.323 522.149 104.579 521.296 104.536C520.101 104.408 519.035 104.301 518.096 104.216C517.2 104.173 516.325 104.152 515.472 104.152C514.661 104.152 513.787 104.173 512.848 104.216C511.952 104.301 510.885 104.408 509.648 104.536C508.795 104.579 508.069 104.323 507.472 103.768C506.875 103.213 506.576 102.509 506.576 101.656C506.576 100.803 506.875 100.099 507.472 99.544C508.069 98.9467 508.795 98.6907 509.648 98.776C510.117 98.8187 510.608 98.8613 511.12 98.904C511.675 98.9467 512.208 98.9893 512.72 99.032H512.848C513.147 99.032 513.296 98.8613 513.296 98.52V66.2C513.296 65.9013 513.211 65.752 513.04 65.752C512.869 65.7093 512.741 65.816 512.656 66.072L499.472 96.536C499.173 97.2187 498.725 97.7733 498.128 98.2C497.573 98.584 496.933 98.776 496.208 98.776C495.525 98.776 494.864 98.5627 494.224 98.136C493.627 97.7093 493.2 97.176 492.944 96.536L480.784 66.008C480.741 65.752 480.635 65.624 480.464 65.624C480.251 65.624 480.144 65.7947 480.144 66.136V98.52C480.144 98.8613 480.293 99.032 480.592 99.032C481.147 99.032 481.68 99.0107 482.192 98.968C482.747 98.8827 483.28 98.8187 483.792 98.776C484.645 98.6907 485.371 98.9467 485.968 99.544C486.565 100.099 486.864 100.803 486.864 101.656C486.864 102.509 486.565 103.213 485.968 103.768C485.371 104.323 484.645 104.579 483.792 104.536C482.597 104.408 481.531 104.301 480.592 104.216C479.696 104.173 478.821 104.152 477.968 104.152C477.115 104.152 476.24 104.173 475.344 104.216C474.448 104.301 473.381 104.408 472.144 104.536C471.291 104.579 470.544 104.323 469.904 103.768C469.307 103.213 469.008 102.509 469.008 101.656C469.008 100.803 469.285 100.12 469.84 99.608C470.395 99.0533 471.077 98.776 471.888 98.776C472.571 98.776 473.189 98.84 473.744 98.968C474.171 98.968 474.384 98.776 474.384 98.392V62.04C474.384 61.656 474.192 61.464 473.808 61.464C473.552 61.5067 473.275 61.5493 472.976 61.592C472.677 61.592 472.357 61.592 472.016 61.592C471.205 61.592 470.523 61.3147 469.968 60.76C469.413 60.2053 469.136 59.5227 469.136 58.712C469.136 57.8587 469.456 57.1547 470.096 56.6C470.736 56.0453 471.483 55.8107 472.336 55.896C473.744 56.0667 474.917 56.1947 475.856 56.28C476.795 56.3653 477.755 56.408 478.736 56.408C479.973 56.408 481.083 56.7493 482.064 57.432C483.088 58.1147 483.813 59.032 484.24 60.184L495.952 90.072C496.08 90.328 496.208 90.456 496.336 90.456C496.549 90.456 496.677 90.328 496.72 90.072L509.328 60.12C509.797 59.0107 510.544 58.1147 511.568 57.432C512.592 56.7493 513.701 56.408 514.896 56.408C515.92 56.408 516.88 56.3653 517.776 56.28C518.672 56.1947 519.781 56.0667 521.104 55.896C521.957 55.8107 522.704 56.0667 523.344 56.664C523.984 57.2187 524.304 57.9227 524.304 58.776C524.304 59.5867 524.027 60.2693 523.472 60.824C522.917 61.336 522.235 61.592 521.424 61.592C521.125 61.592 520.827 61.5707 520.528 61.528C520.272 61.4853 519.973 61.464 519.632 61.464H519.504C519.205 61.464 519.056 61.6347 519.056 61.976V98.392C519.056 98.776 519.269 98.968 519.696 98.968C520.336 98.84 520.955 98.776 521.552 98.776ZM552.067 56.408C557.443 56.408 561.688 57.688 564.803 60.248C567.918 62.7653 569.475 66.2853 569.475 70.808C569.475 75.3307 567.918 78.872 564.803 81.432C561.731 83.9493 557.4 85.208 551.811 85.208H543.107C542.723 85.208 542.531 85.4 542.531 85.784V98.52C542.531 98.8613 542.68 99.032 542.979 99.032C543.534 99.032 544.067 99.0107 544.579 98.968C545.091 98.8827 545.603 98.8187 546.115 98.776C546.968 98.6907 547.694 98.9467 548.291 99.544C548.888 100.099 549.187 100.803 549.187 101.656C549.187 102.467 548.867 103.149 548.227 103.704C547.63 104.301 546.926 104.557 546.115 104.472C544.878 104.387 543.79 104.301 542.851 104.216C541.912 104.173 541.016 104.152 540.163 104.152C539.31 104.152 538.435 104.173 537.539 104.216C536.686 104.301 535.662 104.387 534.467 104.472C533.656 104.557 532.931 104.323 532.291 103.768C531.651 103.213 531.331 102.509 531.331 101.656C531.331 100.803 531.608 100.12 532.163 99.608C532.718 99.0533 533.4 98.776 534.211 98.776C534.51 98.776 534.808 98.7973 535.107 98.84C535.448 98.8827 535.811 98.9253 536.195 98.968H536.323C536.622 98.968 536.771 98.7973 536.771 98.456V62.168C536.771 61.8267 536.622 61.656 536.323 61.656C535.982 61.656 535.64 61.6987 535.299 61.784C535 61.8267 534.68 61.848 534.339 61.848C533.528 61.848 532.824 61.5707 532.227 61.016C531.63 60.4187 531.331 59.7147 531.331 58.904C531.331 57.9653 531.651 57.2187 532.291 56.664C532.974 56.0667 533.763 55.8107 534.659 55.896C535.512 56.024 536.387 56.152 537.283 56.28C538.222 56.3653 539.118 56.408 539.971 56.408H552.067ZM542.531 79C542.531 79.384 542.723 79.576 543.107 79.576H552.387C560.11 79.576 563.971 76.6533 563.971 70.808C563.971 64.792 559.982 61.848 552.003 61.976H543.107C542.723 61.976 542.531 62.168 542.531 62.552V79ZM598.682 46.552L592.41 51.992C591.941 52.3333 591.493 52.504 591.066 52.504C590.511 52.504 590.021 52.2907 589.594 51.864C589.167 51.4373 588.954 50.9467 588.954 50.392C588.954 49.9227 589.125 49.4533 589.466 48.984L595.034 42.712C595.546 42.1147 596.207 41.816 597.018 41.816C597.743 41.816 598.362 42.0933 598.874 42.648C599.386 43.16 599.642 43.7787 599.642 44.504C599.642 45.272 599.322 45.9547 598.682 46.552ZM608.282 91.224C609.178 91.224 609.925 91.544 610.522 92.184C611.119 92.7813 611.375 93.5067 611.29 94.36L610.906 99.736C610.863 100.931 610.415 101.933 609.562 102.744C608.709 103.555 607.706 103.96 606.554 103.96H583.898C583.13 103.96 582.319 104.024 581.466 104.152C580.655 104.28 579.866 104.387 579.098 104.472C578.202 104.6 577.413 104.365 576.73 103.768C576.047 103.171 575.706 102.403 575.706 101.464C575.706 100.525 576.047 99.7787 576.73 99.224C577.413 98.6267 578.202 98.392 579.098 98.52C579.226 98.5627 579.375 98.584 579.546 98.584C579.717 98.584 579.909 98.6053 580.122 98.648H580.25C580.591 98.648 580.762 98.4773 580.762 98.136V62.168C580.762 61.784 580.591 61.592 580.25 61.592C580.079 61.592 579.887 61.6347 579.674 61.72C579.503 61.7627 579.311 61.8053 579.098 61.848C578.202 61.976 577.413 61.7627 576.73 61.208C576.047 60.6107 575.706 59.8427 575.706 58.904C575.706 57.9653 576.047 57.1973 576.73 56.6C577.413 56.0027 578.202 55.768 579.098 55.896C579.951 55.9813 580.826 56.088 581.722 56.216C582.618 56.344 583.471 56.408 584.282 56.408H606.554C607.706 56.408 608.709 56.8133 609.562 57.624C610.415 58.4347 610.863 59.4373 610.906 60.632L611.29 66.008C611.375 66.8187 611.119 67.544 610.522 68.184C609.925 68.824 609.178 69.144 608.282 69.144C607.429 69.144 606.703 68.8667 606.106 68.312C605.551 67.7147 605.274 67.0107 605.274 66.2C605.274 65.688 605.295 65.1333 605.338 64.536C605.423 63.896 605.487 63.2773 605.53 62.68C605.53 62.296 605.338 62.104 604.954 62.104H587.098C586.714 62.104 586.522 62.296 586.522 62.68V75.864C586.522 76.248 586.714 76.44 587.098 76.44H602.778C603.546 76.44 604.207 76.7173 604.762 77.272C605.317 77.8267 605.594 78.488 605.594 79.256C605.594 80.024 605.317 80.6853 604.762 81.24C604.207 81.752 603.546 82.008 602.778 82.008H587.098C586.714 82.008 586.522 82.2 586.522 82.584V97.688C586.522 98.072 586.714 98.264 587.098 98.264H604.954C605.338 98.264 605.53 98.072 605.53 97.688C605.487 97.048 605.423 96.4507 605.338 95.896C605.295 95.2987 605.274 94.7227 605.274 94.168C605.274 93.3573 605.551 92.6747 606.106 92.12C606.703 91.5227 607.429 91.224 608.282 91.224ZM657.094 67.288C657.179 68.0987 656.923 68.824 656.326 69.464C655.729 70.104 654.982 70.424 654.086 70.424C653.19 70.424 652.443 70.104 651.846 69.464C651.291 68.824 651.035 68.0987 651.078 67.288L651.398 62.616C651.398 62.232 651.227 62.04 650.886 62.04H641.542C641.158 62.04 640.966 62.232 640.966 62.616V98.52C640.966 98.8613 641.115 99.032 641.414 99.032C641.926 99.032 642.417 99.0107 642.886 98.968C643.398 98.8827 643.867 98.8187 644.294 98.776C645.147 98.6907 645.873 98.9467 646.47 99.544C647.067 100.099 647.366 100.803 647.366 101.656C647.366 102.467 647.067 103.149 646.47 103.704C645.873 104.259 645.147 104.515 644.294 104.472C643.057 104.344 642.075 104.259 641.35 104.216C640.667 104.173 640.091 104.131 639.622 104.088C639.153 104.088 638.641 104.088 638.086 104.088C637.489 104.088 636.955 104.088 636.486 104.088C636.017 104.131 635.441 104.173 634.758 104.216C634.118 104.259 633.179 104.344 631.942 104.472C631.131 104.515 630.406 104.259 629.766 103.704C629.169 103.149 628.87 102.467 628.87 101.656C628.87 100.803 629.169 100.099 629.766 99.544C630.406 98.9467 631.131 98.6907 631.942 98.776C632.369 98.8187 632.817 98.8613 633.286 98.904C633.755 98.9467 634.225 98.9893 634.694 99.032H634.822C635.121 99.032 635.27 98.8613 635.27 98.52V62.616C635.27 62.232 635.078 62.04 634.694 62.04H625.286C624.945 62.04 624.774 62.232 624.774 62.616L625.094 67.288C625.179 68.0987 624.923 68.824 624.326 69.464C623.729 70.104 622.982 70.424 622.086 70.424C621.19 70.424 620.443 70.104 619.846 69.464C619.291 68.824 619.035 68.0987 619.078 67.288C619.163 66.3067 619.249 65.24 619.334 64.088C619.419 62.936 619.483 61.784 619.526 60.632C619.611 59.4373 620.059 58.4347 620.87 57.624C621.723 56.8133 622.726 56.408 623.878 56.408H652.358C653.467 56.408 654.449 56.8133 655.302 57.624C656.155 58.4347 656.603 59.4373 656.646 60.632C656.731 61.784 656.817 62.936 656.902 64.088C656.987 65.24 657.051 66.3067 657.094 67.288ZM696.47 91.224C697.366 91.224 698.112 91.544 698.71 92.184C699.307 92.7813 699.563 93.5067 699.478 94.36L699.094 99.736C699.051 100.931 698.603 101.933 697.75 102.744C696.896 103.555 695.894 103.96 694.742 103.96H672.086C671.318 103.96 670.507 104.024 669.654 104.152C668.843 104.28 668.054 104.387 667.286 104.472C666.39 104.6 665.6 104.365 664.918 103.768C664.235 103.171 663.894 102.403 663.894 101.464C663.894 100.525 664.235 99.7787 664.918 99.224C665.6 98.6267 666.39 98.392 667.286 98.52C667.414 98.5627 667.563 98.584 667.734 98.584C667.904 98.584 668.096 98.6053 668.31 98.648H668.438C668.779 98.648 668.95 98.4773 668.95 98.136V62.168C668.95 61.784 668.779 61.592 668.438 61.592C668.267 61.592 668.075 61.6347 667.862 61.72C667.691 61.7627 667.499 61.8053 667.286 61.848C666.39 61.976 665.6 61.7627 664.918 61.208C664.235 60.6107 663.894 59.8427 663.894 58.904C663.894 57.9653 664.235 57.1973 664.918 56.6C665.6 56.0027 666.39 55.768 667.286 55.896C668.139 55.9813 669.014 56.088 669.91 56.216C670.806 56.344 671.659 56.408 672.47 56.408H694.742C695.894 56.408 696.896 56.8133 697.75 57.624C698.603 58.4347 699.051 59.4373 699.094 60.632L699.478 66.008C699.563 66.8187 699.307 67.544 698.71 68.184C698.112 68.824 697.366 69.144 696.47 69.144C695.616 69.144 694.891 68.8667 694.294 68.312C693.739 67.7147 693.462 67.0107 693.462 66.2C693.462 65.688 693.483 65.1333 693.526 64.536C693.611 63.896 693.675 63.2773 693.718 62.68C693.718 62.296 693.526 62.104 693.142 62.104H675.286C674.902 62.104 674.71 62.296 674.71 62.68V75.864C674.71 76.248 674.902 76.44 675.286 76.44H690.966C691.734 76.44 692.395 76.7173 692.95 77.272C693.504 77.8267 693.782 78.488 693.782 79.256C693.782 80.024 693.504 80.6853 692.95 81.24C692.395 81.752 691.734 82.008 690.966 82.008H675.286C674.902 82.008 674.71 82.2 674.71 82.584V97.688C674.71 98.072 674.902 98.264 675.286 98.264H693.142C693.526 98.264 693.718 98.072 693.718 97.688C693.675 97.048 693.611 96.4507 693.526 95.896C693.483 95.2987 693.462 94.7227 693.462 94.168C693.462 93.3573 693.739 92.6747 694.294 92.12C694.891 91.5227 695.616 91.224 696.47 91.224ZM750.658 55.832C751.511 55.7467 752.236 56.0027 752.834 56.6C753.431 57.1547 753.73 57.8587 753.73 58.712C753.73 59.5227 753.452 60.2053 752.898 60.76C752.343 61.3147 751.682 61.592 750.914 61.592C750.615 61.592 750.295 61.5707 749.954 61.528C749.655 61.4853 749.314 61.4427 748.93 61.4H748.802C748.503 61.4 748.354 61.5707 748.354 61.912V100.76C748.354 101.699 748.034 102.488 747.394 103.128C746.754 103.811 745.943 104.152 744.962 104.152C743.511 104.152 742.359 103.533 741.506 102.296L719.17 67.992C719.042 67.7787 718.914 67.672 718.786 67.672C718.572 67.672 718.466 67.8427 718.466 68.184V98.52C718.466 98.8613 718.615 99.032 718.914 99.032C719.511 99.032 720.066 99.0107 720.578 98.968C721.132 98.8827 721.644 98.8187 722.114 98.776C722.967 98.6907 723.692 98.9467 724.29 99.544C724.93 100.099 725.25 100.803 725.25 101.656C725.25 102.509 724.93 103.213 724.29 103.768C723.692 104.323 722.967 104.579 722.114 104.536C720.919 104.408 719.852 104.301 718.914 104.216C718.018 104.173 717.143 104.152 716.29 104.152C715.479 104.152 714.604 104.173 713.666 104.216C712.77 104.301 711.703 104.408 710.466 104.536C709.655 104.579 708.93 104.323 708.29 103.768C707.692 103.213 707.394 102.509 707.394 101.656C707.394 100.803 707.671 100.12 708.226 99.608C708.78 99.0533 709.442 98.776 710.21 98.776C710.508 98.776 710.807 98.7973 711.106 98.84C711.447 98.8827 711.81 98.9253 712.194 98.968H712.322C712.62 98.968 712.77 98.7973 712.77 98.456V62.232C712.77 61.8053 712.556 61.6347 712.13 61.72L710.85 61.976C709.911 62.104 709.1 61.8693 708.418 61.272C707.735 60.632 707.394 59.8427 707.394 58.904C707.394 57.9653 707.735 57.1973 708.418 56.6C709.143 56.0027 709.954 55.768 710.85 55.896C711.49 56.024 712.087 56.1307 712.642 56.216C713.239 56.2587 713.772 56.3227 714.242 56.408C717.015 56.536 719.084 57.6667 720.45 59.8L741.954 93.208C742.082 93.4213 742.21 93.528 742.338 93.528C742.551 93.528 742.658 93.3573 742.658 93.016V61.848C742.658 61.5067 742.508 61.336 742.21 61.336C741.655 61.336 741.1 61.3573 740.546 61.4C739.991 61.4427 739.479 61.5067 739.01 61.592C738.156 61.6347 737.41 61.3787 736.77 60.824C736.172 60.2693 735.874 59.5653 735.874 58.712C735.874 57.8587 736.172 57.1547 736.77 56.6C737.41 56.0027 738.156 55.7467 739.01 55.832C740.247 55.96 741.314 56.0667 742.21 56.152C743.106 56.1947 743.98 56.216 744.834 56.216C745.687 56.216 746.562 56.1947 747.458 56.152C748.396 56.0667 749.463 55.96 750.658 55.832ZM800.686 90.456C801.454 91.1387 801.838 91.992 801.838 93.016C801.838 93.6987 801.667 94.2747 801.326 94.744C799.107 97.8587 796.355 100.269 793.069 101.976C789.784 103.683 786.307 104.536 782.638 104.536C779.438 104.536 776.43 103.917 773.614 102.68C770.798 101.4 768.323 99.6507 766.19 97.432C764.056 95.1707 762.371 92.568 761.134 89.624C759.939 86.68 759.342 83.5227 759.342 80.152C759.342 76.7813 759.939 73.624 761.134 70.68C762.328 67.736 763.992 65.1547 766.126 62.936C768.259 60.7173 770.734 58.9893 773.55 57.752C776.366 56.472 779.395 55.832 782.638 55.832C788.696 55.832 793.795 57.816 797.934 61.784C800.238 63.8747 801.39 65.9227 801.39 67.928C801.39 69.1653 800.963 70.2107 800.11 71.064C799.256 71.9173 798.232 72.344 797.038 72.344C795.758 72.344 794.712 71.896 793.902 71C793.091 70.104 792.686 69.1013 792.686 67.992C792.686 67.224 792.878 66.52 793.262 65.88C793.475 65.5387 793.454 65.2613 793.198 65.048C790.723 62.5733 787.203 61.336 782.638 61.336C779.31 61.336 776.323 62.168 773.678 63.832C771.032 65.4533 768.942 67.6933 767.406 70.552C765.87 73.368 765.102 76.568 765.102 80.152C765.102 83.6933 765.87 86.872 767.406 89.688C768.942 92.4613 771.032 94.6587 773.678 96.28C776.323 97.9013 779.31 98.712 782.638 98.712C785.582 98.712 788.312 98.0507 790.83 96.728C793.347 95.4053 795.395 93.5493 796.974 91.16C797.486 90.3067 798.211 89.88 799.15 89.88C799.747 89.88 800.259 90.072 800.686 90.456ZM841.782 91.224C842.678 91.224 843.425 91.544 844.022 92.184C844.619 92.7813 844.875 93.5067 844.79 94.36L844.406 99.736C844.363 100.931 843.915 101.933 843.062 102.744C842.209 103.555 841.206 103.96 840.054 103.96H817.398C816.63 103.96 815.819 104.024 814.966 104.152C814.155 104.28 813.366 104.387 812.598 104.472C811.702 104.6 810.913 104.365 810.23 103.768C809.547 103.171 809.206 102.403 809.206 101.464C809.206 100.525 809.547 99.7787 810.23 99.224C810.913 98.6267 811.702 98.392 812.598 98.52C812.726 98.5627 812.875 98.584 813.046 98.584C813.217 98.584 813.409 98.6053 813.622 98.648H813.75C814.091 98.648 814.262 98.4773 814.262 98.136V62.168C814.262 61.784 814.091 61.592 813.75 61.592C813.579 61.592 813.387 61.6347 813.174 61.72C813.003 61.7627 812.811 61.8053 812.598 61.848C811.702 61.976 810.913 61.7627 810.23 61.208C809.547 60.6107 809.206 59.8427 809.206 58.904C809.206 57.9653 809.547 57.1973 810.23 56.6C810.913 56.0027 811.702 55.768 812.598 55.896C813.451 55.9813 814.326 56.088 815.222 56.216C816.118 56.344 816.971 56.408 817.782 56.408H840.054C841.206 56.408 842.209 56.8133 843.062 57.624C843.915 58.4347 844.363 59.4373 844.406 60.632L844.79 66.008C844.875 66.8187 844.619 67.544 844.022 68.184C843.425 68.824 842.678 69.144 841.782 69.144C840.929 69.144 840.203 68.8667 839.606 68.312C839.051 67.7147 838.774 67.0107 838.774 66.2C838.774 65.688 838.795 65.1333 838.838 64.536C838.923 63.896 838.987 63.2773 839.03 62.68C839.03 62.296 838.838 62.104 838.454 62.104H820.598C820.214 62.104 820.022 62.296 820.022 62.68V75.864C820.022 76.248 820.214 76.44 820.598 76.44H836.278C837.046 76.44 837.707 76.7173 838.262 77.272C838.817 77.8267 839.094 78.488 839.094 79.256C839.094 80.024 838.817 80.6853 838.262 81.24C837.707 81.752 837.046 82.008 836.278 82.008H820.598C820.214 82.008 820.022 82.2 820.022 82.584V97.688C820.022 98.072 820.214 98.264 820.598 98.264H838.454C838.838 98.264 839.03 98.072 839.03 97.688C838.987 97.048 838.923 96.4507 838.838 95.896C838.795 95.2987 838.774 94.7227 838.774 94.168C838.774 93.3573 839.051 92.6747 839.606 92.12C840.203 91.5227 840.929 91.224 841.782 91.224ZM861.538 68.504C861.41 70.1253 861.751 71.448 862.562 72.472C863.415 73.4533 864.567 74.2853 866.018 74.968C867.511 75.6507 869.154 76.2693 870.946 76.824C872.738 77.3787 874.53 77.9973 876.322 78.68C878.114 79.32 879.757 80.152 881.25 81.176C882.786 82.1573 884.002 83.4373 884.898 85.016C885.837 86.552 886.306 88.5147 886.306 90.904C886.306 93.5067 885.602 95.832 884.194 97.88C882.829 99.928 880.93 101.549 878.498 102.744C876.066 103.939 873.314 104.536 870.242 104.536C866.402 104.536 863.202 103.853 860.642 102.488C858.082 101.08 856.098 99.544 854.69 97.88C853.623 96.6427 853.09 95.32 853.09 93.912C853.09 92.7173 853.474 91.6933 854.242 90.84C855.01 89.9867 856.119 89.56 857.57 89.56C858.765 89.56 859.746 90.008 860.514 90.904C861.325 91.8 861.73 92.8027 861.73 93.912C861.73 94.4667 861.602 95.0427 861.346 95.64C861.218 95.9813 861.261 96.2373 861.474 96.408C862.583 97.2613 863.821 97.9013 865.186 98.328C866.594 98.7547 868.002 98.968 869.41 98.968C871.287 98.968 873.079 98.648 874.786 98.008C876.493 97.3253 877.879 96.3867 878.946 95.192C880.013 93.9547 880.546 92.5253 880.546 90.904C880.546 89.4533 880.098 88.2587 879.202 87.32C878.306 86.3387 877.111 85.528 875.618 84.888C874.167 84.2053 872.567 83.5867 870.818 83.032C869.069 82.4773 867.298 81.8587 865.506 81.176C863.757 80.4933 862.135 79.6613 860.642 78.68C859.191 77.656 858.018 76.3973 857.122 74.904C856.226 73.4107 855.778 71.5547 855.778 69.336C855.778 66.904 856.205 64.8347 857.058 63.128C857.954 61.3787 859.149 59.992 860.642 58.968C862.135 57.9013 863.799 57.1333 865.634 56.664C867.469 56.152 869.346 55.896 871.266 55.896C873.698 55.896 876.023 56.2373 878.242 56.92C880.461 57.6027 882.253 58.5413 883.618 59.736C885.026 60.9307 885.73 62.296 885.73 63.832C885.687 65.0267 885.239 66.0507 884.386 66.904C883.575 67.7573 882.573 68.184 881.378 68.184C880.183 68.184 879.159 67.7573 878.306 66.904C877.495 66.0507 877.09 65.0267 877.09 63.832C877.09 63.4053 877.111 63.1067 877.154 62.936C877.239 62.5947 877.218 62.4027 877.09 62.36C876.535 62.0613 875.703 61.8053 874.594 61.592C873.527 61.3787 872.375 61.272 871.138 61.272C869.73 61.272 868.301 61.4853 866.85 61.912C865.442 62.296 864.247 63.0213 863.266 64.088C862.285 65.112 861.709 66.584 861.538 68.504Z" fill="#38585A"/>
</svg>
