<svg width="1174" height="187" viewBox="0 0 1174 187" fill="none" xmlns="http://www.w3.org/2000/svg">
<path d="M156.486 47.6247C154.599 45.7139 152.633 45.736 150.309 46.5675C152.85 49.7346 152.863 49.739 156.486 47.6247ZM237.858 40.9501C237.283 41.3614 237.301 42.0116 237.893 42.4009C238.481 42.7857 241.008 43.8384 241.994 44.0596L242.913 44.1392C243.169 44.1613 243.611 43.8473 243.73 43.604C243.863 43.3386 243.885 42.8211 243.681 42.6928L242.356 41.8436C240.801 41.0429 238.428 40.5343 237.858 40.9501ZM668.714 10.9607C670.256 12.2213 671.953 11.4517 672.478 9.25778L669.827 8.24043L669.218 8.00601C667.923 8.78891 667.07 9.60721 667.318 9.82837L667.454 9.93453L668.714 10.9607ZM1020.93 118.047C1022.47 117.963 1022.98 117.405 1022.06 116.813C1021.15 116.22 1017.79 116.777 1016.55 116.972C1015.3 117.166 1019.39 118.131 1020.93 118.047ZM1038.5 132.904C1038.69 133.099 1038.26 133.674 1037.53 134.182C1036.82 134.696 1036.64 136.244 1037.75 135.797L1038.69 135.434L1039.83 134.992C1041.36 134.62 1041.88 133.727 1041 133.006L1040.23 132.4C1039.96 132.183 1039.65 131.834 1039.36 131.843L1038.85 131.851C1038.28 132.046 1038.31 132.714 1038.5 132.904ZM284.946 166.007C283.7 166.007 282.98 166.622 283.351 167.37C283.722 168.117 285.627 169.559 286.868 169.148C288.11 168.737 286.197 166.007 284.946 166.007ZM716.814 9.35509C715.701 9.35509 715.926 10.3061 717.331 11.4738L718.798 11.9073L719.24 12.04C720.649 10.5626 717.936 9.35509 716.814 9.35509ZM882.628 9.03661C883.751 9.66471 884.639 9.85048 884.604 9.45239C884.573 9.0543 884.833 7.88216 884.997 7.55042C885.156 7.2231 884.643 6.06864 883.322 6.0023C881.997 5.93595 881.506 8.40852 882.628 9.03661ZM1029.58 27.0479C1028.18 25.9731 1028.11 25.7077 1029.42 26.4552C1030.73 27.2027 1034.87 28.313 1035.23 28.0697C1035.58 27.8264 1035.04 26.4552 1033.06 25.7254L1032 26.1279L1029.58 27.0479ZM854.191 7.15233C854.827 6.25 854.42 5.90498 853.289 6.37826C852.158 6.85597 849.33 6.49327 848.844 6.85155L848.849 7.17886C848.849 7.86888 848.243 8.81546 849.732 9.13393L850.532 9.30643C851.451 9.67798 853.559 8.05467 854.191 7.15233ZM1008.45 116.375C1008.79 115.76 1007.85 115.114 1006.37 114.946L1005.49 115.331L1004.5 115.764C1003.81 116.795 1003.62 118.179 1004.08 118.838L1004.64 118.896L1005.41 118.975C1006.3 118.573 1008.11 116.998 1008.45 116.375ZM117.232 164.362C117.771 163.367 118.058 161.774 117.864 160.815L116.251 161.173C115.707 161.292 115.045 162.504 114.731 161.398C114.364 160.138 113.944 159.607 112.579 160.377L112.358 160.501C112.862 161.474 114.042 162.832 114.978 163.526L115.995 163.902L117.232 164.362ZM522.699 12.4867C519.933 12.2833 518.519 13.0883 519.553 14.2693L521.174 13.9596C522.743 13.6589 524.259 13.1546 525.739 12.6283C525.929 12.5619 525.854 11.7878 525.703 11.3986C525.633 11.2217 524.904 11.0005 524.771 11.0934L522.699 12.4867ZM365.805 18.0644C365.889 18.6615 366.632 18.4536 367.453 17.6044C368.284 16.7595 368.549 14.1189 367.436 14.34C366.327 14.5612 363.667 15.3883 363.605 15.6184C363.543 15.8439 363.702 16.4322 364.091 16.388C364.475 16.3438 365.726 17.4761 365.805 18.0644ZM700.607 10.3592C701.875 10.9917 701.985 10.9651 700.854 10.3017C699.719 9.63817 697.16 7.54599 696.798 8.26697C696.44 8.98353 696.975 11.2438 698.693 11.8896L699.073 11.5888L700.607 10.3592ZM279.697 20.0902C279.591 20.7404 280.333 20.9439 281.341 20.5502C282.348 20.1521 284.893 18.7234 285.269 18.1573L284.588 17.4363C284.098 16.9099 284.495 15.7112 283.029 15.9634L281.637 16.2022C280.749 17.2196 279.799 19.4444 279.697 20.0902ZM133.89 39.5037C133.717 38.8579 132.997 38.305 132.281 38.2696C131.574 38.2386 130.112 38.7694 129.069 39.2869C128.031 39.8 126.643 42.392 126.687 42.7503L126.917 42.9361L127.143 43.1174C127.576 43.1484 129.692 42.1222 131.839 40.8351L133.735 39.6054L133.89 39.5037ZM290.204 17.1134C288.781 17.7326 289.44 18.6792 291.658 19.21L293.196 19.7054C294.724 20.1919 295.321 19.2321 296.041 18.5819C296.333 18.3165 296.315 17.715 296.213 17.3036C296.138 16.9895 291.821 16.4234 291.349 16.6224L290.204 17.1134ZM1153.74 145.271C1154.07 144.197 1153.09 143.728 1151.55 144.228L1150.32 144.834C1149.34 145.311 1148.45 145.979 1150.03 146.899L1150.45 147.147C1150.62 148.129 1153.41 146.346 1153.74 145.271ZM948.398 7.59907C950.011 7.24964 951.125 6.42692 950.868 5.76786C950.621 5.1088 947.89 4.12243 947.17 4.40552C946.45 4.69745 946.786 7.94851 948.398 7.59907ZM973.116 7.45753C973.867 8.05908 975.214 7.73177 976.111 6.74097L976.363 5.93594C976.544 5.35208 976.156 4.54706 975.74 3.97647C975.197 3.23337 974.384 2.91932 973.306 3.59607L972.497 4.10916C971.18 4.63109 972.365 6.86039 973.116 7.45753ZM736.437 178.087C735.761 177.782 735.204 178.065 735.204 178.715C735.204 179.361 734.886 180.945 734.501 180.9C734.117 180.865 732.8 181.068 732.822 181.489C732.84 181.909 732.999 183.063 733.065 183.125C733.14 183.187 735.845 182.895 738.907 182.334L738.743 181.232L738.637 180.507C738.668 179.737 737.113 178.392 736.437 178.087ZM1026.73 122.735C1026.2 123.173 1026.71 123.372 1027.87 123.178C1029.04 122.983 1032.15 124.92 1033.43 124.876C1034.71 124.836 1035.11 122.209 1033.7 122.081C1032.3 121.957 1027.26 122.302 1026.73 122.735ZM181.23 25.6325C182.737 26.0085 183.96 26.0881 183.934 25.8094C183.907 25.5308 184.234 24.248 184.526 23.6686C184.818 23.0847 183.885 22.5053 182.975 23.1643L181.429 22.2664C180.015 21.4526 179.56 23.2263 178.61 23.7571C177.62 24.31 177.805 25.0442 178.636 25.7165C179.299 26.2517 179.705 26.8312 180.81 25.9642L181.23 25.6325ZM1140.17 138.473C1140.94 138.915 1141.76 138.712 1141.99 138.022C1142.22 137.327 1140.67 135.054 1140.32 134.43L1139.32 135.253L1137.45 136.779C1135.82 136.429 1134.09 136.155 1133.6 136.173L1133.42 136.363C1133.26 136.549 1133.31 137.106 1133.52 137.23C1134.56 137.854 1135.69 138.38 1136.76 138.955L1137.08 139.123C1137.37 139.362 1139.4 138.026 1140.17 138.473ZM1053.13 25.5086C1053.07 24.6417 1052.77 24.394 1052.45 24.9557C1052.13 25.5219 1050.73 26.3048 1049.85 25.7829C1048.97 25.2565 1045.96 24.9867 1046.29 25.2831C1046.61 25.575 1046.82 26.3667 1046.34 26.6764C1045.87 26.9816 1045.58 27.9193 1047.87 27.3487L1048.88 27.7291L1050.31 28.282C1051.94 28.2245 1053.18 26.3712 1053.13 25.5086ZM206.804 23.8101C207.533 22.4876 206.34 21.457 204.158 21.5189L202.801 20.161L202.739 20.0946C201.904 20.5546 201.065 21.426 200.875 22.032C200.68 22.638 203.433 23.8721 204.237 24.049V24.2171C204.242 25.721 204.82 26.0439 205.952 24.77L206.804 23.8101ZM164.811 45.9041C164.762 46.656 164.073 46.9302 163.277 46.5189C162.482 46.1075 163.021 48.0184 164.952 47.9387L166.658 48.1157L169.914 48.4518C171.067 46.8949 171.173 45.8068 170.148 46.0279C169.123 46.2491 166.277 45.6431 166.118 45.1344C165.959 44.6213 165.473 43.3873 165.363 43.4005C165.252 43.4182 164.859 45.1565 164.811 45.9041ZM1139.04 158.001C1139.6 158.125 1140.8 157.174 1141.71 155.887C1142.62 154.596 1139.78 151.504 1140.22 151.247L1140.2 151.044L1140.09 150.018C1138.74 149.655 1137.44 149.628 1137.2 149.964C1136.96 150.301 1137.82 151.778 1138.14 152.384C1138.47 152.981 1137.95 154.728 1138.51 155.418C1139.07 156.104 1138.48 157.873 1139.04 158.001ZM1124.39 50.9288C1124.73 50.6059 1124.39 48.872 1123.63 47.0718L1120.47 47.032L1117.5 46.9966C1116.11 48.7438 1115.82 50.9775 1116.85 51.9639L1117.35 51.8577L1118.67 51.5835C1120 50.8315 1121.39 50.4777 1121.77 50.7873C1122.16 51.1013 1124.04 51.2473 1124.39 50.9288ZM1103.22 38.1546C1104.13 36.8674 1103.51 35.3149 1101.83 34.7001L1100.41 34.4701L1098.31 34.1339C1095.96 33.9835 1094.72 34.3595 1095.56 34.9743C1096.41 35.5891 1102.3 39.4373 1103.22 38.1546ZM263.693 16.9099C263.909 16.3747 264.236 15.7599 264.418 15.5476C264.599 15.3353 266.366 15.5476 268.129 15.9722L270.193 14.34L271.103 13.6235C272.013 13.9596 273.75 14.2339 274.969 14.2295C276.189 14.2295 280.386 12.1461 280.598 12.2479L280.62 12.3717L280.775 13.1325C280.894 13.9729 282.246 14.1543 283.771 13.535C285.295 12.9158 291.194 13.9818 293.09 14.1233C294.985 14.2648 300.336 12.2036 301.454 12.3275C302.572 12.4513 305.47 13.5748 306.363 13.7119C307.26 13.8535 309.716 12.6061 310.348 12.4071C310.989 12.2081 312.535 12.2434 312.558 11.3057C312.58 10.3636 316.066 11.9604 317.122 11.9338L317.838 11.5357C319.645 10.5228 319.888 11.0934 320.454 12.531L320.878 13.6146C322.018 12.2744 323.542 11.5269 324.262 11.9604C324.987 12.3983 328.257 12.5486 329.839 12.2081L330.983 11.5136L332.03 10.8722C333.113 11.0005 334.611 11.2571 335.366 11.4428L335.799 11.81C336.564 12.4513 337.054 13.305 337.818 13.9464L337.986 14.0879C338.733 13.8004 339.263 13.0927 339.166 12.5177C339.064 11.9471 341.313 10.974 342.988 10.6378L344.367 11.6463L344.707 11.8896C346.258 12.6548 348.308 12.7212 349.258 12.0356L350.212 11.58L350.769 11.3146C351.569 11.2925 352.183 11.7702 352.126 12.3806L352.073 12.9335L352.037 13.2785C351.989 13.6544 352.532 13.9419 353.243 13.9066L353.526 13.6323C354.096 13.0662 354.326 12.2744 354.861 11.6728L355.528 10.9121C356.509 11.2349 357.803 11.3986 358.4 11.2792C359.005 11.1553 362.067 11.4163 364.263 13.1237L367.193 11.403C367.617 11.1509 368.956 11.2305 369.128 11.4871L370.348 13.3227C372 12.5486 373.75 11.5092 374.236 11.0138C374.726 10.514 376.591 9.55856 376.998 10.3149C377.4 11.0713 379.388 12.6504 380.347 11.8055L381.332 11.5888L383.033 11.1996C385.057 11.1067 386.957 11.0049 387.257 10.974C387.553 10.943 389.339 10.483 390.646 10.2132C391.959 9.94337 396.784 11.6773 397.27 11.089L397.884 10.7351L398.436 10.4122C399.236 10.2795 399.585 10.5936 399.201 11.1199L399.289 11.5313C399.377 11.925 400.009 12.27 400.473 12.5708L401.56 13.2696C401.728 12.4292 402.09 11.3367 402.369 10.8457C402.652 10.3547 405.038 9.51432 407.194 9.78856L409.01 10.1291L409.394 10.2043C409.774 10.6776 409.938 11.0492 409.761 11.0359C409.589 11.0182 408.974 12.1019 408.462 13.3581C407.958 14.6143 403.292 14.1675 402.934 14.3489L402.828 14.5966L402.709 14.862C402.806 15.2291 404.777 16.5118 407.092 17.7238L409.783 16.6047L410.919 16.1314C412.346 15.7997 412.341 15.1849 410.914 14.7602C409.487 14.34 411.206 10.6069 412.58 10.0451L414.25 10.0097C417.308 9.9478 420.445 10.6909 423.494 9.4347C424.32 9.09854 426.11 9.57625 426.931 10.169L427.758 10.7661C428.133 12.0179 428.814 12.4469 429.26 11.7171C429.715 10.9873 431.977 9.22681 433.312 9.36836C434.655 9.5099 438.888 9.08527 439.904 7.75831L441.031 8.61199L441.323 8.83315C441.61 9.09412 442.418 10.0363 443.112 10.9298L444.592 10.1247L445.008 9.90357C445.918 10.0053 446.771 10.5317 446.908 11.0669C447.036 11.6021 447.822 13.044 448.127 12.1727L448.216 11.7348C448.282 11.4163 448.101 11.0359 448.251 10.7705C448.821 9.79298 449.581 9.95664 450.549 10.4918C452.89 11.7834 451.096 9.2622 452.228 9.24009L452.926 9.22239C453.725 8.93488 455.484 9.03661 456.836 9.44797L458.029 8.49256C458.365 8.22274 459.408 8.04139 459.571 8.20063L462.196 10.7351C463.853 8.73141 466.159 7.8512 467.326 8.78007C468.488 9.70895 473.609 8.68718 474.501 9.24451C475.39 9.80183 479.41 8.2714 481.399 8.42179L483.082 7.56811L483.33 7.43983C483.878 7.66099 485.76 8.17409 487.518 8.57218L490.346 8.12101L492.357 7.79812C492.662 8.98796 493.656 9.46567 494.57 8.85969C495.481 8.25371 498.984 9.06316 499.479 9.05873C499.974 9.05873 501.821 8.27582 503.248 7.76273L504.83 8.10332L506.633 8.49256C508.705 8.30236 510.636 8.37756 510.932 8.66506C511.224 8.94815 512.134 8.98796 512.717 8.51467C513.301 8.03697 515.952 6.62154 516.416 7.15675C516.875 7.69196 518.457 8.96584 519.31 9.19142C520.167 9.41701 523.817 8.99239 525.531 8.35102C527.254 7.70965 531.876 8.34659 532.808 8.35544C533.741 8.36429 536.573 7.59022 537.333 7.91754C538.097 8.24486 540.497 9.08527 540.947 9.04104L541.186 8.85526L542.56 7.80696C544.398 7.95735 546.329 8.07678 546.851 8.06351C547.367 8.05466 549.647 7.5858 550.964 7.46195C552.285 7.34253 555.255 7.66542 555.436 5.99345L558.029 7.47965L558.48 7.73619C559.01 7.93966 560.433 8.06793 561.653 8.02813C562.872 7.98832 566.973 8.3864 568.214 7.76273C569.451 7.13905 573.636 6.41807 574.475 6.4225L574.957 6.73212C576.022 7.40887 576.751 8.32448 578.443 8.19178L579.888 8.0812C580.599 7.24079 581.633 6.42249 582.181 6.25884L582.729 6.21018L584.395 6.05095C586.149 5.61748 588.698 4.95399 590.064 4.56475L591.045 6.0421C592.017 7.51945 593.775 7.63888 595.472 6.54635L603.562 5.61748L605.926 5.82094C608.524 6.02883 611.388 6.10403 612.289 5.99345C613.195 5.88287 615.329 7.23637 615.462 6.56847C615.59 5.89614 616.553 5.33439 617.379 6.44019C618.201 7.55041 623.751 6.29865 625.708 6.36499C627.67 6.43134 633.1 5.30342 633.595 5.13534L633.763 5.24592L636.962 7.40887C641.045 7.02848 644.712 6.83828 645.119 6.98425L645.198 6.90905C646.343 5.83864 647.31 5.2017 649.321 6.07749L650.271 6.49327C651.959 5.93152 654.725 5.27246 656.413 5.02918L657.906 4.9938L660.005 4.94957C662.249 5.11323 664.445 5.53786 664.878 5.89172C665.311 6.25 666.672 6.93559 666.854 6.57731C667.039 6.21461 668.404 5.23708 669.549 5.07342C670.698 4.90976 674.489 4.78148 675.289 5.21496L675.266 5.65728L675.187 7.58138C676.72 7.30714 679.287 6.70559 680.891 6.24999L682.508 7.1081C683.207 7.47965 684.855 7.5106 685.367 7.10367C686.71 6.04652 688.226 6.34288 689.728 6.16595L691.178 5.99787C692.729 5.59535 694.615 5.08669 695.362 4.87437C696.113 4.65764 698.371 5.92268 699.582 5.74575C700.792 5.5644 704.53 5.25034 705.184 5.24592C705.834 5.2415 707.407 4.51609 707.791 4.82572C708.18 5.13977 711.185 6.99752 713.611 8.26255L713.867 4.65764C713.867 4.58686 715.241 4.37897 715.807 4.56475L719.169 5.69709C720.746 5.23266 724.794 4.69303 728.161 4.4984H731.488C731.855 5.5644 735.036 5.86517 738.558 5.16188L741.854 5.32555C742.68 5.36978 742.543 6.64366 741.549 7.15233L741.111 7.37791C740.338 7.48407 740.25 7.78927 740.922 8.05466C741.589 8.32448 743.48 8.4041 743.48 7.56811C743.48 6.73655 744.509 4.06051 745.769 3.87031C747.028 3.68453 751.451 4.93188 752.891 4.69745L754.243 4.70629C755.746 4.71514 757.416 4.75937 758.706 5.28573L760.937 6.20134C763.036 5.48036 765.555 4.51167 766.527 4.05166C767.503 3.59165 769.063 5.88286 769.24 5.90498C769.417 5.92267 770.384 5.42285 771.219 4.94515L772.205 5.63517C773.698 6.68347 774.578 6.59942 774.741 4.75052L774.785 4.26398C775.691 3.75531 776.888 3.97204 777.445 4.75937C778.002 5.54228 781.378 5.03803 783.203 4.93188C785.032 4.8213 790.427 4.48071 791.209 4.58687L791.562 3.72877C791.651 3.51203 793.18 3.34394 793.449 3.58722C794.103 4.17993 793.767 5.82537 795.486 5.1265L796.162 4.85226C796.396 3.5253 798.248 3.12721 800.285 3.97204L802.176 4.7461C802.6 4.91861 807.244 4.47187 807.588 4.20205C808.865 3.20241 810.111 2.17179 810.562 4.67533L810.589 4.83014C810.982 4.94957 812.003 5.184 812.869 5.35208C813.73 5.52458 816.302 5.90056 816.598 5.58651C816.903 5.26804 817.822 4.21089 817.968 4.01185C818.113 3.80838 819.474 3.08297 820.663 2.84854C821.856 2.61854 825.179 3.5828 825.333 3.34395C825.492 3.10067 827.383 2.88393 828.011 3.3926C828.643 3.90569 831.183 5.23707 831.771 4.83014C832.363 4.41878 834.237 3.63145 834.665 3.96319C835.103 4.29494 836.614 4.93188 836.715 4.38783C836.826 3.84377 837.82 3.2024 838.717 4.10916L839.561 4.15782L841.271 4.26398C841.832 5.33439 842.809 5.6219 843.44 4.90091C844.068 4.18435 846.025 2.41065 846.193 2.78662C846.361 3.16701 847.342 3.87031 848.04 3.5828C848.734 3.29086 850.872 2.7247 851.045 3.05644L851.182 3.43241C851.584 4.55148 853.068 4.5736 853.236 3.91896C853.815 1.69851 855.3 1.7914 856.983 2.71585L858.318 3.45011C859.612 3.11394 861.963 2.45046 863.54 1.97718L864.755 3.13605C866.094 4.41878 867.53 4.75937 869.293 3.67126C869.444 3.57838 870.075 3.81281 870.301 4.02512L871.741 5.39189C872.276 4.85226 873.12 3.92339 873.619 3.33068H874.061L875.983 3.34837C878.068 3.60491 880.048 3.79069 880.384 3.75973C880.72 3.73319 882.209 3.28202 883.061 3.12278C883.914 2.96355 887.149 4.72398 888.222 4.16666C889.3 3.61376 892.438 2.96798 892.875 3.94108C893.317 4.91861 897.497 3.16702 899.308 3.02105C901.12 2.87509 905.927 4.03839 906.047 3.47664C906.157 2.91047 906.838 1.45966 907.209 1.96391L907.377 2.25584L907.536 2.52565C907.664 2.8397 908.981 3.19356 910.47 3.30414C911.954 3.41914 915.136 4.7063 914.384 5.26362C913.629 5.82095 903.599 6.01556 901.518 6.38269C899.445 6.74981 899.604 7.88658 900.899 7.49734L902.216 7.95293L902.353 7.99716C902.728 7.62119 904.01 6.8604 905.198 6.31192C906.391 5.76344 908.057 8.86853 908.556 9.00565C909.056 9.13835 909.705 7.94408 909.648 7.40445L909.798 6.95771C910.386 5.19285 910.258 5.55112 908.906 5.13534L907.253 4.62667C905.72 5.01149 904.235 5.48036 903.957 5.66613L903.665 5.81652L902.105 6.61712C903.864 6.12172 906.683 6.48442 908.375 7.42214C910.068 8.36429 913.81 8.55891 914.826 8.31563C915.838 8.07235 919.488 8.73141 920.416 8.43064C921.339 8.12986 921.268 6.20134 920.977 5.77671C920.676 5.3565 919.258 4.25071 918.503 4.25071C917.747 4.25071 916.634 3.87915 917.707 3.42356C918.777 2.96797 921.679 1.38446 921.869 1.06157C922.055 0.738675 924.224 0.889067 924.538 1.10138C924.856 1.31812 926.27 2.77335 926.924 3.50318C927.583 4.23301 931.263 5.78998 931.564 6.1173C931.869 6.44461 932.328 4.9938 932.187 4.4409L931.811 4.29051L930.499 3.7553C929.058 3.33952 928.21 2.43719 928.621 1.75159L928.409 1.49947C927.883 0.866952 927.622 0.110582 928.74 0.442323L930.565 0.981953C932.58 1.22965 935.253 1.70294 936.504 2.0391C937.758 2.37084 942.941 1.13676 943.675 0.880216C944.413 0.628093 946.039 0.349434 947.06 0L948.027 0.349436C948.191 0.406937 948.518 0.287509 948.602 0.367127L949.26 0.995224C949.949 1.71621 950.939 1.91083 951.465 1.4287C951.991 0.946566 953.935 0.995221 954.858 1.41543C955.782 1.83563 959.264 0.981954 960.647 1.67197L961.809 2.40623C961.95 2.49469 961.345 3.2599 961.261 3.73319L961.181 4.15782C961.305 4.66206 961.773 4.34359 962.224 3.45895C962.675 2.57431 965.622 1.81352 965.489 1.5614C965.357 1.30927 965.763 0.513091 966.753 0.477706C967.738 0.44232 971.777 1.69409 973.434 2.24257C975.095 2.79547 979.907 1.55254 980.252 1.63216C980.596 1.71178 981.378 2.16737 981.21 2.45045C981.038 2.72912 979.92 3.52972 979.341 3.86589C978.758 4.20205 980.243 7.27176 982.766 7.63004L983.764 5.69709L984.56 4.15782C983.093 2.16295 983.265 0.322898 984.94 0.0707746L985.435 0.424631C986.438 1.14119 986.711 2.50796 988.452 2.60527C988.483 2.6097 988.497 2.82201 988.514 2.93701C988.837 5.14861 988.85 5.08227 991.479 5.41843L992.813 5.58651C994.559 6.10403 995.982 5.70594 995.982 4.70629C995.982 3.70665 996.6 1.30484 997.356 1.20311L997.55 1.3535L998.54 2.13641C999.556 3.07413 999.547 3.98974 998.522 4.17551C997.502 4.35686 997.762 6.81174 998.558 6.91789C999.353 7.02405 1001.56 5.43612 1001.91 5.77671C1002.27 6.11287 1003.52 6.93559 1003.92 6.86924L1004.14 6.74097L1004.47 6.55962C1004.76 6.2898 1005.45 5.78113 1005.99 5.42727C1006.53 5.07342 1008.82 6.86924 1009.28 6.29865C1009.72 5.72363 1011.4 4.72841 1012.21 5.07785C1013.03 5.4317 1015.7 5.97133 1016.25 5.73248C1016.81 5.49362 1018.22 4.4409 1018.39 5.05573C1018.56 5.67055 1019.54 7.1656 1020.23 7.1081L1020.68 6.9002L1023.6 5.56881C1026.28 6.82943 1028.81 8.05024 1029.24 8.28467C1029.66 8.5191 1030.9 8.99681 1031.03 8.84642C1031.17 8.69603 1031.46 7.7185 1031.67 7.01521C1031.87 6.31634 1034.42 6.79405 1035.11 7.04617C1035.79 7.29387 1037.62 7.15675 1037.68 7.61235C1037.75 8.07236 1040.19 7.37349 1040.97 6.8029C1041.75 6.22788 1045.15 5.81209 1045.62 5.414L1046.1 5.06015C1046.38 4.85668 1046.98 4.54706 1047.05 4.59571L1049.87 7.01078C1050.18 4.95841 1051.57 3.56511 1052.98 3.91454C1054.38 4.26397 1056.39 7.3381 1056.54 6.9002C1056.69 6.46673 1057.18 5.43612 1057.41 5.25477C1058.41 6.03326 1059.52 6.74981 1060.31 7.65657C1060.55 7.93081 1059.8 8.7093 1059.67 9.27989L1059.56 9.8151C1059.62 10.4299 1060.26 10.9917 1060.97 11.0536L1061.27 10.8236C1063.06 9.40374 1063.85 9.8726 1064.27 11.6684L1064.29 11.779C1065.35 11.7259 1066.25 11.2792 1066.28 10.7882C1066.32 10.2972 1066.33 9.23566 1065.7 9.10739C1065.06 8.97911 1066.06 7.37349 1066.94 7.17444C1067.81 6.9754 1069.54 9.2445 1069.82 10.5582L1069.68 11.7392C1069.63 12.2036 1068.58 12.9688 1068.03 12.9467L1065.61 12.8538C1062.98 12.4867 1060.9 12.7875 1060.99 13.5173C1061.08 14.2516 1065.02 14.632 1065.57 15.4016C1066.12 16.1713 1066.27 17.6221 1066.42 18.1484C1066.57 18.6748 1065.75 20.5325 1065.03 21.3641L1064.26 22.0585C1063.32 22.8945 1062.3 23.673 1061.3 24.4692L1061.21 24.5444C1061.03 24.5621 1060.93 23.7747 1060.98 22.7928C1061.03 21.8153 1059.22 19.2454 1058.42 19.7496C1057.63 20.2539 1055.61 21.9258 1056.1 22.4655L1056.48 22.7397L1056.96 23.098C1057.56 23.4253 1057.77 23.8942 1057.42 24.133C1057.07 24.3763 1056.49 25.3361 1056.91 25.7342C1057.32 26.1323 1065.3 27.1585 1064.73 27.3575C1064.17 27.5566 1063.69 28.0343 1064.88 27.9856C1066.06 27.937 1067.05 30.2857 1067.43 30.2371C1067.8 30.1928 1068.68 29.8611 1068.56 29.609C1068.43 29.3568 1068.7 28.8393 1069.45 29.0162L1070.12 29.1799C1072.36 30.3122 1073.41 31.303 1072.45 31.3827C1071.49 31.4623 1068.75 32.2098 1068.76 32.8467C1068.76 33.4881 1069.83 34.8372 1070.51 35.6466C1071.19 36.4517 1074.8 36.8498 1075.06 36.6153C1075.31 36.3809 1076.98 35.859 1077.96 36.2128C1078.94 36.5667 1081.15 36.779 1080.49 35.8191C1079.84 34.8593 1083 31.4048 1084.28 29.7815L1085.7 29.7417L1087.78 29.6797C1088.37 28.5076 1088.94 27.9945 1089.04 28.5385C1089.13 29.0826 1089.85 30.6617 1090.3 30.1088C1090.74 29.5559 1092.63 28.7951 1093.63 29.5028C1094.62 30.2105 1098.14 31.8338 1099.25 31.5286C1100.35 31.2234 1103.42 29.2816 1105.72 29.9009L1107.8 30.4096C1107.85 30.4228 1108.04 29.8567 1108.28 29.6443C1108.72 29.2595 1109.28 28.6137 1109.72 28.6491L1111.23 28.7774C1110.87 29.7417 1110.21 30.9802 1109.77 31.5419C1109.33 32.0992 1109.71 34.6956 1112.11 35.5714L1113.37 32.8202C1113.66 32.1877 1115.19 31.8117 1116.23 31.5773C1116.64 31.4888 1117.57 32.0329 1117.77 32.4442C1118.07 33.0679 1118.02 33.7358 1119.04 32.9573C1119.9 32.2938 1120.81 32.1744 1121.38 33.0944C1121.8 33.78 1122.23 34.7487 1121.94 35.368C1121.42 36.4782 1120.31 37.4071 1119.5 38.4377L1118.68 39.4771C1119.31 40.5431 1121.12 41.8524 1122.73 42.3876C1124.32 42.9228 1127.65 43.1926 1128.83 43.1838C1130.01 43.1749 1134.8 45.8908 1135.5 46.8285C1136.21 47.7662 1139.94 48.3236 1140.18 48.5713C1140.41 48.8234 1140.38 50.7386 1140.23 52.7114L1141.61 54.3214L1142.12 54.9186C1142.44 55.7369 1141.73 56.8161 1140.54 57.3071L1139.72 58.0635C1138.39 59.2754 1138.51 59.3727 1137.49 58.7137C1137.33 58.6164 1137.22 58.4704 1137.06 58.3775L1135.4 57.369C1134.68 58.665 1133.75 58.9879 1133.32 58.0812C1132.9 57.1788 1128.98 56.9842 1127.88 57.1655C1126.78 57.3469 1123.74 58.3996 1125.18 58.8375C1126.62 59.271 1129.33 60.8943 1128.8 61.717L1129.92 62.2655L1131.79 63.1767C1133.06 61.7391 1134.15 60.8014 1134.21 61.0889C1134.27 61.3764 1135.27 62.1107 1136.1 62.2611C1136.94 62.4071 1135.93 64.7558 1134.58 65.0344L1133.87 65.7554L1133.08 66.5516C1132.41 67.9449 1132.3 69.263 1132.83 69.4842C1133.36 69.7053 1133.56 71.2712 1132.18 72.5141C1130.82 73.757 1127.68 77.0213 1128.1 77.1496C1128.53 77.2779 1129.4 78.22 1128.82 78.8791L1128.31 78.8923L1127.26 78.9277C1126.22 79.202 1125.07 80.352 1124.72 81.4932L1125.88 82.4309C1126.24 82.7228 1124.45 88.0351 1123.94 88.3447L1122.74 89.079C1121.43 89.8486 1120.35 90.9589 1120.34 91.5383C1120.32 92.1177 1118.71 94.0816 1118.34 94.8601L1117.8 95.4396L1116.59 96.7356C1117.42 98.067 1118.09 100.292 1118.09 101.672L1117.78 102.915L1117.35 104.684C1118.93 104.883 1119.59 105.529 1118.79 106.126C1118 106.719 1114.62 108.417 1113.28 108.391L1111.89 108.444L1109.83 108.528C1108.29 109.722 1106.58 110.828 1106.03 110.978L1105.98 110.903C1104.76 109.116 1103.54 111.682 1102.16 110.85C1101.01 110.156 1099.51 109.815 1098.04 109.479L1097.9 109.448C1097.33 110.571 1095.92 110.996 1094.78 110.39C1093.65 109.784 1090.42 111.381 1090.16 111.425L1090.07 111.345C1089.14 110.456 1087.7 111.332 1087.07 111L1085.28 110.041C1083.75 110.739 1081.19 110.673 1079.6 109.899L1077.96 111.142L1077.67 111.368C1076.97 111.257 1074.33 110.549 1071.78 109.797L1069.46 111.257L1069.08 111.496C1068.37 111.403 1067.06 111.46 1066.17 111.629C1065.28 111.797 1062.3 110.854 1061.58 110.642C1060.86 110.43 1058.48 110.793 1057.74 111.195C1057.01 111.593 1052.99 111.089 1051.34 111.239L1049.79 111.332C1049.05 111.376 1048.04 111.385 1047.59 111.031L1046.48 110.182C1045.44 110.629 1043.19 111.39 1041.47 111.867L1039.93 112.358C1039.51 112.491 1039.25 112.947 1038.91 113.256L1038.06 114.052C1037.64 113.194 1036.85 112.659 1036.32 112.867C1035.79 113.07 1034.16 115.087 1034.19 116.777L1034.08 118.369L1034.06 118.644C1031.14 118.63 1028.09 118.869 1027.28 119.183L1027.69 118.869L1030.56 116.698C1030.52 118.599 1031.14 120.002 1031.94 119.816C1032.74 119.635 1032.81 117.56 1032.77 116.773C1032.74 115.981 1031.45 113.836 1031.08 113.57C1030.72 113.3 1028.67 114.627 1027.85 115.317C1027.04 116.012 1031.76 119.4 1035.43 120.355L1036.46 119.524L1037.63 118.582C1038.67 117.003 1040.71 116.078 1042.17 116.534C1043.62 116.989 1047.2 118.569 1047.1 117.449L1047.37 116.764L1047.48 116.503C1048.47 116.445 1049.19 116.605 1049.07 116.861C1048.94 117.113 1049.03 118.02 1049.64 118.095C1050.24 118.17 1051.76 118.701 1051.59 119.099L1051.5 119.095L1049.83 118.967C1048.4 119.966 1048.18 121.028 1049.33 121.32L1049.72 121.037L1051.38 119.856C1053.36 119.891 1055.79 120.161 1056.78 120.457C1057.77 120.754 1060.13 119.161 1060.58 119.042L1060.85 119.17L1061.88 119.643C1062.92 120.187 1064.64 120.36 1065.72 120.028L1066.78 120.807C1067.1 121.05 1068.07 120.709 1068.75 120.656L1069.17 120.621C1069.63 120.616 1070 121.054 1070 121.585V122.717C1070 123.43 1069.3 124.925 1068.44 126.039L1066.63 125.977L1064.7 125.911C1062.01 125.938 1062.34 127.38 1065.42 129.113L1068.67 128.901L1070.02 128.813C1070.73 128.003 1072.03 127.185 1072.92 126.995L1074.3 128.003C1074.39 129.556 1074.98 131.312 1075.6 131.905L1076.48 131.75C1076.8 131.692 1077.18 130.984 1077.11 130.631L1077.05 130.33C1076.46 130.069 1075.21 130.1 1074.26 130.401L1073.06 130.087C1072.29 129.883 1071.4 130.821 1069.74 130.392L1067.51 129.817C1064.58 130.414 1061.34 131.843 1060.31 132.988L1061.65 134.218L1061.99 134.527C1062.69 134.735 1064.93 133.63 1066.97 132.073L1069.75 133.063L1074.37 135.545L1076.39 133.523C1075.33 132.042 1074.98 130.171 1075.61 129.366C1076.24 128.561 1078.58 127.026 1079.87 128.291L1080.49 129.228C1080.74 129.604 1080.44 130.37 1080.1 130.812L1079.66 131.396C1079.13 133.643 1079.89 135.284 1081.34 135.041C1082.8 134.797 1085.09 137.973 1084.45 138.415C1083.81 138.858 1081.89 140.649 1083.08 140.388C1084.27 140.132 1096.07 138.738 1097.88 138.04C1099.69 137.341 1097.25 136.889 1094.82 137.217L1092.79 138.053L1092.18 138.3C1091.4 138.402 1090.87 138.283 1091 138.031C1091.13 137.779 1090.86 136.876 1090.1 136.584L1089.97 136.713C1089.14 137.495 1088.51 138.411 1087.75 139.247L1087.18 139.88C1087.8 140.724 1089.32 141.715 1090.53 142.078C1091.75 142.445 1094.15 139.937 1094.48 139.65C1094.81 139.362 1095.92 139.791 1096.14 141.268L1098.39 140.353L1099.66 139.84C1096.87 139.548 1092.75 138.814 1090.5 138.212C1088.25 137.61 1088.43 135.611 1089.01 135.032C1089.6 134.448 1091.19 132.957 1091.31 133.01L1091.36 133.147C1091.68 133.992 1091.67 135.355 1092.31 135.602L1094.1 136.283C1094.2 135.014 1094.59 133.661 1094.98 133.276C1095.38 132.891 1100.62 133.758 1104.28 134.479L1107.66 132.9L1108.81 132.356C1108.61 133.316 1108.83 134.373 1109.3 134.709C1109.78 135.045 1111.59 135.708 1111.72 135.041C1111.84 134.373 1113.28 133.249 1114.73 133.638C1116.19 134.028 1114.99 137.535 1115.68 138.177C1116.37 138.818 1120.58 139.11 1123.95 137.805L1126.97 136.872L1127.35 136.752C1128.33 137.756 1129.39 138.402 1129.67 138.185C1129.96 137.964 1130.78 137.252 1130.86 137.062L1130.81 137.04L1129.58 136.337C1128.2 135.611 1126.47 135.058 1125.74 135.111L1125.06 135.164C1124.64 135.195 1124.11 135.328 1123.81 135.178C1121.11 133.851 1121.47 135.47 1121.4 136.766L1121.38 137.04C1121.12 137.332 1120.87 137.013 1120.81 136.332C1120.76 135.651 1118.16 135.284 1117.81 134.846L1117.9 134.483C1117.97 134.191 1118.8 133.714 1119.06 133.798C1120.57 134.297 1121.9 132.25 1123.59 133.652L1123.8 133.829C1125.52 132.847 1127.15 132.586 1127.42 133.245L1128.03 133.652L1128.3 133.842C1129.22 133.422 1130.59 132.749 1131.34 132.342C1132.09 131.935 1134.73 131.175 1135.05 131.847C1135.37 132.515 1136.48 134.351 1136.71 134.24L1137.1 134.138L1139.39 133.554C1141.88 132.886 1145.04 132.692 1146.4 133.13L1146.39 133.24C1146.26 134.908 1147.45 136.792 1145.38 138.225C1145.2 138.345 1145.49 139.221 1145.84 139.433C1146.16 139.627 1147.15 139.566 1147.36 139.327C1148 138.61 1148.38 137.739 1148.93 136.96L1149.26 136.505C1149.73 136.062 1150.27 136.155 1150.47 136.717C1150.67 137.274 1151.77 138.853 1152.32 139.048C1152.86 139.243 1154.64 138.929 1155.09 139.274C1155.55 139.619 1156.97 140.326 1157.12 139.99C1157.27 139.654 1158.08 139.097 1158.5 139.627C1158.94 140.158 1161.41 140.884 1162.64 139.557L1163.98 138.725L1164.06 138.672C1164.92 139.428 1165.27 140.348 1164.85 140.72C1164.43 141.087 1163.63 142.334 1164.29 142.418C1164.96 142.503 1166.84 143.219 1166.58 143.768C1166.31 144.32 1166.21 146.152 1167.12 146.267C1168.03 146.382 1168.88 147.576 1166.63 148.62L1164.81 149.571C1164.19 149.903 1163.56 150.447 1163.33 150.999C1163.1 151.552 1163.11 152.419 1163.51 152.822C1163.87 153.185 1165.01 153.348 1165.62 153.176L1166.89 152.813C1166.89 151.72 1167.22 150.46 1167.61 150.009L1168.09 149.818C1169.54 149.248 1173.8 150.84 1173.96 152.052L1174 152.402C1173.32 152.862 1171.99 153.693 1171.04 154.255C1170.1 154.821 1168.04 156.887 1167.97 157.121C1167.91 157.36 1167.17 157.347 1166.47 156.391L1165.72 156.259L1165.07 156.139C1163.96 156.909 1163.53 157.825 1164.14 158.178C1164.74 158.528 1166.82 161.646 1166.77 163.946L1166.88 166.33L1167 168.967C1164.49 170.497 1162.35 171.351 1162.24 170.86C1162.13 170.369 1161.33 169.409 1160.73 169.816C1160.12 170.218 1160.44 172.501 1159.82 172.589C1159.19 172.673 1157.68 173.686 1158.49 174.558H1159.11C1160.14 174.558 1161.14 173.859 1162.2 173.717C1163.01 173.615 1164.41 173.248 1164.41 174.544C1164.42 175.225 1164.13 176.344 1163.6 176.517L1161.76 177.123C1159.84 177.45 1158.41 176.141 1158.57 174.213L1155.69 174.721L1153.41 175.124C1154.35 176.866 1154.25 178.344 1153.2 178.401C1152.15 178.459 1149.13 178.193 1149.03 177.667C1148.93 177.141 1148.07 176.234 1147.38 176.968C1146.69 177.702 1144.48 179.45 1144.36 178.857C1144.23 178.269 1143.38 176.747 1142.87 177.304C1142.35 177.857 1139.01 179.237 1136.72 179.007L1135.12 179.803L1133.42 180.653C1131.77 180.547 1128.95 180.555 1127.15 180.679L1125.5 180.595L1124.95 180.573C1124.32 180.777 1122.29 180.679 1120.43 180.347C1118.57 180.02 1113.35 181.144 1112.91 180.949C1112.48 180.75 1110.41 180.485 1109.34 180.392C1108.27 180.299 1105.52 180.516 1104.7 180.025C1103.87 179.529 1100.47 181.692 1098.86 182.298L1098.58 180.007L1098.48 179.259C1097.36 179.715 1095.83 180.321 1095.08 180.608C1094.34 180.896 1092.98 181.904 1092.53 181.285C1092.07 180.666 1088.56 181.444 1087.56 181.564C1086.57 181.688 1083.64 181.188 1083.04 180.976C1082.45 180.768 1080.71 181.953 1080.34 182.241C1079.97 182.524 1078.15 182.002 1077.67 181.825C1077.19 181.648 1074.63 182.05 1073.06 182.727C1071.49 183.404 1065.87 181.551 1064.17 181.431C1062.48 181.312 1058.13 183.43 1057.39 183.541C1056.65 183.652 1053.86 183.324 1052.76 184.315L1050.74 183.024C1049.87 182.475 1047.75 183.373 1046.2 183.369C1044.91 183.36 1043.63 182.86 1042.33 182.833C1041.37 182.811 1040.38 183.169 1039.43 183.417L1037.23 183.988C1037.1 182.656 1037.1 182.272 1037.25 183.134C1037.39 183.997 1033.71 183.006 1032.42 183.448L1031.26 183.355L1026.45 182.962C1021.14 182.679 1015.27 182.541 1013.4 182.665C1011.53 182.785 1006.44 183.948 1006.06 184.116C1005.68 184.284 1003.84 184.536 1002.06 184.771L1001.58 184.297C1000.04 182.807 998.319 184.35 997.325 183.917L995.54 183.143C993.697 183.324 991.377 183.298 990.388 183.094C989.398 182.886 985.337 184.381 983.075 184.66L980.901 183.59L979.673 182.984C977.587 183.444 975.285 183.612 974.556 183.355C973.827 183.094 972.068 183.882 971.653 183.408C971.242 182.939 969.369 182.028 968.454 182.479C967.539 182.931 964.203 184.094 963.293 184.165C962.383 184.24 959.909 183.798 959.184 183.47C958.455 183.143 954.35 184.355 951.893 184.868C949.432 185.381 942.53 184.072 941.991 184.51C941.452 184.943 939.212 183.833 938.656 183.727C938.099 183.616 936.614 184.014 936.38 183.683C936.146 183.351 935.302 182.705 935.085 183.077C934.873 183.448 933.331 184.05 932.218 183.453C931.109 182.851 927.256 184.421 926.332 184.523L925.789 184.209C923.787 183.063 922.059 183.103 920.022 184.244C918.29 185.213 916.452 182.847 915.33 183.532C913.629 184.563 911.773 184.744 910.434 184.222C909.268 183.771 908.791 183.895 907.783 184.174C907.125 184.35 905.521 183.541 905.45 183.647C904.558 185.049 903.524 183.09 902.843 183.74C902.119 184.435 901.818 184.12 901.094 183.705L899.635 182.864C897.771 183.125 893.798 183.643 890.807 184.014C887.82 184.386 877.498 184.054 876.221 184.328L875.046 184.355L871.662 184.435C867.959 184.333 864.221 184.665 863.359 185.173C862.502 185.682 858.061 184.775 856.232 184.483L854.522 184.404C852.538 184.311 850.541 184.359 848.553 184.39L847.267 184.412C846.79 183.594 846.224 182.935 846.008 182.953C845.787 182.966 844.713 183.28 844.103 183.625C843.493 183.966 841.611 184.948 840.966 184.567C840.325 184.191 836.079 185.195 833.083 185.107C830.092 185.018 821.361 184.253 820.279 184.09C819.196 183.926 815.842 184.85 815.056 184.311C814.274 183.771 810.461 185.041 809.422 185.125C808.388 185.204 804.504 185.483 803.17 185.633C801.844 185.784 797.925 184.607 796.962 184.877C795.994 185.147 792.451 185.191 791.487 184.899C790.524 184.611 785.955 185.16 783.976 185.08L782.085 184.607L780.573 184.227C778.112 184.868 773.495 185.39 770.314 185.386C767.137 185.381 756.811 185.66 754.429 186.045L753.722 183.514L753.665 183.315C752.039 183.351 750.881 183.652 751.084 183.988C751.292 184.32 751.102 185.337 750.09 185.315C749.074 185.293 745.265 185.757 743.741 186.217L742.053 185.452L741.103 185.018C740.484 184.399 739.556 183.864 739.039 183.833L738.823 184.01C738.363 184.386 737.988 185.328 737.745 185.293L732.995 184.603C727.79 185.474 723.455 185.682 723.375 185.067C723.287 184.452 722.134 183.024 721.02 183.453L720.106 183.351C718.1 183.134 718.891 184.78 718.069 185.107C717.26 185.43 716.156 185.213 715.219 185.377C714.141 185.567 713.129 186.022 712.046 186.155L711.406 186.235C710.637 185.992 709.17 185.607 708.14 185.386C707.111 185.16 704.411 185.7 703.775 185.952C703.147 186.204 700.187 185.664 699.237 185.903C698.283 186.142 693.533 186.35 690.829 187L688.434 185.416C687.846 185.027 686.211 185.063 685.584 185.461L683.582 186.73C681.497 186.107 678.664 185.447 677.286 185.271L677.122 185.558C675.889 187.694 674.237 184.917 672.814 185.934L671.449 186.903C669.938 186.137 667.039 185.213 665.007 184.846L663.076 186.005L661.719 186.819C660.676 185.518 658.617 184.713 657.137 185.027L656.7 185.62C655.683 186.996 654.884 184.996 654.071 185.691L653.819 185.907C653.501 186.093 651.8 185.969 650.028 185.629C648.265 185.288 638.588 186.35 638.062 186.456L637.881 186.31C636.657 185.297 635.102 184.753 633.803 185.753C632.195 186.978 631.859 184.704 630.317 185.24L629.141 185.651C627.414 185.045 623.676 184.85 620.83 185.209L618.219 185.328C616.672 185.399 614.149 185.642 613.738 185.045L612.625 183.408C611.467 184.112 610.164 184.651 609.735 184.607C609.302 184.563 607.552 184.678 606.262 184.501L605.158 184.461C604.146 184.421 603.112 185.076 602.051 185.301L601.919 185.332C601.561 184.74 600.867 183.979 600.372 183.638C599.873 183.293 598.667 184.731 598.251 185.452L597.085 185.363L595.627 185.257C594.014 185.31 591.221 185.483 589.41 185.633L587.704 185.408L585.994 185.182C584.041 185.279 582.349 184.903 582.234 184.35C582.124 183.798 581.77 182.449 581.677 182.444C581.576 182.44 581.214 182.882 581.081 183.422C580.948 183.966 579.884 185.434 579.048 185.284L578.757 184.983C577.162 183.315 577.201 183.293 574.974 184.762L574.732 184.926C574.466 185.08 572.403 185.359 570.145 185.54C567.887 185.726 561.984 183.824 561.295 184.209C560.605 184.594 559.271 183.806 559.912 183.285C560.548 182.763 561.737 181.25 560.548 181.546C559.364 181.847 556.673 183.678 556.218 184.315L555.811 184.311C554.932 184.306 554.062 183.736 553.182 183.727C552.405 183.718 551.631 184.271 550.818 184.35C549.868 184.443 548.724 184.536 547.933 184.205L545.158 183.041C542.198 183.7 538.924 184.284 537.872 184.342L537.019 184.098C535.636 183.696 532.481 183.028 531.213 183.448L528.589 184.32C526.212 183.333 523.963 182.988 523.587 183.559C523.216 184.125 517.48 183.532 514.043 183.422L510.857 183.404L508.48 183.395C505.9 183.284 501.936 183.616 499.665 184.129L497.478 183.466C496.28 183.103 493.17 182.307 492.22 181.82C491.747 181.577 490.324 181.741 490.302 181.847C489.922 183.771 489.003 184.063 487.328 182.634L487.209 182.533C487.006 182.488 484.96 182.909 482.667 183.479L480.908 183.072C478.756 182.568 477.091 182.006 475.098 183.32C474.59 183.656 473.273 183.24 472.354 183.072L471.643 182.939C470.896 182.679 469.606 182.847 468.771 183.315C467.935 183.789 464.118 182.979 463.093 182.86C462.063 182.74 457.543 182.736 455.356 183.116L453.748 181.621C453.712 181.586 453.235 181.953 452.935 182.002L447.995 182.811C445.326 182.219 442.794 181.714 442.357 181.683C441.928 181.657 438.455 181.94 435.159 181.949L432.198 182.347L431.902 182.382C431.354 181.343 430.727 181.042 430.515 181.71C430.294 182.378 425.354 182.82 422.332 183.24L419.919 181.502L419.716 181.352C419 181.666 417.016 181.953 415.306 181.984L413.764 181.502C412.487 181.104 411.444 183.541 409.752 181.856C409.474 181.582 408.444 181.772 407.768 181.803C407.34 181.825 406.907 182.068 406.505 182.024L405.811 181.949C405.108 181.763 403.261 181.962 401.706 182.391L400.76 181.223C399.461 179.613 398.489 182.236 396.912 181.214C395.317 180.179 396.192 178.724 395.224 177.862C394.778 177.459 393.245 177.433 392.538 177.738L391.11 178.357C389.705 179.357 388.861 180.263 389.228 180.374C389.595 180.48 389.347 181.06 387.717 181.369L386.232 181.108C385.331 180.953 384.438 180.485 383.568 180.529L380.846 180.666C379.202 179.056 377.859 178.229 377.859 178.826C377.859 179.419 376.547 181.763 374.938 181.71C373.335 181.666 369.747 179.759 369.543 180.051L369.305 180.286L368.894 180.688C368.439 181.086 366.68 181.294 364.997 181.157C363.318 181.02 358.524 180.064 357.98 179.635C357.437 179.211 355.775 179.162 355.7 179.812C355.63 180.467 353.261 180.48 353.142 180.458C353.018 180.44 352.643 179.215 352.475 177.649L349.965 179.131C348.807 179.817 347.287 180.126 345.878 180.458L345.153 180.631C343.973 180.551 343.001 179.781 342.988 178.923L343.015 178.171C343.037 177.34 343.099 176.455 341.605 176.61C340.054 176.765 340.805 177.822 340.611 178.503L340.523 178.795C340.231 179.383 339.692 179.458 339.334 178.967C338.976 178.476 337.204 177.897 336.431 179.078L335.808 179.795C335.53 180.113 334.942 180.458 334.527 180.432L334.142 180.409C333.789 179.976 333.276 178.99 333.011 178.215C332.746 177.441 330.435 177.092 330.934 177.335C331.442 177.583 330.806 179.511 328.411 181.064L326.286 179.118L325.442 178.344C324.58 178.702 323.211 179.379 322.402 179.848C321.589 180.312 317.383 178.733 317.007 178.561L316.667 178.565L316.327 178.574C315.96 178.755 315.796 179.065 315.964 179.259C316.128 179.454 314.608 180.538 312.005 181.002L310.609 180.321L308.444 179.273C306.372 179.666 304.861 179.596 305.09 179.122C305.32 178.645 304.047 175.96 301.591 174.553L298.339 176.291L296.346 177.357C293.076 176.402 291.137 175.685 292.038 175.761L292.113 175.597L293.045 173.607C295.056 174.018 296.956 174.429 297.261 174.527C297.57 174.619 297.795 172.956 295.635 173.12L294.45 172.412L291.835 170.855C291.044 172.403 290.332 173.403 290.253 173.071C290.178 172.74 289.444 171.762 288.79 171.638C288.141 171.505 286.687 172.731 286.532 173.054C286.373 173.381 284.889 174.664 283.859 175.438C282.839 176.216 281.283 179.914 281.129 179.175C280.974 178.437 280.024 176.623 279.335 176.659C278.641 176.698 276.379 176.402 275.879 176.216C275.38 176.035 274.165 176.513 274.823 176.827C275.486 177.141 277.236 178.326 277.324 178.676L277.205 178.959C277.134 179.14 276.648 179.383 276.458 179.33L275.243 179.003C273.666 178.485 272.371 177.583 272.371 176.99C272.371 176.398 271.774 174.77 271.045 175.004C270.321 175.243 269.738 177.512 269.464 178.149C269.198 178.791 266.472 178.476 266.198 178.388C265.933 178.304 265.315 176.729 266.128 175.296C266.941 173.863 267.263 170.957 266.075 172.381C264.882 173.797 261.188 177.021 260.414 176.495C259.646 175.969 257.931 177.658 257.578 178.26C257.229 178.857 254.255 179.056 253.782 178.308C253.301 177.561 257.154 176.212 258.174 175.854C259.19 175.491 262.129 174.394 262.359 174.044C262.588 173.695 262.787 172.377 262.686 171.965L262.473 171.917C261.974 171.811 261.143 171.727 260.918 171.948L260.087 172.766C259.323 173.761 258.47 174.54 258.188 174.5C257.905 174.46 257.096 173.903 257.048 173.372C256.999 172.841 255.815 171.187 255.404 170.709C254.988 170.232 253.654 169.108 253.367 169.289C253.075 169.466 251.462 170.555 250.596 171.532L251.599 171.585L253.893 171.718C254.865 173.031 255.665 174.248 255.678 174.425C255.691 174.597 254.944 175.442 253.963 175.504L253.075 175.632L252.351 175.734C251.582 175.955 250.694 176.278 250.38 176.451C250.066 176.628 248.833 175.924 248.374 176.274C247.914 176.623 246.492 176.862 246.085 176.137C245.683 175.411 243.363 173.748 242.131 174.606L241.282 175.208L240.39 175.836C239.674 175.345 237.995 174.425 236.665 173.788L235.834 172.74L235.003 171.687C233.696 172.341 232.047 173.142 231.336 173.469L230.965 173.916L230.236 174.788C229.533 175.955 227.881 176.557 226.568 176.123C225.256 175.69 222.976 173.938 222.11 173.699C221.244 173.465 219.189 173.301 219.543 174.266L219.247 174.54C218.673 175.066 217.599 175.208 216.905 175.677L216.728 175.796C217.077 176.455 217.055 177.123 216.684 177.278C216.317 177.428 215.23 176.853 214.855 176.185C214.479 175.522 211.263 173.708 208.779 174.036L209.009 176.818C209.071 177.601 206.217 177.959 205.709 177.189C205.192 176.42 205.368 175.73 206.809 175.557C207.237 175.508 207.962 174.562 207.816 174.288L207.22 173.182C206.707 173.894 205.055 174.35 203.552 174.195C202.05 174.044 198.034 175.38 197.521 175.141L197 175.053C196.341 174.938 195.449 174.743 194.998 174.991L193.147 175.999C191.229 175.416 189.351 174.858 188.98 174.757C188.604 174.659 186.784 174.863 185.167 174.995L183.899 174.124L183.492 173.845C182.706 173.62 181.932 173.925 181.778 174.518C181.623 175.115 179.816 177.127 178.238 177.176C176.657 177.216 172.371 176.946 172.207 177.229L172.017 177.481L171.779 177.8C171.487 178.127 171.138 178.136 171.01 177.822L170.815 177.57L170.312 176.915C169.768 176.274 168.045 176.437 166.49 177.273L166.286 177.101L164.824 175.862C163.799 176.663 162.478 177.145 161.89 176.933C161.302 176.72 158.598 177.123 157.489 176.729C156.376 176.34 152.673 177.694 151.736 177.901C150.804 178.109 147.821 177.256 146.553 177.915L145.042 176.667L143.915 175.734C142.051 176.371 139.285 176.897 137.769 176.906L136.439 177.548L135.074 178.202C133.66 177.654 131.804 176.623 130.951 175.902L129.833 177.234C128.861 178.392 127.911 176.672 126.975 176.667C125.945 176.663 124.385 177.755 123.979 177.477C122.41 176.406 120.7 176.513 119.004 176.623C116.945 176.756 114.638 175.871 112.866 177.495L112.685 177.663C112.164 177.601 110.988 177.273 110.078 176.933C109.168 176.592 105.271 176.163 103.433 176.743L101.873 176.517C98.5988 176.039 95.3865 175.217 92.2361 174.336C91.5468 174.146 91.2552 173.089 90.6896 172.487C90.3935 172.169 89.8854 171.758 89.4922 171.771C88.7233 171.797 87.8794 172.346 87.2387 172.196L86.7969 172.089C86.545 171.289 85.405 170.378 84.2695 170.055C83.1339 169.732 79.736 170.196 78.9451 170.324L78.1763 169.834C76.5503 168.798 74.5398 168.538 71.2304 168.546C70.952 168.546 70.3025 167.542 70.4439 167.383C71.1552 166.609 72.4808 166.052 69.949 165.804C68.7957 165.693 68.9106 164.632 69.7678 163.973L70.192 163.645C70.6029 163.256 70.6648 162.456 70.3378 161.872C70.0153 161.283 71.6943 160.461 72.3173 160.912C72.9492 161.363 75.3484 160.651 75.9847 161.146L76.3161 161.695C76.5547 162.088 76.2145 162.694 76.4089 163.124C76.5635 163.46 77.0938 163.756 77.5444 163.902L77.7919 163.982C78.1984 163.769 79.1042 162.916 79.8067 162.08C80.5093 161.248 82.1176 158.293 81.7111 157.524C81.309 156.759 77.7035 157.44 76.6961 157.157L76.5724 156.71L76.2321 155.485C75.4324 154.348 74.4426 153.892 74.0317 154.481C73.6164 155.064 73.0861 157.559 72.0566 156.648C71.0227 155.732 66.6439 154.397 65.9767 153.857C65.3007 153.322 67.152 151.424 68.0181 151.999C68.8797 152.574 71.4866 153.879 71.8931 153.631C72.3041 153.384 73.1789 151.884 73.7666 150.915L75.3219 151.827C75.7859 152.096 77.0628 152.141 77.2484 151.911C77.8228 151.203 77.7168 150.654 76.3824 150.212L75.3926 149.885C74.5177 148.651 74.5222 147.262 75.4103 146.797L75.9405 146.183L76.2454 145.824C76.0466 145.125 75.5252 144.391 75.0833 144.192C74.6503 143.989 72.0301 142.684 69.9667 142.361L69.4939 143.887L68.7339 146.324C66.6086 145.718 65.3979 145.019 66.043 144.772C66.6881 144.524 67.8458 143.843 67.6027 143.644C67.3553 143.449 65.9811 142.317 65.0621 141.547L64.1828 140.884L63.4095 140.3C62.3977 140.578 60.7319 140.362 59.7068 139.818L58.6508 139.636C57.5108 139.442 56.2736 139.592 55.0806 139.592C53.0878 139.592 51.0421 139.366 49.1156 139.658C47.2465 139.946 45.8061 138.756 43.9061 139.136C42.9605 139.327 41.6173 138.703 40.6452 138.203L39.3108 137.513C37.7467 137.513 34.8525 137.279 32.873 136.982C30.8979 136.69 24.3055 133.886 22.0255 133.231L19.8737 132.798L18.4112 132.506C16.7454 132.373 14.5891 132.042 13.6215 131.776L12.7157 131.321L9.07479 129.485C9.66246 127.486 10.471 125.066 10.882 124.106L8.1734 124.531C6.839 124.739 6.13204 124.133 6.41924 123.036L6.61367 122.293C6.83901 121.475 6.69761 120.484 6.29552 120.086C5.89785 119.688 4.92578 118.369 5.45601 118.122C5.98181 117.865 7.92154 116.56 8.65944 115.791L7.15714 115.335C5.90669 114.955 5.3853 114.424 5.99064 113.73L7.07761 112.504C6.04809 111.867 4.39997 108.86 3.41022 105.821L1.17002 103.419L0.639801 102.848C1.53676 101.221 1.74443 99.8274 1.10816 99.7478C0.463055 99.6726 -0.495764 98.9206 0.303991 98.2439C1.10816 97.5671 0.326086 95.183 0.913751 95.0503C1.50142 94.9132 3.10976 93.4978 2.63698 92.3301L2.23489 91.2375C1.81071 90.0831 0.96677 88.8534 1.1656 87.7653C1.36886 86.6639 2.43815 85.5272 3.48976 84.7177C4.19673 84.1781 6.10111 84.4435 6.47227 83.895L7.25877 82.745C8.38992 82.8865 9.8392 83.0413 10.4755 83.09C11.1117 83.1298 14.1208 80.4184 14.7217 80.6484C15.3226 80.8784 18.8353 79.777 20.0769 79.7062L21.2744 79.3258C22.2067 79.0339 23.9255 80.1309 24.6766 79.7637C25.9624 79.1401 26.5368 79.2418 27.7033 79.8743C28.4236 80.2547 29.9656 80.0822 30.8405 79.7018L33.443 78.5827C33.1823 79.8964 35.0116 79.4674 37.5125 77.6273L41.1887 78.2023L41.7808 78.2952C42.554 77.8617 43.6057 77.6892 44.1138 77.9104C44.6308 78.1271 47.5779 77.9989 49.69 76.4286L52.6902 77.8087C53.6225 78.2377 56.0527 76.9815 56.5741 77.4371L58.2398 78.8702C59.5035 78.0652 61.7703 76.8356 63.277 76.1367L64.5628 75.8757C65.8795 75.6147 67.6823 75.6103 69.0697 75.8448C71.3717 76.2296 73.3645 76.694 75.6047 75.5396L77.3544 74.6416C79.6963 74.5399 81.8216 74.7699 82.069 75.1503L82.3518 75.4644L82.9041 76.0925C83.5581 76.7781 84.6892 76.4817 85.4094 75.4378C86.1341 74.3851 91.2905 75.2609 92.9607 75.3626C94.6265 75.4644 99.5576 73.4253 100.821 73.3501L102.005 73.3899C104.749 73.4872 106.163 73.3943 107.378 72.9564C107.882 72.775 108.408 72.4079 108.885 72.4477L109.791 72.5274C110.595 72.1646 112.234 71.6162 113.441 71.3065L114.448 71.5189L115.279 71.6958C116.034 72.5583 116.604 72.2575 116.551 71.0235L118.875 71.364C120.285 71.5719 122.044 71.9568 123.303 70.7359C123.387 70.6563 124.08 70.8156 124.089 70.8952C124.182 71.7091 124.253 72.7043 125.614 72.3327C126.246 72.1647 126.387 70.9085 127.045 70.6608C128.543 70.099 130.213 69.5948 131.826 69.555L133.7 69.5107C135.829 69.7407 138.264 69.6788 139.108 69.3692C139.956 69.0596 142.943 68.6526 143.716 68.7367C144.494 68.8163 147.039 68.8959 147.348 68.6438C147.658 68.3916 148.939 67.6928 149.054 68.0157C149.173 68.3386 150.256 69.0817 151.126 68.7367C151.992 68.3916 154.847 67.7591 155.386 68.1528C155.92 68.5465 158.059 69.5771 158.603 69.3028C159.137 69.033 160.211 67.6972 160.799 67.0603C161.386 66.4233 164.21 66.7506 165.208 66.472L166.233 66.4499L167.51 66.4233C168.986 66.3924 171.474 66.6224 173.033 66.9408L174.522 67.1222C174.92 67.1664 175.433 67.0735 175.773 66.8922L179.007 65.2202C180.943 66.441 182.6 67.0249 182.697 66.5162C182.79 66.0075 183.788 64.6673 184.632 65.0389L185.299 65.176L185.944 65.3131C186.709 65.3043 188.083 64.5744 189.006 63.6854L190.557 63.5659L191.172 63.5217C191.834 62.7698 191.768 61.6197 191.021 60.9651L190.213 60.7749C188.834 60.4564 188.905 61.4339 188.609 62.2036C188.489 62.5044 187.27 62.553 186.541 62.6636C184.968 62.9113 182.984 63.703 181.901 63.2076C180.108 62.3849 178.455 62.8317 176.772 62.7034C174.991 62.5619 173.184 62.6724 171.394 62.6724C169.6 62.6724 167.784 62.5265 166.017 62.7078C163.489 62.9644 162.615 61.2747 161.315 60.2087L159.804 58.9614C158.174 58.9658 156.128 59.1914 155.262 59.4612C154.387 59.731 153.04 59.8106 152.372 59.8991C151.705 59.9876 149.54 58.7048 148.868 58.3156C148.206 57.9263 145.555 57.0727 145.073 57.5769L144.746 58.1298C144.238 58.9835 144.286 58.9968 146.001 59.0366C146.284 59.0454 146.814 59.1648 146.814 59.2091C146.774 59.6514 146.734 60.4387 146.535 60.4741C145.365 60.6643 143.659 61.5357 143.398 59.731L143.27 58.8198C143.544 57.6875 143.867 56.5419 143.973 56.2721C144.083 55.9978 143.986 55.3432 143.522 55.4582L143.098 55.5511C142.554 55.6617 142.006 55.759 141.459 55.8563L139.307 56.2367C140.173 57.3425 139.735 58.7756 138.335 59.417C136.934 60.0628 132.683 60.0451 132.635 59.5541L132.745 59.1339L132.935 58.4527C133.258 57.7229 133.085 57.1655 132.546 57.2098C132.012 57.2584 130.342 56.2013 130.554 54.7107L130.112 54.5735L126.003 53.2952C126.82 50.5086 128.508 48.4695 129.754 48.7659L130.655 49.049C131.512 49.3232 132.29 49.7832 133.169 49.9734C133.638 50.0751 134.34 49.9026 134.751 49.6505L135.785 49.018C137.089 48.934 138.834 48.2837 139.66 47.576L139.616 46.9745L139.563 46.3375C138.644 45.7227 136.996 45.2008 135.891 45.1698L135.175 45.559C134.588 45.8731 135.144 47.3903 133.669 47.032L132.635 46.7799C131.61 45.9837 130.425 45.9483 129.997 46.7047C129.568 47.4566 127.023 46.6073 127.138 46.3685C127.262 46.1296 127.231 45.3113 126.692 45.3113C126.153 45.3113 124.43 45.6696 124.332 46.1075C124.231 46.5454 123.603 47.8193 123.192 47.7795L123.113 47.638C122.887 47.231 122.945 46.687 122.636 46.3464L121.407 44.9885C119.357 45.0636 117.431 45.1079 117.126 45.0813C116.821 45.0504 116.357 43.3298 117.899 41.441L120.082 42.4982L121.761 43.3076C123.63 43.2634 125.198 42.538 125.247 41.702C125.291 40.8616 124.951 38.4863 124.363 38.4863C123.78 38.4863 122.176 38.8712 122.724 39.3356L122.887 39.747L123.042 40.1406C122.896 40.782 121.911 41.0872 120.837 40.8174C119.764 40.552 117.965 39.4904 119.225 39.0569L119.269 38.6367C119.335 38.0219 118.548 37.2788 117.925 36.7392C117.793 36.6197 116.812 37.3407 116.26 37.3009C115.69 37.2523 115.106 36.7967 114.678 36.4074C114.598 36.3367 115.177 35.7351 115.513 35.4211L115.592 35.3414C115.866 35.3812 117.718 35.682 119.706 36.0093C121.69 36.3367 127.028 34.7532 127.549 35.0937L128.004 35.0584C128.596 35.0097 129.166 34.6249 129.683 34.3108C129.838 34.2135 129.878 33.8243 129.767 33.6518L129.604 33.382C129.272 33.1475 129.445 32.7671 129.988 32.5371C130.532 32.3115 132.414 31.9179 132.829 32.2319C133.236 32.546 134.716 33.1652 135.114 32.8423C135.507 32.5238 137.19 32.3115 137.804 33.2183C138.427 34.1251 140.155 36.4826 140.274 36.4517C140.394 36.4207 140.38 34.9257 139.978 33.205L139.81 31.6215L139.775 31.2942C140.526 30.8784 141.494 30.8032 141.927 31.1261L142.104 31.4888L142.568 32.4575C143.054 33.7889 144.11 33.4793 144.905 31.7763L145.979 30.9403L147.234 29.9628C147.865 28.6845 148.577 27.8928 148.815 28.1935C149.05 28.4987 150.746 29.5249 151.842 29.5249L152.836 29.9495L153.782 30.3565C155.267 30.5776 156.477 30.2636 156.477 29.6532C156.477 29.0428 156.897 27.8308 157.405 28.0918L157.896 28.282C159.04 28.7243 160.189 29.4099 161.36 29.4497C161.934 29.4718 162.539 27.7601 163.189 27.7291L164.355 27.6804C165.743 27.707 167.197 27.8839 167.585 28.0697C167.979 28.251 169.56 27.906 169.472 26.5923L169.667 25.6944L169.887 24.6904C170.404 23.6244 172.901 23.412 175.437 24.2215L178.331 22.0055C180.063 20.6785 181.517 18.3784 184.561 20.6254L184.654 20.6962C185.953 19.7054 187.597 19.4223 188.304 20.0681L189.09 20.5325L189.47 20.7581C190.093 20.7227 191.335 20.6918 192.228 20.6785C193.116 20.6652 195.908 19.5771 197.008 19.2985C198.109 19.0242 202.169 18.8606 203.539 18.8119C204.909 18.7677 208.086 17.1444 208.85 17.7503C209.615 18.3563 211.36 20.2052 211.214 20.6652C211.068 21.1252 211.457 22.7132 212.575 22.6645L213.671 22.7707L215.469 22.9432C216.565 21.9347 218.023 20.3468 218.703 19.4179C219.388 18.4846 221.726 16.1801 222.238 16.5516L222.654 16.7418L224.739 17.7149C224.421 18.8031 223.573 20.0814 222.852 20.5502L222.565 21.0987L222.34 21.541C222.601 22.1912 223.126 22.6512 223.506 22.5539C223.886 22.4566 225.897 21.0943 227.474 19.9929L229.622 20.8112L230.231 21.0456C230.85 21.3685 231.862 20.7802 232.476 19.7319C233.099 18.6881 235.56 16.1359 236.404 16.6799L237.226 16.8701L238.702 17.2151C239.996 17.9936 241.622 18.7456 242.312 18.8871C243.001 19.0331 242.939 21.1341 243.257 21.4658C243.567 21.7976 244.751 21.8993 244.958 22.3372C245.175 22.7751 246.907 22.1293 247.119 21.426C247.336 20.7227 250.261 20.9085 250.884 21.0456C251.516 21.1783 253.897 20.1964 256.053 20.6431L258.09 20.8377L260.012 21.0235C262.08 21.4835 264.13 21.2624 264.563 20.5237C264.992 19.785 263.472 17.4451 263.693 16.9099Z" fill="#AAC8CA"/>
<path d="M284.552 130.776C285.363 130.776 286.045 131.053 286.6 131.608C287.155 132.12 287.432 132.803 287.432 133.656C287.432 134.509 287.112 135.213 286.472 135.768C285.875 136.323 285.149 136.579 284.296 136.536C283.101 136.408 282.035 136.301 281.096 136.216C280.2 136.173 279.325 136.152 278.472 136.152C277.661 136.152 276.787 136.173 275.848 136.216C274.952 136.301 273.885 136.408 272.648 136.536C271.795 136.579 271.069 136.323 270.472 135.768C269.875 135.213 269.576 134.509 269.576 133.656C269.576 132.803 269.875 132.099 270.472 131.544C271.069 130.947 271.795 130.691 272.648 130.776C273.117 130.819 273.608 130.861 274.12 130.904C274.675 130.947 275.208 130.989 275.72 131.032H275.848C276.147 131.032 276.296 130.861 276.296 130.52V98.2C276.296 97.9013 276.211 97.752 276.04 97.752C275.869 97.7093 275.741 97.816 275.656 98.072L262.472 128.536C262.173 129.219 261.725 129.773 261.128 130.2C260.573 130.584 259.933 130.776 259.208 130.776C258.525 130.776 257.864 130.563 257.224 130.136C256.627 129.709 256.2 129.176 255.944 128.536L243.784 98.008C243.741 97.752 243.635 97.624 243.464 97.624C243.251 97.624 243.144 97.7947 243.144 98.136V130.52C243.144 130.861 243.293 131.032 243.592 131.032C244.147 131.032 244.68 131.011 245.192 130.968C245.747 130.883 246.28 130.819 246.792 130.776C247.645 130.691 248.371 130.947 248.968 131.544C249.565 132.099 249.864 132.803 249.864 133.656C249.864 134.509 249.565 135.213 248.968 135.768C248.371 136.323 247.645 136.579 246.792 136.536C245.597 136.408 244.531 136.301 243.592 136.216C242.696 136.173 241.821 136.152 240.968 136.152C240.115 136.152 239.24 136.173 238.344 136.216C237.448 136.301 236.381 136.408 235.144 136.536C234.291 136.579 233.544 136.323 232.904 135.768C232.307 135.213 232.008 134.509 232.008 133.656C232.008 132.803 232.285 132.12 232.84 131.608C233.395 131.053 234.077 130.776 234.888 130.776C235.571 130.776 236.189 130.84 236.744 130.968C237.171 130.968 237.384 130.776 237.384 130.392V94.04C237.384 93.656 237.192 93.464 236.808 93.464C236.552 93.5067 236.275 93.5493 235.976 93.592C235.677 93.592 235.357 93.592 235.016 93.592C234.205 93.592 233.523 93.3147 232.968 92.76C232.413 92.2053 232.136 91.5227 232.136 90.712C232.136 89.8587 232.456 89.1547 233.096 88.6C233.736 88.0453 234.483 87.8107 235.336 87.896C236.744 88.0667 237.917 88.1947 238.856 88.28C239.795 88.3653 240.755 88.408 241.736 88.408C242.973 88.408 244.083 88.7493 245.064 89.432C246.088 90.1147 246.813 91.032 247.24 92.184L258.952 122.072C259.08 122.328 259.208 122.456 259.336 122.456C259.549 122.456 259.677 122.328 259.72 122.072L272.328 92.12C272.797 91.0107 273.544 90.1147 274.568 89.432C275.592 88.7493 276.701 88.408 277.896 88.408C278.92 88.408 279.88 88.3653 280.776 88.28C281.672 88.1947 282.781 88.0667 284.104 87.896C284.957 87.8107 285.704 88.0667 286.344 88.664C286.984 89.2187 287.304 89.9227 287.304 90.776C287.304 91.5867 287.027 92.2693 286.472 92.824C285.917 93.336 285.235 93.592 284.424 93.592C284.125 93.592 283.827 93.5707 283.528 93.528C283.272 93.4853 282.973 93.464 282.632 93.464H282.504C282.205 93.464 282.056 93.6347 282.056 93.976V130.392C282.056 130.776 282.269 130.968 282.696 130.968C283.336 130.84 283.955 130.776 284.552 130.776ZM330.555 88.024C331.408 87.9387 332.134 88.1947 332.731 88.792C333.328 89.3467 333.627 90.0507 333.627 90.904C333.627 91.7147 333.328 92.3973 332.731 92.952C332.134 93.5067 331.43 93.7627 330.619 93.72L328.507 93.592C328.166 93.592 327.931 93.72 327.803 93.976L316.027 115.672C315.899 115.843 315.835 116.077 315.835 116.376V130.328C315.835 130.669 315.984 130.84 316.283 130.84C316.795 130.84 317.286 130.819 317.755 130.776C318.267 130.691 318.758 130.627 319.227 130.584C320.08 130.499 320.806 130.755 321.403 131.352C322 131.907 322.299 132.611 322.299 133.464C322.299 134.317 322 135.021 321.403 135.576C320.806 136.131 320.08 136.387 319.227 136.344C317.99 136.216 316.859 136.109 315.835 136.024C314.811 135.981 313.808 135.96 312.827 135.96C311.163 135.96 309.2 136.088 306.939 136.344C306.086 136.387 305.339 136.131 304.699 135.576C304.102 135.021 303.803 134.317 303.803 133.464C303.803 132.611 304.102 131.907 304.699 131.352C305.339 130.755 306.086 130.499 306.939 130.584C307.366 130.627 307.814 130.669 308.283 130.712C308.795 130.755 309.286 130.797 309.755 130.84H309.883C310.182 130.84 310.331 130.669 310.331 130.328V116.76C310.331 116.461 310.267 116.227 310.139 116.056L298.299 93.912C298.171 93.656 297.979 93.528 297.723 93.528C297.296 93.528 296.87 93.5707 296.443 93.656C296.059 93.6987 295.654 93.72 295.227 93.72C294.459 93.72 293.798 93.464 293.243 92.952C292.688 92.3973 292.411 91.7147 292.411 90.904C292.411 90.0507 292.71 89.3467 293.307 88.792C293.904 88.1947 294.63 87.9387 295.483 88.024C296.72 88.152 297.766 88.2587 298.619 88.344C299.515 88.3867 300.347 88.408 301.115 88.408C301.968 88.408 302.843 88.3867 303.739 88.344C304.678 88.2587 305.808 88.152 307.131 88.024C307.984 87.9387 308.71 88.1947 309.307 88.792C309.947 89.3467 310.267 90.0507 310.267 90.904C310.267 91.7147 309.99 92.3973 309.435 92.952C308.88 93.464 308.219 93.72 307.451 93.72C307.024 93.72 306.598 93.6987 306.171 93.656C305.744 93.6133 305.318 93.5707 304.891 93.528H304.763C304.592 93.528 304.464 93.592 304.379 93.72C304.336 93.848 304.358 93.9973 304.443 94.168L312.699 110.168C312.784 110.381 312.912 110.488 313.083 110.488C313.254 110.488 313.382 110.381 313.467 110.168L321.723 94.168C321.766 94.0827 321.787 93.976 321.787 93.848C321.787 93.6347 321.659 93.528 321.403 93.528C320.934 93.528 320.464 93.5707 319.995 93.656C319.526 93.6987 319.056 93.72 318.587 93.72C317.819 93.72 317.158 93.464 316.603 92.952C316.048 92.3973 315.771 91.7147 315.771 90.904C315.771 90.0507 316.07 89.3467 316.667 88.792C317.307 88.1947 318.054 87.9387 318.907 88.024C320.144 88.152 321.19 88.2587 322.043 88.344C322.896 88.3867 323.728 88.408 324.539 88.408C325.392 88.408 326.267 88.3867 327.163 88.344C328.102 88.2587 329.232 88.152 330.555 88.024ZM396.436 122.456C397.204 123.139 397.588 123.992 397.588 125.016C397.588 125.699 397.417 126.275 397.076 126.744C394.857 129.859 392.105 132.269 388.819 133.976C385.534 135.683 382.057 136.536 378.388 136.536C375.188 136.536 372.18 135.917 369.364 134.68C366.548 133.4 364.073 131.651 361.94 129.432C359.806 127.171 358.121 124.568 356.884 121.624C355.689 118.68 355.092 115.523 355.092 112.152C355.092 108.781 355.689 105.624 356.884 102.68C358.078 99.736 359.742 97.1547 361.876 94.936C364.009 92.7173 366.484 90.9893 369.3 89.752C372.116 88.472 375.145 87.832 378.388 87.832C384.446 87.832 389.545 89.816 393.684 93.784C395.988 95.8747 397.14 97.9227 397.14 99.928C397.14 101.165 396.713 102.211 395.86 103.064C395.006 103.917 393.982 104.344 392.788 104.344C391.508 104.344 390.462 103.896 389.652 103C388.841 102.104 388.436 101.101 388.436 99.992C388.436 99.224 388.628 98.52 389.012 97.88C389.225 97.5387 389.204 97.2613 388.948 97.048C386.473 94.5733 382.953 93.336 378.388 93.336C375.06 93.336 372.073 94.168 369.428 95.832C366.782 97.4533 364.692 99.6933 363.156 102.552C361.62 105.368 360.852 108.568 360.852 112.152C360.852 115.693 361.62 118.872 363.156 121.688C364.692 124.461 366.782 126.659 369.428 128.28C372.073 129.901 375.06 130.712 378.388 130.712C381.332 130.712 384.062 130.051 386.58 128.728C389.097 127.405 391.145 125.549 392.724 123.16C393.236 122.307 393.961 121.88 394.9 121.88C395.497 121.88 396.009 122.072 396.436 122.456ZM445.468 130.776C446.321 130.691 447.047 130.947 447.644 131.544C448.284 132.099 448.604 132.803 448.604 133.656C448.604 134.509 448.284 135.213 447.644 135.768C447.047 136.323 446.321 136.579 445.468 136.536C445.297 136.493 444.615 136.408 443.42 136.28C442.225 136.152 441.073 136.088 439.964 136.088C438.129 136.088 436.721 135.32 435.74 133.784L425.116 117.592C424.988 117.336 424.753 117.208 424.412 117.208H416.732C416.348 117.208 416.156 117.4 416.156 117.784V130.52C416.156 130.861 416.305 131.032 416.604 131.032C417.159 131.032 417.692 131.011 418.204 130.968C418.716 130.883 419.228 130.819 419.74 130.776C420.593 130.691 421.319 130.947 421.916 131.544C422.513 132.099 422.812 132.803 422.812 133.656C422.812 134.509 422.513 135.213 421.916 135.768C421.319 136.323 420.593 136.579 419.74 136.536C418.545 136.408 417.479 136.301 416.54 136.216C415.644 136.173 414.769 136.152 413.916 136.152C413.063 136.152 412.188 136.173 411.292 136.216C410.396 136.301 409.329 136.408 408.092 136.536C407.239 136.579 406.492 136.323 405.852 135.768C405.255 135.213 404.956 134.509 404.956 133.656C404.956 132.803 405.233 132.12 405.788 131.608C406.343 131.053 407.025 130.776 407.836 130.776C408.135 130.776 408.433 130.797 408.732 130.84C409.073 130.883 409.436 130.925 409.82 130.968H409.948C410.247 130.968 410.396 130.797 410.396 130.456V94.168C410.396 93.7413 410.204 93.5707 409.82 93.656L408.284 93.784C407.431 93.912 406.663 93.6987 405.98 93.144C405.297 92.5467 404.956 91.8 404.956 90.904C404.956 89.9653 405.276 89.2187 405.916 88.664C406.599 88.0667 407.388 87.8107 408.284 87.896C409.137 88.024 410.012 88.152 410.908 88.28C411.847 88.3653 412.743 88.408 413.596 88.408L425.308 88.472C430.897 88.5147 435.249 89.7947 438.364 92.312C441.521 94.7867 443.1 98.2853 443.1 102.808C443.1 106.349 442.119 109.315 440.156 111.704C438.236 114.051 435.505 115.651 431.964 116.504C431.495 116.589 431.388 116.824 431.644 117.208L440.476 130.776C440.604 131.032 440.86 131.16 441.244 131.16C442.737 131.075 444.145 130.947 445.468 130.776ZM426.012 93.976H416.732C416.348 93.976 416.156 94.168 416.156 94.552V111C416.156 111.384 416.348 111.576 416.732 111.576H426.012C433.735 111.576 437.596 108.653 437.596 102.808C437.596 96.92 433.735 93.976 426.012 93.976ZM485.22 123.224C486.116 123.224 486.862 123.544 487.46 124.184C488.057 124.781 488.313 125.507 488.228 126.36L487.844 131.736C487.801 132.931 487.353 133.933 486.5 134.744C485.646 135.555 484.644 135.96 483.492 135.96H460.836C460.068 135.96 459.257 136.024 458.404 136.152C457.593 136.28 456.804 136.387 456.036 136.472C455.14 136.6 454.35 136.365 453.668 135.768C452.985 135.171 452.644 134.403 452.644 133.464C452.644 132.525 452.985 131.779 453.668 131.224C454.35 130.627 455.14 130.392 456.036 130.52C456.164 130.563 456.313 130.584 456.484 130.584C456.654 130.584 456.846 130.605 457.06 130.648H457.188C457.529 130.648 457.7 130.477 457.7 130.136V94.168C457.7 93.784 457.529 93.592 457.188 93.592C457.017 93.592 456.825 93.6347 456.612 93.72C456.441 93.7627 456.249 93.8053 456.036 93.848C455.14 93.976 454.35 93.7627 453.668 93.208C452.985 92.6107 452.644 91.8427 452.644 90.904C452.644 89.9653 452.985 89.1973 453.668 88.6C454.35 88.0027 455.14 87.768 456.036 87.896C456.889 87.9813 457.764 88.088 458.66 88.216C459.556 88.344 460.409 88.408 461.22 88.408H483.492C484.644 88.408 485.646 88.8133 486.5 89.624C487.353 90.4347 487.801 91.4373 487.844 92.632L488.228 98.008C488.313 98.8187 488.057 99.544 487.46 100.184C486.862 100.824 486.116 101.144 485.22 101.144C484.366 101.144 483.641 100.867 483.044 100.312C482.489 99.7147 482.212 99.0107 482.212 98.2C482.212 97.688 482.233 97.1333 482.276 96.536C482.361 95.896 482.425 95.2773 482.468 94.68C482.468 94.296 482.276 94.104 481.892 94.104H464.036C463.652 94.104 463.46 94.296 463.46 94.68V107.864C463.46 108.248 463.652 108.44 464.036 108.44H479.716C480.484 108.44 481.145 108.717 481.7 109.272C482.254 109.827 482.532 110.488 482.532 111.256C482.532 112.024 482.254 112.685 481.7 113.24C481.145 113.752 480.484 114.008 479.716 114.008H464.036C463.652 114.008 463.46 114.2 463.46 114.584V129.688C463.46 130.072 463.652 130.264 464.036 130.264H481.892C482.276 130.264 482.468 130.072 482.468 129.688C482.425 129.048 482.361 128.451 482.276 127.896C482.233 127.299 482.212 126.723 482.212 126.168C482.212 125.357 482.489 124.675 483.044 124.12C483.641 123.523 484.366 123.224 485.22 123.224ZM544.784 130.776C545.594 130.776 546.277 131.053 546.832 131.608C547.386 132.12 547.664 132.803 547.664 133.656C547.664 134.509 547.344 135.213 546.704 135.768C546.106 136.323 545.381 136.579 544.528 136.536C542.096 136.28 540.154 136.152 538.704 136.152C537.125 136.152 535.184 136.28 532.88 136.536C532.026 136.579 531.301 136.323 530.704 135.768C530.106 135.213 529.808 134.509 529.808 133.656C529.808 132.803 530.064 132.12 530.576 131.608C531.13 131.053 531.813 130.776 532.624 130.776C533.008 130.776 533.413 130.797 533.84 130.84C534.309 130.883 534.757 130.947 535.184 131.032C535.696 131.032 535.845 130.819 535.632 130.392L532.624 123.672C532.496 123.373 532.282 123.224 531.984 123.224H509.84C509.584 123.224 509.37 123.373 509.2 123.672L506.192 130.392C506.149 130.477 506.128 130.563 506.128 130.648C506.128 130.904 506.298 131.032 506.64 131.032C507.109 130.947 507.557 130.883 507.984 130.84C508.41 130.797 508.816 130.776 509.2 130.776C510.01 130.776 510.672 131.053 511.184 131.608C511.738 132.12 512.016 132.803 512.016 133.656C512.016 134.509 511.717 135.213 511.12 135.768C510.522 136.323 509.797 136.579 508.944 136.536C506.469 136.28 504.528 136.152 503.12 136.152C501.498 136.152 499.557 136.28 497.296 136.536C496.442 136.579 495.696 136.323 495.056 135.768C494.458 135.213 494.16 134.509 494.16 133.656C494.16 132.803 494.437 132.12 494.992 131.608C495.546 131.053 496.229 130.776 497.04 130.776C497.466 130.776 497.872 130.797 498.256 130.84C498.64 130.883 499.024 130.925 499.408 130.968H499.536C499.749 130.968 499.941 130.84 500.112 130.584L518.672 89.304C519.098 88.3227 519.845 87.832 520.912 87.832C521.936 87.832 522.661 88.3227 523.088 89.304L541.776 130.584C541.946 130.84 542.138 130.968 542.352 130.968C542.778 130.968 543.184 130.947 543.568 130.904C543.994 130.819 544.4 130.776 544.784 130.776ZM521.296 98.456C521.253 98.2 521.125 98.072 520.912 98.072C520.784 98.072 520.656 98.2 520.528 98.456L512.144 117.144C512.101 117.229 512.08 117.315 512.08 117.4C512.08 117.699 512.25 117.848 512.592 117.848H529.232C529.744 117.848 529.893 117.613 529.68 117.144L521.296 98.456ZM581.532 99.288C581.617 100.099 581.361 100.824 580.764 101.464C580.166 102.104 579.42 102.424 578.524 102.424C577.628 102.424 576.881 102.104 576.284 101.464C575.729 100.824 575.473 100.099 575.516 99.288L575.836 94.616C575.836 94.232 575.665 94.04 575.324 94.04H565.98C565.596 94.04 565.404 94.232 565.404 94.616V130.52C565.404 130.861 565.553 131.032 565.852 131.032C566.364 131.032 566.854 131.011 567.324 130.968C567.836 130.883 568.305 130.819 568.732 130.776C569.585 130.691 570.31 130.947 570.908 131.544C571.505 132.099 571.804 132.803 571.804 133.656C571.804 134.467 571.505 135.149 570.908 135.704C570.31 136.259 569.585 136.515 568.732 136.472C567.494 136.344 566.513 136.259 565.788 136.216C565.105 136.173 564.529 136.131 564.06 136.088C563.59 136.088 563.078 136.088 562.524 136.088C561.926 136.088 561.393 136.088 560.924 136.088C560.454 136.131 559.878 136.173 559.196 136.216C558.556 136.259 557.617 136.344 556.38 136.472C555.569 136.515 554.844 136.259 554.204 135.704C553.606 135.149 553.308 134.467 553.308 133.656C553.308 132.803 553.606 132.099 554.204 131.544C554.844 130.947 555.569 130.691 556.38 130.776C556.806 130.819 557.254 130.861 557.724 130.904C558.193 130.947 558.662 130.989 559.132 131.032H559.26C559.558 131.032 559.708 130.861 559.708 130.52V94.616C559.708 94.232 559.516 94.04 559.132 94.04H549.724C549.382 94.04 549.212 94.232 549.212 94.616L549.532 99.288C549.617 100.099 549.361 100.824 548.764 101.464C548.166 102.104 547.42 102.424 546.524 102.424C545.628 102.424 544.881 102.104 544.284 101.464C543.729 100.824 543.473 100.099 543.516 99.288C543.601 98.3067 543.686 97.24 543.772 96.088C543.857 94.936 543.921 93.784 543.964 92.632C544.049 91.4373 544.497 90.4347 545.308 89.624C546.161 88.8133 547.164 88.408 548.316 88.408H576.796C577.905 88.408 578.886 88.8133 579.74 89.624C580.593 90.4347 581.041 91.4373 581.084 92.632C581.169 93.784 581.254 94.936 581.34 96.088C581.425 97.24 581.489 98.3067 581.532 99.288ZM603.755 130.776C604.608 130.691 605.334 130.947 605.931 131.544C606.571 132.099 606.891 132.803 606.891 133.656C606.891 134.509 606.571 135.213 605.931 135.768C605.334 136.323 604.608 136.579 603.755 136.536C602.56 136.408 601.451 136.301 600.427 136.216C599.403 136.173 598.4 136.152 597.419 136.152C595.712 136.152 593.728 136.28 591.467 136.536C590.614 136.579 589.867 136.323 589.227 135.768C588.63 135.213 588.331 134.509 588.331 133.656C588.331 132.803 588.63 132.099 589.227 131.544C589.867 130.947 590.614 130.691 591.467 130.776C591.894 130.819 592.342 130.861 592.811 130.904C593.28 130.947 593.75 130.989 594.219 131.032H594.347C594.646 131.032 594.795 130.861 594.795 130.52V93.848C594.795 93.5067 594.646 93.336 594.347 93.336C593.835 93.336 593.344 93.3573 592.875 93.4C592.406 93.4427 591.936 93.5067 591.467 93.592C590.614 93.6347 589.867 93.3787 589.227 92.824C588.63 92.2693 588.331 91.5653 588.331 90.712C588.331 89.8587 588.63 89.1547 589.227 88.6C589.867 88.0027 590.614 87.7467 591.467 87.832C592.704 87.96 593.814 88.0667 594.795 88.152C595.819 88.1947 596.822 88.216 597.803 88.216C599.467 88.216 601.451 88.088 603.755 87.832C604.608 87.7467 605.334 88.0027 605.931 88.6C606.571 89.1547 606.891 89.8587 606.891 90.712C606.891 91.5653 606.571 92.2693 605.931 92.824C605.334 93.3787 604.608 93.6347 603.755 93.592C603.328 93.5067 602.902 93.464 602.475 93.464C602.048 93.4213 601.6 93.3787 601.131 93.336H601.003C600.704 93.336 600.555 93.5067 600.555 93.848V130.52C600.555 130.861 600.726 131.032 601.067 131.032C601.494 131.032 601.942 131.011 602.411 130.968C602.88 130.883 603.328 130.819 603.755 130.776ZM655.495 87.832C656.348 87.7467 657.074 88.0027 657.671 88.6C658.268 89.1547 658.567 89.8587 658.567 90.712C658.567 91.5653 658.268 92.2693 657.671 92.824C657.074 93.3787 656.348 93.6347 655.495 93.592C654.727 93.464 653.959 93.4 653.191 93.4H653.063C652.892 93.4 652.722 93.5493 652.551 93.848L639.559 133.4C639.26 134.339 638.684 135.085 637.831 135.64C637.02 136.237 636.124 136.536 635.143 136.536C634.162 136.536 633.266 136.237 632.455 135.64C631.687 135.085 631.132 134.339 630.791 133.4L617.863 93.848C617.735 93.5493 617.564 93.4 617.351 93.4C616.583 93.4 615.772 93.464 614.919 93.592C614.108 93.6347 613.383 93.3787 612.743 92.824C612.146 92.2693 611.847 91.5653 611.847 90.712C611.847 89.8587 612.146 89.1547 612.743 88.6C613.383 88.0027 614.108 87.7467 614.919 87.832C616.156 87.96 617.223 88.0667 618.119 88.152C619.058 88.1947 619.932 88.216 620.743 88.216C621.596 88.216 622.471 88.1947 623.367 88.152C624.306 88.0667 625.372 87.96 626.567 87.832C627.42 87.7467 628.146 88.0027 628.743 88.6C629.383 89.1547 629.703 89.8587 629.703 90.712C629.703 91.5653 629.383 92.2693 628.743 92.824C628.146 93.3787 627.42 93.6347 626.567 93.592C626.226 93.5067 625.863 93.464 625.479 93.464C625.138 93.464 624.796 93.4427 624.455 93.4H624.327C623.943 93.4 623.815 93.6133 623.943 94.04L634.823 127.896C634.994 128.195 635.122 128.344 635.207 128.344C635.378 128.344 635.506 128.195 635.591 127.896L646.599 94.04C646.599 93.9973 646.599 93.9547 646.599 93.912C646.642 93.8693 646.663 93.8267 646.663 93.784C646.663 93.528 646.514 93.4 646.215 93.4C645.404 93.4 644.615 93.464 643.847 93.592C642.994 93.6347 642.247 93.3787 641.607 92.824C641.01 92.2693 640.711 91.5653 640.711 90.712C640.711 89.8587 641.01 89.1547 641.607 88.6C642.247 88.0027 642.994 87.7467 643.847 87.832C645.084 87.96 646.151 88.0667 647.047 88.152C647.943 88.1947 648.818 88.216 649.671 88.216C650.524 88.216 651.399 88.1947 652.295 88.152C653.234 88.0667 654.3 87.96 655.495 87.832ZM696.095 123.224C696.991 123.224 697.737 123.544 698.335 124.184C698.932 124.781 699.188 125.507 699.103 126.36L698.719 131.736C698.676 132.931 698.228 133.933 697.375 134.744C696.521 135.555 695.519 135.96 694.367 135.96H671.711C670.943 135.96 670.132 136.024 669.279 136.152C668.468 136.28 667.679 136.387 666.911 136.472C666.015 136.6 665.225 136.365 664.543 135.768C663.86 135.171 663.519 134.403 663.519 133.464C663.519 132.525 663.86 131.779 664.543 131.224C665.225 130.627 666.015 130.392 666.911 130.52C667.039 130.563 667.188 130.584 667.359 130.584C667.529 130.584 667.721 130.605 667.935 130.648H668.062C668.404 130.648 668.575 130.477 668.575 130.136V94.168C668.575 93.784 668.404 93.592 668.062 93.592C667.892 93.592 667.7 93.6347 667.487 93.72C667.316 93.7627 667.124 93.8053 666.911 93.848C666.015 93.976 665.225 93.7627 664.543 93.208C663.86 92.6107 663.519 91.8427 663.519 90.904C663.519 89.9653 663.86 89.1973 664.543 88.6C665.225 88.0027 666.015 87.768 666.911 87.896C667.764 87.9813 668.639 88.088 669.535 88.216C670.431 88.344 671.284 88.408 672.095 88.408H694.367C695.519 88.408 696.521 88.8133 697.375 89.624C698.228 90.4347 698.676 91.4373 698.719 92.632L699.103 98.008C699.188 98.8187 698.932 99.544 698.335 100.184C697.737 100.824 696.991 101.144 696.095 101.144C695.241 101.144 694.516 100.867 693.919 100.312C693.364 99.7147 693.087 99.0107 693.087 98.2C693.087 97.688 693.108 97.1333 693.151 96.536C693.236 95.896 693.3 95.2773 693.343 94.68C693.343 94.296 693.151 94.104 692.767 94.104H674.911C674.527 94.104 674.335 94.296 674.335 94.68V107.864C674.335 108.248 674.527 108.44 674.911 108.44H690.591C691.359 108.44 692.02 108.717 692.575 109.272C693.129 109.827 693.407 110.488 693.407 111.256C693.407 112.024 693.129 112.685 692.575 113.24C692.02 113.752 691.359 114.008 690.591 114.008H674.911C674.527 114.008 674.335 114.2 674.335 114.584V129.688C674.335 130.072 674.527 130.264 674.911 130.264H692.767C693.151 130.264 693.343 130.072 693.343 129.688C693.3 129.048 693.236 128.451 693.151 127.896C693.108 127.299 693.087 126.723 693.087 126.168C693.087 125.357 693.364 124.675 693.919 124.12C694.516 123.523 695.241 123.224 696.095 123.224ZM731.851 100.504C731.723 102.125 732.064 103.448 732.875 104.472C733.728 105.453 734.88 106.285 736.331 106.968C737.824 107.651 739.467 108.269 741.259 108.824C743.051 109.379 744.843 109.997 746.635 110.68C748.427 111.32 750.069 112.152 751.562 113.176C753.099 114.157 754.315 115.437 755.211 117.016C756.149 118.552 756.619 120.515 756.619 122.904C756.619 125.507 755.915 127.832 754.507 129.88C753.141 131.928 751.243 133.549 748.811 134.744C746.379 135.939 743.627 136.536 740.555 136.536C736.715 136.536 733.515 135.853 730.955 134.488C728.395 133.08 726.411 131.544 725.003 129.88C723.936 128.643 723.403 127.32 723.403 125.912C723.403 124.717 723.787 123.693 724.555 122.84C725.323 121.987 726.432 121.56 727.883 121.56C729.077 121.56 730.059 122.008 730.827 122.904C731.637 123.8 732.043 124.803 732.043 125.912C732.043 126.467 731.915 127.043 731.659 127.64C731.531 127.981 731.573 128.237 731.787 128.408C732.896 129.261 734.133 129.901 735.499 130.328C736.907 130.755 738.315 130.968 739.723 130.968C741.6 130.968 743.392 130.648 745.099 130.008C746.805 129.325 748.192 128.387 749.259 127.192C750.325 125.955 750.859 124.525 750.859 122.904C750.859 121.453 750.411 120.259 749.515 119.32C748.619 118.339 747.424 117.528 745.931 116.888C744.48 116.205 742.88 115.587 741.131 115.032C739.381 114.477 737.611 113.859 735.819 113.176C734.069 112.493 732.448 111.661 730.955 110.68C729.504 109.656 728.331 108.397 727.435 106.904C726.539 105.411 726.091 103.555 726.091 101.336C726.091 98.904 726.517 96.8347 727.371 95.128C728.267 93.3787 729.461 91.992 730.955 90.968C732.448 89.9013 734.112 89.1333 735.947 88.664C737.781 88.152 739.659 87.896 741.579 87.896C744.011 87.896 746.336 88.2373 748.555 88.92C750.773 89.6027 752.565 90.5413 753.931 91.736C755.339 92.9307 756.043 94.296 756.043 95.832C756 97.0267 755.552 98.0507 754.699 98.904C753.888 99.7573 752.885 100.184 751.691 100.184C750.496 100.184 749.472 99.7573 748.619 98.904C747.808 98.0507 747.403 97.0267 747.403 95.832C747.403 95.4053 747.424 95.1067 747.467 94.936C747.552 94.5947 747.531 94.4027 747.403 94.36C746.848 94.0613 746.016 93.8053 744.907 93.592C743.84 93.3787 742.688 93.272 741.451 93.272C740.043 93.272 738.613 93.4853 737.163 93.912C735.755 94.296 734.56 95.0213 733.579 96.088C732.597 97.112 732.021 98.584 731.851 100.504ZM805.491 130.776C806.344 130.691 807.069 130.947 807.667 131.544C808.307 132.099 808.627 132.803 808.627 133.656C808.627 134.509 808.307 135.213 807.667 135.768C807.069 136.323 806.344 136.579 805.491 136.536C804.211 136.408 803.08 136.301 802.099 136.216C801.117 136.173 800.157 136.152 799.219 136.152C798.323 136.152 797.405 136.173 796.467 136.216C795.528 136.301 794.44 136.408 793.203 136.536C792.392 136.579 791.667 136.323 791.027 135.768C790.429 135.213 790.131 134.509 790.131 133.656C790.131 132.803 790.408 132.12 790.963 131.608C791.517 131.053 792.179 130.776 792.947 130.776C793.288 130.776 793.608 130.797 793.907 130.84C794.248 130.883 794.568 130.925 794.867 130.968H794.995C795.208 130.968 795.336 130.904 795.379 130.776C795.421 130.605 795.379 130.435 795.251 130.264L783.539 112.344C783.325 112.003 783.069 111.981 782.771 112.28L775.539 119C775.325 119.213 775.219 119.448 775.219 119.704V130.52C775.219 130.861 775.368 131.032 775.667 131.032C776.264 131.032 776.84 131.011 777.395 130.968C777.992 130.883 778.547 130.84 779.059 130.84C779.827 130.84 780.488 131.117 781.043 131.672C781.597 132.184 781.875 132.845 781.875 133.656C781.875 134.509 781.555 135.213 780.915 135.768C780.317 136.323 779.592 136.579 778.739 136.536C777.544 136.408 776.477 136.301 775.539 136.216C774.643 136.173 773.768 136.152 772.915 136.152C772.104 136.152 771.229 136.173 770.291 136.216C769.395 136.301 768.328 136.408 767.091 136.536C766.28 136.579 765.555 136.323 764.915 135.768C764.317 135.213 764.019 134.509 764.019 133.656C764.019 132.803 764.317 132.099 764.915 131.544C765.555 130.989 766.28 130.755 767.091 130.84L768.883 130.968H769.01C769.309 130.968 769.459 130.797 769.459 130.456V93.912C769.459 93.5707 769.309 93.4 769.01 93.4C768.584 93.4 768.2 93.4427 767.859 93.528C767.56 93.5707 767.24 93.592 766.899 93.592C766.088 93.592 765.405 93.3147 764.851 92.76C764.339 92.2053 764.083 91.5227 764.083 90.712C764.083 89.8587 764.381 89.1547 764.979 88.6C765.576 88.0027 766.301 87.7467 767.155 87.832C768.392 87.96 769.459 88.0667 770.355 88.152C771.293 88.1947 772.168 88.216 772.979 88.216C773.832 88.216 774.707 88.1947 775.603 88.152C776.541 88.0667 777.608 87.96 778.803 87.832C779.656 87.7467 780.381 88.0027 780.979 88.6C781.619 89.1547 781.939 89.8587 781.939 90.712C781.939 91.5653 781.619 92.2693 780.979 92.824C780.381 93.3787 779.656 93.6347 778.803 93.592C778.333 93.5067 777.843 93.464 777.331 93.464C776.819 93.4213 776.307 93.3787 775.795 93.336H775.667C775.368 93.336 775.219 93.5067 775.219 93.848V110.872C775.219 111.128 775.283 111.299 775.411 111.384C775.581 111.427 775.752 111.363 775.923 111.192L794.419 94.04C794.547 93.912 794.611 93.784 794.611 93.656C794.611 93.4853 794.483 93.4 794.227 93.4C793.885 93.4 793.501 93.4427 793.075 93.528C792.648 93.5707 792.264 93.592 791.923 93.592C791.112 93.592 790.429 93.3147 789.875 92.76C789.32 92.2053 789.043 91.5227 789.043 90.712C789.043 89.8587 789.341 89.1547 789.939 88.6C790.579 88.0027 791.325 87.7467 792.179 87.832C793.501 87.96 794.653 88.0667 795.635 88.152C796.616 88.1947 797.576 88.216 798.515 88.216C799.411 88.216 800.328 88.1947 801.267 88.152C802.205 88.0667 803.272 87.96 804.467 87.832C805.32 87.7467 806.045 88.0027 806.643 88.6C807.24 89.1547 807.539 89.8587 807.539 90.712C807.539 91.5227 807.261 92.2053 806.707 92.76C806.195 93.3147 805.533 93.592 804.723 93.592C804.552 93.592 804.381 93.592 804.211 93.592C804.04 93.5493 803.891 93.528 803.763 93.528H803.571C803.357 93.528 803.165 93.6133 802.995 93.784L787.763 107.736C787.464 107.949 787.443 108.227 787.699 108.568L802.099 130.712C802.227 130.925 802.397 131.032 802.611 131.032C803.123 131.032 803.613 131.011 804.083 130.968C804.595 130.883 805.064 130.819 805.491 130.776ZM828.13 130.776C828.983 130.691 829.709 130.947 830.306 131.544C830.946 132.099 831.266 132.803 831.266 133.656C831.266 134.509 830.946 135.213 830.306 135.768C829.709 136.323 828.983 136.579 828.13 136.536C826.935 136.408 825.826 136.301 824.802 136.216C823.778 136.173 822.775 136.152 821.794 136.152C820.087 136.152 818.103 136.28 815.842 136.536C814.989 136.579 814.242 136.323 813.602 135.768C813.005 135.213 812.706 134.509 812.706 133.656C812.706 132.803 813.005 132.099 813.602 131.544C814.242 130.947 814.989 130.691 815.842 130.776C816.269 130.819 816.717 130.861 817.186 130.904C817.655 130.947 818.125 130.989 818.594 131.032H818.722C819.021 131.032 819.17 130.861 819.17 130.52V93.848C819.17 93.5067 819.021 93.336 818.722 93.336C818.21 93.336 817.719 93.3573 817.25 93.4C816.781 93.4427 816.311 93.5067 815.842 93.592C814.989 93.6347 814.242 93.3787 813.602 92.824C813.005 92.2693 812.706 91.5653 812.706 90.712C812.706 89.8587 813.005 89.1547 813.602 88.6C814.242 88.0027 814.989 87.7467 815.842 87.832C817.079 87.96 818.189 88.0667 819.17 88.152C820.194 88.1947 821.197 88.216 822.178 88.216C823.842 88.216 825.826 88.088 828.13 87.832C828.983 87.7467 829.709 88.0027 830.306 88.6C830.946 89.1547 831.266 89.8587 831.266 90.712C831.266 91.5653 830.946 92.2693 830.306 92.824C829.709 93.3787 828.983 93.6347 828.13 93.592C827.703 93.5067 827.277 93.464 826.85 93.464C826.423 93.4213 825.975 93.3787 825.506 93.336H825.378C825.079 93.336 824.93 93.5067 824.93 93.848V130.52C824.93 130.861 825.101 131.032 825.442 131.032C825.869 131.032 826.317 131.011 826.786 130.968C827.255 130.883 827.703 130.819 828.13 130.776ZM868.926 122.264C869.779 122.264 870.505 122.584 871.102 123.224C871.742 123.821 872.041 124.547 871.998 125.4C871.955 126.339 871.891 127.363 871.806 128.472C871.721 129.539 871.635 130.627 871.55 131.736C871.507 132.931 871.059 133.933 870.206 134.744C869.353 135.555 868.35 135.96 867.198 135.96H847.742C846.633 136.003 845.523 136.088 844.414 136.216C843.305 136.387 842.259 136.472 841.278 136.472C840.425 136.472 839.699 136.173 839.102 135.576C838.505 134.979 838.206 134.253 838.206 133.4C838.206 132.547 838.505 131.821 839.102 131.224C839.742 130.584 840.467 130.264 841.278 130.264C841.534 130.264 841.769 130.285 841.982 130.328C842.238 130.371 842.579 130.392 843.006 130.392H843.134C843.475 130.392 843.646 130.221 843.646 129.88V93.912C843.646 93.5707 843.497 93.4 843.198 93.4C842.771 93.4 842.387 93.4427 842.046 93.528C841.747 93.5707 841.427 93.592 841.086 93.592C840.275 93.592 839.593 93.3147 839.038 92.76C838.483 92.2053 838.206 91.5227 838.206 90.712C838.206 89.8587 838.505 89.1547 839.102 88.6C839.742 88.0027 840.489 87.7467 841.342 87.832C842.579 87.96 843.646 88.0667 844.542 88.152C845.481 88.1947 846.355 88.216 847.166 88.216C848.019 88.216 848.894 88.1947 849.79 88.152C850.729 88.0667 851.795 87.96 852.99 87.832C853.843 87.7467 854.569 88.0027 855.166 88.6C855.763 89.1547 856.062 89.8587 856.062 90.712C856.062 91.5653 855.763 92.2693 855.166 92.824C854.569 93.3787 853.843 93.6347 852.99 93.592C852.521 93.5067 852.03 93.464 851.518 93.464C851.006 93.4213 850.494 93.3787 849.982 93.336H849.854C849.555 93.336 849.406 93.5067 849.406 93.848V129.688C849.406 130.072 849.598 130.264 849.982 130.264H865.726C866.153 130.264 866.323 130.072 866.238 129.688C866.195 128.877 866.131 128.088 866.046 127.32C865.961 126.552 865.918 125.848 865.918 125.208C865.918 124.397 866.195 123.715 866.75 123.16C867.347 122.563 868.073 122.264 868.926 122.264ZM909.614 122.264C910.467 122.264 911.192 122.584 911.79 123.224C912.43 123.821 912.728 124.547 912.686 125.4C912.643 126.339 912.579 127.363 912.494 128.472C912.408 129.539 912.323 130.627 912.238 131.736C912.195 132.931 911.747 133.933 910.894 134.744C910.04 135.555 909.038 135.96 907.886 135.96H888.43C887.32 136.003 886.211 136.088 885.102 136.216C883.992 136.387 882.947 136.472 881.966 136.472C881.112 136.472 880.387 136.173 879.79 135.576C879.192 134.979 878.894 134.253 878.894 133.4C878.894 132.547 879.192 131.821 879.79 131.224C880.43 130.584 881.155 130.264 881.966 130.264C882.222 130.264 882.456 130.285 882.67 130.328C882.926 130.371 883.267 130.392 883.694 130.392H883.822C884.163 130.392 884.334 130.221 884.334 129.88V93.912C884.334 93.5707 884.184 93.4 883.885 93.4C883.459 93.4 883.075 93.4427 882.734 93.528C882.435 93.5707 882.115 93.592 881.774 93.592C880.963 93.592 880.28 93.3147 879.726 92.76C879.171 92.2053 878.894 91.5227 878.894 90.712C878.894 89.8587 879.192 89.1547 879.79 88.6C880.43 88.0027 881.176 87.7467 882.03 87.832C883.267 87.96 884.334 88.0667 885.23 88.152C886.168 88.1947 887.043 88.216 887.854 88.216C888.707 88.216 889.582 88.1947 890.478 88.152C891.416 88.0667 892.483 87.96 893.678 87.832C894.531 87.7467 895.256 88.0027 895.854 88.6C896.451 89.1547 896.75 89.8587 896.75 90.712C896.75 91.5653 896.451 92.2693 895.854 92.824C895.256 93.3787 894.531 93.6347 893.678 93.592C893.208 93.5067 892.718 93.464 892.206 93.464C891.694 93.4213 891.182 93.3787 890.67 93.336H890.542C890.243 93.336 890.094 93.5067 890.094 93.848V129.688C890.094 130.072 890.286 130.264 890.67 130.264H906.414C906.84 130.264 907.011 130.072 906.926 129.688C906.883 128.877 906.819 128.088 906.734 127.32C906.648 126.552 906.606 125.848 906.606 125.208C906.606 124.397 906.883 123.715 907.438 123.16C908.035 122.563 908.76 122.264 909.614 122.264ZM928.413 100.504C928.285 102.125 928.626 103.448 929.437 104.472C930.29 105.453 931.442 106.285 932.893 106.968C934.386 107.651 936.029 108.269 937.821 108.824C939.613 109.379 941.405 109.997 943.197 110.68C944.989 111.32 946.632 112.152 948.125 113.176C949.661 114.157 950.877 115.437 951.773 117.016C952.712 118.552 953.181 120.515 953.181 122.904C953.181 125.507 952.477 127.832 951.069 129.88C949.704 131.928 947.805 133.549 945.373 134.744C942.941 135.939 940.189 136.536 937.117 136.536C933.277 136.536 930.077 135.853 927.517 134.488C924.957 133.08 922.973 131.544 921.565 129.88C920.498 128.643 919.965 127.32 919.965 125.912C919.965 124.717 920.349 123.693 921.117 122.84C921.885 121.987 922.994 121.56 924.445 121.56C925.64 121.56 926.621 122.008 927.389 122.904C928.2 123.8 928.605 124.803 928.605 125.912C928.605 126.467 928.477 127.043 928.221 127.64C928.093 127.981 928.136 128.237 928.349 128.408C929.458 129.261 930.696 129.901 932.061 130.328C933.469 130.755 934.877 130.968 936.285 130.968C938.162 130.968 939.954 130.648 941.661 130.008C943.368 129.325 944.754 128.387 945.821 127.192C946.888 125.955 947.421 124.525 947.421 122.904C947.421 121.453 946.973 120.259 946.077 119.32C945.181 118.339 943.986 117.528 942.493 116.888C941.042 116.205 939.442 115.587 937.693 115.032C935.944 114.477 934.173 113.859 932.381 113.176C930.632 112.493 929.01 111.661 927.517 110.68C926.066 109.656 924.893 108.397 923.997 106.904C923.101 105.411 922.653 103.555 922.653 101.336C922.653 98.904 923.08 96.8347 923.933 95.128C924.829 93.3787 926.024 91.992 927.517 90.968C929.01 89.9013 930.674 89.1333 932.509 88.664C934.344 88.152 936.221 87.896 938.141 87.896C940.573 87.896 942.898 88.2373 945.117 88.92C947.336 89.6027 949.128 90.5413 950.493 91.736C951.901 92.9307 952.605 94.296 952.605 95.832C952.562 97.0267 952.114 98.0507 951.261 98.904C950.45 99.7573 949.448 100.184 948.253 100.184C947.058 100.184 946.034 99.7573 945.181 98.904C944.37 98.0507 943.965 97.0267 943.965 95.832C943.965 95.4053 943.986 95.1067 944.029 94.936C944.114 94.5947 944.093 94.4027 943.965 94.36C943.41 94.0613 942.578 93.8053 941.469 93.592C940.402 93.3787 939.25 93.272 938.013 93.272C936.605 93.272 935.176 93.4853 933.725 93.912C932.317 94.296 931.122 95.0213 930.141 96.088C929.16 97.112 928.584 98.584 928.413 100.504Z" fill="#38585A"/>
</svg>
