<svg width="935" height="1007" viewBox="0 0 935 1007" fill="none" xmlns="http://www.w3.org/2000/svg">
<path d="M463.127 781.237V882.901" stroke="#FEDB9B" stroke-width="7" stroke-linecap="round"/>
<path d="M499.201 789.982L544.021 993.31" stroke="#FEDB9B" stroke-width="7" stroke-linecap="round"/>
<path d="M550.58 773.585L580.095 882.901" stroke="#FEDB9B" stroke-width="7" stroke-linecap="round"/>
<path d="M598.68 753.908L675.201 958.329" stroke="#FEDB9B" stroke-width="7" stroke-linecap="round"/>
<path d="M645.686 725.486L697.064 789.982" stroke="#FEDB9B" stroke-width="7" stroke-linecap="round"/>
<path d="M667.549 701.436L793.262 824.963" stroke="#FEDB9B" stroke-width="7" stroke-linecap="round"/>
<path d="M700.343 660.989L757.187 710.181" stroke="#FEDB9B" stroke-width="7" stroke-linecap="round"/>
<path d="M725.486 621.636L869.783 713.461" stroke="#FEDB9B" stroke-width="7" stroke-linecap="round"/>
<path d="M744.069 580.095L819.497 613.983" stroke="#FEDB9B" stroke-width="7" stroke-linecap="round"/>
<path d="M741.883 548.394L928.813 557.139" stroke="#FEDB9B" stroke-width="7" stroke-linecap="round"/>
<path d="M749.535 483.897L820.591 475.152" stroke="#FEDB9B" stroke-width="7" stroke-linecap="round"/>
<path d="M740.79 435.798L931 407.376" stroke="#FEDB9B" stroke-width="7" stroke-linecap="round"/>
<path d="M729.858 387.699L809.659 365.836" stroke="#FEDB9B" stroke-width="7" stroke-linecap="round"/>
<path d="M712.368 351.625L877.435 236.843" stroke="#FEDB9B" stroke-width="7" stroke-linecap="round"/>
<path d="M675.2 310.085L738.603 259.8" stroke="#FEDB9B" stroke-width="7" stroke-linecap="round"/>
<path d="M645.686 271.824L788.89 108.943" stroke="#FEDB9B" stroke-width="7" stroke-linecap="round"/>
<path d="M606.331 222.632L642.405 157.042" stroke="#FEDB9B" stroke-width="7" stroke-linecap="round"/>
<path d="M603.052 4L556.046 198.583" stroke="#FEDB9B" stroke-width="7" stroke-linecap="round"/>
<path d="M506.853 137.365L495.922 206.235" stroke="#FEDB9B" stroke-width="7" stroke-linecap="round"/>
<path d="M453.289 30.2358L447.823 197.489" stroke="#FEDB9B" stroke-width="7" stroke-linecap="round"/>
<path d="M382.233 143.925L393.165 212.794" stroke="#FEDB9B" stroke-width="7" stroke-linecap="round"/>
<path d="M256.521 35.7017L350.532 232.471" stroke="#FEDB9B" stroke-width="7" stroke-linecap="round"/>
<path d="M259.8 205.142L294.781 272.918" stroke="#FEDB9B" stroke-width="7" stroke-linecap="round"/>
<path d="M146.111 138.459L264.173 298.06" stroke="#FEDB9B" stroke-width="7" stroke-linecap="round"/>
<path d="M171.254 289.315L236.844 336.321" stroke="#FEDB9B" stroke-width="7" stroke-linecap="round"/>
<path d="M21.4902 317.737L201.862 397.538" stroke="#FEDB9B" stroke-width="7" stroke-linecap="round"/>
<path d="M103.478 416.122L197.489 442.357" stroke="#FEDB9B" stroke-width="7" stroke-linecap="round"/>
<path d="M4 492.643L190.93 487.177" stroke="#FEDB9B" stroke-width="7" stroke-linecap="round"/>
<path d="M96.9189 549.487L189.838 539.648" stroke="#FEDB9B" stroke-width="7" stroke-linecap="round"/>
<path d="M21.4902 668.641L205.141 600.865" stroke="#FEDB9B" stroke-width="7" stroke-linecap="round"/>
<path d="M147.204 670.828L216.073 638.033" stroke="#FEDB9B" stroke-width="7" stroke-linecap="round"/>
<path d="M254.333 680.666L95.8252 806.38" stroke="#FEDB9B" stroke-width="7" stroke-linecap="round"/>
<path d="M288.222 722.206L223.726 767.026" stroke="#FEDB9B" stroke-width="7" stroke-linecap="round"/>
<path d="M324.296 759.374L205.142 901.485" stroke="#FEDB9B" stroke-width="7" stroke-linecap="round"/>
<path d="M361.463 784.517L343.973 892.739" stroke="#FEDB9B" stroke-width="7" stroke-linecap="round"/>
<path d="M405.19 787.796L386.606 1003.15" stroke="#FEDB9B" stroke-width="7" stroke-linecap="round"/>
<circle cx="467.5" cy="495.922" r="235.623" fill="#FEDB9B" stroke="#FEDB9B"/>
</svg>
