<svg width="302" height="150" viewBox="0 0 302 150" fill="none" xmlns="http://www.w3.org/2000/svg">
<path d="M151 0C234.395 0 302 67.1573 302 150H0C0 67.1573 67.605 0 151 0Z" fill="#FF9894"/>
<path d="M52.7621 105.666C53.2525 105.437 53.7452 105.43 54.2401 105.644C54.5701 105.786 54.8129 105.989 54.9685 106.252C56.0106 107.975 56.6011 109.809 56.7399 111.753C56.8787 113.698 56.5649 115.557 55.7985 117.33C55.1302 118.877 54.2029 120.202 53.0167 121.305C51.8098 122.399 50.4474 123.229 48.9294 123.797C47.3908 124.356 45.7807 124.627 44.0992 124.61C42.4267 124.573 40.7758 124.202 39.1465 123.498C37.5172 122.794 36.1158 121.846 34.9423 120.654C33.7687 119.462 32.8685 118.118 32.2417 116.623C31.6148 115.129 31.2964 113.572 31.2864 111.952C31.2558 110.324 31.5792 108.726 32.2564 107.158C33.5218 104.23 35.5457 102.18 38.3281 101.008C39.8199 100.331 41.0504 100.202 42.0198 100.621C42.6178 100.879 43.034 101.303 43.2683 101.894C43.5025 102.485 43.4949 103.069 43.2454 103.646C42.978 104.265 42.5432 104.677 41.9408 104.882C41.3383 105.086 40.769 105.073 40.2328 104.841C39.8616 104.681 39.5614 104.441 39.3322 104.122C39.2118 103.947 39.0733 103.9 38.9167 103.979C37.2037 104.658 35.8704 106.101 34.9169 108.308C34.2218 109.917 34.0002 111.534 34.252 113.16C34.4833 114.777 35.1294 116.256 36.1903 117.595C37.2307 118.926 38.6171 119.966 40.3495 120.714C42.0613 121.454 43.7581 121.746 45.4401 121.592C47.1015 121.429 48.6003 120.877 49.9365 119.937C51.2726 118.997 52.2883 117.723 52.9834 116.114C53.5982 114.691 53.8489 113.233 53.7353 111.74C53.6217 110.247 53.1523 108.869 52.3271 107.607C52.0216 107.182 51.9668 106.742 52.1629 106.288C52.2876 105.999 52.4874 105.792 52.7621 105.666Z" fill="#AD5015"/>
<path d="M60.6332 62.9796C61.8931 61.8608 63.3013 61.0611 64.8576 60.5806C66.3989 60.0832 67.9849 59.9068 69.6155 60.0513C71.2312 60.179 72.7889 60.6136 74.2886 61.3551C75.805 62.0816 77.1451 63.1001 78.3086 64.4104C79.4871 65.7376 80.3474 67.1971 80.8895 68.7888C81.4484 70.3657 81.7032 71.9722 81.6538 73.6085C81.5895 75.2279 81.2268 76.7819 80.5655 78.2705C79.8894 79.7422 78.9213 81.0374 77.6613 82.1563C76.4014 83.2751 75.0007 84.0831 73.4593 84.5805C71.9031 85.0611 70.3171 85.2375 68.7014 85.1098C67.0708 84.9653 65.4973 84.5297 63.9808 83.8032C62.4811 83.0617 61.142 82.0274 59.9635 80.7002C58.8 79.3898 57.9388 77.9462 57.3798 76.3694C56.8377 74.7776 56.5988 73.172 56.6631 71.5526C56.7124 69.9163 57.0752 68.3623 57.7514 66.8906C58.4126 65.4021 59.3732 64.0984 60.6332 62.9796ZM75.6251 79.8631C76.9523 78.6846 77.8523 77.3296 78.3251 75.7981C78.783 74.2498 78.8212 72.6686 78.4395 71.0545C78.0597 69.4087 77.2433 67.8802 75.9903 66.469C74.7372 65.0579 73.3235 64.0748 71.7491 63.5199C70.1915 62.95 68.6159 62.8167 67.0224 63.12C65.4308 63.3916 63.9798 64.1092 62.6694 65.2727C61.3422 66.4512 60.4413 67.8221 59.9666 69.3853C59.4938 70.9169 59.4472 72.5055 59.827 74.1513C60.2086 75.7654 61.0185 77.2696 62.2567 78.664C63.4948 80.0583 64.9001 81.0489 66.4727 81.6355C68.062 82.2073 69.6609 82.3499 71.2693 82.0634C72.8628 81.7601 74.3148 81.0267 75.6251 79.8631Z" fill="#AD5015"/>
<path d="M116.677 30.8647C117.094 30.6931 117.499 30.713 117.89 30.9243C118.275 31.1142 118.532 31.4244 118.661 31.8549C118.783 32.2639 118.746 32.6502 118.549 33.0136C118.353 33.377 118.061 33.6166 117.674 33.7323C117.523 33.7773 117.358 33.8148 117.18 33.8447C117.023 33.8682 116.844 33.8981 116.644 33.9344L116.579 33.9537C116.429 33.9987 116.379 34.1073 116.43 34.2795L122.284 53.88C122.425 54.3536 122.383 54.8001 122.157 55.2194C121.936 55.6603 121.579 55.9547 121.084 56.1025C120.352 56.3211 119.677 56.1826 119.06 55.6868L102.622 41.7446C102.525 41.6563 102.445 41.6218 102.38 41.641C102.272 41.6732 102.244 41.7754 102.296 41.9476L106.867 57.2534C106.918 57.4256 107.019 57.4892 107.17 57.4442C107.471 57.3542 107.748 57.2599 108 57.1612C108.267 57.0346 108.516 56.9251 108.746 56.8329C109.164 56.6612 109.568 56.6811 109.96 56.8925C110.366 57.0759 110.634 57.3829 110.762 57.8134C110.891 58.244 110.835 58.6474 110.596 59.0237C110.378 59.3935 110.051 59.632 109.614 59.739C108.992 59.8545 108.438 59.9614 107.951 60.0598C107.493 60.1732 107.048 60.2943 106.618 60.4229C106.208 60.545 105.77 60.6876 105.303 60.8505C104.864 61.0286 104.342 61.2431 103.737 61.4942C103.334 61.6378 102.93 61.618 102.523 61.4346C102.138 61.2447 101.882 60.9345 101.753 60.504C101.624 60.0734 101.661 59.6872 101.864 59.3453C102.06 58.9819 102.352 58.7423 102.74 58.6266C102.891 58.5816 103.044 58.5473 103.202 58.5239C103.38 58.4939 103.57 58.4608 103.77 58.4245L103.834 58.4052C103.985 58.3602 104.035 58.2516 103.983 58.0794L98.525 39.8028C98.4607 39.5876 98.3273 39.5336 98.1249 39.6409L97.5177 39.963C97.0634 40.169 96.619 40.1727 96.1845 39.9742C95.7437 39.7542 95.4525 39.4074 95.3111 38.9338C95.1696 38.4602 95.2261 38.0212 95.4806 37.617C95.7565 37.2063 96.1302 36.9658 96.6015 36.8953C96.9437 36.8635 97.2612 36.8273 97.5539 36.7868C97.8617 36.7183 98.1404 36.6702 98.3901 36.6426C99.8086 36.2893 101.023 36.5479 102.033 37.4185L117.917 51.0341C118.014 51.1224 118.094 51.1569 118.159 51.1377C118.267 51.1055 118.295 51.0033 118.243 50.8311L113.547 35.1055C113.495 34.9333 113.394 34.8697 113.244 34.9147C112.964 34.9983 112.687 35.0926 112.414 35.1977C112.14 35.3028 111.892 35.4123 111.668 35.526C111.244 35.6762 110.828 35.6595 110.422 35.4761C110.037 35.2862 109.78 34.976 109.652 34.5455C109.523 34.115 109.568 33.7148 109.785 33.3449C110.018 32.9471 110.356 32.7054 110.8 32.6199C111.443 32.498 111.998 32.3911 112.463 32.2992C112.921 32.1857 113.366 32.0646 113.796 31.9361C114.227 31.8075 114.665 31.6649 115.11 31.5084C115.571 31.3239 116.093 31.1093 116.677 30.8647Z" fill="#AD5015"/>
<path d="M166.367 46.3004C166.721 46.7098 166.863 47.1818 166.792 47.7163C166.745 48.0727 166.616 48.3616 166.405 48.583C165.032 50.0557 163.429 51.124 161.596 51.788C159.763 52.452 157.889 52.6573 155.974 52.4039C154.303 52.1829 152.776 51.6522 151.391 50.8118C150.01 49.9492 148.839 48.8651 147.878 47.5596C146.921 46.2318 146.221 44.7568 145.778 43.1345C145.358 41.5152 145.264 39.8258 145.497 38.0662C145.73 36.3067 146.26 34.6998 147.087 33.2455C147.914 31.7912 148.96 30.5586 150.227 29.5478C151.494 28.5369 152.905 27.8058 154.461 27.3544C156.019 26.8807 157.645 26.7558 159.337 26.9797C162.5 27.3982 165.025 28.786 166.911 31.1432C167.969 32.3936 168.429 33.5423 168.291 34.5891C168.205 35.235 167.91 35.7512 167.406 36.1377C166.902 36.5243 166.338 36.6763 165.714 36.5937C165.046 36.5053 164.531 36.1993 164.17 35.6756C163.809 35.1519 163.666 34.6005 163.743 34.0214C163.796 33.6205 163.945 33.2662 164.189 32.9587C164.324 32.7952 164.332 32.649 164.213 32.5199C163.092 31.0572 161.34 30.1682 158.957 29.8529C157.22 29.6231 155.603 29.8511 154.108 30.537C152.615 31.2007 151.369 32.2256 150.369 33.6118C149.373 34.9757 148.751 36.5931 148.504 38.464C148.259 40.3126 148.441 42.025 149.048 43.6011C149.658 45.1549 150.598 46.4463 151.867 47.4753C153.136 48.5044 154.639 49.1339 156.376 49.3637C157.913 49.567 159.384 49.4104 160.789 48.8938C162.195 48.3772 163.392 47.5498 164.381 46.4115C164.707 46.0014 165.115 45.8288 165.605 45.8936C165.917 45.9349 166.171 46.0705 166.367 46.3004Z" fill="#AD5015"/>
<path d="M203.433 60.3125C203.838 60.5536 204.09 60.8992 204.188 61.3496C204.298 61.7807 204.219 62.1779 203.951 62.5412L202.331 64.8715C201.99 65.4009 201.518 65.7342 200.913 65.8717C200.309 66.0091 199.746 65.9229 199.225 65.613L188.969 59.5189C188.621 59.3123 188.237 59.1232 187.816 58.9517C187.415 58.7915 187.029 58.6275 186.658 58.4596C186.218 58.2765 185.924 57.9579 185.776 57.5039C185.627 57.0499 185.679 56.6104 185.932 56.1855C186.184 55.7606 186.54 55.5144 186.998 55.447C187.468 55.3602 187.888 55.4663 188.259 55.7652C188.306 55.819 188.367 55.8688 188.445 55.9147C188.522 55.9606 188.603 56.0219 188.688 56.0986L188.746 56.133C188.901 56.2249 189.024 56.1935 189.116 56.039L198.791 39.7571C198.894 39.5833 198.868 39.4505 198.714 39.3587C198.636 39.3128 198.538 39.2804 198.419 39.2617C198.33 39.2351 198.231 39.2028 198.123 39.1647C197.683 38.9816 197.383 38.6727 197.224 38.238C197.075 37.784 197.127 37.3445 197.38 36.9196C197.632 36.4947 197.993 36.2389 198.463 36.1521C198.933 36.0653 199.353 36.1714 199.724 36.4704C200.088 36.7385 200.455 37.0221 200.826 37.321C201.197 37.62 201.566 37.8785 201.933 38.0965L212.015 44.0874C212.537 44.3972 212.882 44.8504 213.05 45.4469C213.218 46.0434 213.151 46.6178 212.849 47.1701L211.577 49.707C211.398 50.0969 211.087 50.3564 210.644 50.4854C210.201 50.6145 209.777 50.5585 209.372 50.3175C208.985 50.0879 208.732 49.7673 208.611 49.3555C208.52 48.9359 208.584 48.5426 208.802 48.1757C208.94 47.9439 209.099 47.6986 209.279 47.4396C209.489 47.1729 209.685 46.91 209.865 46.6511C209.968 46.4773 209.933 46.3387 209.759 46.2354L201.676 41.4325C201.502 41.3292 201.364 41.3644 201.26 41.5383L197.714 47.5063C197.611 47.6802 197.646 47.8187 197.82 47.922L204.918 52.1397C205.265 52.3463 205.49 52.6497 205.592 53.05C205.694 53.4503 205.642 53.8242 205.435 54.1719C205.228 54.5195 204.925 54.7443 204.525 54.8462C204.136 54.9288 203.768 54.8668 203.42 54.6602L196.322 50.4425C196.148 50.3392 196.01 50.3745 195.906 50.5483L191.844 57.3855C191.74 57.5594 191.776 57.6979 191.949 57.8012L200.032 62.6042C200.206 62.7075 200.345 62.6722 200.448 62.4984C200.601 62.1972 200.733 61.9096 200.843 61.6356C200.985 61.3537 201.13 61.0872 201.279 60.8361C201.497 60.4691 201.806 60.2347 202.207 60.1328C202.638 60.0231 203.046 60.083 203.433 60.3125Z" fill="#AD5015"/>
<path d="M244.551 71.4305C246.255 73.6913 247.062 75.8822 246.973 78.0032C246.901 80.1108 245.914 81.8812 244.012 83.3144C242.111 84.7477 240.128 85.215 238.064 84.7165C236.032 84.2224 234.13 82.8001 232.359 80.4497L229.601 76.7894C229.479 76.6279 229.337 76.608 229.176 76.7297L223.82 80.7658C223.677 80.874 223.652 80.9908 223.747 81.1164C223.923 81.3497 224.101 81.5672 224.281 81.769C224.479 81.9573 224.668 82.1523 224.848 82.3541C225.155 82.6859 225.277 83.072 225.215 83.5125C225.171 83.9395 224.97 84.2882 224.611 84.5586C224.27 84.8155 223.881 84.8973 223.445 84.8039C223.005 84.742 222.674 84.5271 222.453 84.1592C222.097 83.6118 221.788 83.1272 221.526 82.7054C221.247 82.2972 220.972 81.9136 220.701 81.5548C220.431 81.1959 220.145 80.8349 219.843 80.4716C219.537 80.1398 219.176 79.7362 218.762 79.2609C218.469 78.947 218.338 78.5676 218.368 78.1227C218.399 77.6778 218.593 77.3201 218.952 77.0497C219.311 76.7793 219.686 76.6796 220.077 76.7506C220.486 76.8081 220.819 77.0073 221.076 77.3482C221.171 77.4738 221.256 77.6061 221.333 77.7452C221.423 77.9023 221.52 78.0683 221.624 78.2433L221.664 78.2972C221.759 78.4227 221.878 78.4315 222.022 78.3233L237.282 66.8235C237.425 66.7154 237.45 66.5985 237.355 66.4729C237.247 66.3293 237.121 66.1993 236.977 66.0828C236.864 65.9708 236.754 65.843 236.646 65.6994C236.389 65.3585 236.282 64.9746 236.326 64.5476C236.388 64.1071 236.59 63.7584 236.93 63.5015C237.325 63.204 237.741 63.102 238.177 63.1954C238.644 63.2931 239.002 63.5439 239.25 63.9478C239.467 64.3472 239.69 64.7556 239.92 65.1729C240.182 65.5947 240.448 65.985 240.718 66.3439L244.551 71.4305ZM232.029 74.5799C231.867 74.7016 231.847 74.8431 231.969 75.0046L234.91 78.9071C237.357 82.1547 239.81 82.8522 242.268 80.9998C244.798 79.0934 244.772 76.4828 242.19 73.1681L239.37 69.4271C239.249 69.2657 239.107 69.2458 238.946 69.3675L232.029 74.5799Z" fill="#AD5015"/>
<path d="M264.34 124.147C263.937 124.295 263.534 124.257 263.13 124.034C262.727 123.812 262.467 123.471 262.352 123.014C262.237 122.556 262.305 122.134 262.555 121.747C262.811 121.381 263.148 121.157 263.568 121.075L265.994 120.639C266.191 120.589 266.267 120.477 266.223 120.303L265.023 115.531C264.974 115.335 264.851 115.262 264.655 115.311L246.32 119.922C246.146 119.966 246.078 120.064 246.116 120.216C246.182 120.478 246.256 120.725 246.338 120.96C246.447 121.21 246.54 121.442 246.617 121.654C246.77 122.079 246.732 122.482 246.504 122.864C246.297 123.24 245.976 123.483 245.54 123.593C245.126 123.697 244.739 123.632 244.379 123.398C244.019 123.164 243.796 122.827 243.708 122.385C243.614 121.737 243.532 121.225 243.461 120.849C243.395 120.495 243.342 120.195 243.304 119.95C243.244 119.711 243.178 119.449 243.107 119.166C243.03 118.861 242.962 118.589 242.901 118.349C242.819 118.115 242.723 117.826 242.614 117.483C242.51 117.162 242.346 116.693 242.122 116.078C241.996 115.669 242.033 115.266 242.234 114.868C242.441 114.492 242.751 114.251 243.165 114.147C243.601 114.038 243.999 114.1 244.359 114.334C244.746 114.584 244.97 114.921 245.03 115.346C245.063 115.57 245.099 115.804 245.138 116.049C245.176 116.294 245.215 116.539 245.253 116.785L245.27 116.85C245.308 117.002 245.414 117.057 245.589 117.013L263.923 112.403C264.12 112.353 264.193 112.231 264.144 112.034L262.936 107.23C262.892 107.056 262.772 106.993 262.576 107.043L260.231 107.806C259.828 107.954 259.425 107.916 259.021 107.693C258.618 107.47 258.358 107.13 258.243 106.673C258.128 106.215 258.196 105.793 258.446 105.405C258.701 105.04 259.039 104.816 259.458 104.734C259.971 104.651 260.526 104.558 261.125 104.454C261.725 104.349 262.321 104.234 262.915 104.108C263.536 103.998 264.106 104.098 264.624 104.408C265.147 104.74 265.483 105.2 265.631 105.788L269.288 120.332C269.43 120.898 269.349 121.451 269.045 121.991C268.741 122.531 268.286 122.889 267.681 123.064C267.104 123.255 266.527 123.447 265.95 123.638C265.372 123.83 264.836 123.999 264.34 124.147Z" fill="#AD5015"/>
</svg>
