<svg width="296" height="148" viewBox="0 0 296 148" fill="none" xmlns="http://www.w3.org/2000/svg">
<path d="M147.654 147.654C229.201 147.654 295.308 81.5471 295.308 0H0C0 81.5471 66.107 147.654 147.654 147.654Z" fill="#FEF0E7"/>
<path d="M23.4298 34.6255C23.1936 35.0818 22.8274 35.373 22.3311 35.4991C22.0003 35.5832 21.7002 35.5715 21.4307 35.4639C19.6481 34.7724 18.1409 33.7358 16.9091 32.354C15.6774 30.9722 14.8355 29.3923 14.3835 27.6141C13.9893 26.0635 13.9186 24.5296 14.1713 23.0126C14.4446 21.4903 14.9875 20.0756 15.7998 18.7685C16.6329 17.4562 17.6865 16.3189 18.9607 15.3566C20.2401 14.415 21.6966 13.7366 23.3299 13.3214C24.9633 12.9062 26.5669 12.8067 28.1407 13.023C29.7145 13.2392 31.1704 13.7276 32.5083 14.4881C33.8462 15.2486 34.9884 16.2349 35.9349 17.4471C36.9021 18.654 37.5854 20.0431 37.9849 21.6145C38.7312 24.5504 38.3979 27.2656 36.9849 29.7599C36.2556 31.134 35.405 31.9445 34.4333 32.1915C33.8337 32.3439 33.2746 32.266 32.7559 31.9576C32.2373 31.6492 31.9044 31.2055 31.7572 30.6266C31.5996 30.0063 31.6879 29.4446 32.0222 28.9414C32.3565 28.4381 32.7925 28.1182 33.3301 27.9816C33.7022 27.8869 34.067 27.8933 34.4245 28.0005C34.6161 28.0618 34.7479 28.0173 34.8198 27.867C35.7141 26.363 35.8801 24.5048 35.3177 22.2925C34.9077 20.6798 34.1366 19.335 33.0044 18.2581C31.8929 17.1759 30.5498 16.4387 28.9754 16.0465C27.4215 15.6491 25.7763 15.6711 24.0395 16.1126C22.3234 16.5489 20.8777 17.3126 19.7023 18.4038C18.5476 19.4898 17.7403 20.7736 17.2805 22.2552C16.8207 23.7368 16.7958 25.284 17.2057 26.8967C17.5684 28.3233 18.2253 29.5651 19.1763 30.622C20.1274 31.679 21.279 32.4428 22.6314 32.9135C23.1079 33.0564 23.4041 33.3554 23.5197 33.8102C23.5933 34.0997 23.5633 34.3715 23.4298 34.6255Z" fill="#AD5013"/>
<path d="M46.9268 46.372C47.6847 47.7812 48.1152 49.2573 48.2185 50.8005C48.3405 52.3336 48.1563 53.8376 47.6657 55.3126C47.1939 56.7775 46.4513 58.1215 45.4378 59.3448C44.4345 60.5869 43.2 61.602 41.7345 62.3902C40.2502 63.1885 38.7134 63.6638 37.1239 63.8161C35.5446 63.9873 34.0044 63.8709 32.5034 63.467C31.0211 63.053 29.6647 62.3776 28.4342 61.4407C27.2224 60.4937 26.2376 59.3156 25.4798 57.9065C24.7219 56.4973 24.282 55.0262 24.1599 53.4931C24.0567 51.95 24.2409 50.4459 24.7127 48.9811C25.2033 47.5061 25.9502 46.1476 26.9536 44.9055C27.9671 43.6822 29.216 42.6714 30.7003 41.8732C32.1658 41.085 33.6882 40.6053 35.2675 40.4342C36.857 40.2819 38.3928 40.4127 39.875 40.8267C41.3761 41.2305 42.7325 41.906 43.9442 42.853C45.1748 43.7899 46.169 44.9629 46.9268 46.372ZM28.0444 56.5272C28.8427 58.0115 29.8976 59.1397 31.2091 59.912C32.5395 60.6741 33.9921 61.0555 35.567 61.0563C37.1708 61.0658 38.7618 60.6462 40.3401 59.7974C41.9183 58.9486 43.1362 57.8576 43.9937 56.5244C44.8612 55.21 45.3294 53.7835 45.3981 52.2447C45.4957 50.7146 45.1504 49.2168 44.3622 47.7513C43.5639 46.267 42.4946 45.1344 41.1541 44.3535C39.8426 43.5813 38.3849 43.1904 36.7811 43.181C35.2062 43.1802 33.639 43.5991 32.0796 44.4378C30.5201 45.2765 29.2972 46.3581 28.4108 47.6826C27.5345 49.0259 27.0527 50.4719 26.9652 52.0208C26.8965 53.5595 27.2562 55.0617 28.0444 56.5272Z" fill="#AD5013"/>
<path d="M67.4543 74.8661C67.7714 75.1546 67.919 75.5098 67.8968 75.9316C67.9048 76.355 67.7502 76.7094 67.4331 76.9949C67.1319 77.2661 66.7854 77.3914 66.3938 77.3708C66.0021 77.3503 65.6707 77.1894 65.3995 76.8881C65.2853 76.7613 65.1647 76.6114 65.0379 76.4386C64.9253 76.2816 64.8055 76.1168 64.6786 75.9439L64.6358 75.8964C64.5359 75.7854 64.4225 75.787 64.2957 75.9012L55.2107 84.0798C53.8313 85.3215 52.413 86.1534 50.9558 86.5754C49.4986 86.9974 48.0786 86.9984 46.6959 86.5783C45.3432 86.1599 44.1031 85.3244 42.9755 84.0718C41.8479 82.8193 41.1397 81.4906 40.851 80.0857C40.5923 78.6824 40.7491 77.2782 41.3214 75.8732C41.8936 74.4682 42.8694 73.1448 44.2488 71.903L53.3338 63.7244C53.4606 63.6103 53.4741 63.4977 53.3742 63.3867C53.2315 63.2281 53.0729 63.0839 52.8984 62.9539C52.7541 62.8254 52.6106 62.6819 52.4679 62.5234C52.1967 62.2221 52.0714 61.8757 52.0919 61.484C52.1125 61.0924 52.2734 60.7609 52.5746 60.4897C52.8917 60.2043 53.2533 60.0797 53.6592 60.1162C54.0953 60.1542 54.4402 60.346 54.6939 60.6916C55.0603 61.1942 55.3775 61.6263 55.6455 61.9878C55.9294 62.335 56.2141 62.6672 56.4995 62.9843C56.785 63.3014 57.0855 63.6193 57.4011 63.938C57.7469 64.2583 58.1433 64.619 58.5906 65.0201C58.9077 65.3086 59.0552 65.6638 59.0331 66.0856C59.0268 66.4931 58.8651 66.8396 58.548 67.1251C58.2309 67.4106 57.8694 67.5351 57.4634 67.4987C57.0575 67.4622 56.7197 67.2783 56.4501 66.947C56.3391 66.7599 56.2051 66.5791 56.0481 66.4047C55.9069 66.216 55.7658 66.0274 55.6246 65.8387L55.5818 65.7911C55.4819 65.6801 55.3685 65.6817 55.2417 65.7959L46.1091 74.0173C45.8713 74.2314 45.5764 74.5256 45.2244 74.8999C44.8867 75.29 44.553 75.7483 44.2232 76.2748C43.9236 76.8029 43.7041 77.388 43.5646 78.0303C43.4553 78.6741 43.495 79.3559 43.6838 80.0758C43.8884 80.7814 44.3262 81.5068 44.997 82.252C45.6822 83.013 46.3649 83.5323 47.0452 83.8097C47.7413 84.0728 48.416 84.1686 49.0693 84.0972C49.7226 84.0258 50.3204 83.8608 50.8627 83.6022C51.4351 83.3453 51.9258 83.0614 52.3349 82.7505C52.7582 82.4555 53.0809 82.2081 53.3029 82.0083L62.4354 73.7869C62.5622 73.6727 62.5757 73.5601 62.4758 73.4491C62.3045 73.2589 62.1324 73.0837 61.9596 72.9235C61.7867 72.7634 61.6059 72.6104 61.4172 72.4645C61.1302 72.1776 60.9827 71.8224 60.9747 71.399C60.981 70.9915 61.1427 70.645 61.4598 70.3595C61.7769 70.0741 62.1384 69.9495 62.5443 69.986C62.9804 70.024 63.3182 70.2079 63.5577 70.5376C63.924 71.0403 64.2412 71.4723 64.5092 71.8338C64.8074 72.1969 65.0921 72.5291 65.3633 72.8303C65.6487 73.1474 65.9493 73.4653 66.2649 73.784C66.6106 74.1043 67.007 74.465 67.4543 74.8661Z" fill="#AD5013"/>
<path d="M76.1119 108.98C76.4871 109.188 76.7126 109.499 76.7884 109.915C76.8939 110.325 76.8253 110.705 76.5826 111.056C76.34 111.407 76.0082 111.606 75.5872 111.652C75.1838 111.71 74.8127 111.609 74.4739 111.349C74.4159 111.283 74.1594 111.054 73.7045 110.661C73.2496 110.269 72.794 109.915 72.3378 109.6C71.5833 109.078 71.2226 108.362 71.2559 107.451L71.4914 97.7705C71.5115 97.6289 71.4514 97.5095 71.311 97.4124L68.1526 95.2284C67.9947 95.1192 67.8611 95.1436 67.7519 95.3015L64.1301 100.539C64.033 100.68 64.0459 100.792 64.1687 100.877C64.3968 101.035 64.6222 101.178 64.8449 101.306C65.0798 101.416 65.3085 101.536 65.5312 101.664C65.9064 101.871 66.1319 102.183 66.2077 102.598C66.2956 102.996 66.2182 103.371 65.9756 103.722C65.7329 104.073 65.4099 104.277 65.0065 104.335C64.6031 104.394 64.232 104.293 63.8932 104.033C63.4383 103.64 63.03 103.293 62.6682 102.991C62.3118 102.719 61.9582 102.461 61.6073 102.218C61.2563 101.976 60.8906 101.736 60.5099 101.498C60.1172 101.279 59.6482 101.019 59.1029 100.72C58.7399 100.495 58.5056 100.177 58.4001 99.7672C58.3122 99.3693 58.3896 98.9948 58.6322 98.6439C58.8749 98.2929 59.1831 98.091 59.5568 98.0382C59.9427 97.9678 60.3023 98.0479 60.6357 98.2785C60.7585 98.3634 60.8752 98.4571 60.9859 98.5596C61.1142 98.6742 61.2512 98.7949 61.397 98.9216L61.4496 98.958C61.5725 99.043 61.6824 99.0152 61.7795 98.8749L72.099 83.9513C72.2203 83.7758 72.1899 83.6511 72.0077 83.5769L71.3396 83.1928C70.9523 83.0028 70.6971 82.6966 70.5741 82.2744C70.4632 81.8346 70.5352 81.4304 70.79 81.062C71.0569 80.6759 71.4008 80.4599 71.8218 80.4138C72.2724 80.3622 72.6698 80.4814 73.014 80.7713C73.3286 81.0666 73.6519 81.368 73.984 81.6755C74.3457 81.9775 74.7021 82.2498 75.053 82.4925L79.8514 85.8495C82.1379 87.4565 83.5637 89.2205 84.1287 91.1415C84.7234 93.0571 84.3777 94.9449 83.0916 96.8048C82.0845 98.2612 80.8376 99.2016 79.351 99.6261C77.8941 100.045 76.3161 99.9267 74.617 99.2705C74.3997 99.1721 74.2891 99.2383 74.2852 99.469L74.059 107.561C74.0388 107.702 74.1077 107.828 74.2656 107.937C74.904 108.326 75.5195 108.674 76.1119 108.98ZM78.5757 88.3132L74.7593 85.6742C74.6014 85.565 74.4678 85.5893 74.3586 85.7472L69.6811 92.5115C69.5719 92.6695 69.5963 92.803 69.7542 92.9122L73.5707 95.5512C76.7466 97.7474 79.1658 97.6435 80.828 95.2396C82.5025 92.8182 81.7517 90.5093 78.5757 88.3132Z" fill="#AD5013"/>
<path d="M108.493 107.046C108.383 107.438 108.129 107.728 107.733 107.914C107.337 108.101 106.931 108.111 106.515 107.945C106.099 107.779 105.812 107.492 105.653 107.084C105.514 106.684 105.529 106.3 105.699 105.931L106.713 103.821C106.785 103.643 106.741 103.522 106.582 103.459L102.243 101.728C102.064 101.657 101.94 101.71 101.869 101.888L95.2173 118.563C95.1541 118.721 95.1918 118.828 95.3305 118.884C95.5683 118.978 95.8001 119.059 96.026 119.127C96.2796 119.182 96.5094 119.239 96.7155 119.298C97.1276 119.417 97.417 119.67 97.5838 120.058C97.7584 120.426 97.7667 120.809 97.6086 121.205C97.4585 121.581 97.1933 121.843 96.8131 121.99C96.433 122.137 96.0487 122.121 95.6603 121.944C95.1093 121.655 94.6694 121.433 94.3405 121.279C94.0313 121.133 93.7717 121.006 93.5617 120.9C93.3437 120.813 93.1059 120.718 92.8483 120.615C92.5709 120.505 92.3232 120.406 92.1053 120.319C91.8794 120.252 91.604 120.165 91.279 120.058C90.9739 119.959 90.5222 119.825 89.9238 119.655C89.5394 119.525 89.25 119.272 89.0555 118.896C88.8809 118.527 88.8686 118.155 89.0188 117.778C89.1769 117.382 89.446 117.111 89.8262 116.964C90.234 116.805 90.6183 116.82 90.979 117.01C91.1693 117.109 91.3694 117.212 91.5795 117.318C91.7895 117.425 91.9996 117.532 92.2097 117.639L92.2691 117.662C92.4078 117.718 92.5088 117.666 92.572 117.508L99.2233 100.833C99.2944 100.655 99.2408 100.53 99.0625 100.459L94.6933 98.7162C94.5347 98.653 94.4199 98.7105 94.3488 98.8889L93.6319 101.118C93.5213 101.51 93.2681 101.8 92.8721 101.986C92.4761 102.173 92.0701 102.183 91.654 102.017C91.2379 101.851 90.9504 101.564 90.7915 101.156C90.6525 100.756 90.668 100.372 90.838 100.003C91.0594 99.5635 91.2966 99.0839 91.5497 98.5647C91.8027 98.0455 92.0458 97.5224 92.2791 96.9953C92.54 96.4563 92.9338 96.0736 93.4605 95.8473C94.007 95.6289 94.5477 95.6264 95.0827 95.8398L108.309 101.116C108.824 101.321 109.205 101.691 109.451 102.226C109.697 102.76 109.72 103.309 109.518 103.872C109.344 104.423 109.171 104.973 108.997 105.524C108.823 106.075 108.655 106.582 108.493 107.046Z" fill="#AD5013"/>
<path d="M155.916 129.093C156.321 129.094 156.662 129.234 156.939 129.512C157.215 129.768 157.353 130.11 157.352 130.537C157.351 130.963 157.19 131.315 156.869 131.591C156.57 131.868 156.207 131.995 155.78 131.972C155.183 131.907 154.65 131.852 154.181 131.808C153.733 131.786 153.295 131.774 152.869 131.773C152.463 131.771 152.026 131.781 151.557 131.801C151.108 131.842 150.575 131.894 149.956 131.957C149.529 131.977 149.167 131.848 148.869 131.57C148.571 131.291 148.423 130.939 148.424 130.512C148.425 130.086 148.576 129.734 148.875 129.458C149.174 129.16 149.537 129.033 149.964 129.077C150.199 129.099 150.444 129.121 150.7 129.143C150.977 129.165 151.244 129.187 151.5 129.209L151.564 129.209C151.713 129.209 151.788 129.124 151.788 128.954L151.833 112.794C151.833 112.644 151.791 112.569 151.705 112.569C151.62 112.548 151.556 112.601 151.513 112.729L144.879 127.943C144.729 128.284 144.504 128.56 144.205 128.773C143.927 128.964 143.607 129.059 143.244 129.058C142.903 129.057 142.572 128.95 142.253 128.735C141.955 128.521 141.742 128.254 141.615 127.934L135.577 112.653C135.556 112.525 135.503 112.461 135.417 112.461C135.311 112.46 135.257 112.546 135.257 112.716L135.212 128.908C135.212 129.079 135.286 129.164 135.436 129.165C135.713 129.166 135.98 129.156 136.236 129.135C136.513 129.093 136.78 129.062 137.036 129.041C137.463 129 137.825 129.129 138.123 129.428C138.421 129.706 138.569 130.059 138.568 130.485C138.567 130.912 138.417 131.264 138.117 131.54C137.818 131.817 137.455 131.944 137.028 131.921C136.431 131.856 135.898 131.801 135.429 131.757C134.981 131.734 134.543 131.722 134.117 131.721C133.69 131.72 133.253 131.729 132.805 131.75C132.357 131.791 131.823 131.843 131.204 131.905C130.777 131.925 130.404 131.796 130.085 131.518C129.787 131.24 129.639 130.888 129.64 130.461C129.641 130.034 129.781 129.693 130.059 129.438C130.337 129.161 130.679 129.024 131.084 129.025C131.425 129.026 131.735 129.059 132.012 129.123C132.225 129.124 132.332 129.028 132.333 128.836L132.382 110.66C132.383 110.468 132.287 110.372 132.095 110.372C131.967 110.393 131.828 110.414 131.679 110.434C131.53 110.434 131.37 110.434 131.199 110.433C130.794 110.432 130.453 110.292 130.176 110.014C129.9 109.736 129.762 109.395 129.763 108.989C129.764 108.563 129.925 108.211 130.246 107.934C130.567 107.658 130.94 107.542 131.367 107.586C132.071 107.673 132.657 107.738 133.126 107.782C133.595 107.826 134.075 107.849 134.566 107.85C135.185 107.852 135.739 108.024 136.229 108.367C136.74 108.71 137.101 109.169 137.313 109.746L143.128 124.706C143.192 124.834 143.255 124.898 143.319 124.898C143.426 124.899 143.49 124.835 143.512 124.707L149.857 109.748C150.093 109.194 150.468 108.747 150.981 108.407C151.494 108.067 152.049 107.898 152.646 107.9C153.158 107.901 153.638 107.881 154.086 107.84C154.534 107.798 155.089 107.736 155.751 107.652C156.177 107.611 156.55 107.74 156.87 108.039C157.189 108.318 157.348 108.67 157.347 109.097C157.346 109.502 157.206 109.843 156.928 110.12C156.65 110.375 156.308 110.502 155.903 110.501C155.754 110.5 155.604 110.489 155.455 110.468C155.327 110.446 155.178 110.435 155.007 110.434L154.943 110.434C154.794 110.434 154.719 110.519 154.718 110.689L154.669 128.897C154.668 129.089 154.774 129.186 154.988 129.186C155.308 129.123 155.617 129.092 155.916 129.093Z" fill="#AD5013"/>
<path d="M171.781 100.179L169.384 103.569C169.197 103.791 169 103.927 168.793 103.978C168.524 104.044 168.26 103.999 168.002 103.842C167.744 103.686 167.582 103.473 167.515 103.204C167.46 102.976 167.486 102.728 167.596 102.459L169.552 98.7498C169.729 98.3987 170.015 98.1748 170.409 98.0782C170.761 97.9917 171.094 98.0526 171.409 98.2609C171.719 98.4484 171.917 98.7183 172.003 99.0705C172.095 99.4434 172.021 99.8131 171.781 100.179ZM181.77 120.726C182.205 120.619 182.605 120.686 182.972 120.925C183.333 121.144 183.544 121.466 183.604 121.89L184.059 124.546C184.181 125.132 184.083 125.672 183.765 126.167C183.447 126.663 183.009 126.979 182.449 127.116L171.448 129.818C171.075 129.91 170.689 130.037 170.29 130.201C169.912 130.36 169.541 130.506 169.178 130.639C168.759 130.808 168.347 130.788 167.945 130.58C167.542 130.371 167.285 130.039 167.173 129.583C167.061 129.127 167.137 128.724 167.403 128.373C167.663 128.002 168.018 127.794 168.469 127.749C168.536 127.754 168.611 127.747 168.694 127.727C168.777 127.706 168.872 127.694 168.981 127.689L169.043 127.674C169.209 127.633 169.272 127.53 169.231 127.364L164.942 109.899C164.896 109.713 164.79 109.64 164.625 109.68C164.542 109.701 164.454 109.744 164.36 109.811C164.282 109.852 164.194 109.896 164.096 109.942C163.676 110.111 163.267 110.102 162.87 109.914C162.467 109.705 162.21 109.373 162.098 108.917C161.986 108.461 162.06 108.048 162.32 107.676C162.58 107.305 162.936 107.097 163.386 107.052C163.811 106.992 164.248 106.939 164.698 106.894C165.149 106.85 165.571 106.779 165.964 106.682L176.779 104.027C177.338 103.889 177.874 103.966 178.385 104.258C178.896 104.55 179.233 104.984 179.396 105.559L180.223 108.123C180.361 108.507 180.324 108.889 180.11 109.271C179.896 109.653 179.572 109.898 179.137 110.005C178.722 110.106 178.337 110.058 177.981 109.86C177.64 109.636 177.422 109.328 177.325 108.934C177.264 108.685 177.208 108.413 177.158 108.118C177.123 107.797 177.08 107.489 177.03 107.194C176.984 107.008 176.868 106.937 176.681 106.983L168.011 109.112C167.824 109.158 167.754 109.274 167.8 109.461L169.372 115.863C169.418 116.049 169.534 116.119 169.72 116.074L177.334 114.204C177.707 114.112 178.061 114.168 178.397 114.371C178.732 114.574 178.946 114.862 179.037 115.235C179.129 115.608 179.073 115.962 178.87 116.298C178.662 116.613 178.371 116.816 177.998 116.907L170.384 118.777C170.198 118.823 170.127 118.939 170.173 119.126L171.974 126.46C172.02 126.646 172.136 126.716 172.323 126.671L180.993 124.541C181.18 124.496 181.25 124.38 181.204 124.193C181.107 123.887 181.005 123.605 180.897 123.346C180.805 123.061 180.726 122.784 180.66 122.514C180.563 122.121 180.617 121.756 180.82 121.421C181.039 121.059 181.355 120.828 181.77 120.726Z" fill="#AD5013"/>
<path d="M204.972 98.5285C205.19 98.8728 205.236 99.2546 205.111 99.6739C204.985 100.093 204.721 100.402 204.32 100.601C203.918 100.8 203.513 100.822 203.103 100.668C202.713 100.504 202.437 100.236 202.276 99.8633L201.383 97.6989C201.298 97.5269 201.179 97.4787 201.026 97.5545L196.839 99.6277C196.667 99.7129 196.624 99.8415 196.709 100.014L204.675 116.101C204.751 116.254 204.856 116.298 204.989 116.231C205.219 116.118 205.434 115.999 205.635 115.876C205.845 115.724 206.041 115.591 206.223 115.478C206.587 115.25 206.968 115.204 207.368 115.339C207.759 115.455 208.049 115.704 208.239 116.086C208.418 116.45 208.436 116.822 208.292 117.203C208.147 117.584 207.879 117.86 207.487 118.03C206.904 118.247 206.445 118.426 206.111 118.568C205.796 118.701 205.528 118.809 205.308 118.894C205.098 118.998 204.869 119.112 204.62 119.235C204.352 119.368 204.113 119.486 203.903 119.59C203.702 119.713 203.454 119.86 203.157 120.031C202.88 120.192 202.478 120.438 201.952 120.77C201.599 120.969 201.217 121.016 200.807 120.909C200.416 120.793 200.131 120.553 199.951 120.19C199.762 119.808 199.739 119.426 199.884 119.045C200.038 118.635 200.306 118.36 200.688 118.218C200.889 118.143 201.099 118.062 201.319 117.977C201.539 117.892 201.759 117.807 201.978 117.722L202.036 117.694C202.17 117.628 202.199 117.518 202.123 117.365L194.157 101.277C194.071 101.105 193.943 101.062 193.771 101.147L189.555 103.235C189.402 103.31 189.368 103.434 189.454 103.606L190.634 105.629C190.852 105.973 190.898 106.355 190.772 106.774C190.647 107.193 190.383 107.502 189.982 107.701C189.58 107.9 189.175 107.922 188.765 107.768C188.374 107.604 188.099 107.336 187.938 106.963C187.758 106.505 187.56 106.008 187.343 105.473C187.125 104.938 186.898 104.407 186.662 103.882C186.435 103.327 186.413 102.779 186.597 102.236C186.799 101.683 187.159 101.279 187.675 101.023L200.436 94.7043C200.933 94.4582 201.463 94.422 202.025 94.5959C202.587 94.7699 203.01 95.1197 203.294 95.6456C203.588 96.1428 203.882 96.64 204.176 97.1373C204.47 97.6345 204.735 98.0983 204.972 98.5285Z" fill="#AD5013"/>
<path d="M237.045 94.8496C237.348 94.5465 237.71 94.4162 238.13 94.4584C238.554 94.4707 238.9 94.642 239.17 94.9724C239.44 95.3028 239.539 95.6766 239.467 96.0938C239.411 96.4976 239.211 96.8262 238.867 97.0796C238.788 97.1171 238.497 97.3001 237.993 97.6285C237.49 97.9569 237.024 98.2966 236.595 98.6476C235.884 99.2281 235.096 99.3762 234.23 99.092L224.994 96.1844C224.864 96.1258 224.732 96.1505 224.6 96.2585L221.627 98.6884C221.478 98.8098 221.464 98.9449 221.586 99.0936L225.615 104.025C225.723 104.157 225.835 104.176 225.951 104.081C226.166 103.906 226.365 103.729 226.55 103.55C226.721 103.355 226.899 103.168 227.084 102.99C227.387 102.687 227.749 102.556 228.169 102.599C228.576 102.624 228.915 102.802 229.185 103.133C229.455 103.463 229.562 103.83 229.506 104.234C229.45 104.638 229.25 104.966 228.906 105.22C228.403 105.548 227.957 105.844 227.566 106.108C227.206 106.375 226.86 106.644 226.53 106.914C226.2 107.184 225.868 107.469 225.534 107.769C225.214 108.085 224.835 108.464 224.397 108.905C224.08 109.192 223.71 109.329 223.286 109.316C222.88 109.291 222.541 109.113 222.271 108.782C222.001 108.452 221.893 108.1 221.946 107.726C221.985 107.336 222.161 107.013 222.475 106.756C222.591 106.662 222.713 106.575 222.842 106.497C222.988 106.406 223.142 106.308 223.304 106.203L223.354 106.162C223.469 106.068 223.473 105.954 223.365 105.822L211.884 91.7727C211.749 91.6075 211.621 91.6022 211.499 91.7567L210.945 92.2923C210.655 92.6118 210.29 92.7722 209.85 92.7735C209.397 92.7582 209.028 92.5771 208.745 92.2302C208.448 91.8668 208.336 91.4765 208.408 91.0592C208.483 90.612 208.708 90.2631 209.082 90.0127C209.453 89.7922 209.832 89.565 210.219 89.3311C210.61 89.0672 210.97 88.8002 211.3 88.5302L215.855 84.8494C218.033 83.0975 220.123 82.2162 222.125 82.2053C224.13 82.1645 225.848 83.0196 227.279 84.7706C228.4 86.1416 228.958 87.6002 228.954 89.1462C228.953 90.6623 228.402 92.1457 227.301 93.5965C227.146 93.778 227.179 93.9026 227.4 93.9703L235.112 96.429C235.243 96.4876 235.382 96.4562 235.531 96.3347C236.082 95.8292 236.587 95.3341 237.045 94.8496ZM217.869 86.7576L214.276 89.6937C214.128 89.8152 214.114 89.9503 214.235 90.099L219.439 96.4671C219.561 96.6157 219.696 96.6293 219.845 96.5078L223.438 93.5717C226.428 91.1283 226.998 88.7751 225.148 86.512C223.285 84.2324 220.859 84.3142 217.869 86.7576Z" fill="#AD5013"/>
<path d="M259.804 68.5544C260.05 68.232 260.367 68.0446 260.756 67.9921C261.128 67.9267 261.483 68.0233 261.823 68.2819C262.162 68.5405 262.345 68.8811 262.372 69.3037C262.411 69.7093 262.293 70.0754 262.018 70.4018C261.179 71.2914 260.54 72.0247 260.1 72.6016C259.622 73.2294 259.084 74.0403 258.488 75.0342C258.246 75.3865 257.924 75.5973 257.523 75.6668C257.121 75.7363 256.751 75.6417 256.411 75.3831C256.072 75.1245 255.878 74.8158 255.83 74.457C255.777 74.0683 255.874 73.7128 256.119 73.3904C256.236 73.2377 256.367 73.083 256.513 72.9262C256.673 72.7525 256.834 72.5937 256.997 72.4499C257.152 72.2463 257.113 72.1222 256.878 72.0778L253.294 71.2375C253.137 71.1979 253.013 71.2375 252.922 71.3563L246.211 80.1628C246.134 80.2647 246.128 80.3948 246.196 80.5531L247.956 83.7859C247.977 83.8287 248.005 83.8631 248.039 83.8889C248.141 83.9665 248.243 83.9374 248.347 83.8017C248.455 83.5892 248.565 83.3916 248.678 83.209C248.79 83.0264 248.904 82.8587 249.021 82.706C249.266 82.3836 249.577 82.2046 249.953 82.1691C250.325 82.1037 250.68 82.2003 251.02 82.4589C251.359 82.7175 251.548 83.0496 251.588 83.4553C251.627 83.8609 251.509 84.2269 251.234 84.5534C250.382 85.46 249.743 86.1932 249.316 86.7532C248.825 87.398 248.287 88.2088 247.704 89.1857C247.462 89.538 247.134 89.7574 246.72 89.8438C246.318 89.9133 245.948 89.8187 245.608 89.5601C245.269 89.3015 245.081 88.9843 245.046 88.6086C244.993 88.2199 245.09 87.8644 245.336 87.542C245.465 87.3723 245.596 87.2176 245.73 87.0778C245.863 86.938 245.996 86.7982 246.13 86.6584L246.168 86.6075C246.233 86.5227 246.24 86.4075 246.19 86.2621L235.398 66.371C235.137 65.9039 235.168 65.4582 235.491 65.034C235.802 64.6268 236.217 64.487 236.736 64.6147L258.817 69.6925C258.97 69.7022 259.079 69.6647 259.144 69.5798C259.273 69.4101 259.387 69.2425 259.487 69.0768C259.582 68.8813 259.688 68.7072 259.804 68.5544ZM239.833 68.1009C239.718 68.0403 239.629 68.0524 239.564 68.1373C239.525 68.1882 239.537 68.2779 239.6 68.4064L244.492 77.404C244.513 77.4468 244.54 77.4812 244.574 77.507C244.693 77.5976 244.804 77.5749 244.907 77.4392L249.95 70.8216C250.105 70.6179 250.057 70.4874 249.806 70.43L239.833 68.1009Z" fill="#AD5013"/>
<path d="M265.697 38.4336C266.285 38.6852 266.584 39.1262 266.593 39.7565C266.585 39.9385 266.649 40.0589 266.787 40.1177L273.966 43.1876C274.319 43.3386 274.564 43.6059 274.702 43.9896C274.848 44.3536 274.845 44.7122 274.694 45.0652C274.543 45.4183 274.286 45.6678 273.922 45.8138C273.558 45.9597 273.199 45.9572 272.846 45.8062L271.493 45.2275C271.375 45.1771 271.294 45.1772 271.249 45.2277C271.184 45.2697 271.18 45.3608 271.236 45.5008C271.671 46.5453 271.937 47.7146 272.033 49.0087C272.11 50.2944 271.846 51.6433 271.243 53.0556C270.563 54.6445 269.661 55.9407 268.535 56.9445C267.391 57.9398 266.11 58.6566 264.693 59.0947C263.284 59.5132 261.812 59.6727 260.277 59.5731C258.75 59.4538 257.251 59.0797 255.78 58.4506C254.015 57.6957 252.575 56.7206 251.462 55.5254C250.33 54.3218 249.501 53.0045 248.976 51.5735C248.431 50.1341 248.177 48.6679 248.212 47.1748C248.247 45.6818 248.55 44.2683 249.12 42.9345C249.565 41.8949 250.172 40.9364 250.942 40.059C251.711 39.1816 252.624 38.4581 253.679 37.8886C254.984 37.1705 256.088 37.0043 256.99 37.3902C257.578 37.6418 257.981 38.0575 258.197 38.6371C258.402 39.1888 258.391 39.7294 258.165 40.2591C257.913 40.8475 257.501 41.24 256.93 41.4365C256.367 41.6135 255.831 41.5929 255.321 41.3748C255.085 41.2742 254.861 41.1203 254.648 40.9132C254.617 40.8768 254.563 40.8418 254.484 40.8082C254.406 40.7747 254.32 40.7846 254.228 40.8379C253.612 41.2473 253.077 41.738 252.624 42.3098C252.179 42.862 251.818 43.4617 251.541 44.109C251.13 45.0702 250.924 46.0956 250.922 47.1853C250.901 48.2665 251.103 49.3392 251.53 50.4033C251.956 51.4675 252.622 52.46 253.528 53.3808C254.422 54.2737 255.576 55.0221 256.988 55.626C258.664 56.3194 260.279 56.6388 261.833 56.5843C263.377 56.5018 264.756 56.0708 265.971 55.291C267.167 54.5029 268.066 53.4027 268.67 51.9904C269.962 48.9697 269.517 46.1577 267.336 43.5543C267.243 43.4451 267.148 43.3696 267.05 43.3276L265.549 42.686C265.373 42.6105 265.247 42.661 265.171 42.8375C264.967 43.2607 264.788 43.7062 264.634 44.1741C264.469 44.6141 264.296 45.1548 264.115 45.7964C263.975 46.1775 263.715 46.4607 263.334 46.6458C262.961 46.8114 262.579 46.8103 262.187 46.6426C261.794 46.4748 261.529 46.1991 261.392 45.8154C261.243 45.4038 261.268 45.02 261.467 44.6641C261.769 44.1204 262.027 43.651 262.243 43.2559C262.447 42.8327 262.629 42.4348 262.788 42.0621C262.956 41.6698 263.122 41.2537 263.287 40.8138C263.432 40.3655 263.593 39.8541 263.769 39.2797C263.898 38.8706 264.158 38.5875 264.55 38.4303C264.922 38.2648 265.305 38.2658 265.697 38.4336Z" fill="#AD5013"/>
<path d="M275.627 14.8392C275.701 14.3973 275.92 14.0554 276.285 13.8134C276.628 13.568 277.007 13.5014 277.421 13.6137L280.041 14.2454C280.626 14.3648 281.084 14.6682 281.414 15.1558C281.743 15.6433 281.861 16.1712 281.766 16.7393L279.902 27.9129C279.839 28.2917 279.803 28.6967 279.796 29.1281C279.793 29.5384 279.78 29.9365 279.759 30.3223C279.749 30.7747 279.568 31.1447 279.217 31.4322C278.866 31.7198 278.46 31.8249 277.997 31.7477C277.534 31.6704 277.194 31.4407 276.976 31.0583C276.738 30.6725 276.687 30.2639 276.824 29.8326C276.855 29.7729 276.878 29.701 276.892 29.6169C276.906 29.5327 276.933 29.4398 276.971 29.3381L276.982 29.2749C277.01 29.1066 276.94 29.0084 276.771 28.9803L259.033 26.0208C258.843 25.9892 258.734 26.0576 258.706 26.2259C258.692 26.3101 258.698 26.4083 258.722 26.5205C258.729 26.6082 258.734 26.7064 258.738 26.8151C258.727 27.2675 258.557 27.6393 258.227 27.9303C257.877 28.2178 257.47 28.323 257.007 28.2457C256.544 28.1685 256.193 27.937 255.955 27.5511C255.716 27.1653 255.666 26.7567 255.802 26.3254C255.915 25.9115 256.039 25.4889 256.176 25.0576C256.313 24.6262 256.415 24.2106 256.481 23.8108L258.314 12.8267C258.409 12.2585 258.691 11.7974 259.161 11.4432C259.631 11.0891 260.163 10.9506 260.755 11.0279L263.438 11.2808C263.845 11.3055 264.182 11.4914 264.448 11.8387C264.715 12.1859 264.811 12.5805 264.737 13.0224C264.667 13.4432 264.471 13.7781 264.148 14.0271C263.808 14.2515 263.438 14.3303 263.038 14.2636C262.785 14.2215 262.514 14.1653 262.223 14.0952C261.914 14.0004 261.614 13.9179 261.323 13.8477C261.134 13.8161 261.023 13.895 260.992 14.0844L259.522 22.8907C259.491 23.0801 259.57 23.1906 259.759 23.2222L266.261 24.307C266.451 24.3386 266.561 24.2597 266.593 24.0703L267.883 16.3372C267.946 15.9584 268.137 15.6551 268.456 15.4272C268.776 15.1993 269.125 15.1169 269.503 15.1801C269.882 15.2433 270.185 15.4345 270.413 15.7537C270.62 16.0693 270.692 16.4166 270.629 16.7953L269.339 24.5284C269.307 24.7178 269.386 24.8283 269.575 24.8599L277.024 26.1027C277.214 26.1343 277.324 26.0554 277.356 25.866L278.825 17.0597C278.857 16.8704 278.778 16.7599 278.588 16.7283C278.269 16.6967 277.969 16.6791 277.689 16.6755C277.391 16.6474 277.105 16.6105 276.831 16.5649C276.432 16.4982 276.118 16.3052 275.89 15.9861C275.644 15.6423 275.557 15.26 275.627 14.8392Z" fill="#AD5013"/>
</svg>
