<svg width="892" height="172" viewBox="0 0 892 172" fill="none" xmlns="http://www.w3.org/2000/svg">
<path d="M82.688 32.576C82.8587 34.1973 82.3467 35.648 81.152 36.928C79.9573 38.208 78.464 38.848 76.672 38.848C74.88 38.848 73.3867 38.208 72.192 36.928C71.0827 35.648 70.5707 34.1973 70.656 32.576L71.296 23.232C71.296 22.464 70.9547 22.08 70.272 22.08H51.584C50.816 22.08 50.432 22.464 50.432 23.232V95.04C50.432 95.7227 50.7307 96.064 51.328 96.064C52.352 96.064 53.3333 96.0213 54.272 95.936C55.296 95.7653 56.2347 95.6373 57.088 95.552C58.7947 95.3813 60.2453 95.8933 61.44 97.088C62.6347 98.1973 63.232 99.6053 63.232 101.312C63.232 102.933 62.6347 104.299 61.44 105.408C60.2453 106.517 58.7947 107.029 57.088 106.944C54.6133 106.688 52.6507 106.517 51.2 106.432C49.8347 106.347 48.6827 106.261 47.744 106.176C46.8053 106.176 45.7813 106.176 44.672 106.176C43.4773 106.176 42.4107 106.176 41.472 106.176C40.5333 106.261 39.3813 106.347 38.016 106.432C36.736 106.517 34.8587 106.688 32.384 106.944C30.7627 107.029 29.312 106.517 28.032 105.408C26.8373 104.299 26.24 102.933 26.24 101.312C26.24 99.6053 26.8373 98.1973 28.032 97.088C29.312 95.8933 30.7627 95.3813 32.384 95.552C33.2373 95.6373 34.1333 95.7227 35.072 95.808C36.0107 95.8933 36.9493 95.9787 37.888 96.064H38.144C38.7413 96.064 39.04 95.7227 39.04 95.04V23.232C39.04 22.464 38.656 22.08 37.888 22.08H19.072C18.3893 22.08 18.048 22.464 18.048 23.232L18.688 32.576C18.8587 34.1973 18.3467 35.648 17.152 36.928C15.9573 38.208 14.464 38.848 12.672 38.848C10.88 38.848 9.38667 38.208 8.192 36.928C7.08267 35.648 6.57067 34.1973 6.656 32.576C6.82667 30.6133 6.99733 28.48 7.168 26.176C7.33867 23.872 7.46667 21.568 7.552 19.264C7.72267 16.8747 8.61867 14.8693 10.24 13.248C11.9467 11.6267 13.952 10.816 16.256 10.816H73.216C75.4347 10.816 77.3973 11.6267 79.104 13.248C80.8107 14.8693 81.7067 16.8747 81.792 19.264C81.9627 21.568 82.1333 23.872 82.304 26.176C82.4747 28.48 82.6027 30.6133 82.688 32.576ZM176.952 95.552C178.488 95.552 179.811 96.1067 180.92 97.216C182.029 98.24 182.584 99.6053 182.584 101.312C182.584 103.019 181.987 104.427 180.792 105.536C179.597 106.645 178.147 107.157 176.44 107.072C174.051 106.816 171.875 106.603 169.912 106.432C168.035 106.347 166.157 106.304 164.28 106.304C162.573 106.304 160.824 106.347 159.032 106.432C157.24 106.603 155.235 106.816 153.016 107.072C151.395 107.157 149.944 106.645 148.664 105.536C147.469 104.427 146.872 103.019 146.872 101.312C146.872 99.6053 147.469 98.1973 148.664 97.088C149.944 95.8933 151.395 95.3813 153.016 95.552C153.955 95.6373 154.936 95.7227 155.96 95.808C156.984 95.8933 158.051 95.9787 159.16 96.064H159.416C160.013 96.064 160.312 95.7227 160.312 95.04V63.296C160.312 62.528 159.928 62.144 159.16 62.144H113.336C112.568 62.144 112.184 62.528 112.184 63.296V95.04C112.184 95.7227 112.483 96.064 113.08 96.064C114.189 96.064 115.256 96.0213 116.28 95.936C117.389 95.7653 118.456 95.6373 119.48 95.552C121.187 95.3813 122.637 95.8933 123.832 97.088C125.027 98.1973 125.624 99.6053 125.624 101.312C125.624 103.019 125.027 104.427 123.832 105.536C122.637 106.645 121.187 107.157 119.48 107.072C117.091 106.816 114.915 106.603 112.952 106.432C111.075 106.347 109.197 106.304 107.32 106.304C105.613 106.304 103.864 106.347 102.072 106.432C100.28 106.603 98.2747 106.816 96.056 107.072C94.4347 107.157 92.984 106.645 91.704 105.536C90.5093 104.427 89.912 103.019 89.912 101.312C89.912 99.6053 90.4667 98.24 91.576 97.216C92.6853 96.1067 94.008 95.552 95.544 95.552C96.2267 95.552 96.9093 95.5947 97.592 95.68C98.2747 95.7653 98.9573 95.8507 99.64 95.936H99.896C100.493 95.936 100.792 95.5947 100.792 94.912V21.824C100.792 21.1413 100.493 20.8 99.896 20.8C99.128 20.8 98.4027 20.8853 97.72 21.056C97.0373 21.1413 96.312 21.184 95.544 21.184C94.008 21.184 92.6853 20.6293 91.576 19.52C90.4667 18.4107 89.912 17.0453 89.912 15.424C89.912 13.7173 90.5093 12.3093 91.704 11.2C92.984 10.0053 94.4347 9.49333 96.056 9.66399C98.5307 9.92 100.707 10.1333 102.584 10.304C104.461 10.3893 106.339 10.432 108.216 10.432C109.923 10.432 111.672 10.3893 113.464 10.304C115.256 10.1333 117.261 9.92 119.48 9.66399C121.187 9.49333 122.637 10.0053 123.832 11.2C125.027 12.3093 125.624 13.7173 125.624 15.424C125.624 17.1307 125.027 18.5387 123.832 19.648C122.637 20.7573 121.187 21.2693 119.48 21.184C118.541 21.0133 117.517 20.928 116.408 20.928C115.384 20.8427 114.36 20.7573 113.336 20.672H113.08C112.483 20.672 112.184 21.0133 112.184 21.696V49.728C112.184 50.496 112.568 50.88 113.336 50.88H159.16C159.928 50.88 160.312 50.496 160.312 49.728V21.696C160.312 21.0133 160.013 20.672 159.416 20.672C158.307 20.672 157.197 20.7147 156.088 20.8C155.064 20.8853 154.04 21.0133 153.016 21.184C151.395 21.2693 149.944 20.7573 148.664 19.648C147.469 18.5387 146.872 17.1307 146.872 15.424C146.872 13.7173 147.469 12.3093 148.664 11.2C149.944 10.0053 151.395 9.49333 153.016 9.66399C155.491 9.92 157.667 10.1333 159.544 10.304C161.421 10.3893 163.299 10.432 165.176 10.432C166.883 10.432 168.632 10.3893 170.424 10.304C172.216 10.1333 174.221 9.92 176.44 9.66399C178.147 9.49333 179.597 10.0053 180.792 11.2C181.987 12.3093 182.584 13.7173 182.584 15.424C182.584 17.0453 182.029 18.4107 180.92 19.52C179.811 20.6293 178.488 21.184 176.952 21.184C176.269 21.184 175.587 21.1413 174.904 21.056C174.221 20.9707 173.539 20.8853 172.856 20.8H172.6C172.003 20.8 171.704 21.1413 171.704 21.824V94.912C171.704 95.5947 172.045 95.936 172.728 95.936C173.411 95.936 174.093 95.8933 174.776 95.808C175.459 95.6373 176.184 95.552 176.952 95.552ZM293.692 95.552C295.313 95.552 296.679 96.1067 297.788 97.216C298.897 98.24 299.452 99.6053 299.452 101.312C299.452 103.019 298.812 104.427 297.532 105.536C296.337 106.645 294.887 107.157 293.18 107.072C288.316 106.56 284.433 106.304 281.532 106.304C278.375 106.304 274.492 106.56 269.884 107.072C268.177 107.157 266.727 106.645 265.532 105.536C264.337 104.427 263.74 103.019 263.74 101.312C263.74 99.6053 264.252 98.24 265.276 97.216C266.385 96.1067 267.751 95.552 269.372 95.552C270.14 95.552 270.951 95.5947 271.804 95.68C272.743 95.7653 273.639 95.8933 274.492 96.064C275.516 96.064 275.815 95.6373 275.388 94.784L269.372 81.344C269.116 80.7467 268.689 80.448 268.092 80.448H223.804C223.292 80.448 222.865 80.7467 222.524 81.344L216.508 94.784C216.423 94.9547 216.38 95.1253 216.38 95.296C216.38 95.808 216.721 96.064 217.404 96.064C218.343 95.8933 219.239 95.7653 220.092 95.68C220.945 95.5947 221.756 95.552 222.524 95.552C224.145 95.552 225.468 96.1067 226.492 97.216C227.601 98.24 228.156 99.6053 228.156 101.312C228.156 103.019 227.559 104.427 226.364 105.536C225.169 106.645 223.719 107.157 222.012 107.072C217.063 106.56 213.18 106.304 210.364 106.304C207.121 106.304 203.239 106.56 198.716 107.072C197.009 107.157 195.516 106.645 194.236 105.536C193.041 104.427 192.444 103.019 192.444 101.312C192.444 99.6053 192.999 98.24 194.108 97.216C195.217 96.1067 196.583 95.552 198.204 95.552C199.057 95.552 199.868 95.5947 200.636 95.68C201.404 95.7653 202.172 95.8507 202.94 95.936H203.196C203.623 95.936 204.007 95.68 204.348 95.168L241.468 12.608C242.321 10.6453 243.815 9.66399 245.948 9.66399C247.996 9.66399 249.447 10.6453 250.3 12.608L287.676 95.168C288.017 95.68 288.401 95.936 288.828 95.936C289.681 95.936 290.492 95.8933 291.26 95.808C292.113 95.6373 292.924 95.552 293.692 95.552ZM246.716 30.912C246.631 30.4 246.375 30.144 245.948 30.144C245.692 30.144 245.436 30.4 245.18 30.912L228.412 68.288C228.327 68.4587 228.284 68.6293 228.284 68.8C228.284 69.3973 228.625 69.696 229.308 69.696H262.588C263.612 69.696 263.911 69.2267 263.484 68.288L246.716 30.912ZM393.315 9.66399C395.022 9.49333 396.472 10.0053 397.667 11.2C398.862 12.3093 399.459 13.7173 399.459 15.424C399.459 17.0453 398.904 18.4107 397.795 19.52C396.686 20.6293 395.363 21.184 393.827 21.184C393.23 21.184 392.59 21.1413 391.907 21.056C391.31 20.9707 390.627 20.8853 389.859 20.8H389.603C389.006 20.8 388.707 21.1413 388.707 21.824V99.52C388.707 101.397 388.067 102.976 386.787 104.256C385.507 105.621 383.886 106.304 381.923 106.304C379.022 106.304 376.718 105.067 375.011 102.592L330.339 33.984C330.083 33.5573 329.827 33.344 329.571 33.344C329.144 33.344 328.931 33.6853 328.931 34.368V95.04C328.931 95.7227 329.23 96.064 329.827 96.064C331.022 96.064 332.131 96.0213 333.155 95.936C334.264 95.7653 335.288 95.6373 336.227 95.552C337.934 95.3813 339.384 95.8933 340.579 97.088C341.859 98.1973 342.499 99.6053 342.499 101.312C342.499 103.019 341.859 104.427 340.579 105.536C339.384 106.645 337.934 107.157 336.227 107.072C333.838 106.816 331.704 106.603 329.827 106.432C328.035 106.347 326.286 106.304 324.579 106.304C322.958 106.304 321.208 106.347 319.331 106.432C317.539 106.603 315.406 106.816 312.931 107.072C311.31 107.157 309.859 106.645 308.579 105.536C307.384 104.427 306.787 103.019 306.787 101.312C306.787 99.6053 307.342 98.24 308.451 97.216C309.56 96.1067 310.883 95.552 312.419 95.552C313.016 95.552 313.614 95.5947 314.211 95.68C314.894 95.7653 315.619 95.8507 316.387 95.936H316.643C317.24 95.936 317.539 95.5947 317.539 94.912V22.464C317.539 21.6107 317.112 21.2693 316.259 21.44L313.699 21.952C311.822 22.208 310.2 21.7387 308.835 20.544C307.47 19.264 306.787 17.6853 306.787 15.808C306.787 13.9307 307.47 12.3947 308.835 11.2C310.286 10.0053 311.907 9.536 313.699 9.79199C314.979 10.048 316.174 10.2613 317.283 10.432C318.478 10.5173 319.544 10.6453 320.483 10.816C326.03 11.072 330.168 13.3333 332.899 17.6L375.907 84.416C376.163 84.8427 376.419 85.056 376.675 85.056C377.102 85.056 377.315 84.7147 377.315 84.032V21.696C377.315 21.0133 377.016 20.672 376.419 20.672C375.31 20.672 374.2 20.7147 373.091 20.8C371.982 20.8853 370.958 21.0133 370.019 21.184C368.312 21.2693 366.819 20.7573 365.539 19.648C364.344 18.5387 363.747 17.1307 363.747 15.424C363.747 13.7173 364.344 12.3093 365.539 11.2C366.819 10.0053 368.312 9.49333 370.019 9.66399C372.494 9.92 374.627 10.1333 376.419 10.304C378.211 10.3893 379.96 10.432 381.667 10.432C383.374 10.432 385.123 10.3893 386.915 10.304C388.792 10.1333 390.926 9.92 393.315 9.66399ZM494.606 95.552C496.313 95.3813 497.763 95.8933 498.958 97.088C500.238 98.1973 500.878 99.6053 500.878 101.312C500.878 103.019 500.238 104.427 498.958 105.536C497.763 106.645 496.313 107.157 494.606 107.072C492.046 106.816 489.785 106.603 487.822 106.432C485.859 106.347 483.939 106.304 482.062 106.304C480.27 106.304 478.435 106.347 476.558 106.432C474.681 106.603 472.505 106.816 470.03 107.072C468.409 107.157 466.958 106.645 465.678 105.536C464.483 104.427 463.886 103.019 463.886 101.312C463.886 99.6053 464.441 98.24 465.55 97.216C466.659 96.1067 467.982 95.552 469.518 95.552C470.201 95.552 470.841 95.5947 471.438 95.68C472.121 95.7653 472.761 95.8507 473.358 95.936H473.614C474.041 95.936 474.297 95.808 474.382 95.552C474.467 95.2107 474.382 94.8693 474.126 94.528L450.702 58.688C450.275 58.0053 449.763 57.9627 449.166 58.56L434.702 72C434.275 72.4267 434.062 72.896 434.062 73.408V95.04C434.062 95.7227 434.361 96.064 434.958 96.064C436.153 96.064 437.305 96.0213 438.414 95.936C439.609 95.7653 440.718 95.68 441.742 95.68C443.278 95.68 444.601 96.2347 445.71 97.344C446.819 98.368 447.374 99.6907 447.374 101.312C447.374 103.019 446.734 104.427 445.454 105.536C444.259 106.645 442.809 107.157 441.102 107.072C438.713 106.816 436.579 106.603 434.702 106.432C432.91 106.347 431.161 106.304 429.454 106.304C427.833 106.304 426.083 106.347 424.206 106.432C422.414 106.603 420.281 106.816 417.806 107.072C416.185 107.157 414.734 106.645 413.454 105.536C412.259 104.427 411.662 103.019 411.662 101.312C411.662 99.6053 412.259 98.1973 413.454 97.088C414.734 95.9787 416.185 95.5093 417.806 95.68L421.39 95.936H421.646C422.243 95.936 422.542 95.5947 422.542 94.912V21.824C422.542 21.1413 422.243 20.8 421.646 20.8C420.793 20.8 420.025 20.8853 419.342 21.056C418.745 21.1413 418.105 21.184 417.422 21.184C415.801 21.184 414.435 20.6293 413.326 19.52C412.302 18.4107 411.79 17.0453 411.79 15.424C411.79 13.7173 412.387 12.3093 413.582 11.2C414.777 10.0053 416.227 9.49333 417.934 9.66399C420.409 9.92 422.542 10.1333 424.334 10.304C426.211 10.3893 427.961 10.432 429.582 10.432C431.289 10.432 433.038 10.3893 434.83 10.304C436.707 10.1333 438.841 9.92 441.23 9.66399C442.937 9.49333 444.387 10.0053 445.582 11.2C446.862 12.3093 447.502 13.7173 447.502 15.424C447.502 17.1307 446.862 18.5387 445.582 19.648C444.387 20.7573 442.937 21.2693 441.23 21.184C440.291 21.0133 439.31 20.928 438.286 20.928C437.262 20.8427 436.238 20.7573 435.214 20.672H434.958C434.361 20.672 434.062 21.0133 434.062 21.696V55.744C434.062 56.256 434.19 56.5973 434.446 56.768C434.787 56.8533 435.129 56.7253 435.47 56.384L472.462 22.08C472.718 21.824 472.846 21.568 472.846 21.312C472.846 20.9707 472.59 20.8 472.078 20.8C471.395 20.8 470.627 20.8853 469.774 21.056C468.921 21.1413 468.153 21.184 467.47 21.184C465.849 21.184 464.483 20.6293 463.374 19.52C462.265 18.4107 461.71 17.0453 461.71 15.424C461.71 13.7173 462.307 12.3093 463.502 11.2C464.782 10.0053 466.275 9.49333 467.982 9.66399C470.627 9.92 472.931 10.1333 474.894 10.304C476.857 10.3893 478.777 10.432 480.654 10.432C482.446 10.432 484.281 10.3893 486.158 10.304C488.035 10.1333 490.169 9.92 492.558 9.66399C494.265 9.49333 495.715 10.0053 496.91 11.2C498.105 12.3093 498.702 13.7173 498.702 15.424C498.702 17.0453 498.147 18.4107 497.038 19.52C496.014 20.6293 494.691 21.184 493.07 21.184C492.729 21.184 492.387 21.184 492.046 21.184C491.705 21.0987 491.406 21.056 491.15 21.056H490.766C490.339 21.056 489.955 21.2267 489.614 21.568L459.15 49.472C458.553 49.8987 458.51 50.4533 459.022 51.136L487.822 95.424C488.078 95.8507 488.419 96.064 488.846 96.064C489.87 96.064 490.851 96.0213 491.79 95.936C492.814 95.7653 493.753 95.6373 494.606 95.552ZM613.485 10.048C615.192 9.87733 616.642 10.3893 617.837 11.584C619.032 12.6933 619.629 14.1013 619.629 15.808C619.629 17.4293 619.032 18.7947 617.837 19.904C616.642 21.0133 615.234 21.5253 613.613 21.44L609.389 21.184C608.706 21.184 608.237 21.44 607.981 21.952L584.429 65.344C584.173 65.6853 584.045 66.1547 584.045 66.752V94.656C584.045 95.3387 584.344 95.68 584.941 95.68C585.965 95.68 586.946 95.6373 587.885 95.552C588.909 95.3813 589.89 95.2533 590.829 95.168C592.536 94.9973 593.986 95.5093 595.181 96.704C596.376 97.8133 596.973 99.2213 596.973 100.928C596.973 102.635 596.376 104.043 595.181 105.152C593.986 106.261 592.536 106.773 590.829 106.688C588.354 106.432 586.093 106.219 584.045 106.048C581.997 105.963 579.992 105.92 578.029 105.92C574.701 105.92 570.776 106.176 566.253 106.688C564.546 106.773 563.053 106.261 561.773 105.152C560.578 104.043 559.981 102.635 559.981 100.928C559.981 99.2213 560.578 97.8133 561.773 96.704C563.053 95.5093 564.546 94.9973 566.253 95.168C567.106 95.2533 568.002 95.3387 568.941 95.424C569.965 95.5093 570.946 95.5947 571.885 95.68H572.141C572.738 95.68 573.037 95.3387 573.037 94.656V67.52C573.037 66.9227 572.909 66.4533 572.653 66.112L548.973 21.824C548.717 21.312 548.333 21.056 547.821 21.056C546.968 21.056 546.114 21.1413 545.261 21.312C544.493 21.3973 543.682 21.44 542.829 21.44C541.293 21.44 539.97 20.928 538.861 19.904C537.752 18.7947 537.197 17.4293 537.197 15.808C537.197 14.1013 537.794 12.6933 538.989 11.584C540.184 10.3893 541.634 9.87733 543.341 10.048C545.816 10.304 547.906 10.5173 549.613 10.688C551.405 10.7733 553.069 10.816 554.605 10.816C556.312 10.816 558.061 10.7733 559.853 10.688C561.73 10.5173 563.992 10.304 566.637 10.048C568.344 9.87733 569.794 10.3893 570.989 11.584C572.269 12.6933 572.909 14.1013 572.909 15.808C572.909 17.4293 572.354 18.7947 571.245 19.904C570.136 20.928 568.813 21.44 567.277 21.44C566.424 21.44 565.57 21.3973 564.717 21.312C563.864 21.2267 563.01 21.1413 562.157 21.056H561.901C561.56 21.056 561.304 21.184 561.133 21.44C561.048 21.696 561.09 21.9947 561.261 22.336L577.773 54.336C577.944 54.7627 578.2 54.976 578.541 54.976C578.882 54.976 579.138 54.7627 579.309 54.336L595.821 22.336C595.906 22.1653 595.949 21.952 595.949 21.696C595.949 21.2693 595.693 21.056 595.181 21.056C594.242 21.056 593.304 21.1413 592.365 21.312C591.426 21.3973 590.488 21.44 589.549 21.44C588.013 21.44 586.69 20.928 585.581 19.904C584.472 18.7947 583.917 17.4293 583.917 15.808C583.917 14.1013 584.514 12.6933 585.709 11.584C586.989 10.3893 588.482 9.87733 590.189 10.048C592.664 10.304 594.754 10.5173 596.461 10.688C598.168 10.7733 599.832 10.816 601.453 10.816C603.16 10.816 604.909 10.7733 606.701 10.688C608.578 10.5173 610.84 10.304 613.485 10.048ZM666.004 9.66399C672.404 9.66399 678.42 10.944 684.052 13.504C689.684 15.9787 694.633 19.4773 698.9 24C703.167 28.4373 706.495 33.6 708.884 39.488C711.359 45.376 712.596 51.648 712.596 58.304C712.596 65.0453 711.359 71.36 708.884 77.248C706.495 83.136 703.167 88.3413 698.9 92.864C694.633 97.3013 689.684 100.8 684.052 103.36C678.42 105.835 672.404 107.072 666.004 107.072C659.604 107.072 653.588 105.835 647.956 103.36C642.324 100.8 637.375 97.3013 633.108 92.864C628.841 88.3413 625.471 83.136 622.996 77.248C620.607 71.36 619.412 65.0453 619.412 58.304C619.412 51.648 620.607 45.376 622.996 39.488C625.471 33.6 628.841 28.4373 633.108 24C637.375 19.4773 642.324 15.9787 647.956 13.504C653.588 10.944 659.604 9.66399 666.004 9.66399ZM666.004 95.424C672.745 95.424 678.719 93.8453 683.924 90.688C689.129 87.4453 693.225 83.0507 696.212 77.504C699.284 71.872 700.82 65.472 700.82 58.304C700.82 51.136 699.284 44.7787 696.212 39.232C693.225 33.6853 689.087 29.3333 683.796 26.176C678.591 22.9333 672.66 21.312 666.004 21.312C659.263 21.312 653.247 22.9333 647.956 26.176C642.751 29.3333 638.612 33.728 635.54 39.36C632.553 44.9067 631.06 51.2213 631.06 58.304C631.06 65.3867 632.553 71.744 635.54 77.376C638.612 83.008 642.793 87.4453 648.084 90.688C653.375 93.8453 659.348 95.424 666.004 95.424ZM800.549 9.66399C802.256 9.49333 803.706 10.0053 804.901 11.2C806.181 12.3093 806.821 13.7173 806.821 15.424C806.821 17.0453 806.266 18.4107 805.157 19.52C804.048 20.6293 802.682 21.184 801.061 21.184C800.378 21.184 799.61 21.1413 798.757 21.056C797.989 20.9707 797.178 20.8853 796.325 20.8H796.069C795.472 20.8 795.173 21.1413 795.173 21.824V70.72C795.173 78.144 793.85 84.5867 791.205 90.048C788.56 95.5093 784.762 99.7333 779.813 102.72C774.949 105.621 769.146 107.072 762.405 107.072C755.664 107.072 749.818 105.621 744.869 102.72C740.005 99.7333 736.25 95.5093 733.605 90.048C730.96 84.5867 729.637 78.144 729.637 70.72V21.824C729.637 21.1413 729.338 20.8 728.741 20.8C727.888 20.8 727.034 20.8853 726.181 21.056C725.413 21.1413 724.602 21.184 723.749 21.184C722.128 21.184 720.762 20.6293 719.653 19.52C718.544 18.4107 717.989 17.0453 717.989 15.424C717.989 13.7173 718.586 12.3093 719.781 11.2C721.061 10.0053 722.554 9.49333 724.261 9.66399C726.736 9.92 728.869 10.1333 730.661 10.304C732.453 10.3893 734.202 10.432 735.909 10.432C737.616 10.432 739.365 10.3893 741.157 10.304C743.034 10.1333 745.168 9.92 747.557 9.66399C749.264 9.49333 750.714 10.0053 751.909 11.2C753.104 12.3093 753.701 13.7173 753.701 15.424C753.701 17.1307 753.104 18.5387 751.909 19.648C750.714 20.7573 749.264 21.2693 747.557 21.184C746.704 21.0133 745.808 20.928 744.869 20.928C743.93 20.8427 742.992 20.7573 742.053 20.672H741.797C741.2 20.672 740.901 21.0133 740.901 21.696V70.848C740.901 72.128 740.986 73.792 741.157 75.84C741.413 77.888 741.882 80.1067 742.565 82.496C743.333 84.8 744.485 87.0187 746.021 89.152C747.642 91.2 749.776 92.9067 752.421 94.272C755.066 95.552 758.394 96.192 762.405 96.192C766.501 96.192 769.872 95.552 772.517 94.272C775.162 92.9067 777.253 91.1573 778.789 89.024C780.325 86.8907 781.434 84.672 782.117 82.368C782.885 79.9787 783.354 77.76 783.525 75.712C783.781 73.664 783.909 72.0427 783.909 70.848V21.696C783.909 21.0133 783.61 20.672 783.013 20.672C781.989 20.672 781.008 20.7147 780.069 20.8C779.13 20.8853 778.192 21.0133 777.253 21.184C775.632 21.2693 774.181 20.7573 772.901 19.648C771.706 18.5387 771.109 17.1307 771.109 15.424C771.109 13.7173 771.706 12.3093 772.901 11.2C774.181 10.0053 775.632 9.49333 777.253 9.66399C779.728 9.92 781.861 10.1333 783.653 10.304C785.53 10.3893 787.28 10.432 788.901 10.432C790.608 10.432 792.357 10.3893 794.149 10.304C796.026 10.1333 798.16 9.92 800.549 9.66399Z" fill="#FFA900"/>
<path d="M35.28 135.256C35.344 135.864 35.152 136.408 34.704 136.888C34.256 137.368 33.696 137.608 33.024 137.608C32.384 137.608 31.84 137.4 31.392 136.984C30.976 136.536 30.768 136.008 30.768 135.4C30.768 135.016 30.784 134.6 30.816 134.152C30.88 133.672 30.928 133.208 30.96 132.76C30.96 132.472 30.816 132.328 30.528 132.328H17.136C16.848 132.328 16.704 132.472 16.704 132.76V142.648C16.704 142.936 16.848 143.08 17.136 143.08H28.896C29.472 143.08 29.968 143.288 30.384 143.704C30.8 144.12 31.008 144.616 31.008 145.192C31.008 145.768 30.8 146.264 30.384 146.68C29.968 147.064 29.472 147.256 28.896 147.256H17.136C16.848 147.256 16.704 147.4 16.704 147.688V159.64C16.704 159.896 16.816 160.024 17.04 160.024C17.488 160.024 17.92 160.008 18.336 159.976C18.784 159.912 19.216 159.864 19.632 159.832C20.272 159.768 20.816 159.96 21.264 160.408C21.744 160.824 21.984 161.352 21.984 161.992C21.984 162.632 21.744 163.16 21.264 163.576C20.816 163.992 20.272 164.184 19.632 164.152C18.736 164.056 17.936 163.976 17.232 163.912C16.56 163.88 15.904 163.864 15.264 163.864C14.656 163.864 14 163.88 13.296 163.912C12.624 163.976 11.824 164.056 10.896 164.152C10.288 164.184 9.744 163.992 9.264 163.576C8.816 163.16 8.592 162.632 8.592 161.992C8.592 161.352 8.816 160.824 9.264 160.408C9.744 159.96 10.288 159.768 10.896 159.832L11.952 159.928H12.048C12.272 159.928 12.384 159.8 12.384 159.544V132.376C12.384 132.088 12.256 131.944 12 131.944C11.808 131.944 11.616 131.976 11.424 132.04C11.232 132.072 11.024 132.088 10.8 132.088C10.192 132.088 9.664 131.88 9.216 131.464C8.8 131.016 8.592 130.488 8.592 129.88C8.592 129.208 8.832 128.664 9.312 128.248C9.824 127.8 10.416 127.608 11.088 127.672C11.728 127.768 12.384 127.864 13.056 127.96C13.728 128.024 14.384 128.056 15.024 128.056H31.728C32.592 128.056 33.344 128.36 33.984 128.968C34.624 129.576 34.96 130.328 34.992 131.224L35.28 135.256ZM54.3765 127.624C56.7765 127.624 59.0325 128.104 61.1445 129.064C63.2565 129.992 65.1125 131.304 66.7125 133C68.3125 134.664 69.5605 136.6 70.4565 138.808C71.3845 141.016 71.8485 143.368 71.8485 145.864C71.8485 148.392 71.3845 150.76 70.4565 152.968C69.5605 155.176 68.3125 157.128 66.7125 158.824C65.1125 160.488 63.2565 161.8 61.1445 162.76C59.0325 163.688 56.7765 164.152 54.3765 164.152C51.9765 164.152 49.7205 163.688 47.6085 162.76C45.4965 161.8 43.6405 160.488 42.0405 158.824C40.4405 157.128 39.1765 155.176 38.2485 152.968C37.3525 150.76 36.9045 148.392 36.9045 145.864C36.9045 143.368 37.3525 141.016 38.2485 138.808C39.1765 136.6 40.4405 134.664 42.0405 133C43.6405 131.304 45.4965 129.992 47.6085 129.064C49.7205 128.104 51.9765 127.624 54.3765 127.624ZM54.3765 159.784C56.9045 159.784 59.1445 159.192 61.0965 158.008C63.0485 156.792 64.5845 155.144 65.7045 153.064C66.8565 150.952 67.4325 148.552 67.4325 145.864C67.4325 143.176 66.8565 140.792 65.7045 138.712C64.5845 136.632 63.0325 135 61.0485 133.816C59.0965 132.6 56.8725 131.992 54.3765 131.992C51.8485 131.992 49.5925 132.6 47.6085 133.816C45.6565 135 44.1045 136.648 42.9525 138.76C41.8325 140.84 41.2725 143.208 41.2725 145.864C41.2725 148.52 41.8325 150.904 42.9525 153.016C44.1045 155.128 45.6725 156.792 47.6565 158.008C49.6405 159.192 51.8805 159.784 54.3765 159.784ZM107.414 159.832C108.054 159.768 108.598 159.96 109.046 160.408C109.526 160.824 109.766 161.352 109.766 161.992C109.766 162.632 109.526 163.16 109.046 163.576C108.598 163.992 108.054 164.184 107.414 164.152C107.286 164.12 106.774 164.056 105.878 163.96C104.982 163.864 104.118 163.816 103.286 163.816C101.91 163.816 100.854 163.24 100.118 162.088L92.1495 149.944C92.0535 149.752 91.8775 149.656 91.6215 149.656H85.8615C85.5735 149.656 85.4295 149.8 85.4295 150.088V159.64C85.4295 159.896 85.5415 160.024 85.7655 160.024C86.1815 160.024 86.5815 160.008 86.9655 159.976C87.3495 159.912 87.7335 159.864 88.1175 159.832C88.7575 159.768 89.3015 159.96 89.7495 160.408C90.1975 160.824 90.4215 161.352 90.4215 161.992C90.4215 162.632 90.1975 163.16 89.7495 163.576C89.3015 163.992 88.7575 164.184 88.1175 164.152C87.2215 164.056 86.4215 163.976 85.7175 163.912C85.0455 163.88 84.3895 163.864 83.7495 163.864C83.1095 163.864 82.4535 163.88 81.7815 163.912C81.1095 163.976 80.3095 164.056 79.3815 164.152C78.7415 164.184 78.1815 163.992 77.7015 163.576C77.2535 163.16 77.0295 162.632 77.0295 161.992C77.0295 161.352 77.2375 160.84 77.6535 160.456C78.0695 160.04 78.5815 159.832 79.1895 159.832C79.4135 159.832 79.6375 159.848 79.8615 159.88C80.1175 159.912 80.3895 159.944 80.6775 159.976H80.7735C80.9975 159.976 81.1095 159.848 81.1095 159.592V132.376C81.1095 132.056 80.9655 131.928 80.6775 131.992L79.5255 132.088C78.8855 132.184 78.3095 132.024 77.7975 131.608C77.2855 131.16 77.0295 130.6 77.0295 129.928C77.0295 129.224 77.2695 128.664 77.7495 128.248C78.2615 127.8 78.8535 127.608 79.5255 127.672C80.1655 127.768 80.8215 127.864 81.4935 127.96C82.1975 128.024 82.8695 128.056 83.5095 128.056L92.2935 128.104C96.4855 128.136 99.7495 129.096 102.086 130.984C104.454 132.84 105.638 135.464 105.638 138.856C105.638 141.512 104.902 143.736 103.43 145.528C101.99 147.288 99.9415 148.488 97.2855 149.128C96.9335 149.192 96.8535 149.368 97.0455 149.656L103.67 159.832C103.766 160.024 103.958 160.12 104.246 160.12C105.366 160.056 106.422 159.96 107.414 159.832ZM92.8215 132.232H85.8615C85.5735 132.232 85.4295 132.376 85.4295 132.664V145C85.4295 145.288 85.5735 145.432 85.8615 145.432H92.8215C98.6135 145.432 101.51 143.24 101.51 138.856C101.51 134.44 98.6135 132.232 92.8215 132.232ZM151.963 127.768C152.603 127.704 153.147 127.896 153.595 128.344C154.043 128.76 154.267 129.288 154.267 129.928C154.267 130.536 154.043 131.048 153.595 131.464C153.147 131.88 152.619 132.072 152.011 132.04L150.427 131.944C150.171 131.944 149.995 132.04 149.899 132.232L141.067 148.504C140.971 148.632 140.923 148.808 140.923 149.032V159.496C140.923 159.752 141.035 159.88 141.259 159.88C141.643 159.88 142.011 159.864 142.363 159.832C142.747 159.768 143.115 159.72 143.467 159.688C144.107 159.624 144.651 159.816 145.099 160.264C145.547 160.68 145.771 161.208 145.771 161.848C145.771 162.488 145.547 163.016 145.099 163.432C144.651 163.848 144.107 164.04 143.467 164.008C142.539 163.912 141.691 163.832 140.923 163.768C140.155 163.736 139.403 163.72 138.667 163.72C137.419 163.72 135.947 163.816 134.251 164.008C133.611 164.04 133.051 163.848 132.571 163.432C132.123 163.016 131.899 162.488 131.899 161.848C131.899 161.208 132.123 160.68 132.571 160.264C133.051 159.816 133.611 159.624 134.251 159.688C134.571 159.72 134.907 159.752 135.259 159.784C135.643 159.816 136.011 159.848 136.363 159.88H136.459C136.683 159.88 136.795 159.752 136.795 159.496V149.32C136.795 149.096 136.747 148.92 136.651 148.792L127.771 132.184C127.675 131.992 127.531 131.896 127.339 131.896C127.019 131.896 126.699 131.928 126.379 131.992C126.091 132.024 125.787 132.04 125.467 132.04C124.891 132.04 124.395 131.848 123.979 131.464C123.563 131.048 123.355 130.536 123.355 129.928C123.355 129.288 123.579 128.76 124.027 128.344C124.475 127.896 125.019 127.704 125.659 127.768C126.587 127.864 127.371 127.944 128.011 128.008C128.683 128.04 129.307 128.056 129.883 128.056C130.523 128.056 131.179 128.04 131.851 128.008C132.555 127.944 133.403 127.864 134.395 127.768C135.035 127.704 135.579 127.896 136.027 128.344C136.507 128.76 136.747 129.288 136.747 129.928C136.747 130.536 136.539 131.048 136.123 131.464C135.707 131.848 135.211 132.04 134.635 132.04C134.315 132.04 133.995 132.024 133.675 131.992C133.355 131.96 133.035 131.928 132.715 131.896H132.619C132.491 131.896 132.395 131.944 132.331 132.04C132.299 132.136 132.315 132.248 132.379 132.376L138.571 144.376C138.635 144.536 138.731 144.616 138.859 144.616C138.987 144.616 139.083 144.536 139.147 144.376L145.339 132.376C145.371 132.312 145.387 132.232 145.387 132.136C145.387 131.976 145.291 131.896 145.099 131.896C144.747 131.896 144.395 131.928 144.043 131.992C143.691 132.024 143.339 132.04 142.987 132.04C142.411 132.04 141.915 131.848 141.499 131.464C141.083 131.048 140.875 130.536 140.875 129.928C140.875 129.288 141.099 128.76 141.547 128.344C142.027 127.896 142.587 127.704 143.227 127.768C144.155 127.864 144.939 127.944 145.579 128.008C146.219 128.04 146.843 128.056 147.451 128.056C148.091 128.056 148.747 128.04 149.419 128.008C150.123 127.944 150.971 127.864 151.963 127.768ZM171.658 127.624C174.058 127.624 176.314 128.104 178.426 129.064C180.538 129.992 182.394 131.304 183.994 133C185.594 134.664 186.842 136.6 187.738 138.808C188.666 141.016 189.13 143.368 189.13 145.864C189.13 148.392 188.666 150.76 187.738 152.968C186.842 155.176 185.594 157.128 183.994 158.824C182.394 160.488 180.538 161.8 178.426 162.76C176.314 163.688 174.058 164.152 171.658 164.152C169.258 164.152 167.002 163.688 164.89 162.76C162.778 161.8 160.922 160.488 159.322 158.824C157.722 157.128 156.458 155.176 155.53 152.968C154.634 150.76 154.186 148.392 154.186 145.864C154.186 143.368 154.634 141.016 155.53 138.808C156.458 136.6 157.722 134.664 159.322 133C160.922 131.304 162.778 129.992 164.89 129.064C167.002 128.104 169.258 127.624 171.658 127.624ZM171.658 159.784C174.186 159.784 176.426 159.192 178.378 158.008C180.33 156.792 181.866 155.144 182.986 153.064C184.138 150.952 184.714 148.552 184.714 145.864C184.714 143.176 184.138 140.792 182.986 138.712C181.866 136.632 180.314 135 178.33 133.816C176.378 132.6 174.154 131.992 171.658 131.992C169.13 131.992 166.874 132.6 164.89 133.816C162.938 135 161.386 136.648 160.234 138.76C159.114 140.84 158.554 143.208 158.554 145.864C158.554 148.52 159.114 150.904 160.234 153.016C161.386 155.128 162.954 156.792 164.938 158.008C166.922 159.192 169.162 159.784 171.658 159.784ZM222.112 127.624C222.752 127.56 223.296 127.752 223.744 128.2C224.224 128.616 224.464 129.144 224.464 129.784C224.464 130.392 224.256 130.904 223.84 131.32C223.424 131.736 222.912 131.944 222.304 131.944C222.048 131.944 221.76 131.928 221.44 131.896C221.152 131.864 220.848 131.832 220.528 131.8H220.432C220.208 131.8 220.096 131.928 220.096 132.184V150.52C220.096 153.304 219.6 155.72 218.608 157.768C217.616 159.816 216.192 161.4 214.336 162.52C212.512 163.608 210.336 164.152 207.808 164.152C205.28 164.152 203.088 163.608 201.232 162.52C199.408 161.4 198 159.816 197.008 157.768C196.016 155.72 195.52 153.304 195.52 150.52V132.184C195.52 131.928 195.408 131.8 195.184 131.8C194.864 131.8 194.544 131.832 194.224 131.896C193.936 131.928 193.632 131.944 193.312 131.944C192.704 131.944 192.192 131.736 191.776 131.32C191.36 130.904 191.152 130.392 191.152 129.784C191.152 129.144 191.376 128.616 191.824 128.2C192.304 127.752 192.864 127.56 193.504 127.624C194.432 127.72 195.232 127.8 195.904 127.864C196.576 127.896 197.232 127.912 197.872 127.912C198.512 127.912 199.168 127.896 199.84 127.864C200.544 127.8 201.344 127.72 202.24 127.624C202.88 127.56 203.424 127.752 203.872 128.2C204.32 128.616 204.544 129.144 204.544 129.784C204.544 130.424 204.32 130.952 203.872 131.368C203.424 131.784 202.88 131.976 202.24 131.944C201.92 131.88 201.584 131.848 201.232 131.848C200.88 131.816 200.528 131.784 200.176 131.752H200.08C199.856 131.752 199.744 131.88 199.744 132.136V150.568C199.744 151.048 199.776 151.672 199.84 152.44C199.936 153.208 200.112 154.04 200.368 154.936C200.656 155.8 201.088 156.632 201.664 157.432C202.272 158.2 203.072 158.84 204.064 159.352C205.056 159.832 206.304 160.072 207.808 160.072C209.344 160.072 210.608 159.832 211.6 159.352C212.592 158.84 213.376 158.184 213.952 157.384C214.528 156.584 214.944 155.752 215.2 154.888C215.488 153.992 215.664 153.16 215.728 152.392C215.824 151.624 215.872 151.016 215.872 150.568V132.136C215.872 131.88 215.76 131.752 215.536 131.752C215.152 131.752 214.784 131.768 214.432 131.8C214.08 131.832 213.728 131.88 213.376 131.944C212.768 131.976 212.224 131.784 211.744 131.368C211.296 130.952 211.072 130.424 211.072 129.784C211.072 129.144 211.296 128.616 211.744 128.2C212.224 127.752 212.768 127.56 213.376 127.624C214.304 127.72 215.104 127.8 215.776 127.864C216.48 127.896 217.136 127.912 217.744 127.912C218.384 127.912 219.04 127.896 219.712 127.864C220.416 127.8 221.216 127.72 222.112 127.624ZM259.242 159.832C259.882 159.768 260.426 159.96 260.874 160.408C261.354 160.824 261.594 161.352 261.594 161.992C261.594 162.632 261.354 163.16 260.874 163.576C260.426 163.992 259.882 164.184 259.242 164.152C259.114 164.12 258.602 164.056 257.706 163.96C256.81 163.864 255.946 163.816 255.114 163.816C253.738 163.816 252.682 163.24 251.946 162.088L243.978 149.944C243.882 149.752 243.706 149.656 243.45 149.656H237.69C237.402 149.656 237.258 149.8 237.258 150.088V159.64C237.258 159.896 237.37 160.024 237.594 160.024C238.01 160.024 238.41 160.008 238.794 159.976C239.178 159.912 239.562 159.864 239.946 159.832C240.586 159.768 241.13 159.96 241.578 160.408C242.026 160.824 242.25 161.352 242.25 161.992C242.25 162.632 242.026 163.16 241.578 163.576C241.13 163.992 240.586 164.184 239.946 164.152C239.05 164.056 238.25 163.976 237.546 163.912C236.874 163.88 236.218 163.864 235.578 163.864C234.938 163.864 234.282 163.88 233.61 163.912C232.938 163.976 232.138 164.056 231.21 164.152C230.57 164.184 230.01 163.992 229.53 163.576C229.082 163.16 228.858 162.632 228.858 161.992C228.858 161.352 229.066 160.84 229.482 160.456C229.898 160.04 230.41 159.832 231.018 159.832C231.242 159.832 231.466 159.848 231.69 159.88C231.946 159.912 232.218 159.944 232.506 159.976H232.602C232.826 159.976 232.938 159.848 232.938 159.592V132.376C232.938 132.056 232.794 131.928 232.506 131.992L231.354 132.088C230.714 132.184 230.138 132.024 229.626 131.608C229.114 131.16 228.858 130.6 228.858 129.928C228.858 129.224 229.098 128.664 229.578 128.248C230.09 127.8 230.682 127.608 231.354 127.672C231.994 127.768 232.65 127.864 233.322 127.96C234.026 128.024 234.698 128.056 235.338 128.056L244.122 128.104C248.314 128.136 251.578 129.096 253.914 130.984C256.282 132.84 257.466 135.464 257.466 138.856C257.466 141.512 256.73 143.736 255.258 145.528C253.818 147.288 251.77 148.488 249.114 149.128C248.762 149.192 248.682 149.368 248.874 149.656L255.498 159.832C255.594 160.024 255.786 160.12 256.074 160.12C257.194 160.056 258.25 159.96 259.242 159.832ZM244.65 132.232H237.69C237.402 132.232 237.258 132.376 237.258 132.664V145C237.258 145.288 237.402 145.432 237.69 145.432H244.65C250.442 145.432 253.338 143.24 253.338 138.856C253.338 134.44 250.442 132.232 244.65 132.232ZM288.191 159.832C288.831 159.768 289.375 159.96 289.823 160.408C290.303 160.824 290.543 161.352 290.543 161.992C290.543 162.632 290.303 163.16 289.823 163.576C289.375 163.992 288.831 164.184 288.191 164.152C287.295 164.056 286.463 163.976 285.695 163.912C284.927 163.88 284.175 163.864 283.439 163.864C282.159 163.864 280.671 163.96 278.975 164.152C278.335 164.184 277.775 163.992 277.295 163.576C276.847 163.16 276.623 162.632 276.623 161.992C276.623 161.352 276.847 160.824 277.295 160.408C277.775 159.96 278.335 159.768 278.975 159.832C279.295 159.864 279.631 159.896 279.983 159.928C280.335 159.96 280.687 159.992 281.039 160.024H281.135C281.359 160.024 281.471 159.896 281.471 159.64V132.136C281.471 131.88 281.359 131.752 281.135 131.752C280.751 131.752 280.383 131.768 280.031 131.8C279.679 131.832 279.327 131.88 278.975 131.944C278.335 131.976 277.775 131.784 277.295 131.368C276.847 130.952 276.623 130.424 276.623 129.784C276.623 129.144 276.847 128.616 277.295 128.2C277.775 127.752 278.335 127.56 278.975 127.624C279.903 127.72 280.735 127.8 281.471 127.864C282.239 127.896 282.991 127.912 283.727 127.912C284.975 127.912 286.463 127.816 288.191 127.624C288.831 127.56 289.375 127.752 289.823 128.2C290.303 128.616 290.543 129.144 290.543 129.784C290.543 130.424 290.303 130.952 289.823 131.368C289.375 131.784 288.831 131.976 288.191 131.944C287.871 131.88 287.551 131.848 287.231 131.848C286.911 131.816 286.575 131.784 286.223 131.752H286.127C285.903 131.752 285.791 131.88 285.791 132.136V159.64C285.791 159.896 285.919 160.024 286.175 160.024C286.495 160.024 286.831 160.008 287.183 159.976C287.535 159.912 287.871 159.864 288.191 159.832ZM328.196 127.624C328.836 127.56 329.38 127.752 329.828 128.2C330.276 128.616 330.5 129.144 330.5 129.784C330.5 130.392 330.292 130.904 329.876 131.32C329.46 131.736 328.964 131.944 328.388 131.944C328.164 131.944 327.924 131.928 327.668 131.896C327.444 131.864 327.188 131.832 326.9 131.8H326.804C326.58 131.8 326.468 131.928 326.468 132.184V161.32C326.468 162.024 326.228 162.616 325.748 163.096C325.268 163.608 324.66 163.864 323.924 163.864C322.836 163.864 321.972 163.4 321.332 162.472L304.58 136.744C304.484 136.584 304.388 136.504 304.292 136.504C304.132 136.504 304.052 136.632 304.052 136.888V159.64C304.052 159.896 304.164 160.024 304.388 160.024C304.836 160.024 305.252 160.008 305.636 159.976C306.052 159.912 306.436 159.864 306.788 159.832C307.428 159.768 307.972 159.96 308.42 160.408C308.9 160.824 309.14 161.352 309.14 161.992C309.14 162.632 308.9 163.16 308.42 163.576C307.972 163.992 307.428 164.184 306.788 164.152C305.892 164.056 305.092 163.976 304.388 163.912C303.716 163.88 303.06 163.864 302.42 163.864C301.812 163.864 301.156 163.88 300.452 163.912C299.78 163.976 298.98 164.056 298.052 164.152C297.444 164.184 296.9 163.992 296.42 163.576C295.972 163.16 295.748 162.632 295.748 161.992C295.748 161.352 295.956 160.84 296.372 160.456C296.788 160.04 297.284 159.832 297.86 159.832C298.084 159.832 298.308 159.848 298.532 159.88C298.788 159.912 299.06 159.944 299.348 159.976H299.444C299.668 159.976 299.78 159.848 299.78 159.592V132.424C299.78 132.104 299.62 131.976 299.3 132.04L298.34 132.232C297.636 132.328 297.028 132.152 296.516 131.704C296.004 131.224 295.748 130.632 295.748 129.928C295.748 129.224 296.004 128.648 296.516 128.2C297.06 127.752 297.668 127.576 298.34 127.672C298.82 127.768 299.268 127.848 299.684 127.912C300.132 127.944 300.532 127.992 300.884 128.056C302.964 128.152 304.516 129 305.54 130.6L321.668 155.656C321.764 155.816 321.86 155.896 321.956 155.896C322.116 155.896 322.196 155.768 322.196 155.512V132.136C322.196 131.88 322.084 131.752 321.86 131.752C321.444 131.752 321.028 131.768 320.612 131.8C320.196 131.832 319.812 131.88 319.46 131.944C318.82 131.976 318.26 131.784 317.78 131.368C317.332 130.952 317.108 130.424 317.108 129.784C317.108 129.144 317.332 128.616 317.78 128.2C318.26 127.752 318.82 127.56 319.46 127.624C320.388 127.72 321.188 127.8 321.86 127.864C322.532 127.896 323.188 127.912 323.828 127.912C324.468 127.912 325.124 127.896 325.796 127.864C326.5 127.8 327.3 127.72 328.196 127.624ZM363.492 136.216C363.556 136.824 363.364 137.368 362.916 137.848C362.468 138.328 361.908 138.568 361.236 138.568C360.564 138.568 360.004 138.328 359.556 137.848C359.14 137.368 358.948 136.824 358.98 136.216L359.22 132.712C359.22 132.424 359.092 132.28 358.836 132.28H351.828C351.54 132.28 351.396 132.424 351.396 132.712V159.64C351.396 159.896 351.508 160.024 351.732 160.024C352.116 160.024 352.484 160.008 352.836 159.976C353.22 159.912 353.572 159.864 353.892 159.832C354.532 159.768 355.076 159.96 355.524 160.408C355.972 160.824 356.196 161.352 356.196 161.992C356.196 162.6 355.972 163.112 355.524 163.528C355.076 163.944 354.532 164.136 353.892 164.104C352.964 164.008 352.228 163.944 351.684 163.912C351.172 163.88 350.74 163.848 350.388 163.816C350.036 163.816 349.652 163.816 349.236 163.816C348.788 163.816 348.388 163.816 348.036 163.816C347.684 163.848 347.252 163.88 346.74 163.912C346.26 163.944 345.556 164.008 344.628 164.104C344.02 164.136 343.476 163.944 342.996 163.528C342.548 163.112 342.324 162.6 342.324 161.992C342.324 161.352 342.548 160.824 342.996 160.408C343.476 159.96 344.02 159.768 344.628 159.832C344.948 159.864 345.284 159.896 345.636 159.928C345.988 159.96 346.34 159.992 346.692 160.024H346.788C347.012 160.024 347.124 159.896 347.124 159.64V132.712C347.124 132.424 346.98 132.28 346.692 132.28H339.636C339.38 132.28 339.252 132.424 339.252 132.712L339.492 136.216C339.556 136.824 339.364 137.368 338.916 137.848C338.468 138.328 337.908 138.568 337.236 138.568C336.564 138.568 336.004 138.328 335.556 137.848C335.14 137.368 334.948 136.824 334.98 136.216C335.044 135.48 335.108 134.68 335.172 133.816C335.236 132.952 335.284 132.088 335.316 131.224C335.38 130.328 335.716 129.576 336.324 128.968C336.964 128.36 337.716 128.056 338.58 128.056H359.94C360.772 128.056 361.508 128.36 362.148 128.968C362.788 129.576 363.124 130.328 363.156 131.224C363.22 132.088 363.284 132.952 363.348 133.816C363.412 134.68 363.46 135.48 363.492 136.216ZM393.024 154.168C393.696 154.168 394.256 154.408 394.704 154.888C395.152 155.336 395.344 155.88 395.28 156.52L394.992 160.552C394.96 161.448 394.624 162.2 393.984 162.808C393.344 163.416 392.592 163.72 391.728 163.72H374.736C374.16 163.72 373.552 163.768 372.912 163.864C372.304 163.96 371.712 164.04 371.136 164.104C370.464 164.2 369.872 164.024 369.36 163.576C368.848 163.128 368.592 162.552 368.592 161.848C368.592 161.144 368.848 160.584 369.36 160.168C369.872 159.72 370.464 159.544 371.136 159.64C371.232 159.672 371.344 159.688 371.472 159.688C371.6 159.688 371.744 159.704 371.904 159.736H372C372.256 159.736 372.384 159.608 372.384 159.352V132.376C372.384 132.088 372.256 131.944 372 131.944C371.872 131.944 371.728 131.976 371.568 132.04C371.44 132.072 371.296 132.104 371.136 132.136C370.464 132.232 369.872 132.072 369.36 131.656C368.848 131.208 368.592 130.632 368.592 129.928C368.592 129.224 368.848 128.648 369.36 128.2C369.872 127.752 370.464 127.576 371.136 127.672C371.776 127.736 372.432 127.816 373.104 127.912C373.776 128.008 374.416 128.056 375.024 128.056H391.728C392.592 128.056 393.344 128.36 393.984 128.968C394.624 129.576 394.96 130.328 394.992 131.224L395.28 135.256C395.344 135.864 395.152 136.408 394.704 136.888C394.256 137.368 393.696 137.608 393.024 137.608C392.384 137.608 391.84 137.4 391.392 136.984C390.976 136.536 390.768 136.008 390.768 135.4C390.768 135.016 390.784 134.6 390.816 134.152C390.88 133.672 390.928 133.208 390.96 132.76C390.96 132.472 390.816 132.328 390.528 132.328H377.136C376.848 132.328 376.704 132.472 376.704 132.76V142.648C376.704 142.936 376.848 143.08 377.136 143.08H388.896C389.472 143.08 389.968 143.288 390.384 143.704C390.8 144.12 391.008 144.616 391.008 145.192C391.008 145.768 390.8 146.264 390.384 146.68C389.968 147.064 389.472 147.256 388.896 147.256H377.136C376.848 147.256 376.704 147.4 376.704 147.688V159.016C376.704 159.304 376.848 159.448 377.136 159.448H390.528C390.816 159.448 390.96 159.304 390.96 159.016C390.928 158.536 390.88 158.088 390.816 157.672C390.784 157.224 390.768 156.792 390.768 156.376C390.768 155.768 390.976 155.256 391.392 154.84C391.84 154.392 392.384 154.168 393.024 154.168ZM431.601 159.832C432.241 159.768 432.785 159.96 433.233 160.408C433.713 160.824 433.953 161.352 433.953 161.992C433.953 162.632 433.713 163.16 433.233 163.576C432.785 163.992 432.241 164.184 431.601 164.152C431.473 164.12 430.961 164.056 430.065 163.96C429.169 163.864 428.305 163.816 427.473 163.816C426.097 163.816 425.041 163.24 424.305 162.088L416.337 149.944C416.241 149.752 416.065 149.656 415.809 149.656H410.049C409.761 149.656 409.617 149.8 409.617 150.088V159.64C409.617 159.896 409.729 160.024 409.953 160.024C410.369 160.024 410.769 160.008 411.153 159.976C411.537 159.912 411.921 159.864 412.305 159.832C412.945 159.768 413.489 159.96 413.937 160.408C414.385 160.824 414.609 161.352 414.609 161.992C414.609 162.632 414.385 163.16 413.937 163.576C413.489 163.992 412.945 164.184 412.305 164.152C411.409 164.056 410.609 163.976 409.905 163.912C409.233 163.88 408.577 163.864 407.937 163.864C407.297 163.864 406.641 163.88 405.969 163.912C405.297 163.976 404.497 164.056 403.569 164.152C402.929 164.184 402.369 163.992 401.889 163.576C401.441 163.16 401.217 162.632 401.217 161.992C401.217 161.352 401.425 160.84 401.841 160.456C402.257 160.04 402.769 159.832 403.377 159.832C403.601 159.832 403.825 159.848 404.049 159.88C404.305 159.912 404.577 159.944 404.865 159.976H404.961C405.185 159.976 405.297 159.848 405.297 159.592V132.376C405.297 132.056 405.153 131.928 404.865 131.992L403.713 132.088C403.073 132.184 402.497 132.024 401.985 131.608C401.473 131.16 401.217 130.6 401.217 129.928C401.217 129.224 401.457 128.664 401.937 128.248C402.449 127.8 403.041 127.608 403.713 127.672C404.353 127.768 405.009 127.864 405.681 127.96C406.385 128.024 407.057 128.056 407.697 128.056L416.481 128.104C420.673 128.136 423.937 129.096 426.273 130.984C428.641 132.84 429.825 135.464 429.825 138.856C429.825 141.512 429.089 143.736 427.617 145.528C426.177 147.288 424.129 148.488 421.473 149.128C421.121 149.192 421.041 149.368 421.233 149.656L427.857 159.832C427.953 160.024 428.145 160.12 428.433 160.12C429.553 160.056 430.609 159.96 431.601 159.832ZM417.009 132.232H410.049C409.761 132.232 409.617 132.376 409.617 132.664V145C409.617 145.288 409.761 145.432 410.049 145.432H417.009C422.801 145.432 425.697 143.24 425.697 138.856C425.697 134.44 422.801 132.232 417.009 132.232ZM461.415 154.168C462.087 154.168 462.647 154.408 463.095 154.888C463.543 155.336 463.735 155.88 463.671 156.52L463.383 160.552C463.351 161.448 463.015 162.2 462.375 162.808C461.735 163.416 460.983 163.72 460.119 163.72H443.127C442.551 163.72 441.943 163.768 441.303 163.864C440.695 163.96 440.103 164.04 439.527 164.104C438.855 164.2 438.263 164.024 437.751 163.576C437.239 163.128 436.983 162.552 436.983 161.848C436.983 161.144 437.239 160.584 437.751 160.168C438.263 159.72 438.855 159.544 439.527 159.64C439.623 159.672 439.735 159.688 439.863 159.688C439.991 159.688 440.135 159.704 440.295 159.736H440.391C440.647 159.736 440.775 159.608 440.775 159.352V132.376C440.775 132.088 440.647 131.944 440.391 131.944C440.263 131.944 440.119 131.976 439.959 132.04C439.831 132.072 439.687 132.104 439.527 132.136C438.855 132.232 438.263 132.072 437.751 131.656C437.239 131.208 436.983 130.632 436.983 129.928C436.983 129.224 437.239 128.648 437.751 128.2C438.263 127.752 438.855 127.576 439.527 127.672C440.167 127.736 440.823 127.816 441.495 127.912C442.167 128.008 442.807 128.056 443.415 128.056H460.119C460.983 128.056 461.735 128.36 462.375 128.968C463.015 129.576 463.351 130.328 463.383 131.224L463.671 135.256C463.735 135.864 463.543 136.408 463.095 136.888C462.647 137.368 462.087 137.608 461.415 137.608C460.775 137.608 460.231 137.4 459.783 136.984C459.367 136.536 459.159 136.008 459.159 135.4C459.159 135.016 459.175 134.6 459.207 134.152C459.271 133.672 459.319 133.208 459.351 132.76C459.351 132.472 459.207 132.328 458.919 132.328H445.527C445.239 132.328 445.095 132.472 445.095 132.76V142.648C445.095 142.936 445.239 143.08 445.527 143.08H457.287C457.863 143.08 458.359 143.288 458.775 143.704C459.191 144.12 459.399 144.616 459.399 145.192C459.399 145.768 459.191 146.264 458.775 146.68C458.359 147.064 457.863 147.256 457.287 147.256H445.527C445.239 147.256 445.095 147.4 445.095 147.688V159.016C445.095 159.304 445.239 159.448 445.527 159.448H458.919C459.207 159.448 459.351 159.304 459.351 159.016C459.319 158.536 459.271 158.088 459.207 157.672C459.175 157.224 459.159 156.792 459.159 156.376C459.159 155.768 459.367 155.256 459.783 154.84C460.231 154.392 460.775 154.168 461.415 154.168ZM476.232 137.128C476.136 138.344 476.392 139.336 477 140.104C477.64 140.84 478.504 141.464 479.592 141.976C480.712 142.488 481.944 142.952 483.288 143.368C484.632 143.784 485.976 144.248 487.32 144.76C488.664 145.24 489.896 145.864 491.016 146.632C492.168 147.368 493.08 148.328 493.752 149.512C494.456 150.664 494.808 152.136 494.808 153.928C494.808 155.88 494.28 157.624 493.224 159.16C492.2 160.696 490.776 161.912 488.952 162.808C487.128 163.704 485.064 164.152 482.76 164.152C479.88 164.152 477.48 163.64 475.56 162.616C473.64 161.56 472.152 160.408 471.096 159.16C470.296 158.232 469.896 157.24 469.896 156.184C469.896 155.288 470.184 154.52 470.76 153.88C471.336 153.24 472.168 152.92 473.256 152.92C474.152 152.92 474.888 153.256 475.464 153.928C476.072 154.6 476.376 155.352 476.376 156.184C476.376 156.6 476.28 157.032 476.088 157.48C475.992 157.736 476.024 157.928 476.184 158.056C477.016 158.696 477.944 159.176 478.968 159.496C480.024 159.816 481.08 159.976 482.136 159.976C483.544 159.976 484.888 159.736 486.168 159.256C487.448 158.744 488.488 158.04 489.288 157.144C490.088 156.216 490.488 155.144 490.488 153.928C490.488 152.84 490.152 151.944 489.48 151.24C488.808 150.504 487.912 149.896 486.792 149.416C485.704 148.904 484.504 148.44 483.192 148.024C481.88 147.608 480.552 147.144 479.208 146.632C477.896 146.12 476.68 145.496 475.56 144.76C474.472 143.992 473.592 143.048 472.92 141.928C472.248 140.808 471.912 139.416 471.912 137.752C471.912 135.928 472.232 134.376 472.872 133.096C473.544 131.784 474.44 130.744 475.56 129.976C476.68 129.176 477.928 128.6 479.304 128.248C480.68 127.864 482.088 127.672 483.528 127.672C485.352 127.672 487.096 127.928 488.76 128.44C490.424 128.952 491.768 129.656 492.792 130.552C493.848 131.448 494.376 132.472 494.376 133.624C494.344 134.52 494.008 135.288 493.368 135.928C492.76 136.568 492.008 136.888 491.112 136.888C490.216 136.888 489.448 136.568 488.808 135.928C488.2 135.288 487.896 134.52 487.896 133.624C487.896 133.304 487.912 133.08 487.944 132.952C488.008 132.696 487.992 132.552 487.896 132.52C487.48 132.296 486.856 132.104 486.024 131.944C485.224 131.784 484.36 131.704 483.432 131.704C482.376 131.704 481.304 131.864 480.216 132.184C479.16 132.472 478.264 133.016 477.528 133.816C476.792 134.584 476.36 135.688 476.232 137.128ZM528.774 136.216C528.838 136.824 528.646 137.368 528.198 137.848C527.75 138.328 527.19 138.568 526.518 138.568C525.846 138.568 525.286 138.328 524.838 137.848C524.422 137.368 524.23 136.824 524.262 136.216L524.502 132.712C524.502 132.424 524.374 132.28 524.118 132.28H517.11C516.822 132.28 516.678 132.424 516.678 132.712V159.64C516.678 159.896 516.79 160.024 517.014 160.024C517.398 160.024 517.766 160.008 518.118 159.976C518.502 159.912 518.854 159.864 519.174 159.832C519.814 159.768 520.358 159.96 520.806 160.408C521.254 160.824 521.478 161.352 521.478 161.992C521.478 162.6 521.254 163.112 520.806 163.528C520.358 163.944 519.814 164.136 519.174 164.104C518.246 164.008 517.51 163.944 516.966 163.912C516.454 163.88 516.022 163.848 515.67 163.816C515.318 163.816 514.934 163.816 514.518 163.816C514.07 163.816 513.67 163.816 513.318 163.816C512.966 163.848 512.534 163.88 512.022 163.912C511.542 163.944 510.838 164.008 509.91 164.104C509.302 164.136 508.758 163.944 508.278 163.528C507.83 163.112 507.606 162.6 507.606 161.992C507.606 161.352 507.83 160.824 508.278 160.408C508.758 159.96 509.302 159.768 509.91 159.832C510.23 159.864 510.566 159.896 510.918 159.928C511.27 159.96 511.622 159.992 511.974 160.024H512.07C512.294 160.024 512.406 159.896 512.406 159.64V132.712C512.406 132.424 512.262 132.28 511.974 132.28H504.918C504.662 132.28 504.534 132.424 504.534 132.712L504.774 136.216C504.838 136.824 504.646 137.368 504.198 137.848C503.75 138.328 503.19 138.568 502.518 138.568C501.846 138.568 501.286 138.328 500.838 137.848C500.422 137.368 500.23 136.824 500.262 136.216C500.326 135.48 500.39 134.68 500.454 133.816C500.518 132.952 500.566 132.088 500.598 131.224C500.662 130.328 500.998 129.576 501.606 128.968C502.246 128.36 502.998 128.056 503.862 128.056H525.222C526.054 128.056 526.79 128.36 527.43 128.968C528.07 129.576 528.406 130.328 528.438 131.224C528.502 132.088 528.566 132.952 528.63 133.816C528.694 134.68 528.742 135.48 528.774 136.216Z" fill="#FFC759"/>
</svg>
