<svg width="712" height="178" viewBox="0 0 712 178" fill="none" xmlns="http://www.w3.org/2000/svg">
<path d="M58.016 17.432C58.144 18.648 57.76 19.736 56.864 20.696C55.968 21.656 54.848 22.136 53.504 22.136C52.16 22.136 51.04 21.656 50.144 20.696C49.312 19.736 48.928 18.648 48.992 17.432L49.472 10.424C49.472 9.848 49.216 9.56 48.704 9.56H34.688C34.112 9.56 33.824 9.848 33.824 10.424V64.28C33.824 64.792 34.048 65.048 34.496 65.048C35.264 65.048 36 65.016 36.704 64.952C37.472 64.824 38.176 64.728 38.816 64.664C40.096 64.536 41.184 64.92 42.08 65.816C42.976 66.648 43.424 67.704 43.424 68.984C43.424 70.2 42.976 71.224 42.08 72.056C41.184 72.888 40.096 73.272 38.816 73.208C36.96 73.016 35.488 72.888 34.4 72.824C33.376 72.76 32.512 72.696 31.808 72.632C31.104 72.632 30.336 72.632 29.504 72.632C28.608 72.632 27.808 72.632 27.104 72.632C26.4 72.696 25.536 72.76 24.512 72.824C23.552 72.888 22.144 73.016 20.288 73.208C19.072 73.272 17.984 72.888 17.024 72.056C16.128 71.224 15.68 70.2 15.68 68.984C15.68 67.704 16.128 66.648 17.024 65.816C17.984 64.92 19.072 64.536 20.288 64.664C20.928 64.728 21.6 64.792 22.304 64.856C23.008 64.92 23.712 64.984 24.416 65.048H24.608C25.056 65.048 25.28 64.792 25.28 64.28V10.424C25.28 9.848 24.992 9.56 24.416 9.56H10.304C9.792 9.56 9.536 9.848 9.536 10.424L10.016 17.432C10.144 18.648 9.76 19.736 8.864 20.696C7.968 21.656 6.848 22.136 5.504 22.136C4.16 22.136 3.04 21.656 2.144 20.696C1.312 19.736 0.928 18.648 0.992 17.432C1.12 15.96 1.248 14.36 1.376 12.632C1.504 10.904 1.6 9.17599 1.664 7.44799C1.792 5.65599 2.464 4.15199 3.68 2.936C4.96 1.72 6.464 1.112 8.192 1.112H50.912C52.576 1.112 54.048 1.72 55.328 2.936C56.608 4.15199 57.28 5.65599 57.344 7.44799C57.472 9.17599 57.6 10.904 57.728 12.632C57.856 14.36 57.952 15.96 58.016 17.432ZM128.983 64.664C130.263 64.536 131.351 64.92 132.247 65.816C133.207 66.648 133.687 67.704 133.687 68.984C133.687 70.264 133.207 71.32 132.247 72.152C131.351 72.984 130.263 73.368 128.983 73.304C128.727 73.24 127.703 73.112 125.911 72.92C124.119 72.728 122.391 72.632 120.727 72.632C117.975 72.632 115.863 71.48 114.391 69.176L98.4553 44.888C98.2633 44.504 97.9113 44.312 97.3993 44.312H85.8793C85.3033 44.312 85.0153 44.6 85.0153 45.176V64.28C85.0153 64.792 85.2393 65.048 85.6873 65.048C86.5193 65.048 87.3193 65.016 88.0873 64.952C88.8553 64.824 89.6233 64.728 90.3913 64.664C91.6713 64.536 92.7593 64.92 93.6553 65.816C94.5513 66.648 94.9993 67.704 94.9993 68.984C94.9993 70.264 94.5513 71.32 93.6553 72.152C92.7593 72.984 91.6713 73.368 90.3913 73.304C88.5993 73.112 86.9993 72.952 85.5913 72.824C84.2473 72.76 82.9353 72.728 81.6553 72.728C80.3753 72.728 79.0633 72.76 77.7193 72.824C76.3753 72.952 74.7753 73.112 72.9193 73.304C71.6393 73.368 70.5193 72.984 69.5593 72.152C68.6633 71.32 68.2153 70.264 68.2153 68.984C68.2153 67.704 68.6313 66.68 69.4633 65.912C70.2953 65.08 71.3193 64.664 72.5353 64.664C72.9833 64.664 73.4313 64.696 73.8793 64.76C74.3913 64.824 74.9353 64.888 75.5113 64.952H75.7032C76.1513 64.952 76.3753 64.696 76.3753 64.184V9.752C76.3753 9.112 76.0873 8.856 75.5113 8.984L73.2073 9.17599C71.9273 9.368 70.7753 9.048 69.7513 8.216C68.7273 7.32 68.2153 6.2 68.2153 4.856C68.2153 3.448 68.6953 2.328 69.6553 1.496C70.6793 0.599997 71.8633 0.215996 73.2073 0.343994C74.4873 0.535995 75.7993 0.727997 77.1432 0.919998C78.5513 1.048 79.8953 1.112 81.1753 1.112L98.7433 1.20799C107.127 1.272 113.655 3.192 118.327 6.96799C123.063 10.68 125.431 15.928 125.431 22.712C125.431 28.024 123.959 32.472 121.015 36.056C118.135 39.576 114.039 41.976 108.727 43.256C108.023 43.384 107.863 43.736 108.247 44.312L121.495 64.664C121.687 65.048 122.071 65.24 122.647 65.24C124.887 65.112 126.999 64.92 128.983 64.664ZM99.7993 9.464H85.8793C85.3033 9.464 85.0153 9.752 85.0153 10.328V35C85.0153 35.576 85.3033 35.864 85.8793 35.864H99.7993C111.383 35.864 117.175 31.48 117.175 22.712C117.175 13.88 111.383 9.464 99.7993 9.464ZM212.707 64.664C213.923 64.664 214.947 65.08 215.779 65.912C216.611 66.68 217.027 67.704 217.027 68.984C217.027 70.264 216.547 71.32 215.587 72.152C214.691 72.984 213.603 73.368 212.323 73.304C208.675 72.92 205.763 72.728 203.587 72.728C201.219 72.728 198.307 72.92 194.851 73.304C193.571 73.368 192.483 72.984 191.587 72.152C190.691 71.32 190.243 70.264 190.243 68.984C190.243 67.704 190.627 66.68 191.395 65.912C192.227 65.08 193.251 64.664 194.467 64.664C195.043 64.664 195.651 64.696 196.291 64.76C196.995 64.824 197.667 64.92 198.307 65.048C199.075 65.048 199.299 64.728 198.979 64.088L194.467 54.008C194.275 53.56 193.955 53.336 193.507 53.336H160.291C159.907 53.336 159.587 53.56 159.331 54.008L154.819 64.088C154.755 64.216 154.723 64.344 154.723 64.472C154.723 64.856 154.979 65.048 155.491 65.048C156.195 64.92 156.867 64.824 157.507 64.76C158.147 64.696 158.755 64.664 159.331 64.664C160.547 64.664 161.539 65.08 162.307 65.912C163.139 66.68 163.555 67.704 163.555 68.984C163.555 70.264 163.107 71.32 162.211 72.152C161.315 72.984 160.227 73.368 158.947 73.304C155.235 72.92 152.323 72.728 150.211 72.728C147.779 72.728 144.867 72.92 141.475 73.304C140.195 73.368 139.075 72.984 138.115 72.152C137.219 71.32 136.771 70.264 136.771 68.984C136.771 67.704 137.187 66.68 138.019 65.912C138.851 65.08 139.875 64.664 141.091 64.664C141.731 64.664 142.339 64.696 142.915 64.76C143.491 64.824 144.067 64.888 144.643 64.952H144.835C145.155 64.952 145.443 64.76 145.699 64.376L173.539 2.456C174.179 0.983995 175.299 0.247995 176.899 0.247995C178.435 0.247995 179.523 0.983995 180.163 2.456L208.195 64.376C208.451 64.76 208.739 64.952 209.059 64.952C209.699 64.952 210.307 64.92 210.883 64.856C211.523 64.728 212.131 64.664 212.707 64.664ZM177.475 16.184C177.411 15.8 177.219 15.608 176.899 15.608C176.707 15.608 176.515 15.8 176.323 16.184L163.747 44.216C163.683 44.344 163.651 44.472 163.651 44.6C163.651 45.048 163.907 45.272 164.419 45.272H189.379C190.147 45.272 190.371 44.92 190.051 44.216L177.475 16.184ZM268.805 0.247995C270.085 0.119997 271.173 0.503998 272.069 1.4C272.965 2.232 273.413 3.288 273.413 4.568C273.413 5.848 272.965 6.904 272.069 7.736C271.173 8.568 270.085 8.952 268.805 8.888C267.653 8.696 266.501 8.6 265.349 8.6H265.157C264.901 8.6 264.645 8.824 264.389 9.272L244.901 68.6C244.453 70.008 243.589 71.128 242.309 71.96C241.093 72.856 239.749 73.304 238.277 73.304C236.805 73.304 235.461 72.856 234.245 71.96C233.093 71.128 232.261 70.008 231.749 68.6L212.357 9.272C212.165 8.824 211.909 8.6 211.589 8.6C210.437 8.6 209.221 8.696 207.941 8.888C206.725 8.952 205.637 8.568 204.677 7.736C203.781 6.904 203.333 5.848 203.333 4.568C203.333 3.288 203.781 2.232 204.677 1.4C205.637 0.503998 206.725 0.119997 207.941 0.247995C209.797 0.439997 211.397 0.599997 212.741 0.727995C214.149 0.791998 215.461 0.823999 216.677 0.823999C217.957 0.823999 219.269 0.791998 220.613 0.727995C222.021 0.599997 223.621 0.439997 225.413 0.247995C226.693 0.119997 227.781 0.503998 228.677 1.4C229.637 2.232 230.117 3.288 230.117 4.568C230.117 5.848 229.637 6.904 228.677 7.736C227.781 8.568 226.693 8.952 225.413 8.888C224.901 8.76 224.357 8.696 223.781 8.696C223.269 8.696 222.757 8.664 222.245 8.6H222.053C221.477 8.6 221.285 8.92 221.477 9.56L237.797 60.344C238.053 60.792 238.245 61.016 238.373 61.016C238.629 61.016 238.821 60.792 238.949 60.344L255.461 9.56C255.461 9.496 255.461 9.432 255.461 9.368C255.525 9.304 255.557 9.24 255.557 9.17599C255.557 8.792 255.333 8.6 254.885 8.6C253.669 8.6 252.485 8.696 251.333 8.888C250.053 8.952 248.933 8.568 247.973 7.736C247.077 6.904 246.629 5.848 246.629 4.568C246.629 3.288 247.077 2.232 247.973 1.4C248.933 0.503998 250.053 0.119997 251.333 0.247995C253.189 0.439997 254.789 0.599997 256.133 0.727995C257.477 0.791998 258.789 0.823999 260.069 0.823999C261.349 0.823999 262.661 0.791998 264.005 0.727995C265.413 0.599997 267.013 0.439997 268.805 0.247995ZM335.519 64.664C336.735 64.664 337.759 65.08 338.591 65.912C339.423 66.68 339.839 67.704 339.839 68.984C339.839 70.264 339.359 71.32 338.399 72.152C337.503 72.984 336.415 73.368 335.135 73.304C331.487 72.92 328.575 72.728 326.399 72.728C324.031 72.728 321.119 72.92 317.663 73.304C316.383 73.368 315.295 72.984 314.399 72.152C313.503 71.32 313.055 70.264 313.055 68.984C313.055 67.704 313.439 66.68 314.207 65.912C315.039 65.08 316.063 64.664 317.279 64.664C317.855 64.664 318.463 64.696 319.103 64.76C319.807 64.824 320.479 64.92 321.119 65.048C321.887 65.048 322.111 64.728 321.791 64.088L317.279 54.008C317.087 53.56 316.767 53.336 316.319 53.336H283.103C282.719 53.336 282.399 53.56 282.143 54.008L277.631 64.088C277.567 64.216 277.535 64.344 277.535 64.472C277.535 64.856 277.791 65.048 278.303 65.048C279.007 64.92 279.679 64.824 280.319 64.76C280.959 64.696 281.567 64.664 282.143 64.664C283.359 64.664 284.351 65.08 285.119 65.912C285.951 66.68 286.367 67.704 286.367 68.984C286.367 70.264 285.919 71.32 285.023 72.152C284.127 72.984 283.039 73.368 281.759 73.304C278.047 72.92 275.135 72.728 273.023 72.728C270.591 72.728 267.679 72.92 264.287 73.304C263.007 73.368 261.887 72.984 260.927 72.152C260.031 71.32 259.583 70.264 259.583 68.984C259.583 67.704 259.999 66.68 260.831 65.912C261.663 65.08 262.687 64.664 263.903 64.664C264.543 64.664 265.151 64.696 265.727 64.76C266.303 64.824 266.879 64.888 267.455 64.952H267.647C267.967 64.952 268.255 64.76 268.511 64.376L296.351 2.456C296.991 0.983995 298.111 0.247995 299.711 0.247995C301.247 0.247995 302.335 0.983995 302.975 2.456L331.007 64.376C331.263 64.76 331.551 64.952 331.871 64.952C332.511 64.952 333.119 64.92 333.695 64.856C334.335 64.728 334.943 64.664 335.519 64.664ZM300.287 16.184C300.223 15.8 300.031 15.608 299.711 15.608C299.519 15.608 299.327 15.8 299.135 16.184L286.559 44.216C286.495 44.344 286.463 44.472 286.463 44.6C286.463 45.048 286.719 45.272 287.231 45.272H312.191C312.959 45.272 313.183 44.92 312.863 44.216L300.287 16.184ZM370.351 64.664C371.631 64.536 372.719 64.92 373.615 65.816C374.575 66.648 375.055 67.704 375.055 68.984C375.055 70.264 374.575 71.32 373.615 72.152C372.719 72.984 371.631 73.368 370.351 73.304C368.559 73.112 366.895 72.952 365.359 72.824C363.823 72.76 362.319 72.728 360.847 72.728C358.287 72.728 355.311 72.92 351.919 73.304C350.639 73.368 349.519 72.984 348.559 72.152C347.663 71.32 347.215 70.264 347.215 68.984C347.215 67.704 347.663 66.648 348.559 65.816C349.519 64.92 350.639 64.536 351.919 64.664C352.559 64.728 353.231 64.792 353.935 64.856C354.639 64.92 355.343 64.984 356.047 65.048H356.239C356.687 65.048 356.911 64.792 356.911 64.28V9.272C356.911 8.76 356.687 8.504 356.239 8.504C355.471 8.504 354.735 8.536 354.031 8.6C353.327 8.664 352.623 8.76 351.919 8.888C350.639 8.952 349.519 8.568 348.559 7.736C347.663 6.904 347.215 5.848 347.215 4.568C347.215 3.288 347.663 2.232 348.559 1.4C349.519 0.503998 350.639 0.119997 351.919 0.247995C353.775 0.439997 355.439 0.599997 356.911 0.727995C358.447 0.791998 359.951 0.823999 361.423 0.823999C363.919 0.823999 366.895 0.631998 370.351 0.247995C371.631 0.119997 372.719 0.503998 373.615 1.4C374.575 2.232 375.055 3.288 375.055 4.568C375.055 5.848 374.575 6.904 373.615 7.736C372.719 8.568 371.631 8.952 370.351 8.888C369.711 8.76 369.071 8.696 368.431 8.696C367.791 8.632 367.119 8.568 366.415 8.504H366.223C365.775 8.504 365.551 8.76 365.551 9.272V64.28C365.551 64.792 365.807 65.048 366.319 65.048C366.959 65.048 367.631 65.016 368.335 64.952C369.039 64.824 369.711 64.728 370.351 64.664ZM431.545 51.896C432.825 51.896 433.913 52.376 434.809 53.336C435.769 54.232 436.217 55.32 436.153 56.6C436.089 58.008 435.993 59.544 435.865 61.208C435.737 62.808 435.609 64.44 435.481 66.104C435.417 67.896 434.745 69.4 433.465 70.616C432.185 71.832 430.681 72.44 428.953 72.44H399.769C398.105 72.504 396.441 72.632 394.777 72.824C393.113 73.08 391.545 73.208 390.073 73.208C388.793 73.208 387.705 72.76 386.809 71.864C385.913 70.968 385.465 69.88 385.465 68.6C385.465 67.32 385.913 66.232 386.809 65.336C387.769 64.376 388.857 63.896 390.073 63.896C390.457 63.896 390.809 63.928 391.129 63.992C391.513 64.056 392.025 64.088 392.665 64.088H392.857C393.369 64.088 393.625 63.832 393.625 63.32V9.368C393.625 8.856 393.401 8.6 392.953 8.6C392.313 8.6 391.737 8.664 391.225 8.792C390.777 8.856 390.297 8.888 389.785 8.888C388.569 8.888 387.545 8.472 386.713 7.64C385.881 6.808 385.465 5.784 385.465 4.568C385.465 3.288 385.913 2.232 386.809 1.4C387.769 0.503998 388.889 0.119997 390.169 0.247995C392.025 0.439997 393.625 0.599997 394.969 0.727995C396.377 0.791998 397.689 0.823999 398.905 0.823999C400.185 0.823999 401.497 0.791998 402.841 0.727995C404.249 0.599997 405.849 0.439997 407.641 0.247995C408.921 0.119997 410.009 0.503998 410.905 1.4C411.801 2.232 412.249 3.288 412.249 4.568C412.249 5.848 411.801 6.904 410.905 7.736C410.009 8.568 408.921 8.952 407.641 8.888C406.937 8.76 406.201 8.696 405.433 8.696C404.665 8.632 403.897 8.568 403.129 8.504H402.937C402.489 8.504 402.265 8.76 402.265 9.272V63.032C402.265 63.608 402.553 63.896 403.129 63.896H426.745C427.385 63.896 427.641 63.608 427.513 63.032C427.449 61.816 427.353 60.632 427.225 59.48C427.097 58.328 427.033 57.272 427.033 56.312C427.033 55.096 427.449 54.072 428.281 53.24C429.177 52.344 430.265 51.896 431.545 51.896ZM492.577 51.896C493.857 51.896 494.945 52.376 495.841 53.336C496.801 54.232 497.249 55.32 497.185 56.6C497.121 58.008 497.025 59.544 496.897 61.208C496.769 62.808 496.641 64.44 496.513 66.104C496.449 67.896 495.777 69.4 494.497 70.616C493.217 71.832 491.713 72.44 489.985 72.44H460.801C459.137 72.504 457.473 72.632 455.809 72.824C454.145 73.08 452.577 73.208 451.105 73.208C449.825 73.208 448.737 72.76 447.841 71.864C446.945 70.968 446.497 69.88 446.497 68.6C446.497 67.32 446.945 66.232 447.841 65.336C448.801 64.376 449.889 63.896 451.105 63.896C451.489 63.896 451.841 63.928 452.161 63.992C452.545 64.056 453.057 64.088 453.697 64.088H453.889C454.401 64.088 454.657 63.832 454.657 63.32V9.368C454.657 8.856 454.433 8.6 453.984 8.6C453.345 8.6 452.769 8.664 452.257 8.792C451.809 8.856 451.329 8.888 450.817 8.888C449.601 8.888 448.577 8.472 447.745 7.64C446.913 6.808 446.497 5.784 446.497 4.568C446.497 3.288 446.945 2.232 447.841 1.4C448.801 0.503998 449.921 0.119997 451.201 0.247995C453.057 0.439997 454.657 0.599997 456.001 0.727995C457.409 0.791998 458.721 0.823999 459.937 0.823999C461.217 0.823999 462.529 0.791998 463.873 0.727995C465.281 0.599997 466.881 0.439997 468.673 0.247995C469.953 0.119997 471.041 0.503998 471.937 1.4C472.833 2.232 473.281 3.288 473.281 4.568C473.281 5.848 472.833 6.904 471.937 7.736C471.041 8.568 469.953 8.952 468.673 8.888C467.969 8.76 467.233 8.696 466.465 8.696C465.697 8.632 464.929 8.568 464.161 8.504H463.969C463.521 8.504 463.297 8.76 463.297 9.272V63.032C463.297 63.608 463.585 63.896 464.161 63.896H487.777C488.417 63.896 488.673 63.608 488.545 63.032C488.481 61.816 488.385 60.632 488.257 59.48C488.129 58.328 488.065 57.272 488.065 56.312C488.065 55.096 488.481 54.072 489.312 53.24C490.208 52.344 491.297 51.896 492.577 51.896ZM537.222 0.247995C542.022 0.247995 546.534 1.208 550.758 3.128C554.982 4.984 558.694 7.608 561.894 11C565.094 14.328 567.59 18.2 569.382 22.616C571.238 27.032 572.166 31.736 572.166 36.728C572.166 41.784 571.238 46.52 569.382 50.936C567.59 55.352 565.094 59.256 561.894 62.648C558.694 65.976 554.982 68.6 550.758 70.52C546.534 72.376 542.022 73.304 537.222 73.304C532.422 73.304 527.91 72.376 523.686 70.52C519.462 68.6 515.75 65.976 512.55 62.648C509.35 59.256 506.822 55.352 504.966 50.936C503.174 46.52 502.278 41.784 502.278 36.728C502.278 31.736 503.174 27.032 504.966 22.616C506.822 18.2 509.35 14.328 512.55 11C515.75 7.608 519.462 4.984 523.686 3.128C527.91 1.208 532.422 0.247995 537.222 0.247995ZM537.222 64.568C542.278 64.568 546.758 63.384 550.662 61.016C554.566 58.584 557.638 55.288 559.878 51.128C562.182 46.904 563.334 42.104 563.334 36.728C563.334 31.352 562.182 26.584 559.878 22.424C557.638 18.264 554.534 15 550.566 12.632C546.662 10.2 542.214 8.984 537.222 8.984C532.166 8.984 527.654 10.2 523.686 12.632C519.782 15 516.678 18.296 514.374 22.52C512.134 26.68 511.014 31.416 511.014 36.728C511.014 42.04 512.134 46.808 514.374 51.032C516.678 55.256 519.814 58.584 523.782 61.016C527.75 63.384 532.23 64.568 537.222 64.568ZM647.424 0.247995C648.704 0.119997 649.792 0.503998 650.688 1.4C651.584 2.232 652.032 3.288 652.032 4.568C652.032 5.784 651.616 6.808 650.784 7.64C649.952 8.472 648.96 8.888 647.808 8.888C647.36 8.888 646.88 8.856 646.368 8.792C645.92 8.728 645.408 8.664 644.832 8.6H644.64C644.192 8.6 643.968 8.856 643.968 9.368V67.64C643.968 69.048 643.488 70.232 642.528 71.192C641.568 72.216 640.352 72.728 638.88 72.728C636.704 72.728 634.976 71.8 633.696 69.944L600.192 18.488C600 18.168 599.808 18.008 599.616 18.008C599.296 18.008 599.136 18.264 599.136 18.776V64.28C599.136 64.792 599.36 65.048 599.808 65.048C600.704 65.048 601.536 65.016 602.304 64.952C603.136 64.824 603.904 64.728 604.608 64.664C605.888 64.536 606.976 64.92 607.872 65.816C608.832 66.648 609.312 67.704 609.312 68.984C609.312 70.264 608.832 71.32 607.872 72.152C606.976 72.984 605.888 73.368 604.608 73.304C602.816 73.112 601.216 72.952 599.808 72.824C598.464 72.76 597.152 72.728 595.872 72.728C594.656 72.728 593.344 72.76 591.936 72.824C590.592 72.952 588.992 73.112 587.136 73.304C585.92 73.368 584.832 72.984 583.872 72.152C582.976 71.32 582.528 70.264 582.528 68.984C582.528 67.704 582.944 66.68 583.776 65.912C584.608 65.08 585.6 64.664 586.752 64.664C587.2 64.664 587.648 64.696 588.096 64.76C588.608 64.824 589.152 64.888 589.728 64.952H589.92C590.368 64.952 590.592 64.696 590.592 64.184V9.848C590.592 9.208 590.272 8.952 589.632 9.08L587.712 9.464C586.304 9.656 585.088 9.304 584.064 8.408C583.04 7.448 582.528 6.264 582.528 4.856C582.528 3.448 583.04 2.296 584.064 1.4C585.152 0.503998 586.368 0.151997 587.712 0.343994C588.672 0.535995 589.568 0.695997 590.4 0.823999C591.296 0.887999 592.096 0.983997 592.8 1.112C596.96 1.304 600.064 3 602.112 6.2L634.368 56.312C634.56 56.632 634.752 56.792 634.944 56.792C635.264 56.792 635.424 56.536 635.424 56.024V9.272C635.424 8.76 635.2 8.504 634.752 8.504C633.92 8.504 633.088 8.536 632.256 8.6C631.424 8.664 630.656 8.76 629.952 8.888C628.672 8.952 627.552 8.568 626.592 7.736C625.696 6.904 625.248 5.848 625.248 4.568C625.248 3.288 625.696 2.232 626.592 1.4C627.552 0.503998 628.672 0.119997 629.952 0.247995C631.808 0.439997 633.408 0.599997 634.752 0.727995C636.096 0.791998 637.408 0.823999 638.688 0.823999C639.968 0.823999 641.28 0.791998 642.624 0.727995C644.032 0.599997 645.632 0.439997 647.424 0.247995ZM674.432 19.256C674.24 21.688 674.752 23.672 675.968 25.208C677.248 26.68 678.976 27.928 681.152 28.952C683.392 29.976 685.856 30.904 688.544 31.736C691.232 32.568 693.92 33.496 696.608 34.52C699.296 35.48 701.76 36.728 704 38.264C706.304 39.736 708.128 41.656 709.472 44.024C710.88 46.328 711.584 49.272 711.584 52.856C711.584 56.76 710.528 60.248 708.416 63.32C706.368 66.392 703.52 68.824 699.872 70.616C696.224 72.408 692.096 73.304 687.488 73.304C681.728 73.304 676.928 72.28 673.088 70.232C669.248 68.12 666.272 65.816 664.16 63.32C662.56 61.464 661.76 59.48 661.76 57.368C661.76 55.576 662.336 54.04 663.488 52.76C664.64 51.48 666.304 50.84 668.48 50.84C670.272 50.84 671.744 51.512 672.896 52.856C674.112 54.2 674.72 55.704 674.72 57.368C674.72 58.2 674.528 59.064 674.144 59.96C673.952 60.472 674.016 60.856 674.336 61.112C676 62.392 677.856 63.352 679.904 63.992C682.016 64.632 684.128 64.952 686.24 64.952C689.056 64.952 691.744 64.472 694.304 63.512C696.864 62.488 698.944 61.08 700.544 59.288C702.144 57.432 702.944 55.288 702.944 52.856C702.944 50.68 702.272 48.888 700.928 47.48C699.584 46.008 697.792 44.792 695.552 43.832C693.376 42.808 690.976 41.88 688.352 41.048C685.728 40.216 683.072 39.288 680.384 38.264C677.76 37.24 675.328 35.992 673.088 34.52C670.912 32.984 669.152 31.096 667.808 28.856C666.464 26.616 665.792 23.832 665.792 20.504C665.792 16.856 666.432 13.752 667.712 11.192C669.056 8.568 670.848 6.488 673.088 4.952C675.328 3.352 677.824 2.2 680.576 1.496C683.328 0.727995 686.144 0.343994 689.024 0.343994C692.672 0.343994 696.16 0.855995 699.488 1.88C702.816 2.904 705.504 4.31199 707.552 6.10399C709.664 7.896 710.72 9.944 710.72 12.248C710.656 14.04 709.984 15.576 708.704 16.856C707.488 18.136 705.984 18.776 704.192 18.776C702.4 18.776 700.864 18.136 699.584 16.856C698.368 15.576 697.76 14.04 697.76 12.248C697.76 11.608 697.792 11.16 697.856 10.904C697.984 10.392 697.952 10.104 697.76 10.04C696.928 9.592 695.68 9.208 694.016 8.888C692.416 8.568 690.688 8.408 688.832 8.408C686.72 8.408 684.576 8.728 682.4 9.368C680.288 9.944 678.496 11.032 677.024 12.632C675.552 14.168 674.688 16.376 674.432 19.256ZM50.048 157.336C51.392 157.336 52.512 157.816 53.408 158.776C54.304 159.672 54.688 160.76 54.56 162.04L53.984 170.104C53.92 171.896 53.248 173.4 51.968 174.616C50.688 175.832 49.184 176.44 47.456 176.44H13.472C12.32 176.44 11.104 176.536 9.824 176.728C8.608 176.92 7.424 177.08 6.272 177.208C4.928 177.4 3.744 177.048 2.72 176.152C1.696 175.256 1.184 174.104 1.184 172.696C1.184 171.288 1.696 170.168 2.72 169.336C3.744 168.44 4.928 168.088 6.272 168.28C6.464 168.344 6.688 168.376 6.944 168.376C7.2 168.376 7.488 168.408 7.808 168.472H8C8.512 168.472 8.768 168.216 8.768 167.704V113.752C8.768 113.176 8.512 112.888 8 112.888C7.744 112.888 7.456 112.952 7.136 113.08C6.88 113.144 6.592 113.208 6.272 113.272C4.928 113.464 3.744 113.144 2.72 112.312C1.696 111.416 1.184 110.264 1.184 108.856C1.184 107.448 1.696 106.296 2.72 105.4C3.744 104.504 4.928 104.152 6.272 104.344C7.552 104.472 8.864 104.632 10.208 104.824C11.552 105.016 12.832 105.112 14.048 105.112H47.456C49.184 105.112 50.688 105.72 51.968 106.936C53.248 108.152 53.92 109.656 53.984 111.448L54.56 119.512C54.688 120.728 54.304 121.816 53.408 122.776C52.512 123.736 51.392 124.216 50.048 124.216C48.768 124.216 47.68 123.8 46.784 122.968C45.952 122.072 45.536 121.016 45.536 119.8C45.536 119.032 45.568 118.2 45.632 117.304C45.76 116.344 45.856 115.416 45.92 114.52C45.92 113.944 45.632 113.656 45.056 113.656H18.272C17.696 113.656 17.408 113.944 17.408 114.52V134.296C17.408 134.872 17.696 135.16 18.272 135.16H41.792C42.944 135.16 43.936 135.576 44.768 136.408C45.6 137.24 46.016 138.232 46.016 139.384C46.016 140.536 45.6 141.528 44.768 142.36C43.936 143.128 42.944 143.512 41.792 143.512H18.272C17.696 143.512 17.408 143.8 17.408 144.376V167.032C17.408 167.608 17.696 167.896 18.272 167.896H45.056C45.632 167.896 45.92 167.608 45.92 167.032C45.856 166.072 45.76 165.176 45.632 164.344C45.568 163.448 45.536 162.584 45.536 161.752C45.536 160.536 45.952 159.512 46.784 158.68C47.68 157.784 48.768 157.336 50.048 157.336ZM131.33 104.248C132.61 104.12 133.698 104.504 134.594 105.4C135.49 106.232 135.938 107.288 135.938 108.568C135.938 109.784 135.522 110.808 134.69 111.64C133.858 112.472 132.866 112.888 131.714 112.888C131.266 112.888 130.786 112.856 130.274 112.792C129.826 112.728 129.314 112.664 128.738 112.6H128.546C128.098 112.6 127.874 112.856 127.874 113.368V171.64C127.874 173.048 127.394 174.232 126.434 175.192C125.474 176.216 124.258 176.728 122.786 176.728C120.61 176.728 118.882 175.8 117.602 173.944L84.098 122.488C83.906 122.168 83.714 122.008 83.522 122.008C83.202 122.008 83.042 122.264 83.042 122.776V168.28C83.042 168.792 83.266 169.048 83.714 169.048C84.61 169.048 85.442 169.016 86.21 168.952C87.042 168.824 87.81 168.728 88.514 168.664C89.794 168.536 90.882 168.92 91.778 169.816C92.738 170.648 93.218 171.704 93.218 172.984C93.218 174.264 92.738 175.32 91.778 176.152C90.882 176.984 89.794 177.368 88.514 177.304C86.722 177.112 85.122 176.952 83.714 176.824C82.37 176.76 81.058 176.728 79.778 176.728C78.562 176.728 77.25 176.76 75.842 176.824C74.498 176.952 72.898 177.112 71.042 177.304C69.826 177.368 68.738 176.984 67.778 176.152C66.882 175.32 66.434 174.264 66.434 172.984C66.434 171.704 66.85 170.68 67.682 169.912C68.514 169.08 69.506 168.664 70.658 168.664C71.106 168.664 71.554 168.696 72.002 168.76C72.514 168.824 73.058 168.888 73.634 168.952H73.826C74.274 168.952 74.498 168.696 74.498 168.184V113.848C74.498 113.208 74.178 112.952 73.538 113.08L71.618 113.464C70.21 113.656 68.994 113.304 67.97 112.408C66.946 111.448 66.434 110.264 66.434 108.856C66.434 107.448 66.946 106.296 67.97 105.4C69.058 104.504 70.274 104.152 71.618 104.344C72.578 104.536 73.474 104.696 74.306 104.824C75.202 104.888 76.002 104.984 76.706 105.112C80.866 105.304 83.97 107 86.018 110.2L118.274 160.312C118.466 160.632 118.658 160.792 118.85 160.792C119.17 160.792 119.33 160.536 119.33 160.024V113.272C119.33 112.76 119.106 112.504 118.658 112.504C117.826 112.504 116.994 112.536 116.162 112.6C115.33 112.664 114.562 112.76 113.858 112.888C112.578 112.952 111.458 112.568 110.498 111.736C109.602 110.904 109.154 109.848 109.154 108.568C109.154 107.288 109.602 106.232 110.498 105.4C111.458 104.504 112.578 104.12 113.858 104.248C115.714 104.44 117.314 104.6 118.658 104.728C120.002 104.792 121.314 104.824 122.594 104.824C123.874 104.824 125.186 104.792 126.53 104.728C127.938 104.6 129.538 104.44 131.33 104.248ZM158.338 123.256C158.146 125.688 158.658 127.672 159.874 129.208C161.154 130.68 162.882 131.928 165.058 132.952C167.298 133.976 169.762 134.904 172.45 135.736C175.138 136.568 177.826 137.496 180.514 138.52C183.202 139.48 185.666 140.728 187.906 142.264C190.21 143.736 192.034 145.656 193.378 148.024C194.786 150.328 195.49 153.272 195.49 156.856C195.49 160.76 194.434 164.248 192.322 167.32C190.274 170.392 187.426 172.824 183.778 174.616C180.13 176.408 176.002 177.304 171.394 177.304C165.634 177.304 160.834 176.28 156.994 174.232C153.154 172.12 150.178 169.816 148.066 167.32C146.466 165.464 145.666 163.48 145.666 161.368C145.666 159.576 146.242 158.04 147.394 156.76C148.546 155.48 150.21 154.84 152.386 154.84C154.178 154.84 155.65 155.512 156.802 156.856C158.018 158.2 158.626 159.704 158.626 161.368C158.626 162.2 158.434 163.064 158.05 163.96C157.858 164.472 157.922 164.856 158.242 165.112C159.906 166.392 161.762 167.352 163.81 167.992C165.922 168.632 168.034 168.952 170.146 168.952C172.962 168.952 175.65 168.472 178.21 167.512C180.77 166.488 182.85 165.08 184.45 163.288C186.05 161.432 186.85 159.288 186.85 156.856C186.85 154.68 186.178 152.888 184.834 151.48C183.49 150.008 181.698 148.792 179.458 147.832C177.282 146.808 174.882 145.88 172.258 145.048C169.634 144.216 166.978 143.288 164.29 142.264C161.666 141.24 159.234 139.992 156.994 138.52C154.818 136.984 153.058 135.096 151.714 132.856C150.37 130.616 149.698 127.832 149.698 124.504C149.698 120.856 150.338 117.752 151.618 115.192C152.962 112.568 154.754 110.488 156.994 108.952C159.234 107.352 161.73 106.2 164.482 105.496C167.234 104.728 170.05 104.344 172.93 104.344C176.578 104.344 180.066 104.856 183.394 105.88C186.722 106.904 189.41 108.312 191.458 110.104C193.57 111.896 194.626 113.944 194.626 116.248C194.562 118.04 193.89 119.576 192.61 120.856C191.394 122.136 189.89 122.776 188.098 122.776C186.306 122.776 184.77 122.136 183.49 120.856C182.274 119.576 181.666 118.04 181.666 116.248C181.666 115.608 181.698 115.16 181.762 114.904C181.89 114.392 181.858 114.104 181.666 114.04C180.834 113.592 179.586 113.208 177.922 112.888C176.322 112.568 174.594 112.408 172.738 112.408C170.626 112.408 168.482 112.728 166.306 113.368C164.194 113.944 162.402 115.032 160.93 116.632C159.458 118.168 158.594 120.376 158.338 123.256ZM255.454 157.336C256.798 157.336 257.918 157.816 258.814 158.776C259.71 159.672 260.094 160.76 259.966 162.04L259.39 170.104C259.326 171.896 258.654 173.4 257.374 174.616C256.094 175.832 254.59 176.44 252.862 176.44H218.878C217.726 176.44 216.51 176.536 215.23 176.728C214.014 176.92 212.83 177.08 211.678 177.208C210.334 177.4 209.15 177.048 208.126 176.152C207.102 175.256 206.59 174.104 206.59 172.696C206.59 171.288 207.102 170.168 208.126 169.336C209.15 168.44 210.334 168.088 211.678 168.28C211.87 168.344 212.094 168.376 212.35 168.376C212.606 168.376 212.894 168.408 213.214 168.472H213.406C213.918 168.472 214.174 168.216 214.174 167.704V113.752C214.174 113.176 213.918 112.888 213.406 112.888C213.15 112.888 212.862 112.952 212.542 113.08C212.286 113.144 211.998 113.208 211.678 113.272C210.334 113.464 209.15 113.144 208.126 112.312C207.102 111.416 206.59 110.264 206.59 108.856C206.59 107.448 207.102 106.296 208.126 105.4C209.15 104.504 210.334 104.152 211.678 104.344C212.958 104.472 214.27 104.632 215.614 104.824C216.958 105.016 218.238 105.112 219.454 105.112H252.862C254.59 105.112 256.094 105.72 257.374 106.936C258.654 108.152 259.326 109.656 259.39 111.448L259.966 119.512C260.094 120.728 259.71 121.816 258.814 122.776C257.918 123.736 256.798 124.216 255.454 124.216C254.174 124.216 253.086 123.8 252.19 122.968C251.358 122.072 250.942 121.016 250.942 119.8C250.942 119.032 250.974 118.2 251.038 117.304C251.166 116.344 251.262 115.416 251.326 114.52C251.326 113.944 251.038 113.656 250.462 113.656H223.678C223.102 113.656 222.814 113.944 222.814 114.52V134.296C222.814 134.872 223.102 135.16 223.678 135.16H247.198C248.35 135.16 249.342 135.576 250.174 136.408C251.006 137.24 251.422 138.232 251.422 139.384C251.422 140.536 251.006 141.528 250.174 142.36C249.342 143.128 248.35 143.512 247.198 143.512H223.678C223.102 143.512 222.814 143.8 222.814 144.376V167.032C222.814 167.608 223.102 167.896 223.678 167.896H250.462C251.038 167.896 251.326 167.608 251.326 167.032C251.262 166.072 251.166 165.176 251.038 164.344C250.974 163.448 250.942 162.584 250.942 161.752C250.942 160.536 251.358 159.512 252.19 158.68C253.086 157.784 254.174 157.336 255.454 157.336ZM349.984 168.664C351.2 168.664 352.224 169.08 353.056 169.912C353.888 170.68 354.304 171.704 354.304 172.984C354.304 174.264 353.824 175.32 352.864 176.152C351.968 176.984 350.88 177.368 349.6 177.304C347.808 177.112 346.208 176.952 344.8 176.824C343.456 176.76 342.144 176.728 340.864 176.728C339.648 176.728 338.336 176.76 336.928 176.824C335.584 176.952 333.984 177.112 332.128 177.304C330.848 177.368 329.76 176.984 328.864 176.152C327.968 175.32 327.52 174.264 327.52 172.984C327.52 171.704 327.968 170.648 328.864 169.816C329.76 168.92 330.848 168.536 332.128 168.664C332.832 168.728 333.568 168.792 334.336 168.856C335.168 168.92 335.968 168.984 336.736 169.048H336.928C337.376 169.048 337.6 168.792 337.6 168.28V119.8C337.6 119.352 337.472 119.128 337.216 119.128C336.96 119.064 336.768 119.224 336.64 119.608L316.864 165.304C316.416 166.328 315.744 167.16 314.848 167.8C314.016 168.376 313.056 168.664 311.968 168.664C310.944 168.664 309.952 168.344 308.992 167.704C308.096 167.064 307.456 166.264 307.072 165.304L288.832 119.512C288.768 119.128 288.608 118.936 288.352 118.936C288.032 118.936 287.872 119.192 287.872 119.704V168.28C287.872 168.792 288.096 169.048 288.544 169.048C289.376 169.048 290.176 169.016 290.944 168.952C291.776 168.824 292.576 168.728 293.344 168.664C294.624 168.536 295.712 168.92 296.608 169.816C297.504 170.648 297.952 171.704 297.952 172.984C297.952 174.264 297.504 175.32 296.608 176.152C295.712 176.984 294.624 177.368 293.344 177.304C291.552 177.112 289.952 176.952 288.544 176.824C287.2 176.76 285.888 176.728 284.608 176.728C283.328 176.728 282.016 176.76 280.672 176.824C279.328 176.952 277.728 177.112 275.872 177.304C274.592 177.368 273.472 176.984 272.512 176.152C271.616 175.32 271.168 174.264 271.168 172.984C271.168 171.704 271.584 170.68 272.416 169.912C273.248 169.08 274.272 168.664 275.488 168.664C276.512 168.664 277.44 168.76 278.272 168.952C278.912 168.952 279.232 168.664 279.232 168.088V113.56C279.232 112.984 278.944 112.696 278.368 112.696C277.984 112.76 277.568 112.824 277.12 112.888C276.672 112.888 276.192 112.888 275.68 112.888C274.464 112.888 273.44 112.472 272.608 111.64C271.776 110.808 271.36 109.784 271.36 108.568C271.36 107.288 271.84 106.232 272.8 105.4C273.76 104.568 274.88 104.216 276.16 104.344C278.272 104.6 280.032 104.792 281.44 104.92C282.848 105.048 284.288 105.112 285.76 105.112C287.616 105.112 289.28 105.624 290.752 106.648C292.288 107.672 293.376 109.048 294.016 110.776L311.584 155.608C311.776 155.992 311.968 156.184 312.16 156.184C312.48 156.184 312.672 155.992 312.736 155.608L331.648 110.68C332.352 109.016 333.472 107.672 335.008 106.648C336.544 105.624 338.208 105.112 340 105.112C341.536 105.112 342.976 105.048 344.32 104.92C345.664 104.792 347.328 104.6 349.312 104.344C350.592 104.216 351.712 104.6 352.672 105.496C353.632 106.328 354.112 107.384 354.112 108.664C354.112 109.88 353.696 110.904 352.864 111.736C352.032 112.504 351.008 112.888 349.792 112.888C349.344 112.888 348.896 112.856 348.448 112.792C348.064 112.728 347.616 112.696 347.104 112.696H346.912C346.464 112.696 346.24 112.952 346.24 113.464V168.088C346.24 168.664 346.56 168.952 347.2 168.952C348.16 168.76 349.088 168.664 349.984 168.664ZM407.661 137.848C407.021 138.168 407.021 138.552 407.661 139C411.181 140.792 413.869 143.192 415.725 146.2C417.645 149.144 418.605 152.44 418.605 156.088C418.605 159.544 417.901 162.552 416.493 165.112C415.149 167.672 413.325 169.784 411.021 171.448C408.717 173.112 406.189 174.36 403.437 175.192C400.749 176.024 398.061 176.44 395.373 176.44H377.517C376.237 176.44 374.925 176.536 373.581 176.728C372.237 176.92 370.925 177.08 369.645 177.208C368.365 177.4 367.213 177.048 366.189 176.152C365.165 175.256 364.653 174.104 364.653 172.696C364.653 171.352 365.165 170.232 366.189 169.336C367.213 168.44 368.365 168.088 369.645 168.28C370.157 168.344 370.701 168.44 371.277 168.568C371.853 168.632 372.429 168.696 373.005 168.76H373.197C373.709 168.76 373.965 168.472 373.965 167.896V113.656C373.965 113.08 373.645 112.792 373.005 112.792C372.557 112.856 372.109 112.92 371.661 112.984C371.213 113.048 370.733 113.144 370.221 113.272C368.941 113.464 367.789 113.112 366.765 112.216C365.741 111.32 365.229 110.2 365.229 108.856C365.229 107.448 365.741 106.296 366.765 105.4C367.789 104.504 368.941 104.152 370.221 104.344C371.181 104.472 372.173 104.6 373.197 104.728C374.285 104.856 375.309 104.952 376.269 105.016L392.877 105.112C397.101 105.112 400.653 105.72 403.533 106.936C406.477 108.088 408.845 109.624 410.637 111.544C412.493 113.4 413.805 115.416 414.573 117.592C415.405 119.768 415.821 121.816 415.821 123.736C415.821 129.688 413.101 134.392 407.661 137.848ZM407.373 123.736C407.373 120.6 406.061 118.136 403.437 116.344C400.877 114.488 397.357 113.56 392.877 113.56H383.469C382.893 113.56 382.605 113.848 382.605 114.424V134.488C382.605 135.064 382.893 135.352 383.469 135.352H391.149C396.717 135.032 400.813 133.944 403.437 132.088C406.061 130.168 407.373 127.384 407.373 123.736ZM383.469 143.512C382.893 143.512 382.605 143.8 382.605 144.376V167.128C382.605 167.704 382.893 167.992 383.469 167.992H395.373C400.109 167.992 403.757 166.936 406.317 164.824C408.941 162.712 410.253 159.8 410.253 156.088C410.253 147.704 403.533 143.512 390.093 143.512H383.469ZM472.139 155.896C473.419 155.896 474.507 156.376 475.403 157.336C476.363 158.232 476.811 159.32 476.747 160.6C476.683 162.008 476.587 163.544 476.459 165.208C476.331 166.808 476.203 168.44 476.075 170.104C476.011 171.896 475.339 173.4 474.059 174.616C472.779 175.832 471.275 176.44 469.547 176.44H440.363C438.699 176.504 437.035 176.632 435.371 176.824C433.707 177.08 432.139 177.208 430.667 177.208C429.387 177.208 428.299 176.76 427.403 175.864C426.507 174.968 426.059 173.88 426.059 172.6C426.059 171.32 426.507 170.232 427.403 169.336C428.363 168.376 429.451 167.896 430.667 167.896C431.051 167.896 431.403 167.928 431.723 167.992C432.107 168.056 432.619 168.088 433.259 168.088H433.451C433.963 168.088 434.219 167.832 434.219 167.32V113.368C434.219 112.856 433.995 112.6 433.547 112.6C432.907 112.6 432.331 112.664 431.819 112.792C431.371 112.856 430.891 112.888 430.379 112.888C429.163 112.888 428.139 112.472 427.307 111.64C426.475 110.808 426.059 109.784 426.059 108.568C426.059 107.288 426.507 106.232 427.403 105.4C428.363 104.504 429.483 104.12 430.763 104.248C432.619 104.44 434.219 104.6 435.563 104.728C436.971 104.792 438.283 104.824 439.499 104.824C440.779 104.824 442.091 104.792 443.435 104.728C444.843 104.6 446.443 104.44 448.235 104.248C449.515 104.12 450.603 104.504 451.499 105.4C452.395 106.232 452.843 107.288 452.843 108.568C452.843 109.848 452.395 110.904 451.499 111.736C450.603 112.568 449.515 112.952 448.235 112.888C447.531 112.76 446.795 112.696 446.027 112.696C445.259 112.632 444.491 112.568 443.723 112.504H443.531C443.083 112.504 442.859 112.76 442.859 113.272V167.032C442.859 167.608 443.147 167.896 443.723 167.896H467.339C467.979 167.896 468.235 167.608 468.107 167.032C468.043 165.816 467.947 164.632 467.819 163.48C467.691 162.328 467.627 161.272 467.627 160.312C467.627 159.096 468.043 158.072 468.875 157.24C469.771 156.344 470.859 155.896 472.139 155.896ZM535.954 157.336C537.298 157.336 538.418 157.816 539.314 158.776C540.21 159.672 540.594 160.76 540.466 162.04L539.89 170.104C539.826 171.896 539.154 173.4 537.874 174.616C536.594 175.832 535.09 176.44 533.362 176.44H499.378C498.226 176.44 497.01 176.536 495.73 176.728C494.514 176.92 493.33 177.08 492.178 177.208C490.834 177.4 489.65 177.048 488.626 176.152C487.602 175.256 487.09 174.104 487.09 172.696C487.09 171.288 487.602 170.168 488.626 169.336C489.65 168.44 490.834 168.088 492.178 168.28C492.37 168.344 492.594 168.376 492.85 168.376C493.106 168.376 493.394 168.408 493.714 168.472H493.906C494.418 168.472 494.674 168.216 494.674 167.704V113.752C494.674 113.176 494.418 112.888 493.906 112.888C493.65 112.888 493.362 112.952 493.042 113.08C492.786 113.144 492.498 113.208 492.178 113.272C490.834 113.464 489.65 113.144 488.626 112.312C487.602 111.416 487.09 110.264 487.09 108.856C487.09 107.448 487.602 106.296 488.626 105.4C489.65 104.504 490.834 104.152 492.178 104.344C493.458 104.472 494.77 104.632 496.114 104.824C497.458 105.016 498.738 105.112 499.954 105.112H533.362C535.09 105.112 536.594 105.72 537.874 106.936C539.154 108.152 539.826 109.656 539.89 111.448L540.466 119.512C540.594 120.728 540.21 121.816 539.314 122.776C538.418 123.736 537.298 124.216 535.954 124.216C534.674 124.216 533.586 123.8 532.69 122.968C531.858 122.072 531.442 121.016 531.442 119.8C531.442 119.032 531.474 118.2 531.538 117.304C531.666 116.344 531.762 115.416 531.826 114.52C531.826 113.944 531.538 113.656 530.962 113.656H504.178C503.602 113.656 503.314 113.944 503.314 114.52V134.296C503.314 134.872 503.602 135.16 504.178 135.16H527.698C528.85 135.16 529.842 135.576 530.674 136.408C531.506 137.24 531.922 138.232 531.922 139.384C531.922 140.536 531.506 141.528 530.674 142.36C529.842 143.128 528.85 143.512 527.698 143.512H504.178C503.602 143.512 503.314 143.8 503.314 144.376V167.032C503.314 167.608 503.602 167.896 504.178 167.896H530.962C531.538 167.896 531.826 167.608 531.826 167.032C531.762 166.072 531.666 165.176 531.538 164.344C531.474 163.448 531.442 162.584 531.442 161.752C531.442 160.536 531.858 159.512 532.69 158.68C533.586 157.784 534.674 157.336 535.954 157.336Z" fill="#AD5013"/>
</svg>
