<svg width="818" height="807" viewBox="0 0 818 807" fill="none" xmlns="http://www.w3.org/2000/svg">
<path d="M808.5 403.5C808.5 620.979 629.759 797.5 409 797.5C188.241 797.5 9.5 620.979 9.5 403.5C9.5 186.021 188.241 9.5 409 9.5C629.759 9.5 808.5 186.021 808.5 403.5Z" fill="#AAC8CA" stroke="#38585A" stroke-width="19"/>
<mask id="mask0_150_203" style="mask-type:alpha" maskUnits="userSpaceOnUse" x="19" y="19" width="781" height="770">
<path d="M790.5 404C790.5 611.256 620.048 779.5 409.5 779.5C198.952 779.5 28.5 611.256 28.5 404C28.5 196.744 198.952 28.5 409.5 28.5C620.048 28.5 790.5 196.744 790.5 404Z" fill="#AAC8CA" stroke="#38585A" stroke-width="19"/>
</mask>
<g mask="url(#mask0_150_203)">
<path d="M239.37 166.534C315.155 92.0192 382.603 94.9237 406.854 105.69C474.149 94.2728 510.174 110.448 519.774 119.962C642.848 177.651 670.784 371.932 666.995 461.82C657.659 590.447 691.307 623.114 682.819 691.62C643.706 729.48 531.617 806.364 396.167 811.013C260.717 815.662 155.772 736.172 120.23 695.846L121.905 684.831C138.274 588.683 143.882 496.04 144.64 461.738C144.64 394.384 163.586 241.048 239.37 166.534Z" fill="#2F2924" stroke="black" stroke-width="3" stroke-linecap="round"/>
<path d="M475.234 386.382C479.781 383.378 491.149 378.721 500.243 384.129" stroke="black" stroke-width="3" stroke-linecap="round"/>
<path d="M309.281 391.123C313.828 388.119 325.196 383.462 334.29 388.87" stroke="black" stroke-width="3" stroke-linecap="round"/>
<path d="M227.414 601.962C219.835 634.261 206.952 704.419 216.046 726.653C225.14 748.888 241.559 767.967 248.631 774.727" stroke="black" stroke-width="3" stroke-linecap="round"/>
<path d="M303.983 579.427C293.626 601.962 279.126 654.393 303.983 683.838" stroke="black" stroke-width="3" stroke-linecap="round"/>
<path d="M306.323 583.187C295.965 605.721 281.465 658.152 306.323 687.597" stroke="#393029" stroke-width="3" stroke-linecap="round"/>
<path d="M231.299 598.206C223.721 630.505 209.223 701.414 218.317 723.648C227.411 745.883 240.802 764.962 247.875 771.722" stroke="#393029" stroke-width="3" stroke-linecap="round"/>
<path d="M524.653 605.253C521.369 618.273 518.438 650.773 532.989 676.612C547.539 702.452 526.926 741.462 514.801 757.737" stroke="black" stroke-width="3" stroke-linecap="round"/>
<path d="M162.248 318.027C157.953 404.16 149.363 577.176 149.363 580.18C141.381 625.789 143.713 668.254 150.757 704.364H136.482L123.941 676.364C127.573 647.089 133.849 620.163 136.482 603.466C139.761 582.673 145.576 508.069 145.576 462.249C145.576 425.592 156.691 350.828 162.248 318.027Z" fill="#393129"/>
<path d="M382.791 140.754C380.366 133.543 368.645 126.733 363.087 124.229C372.181 124.229 397.695 135.246 409.316 140.754C435.386 119.722 460.091 126.482 469.185 132.491C458.272 132.491 444.934 138 439.629 140.754C450.542 143.158 465.901 150.77 472.217 154.275C450.391 147.064 421.189 157.28 409.316 163.289C392.34 154.275 351.72 152.021 333.531 152.021C343.232 142.407 370.413 140.504 382.791 140.754Z" fill="#2E2620"/>
<path d="M476.91 159.645C464.554 153.467 428.89 159.811 411.59 164.039C438.352 144.85 464.98 152.429 476.91 159.645C477.724 160.052 478.438 160.514 479.038 161.034C478.393 160.578 477.682 160.112 476.91 159.645Z" fill="#3A2F27"/>
<path d="M363.806 122.105C363.288 122.055 362.789 122.013 362.309 121.976C362.75 121.976 363.252 122.02 363.806 122.105C377.447 123.399 403.454 129.113 409.295 143.008C397.611 136.391 373.142 123.526 363.806 122.105Z" fill="#3A2F27"/>
<path d="M526.957 606.758C523.673 619.778 520.743 652.278 535.294 678.118C549.844 703.958 529.231 742.968 517.105 759.243" stroke="#393029" stroke-width="3" stroke-linecap="round"/>
<path d="M406.536 235.103C392.273 235.103 354.889 248.877 313.452 318.947C261.655 406.535 212.862 432.737 184.336 434.983" stroke="#393029" stroke-width="6" stroke-linecap="round"/>
<path d="M413.973 235.103C429.011 235.103 472.019 245.265 505.705 300.859C547.811 370.352 587.662 424.899 638.039 421.91" stroke="#393029" stroke-width="6" stroke-linecap="round"/>
<path d="M405.537 239.156C391.138 239.156 353.397 252.977 311.564 323.285C259.273 411.17 210.013 437.46 181.215 439.714" stroke="black" stroke-width="3" stroke-linecap="round"/>
<path d="M414.598 239.156C429.755 239.156 473.103 249.371 507.055 305.257C549.494 375.115 589.66 429.949 640.435 426.944" stroke="black" stroke-width="3" stroke-linecap="round"/>
<path d="M193.312 456.99C209.682 434.755 227.415 438.211 234.236 442.718V416.427C247.118 404.409 285.768 378.118 308.504 330.796C331.239 283.473 373.426 247.668 387.319 242.91C438.247 226.084 485.839 271.454 503.27 296.242C538.434 361.142 568.949 392.39 579.812 399.902L569.96 442.718C585.723 436.709 596.232 440.214 599.516 442.718C611.641 451.962 617.451 491.042 606.336 505.814C591.937 522.34 574.507 525.094 564.655 522.34L553.287 535.861C513.879 579.728 462.346 581.681 436.579 581.681V611.727L456.283 621.492C403.234 682.336 368.235 625.174 368.235 612.655L366.1 611.727V581.681C276.371 584.686 250.15 540.367 243.33 518.584C220.594 537.363 172.85 484.782 193.312 456.99Z" fill="#FAE6DB" stroke="black" stroke-width="3" stroke-linecap="round"/>
<path d="M394.389 242.504C377.584 259.161 373.253 261.884 358.096 309.357C342.939 356.83 309.067 367.43 295.426 367.43" stroke="#393029" stroke-width="4" stroke-linecap="round"/>
<path d="M396.256 240.657C388.787 241.583 369.519 260.037 354.362 307.51C339.205 354.983 308.133 366.851 294.492 366.851" stroke="black" stroke-width="3" stroke-linecap="round"/>
<path d="M651.984 545.698C658.52 482.772 655.408 365.867 646.383 313.429C667.856 370.802 662.254 492.951 661.321 517.011C660.574 536.259 679.059 627.13 685.595 667.847V684.164L661.321 702.654V678.951C647.13 611.584 651.673 562.663 651.984 545.698Z" fill="#393029"/>
<path d="M586.906 666.326C584.79 681.081 584.186 717.616 598.696 745.72" stroke="#393029" stroke-width="3" stroke-linecap="round"/>
<path d="M581.289 662.625C579.173 677.38 578.569 713.915 593.079 742.018" stroke="black" stroke-width="3" stroke-linecap="round"/>
<path d="M498.069 210.04C493.339 205.351 508.027 218.963 513.567 222.681C516.575 224.7 519.781 227.176 523.119 228.624C523.632 228.846 526.016 229.988 525.228 228.599C522.303 223.445 514.214 219.09 509.044 216.386C508.543 216.123 503.995 213.322 506.859 213.213C513.966 212.942 518.643 216.431 524.821 219.332C526.345 220.047 519.656 214.381 518.444 213.213C517.613 212.411 511.828 207.945 515.701 208.252C519.244 208.533 522.686 210.03 526.168 210.72C529.974 211.474 530.456 211.235 527.336 208.227C525.398 206.357 521.753 204.809 520.223 202.788C519.539 201.884 526.532 202.988 527.54 203.241C529.405 203.71 531.227 203.839 533.078 204.173C535.952 204.691 529.435 200.28 528.708 199.64C526.128 197.367 525.036 196.457 529.725 197.248C530.847 197.437 537.691 198.825 536.66 196.668C535.728 194.718 532.912 193.896 531.91 191.909" stroke="#3A2F27" stroke-width="3" stroke-linecap="round"/>
<path d="M259.751 214.534C252.967 221.259 263.192 213.429 265.499 211.357C269.987 207.326 277.679 199.62 283.296 198.154C287.408 197.082 279.814 205.85 277.879 209.604C275.998 213.254 273.698 216.687 271.855 220.341C268.633 226.728 275.984 219.1 277.437 217.711C280.093 215.173 282.723 212.31 285.838 210.371C286.619 209.885 292.47 204.423 292.47 206.7C292.47 209.495 288.273 213.779 286.612 216.013C282.266 221.859 280.055 226.949 287.607 219.464C292.41 214.704 294.628 219.335 292.36 224.395C290.583 228.358 297.361 216.603 298.992 220.067C300.971 224.271 299.11 225.936 301.535 228.339" stroke="#3A2F27" stroke-width="3" stroke-linecap="round"/>
<path d="M549.82 178.968C549.907 180.432 550.216 181.622 551.474 182.246" stroke="#3A2F27" stroke-width="5" stroke-linecap="round"/>
<path d="M310.098 244.522C311.84 242.083 313.948 240.699 316.716 239.602" stroke="#3A2F27" stroke-width="5" stroke-linecap="round"/>
<ellipse cx="301.674" cy="511.076" rx="42.4393" ry="22.5346" fill="url(#paint0_radial_150_203)"/>
<rect width="4.54504" height="13.5269" rx="2.27252" transform="matrix(0.974804 -0.223065 0.226852 0.973929 312.281 504.579)" fill="#D98070"/>
<rect width="4.54504" height="13.5269" rx="2.27252" transform="matrix(0.974804 -0.223065 0.226852 0.973929 303.172 504.579)" fill="#D98070"/>
<rect width="4.54504" height="13.5269" rx="2.27252" transform="matrix(0.974804 -0.223065 0.226852 0.973929 294.098 504.579)" fill="#D98070"/>
<rect width="4.54504" height="13.5269" rx="2.27252" transform="matrix(0.974804 -0.223065 0.226852 0.973929 285.145 504.592)" fill="#D98070"/>
<ellipse cx="504.779" cy="511.076" rx="42.4393" ry="22.5346" fill="url(#paint1_radial_150_203)"/>
<rect width="4.54504" height="13.5269" rx="2.27252" transform="matrix(0.974804 -0.223065 0.226852 0.973929 515.367 504.579)" fill="#D98070"/>
<rect width="4.54504" height="13.5269" rx="2.27252" transform="matrix(0.974804 -0.223065 0.226852 0.973929 506.312 504.579)" fill="#D98070"/>
<rect width="4.54504" height="13.5269" rx="2.27252" transform="matrix(0.974804 -0.223065 0.226852 0.973929 497.18 504.579)" fill="#D98070"/>
<rect width="4.54504" height="13.5269" rx="2.27252" transform="matrix(0.974804 -0.223065 0.226852 0.973929 488.266 504.592)" fill="#D98070"/>
<ellipse cx="410.063" cy="485.538" rx="11.3677" ry="6.00924" fill="url(#paint2_radial_150_203)"/>
<rect x="407.805" y="487.04" width="1.50342" height="4.55044" rx="0.751712" transform="rotate(-90 407.805 487.04)" fill="#D98070"/>
<path d="M212.312 463.688C216.358 461.22 225.57 458.135 230.051 465.538C226.317 467.08 217.541 468.869 212.312 463.688Z" fill="#E08572"/>
<path d="M576.414 461.835C580.46 459.368 589.671 456.283 594.153 463.686C590.418 465.228 581.642 467.017 576.414 461.835Z" fill="#E08572"/>
<rect width="66.2605" height="10.6611" rx="5.33054" transform="matrix(0.957503 -0.288424 0.295967 0.955198 456.164 445.311)" fill="black"/>
<rect width="40.8402" height="10.3638" rx="5.18191" transform="matrix(0.973573 0.228375 -0.234558 0.972102 467.41 400.938)" fill="black"/>
<rect width="41.6792" height="9.68008" rx="4.84004" transform="matrix(0.982715 -0.185123 0.190233 0.981739 309.605 411.097)" fill="black"/>
<rect width="66.2564" height="10.6618" rx="5.33088" transform="matrix(0.95523 0.295863 -0.303563 0.952811 459.395 442.931)" fill="black"/>
<rect width="69.8582" height="11.0637" rx="5.53184" transform="matrix(-0.958996 -0.283419 -0.301152 0.953576 351.645 443.465)" fill="black"/>
<rect width="69.8482" height="11.0654" rx="5.53268" transform="matrix(-0.956798 0.290753 0.308853 0.95111 348.219 441.001)" fill="black"/>
<path d="M425.537 506.811C414.855 507.827 414.129 502.419 409.515 500.208C401.204 508.165 396.697 507.32 391.355 506.812C389.624 515.099 392.279 532.208 407.507 532.208C426.541 532.208 429.189 506.464 425.537 506.811Z" fill="#FEC7C2"/>
<path d="M425.537 506.811C414.855 507.827 414.129 502.419 409.515 500.208C401.204 508.165 396.697 507.32 391.355 506.812M425.537 506.811C429.189 506.464 426.541 532.208 407.507 532.208C392.279 532.208 389.624 515.099 391.355 506.812M425.537 506.811C427.14 506.642 431.007 505.542 432.887 502.875M391.355 506.812C389.647 506.431 386.827 504.653 385.887 502.875" stroke="#C3908F" stroke-linejoin="round"/>
<path d="M660.774 445.098C649.211 461.561 650.913 482.466 653.209 490.861L459.489 616.384L483.257 695.577L686.515 520.123C704.552 528.055 733.166 510.73 745.219 501.076C753.304 500.302 770.614 497.529 775.168 492.627C779.722 487.726 776.428 484.083 770.705 484.392C766.741 484.606 757.574 484.569 752.621 482.711C747.668 480.853 750.655 478.896 752.767 478.149C762.484 474.504 782.006 465.108 782.363 456.689C782.81 446.164 766.808 451.582 766.017 452.258C749.287 458.424 745.253 456.457 745.328 454.703C748.357 451.06 756.299 442.294 763.832 436.372C771.364 430.449 770.065 425.345 768.474 423.533C767.388 422.558 765.526 421.751 762.206 421.91C758.707 421.866 739.316 431.306 729.419 436.585C746.244 419.179 749.378 409.403 748.842 406.691C748.203 404.912 746.211 401.33 743.356 401.231C740.501 401.132 735.671 403.775 733.613 405.11L699.984 430.646C692.129 434.309 691.188 432.45 691.257 428.587C694.95 410.727 691 402.813 688.564 401.089C687.821 400.244 685.306 398.798 681.185 399.779C677.065 400.761 675.41 404.498 675.098 406.244C675.141 412.335 672.337 428.634 660.774 445.098Z" fill="#FAE6DB" stroke="black" stroke-width="2"/>
<path d="M157.022 446.904C168.772 463.238 167.31 484.161 165.109 492.58L343.93 632.546L326.719 693.153L132.141 522.21C114.195 530.343 85.3851 513.337 73.2232 503.818C65.1291 503.134 47.7885 500.553 43.179 495.703C38.5695 490.852 41.8214 487.173 47.5477 487.418C51.514 487.588 60.6794 487.45 65.6108 485.537C70.5423 483.624 67.5335 481.699 65.4127 480.976C55.6551 477.439 36.0264 468.262 35.5728 459.846C35.0058 449.327 51.069 454.567 51.8678 455.234C68.6669 461.214 72.6777 459.202 72.5832 457.449C69.5122 453.84 61.4704 445.163 53.8708 439.325C46.2712 433.486 47.5114 428.368 49.0815 426.538C50.1566 425.552 52.0096 424.724 55.3312 424.846C58.8294 424.763 78.327 433.987 88.2838 439.155C71.2603 421.938 68.0146 412.197 68.5197 409.479C69.1385 407.694 71.0897 404.089 73.9432 403.959C76.7967 403.828 81.6562 406.418 83.7293 407.729L117.648 432.89C125.545 436.465 126.465 434.595 126.352 430.734C122.455 412.915 126.314 404.959 128.73 403.208C129.463 402.354 131.962 400.88 136.093 401.816C140.225 402.751 141.922 406.47 142.254 408.212C142.281 414.304 145.271 430.57 157.022 446.904Z" fill="#FAE6DB" stroke="black" stroke-width="2"/>
<path d="M310.522 705.786L320.482 788.671C354.445 796.166 430.145 793.082 474.869 788.671L484.783 705.786L579.887 632.273C556.111 623.379 532.881 589.152 524.136 569.208L460.187 608.826L443.79 599.932C439.144 606.67 422.745 622.571 402.797 622.571C383.12 622.571 376.561 617.72 360.984 597.507L345.864 604.515L281.457 569.208C268.339 593.141 238.278 621.223 224.887 632.273L310.522 705.786Z" fill="white" stroke="black" stroke-width="2"/>
<path d="M310.612 706.046C330.58 689.417 341.396 632.276 344.308 605.784C357.081 600.429 357.081 599.624 362.833 597.208C362.012 606.871 362.833 642.298 362.833 653.57C373.517 653.57 398.224 653.578 403.925 653.57H443.372L445.016 598.819L460.631 607.676C464.192 637.56 465.562 676.115 491.86 699.465C497.36 718.026 502.673 749.936 507.887 783.813C483.285 800.857 407.442 825.878 300.887 789.612C304.48 757.908 308.172 726.453 310.612 706.046Z" fill="#BACFE1" stroke="black"/>
</g>
<defs>
<radialGradient id="paint0_radial_150_203" cx="0" cy="0" r="1" gradientUnits="userSpaceOnUse" gradientTransform="translate(301.674 511.076) rotate(90) scale(22.5346 42.4393)">
<stop offset="0.0566663" stop-color="#FFAC99"/>
<stop offset="0.476666" stop-color="#FCB4A5"/>
<stop offset="0.741666" stop-color="#FBC6B8"/>
<stop offset="0.941666" stop-color="#FAE6DB"/>
</radialGradient>
<radialGradient id="paint1_radial_150_203" cx="0" cy="0" r="1" gradientUnits="userSpaceOnUse" gradientTransform="translate(504.779 511.076) rotate(90) scale(22.5346 42.4393)">
<stop offset="0.0566663" stop-color="#FFAC99"/>
<stop offset="0.476666" stop-color="#FCB4A5"/>
<stop offset="0.741666" stop-color="#FBC6B8"/>
<stop offset="0.941666" stop-color="#FAE6DB"/>
</radialGradient>
<radialGradient id="paint2_radial_150_203" cx="0" cy="0" r="1" gradientUnits="userSpaceOnUse" gradientTransform="translate(410.063 485.538) rotate(90) scale(6.00924 11.3677)">
<stop offset="0.0566663" stop-color="#FFAC99"/>
<stop offset="0.476666" stop-color="#FCB4A5"/>
<stop offset="0.741666" stop-color="#FFD2C7"/>
<stop offset="0.941666" stop-color="#FAE6DB"/>
</radialGradient>
</defs>
</svg>
