<svg width="892" height="172" viewBox="0 0 892 172" fill="none" xmlns="http://www.w3.org/2000/svg">
<path d="M111.104 95.552C112.725 95.552 114.091 96.1067 115.2 97.216C116.309 98.24 116.864 99.6053 116.864 101.312C116.864 103.019 116.224 104.427 114.944 105.536C113.749 106.645 112.299 107.157 110.592 107.072C108.203 106.816 106.069 106.603 104.192 106.432C102.4 106.347 100.651 106.304 98.944 106.304C97.3227 106.304 95.5733 106.347 93.696 106.432C91.904 106.603 89.7707 106.816 87.296 107.072C85.5893 107.157 84.1387 106.645 82.944 105.536C81.7493 104.427 81.152 103.019 81.152 101.312C81.152 99.6053 81.7493 98.1973 82.944 97.088C84.1387 95.8933 85.5893 95.3813 87.296 95.552C88.2347 95.6373 89.216 95.7227 90.24 95.808C91.3493 95.8933 92.416 95.9787 93.44 96.064H93.696C94.2933 96.064 94.592 95.7227 94.592 95.04V30.4C94.592 29.8027 94.4213 29.504 94.08 29.504C93.7387 29.4187 93.4827 29.632 93.312 30.144L66.944 91.072C66.3467 92.4373 65.4507 93.5467 64.256 94.4C63.1467 95.168 61.8667 95.552 60.416 95.552C59.0507 95.552 57.728 95.1253 56.448 94.272C55.2533 93.4187 54.4 92.352 53.888 91.072L29.568 30.016C29.4827 29.504 29.2693 29.248 28.928 29.248C28.5013 29.248 28.288 29.5893 28.288 30.272V95.04C28.288 95.7227 28.5867 96.064 29.184 96.064C30.2933 96.064 31.36 96.0213 32.384 95.936C33.4933 95.7653 34.56 95.6373 35.584 95.552C37.2907 95.3813 38.7413 95.8933 39.936 97.088C41.1307 98.1973 41.728 99.6053 41.728 101.312C41.728 103.019 41.1307 104.427 39.936 105.536C38.7413 106.645 37.2907 107.157 35.584 107.072C33.1947 106.816 31.0613 106.603 29.184 106.432C27.392 106.347 25.6427 106.304 23.936 106.304C22.2293 106.304 20.48 106.347 18.688 106.432C16.896 106.603 14.7627 106.816 12.288 107.072C10.5813 107.157 9.088 106.645 7.808 105.536C6.61333 104.427 6.016 103.019 6.016 101.312C6.016 99.6053 6.57067 98.24 7.68 97.216C8.78933 96.1067 10.1547 95.552 11.776 95.552C13.1413 95.552 14.3787 95.68 15.488 95.936C16.3413 95.936 16.768 95.552 16.768 94.784V22.08C16.768 21.312 16.384 20.928 15.616 20.928C15.104 21.0133 14.5493 21.0987 13.952 21.184C13.3547 21.184 12.7147 21.184 12.032 21.184C10.4107 21.184 9.04533 20.6293 7.936 19.52C6.82667 18.4107 6.272 17.0453 6.272 15.424C6.272 13.7173 6.912 12.3093 8.192 11.2C9.472 10.0907 10.9653 9.62133 12.672 9.79199C15.488 10.1333 17.8347 10.3893 19.712 10.56C21.5893 10.7307 23.5093 10.816 25.472 10.816C27.9467 10.816 30.1653 11.4987 32.128 12.864C34.176 14.2293 35.6267 16.064 36.48 18.368L59.904 78.144C60.16 78.656 60.416 78.912 60.672 78.912C61.0987 78.912 61.3547 78.656 61.44 78.144L86.656 18.24C87.5947 16.0213 89.088 14.2293 91.136 12.864C93.184 11.4987 95.4027 10.816 97.792 10.816C99.84 10.816 101.76 10.7307 103.552 10.56C105.344 10.3893 107.563 10.1333 110.208 9.79199C111.915 9.62133 113.408 10.1333 114.688 11.328C115.968 12.4373 116.608 13.8453 116.608 15.552C116.608 17.1733 116.053 18.5387 114.944 19.648C113.835 20.672 112.469 21.184 110.848 21.184C110.251 21.184 109.653 21.1413 109.056 21.056C108.544 20.9707 107.947 20.928 107.264 20.928H107.008C106.411 20.928 106.112 21.2693 106.112 21.952V94.784C106.112 95.552 106.539 95.936 107.392 95.936C108.672 95.68 109.909 95.552 111.104 95.552ZM195.814 80.448C197.606 80.448 199.099 81.088 200.294 82.368C201.489 83.5627 202.001 85.0133 201.83 86.72L201.062 97.472C200.977 99.8613 200.081 101.867 198.374 103.488C196.667 105.109 194.662 105.92 192.358 105.92H147.046C145.51 105.92 143.889 106.048 142.182 106.304C140.561 106.56 138.982 106.773 137.446 106.944C135.654 107.2 134.075 106.731 132.71 105.536C131.345 104.341 130.662 102.805 130.662 100.928C130.662 99.0507 131.345 97.5573 132.71 96.448C134.075 95.2533 135.654 94.784 137.446 95.04C137.702 95.1253 138.001 95.168 138.342 95.168C138.683 95.168 139.067 95.2107 139.494 95.296H139.75C140.433 95.296 140.774 94.9547 140.774 94.272V22.336C140.774 21.568 140.433 21.184 139.75 21.184C139.409 21.184 139.025 21.2693 138.598 21.44C138.257 21.5253 137.873 21.6107 137.446 21.696C135.654 21.952 134.075 21.5253 132.71 20.416C131.345 19.2213 130.662 17.6853 130.662 15.808C130.662 13.9307 131.345 12.3947 132.71 11.2C134.075 10.0053 135.654 9.536 137.446 9.79199C139.153 9.96266 140.902 10.176 142.694 10.432C144.486 10.688 146.193 10.816 147.814 10.816H192.358C194.662 10.816 196.667 11.6267 198.374 13.248C200.081 14.8693 200.977 16.8747 201.062 19.264L201.83 30.016C202.001 31.6373 201.489 33.088 200.294 34.368C199.099 35.648 197.606 36.288 195.814 36.288C194.107 36.288 192.657 35.7333 191.462 34.624C190.353 33.4293 189.798 32.0213 189.798 30.4C189.798 29.376 189.841 28.2667 189.926 27.072C190.097 25.792 190.225 24.5547 190.31 23.36C190.31 22.592 189.926 22.208 189.158 22.208H153.446C152.678 22.208 152.294 22.592 152.294 23.36V49.728C152.294 50.496 152.678 50.88 153.446 50.88H184.806C186.342 50.88 187.665 51.4347 188.774 52.544C189.883 53.6533 190.438 54.976 190.438 56.512C190.438 58.048 189.883 59.3707 188.774 60.48C187.665 61.504 186.342 62.016 184.806 62.016H153.446C152.678 62.016 152.294 62.4 152.294 63.168V93.376C152.294 94.144 152.678 94.528 153.446 94.528H189.158C189.926 94.528 190.31 94.144 190.31 93.376C190.225 92.096 190.097 90.9013 189.926 89.792C189.841 88.5973 189.798 87.4453 189.798 86.336C189.798 84.7147 190.353 83.3493 191.462 82.24C192.657 81.0453 194.107 80.448 195.814 80.448ZM298.686 95.552C300.393 95.3813 301.843 95.8933 303.038 97.088C304.318 98.1973 304.958 99.6053 304.958 101.312C304.958 103.019 304.318 104.427 303.038 105.536C301.843 106.645 300.393 107.157 298.686 107.072C298.345 106.987 296.979 106.816 294.59 106.56C292.201 106.304 289.897 106.176 287.678 106.176C284.009 106.176 281.193 104.64 279.23 101.568L257.982 69.184C257.726 68.672 257.257 68.416 256.574 68.416H241.214C240.446 68.416 240.062 68.8 240.062 69.568V95.04C240.062 95.7227 240.361 96.064 240.958 96.064C242.067 96.064 243.134 96.0213 244.158 95.936C245.182 95.7653 246.206 95.6373 247.23 95.552C248.937 95.3813 250.387 95.8933 251.582 97.088C252.777 98.1973 253.374 99.6053 253.374 101.312C253.374 103.019 252.777 104.427 251.582 105.536C250.387 106.645 248.937 107.157 247.23 107.072C244.841 106.816 242.707 106.603 240.83 106.432C239.038 106.347 237.289 106.304 235.582 106.304C233.875 106.304 232.126 106.347 230.334 106.432C228.542 106.603 226.409 106.816 223.934 107.072C222.227 107.157 220.734 106.645 219.454 105.536C218.259 104.427 217.662 103.019 217.662 101.312C217.662 99.6053 218.217 98.24 219.326 97.216C220.435 96.1067 221.801 95.552 223.422 95.552C224.019 95.552 224.617 95.5947 225.214 95.68C225.897 95.7653 226.622 95.8507 227.39 95.936H227.646C228.243 95.936 228.542 95.5947 228.542 94.912V22.336C228.542 21.4827 228.158 21.1413 227.39 21.312L224.318 21.568C222.611 21.824 221.075 21.3973 219.71 20.288C218.345 19.0933 217.662 17.6 217.662 15.808C217.662 13.9307 218.302 12.4373 219.582 11.328C220.947 10.1333 222.526 9.62133 224.318 9.79199C226.025 10.048 227.774 10.304 229.566 10.56C231.443 10.7307 233.235 10.816 234.942 10.816L258.366 10.944C269.545 11.0293 278.249 13.5893 284.478 18.624C290.793 23.5733 293.95 30.5707 293.95 39.616C293.95 46.6987 291.987 52.6293 288.062 57.408C284.222 62.1013 278.761 65.3013 271.678 67.008C270.739 67.1787 270.526 67.648 271.038 68.416L288.702 95.552C288.958 96.064 289.47 96.32 290.238 96.32C293.225 96.1493 296.041 95.8933 298.686 95.552ZM259.774 21.952H241.214C240.446 21.952 240.062 22.336 240.062 23.104V56C240.062 56.768 240.446 57.152 241.214 57.152H259.774C275.219 57.152 282.942 51.3067 282.942 39.616C282.942 27.84 275.219 21.952 259.774 21.952ZM391.496 78.912C393.032 80.2773 393.8 81.984 393.8 84.032C393.8 85.3973 393.459 86.5493 392.776 87.488C388.339 93.7173 382.835 98.5387 376.264 101.952C369.693 105.365 362.739 107.072 355.4 107.072C349 107.072 342.984 105.835 337.352 103.36C331.72 100.8 326.771 97.3013 322.504 92.864C318.237 88.3413 314.867 83.136 312.392 77.248C310.003 71.36 308.808 65.0453 308.808 58.304C308.808 51.5627 310.003 45.248 312.392 39.36C314.781 33.472 318.109 28.3093 322.376 23.872C326.643 19.4347 331.592 15.9787 337.224 13.504C342.856 10.944 348.915 9.66399 355.4 9.66399C367.517 9.66399 377.715 13.632 385.992 21.568C390.6 25.7493 392.904 29.8453 392.904 33.856C392.904 36.3307 392.051 38.4213 390.344 40.128C388.637 41.8347 386.589 42.688 384.2 42.688C381.64 42.688 379.549 41.792 377.928 40C376.307 38.208 375.496 36.2027 375.496 33.984C375.496 32.448 375.88 31.04 376.648 29.76C377.075 29.0773 377.032 28.5227 376.52 28.096C371.571 23.1467 364.531 20.672 355.4 20.672C348.744 20.672 342.771 22.336 337.48 25.664C332.189 28.9067 328.008 33.3867 324.936 39.104C321.864 44.736 320.328 51.136 320.328 58.304C320.328 65.3867 321.864 71.744 324.936 77.376C328.008 82.9227 332.189 87.3173 337.48 90.56C342.771 93.8027 348.744 95.424 355.4 95.424C361.288 95.424 366.749 94.1013 371.784 91.456C376.819 88.8107 380.915 85.0987 384.072 80.32C385.096 78.6133 386.547 77.76 388.424 77.76C389.619 77.76 390.643 78.144 391.496 78.912ZM439.385 95.552C441.092 95.3813 442.542 95.8933 443.737 97.088C445.017 98.1973 445.657 99.6053 445.657 101.312C445.657 103.019 445.017 104.427 443.737 105.536C442.542 106.645 441.092 107.157 439.385 107.072C436.996 106.816 434.777 106.603 432.729 106.432C430.681 106.347 428.676 106.304 426.713 106.304C423.3 106.304 419.332 106.56 414.809 107.072C413.102 107.157 411.609 106.645 410.329 105.536C409.134 104.427 408.537 103.019 408.537 101.312C408.537 99.6053 409.134 98.1973 410.329 97.088C411.609 95.8933 413.102 95.3813 414.809 95.552C415.662 95.6373 416.558 95.7227 417.497 95.808C418.436 95.8933 419.374 95.9787 420.313 96.064H420.569C421.166 96.064 421.465 95.7227 421.465 95.04V21.696C421.465 21.0133 421.166 20.672 420.569 20.672C419.545 20.672 418.564 20.7147 417.625 20.8C416.686 20.8853 415.748 21.0133 414.809 21.184C413.102 21.2693 411.609 20.7573 410.329 19.648C409.134 18.5387 408.537 17.1307 408.537 15.424C408.537 13.7173 409.134 12.3093 410.329 11.2C411.609 10.0053 413.102 9.49333 414.809 9.66399C417.284 9.92 419.502 10.1333 421.465 10.304C423.513 10.3893 425.518 10.432 427.481 10.432C430.809 10.432 434.777 10.176 439.385 9.66399C441.092 9.49333 442.542 10.0053 443.737 11.2C445.017 12.3093 445.657 13.7173 445.657 15.424C445.657 17.1307 445.017 18.5387 443.737 19.648C442.542 20.7573 441.092 21.2693 439.385 21.184C438.532 21.0133 437.678 20.928 436.825 20.928C435.972 20.8427 435.076 20.7573 434.137 20.672H433.881C433.284 20.672 432.985 21.0133 432.985 21.696V95.04C432.985 95.7227 433.326 96.064 434.009 96.064C434.862 96.064 435.758 96.0213 436.697 95.936C437.636 95.7653 438.532 95.6373 439.385 95.552Z" fill="#FFA900"/>
<path d="M24.144 128.056C28.176 128.056 31.36 129.016 33.696 130.936C36.032 132.824 37.2 135.464 37.2 138.856C37.2 142.248 36.032 144.904 33.696 146.824C31.392 148.712 28.144 149.656 23.952 149.656H17.424C17.136 149.656 16.992 149.8 16.992 150.088V159.64C16.992 159.896 17.104 160.024 17.328 160.024C17.744 160.024 18.144 160.008 18.528 159.976C18.912 159.912 19.296 159.864 19.68 159.832C20.32 159.768 20.864 159.96 21.312 160.408C21.76 160.824 21.984 161.352 21.984 161.992C21.984 162.6 21.744 163.112 21.264 163.528C20.816 163.976 20.288 164.168 19.68 164.104C18.752 164.04 17.936 163.976 17.232 163.912C16.528 163.88 15.856 163.864 15.216 163.864C14.576 163.864 13.92 163.88 13.248 163.912C12.608 163.976 11.84 164.04 10.944 164.104C10.336 164.168 9.792 163.992 9.312 163.576C8.832 163.16 8.592 162.632 8.592 161.992C8.592 161.352 8.8 160.84 9.216 160.456C9.632 160.04 10.144 159.832 10.752 159.832C10.976 159.832 11.2 159.848 11.424 159.88C11.68 159.912 11.952 159.944 12.24 159.976H12.336C12.56 159.976 12.672 159.848 12.672 159.592V132.376C12.672 132.12 12.56 131.992 12.336 131.992C12.08 131.992 11.824 132.024 11.568 132.088C11.344 132.12 11.104 132.136 10.848 132.136C10.24 132.136 9.712 131.928 9.264 131.512C8.816 131.064 8.592 130.536 8.592 129.928C8.592 129.224 8.832 128.664 9.312 128.248C9.824 127.8 10.416 127.608 11.088 127.672C11.728 127.768 12.384 127.864 13.056 127.96C13.76 128.024 14.432 128.056 15.072 128.056H24.144ZM16.992 145C16.992 145.288 17.136 145.432 17.424 145.432H24.384C30.176 145.432 33.072 143.24 33.072 138.856C33.072 134.344 30.08 132.136 24.096 132.232H17.424C17.136 132.232 16.992 132.376 16.992 132.664V145ZM59.3453 127.624C61.7453 127.624 64.0013 128.104 66.1133 129.064C68.2253 129.992 70.0813 131.304 71.6813 133C73.2813 134.664 74.5293 136.6 75.4253 138.808C76.3533 141.016 76.8173 143.368 76.8173 145.864C76.8173 148.392 76.3533 150.76 75.4253 152.968C74.5293 155.176 73.2813 157.128 71.6813 158.824C70.0813 160.488 68.2253 161.8 66.1133 162.76C64.0013 163.688 61.7453 164.152 59.3453 164.152C56.9453 164.152 54.6893 163.688 52.5773 162.76C50.4653 161.8 48.6093 160.488 47.0093 158.824C45.4093 157.128 44.1453 155.176 43.2173 152.968C42.3213 150.76 41.8733 148.392 41.8733 145.864C41.8733 143.368 42.3213 141.016 43.2173 138.808C44.1453 136.6 45.4093 134.664 47.0093 133C48.6093 131.304 50.4653 129.992 52.5773 129.064C54.6893 128.104 56.9453 127.624 59.3453 127.624ZM59.3453 159.784C61.8733 159.784 64.1133 159.192 66.0653 158.008C68.0173 156.792 69.5533 155.144 70.6733 153.064C71.8253 150.952 72.4013 148.552 72.4013 145.864C72.4013 143.176 71.8253 140.792 70.6733 138.712C69.5533 136.632 68.0013 135 66.0173 133.816C64.0653 132.6 61.8413 131.992 59.3453 131.992C56.8173 131.992 54.5613 132.6 52.5773 133.816C50.6253 135 49.0733 136.648 47.9213 138.76C46.8013 140.84 46.2413 143.208 46.2413 145.864C46.2413 148.52 46.8013 150.904 47.9213 153.016C49.0733 155.128 50.6413 156.792 52.6253 158.008C54.6093 159.192 56.8493 159.784 59.3453 159.784ZM109.8 127.624C110.44 127.56 110.984 127.752 111.432 128.2C111.912 128.616 112.152 129.144 112.152 129.784C112.152 130.392 111.944 130.904 111.528 131.32C111.112 131.736 110.6 131.944 109.992 131.944C109.736 131.944 109.448 131.928 109.128 131.896C108.84 131.864 108.536 131.832 108.216 131.8H108.12C107.896 131.8 107.784 131.928 107.784 132.184V150.52C107.784 153.304 107.288 155.72 106.296 157.768C105.304 159.816 103.88 161.4 102.024 162.52C100.2 163.608 98.0236 164.152 95.4956 164.152C92.9676 164.152 90.7756 163.608 88.9196 162.52C87.0956 161.4 85.6876 159.816 84.6956 157.768C83.7036 155.72 83.2076 153.304 83.2076 150.52V132.184C83.2076 131.928 83.0956 131.8 82.8716 131.8C82.5516 131.8 82.2316 131.832 81.9116 131.896C81.6236 131.928 81.3196 131.944 80.9996 131.944C80.3916 131.944 79.8796 131.736 79.4636 131.32C79.0476 130.904 78.8396 130.392 78.8396 129.784C78.8396 129.144 79.0636 128.616 79.5116 128.2C79.9916 127.752 80.5516 127.56 81.1916 127.624C82.1196 127.72 82.9196 127.8 83.5916 127.864C84.2636 127.896 84.9196 127.912 85.5596 127.912C86.1996 127.912 86.8556 127.896 87.5276 127.864C88.2316 127.8 89.0316 127.72 89.9276 127.624C90.5676 127.56 91.1116 127.752 91.5596 128.2C92.0076 128.616 92.2316 129.144 92.2316 129.784C92.2316 130.424 92.0076 130.952 91.5596 131.368C91.1116 131.784 90.5676 131.976 89.9276 131.944C89.6076 131.88 89.2716 131.848 88.9196 131.848C88.5676 131.816 88.2156 131.784 87.8636 131.752H87.7676C87.5436 131.752 87.4316 131.88 87.4316 132.136V150.568C87.4316 151.048 87.4636 151.672 87.5276 152.44C87.6236 153.208 87.7996 154.04 88.0556 154.936C88.3436 155.8 88.7756 156.632 89.3516 157.432C89.9596 158.2 90.7596 158.84 91.7516 159.352C92.7436 159.832 93.9916 160.072 95.4956 160.072C97.0316 160.072 98.2956 159.832 99.2876 159.352C100.28 158.84 101.064 158.184 101.64 157.384C102.216 156.584 102.632 155.752 102.888 154.888C103.176 153.992 103.352 153.16 103.416 152.392C103.512 151.624 103.56 151.016 103.56 150.568V132.136C103.56 131.88 103.448 131.752 103.224 131.752C102.84 131.752 102.472 131.768 102.12 131.8C101.768 131.832 101.416 131.88 101.064 131.944C100.456 131.976 99.9116 131.784 99.4316 131.368C98.9836 130.952 98.7596 130.424 98.7596 129.784C98.7596 129.144 98.9836 128.616 99.4316 128.2C99.9116 127.752 100.456 127.56 101.064 127.624C101.992 127.72 102.792 127.8 103.464 127.864C104.168 127.896 104.824 127.912 105.432 127.912C106.072 127.912 106.728 127.896 107.4 127.864C108.104 127.8 108.904 127.72 109.8 127.624ZM146.929 159.832C147.569 159.768 148.113 159.96 148.561 160.408C149.041 160.824 149.281 161.352 149.281 161.992C149.281 162.632 149.041 163.16 148.561 163.576C148.113 163.992 147.569 164.184 146.929 164.152C146.801 164.12 146.289 164.056 145.393 163.96C144.497 163.864 143.633 163.816 142.801 163.816C141.425 163.816 140.369 163.24 139.633 162.088L131.665 149.944C131.569 149.752 131.393 149.656 131.137 149.656H125.377C125.089 149.656 124.945 149.8 124.945 150.088V159.64C124.945 159.896 125.057 160.024 125.281 160.024C125.697 160.024 126.097 160.008 126.481 159.976C126.865 159.912 127.249 159.864 127.633 159.832C128.273 159.768 128.817 159.96 129.265 160.408C129.713 160.824 129.937 161.352 129.937 161.992C129.937 162.632 129.713 163.16 129.265 163.576C128.817 163.992 128.273 164.184 127.633 164.152C126.737 164.056 125.937 163.976 125.233 163.912C124.561 163.88 123.905 163.864 123.265 163.864C122.625 163.864 121.969 163.88 121.297 163.912C120.625 163.976 119.825 164.056 118.897 164.152C118.257 164.184 117.697 163.992 117.217 163.576C116.769 163.16 116.545 162.632 116.545 161.992C116.545 161.352 116.753 160.84 117.169 160.456C117.585 160.04 118.097 159.832 118.705 159.832C118.929 159.832 119.153 159.848 119.377 159.88C119.633 159.912 119.905 159.944 120.193 159.976H120.289C120.513 159.976 120.625 159.848 120.625 159.592V132.376C120.625 132.056 120.481 131.928 120.193 131.992L119.041 132.088C118.401 132.184 117.825 132.024 117.313 131.608C116.801 131.16 116.545 130.6 116.545 129.928C116.545 129.224 116.785 128.664 117.265 128.248C117.777 127.8 118.369 127.608 119.041 127.672C119.681 127.768 120.337 127.864 121.009 127.96C121.713 128.024 122.385 128.056 123.025 128.056L131.809 128.104C136.001 128.136 139.265 129.096 141.601 130.984C143.969 132.84 145.153 135.464 145.153 138.856C145.153 141.512 144.417 143.736 142.945 145.528C141.505 147.288 139.457 148.488 136.801 149.128C136.449 149.192 136.369 149.368 136.561 149.656L143.185 159.832C143.281 160.024 143.473 160.12 143.761 160.12C144.881 160.056 145.937 159.96 146.929 159.832ZM132.337 132.232H125.377C125.089 132.232 124.945 132.376 124.945 132.664V145C124.945 145.288 125.089 145.432 125.377 145.432H132.337C138.129 145.432 141.025 143.24 141.025 138.856C141.025 134.44 138.129 132.232 132.337 132.232ZM195.559 127.624C196.199 127.56 196.743 127.752 197.191 128.2C197.639 128.616 197.863 129.144 197.863 129.784C197.863 130.424 197.639 130.952 197.191 131.368C196.743 131.784 196.199 131.976 195.559 131.944C194.983 131.848 194.407 131.8 193.831 131.8H193.735C193.607 131.8 193.479 131.912 193.351 132.136L183.607 161.8C183.383 162.504 182.951 163.064 182.311 163.48C181.703 163.928 181.031 164.152 180.295 164.152C179.559 164.152 178.887 163.928 178.279 163.48C177.703 163.064 177.287 162.504 177.031 161.8L167.335 132.136C167.239 131.912 167.111 131.8 166.951 131.8C166.375 131.8 165.767 131.848 165.127 131.944C164.519 131.976 163.975 131.784 163.495 131.368C163.047 130.952 162.823 130.424 162.823 129.784C162.823 129.144 163.047 128.616 163.495 128.2C163.975 127.752 164.519 127.56 165.127 127.624C166.055 127.72 166.855 127.8 167.527 127.864C168.231 127.896 168.887 127.912 169.495 127.912C170.135 127.912 170.791 127.896 171.463 127.864C172.167 127.8 172.967 127.72 173.863 127.624C174.503 127.56 175.047 127.752 175.495 128.2C175.975 128.616 176.215 129.144 176.215 129.784C176.215 130.424 175.975 130.952 175.495 131.368C175.047 131.784 174.503 131.976 173.863 131.944C173.607 131.88 173.335 131.848 173.047 131.848C172.791 131.848 172.535 131.832 172.279 131.8H172.183C171.895 131.8 171.799 131.96 171.895 132.28L180.055 157.672C180.183 157.896 180.279 158.008 180.343 158.008C180.471 158.008 180.567 157.896 180.631 157.672L188.887 132.28C188.887 132.248 188.887 132.216 188.887 132.184C188.919 132.152 188.935 132.12 188.935 132.088C188.935 131.896 188.823 131.8 188.599 131.8C187.991 131.8 187.399 131.848 186.823 131.944C186.183 131.976 185.623 131.784 185.143 131.368C184.695 130.952 184.471 130.424 184.471 129.784C184.471 129.144 184.695 128.616 185.143 128.2C185.623 127.752 186.183 127.56 186.823 127.624C187.751 127.72 188.551 127.8 189.223 127.864C189.895 127.896 190.551 127.912 191.191 127.912C191.831 127.912 192.487 127.896 193.159 127.864C193.863 127.8 194.663 127.72 195.559 127.624ZM215.205 127.624C217.605 127.624 219.861 128.104 221.973 129.064C224.085 129.992 225.941 131.304 227.541 133C229.141 134.664 230.389 136.6 231.285 138.808C232.213 141.016 232.677 143.368 232.677 145.864C232.677 148.392 232.213 150.76 231.285 152.968C230.389 155.176 229.141 157.128 227.541 158.824C225.941 160.488 224.085 161.8 221.973 162.76C219.861 163.688 217.605 164.152 215.205 164.152C212.805 164.152 210.549 163.688 208.437 162.76C206.325 161.8 204.469 160.488 202.869 158.824C201.269 157.128 200.005 155.176 199.077 152.968C198.181 150.76 197.733 148.392 197.733 145.864C197.733 143.368 198.181 141.016 199.077 138.808C200.005 136.6 201.269 134.664 202.869 133C204.469 131.304 206.325 129.992 208.437 129.064C210.549 128.104 212.805 127.624 215.205 127.624ZM215.205 159.784C217.733 159.784 219.973 159.192 221.925 158.008C223.877 156.792 225.413 155.144 226.533 153.064C227.685 150.952 228.261 148.552 228.261 145.864C228.261 143.176 227.685 140.792 226.533 138.712C225.413 136.632 223.861 135 221.877 133.816C219.925 132.6 217.701 131.992 215.205 131.992C212.677 131.992 210.421 132.6 208.437 133.816C206.485 135 204.933 136.648 203.781 138.76C202.661 140.84 202.101 143.208 202.101 145.864C202.101 148.52 202.661 150.904 203.781 153.016C204.933 155.128 206.501 156.792 208.485 158.008C210.469 159.192 212.709 159.784 215.205 159.784ZM263.883 136.216C263.947 136.824 263.755 137.368 263.307 137.848C262.859 138.328 262.299 138.568 261.627 138.568C260.955 138.568 260.395 138.328 259.947 137.848C259.531 137.368 259.339 136.824 259.371 136.216L259.611 132.712C259.611 132.424 259.483 132.28 259.227 132.28H252.219C251.931 132.28 251.787 132.424 251.787 132.712V159.64C251.787 159.896 251.899 160.024 252.123 160.024C252.507 160.024 252.875 160.008 253.227 159.976C253.611 159.912 253.963 159.864 254.283 159.832C254.923 159.768 255.467 159.96 255.915 160.408C256.363 160.824 256.587 161.352 256.587 161.992C256.587 162.6 256.363 163.112 255.915 163.528C255.467 163.944 254.923 164.136 254.283 164.104C253.355 164.008 252.619 163.944 252.075 163.912C251.563 163.88 251.131 163.848 250.779 163.816C250.427 163.816 250.043 163.816 249.627 163.816C249.179 163.816 248.779 163.816 248.427 163.816C248.075 163.848 247.643 163.88 247.131 163.912C246.651 163.944 245.947 164.008 245.019 164.104C244.411 164.136 243.867 163.944 243.387 163.528C242.939 163.112 242.715 162.6 242.715 161.992C242.715 161.352 242.939 160.824 243.387 160.408C243.867 159.96 244.411 159.768 245.019 159.832C245.339 159.864 245.675 159.896 246.027 159.928C246.379 159.96 246.731 159.992 247.083 160.024H247.179C247.403 160.024 247.515 159.896 247.515 159.64V132.712C247.515 132.424 247.371 132.28 247.083 132.28H240.027C239.771 132.28 239.643 132.424 239.643 132.712L239.883 136.216C239.947 136.824 239.755 137.368 239.307 137.848C238.859 138.328 238.299 138.568 237.627 138.568C236.955 138.568 236.395 138.328 235.947 137.848C235.531 137.368 235.339 136.824 235.371 136.216C235.435 135.48 235.499 134.68 235.563 133.816C235.627 132.952 235.675 132.088 235.707 131.224C235.771 130.328 236.107 129.576 236.715 128.968C237.355 128.36 238.107 128.056 238.971 128.056H260.331C261.163 128.056 261.899 128.36 262.539 128.968C263.179 129.576 263.515 130.328 263.547 131.224C263.611 132.088 263.675 132.952 263.739 133.816C263.803 134.68 263.851 135.48 263.883 136.216ZM299.367 159.832C300.007 159.768 300.551 159.96 300.999 160.408C301.479 160.824 301.719 161.352 301.719 161.992C301.719 162.632 301.479 163.16 300.999 163.576C300.551 163.992 300.007 164.184 299.367 164.152C299.239 164.12 298.727 164.056 297.831 163.96C296.935 163.864 296.071 163.816 295.239 163.816C293.863 163.816 292.807 163.24 292.071 162.088L284.103 149.944C284.007 149.752 283.831 149.656 283.575 149.656H277.815C277.527 149.656 277.383 149.8 277.383 150.088V159.64C277.383 159.896 277.495 160.024 277.719 160.024C278.135 160.024 278.535 160.008 278.919 159.976C279.303 159.912 279.687 159.864 280.071 159.832C280.711 159.768 281.255 159.96 281.703 160.408C282.151 160.824 282.375 161.352 282.375 161.992C282.375 162.632 282.151 163.16 281.703 163.576C281.255 163.992 280.711 164.184 280.071 164.152C279.175 164.056 278.375 163.976 277.671 163.912C276.999 163.88 276.343 163.864 275.703 163.864C275.063 163.864 274.407 163.88 273.735 163.912C273.063 163.976 272.263 164.056 271.335 164.152C270.695 164.184 270.135 163.992 269.655 163.576C269.207 163.16 268.983 162.632 268.983 161.992C268.983 161.352 269.191 160.84 269.607 160.456C270.023 160.04 270.535 159.832 271.143 159.832C271.367 159.832 271.591 159.848 271.815 159.88C272.071 159.912 272.343 159.944 272.631 159.976H272.727C272.951 159.976 273.063 159.848 273.063 159.592V132.376C273.063 132.056 272.919 131.928 272.631 131.992L271.479 132.088C270.839 132.184 270.263 132.024 269.751 131.608C269.239 131.16 268.983 130.6 268.983 129.928C268.983 129.224 269.223 128.664 269.703 128.248C270.215 127.8 270.807 127.608 271.479 127.672C272.119 127.768 272.775 127.864 273.447 127.96C274.151 128.024 274.823 128.056 275.463 128.056L284.247 128.104C288.439 128.136 291.703 129.096 294.039 130.984C296.407 132.84 297.591 135.464 297.591 138.856C297.591 141.512 296.855 143.736 295.383 145.528C293.943 147.288 291.895 148.488 289.239 149.128C288.887 149.192 288.807 149.368 288.999 149.656L295.623 159.832C295.719 160.024 295.911 160.12 296.199 160.12C297.319 160.056 298.375 159.96 299.367 159.832ZM284.775 132.232H277.815C277.527 132.232 277.383 132.376 277.383 132.664V145C277.383 145.288 277.527 145.432 277.815 145.432H284.775C290.567 145.432 293.463 143.24 293.463 138.856C293.463 134.44 290.567 132.232 284.775 132.232ZM329.18 154.168C329.852 154.168 330.412 154.408 330.86 154.888C331.308 155.336 331.5 155.88 331.436 156.52L331.148 160.552C331.116 161.448 330.78 162.2 330.14 162.808C329.5 163.416 328.748 163.72 327.884 163.72H310.892C310.316 163.72 309.708 163.768 309.068 163.864C308.46 163.96 307.868 164.04 307.292 164.104C306.62 164.2 306.028 164.024 305.516 163.576C305.004 163.128 304.748 162.552 304.748 161.848C304.748 161.144 305.004 160.584 305.516 160.168C306.028 159.72 306.62 159.544 307.292 159.64C307.388 159.672 307.5 159.688 307.628 159.688C307.756 159.688 307.9 159.704 308.06 159.736H308.156C308.412 159.736 308.54 159.608 308.54 159.352V132.376C308.54 132.088 308.412 131.944 308.156 131.944C308.028 131.944 307.884 131.976 307.724 132.04C307.596 132.072 307.452 132.104 307.292 132.136C306.62 132.232 306.028 132.072 305.516 131.656C305.004 131.208 304.748 130.632 304.748 129.928C304.748 129.224 305.004 128.648 305.516 128.2C306.028 127.752 306.62 127.576 307.292 127.672C307.932 127.736 308.588 127.816 309.26 127.912C309.932 128.008 310.572 128.056 311.18 128.056H327.884C328.748 128.056 329.5 128.36 330.14 128.968C330.78 129.576 331.116 130.328 331.148 131.224L331.436 135.256C331.5 135.864 331.308 136.408 330.86 136.888C330.412 137.368 329.852 137.608 329.18 137.608C328.54 137.608 327.996 137.4 327.548 136.984C327.132 136.536 326.924 136.008 326.924 135.4C326.924 135.016 326.94 134.6 326.972 134.152C327.036 133.672 327.084 133.208 327.116 132.76C327.116 132.472 326.972 132.328 326.684 132.328H313.292C313.004 132.328 312.86 132.472 312.86 132.76V142.648C312.86 142.936 313.004 143.08 313.292 143.08H325.052C325.628 143.08 326.124 143.288 326.54 143.704C326.956 144.12 327.164 144.616 327.164 145.192C327.164 145.768 326.956 146.264 326.54 146.68C326.124 147.064 325.628 147.256 325.052 147.256H313.292C313.004 147.256 312.86 147.4 312.86 147.688V159.016C312.86 159.304 313.004 159.448 313.292 159.448H326.684C326.972 159.448 327.116 159.304 327.116 159.016C327.084 158.536 327.036 158.088 326.972 157.672C326.94 157.224 326.924 156.792 326.924 156.376C326.924 155.768 327.132 155.256 327.548 154.84C327.996 154.392 328.54 154.168 329.18 154.168ZM360.941 159.832C361.581 159.768 362.125 159.96 362.573 160.408C363.053 160.824 363.293 161.352 363.293 161.992C363.293 162.632 363.053 163.16 362.573 163.576C362.125 163.992 361.581 164.184 360.941 164.152C360.045 164.056 359.213 163.976 358.445 163.912C357.677 163.88 356.925 163.864 356.189 163.864C354.909 163.864 353.421 163.96 351.725 164.152C351.085 164.184 350.525 163.992 350.045 163.576C349.597 163.16 349.373 162.632 349.373 161.992C349.373 161.352 349.597 160.824 350.045 160.408C350.525 159.96 351.085 159.768 351.725 159.832C352.045 159.864 352.381 159.896 352.733 159.928C353.085 159.96 353.437 159.992 353.789 160.024H353.885C354.109 160.024 354.221 159.896 354.221 159.64V132.136C354.221 131.88 354.109 131.752 353.885 131.752C353.501 131.752 353.133 131.768 352.781 131.8C352.429 131.832 352.077 131.88 351.725 131.944C351.085 131.976 350.525 131.784 350.045 131.368C349.597 130.952 349.373 130.424 349.373 129.784C349.373 129.144 349.597 128.616 350.045 128.2C350.525 127.752 351.085 127.56 351.725 127.624C352.653 127.72 353.485 127.8 354.221 127.864C354.989 127.896 355.741 127.912 356.477 127.912C357.725 127.912 359.213 127.816 360.941 127.624C361.581 127.56 362.125 127.752 362.573 128.2C363.053 128.616 363.293 129.144 363.293 129.784C363.293 130.424 363.053 130.952 362.573 131.368C362.125 131.784 361.581 131.976 360.941 131.944C360.621 131.88 360.301 131.848 359.981 131.848C359.661 131.816 359.325 131.784 358.973 131.752H358.877C358.653 131.752 358.541 131.88 358.541 132.136V159.64C358.541 159.896 358.669 160.024 358.925 160.024C359.245 160.024 359.581 160.008 359.933 159.976C360.285 159.912 360.621 159.864 360.941 159.832ZM400.946 127.624C401.586 127.56 402.13 127.752 402.578 128.2C403.026 128.616 403.25 129.144 403.25 129.784C403.25 130.392 403.042 130.904 402.626 131.32C402.21 131.736 401.714 131.944 401.138 131.944C400.914 131.944 400.674 131.928 400.418 131.896C400.194 131.864 399.938 131.832 399.65 131.8H399.554C399.33 131.8 399.218 131.928 399.218 132.184V161.32C399.218 162.024 398.978 162.616 398.498 163.096C398.018 163.608 397.41 163.864 396.674 163.864C395.586 163.864 394.722 163.4 394.082 162.472L377.33 136.744C377.234 136.584 377.138 136.504 377.042 136.504C376.882 136.504 376.802 136.632 376.802 136.888V159.64C376.802 159.896 376.914 160.024 377.138 160.024C377.586 160.024 378.002 160.008 378.386 159.976C378.802 159.912 379.186 159.864 379.538 159.832C380.178 159.768 380.722 159.96 381.17 160.408C381.65 160.824 381.89 161.352 381.89 161.992C381.89 162.632 381.65 163.16 381.17 163.576C380.722 163.992 380.178 164.184 379.538 164.152C378.642 164.056 377.842 163.976 377.138 163.912C376.466 163.88 375.81 163.864 375.17 163.864C374.562 163.864 373.906 163.88 373.202 163.912C372.53 163.976 371.73 164.056 370.802 164.152C370.194 164.184 369.65 163.992 369.17 163.576C368.722 163.16 368.498 162.632 368.498 161.992C368.498 161.352 368.706 160.84 369.122 160.456C369.538 160.04 370.034 159.832 370.61 159.832C370.834 159.832 371.058 159.848 371.282 159.88C371.538 159.912 371.81 159.944 372.098 159.976H372.194C372.418 159.976 372.53 159.848 372.53 159.592V132.424C372.53 132.104 372.37 131.976 372.05 132.04L371.09 132.232C370.386 132.328 369.778 132.152 369.266 131.704C368.754 131.224 368.498 130.632 368.498 129.928C368.498 129.224 368.754 128.648 369.266 128.2C369.81 127.752 370.418 127.576 371.09 127.672C371.57 127.768 372.018 127.848 372.434 127.912C372.882 127.944 373.282 127.992 373.634 128.056C375.714 128.152 377.266 129 378.29 130.6L394.418 155.656C394.514 155.816 394.61 155.896 394.706 155.896C394.866 155.896 394.946 155.768 394.946 155.512V132.136C394.946 131.88 394.834 131.752 394.61 131.752C394.194 131.752 393.778 131.768 393.362 131.8C392.946 131.832 392.562 131.88 392.21 131.944C391.57 131.976 391.01 131.784 390.53 131.368C390.082 130.952 389.858 130.424 389.858 129.784C389.858 129.144 390.082 128.616 390.53 128.2C391.01 127.752 391.57 127.56 392.21 127.624C393.138 127.72 393.938 127.8 394.61 127.864C395.282 127.896 395.938 127.912 396.578 127.912C397.218 127.912 397.874 127.896 398.546 127.864C399.25 127.8 400.05 127.72 400.946 127.624ZM436.242 136.216C436.306 136.824 436.114 137.368 435.666 137.848C435.218 138.328 434.658 138.568 433.986 138.568C433.314 138.568 432.754 138.328 432.306 137.848C431.89 137.368 431.698 136.824 431.73 136.216L431.97 132.712C431.97 132.424 431.842 132.28 431.586 132.28H424.578C424.29 132.28 424.146 132.424 424.146 132.712V159.64C424.146 159.896 424.258 160.024 424.482 160.024C424.866 160.024 425.234 160.008 425.586 159.976C425.97 159.912 426.322 159.864 426.642 159.832C427.282 159.768 427.826 159.96 428.274 160.408C428.722 160.824 428.946 161.352 428.946 161.992C428.946 162.6 428.722 163.112 428.274 163.528C427.826 163.944 427.282 164.136 426.642 164.104C425.714 164.008 424.978 163.944 424.434 163.912C423.922 163.88 423.49 163.848 423.138 163.816C422.786 163.816 422.402 163.816 421.986 163.816C421.538 163.816 421.138 163.816 420.786 163.816C420.434 163.848 420.002 163.88 419.49 163.912C419.01 163.944 418.306 164.008 417.378 164.104C416.77 164.136 416.226 163.944 415.746 163.528C415.298 163.112 415.074 162.6 415.074 161.992C415.074 161.352 415.298 160.824 415.746 160.408C416.226 159.96 416.77 159.768 417.378 159.832C417.698 159.864 418.034 159.896 418.386 159.928C418.738 159.96 419.09 159.992 419.442 160.024H419.538C419.762 160.024 419.874 159.896 419.874 159.64V132.712C419.874 132.424 419.73 132.28 419.442 132.28H412.386C412.13 132.28 412.002 132.424 412.002 132.712L412.242 136.216C412.306 136.824 412.114 137.368 411.666 137.848C411.218 138.328 410.658 138.568 409.986 138.568C409.314 138.568 408.754 138.328 408.306 137.848C407.89 137.368 407.698 136.824 407.73 136.216C407.794 135.48 407.858 134.68 407.922 133.816C407.986 132.952 408.034 132.088 408.066 131.224C408.13 130.328 408.466 129.576 409.074 128.968C409.714 128.36 410.466 128.056 411.33 128.056H432.69C433.522 128.056 434.258 128.36 434.898 128.968C435.538 129.576 435.874 130.328 435.906 131.224C435.97 132.088 436.034 132.952 436.098 133.816C436.162 134.68 436.21 135.48 436.242 136.216ZM458.574 120.664L453.87 124.744C453.518 125 453.182 125.128 452.862 125.128C452.446 125.128 452.078 124.968 451.758 124.648C451.438 124.328 451.278 123.96 451.278 123.544C451.278 123.192 451.406 122.84 451.662 122.488L455.838 117.784C456.222 117.336 456.718 117.112 457.326 117.112C457.87 117.112 458.334 117.32 458.718 117.736C459.102 118.12 459.294 118.584 459.294 119.128C459.294 119.704 459.054 120.216 458.574 120.664ZM465.774 154.168C466.446 154.168 467.006 154.408 467.454 154.888C467.902 155.336 468.094 155.88 468.03 156.52L467.742 160.552C467.71 161.448 467.374 162.2 466.734 162.808C466.094 163.416 465.342 163.72 464.478 163.72H447.486C446.91 163.72 446.302 163.768 445.662 163.864C445.054 163.96 444.462 164.04 443.886 164.104C443.214 164.2 442.622 164.024 442.11 163.576C441.598 163.128 441.342 162.552 441.342 161.848C441.342 161.144 441.598 160.584 442.11 160.168C442.622 159.72 443.214 159.544 443.886 159.64C443.982 159.672 444.094 159.688 444.222 159.688C444.35 159.688 444.494 159.704 444.654 159.736H444.75C445.006 159.736 445.134 159.608 445.134 159.352V132.376C445.134 132.088 445.006 131.944 444.75 131.944C444.622 131.944 444.478 131.976 444.318 132.04C444.19 132.072 444.046 132.104 443.886 132.136C443.214 132.232 442.622 132.072 442.11 131.656C441.598 131.208 441.342 130.632 441.342 129.928C441.342 129.224 441.598 128.648 442.11 128.2C442.622 127.752 443.214 127.576 443.886 127.672C444.526 127.736 445.182 127.816 445.854 127.912C446.526 128.008 447.166 128.056 447.774 128.056H464.478C465.342 128.056 466.094 128.36 466.734 128.968C467.374 129.576 467.71 130.328 467.742 131.224L468.03 135.256C468.094 135.864 467.902 136.408 467.454 136.888C467.006 137.368 466.446 137.608 465.774 137.608C465.134 137.608 464.59 137.4 464.142 136.984C463.726 136.536 463.518 136.008 463.518 135.4C463.518 135.016 463.534 134.6 463.566 134.152C463.63 133.672 463.678 133.208 463.71 132.76C463.71 132.472 463.566 132.328 463.278 132.328H449.886C449.598 132.328 449.454 132.472 449.454 132.76V142.648C449.454 142.936 449.598 143.08 449.886 143.08H461.646C462.222 143.08 462.718 143.288 463.134 143.704C463.55 144.12 463.758 144.616 463.758 145.192C463.758 145.768 463.55 146.264 463.134 146.68C462.718 147.064 462.222 147.256 461.646 147.256H449.886C449.598 147.256 449.454 147.4 449.454 147.688V159.016C449.454 159.304 449.598 159.448 449.886 159.448H463.278C463.566 159.448 463.71 159.304 463.71 159.016C463.678 158.536 463.63 158.088 463.566 157.672C463.534 157.224 463.518 156.792 463.518 156.376C463.518 155.768 463.726 155.256 464.142 154.84C464.59 154.392 465.134 154.168 465.774 154.168ZM504.351 159.832C504.991 159.768 505.535 159.96 505.983 160.408C506.463 160.824 506.703 161.352 506.703 161.992C506.703 162.632 506.463 163.16 505.983 163.576C505.535 163.992 504.991 164.184 504.351 164.152C504.223 164.12 503.711 164.056 502.815 163.96C501.919 163.864 501.055 163.816 500.223 163.816C498.847 163.816 497.791 163.24 497.055 162.088L489.087 149.944C488.991 149.752 488.815 149.656 488.559 149.656H482.799C482.511 149.656 482.367 149.8 482.367 150.088V159.64C482.367 159.896 482.479 160.024 482.703 160.024C483.119 160.024 483.519 160.008 483.903 159.976C484.287 159.912 484.671 159.864 485.055 159.832C485.695 159.768 486.239 159.96 486.687 160.408C487.135 160.824 487.359 161.352 487.359 161.992C487.359 162.632 487.135 163.16 486.687 163.576C486.239 163.992 485.695 164.184 485.055 164.152C484.159 164.056 483.359 163.976 482.655 163.912C481.983 163.88 481.327 163.864 480.687 163.864C480.047 163.864 479.391 163.88 478.719 163.912C478.047 163.976 477.247 164.056 476.319 164.152C475.679 164.184 475.119 163.992 474.639 163.576C474.191 163.16 473.967 162.632 473.967 161.992C473.967 161.352 474.175 160.84 474.591 160.456C475.007 160.04 475.519 159.832 476.127 159.832C476.351 159.832 476.575 159.848 476.799 159.88C477.055 159.912 477.327 159.944 477.615 159.976H477.711C477.935 159.976 478.047 159.848 478.047 159.592V132.376C478.047 132.056 477.903 131.928 477.615 131.992L476.463 132.088C475.823 132.184 475.247 132.024 474.735 131.608C474.223 131.16 473.967 130.6 473.967 129.928C473.967 129.224 474.207 128.664 474.687 128.248C475.199 127.8 475.791 127.608 476.463 127.672C477.103 127.768 477.759 127.864 478.431 127.96C479.135 128.024 479.807 128.056 480.447 128.056L489.231 128.104C493.423 128.136 496.687 129.096 499.023 130.984C501.391 132.84 502.575 135.464 502.575 138.856C502.575 141.512 501.839 143.736 500.367 145.528C498.927 147.288 496.879 148.488 494.223 149.128C493.871 149.192 493.791 149.368 493.983 149.656L500.607 159.832C500.703 160.024 500.895 160.12 501.183 160.12C502.303 160.056 503.359 159.96 504.351 159.832ZM489.759 132.232H482.799C482.511 132.232 482.367 132.376 482.367 132.664V145C482.367 145.288 482.511 145.432 482.799 145.432H489.759C495.551 145.432 498.447 143.24 498.447 138.856C498.447 134.44 495.551 132.232 489.759 132.232ZM523.557 120.808C523.365 120.648 523.173 120.648 522.981 120.808L517.701 124.408C517.477 124.568 517.269 124.648 517.077 124.648C516.693 124.648 516.373 124.472 516.117 124.12C515.989 123.96 515.925 123.72 515.925 123.4C515.925 123.016 516.053 122.728 516.309 122.536L521.685 117.592C522.197 117.144 522.725 116.92 523.269 116.92C523.909 116.92 524.453 117.144 524.901 117.592L530.229 122.488C530.517 122.712 530.661 123.016 530.661 123.4C530.661 123.656 530.581 123.896 530.421 124.12C530.229 124.472 529.925 124.648 529.509 124.648C529.317 124.648 529.109 124.568 528.885 124.408L523.557 120.808ZM534.165 154.168C534.837 154.168 535.397 154.408 535.845 154.888C536.293 155.336 536.485 155.88 536.421 156.52L536.133 160.552C536.101 161.448 535.765 162.2 535.125 162.808C534.485 163.416 533.733 163.72 532.869 163.72H515.877C515.301 163.72 514.693 163.768 514.053 163.864C513.445 163.96 512.853 164.04 512.277 164.104C511.605 164.2 511.013 164.024 510.501 163.576C509.989 163.128 509.733 162.552 509.733 161.848C509.733 161.144 509.989 160.584 510.501 160.168C511.013 159.72 511.605 159.544 512.277 159.64C512.373 159.672 512.485 159.688 512.613 159.688C512.741 159.688 512.885 159.704 513.045 159.736H513.141C513.397 159.736 513.525 159.608 513.525 159.352V132.376C513.525 132.088 513.397 131.944 513.141 131.944C513.013 131.944 512.869 131.976 512.709 132.04C512.581 132.072 512.437 132.104 512.277 132.136C511.605 132.232 511.013 132.072 510.501 131.656C509.989 131.208 509.733 130.632 509.733 129.928C509.733 129.224 509.989 128.648 510.501 128.2C511.013 127.752 511.605 127.576 512.277 127.672C512.917 127.736 513.573 127.816 514.245 127.912C514.917 128.008 515.557 128.056 516.165 128.056H532.869C533.733 128.056 534.485 128.36 535.125 128.968C535.765 129.576 536.101 130.328 536.133 131.224L536.421 135.256C536.485 135.864 536.293 136.408 535.845 136.888C535.397 137.368 534.837 137.608 534.165 137.608C533.525 137.608 532.981 137.4 532.533 136.984C532.117 136.536 531.909 136.008 531.909 135.4C531.909 135.016 531.925 134.6 531.957 134.152C532.021 133.672 532.069 133.208 532.101 132.76C532.101 132.472 531.957 132.328 531.669 132.328H518.277C517.989 132.328 517.845 132.472 517.845 132.76V142.648C517.845 142.936 517.989 143.08 518.277 143.08H530.037C530.613 143.08 531.109 143.288 531.525 143.704C531.941 144.12 532.149 144.616 532.149 145.192C532.149 145.768 531.941 146.264 531.525 146.68C531.109 147.064 530.613 147.256 530.037 147.256H518.277C517.989 147.256 517.845 147.4 517.845 147.688V159.016C517.845 159.304 517.989 159.448 518.277 159.448H531.669C531.957 159.448 532.101 159.304 532.101 159.016C532.069 158.536 532.021 158.088 531.957 157.672C531.925 157.224 531.909 156.792 531.909 156.376C531.909 155.768 532.117 155.256 532.533 154.84C532.981 154.392 533.525 154.168 534.165 154.168ZM570.774 136.216C570.838 136.824 570.646 137.368 570.198 137.848C569.75 138.328 569.19 138.568 568.518 138.568C567.846 138.568 567.286 138.328 566.838 137.848C566.422 137.368 566.23 136.824 566.262 136.216L566.502 132.712C566.502 132.424 566.374 132.28 566.118 132.28H559.11C558.822 132.28 558.678 132.424 558.678 132.712V159.64C558.678 159.896 558.79 160.024 559.014 160.024C559.398 160.024 559.766 160.008 560.118 159.976C560.502 159.912 560.854 159.864 561.174 159.832C561.814 159.768 562.358 159.96 562.806 160.408C563.254 160.824 563.478 161.352 563.478 161.992C563.478 162.6 563.254 163.112 562.806 163.528C562.358 163.944 561.814 164.136 561.174 164.104C560.246 164.008 559.51 163.944 558.966 163.912C558.454 163.88 558.022 163.848 557.67 163.816C557.318 163.816 556.934 163.816 556.518 163.816C556.07 163.816 555.67 163.816 555.318 163.816C554.966 163.848 554.534 163.88 554.022 163.912C553.542 163.944 552.838 164.008 551.91 164.104C551.302 164.136 550.758 163.944 550.278 163.528C549.83 163.112 549.606 162.6 549.606 161.992C549.606 161.352 549.83 160.824 550.278 160.408C550.758 159.96 551.302 159.768 551.91 159.832C552.23 159.864 552.566 159.896 552.918 159.928C553.27 159.96 553.622 159.992 553.974 160.024H554.07C554.294 160.024 554.406 159.896 554.406 159.64V132.712C554.406 132.424 554.262 132.28 553.974 132.28H546.918C546.662 132.28 546.534 132.424 546.534 132.712L546.774 136.216C546.838 136.824 546.646 137.368 546.198 137.848C545.75 138.328 545.19 138.568 544.518 138.568C543.846 138.568 543.286 138.328 542.838 137.848C542.422 137.368 542.23 136.824 542.262 136.216C542.326 135.48 542.39 134.68 542.454 133.816C542.518 132.952 542.566 132.088 542.598 131.224C542.662 130.328 542.998 129.576 543.606 128.968C544.246 128.36 544.998 128.056 545.862 128.056H567.222C568.054 128.056 568.79 128.36 569.43 128.968C570.07 129.576 570.406 130.328 570.438 131.224C570.502 132.088 570.566 132.952 570.63 133.816C570.694 134.68 570.742 135.48 570.774 136.216Z" fill="#FFC759"/>
</svg>
