<svg width="613" height="192" viewBox="0 0 613 192" fill="none" xmlns="http://www.w3.org/2000/svg">
<path d="M47.264 65.896C48.544 65.896 49.632 66.376 50.528 67.336C51.488 68.232 51.936 69.32 51.872 70.6C51.808 72.008 51.712 73.544 51.584 75.208C51.456 76.808 51.328 78.44 51.2 80.104C51.136 81.896 50.464 83.4 49.184 84.616C47.904 85.832 46.4 86.44 44.672 86.44H15.488C13.824 86.504 12.16 86.632 10.496 86.824C8.832 87.08 7.264 87.208 5.792 87.208C4.512 87.208 3.424 86.76 2.528 85.864C1.632 84.968 1.184 83.88 1.184 82.6C1.184 81.32 1.632 80.232 2.528 79.336C3.488 78.376 4.576 77.896 5.792 77.896C6.176 77.896 6.528 77.928 6.848 77.992C7.232 78.056 7.744 78.088 8.384 78.088H8.576C9.088 78.088 9.344 77.832 9.344 77.32V23.368C9.344 22.856 9.12 22.6 8.672 22.6C8.032 22.6 7.456 22.664 6.944 22.792C6.496 22.856 6.016 22.888 5.504 22.888C4.288 22.888 3.264 22.472 2.432 21.64C1.6 20.808 1.184 19.784 1.184 18.568C1.184 17.288 1.632 16.232 2.528 15.4C3.488 14.504 4.608 14.12 5.888 14.248C7.744 14.44 9.344 14.6 10.688 14.728C12.096 14.792 13.408 14.824 14.624 14.824C15.904 14.824 17.216 14.792 18.56 14.728C19.968 14.6 21.568 14.44 23.36 14.248C24.64 14.12 25.728 14.504 26.624 15.4C27.52 16.232 27.968 17.288 27.968 18.568C27.968 19.848 27.52 20.904 26.624 21.736C25.728 22.568 24.64 22.952 23.36 22.888C22.656 22.76 21.92 22.696 21.152 22.696C20.384 22.632 19.616 22.568 18.848 22.504H18.656C18.208 22.504 17.984 22.76 17.984 23.272V77.032C17.984 77.608 18.272 77.896 18.848 77.896H42.464C43.104 77.896 43.36 77.608 43.232 77.032C43.168 75.816 43.072 74.632 42.944 73.48C42.816 72.328 42.752 71.272 42.752 70.312C42.752 69.096 43.168 68.072 44 67.24C44.896 66.344 45.984 65.896 47.264 65.896ZM111.079 67.336C112.423 67.336 113.543 67.816 114.439 68.776C115.335 69.672 115.719 70.76 115.591 72.04L115.015 80.104C114.951 81.896 114.279 83.4 112.999 84.616C111.719 85.832 110.215 86.44 108.487 86.44H74.5033C73.3513 86.44 72.1353 86.536 70.8553 86.728C69.6393 86.92 68.4553 87.08 67.3033 87.208C65.9593 87.4 64.7753 87.048 63.7513 86.152C62.7273 85.256 62.2153 84.104 62.2153 82.696C62.2153 81.288 62.7273 80.168 63.7513 79.336C64.7753 78.44 65.9593 78.088 67.3033 78.28C67.4953 78.344 67.7193 78.376 67.9753 78.376C68.2313 78.376 68.5193 78.408 68.8393 78.472H69.0312C69.5433 78.472 69.7993 78.216 69.7993 77.704V23.752C69.7993 23.176 69.5433 22.888 69.0312 22.888C68.7753 22.888 68.4873 22.952 68.1673 23.08C67.9113 23.144 67.6233 23.208 67.3033 23.272C65.9593 23.464 64.7753 23.144 63.7513 22.312C62.7273 21.416 62.2153 20.264 62.2153 18.856C62.2153 17.448 62.7273 16.296 63.7513 15.4C64.7753 14.504 65.9593 14.152 67.3033 14.344C68.5833 14.472 69.8953 14.632 71.2393 14.824C72.5833 15.016 73.8633 15.112 75.0793 15.112H108.487C110.215 15.112 111.719 15.72 112.999 16.936C114.279 18.152 114.951 19.656 115.015 21.448L115.591 29.512C115.719 30.728 115.335 31.816 114.439 32.776C113.543 33.736 112.423 34.216 111.079 34.216C109.799 34.216 108.711 33.8 107.815 32.968C106.983 32.072 106.567 31.016 106.567 29.8C106.567 29.032 106.599 28.2 106.663 27.304C106.791 26.344 106.887 25.416 106.951 24.52C106.951 23.944 106.663 23.656 106.087 23.656H79.3033C78.7273 23.656 78.4393 23.944 78.4393 24.52V44.296C78.4393 44.872 78.7273 45.16 79.3033 45.16H102.823C103.975 45.16 104.967 45.576 105.799 46.408C106.631 47.24 107.047 48.232 107.047 49.384C107.047 50.536 106.631 51.528 105.799 52.36C104.967 53.128 103.975 53.512 102.823 53.512H79.3033C78.7273 53.512 78.4393 53.8 78.4393 54.376V77.032C78.4393 77.608 78.7273 77.896 79.3033 77.896H106.087C106.663 77.896 106.951 77.608 106.951 77.032C106.887 76.072 106.791 75.176 106.663 74.344C106.599 73.448 106.567 72.584 106.567 71.752C106.567 70.536 106.983 69.512 107.815 68.68C108.711 67.784 109.799 67.336 111.079 67.336ZM184.297 31.432C184.425 32.648 184.041 33.736 183.145 34.696C182.249 35.656 181.129 36.136 179.785 36.136C178.441 36.136 177.321 35.656 176.425 34.696C175.593 33.736 175.209 32.648 175.273 31.432L175.753 24.424C175.753 23.848 175.497 23.56 174.985 23.56H160.969C160.393 23.56 160.105 23.848 160.105 24.424V78.28C160.105 78.792 160.329 79.048 160.777 79.048C161.545 79.048 162.281 79.016 162.985 78.952C163.753 78.824 164.457 78.728 165.097 78.664C166.377 78.536 167.465 78.92 168.361 79.816C169.257 80.648 169.705 81.704 169.705 82.984C169.705 84.2 169.257 85.224 168.361 86.056C167.465 86.888 166.377 87.272 165.097 87.208C163.241 87.016 161.769 86.888 160.681 86.824C159.657 86.76 158.793 86.696 158.089 86.632C157.385 86.632 156.617 86.632 155.785 86.632C154.889 86.632 154.089 86.632 153.385 86.632C152.681 86.696 151.817 86.76 150.793 86.824C149.833 86.888 148.425 87.016 146.569 87.208C145.353 87.272 144.265 86.888 143.305 86.056C142.409 85.224 141.961 84.2 141.961 82.984C141.961 81.704 142.409 80.648 143.305 79.816C144.265 78.92 145.353 78.536 146.569 78.664C147.209 78.728 147.881 78.792 148.585 78.856C149.289 78.92 149.993 78.984 150.697 79.048H150.889C151.337 79.048 151.561 78.792 151.561 78.28V24.424C151.561 23.848 151.273 23.56 150.697 23.56H136.585C136.073 23.56 135.817 23.848 135.817 24.424L136.297 31.432C136.425 32.648 136.041 33.736 135.145 34.696C134.249 35.656 133.129 36.136 131.785 36.136C130.441 36.136 129.321 35.656 128.425 34.696C127.593 33.736 127.209 32.648 127.273 31.432C127.401 29.96 127.529 28.36 127.657 26.632C127.785 24.904 127.881 23.176 127.945 21.448C128.073 19.656 128.745 18.152 129.961 16.936C131.241 15.72 132.745 15.112 134.473 15.112H177.193C178.857 15.112 180.329 15.72 181.609 16.936C182.889 18.152 183.561 19.656 183.625 21.448C183.753 23.176 183.881 24.904 184.009 26.632C184.137 28.36 184.233 29.96 184.297 31.432ZM198.913 13.96C196.929 13.64 195.457 12.84 194.497 11.56C193.601 10.216 193.153 8.808 193.153 7.336C193.153 5.608 193.729 4.04 194.881 2.632C196.033 1.224 197.697 0.519995 199.873 0.519995C202.241 0.519995 204.097 1.57599 205.441 3.68799C206.785 5.8 207.457 8.36 207.457 11.368C207.457 14.376 206.657 17.544 205.057 20.872C203.457 24.136 200.801 26.888 197.089 29.128C196.705 29.32 196.321 29.416 195.937 29.416C195.297 29.416 194.721 29.16 194.209 28.648C193.697 28.136 193.441 27.56 193.441 26.92C193.441 26.28 193.793 25.704 194.497 25.192C196.545 23.72 198.145 22.152 199.297 20.488C200.449 18.824 201.025 17.416 201.025 16.264C201.025 14.92 200.321 14.152 198.913 13.96ZM231.276 33.256C231.084 35.688 231.596 37.672 232.812 39.208C234.092 40.68 235.82 41.928 237.996 42.952C240.236 43.976 242.7 44.904 245.388 45.736C248.076 46.568 250.764 47.496 253.452 48.52C256.14 49.48 258.604 50.728 260.844 52.264C263.148 53.736 264.972 55.656 266.316 58.024C267.724 60.328 268.428 63.272 268.428 66.856C268.428 70.76 267.372 74.248 265.26 77.32C263.212 80.392 260.364 82.824 256.716 84.616C253.068 86.408 248.94 87.304 244.332 87.304C238.572 87.304 233.772 86.28 229.932 84.232C226.092 82.12 223.116 79.816 221.004 77.32C219.404 75.464 218.604 73.48 218.604 71.368C218.604 69.576 219.18 68.04 220.332 66.76C221.484 65.48 223.148 64.84 225.324 64.84C227.116 64.84 228.588 65.512 229.74 66.856C230.956 68.2 231.564 69.704 231.564 71.368C231.564 72.2 231.372 73.064 230.988 73.96C230.796 74.472 230.86 74.856 231.18 75.112C232.844 76.392 234.7 77.352 236.748 77.992C238.86 78.632 240.972 78.952 243.084 78.952C245.9 78.952 248.588 78.472 251.148 77.512C253.708 76.488 255.788 75.08 257.388 73.288C258.988 71.432 259.788 69.288 259.788 66.856C259.788 64.68 259.116 62.888 257.772 61.48C256.428 60.008 254.636 58.792 252.396 57.832C250.22 56.808 247.82 55.88 245.196 55.048C242.572 54.216 239.916 53.288 237.228 52.264C234.604 51.24 232.172 49.992 229.932 48.52C227.756 46.984 225.996 45.096 224.652 42.856C223.308 40.616 222.636 37.832 222.636 34.504C222.636 30.856 223.276 27.752 224.556 25.192C225.9 22.568 227.692 20.488 229.932 18.952C232.172 17.352 234.668 16.2 237.42 15.496C240.172 14.728 242.988 14.344 245.868 14.344C249.516 14.344 253.004 14.856 256.332 15.88C259.66 16.904 262.348 18.312 264.396 20.104C266.508 21.896 267.564 23.944 267.564 26.248C267.5 28.04 266.828 29.576 265.548 30.856C264.332 32.136 262.828 32.776 261.036 32.776C259.244 32.776 257.708 32.136 256.428 30.856C255.212 29.576 254.604 28.04 254.604 26.248C254.604 25.608 254.636 25.16 254.7 24.904C254.828 24.392 254.796 24.104 254.604 24.04C253.772 23.592 252.524 23.208 250.86 22.888C249.26 22.568 247.532 22.408 245.676 22.408C243.564 22.408 241.42 22.728 239.244 23.368C237.132 23.944 235.34 25.032 233.868 26.632C232.396 28.168 231.532 30.376 231.276 33.256ZM390.408 14.248C391.688 14.12 392.776 14.504 393.672 15.4C394.568 16.232 395.016 17.288 395.016 18.568C395.016 19.784 394.6 20.808 393.768 21.64C392.936 22.472 391.944 22.888 390.792 22.888C390.344 22.888 389.832 22.856 389.256 22.792C388.68 22.728 388.104 22.664 387.528 22.6H387.336C386.888 22.6 386.632 22.824 386.568 23.272L371.304 83.464C370.984 84.616 370.344 85.544 369.384 86.248C368.488 86.952 367.496 87.304 366.408 87.304C365.256 87.304 364.232 86.92 363.336 86.152C362.44 85.448 361.832 84.552 361.512 83.464L348.36 32.872C348.296 32.488 348.104 32.296 347.784 32.296C347.528 32.296 347.336 32.488 347.208 32.872L334.248 83.464C333.928 84.616 333.288 85.544 332.328 86.248C331.432 86.952 330.408 87.304 329.256 87.304C328.104 87.304 327.048 86.952 326.088 86.248C325.192 85.544 324.584 84.616 324.264 83.464L309 23.272C308.936 22.824 308.68 22.6 308.232 22.6C307.592 22.6 306.984 22.664 306.408 22.792C305.896 22.856 305.352 22.888 304.776 22.888C303.624 22.888 302.632 22.472 301.8 21.64C300.968 20.808 300.552 19.784 300.552 18.568C300.552 17.288 301 16.232 301.896 15.4C302.856 14.504 303.944 14.12 305.16 14.248C307.016 14.44 308.616 14.6 309.96 14.728C311.368 14.792 312.712 14.824 313.992 14.824C315.272 14.824 316.584 14.792 317.928 14.728C319.336 14.6 320.936 14.44 322.728 14.248C324.008 14.12 325.096 14.504 325.992 15.4C326.888 16.232 327.336 17.288 327.336 18.568C327.336 19.848 326.888 20.904 325.992 21.736C325.096 22.568 324.008 22.952 322.728 22.888C322.024 22.76 321.288 22.696 320.52 22.696C319.752 22.632 318.984 22.568 318.216 22.504H318.024C317.512 22.504 317.32 22.792 317.448 23.368L328.776 68.68C328.904 69.064 329.096 69.256 329.352 69.256C329.608 69.256 329.768 69.064 329.832 68.68L342.696 19.432C343.016 18.28 343.656 17.352 344.616 16.648C345.576 15.88 346.632 15.496 347.784 15.496C348.936 15.496 349.992 15.88 350.952 16.648C351.912 17.352 352.552 18.28 352.872 19.432L365.736 68.776C365.864 69.16 366.056 69.352 366.312 69.352C366.568 69.352 366.728 69.16 366.792 68.776L378.12 23.368V23.08C378.12 22.696 377.928 22.504 377.544 22.504C376.776 22.504 375.976 22.536 375.144 22.6C374.376 22.664 373.608 22.76 372.84 22.888C371.624 22.952 370.536 22.568 369.576 21.736C368.68 20.904 368.232 19.848 368.232 18.568C368.232 17.288 368.68 16.232 369.576 15.4C370.536 14.504 371.624 14.12 372.84 14.248C374.696 14.44 376.296 14.6 377.64 14.728C379.048 14.792 380.392 14.824 381.672 14.824C382.952 14.824 384.264 14.792 385.608 14.728C387.016 14.6 388.616 14.44 390.408 14.248ZM429.222 14.248C434.022 14.248 438.534 15.208 442.758 17.128C446.982 18.984 450.694 21.608 453.894 25C457.094 28.328 459.59 32.2 461.382 36.616C463.238 41.032 464.166 45.736 464.166 50.728C464.166 55.784 463.238 60.52 461.382 64.936C459.59 69.352 457.094 73.256 453.894 76.648C450.694 79.976 446.982 82.6 442.758 84.52C438.534 86.376 434.022 87.304 429.222 87.304C424.422 87.304 419.91 86.376 415.686 84.52C411.462 82.6 407.75 79.976 404.55 76.648C401.35 73.256 398.822 69.352 396.966 64.936C395.174 60.52 394.278 55.784 394.278 50.728C394.278 45.736 395.174 41.032 396.966 36.616C398.822 32.2 401.35 28.328 404.55 25C407.75 21.608 411.462 18.984 415.686 17.128C419.91 15.208 424.422 14.248 429.222 14.248ZM429.222 78.568C434.278 78.568 438.758 77.384 442.662 75.016C446.566 72.584 449.638 69.288 451.878 65.128C454.182 60.904 455.334 56.104 455.334 50.728C455.334 45.352 454.182 40.584 451.878 36.424C449.638 32.264 446.534 29 442.566 26.632C438.662 24.2 434.214 22.984 429.222 22.984C424.166 22.984 419.654 24.2 415.686 26.632C411.782 29 408.678 32.296 406.374 36.52C404.134 40.68 403.014 45.416 403.014 50.728C403.014 56.04 404.134 60.808 406.374 65.032C408.678 69.256 411.814 72.584 415.782 75.016C419.75 77.384 424.23 78.568 429.222 78.568ZM535.296 78.664C536.576 78.536 537.664 78.92 538.56 79.816C539.52 80.648 540 81.704 540 82.984C540 84.264 539.52 85.32 538.56 86.152C537.664 86.984 536.576 87.368 535.296 87.304C535.04 87.24 534.016 87.112 532.224 86.92C530.432 86.728 528.704 86.632 527.04 86.632C524.288 86.632 522.176 85.48 520.704 83.176L504.768 58.888C504.576 58.504 504.224 58.312 503.712 58.312H492.192C491.616 58.312 491.328 58.6 491.328 59.176V78.28C491.328 78.792 491.552 79.048 492 79.048C492.832 79.048 493.632 79.016 494.4 78.952C495.168 78.824 495.936 78.728 496.704 78.664C497.984 78.536 499.072 78.92 499.968 79.816C500.864 80.648 501.312 81.704 501.312 82.984C501.312 84.264 500.864 85.32 499.968 86.152C499.072 86.984 497.984 87.368 496.704 87.304C494.912 87.112 493.312 86.952 491.904 86.824C490.56 86.76 489.248 86.728 487.968 86.728C486.688 86.728 485.376 86.76 484.032 86.824C482.688 86.952 481.088 87.112 479.232 87.304C477.952 87.368 476.832 86.984 475.872 86.152C474.976 85.32 474.528 84.264 474.528 82.984C474.528 81.704 474.944 80.68 475.776 79.912C476.608 79.08 477.632 78.664 478.848 78.664C479.296 78.664 479.744 78.696 480.192 78.76C480.704 78.824 481.248 78.888 481.824 78.952H482.016C482.464 78.952 482.688 78.696 482.688 78.184V23.752C482.688 23.112 482.4 22.856 481.824 22.984L479.52 23.176C478.24 23.368 477.088 23.048 476.064 22.216C475.04 21.32 474.528 20.2 474.528 18.856C474.528 17.448 475.008 16.328 475.968 15.496C476.992 14.6 478.176 14.216 479.52 14.344C480.8 14.536 482.112 14.728 483.456 14.92C484.864 15.048 486.208 15.112 487.488 15.112L505.056 15.208C513.44 15.272 519.968 17.192 524.64 20.968C529.376 24.68 531.744 29.928 531.744 36.712C531.744 42.024 530.272 46.472 527.328 50.056C524.448 53.576 520.352 55.976 515.04 57.256C514.336 57.384 514.176 57.736 514.56 58.312L527.808 78.664C528 79.048 528.384 79.24 528.96 79.24C531.2 79.112 533.312 78.92 535.296 78.664ZM506.112 23.464H492.192C491.616 23.464 491.328 23.752 491.328 24.328V49C491.328 49.576 491.616 49.864 492.192 49.864H506.112C517.696 49.864 523.488 45.48 523.488 36.712C523.488 27.88 517.696 23.464 506.112 23.464ZM608.267 78.664C609.547 78.536 610.635 78.92 611.531 79.816C612.491 80.648 612.971 81.704 612.971 82.984C612.971 84.264 612.491 85.32 611.531 86.152C610.635 86.984 609.547 87.368 608.267 87.304C606.347 87.112 604.651 86.952 603.179 86.824C601.707 86.76 600.267 86.728 598.859 86.728C597.515 86.728 596.139 86.76 594.731 86.824C593.323 86.952 591.691 87.112 589.835 87.304C588.619 87.368 587.531 86.984 586.571 86.152C585.675 85.32 585.227 84.264 585.227 82.984C585.227 81.704 585.643 80.68 586.475 79.912C587.307 79.08 588.299 78.664 589.451 78.664C589.963 78.664 590.443 78.696 590.891 78.76C591.403 78.824 591.883 78.888 592.331 78.952H592.523C592.843 78.952 593.035 78.856 593.099 78.664C593.163 78.408 593.099 78.152 592.907 77.896L575.339 51.016C575.019 50.504 574.635 50.472 574.187 50.92L563.339 61C563.019 61.32 562.859 61.672 562.859 62.056V78.28C562.859 78.792 563.083 79.048 563.531 79.048C564.427 79.048 565.291 79.016 566.123 78.952C567.019 78.824 567.851 78.76 568.619 78.76C569.771 78.76 570.763 79.176 571.595 80.008C572.427 80.776 572.843 81.768 572.843 82.984C572.843 84.264 572.363 85.32 571.403 86.152C570.507 86.984 569.419 87.368 568.139 87.304C566.347 87.112 564.747 86.952 563.339 86.824C561.995 86.76 560.683 86.728 559.403 86.728C558.187 86.728 556.875 86.76 555.467 86.824C554.123 86.952 552.523 87.112 550.667 87.304C549.451 87.368 548.363 86.984 547.403 86.152C546.507 85.32 546.059 84.264 546.059 82.984C546.059 81.704 546.507 80.648 547.403 79.816C548.363 78.984 549.451 78.632 550.667 78.76L553.355 78.952H553.547C553.995 78.952 554.219 78.696 554.219 78.184V23.368C554.219 22.856 553.995 22.6 553.547 22.6C552.907 22.6 552.331 22.664 551.819 22.792C551.371 22.856 550.891 22.888 550.379 22.888C549.163 22.888 548.139 22.472 547.307 21.64C546.539 20.808 546.155 19.784 546.155 18.568C546.155 17.288 546.603 16.232 547.499 15.4C548.395 14.504 549.483 14.12 550.763 14.248C552.619 14.44 554.219 14.6 555.563 14.728C556.971 14.792 558.283 14.824 559.499 14.824C560.779 14.824 562.091 14.792 563.435 14.728C564.843 14.6 566.443 14.44 568.235 14.248C569.515 14.12 570.603 14.504 571.499 15.4C572.459 16.232 572.939 17.288 572.939 18.568C572.939 19.848 572.459 20.904 571.499 21.736C570.603 22.568 569.515 22.952 568.235 22.888C567.531 22.76 566.795 22.696 566.027 22.696C565.259 22.632 564.491 22.568 563.723 22.504H563.531C563.083 22.504 562.859 22.76 562.859 23.272V48.808C562.859 49.192 562.955 49.448 563.147 49.576C563.403 49.64 563.659 49.544 563.915 49.288L591.659 23.56C591.851 23.368 591.947 23.176 591.947 22.984C591.947 22.728 591.755 22.6 591.371 22.6C590.859 22.6 590.283 22.664 589.643 22.792C589.003 22.856 588.427 22.888 587.915 22.888C586.699 22.888 585.675 22.472 584.843 21.64C584.011 20.808 583.595 19.784 583.595 18.568C583.595 17.288 584.043 16.232 584.939 15.4C585.899 14.504 587.019 14.12 588.299 14.248C590.283 14.44 592.011 14.6 593.483 14.728C594.955 14.792 596.395 14.824 597.803 14.824C599.147 14.824 600.523 14.792 601.931 14.728C603.339 14.6 604.939 14.44 606.731 14.248C608.011 14.12 609.099 14.504 609.995 15.4C610.891 16.232 611.339 17.288 611.339 18.568C611.339 19.784 610.923 20.808 610.091 21.64C609.323 22.472 608.331 22.888 607.115 22.888C606.859 22.888 606.603 22.888 606.347 22.888C606.091 22.824 605.867 22.792 605.675 22.792H605.387C605.067 22.792 604.779 22.92 604.523 23.176L581.675 44.104C581.227 44.424 581.195 44.84 581.579 45.352L603.179 78.568C603.371 78.888 603.627 79.048 603.947 79.048C604.715 79.048 605.451 79.016 606.155 78.952C606.923 78.824 607.627 78.728 608.267 78.664ZM58.016 135.432C58.144 136.648 57.76 137.736 56.864 138.696C55.968 139.656 54.848 140.136 53.504 140.136C52.16 140.136 51.04 139.656 50.144 138.696C49.312 137.736 48.928 136.648 48.992 135.432L49.472 128.424C49.472 127.848 49.216 127.56 48.704 127.56H34.688C34.112 127.56 33.824 127.848 33.824 128.424V182.28C33.824 182.792 34.048 183.048 34.496 183.048C35.264 183.048 36 183.016 36.704 182.952C37.472 182.824 38.176 182.728 38.816 182.664C40.096 182.536 41.184 182.92 42.08 183.816C42.976 184.648 43.424 185.704 43.424 186.984C43.424 188.2 42.976 189.224 42.08 190.056C41.184 190.888 40.096 191.272 38.816 191.208C36.96 191.016 35.488 190.888 34.4 190.824C33.376 190.76 32.512 190.696 31.808 190.632C31.104 190.632 30.336 190.632 29.504 190.632C28.608 190.632 27.808 190.632 27.104 190.632C26.4 190.696 25.536 190.76 24.512 190.824C23.552 190.888 22.144 191.016 20.288 191.208C19.072 191.272 17.984 190.888 17.024 190.056C16.128 189.224 15.68 188.2 15.68 186.984C15.68 185.704 16.128 184.648 17.024 183.816C17.984 182.92 19.072 182.536 20.288 182.664C20.928 182.728 21.6 182.792 22.304 182.856C23.008 182.92 23.712 182.984 24.416 183.048H24.608C25.056 183.048 25.28 182.792 25.28 182.28V128.424C25.28 127.848 24.992 127.56 24.416 127.56H10.304C9.792 127.56 9.536 127.848 9.536 128.424L10.016 135.432C10.144 136.648 9.76 137.736 8.864 138.696C7.968 139.656 6.848 140.136 5.504 140.136C4.16 140.136 3.04 139.656 2.144 138.696C1.312 137.736 0.928 136.648 0.992 135.432C1.12 133.96 1.248 132.36 1.376 130.632C1.504 128.904 1.6 127.176 1.664 125.448C1.792 123.656 2.464 122.152 3.68 120.936C4.96 119.72 6.464 119.112 8.192 119.112H50.912C52.576 119.112 54.048 119.72 55.328 120.936C56.608 122.152 57.28 123.656 57.344 125.448C57.472 127.176 57.6 128.904 57.728 130.632C57.856 132.36 57.952 133.96 58.016 135.432ZM98.378 118.248C103.178 118.248 107.69 119.208 111.914 121.128C116.138 122.984 119.85 125.608 123.05 129C126.25 132.328 128.746 136.2 130.538 140.616C132.394 145.032 133.322 149.736 133.322 154.728C133.322 159.784 132.394 164.52 130.538 168.936C128.746 173.352 126.25 177.256 123.05 180.648C119.85 183.976 116.138 186.6 111.914 188.52C107.69 190.376 103.178 191.304 98.378 191.304C93.578 191.304 89.066 190.376 84.842 188.52C80.618 186.6 76.906 183.976 73.706 180.648C70.506 177.256 67.978 173.352 66.122 168.936C64.33 164.52 63.434 159.784 63.434 154.728C63.434 149.736 64.33 145.032 66.122 140.616C67.978 136.2 70.506 132.328 73.706 129C76.906 125.608 80.618 122.984 84.842 121.128C89.066 119.208 93.578 118.248 98.378 118.248ZM98.378 182.568C103.434 182.568 107.914 181.384 111.818 179.016C115.722 176.584 118.794 173.288 121.034 169.128C123.338 164.904 124.49 160.104 124.49 154.728C124.49 149.352 123.338 144.584 121.034 140.424C118.794 136.264 115.69 133 111.722 130.632C107.818 128.2 103.37 126.984 98.378 126.984C93.322 126.984 88.81 128.2 84.842 130.632C80.938 133 77.834 136.296 75.53 140.52C73.29 144.68 72.17 149.416 72.17 154.728C72.17 160.04 73.29 164.808 75.53 169.032C77.834 173.256 80.97 176.584 84.938 179.016C88.906 181.384 93.386 182.568 98.378 182.568ZM211.46 158.664C211.46 160.584 210.596 161.928 208.868 162.696C208.356 162.888 208.1 163.208 208.1 163.656V187.08C208.1 188.232 207.652 189.224 206.756 190.056C205.924 190.888 204.932 191.304 203.78 191.304C202.628 191.304 201.636 190.888 200.804 190.056C199.972 189.224 199.556 188.232 199.556 187.08V182.664C199.556 182.28 199.46 182.056 199.268 181.992C199.076 181.864 198.82 181.96 198.5 182.28C196.132 184.712 193.22 186.824 189.764 188.616C186.308 190.344 182.276 191.208 177.668 191.208C172.484 191.208 167.844 190.248 163.748 188.328C159.652 186.344 156.164 183.656 153.284 180.264C150.468 176.872 148.292 173 146.756 168.648C145.284 164.296 144.548 159.72 144.548 154.92C144.548 149.16 145.54 144.04 147.524 139.56C149.508 135.016 152.164 131.176 155.492 128.04C158.82 124.84 162.564 122.408 166.724 120.744C170.884 119.08 175.14 118.248 179.492 118.248C182.884 118.248 186.244 118.792 189.572 119.88C192.9 120.968 195.972 122.632 198.788 124.872C202.308 127.624 204.068 130.472 204.068 133.416C204.068 135.336 203.396 136.936 202.052 138.216C200.772 139.432 199.268 140.04 197.54 140.04C195.62 140.04 194.052 139.368 192.836 138.024C191.684 136.68 191.108 135.176 191.108 133.512C191.108 132.744 191.268 131.944 191.588 131.112C191.652 130.984 191.684 130.792 191.684 130.536C191.684 130.28 191.556 130.056 191.3 129.864C189.444 128.648 187.46 127.752 185.348 127.176C183.3 126.6 181.22 126.312 179.108 126.312C175.972 126.312 172.9 126.952 169.892 128.232C166.884 129.448 164.164 131.272 161.732 133.704C159.3 136.136 157.348 139.144 155.876 142.728C154.468 146.248 153.764 150.312 153.764 154.92C153.828 160.36 154.852 165.192 156.836 169.416C158.884 173.576 161.7 176.872 165.284 179.304C168.868 181.672 172.964 182.856 177.572 182.856C187.428 182.856 194.66 178.312 199.268 169.224C199.46 168.84 199.556 168.488 199.556 168.168V163.272C199.556 162.696 199.268 162.408 198.692 162.408C197.284 162.344 195.844 162.376 194.372 162.504C192.964 162.568 191.268 162.728 189.284 162.984C188.068 163.048 186.98 162.664 186.02 161.832C185.124 161 184.676 159.944 184.676 158.664C184.676 157.384 185.124 156.328 186.02 155.496C186.98 154.6 188.068 154.216 189.284 154.344C191.14 154.536 192.74 154.696 194.084 154.824C195.492 154.888 196.804 154.92 198.02 154.92C199.3 154.92 200.644 154.888 202.052 154.824C203.46 154.696 205.06 154.536 206.852 154.344C208.132 154.216 209.22 154.6 210.116 155.496C211.012 156.328 211.46 157.384 211.46 158.664ZM272.611 171.336C273.955 171.336 275.075 171.816 275.971 172.776C276.867 173.672 277.251 174.76 277.123 176.04L276.547 184.104C276.483 185.896 275.811 187.4 274.531 188.616C273.251 189.832 271.747 190.44 270.019 190.44H236.035C234.883 190.44 233.667 190.536 232.387 190.728C231.171 190.92 229.987 191.08 228.835 191.208C227.491 191.4 226.307 191.048 225.283 190.152C224.259 189.256 223.747 188.104 223.747 186.696C223.747 185.288 224.259 184.168 225.283 183.336C226.307 182.44 227.491 182.088 228.835 182.28C229.027 182.344 229.251 182.376 229.507 182.376C229.763 182.376 230.051 182.408 230.371 182.472H230.562C231.075 182.472 231.331 182.216 231.331 181.704V127.752C231.331 127.176 231.075 126.888 230.562 126.888C230.307 126.888 230.019 126.952 229.699 127.08C229.443 127.144 229.155 127.208 228.835 127.272C227.491 127.464 226.307 127.144 225.283 126.312C224.259 125.416 223.747 124.264 223.747 122.856C223.747 121.448 224.259 120.296 225.283 119.4C226.307 118.504 227.491 118.152 228.835 118.344C230.115 118.472 231.427 118.632 232.771 118.824C234.115 119.016 235.395 119.112 236.611 119.112H270.019C271.747 119.112 273.251 119.72 274.531 120.936C275.811 122.152 276.483 123.656 276.547 125.448L277.123 133.512C277.251 134.728 276.867 135.816 275.971 136.776C275.075 137.736 273.955 138.216 272.611 138.216C271.331 138.216 270.243 137.8 269.347 136.968C268.515 136.072 268.099 135.016 268.099 133.8C268.099 133.032 268.131 132.2 268.195 131.304C268.323 130.344 268.419 129.416 268.483 128.52C268.483 127.944 268.195 127.656 267.619 127.656H240.835C240.259 127.656 239.971 127.944 239.971 128.52V148.296C239.971 148.872 240.259 149.16 240.835 149.16H264.355C265.507 149.16 266.499 149.576 267.331 150.408C268.163 151.24 268.579 152.232 268.579 153.384C268.579 154.536 268.163 155.528 267.331 156.36C266.499 157.128 265.507 157.512 264.355 157.512H240.835C240.259 157.512 239.971 157.8 239.971 158.376V181.032C239.971 181.608 240.259 181.896 240.835 181.896H267.619C268.195 181.896 268.483 181.608 268.483 181.032C268.419 180.072 268.323 179.176 268.195 178.344C268.131 177.448 268.099 176.584 268.099 175.752C268.099 174.536 268.515 173.512 269.347 172.68C270.243 171.784 271.331 171.336 272.611 171.336ZM345.829 135.432C345.957 136.648 345.573 137.736 344.677 138.696C343.781 139.656 342.661 140.136 341.317 140.136C339.973 140.136 338.853 139.656 337.957 138.696C337.125 137.736 336.741 136.648 336.805 135.432L337.285 128.424C337.285 127.848 337.029 127.56 336.517 127.56H322.501C321.925 127.56 321.637 127.848 321.637 128.424V182.28C321.637 182.792 321.861 183.048 322.309 183.048C323.077 183.048 323.813 183.016 324.517 182.952C325.285 182.824 325.989 182.728 326.629 182.664C327.909 182.536 328.997 182.92 329.893 183.816C330.789 184.648 331.237 185.704 331.237 186.984C331.237 188.2 330.789 189.224 329.893 190.056C328.997 190.888 327.909 191.272 326.629 191.208C324.773 191.016 323.301 190.888 322.213 190.824C321.189 190.76 320.325 190.696 319.621 190.632C318.917 190.632 318.149 190.632 317.317 190.632C316.421 190.632 315.621 190.632 314.917 190.632C314.213 190.696 313.349 190.76 312.325 190.824C311.365 190.888 309.957 191.016 308.101 191.208C306.885 191.272 305.797 190.888 304.837 190.056C303.941 189.224 303.493 188.2 303.493 186.984C303.493 185.704 303.941 184.648 304.837 183.816C305.797 182.92 306.885 182.536 308.101 182.664C308.741 182.728 309.413 182.792 310.117 182.856C310.821 182.92 311.525 182.984 312.229 183.048H312.421C312.869 183.048 313.093 182.792 313.093 182.28V128.424C313.093 127.848 312.805 127.56 312.229 127.56H298.117C297.605 127.56 297.349 127.848 297.349 128.424L297.829 135.432C297.957 136.648 297.573 137.736 296.677 138.696C295.781 139.656 294.661 140.136 293.317 140.136C291.973 140.136 290.853 139.656 289.957 138.696C289.125 137.736 288.741 136.648 288.805 135.432C288.933 133.96 289.061 132.36 289.189 130.632C289.317 128.904 289.413 127.176 289.477 125.448C289.605 123.656 290.277 122.152 291.493 120.936C292.773 119.72 294.277 119.112 296.005 119.112H338.725C340.389 119.112 341.861 119.72 343.141 120.936C344.421 122.152 345.093 123.656 345.157 125.448C345.285 127.176 345.413 128.904 345.541 130.632C345.669 132.36 345.765 133.96 345.829 135.432ZM416.527 182.664C417.679 182.664 418.671 183.08 419.503 183.912C420.335 184.68 420.751 185.704 420.751 186.984C420.751 188.264 420.303 189.32 419.407 190.152C418.511 190.984 417.423 191.368 416.143 191.304C414.351 191.112 412.719 190.952 411.247 190.824C409.839 190.76 408.431 190.728 407.023 190.728C405.743 190.728 404.431 190.76 403.087 190.824C401.743 190.952 400.239 191.112 398.575 191.304C397.359 191.368 396.271 190.984 395.311 190.152C394.415 189.32 393.967 188.264 393.967 186.984C393.967 185.704 394.415 184.648 395.311 183.816C396.271 182.92 397.359 182.536 398.575 182.664C399.279 182.728 400.015 182.792 400.783 182.856C401.551 182.92 402.351 182.984 403.183 183.048H403.375C403.823 183.048 404.047 182.792 404.047 182.28V158.472C404.047 157.896 403.759 157.608 403.183 157.608H368.815C368.239 157.608 367.951 157.896 367.951 158.472V182.28C367.951 182.792 368.175 183.048 368.623 183.048C369.455 183.048 370.255 183.016 371.023 182.952C371.855 182.824 372.655 182.728 373.423 182.664C374.703 182.536 375.791 182.92 376.687 183.816C377.583 184.648 378.031 185.704 378.031 186.984C378.031 188.264 377.583 189.32 376.687 190.152C375.791 190.984 374.703 191.368 373.423 191.304C371.631 191.112 369.999 190.952 368.527 190.824C367.119 190.76 365.711 190.728 364.303 190.728C363.023 190.728 361.711 190.76 360.367 190.824C359.023 190.952 357.519 191.112 355.855 191.304C354.639 191.368 353.551 190.984 352.591 190.152C351.695 189.32 351.247 188.264 351.247 186.984C351.247 185.704 351.663 184.68 352.495 183.912C353.327 183.08 354.319 182.664 355.471 182.664C355.983 182.664 356.495 182.696 357.007 182.76C357.519 182.824 358.031 182.888 358.543 182.952H358.734C359.183 182.952 359.407 182.696 359.407 182.184V127.368C359.407 126.856 359.183 126.6 358.734 126.6C358.159 126.6 357.615 126.664 357.103 126.792C356.591 126.856 356.047 126.888 355.471 126.888C354.319 126.888 353.327 126.472 352.495 125.64C351.663 124.808 351.247 123.784 351.247 122.568C351.247 121.288 351.695 120.232 352.591 119.4C353.551 118.504 354.639 118.12 355.855 118.248C357.711 118.44 359.343 118.6 360.751 118.728C362.159 118.792 363.567 118.824 364.975 118.824C366.255 118.824 367.567 118.792 368.911 118.728C370.255 118.6 371.759 118.44 373.423 118.248C374.703 118.12 375.791 118.504 376.687 119.4C377.583 120.232 378.031 121.288 378.031 122.568C378.031 123.848 377.583 124.904 376.687 125.736C375.791 126.568 374.703 126.952 373.423 126.888C372.719 126.76 371.951 126.696 371.119 126.696C370.351 126.632 369.583 126.568 368.815 126.504H368.623C368.175 126.504 367.951 126.76 367.951 127.272V148.296C367.951 148.872 368.239 149.16 368.815 149.16H403.183C403.759 149.16 404.047 148.872 404.047 148.296V127.272C404.047 126.76 403.823 126.504 403.375 126.504C402.543 126.504 401.711 126.536 400.879 126.6C400.111 126.664 399.343 126.76 398.575 126.888C397.359 126.952 396.271 126.568 395.311 125.736C394.415 124.904 393.967 123.848 393.967 122.568C393.967 121.288 394.415 120.232 395.311 119.4C396.271 118.504 397.359 118.12 398.575 118.248C400.431 118.44 402.063 118.6 403.471 118.728C404.879 118.792 406.287 118.824 407.695 118.824C408.975 118.824 410.287 118.792 411.631 118.728C412.975 118.6 414.479 118.44 416.143 118.248C417.423 118.12 418.511 118.504 419.407 119.4C420.303 120.232 420.751 121.288 420.751 122.568C420.751 123.784 420.335 124.808 419.503 125.64C418.671 126.472 417.679 126.888 416.527 126.888C416.015 126.888 415.503 126.856 414.991 126.792C414.479 126.728 413.967 126.664 413.455 126.6H413.263C412.815 126.6 412.591 126.856 412.591 127.368V182.184C412.591 182.696 412.847 182.952 413.359 182.952C413.871 182.952 414.383 182.92 414.895 182.856C415.407 182.728 415.951 182.664 416.527 182.664ZM479.986 171.336C481.33 171.336 482.45 171.816 483.346 172.776C484.242 173.672 484.626 174.76 484.498 176.04L483.922 184.104C483.858 185.896 483.186 187.4 481.906 188.616C480.626 189.832 479.122 190.44 477.394 190.44H443.41C442.258 190.44 441.042 190.536 439.762 190.728C438.546 190.92 437.362 191.08 436.21 191.208C434.866 191.4 433.682 191.048 432.658 190.152C431.634 189.256 431.122 188.104 431.122 186.696C431.122 185.288 431.634 184.168 432.658 183.336C433.682 182.44 434.866 182.088 436.21 182.28C436.402 182.344 436.626 182.376 436.882 182.376C437.138 182.376 437.426 182.408 437.746 182.472H437.938C438.45 182.472 438.706 182.216 438.706 181.704V127.752C438.706 127.176 438.45 126.888 437.938 126.888C437.682 126.888 437.394 126.952 437.074 127.08C436.818 127.144 436.53 127.208 436.21 127.272C434.866 127.464 433.682 127.144 432.658 126.312C431.634 125.416 431.122 124.264 431.122 122.856C431.122 121.448 431.634 120.296 432.658 119.4C433.682 118.504 434.866 118.152 436.21 118.344C437.49 118.472 438.802 118.632 440.146 118.824C441.49 119.016 442.77 119.112 443.986 119.112H477.394C479.122 119.112 480.626 119.72 481.906 120.936C483.186 122.152 483.858 123.656 483.922 125.448L484.498 133.512C484.626 134.728 484.242 135.816 483.346 136.776C482.45 137.736 481.33 138.216 479.986 138.216C478.706 138.216 477.618 137.8 476.722 136.968C475.89 136.072 475.474 135.016 475.474 133.8C475.474 133.032 475.506 132.2 475.57 131.304C475.698 130.344 475.794 129.416 475.858 128.52C475.858 127.944 475.57 127.656 474.994 127.656H448.21C447.634 127.656 447.346 127.944 447.346 128.52V148.296C447.346 148.872 447.634 149.16 448.21 149.16H471.73C472.882 149.16 473.874 149.576 474.706 150.408C475.538 151.24 475.954 152.232 475.954 153.384C475.954 154.536 475.538 155.528 474.706 156.36C473.874 157.128 472.882 157.512 471.73 157.512H448.21C447.634 157.512 447.346 157.8 447.346 158.376V181.032C447.346 181.608 447.634 181.896 448.21 181.896H474.994C475.57 181.896 475.858 181.608 475.858 181.032C475.794 180.072 475.698 179.176 475.57 178.344C475.506 177.448 475.474 176.584 475.474 175.752C475.474 174.536 475.89 173.512 476.722 172.68C477.618 171.784 478.706 171.336 479.986 171.336ZM557.14 182.664C558.42 182.536 559.508 182.92 560.404 183.816C561.364 184.648 561.844 185.704 561.844 186.984C561.844 188.264 561.364 189.32 560.404 190.152C559.508 190.984 558.42 191.368 557.14 191.304C556.884 191.24 555.86 191.112 554.068 190.92C552.276 190.728 550.548 190.632 548.884 190.632C546.132 190.632 544.02 189.48 542.548 187.176L526.612 162.888C526.42 162.504 526.068 162.312 525.556 162.312H514.036C513.46 162.312 513.172 162.6 513.172 163.176V182.28C513.172 182.792 513.396 183.048 513.844 183.048C514.676 183.048 515.476 183.016 516.244 182.952C517.012 182.824 517.78 182.728 518.548 182.664C519.828 182.536 520.916 182.92 521.812 183.816C522.708 184.648 523.156 185.704 523.156 186.984C523.156 188.264 522.708 189.32 521.812 190.152C520.916 190.984 519.828 191.368 518.548 191.304C516.756 191.112 515.156 190.952 513.748 190.824C512.404 190.76 511.092 190.728 509.812 190.728C508.532 190.728 507.22 190.76 505.876 190.824C504.532 190.952 502.932 191.112 501.076 191.304C499.796 191.368 498.676 190.984 497.716 190.152C496.82 189.32 496.372 188.264 496.372 186.984C496.372 185.704 496.788 184.68 497.62 183.912C498.452 183.08 499.476 182.664 500.692 182.664C501.14 182.664 501.588 182.696 502.036 182.76C502.548 182.824 503.092 182.888 503.668 182.952H503.859C504.308 182.952 504.532 182.696 504.532 182.184V127.752C504.532 127.112 504.244 126.856 503.668 126.984L501.364 127.176C500.084 127.368 498.932 127.048 497.908 126.216C496.884 125.32 496.372 124.2 496.372 122.856C496.372 121.448 496.852 120.328 497.812 119.496C498.836 118.6 500.02 118.216 501.364 118.344C502.644 118.536 503.956 118.728 505.299 118.92C506.708 119.048 508.052 119.112 509.332 119.112L526.9 119.208C535.284 119.272 541.812 121.192 546.484 124.968C551.22 128.68 553.588 133.928 553.588 140.712C553.588 146.024 552.116 150.472 549.172 154.056C546.292 157.576 542.196 159.976 536.884 161.256C536.18 161.384 536.02 161.736 536.404 162.312L549.652 182.664C549.844 183.048 550.228 183.24 550.804 183.24C553.044 183.112 555.156 182.92 557.14 182.664ZM527.956 127.464H514.036C513.46 127.464 513.172 127.752 513.172 128.328V153C513.172 153.576 513.46 153.864 514.036 153.864H527.956C539.54 153.864 545.332 149.48 545.332 140.712C545.332 131.88 539.54 127.464 527.956 127.464Z" fill="#AD5013"/>
</svg>
