<svg width="3244" height="1647" viewBox="0 0 3244 1647" fill="none" xmlns="http://www.w3.org/2000/svg">
<g clip-path="url(#clip0_188_997)">
<rect width="3244" height="1647" fill="#FEF0E7"/>
<path d="M3369 971H-198V-504.979L339.177 -602L1017.81 -504.979L1659.47 -602L2307.59 -499.971L2873.43 -602L3369 -572.581V971Z" fill="#FF9894"/>
<path d="M-56 1672.1H2117V184.096L1842 232.096L1394.5 142.096L996 232.096L606.5 166.096L261.5 232.096L-56 184.096V1672.1Z" fill="#AAC8CA"/>
<path d="M-156 85.0957C-33.3333 155.371 256.16 274.84 432.8 190.509C653.6 85.0957 741 144.677 814.6 167.593C888.2 190.509 971 300.506 1265.4 167.593C1302.2 167.593 1477 75.9293 1702.4 190.509C1882.72 282.173 1955 278.096 2098.5 238.596" stroke="#AAC8CA" stroke-width="99" stroke-linecap="round"/>
<path d="M3848 1711.1H1675V156.962L1950 207.096L2397.5 113.096L2796 207.096L3163 101.596L3530.5 207.096L3848 156.962V1711.1Z" fill="#AAC8CA"/>
<path d="M3960.5 85C3837.83 155.276 3627.14 346.331 3450.5 262C3229.7 156.586 3120 102.5 2989.9 167.498C2920.94 201.949 2870 320.5 2539.1 167.498C2501.5 150.112 2382.4 66.42 2157 181C1972.4 274.84 1674.4 263.745 1564 190.414" stroke="#AAC8CA" stroke-width="99" stroke-linecap="round"/>
</g>
<defs>
<clipPath id="clip0_188_997">
<rect width="3244" height="1647" fill="white"/>
</clipPath>
</defs>
</svg>
