<svg width="296" height="148" viewBox="0 0 296 148" fill="none" xmlns="http://www.w3.org/2000/svg">
<path d="M147.654 147.654C229.201 147.654 295.308 81.5471 295.308 0H0C0 81.5471 66.107 147.654 147.654 147.654Z" fill="#FEF0E7"/>
<path d="M20.4689 37.4334C20.551 37.8304 20.4844 38.1927 20.2691 38.5205C20.0746 38.844 19.7685 39.049 19.3507 39.1354C18.9329 39.2219 18.5557 39.1366 18.2193 38.8795C17.8872 38.6432 17.6883 38.314 17.6227 37.8919C17.5643 37.294 17.5084 36.7609 17.4551 36.2927C17.3852 35.8496 17.307 35.4192 17.2205 35.0014C17.1383 34.6045 17.0392 34.1784 16.9232 33.7231C16.7906 33.2931 16.6303 32.7816 16.4422 32.1888C16.3348 31.7753 16.3866 31.3942 16.5977 31.0455C16.8087 30.6969 17.1231 30.4793 17.5409 30.3928C17.9587 30.3063 18.3337 30.3812 18.6658 30.6174C19.0188 30.8494 19.2177 31.1785 19.2624 31.605C19.2891 31.8391 19.3179 32.0837 19.3489 32.3387C19.3842 32.6146 19.4174 32.8801 19.4484 33.1351L19.4614 33.1977C19.4916 33.344 19.5903 33.3998 19.7575 33.3652L35.582 30.0895C35.7282 30.0592 35.7927 30.0023 35.7754 29.9188C35.779 29.8309 35.7138 29.779 35.5798 29.7632L19.3278 26.3956C18.9633 26.3186 18.6463 26.1554 18.3768 25.9062C18.1326 25.6735 17.9737 25.3796 17.9002 25.0245C17.831 24.6903 17.8685 24.3448 18.0125 23.9882C18.1609 23.6525 18.3788 23.3896 18.6662 23.1994L32.3809 14.1515C32.5019 14.1047 32.5537 14.0395 32.5364 13.9559C32.5148 13.8515 32.4204 13.8165 32.2533 13.8511L16.3975 17.1333C16.2303 17.1679 16.1619 17.2583 16.1922 17.4045C16.2484 17.6761 16.3129 17.9351 16.3857 18.1815C16.4837 18.4444 16.5691 18.699 16.6418 18.9454C16.7701 19.3545 16.7183 19.7356 16.4864 20.0886C16.2753 20.4373 15.9609 20.6549 15.5431 20.7414C15.1253 20.8279 14.7503 20.753 14.4182 20.5167C14.0861 20.2805 13.8872 19.9513 13.8216 19.5292C13.7632 18.9313 13.7073 18.3982 13.654 17.93C13.5841 17.4869 13.5059 17.0565 13.4194 16.6387C13.3329 16.2209 13.2338 15.7948 13.1221 15.3604C12.9895 14.9304 12.8292 14.4189 12.6411 13.8261C12.5337 13.4126 12.5834 13.0211 12.7901 12.6515C13.0011 12.3028 13.3155 12.0852 13.7334 11.9987C14.1512 11.9122 14.5135 11.9788 14.8204 12.1985C15.1482 12.4139 15.3532 12.72 15.4354 13.1169C15.5045 13.4512 15.5359 13.7606 15.5295 14.0451C15.5727 14.254 15.6883 14.339 15.8763 14.3001L33.675 10.6158C33.863 10.5769 33.9376 10.4634 33.8987 10.2754C33.8518 10.1544 33.8028 10.0229 33.7517 9.881C33.7214 9.73476 33.689 9.57808 33.6544 9.41096C33.5722 9.01404 33.6388 8.65169 33.8542 8.32389C34.0695 7.9961 34.3757 7.79112 34.7726 7.70896C35.1904 7.62248 35.5675 7.7078 35.904 7.96494C36.2404 8.22208 36.431 8.56388 36.4757 8.99034C36.5348 9.69702 36.5911 10.2845 36.6444 10.7527C36.6978 11.221 36.7742 11.6953 36.8736 12.1758C36.999 12.7816 36.9444 13.3594 36.7096 13.909C36.4791 14.4796 36.1035 14.9277 35.5827 15.2534L22.1359 24.017C22.0236 24.1056 21.9739 24.1813 21.9868 24.2439C22.0085 24.3484 22.0841 24.3981 22.2138 24.393L38.1567 27.5305C38.7474 27.6478 39.2618 27.9226 39.6998 28.3548C40.1379 28.787 40.4174 29.2955 40.5385 29.8805C40.6423 30.3818 40.7605 30.8475 40.8931 31.2776C41.0257 31.7076 41.2008 32.2378 41.4184 32.8681C41.5467 33.2773 41.497 33.6688 41.2694 34.0427C41.0627 34.4123 40.7504 34.6403 40.3326 34.7268C39.9357 34.809 39.5733 34.7424 39.2455 34.527C38.9386 34.3073 38.7441 33.999 38.6619 33.6021C38.6317 33.4559 38.6118 33.3075 38.6025 33.1569C38.5974 33.0273 38.5776 32.8789 38.543 32.7117L38.53 32.6491C38.4998 32.5028 38.4011 32.447 38.2339 32.4816L20.4039 36.1724C20.2159 36.2114 20.1435 36.3353 20.1868 36.5442C20.3143 36.8446 20.4083 37.141 20.4689 37.4334Z" fill="#AD5015"/>
<path d="M46.4354 43.7179C47.113 45.1673 47.46 46.6653 47.4764 48.2119C47.5122 49.7494 47.2438 51.2407 46.6712 52.6858C46.1179 54.1219 45.301 55.4221 44.2204 56.5866C43.1489 57.7704 41.8594 58.7146 40.352 59.4192C38.8252 60.1329 37.2641 60.5212 35.6686 60.5841C34.0821 60.6663 32.5509 60.4636 31.0749 59.9761C29.6183 59.4795 28.302 58.729 27.1259 57.7245C25.9692 56.7109 25.0521 55.4794 24.3746 54.03C23.6971 52.5805 23.3404 51.087 23.3046 49.5495C23.2882 48.003 23.5566 46.5117 24.1099 45.0756C24.6825 43.6305 25.5045 42.316 26.5761 41.1323C27.6566 39.9678 28.9603 39.0287 30.4871 38.315C31.9945 37.6104 33.5414 37.217 35.1279 37.1348C36.7234 37.0719 38.2495 37.2888 39.7061 37.7853C41.1821 38.2728 42.4984 39.0234 43.6551 40.0369C44.8311 41.0414 45.7579 42.2684 46.4354 43.7179ZM27.0126 52.7969C27.7263 54.3236 28.7162 55.5093 29.9823 56.354C31.2678 57.1896 32.6967 57.652 34.2691 57.7412C35.8698 57.8407 37.4819 57.5111 39.1053 56.7522C40.7287 55.9934 42.0059 54.9725 42.9369 53.6896C43.8769 52.4259 44.4244 51.0279 44.5794 49.4954C44.7627 47.9732 44.5021 46.4584 43.7974 44.951C43.0837 43.4242 42.0797 42.2334 40.7852 41.3784C39.519 40.5338 38.0856 40.0617 36.4849 39.9622C34.9125 39.873 33.3242 40.2033 31.7202 40.9531C30.1161 41.7029 28.8344 42.7141 27.875 43.9868C26.9247 45.2787 26.3624 46.6955 26.1881 48.237C26.0332 49.7695 26.308 51.2894 27.0126 52.7969Z" fill="#AD5015"/>
<path d="M54.4474 59.2993L57.0436 62.6718C58.5011 64.565 59.3792 66.5275 59.6779 68.5591C59.9895 70.6076 59.7477 72.5841 58.9524 74.4887C58.174 76.3802 56.855 78.0417 54.9956 79.4732C53.0347 80.9828 51.0449 81.8954 49.0263 82.2109C47.0247 82.5135 45.0839 82.2307 43.204 81.3625C41.3541 80.4982 39.6483 79.0519 38.0866 77.0233L35.4904 73.6509C35.2431 73.3297 34.9725 73.0131 34.6784 72.7011C34.3804 72.4189 34.0889 72.1452 33.804 71.88C33.4969 71.551 33.3576 71.1602 33.386 70.7076C33.4106 70.2848 33.6088 69.9303 33.9807 69.644C34.3526 69.3577 34.761 69.2587 35.2058 69.347C35.6507 69.4352 35.9779 69.6679 36.1875 70.0451L36.5936 70.7824L36.6326 70.8331C36.7367 70.9684 36.8564 70.9839 36.9917 70.8798L51.2673 59.8898C51.4195 59.7727 51.4305 59.6296 51.3003 59.4605C51.1624 59.3513 51.0265 59.2272 50.8924 59.088C50.7714 58.9658 50.6654 58.8455 50.5743 58.7272C50.327 58.406 50.2222 58.0425 50.2597 57.6367C50.3272 57.2347 50.5215 56.9101 50.8427 56.6629C51.2146 56.3766 51.623 56.2776 52.0679 56.3658C52.5128 56.4541 52.84 56.6868 53.0495 57.0639C53.276 57.4281 53.5005 57.8071 53.7231 58.2012C53.9457 58.5952 54.1871 58.9613 54.4474 59.2993ZM38.9514 73.0057C38.7992 73.1229 38.7817 73.2575 38.8988 73.4096L40.3433 75.286C40.7728 75.8439 41.2985 76.4218 41.9205 77.0199C42.5425 77.618 43.2424 78.1426 44.0204 78.5936C44.8153 79.0317 45.683 79.3194 46.6235 79.457C47.5939 79.5984 48.6253 79.5043 49.7178 79.1748C50.8402 78.8492 52.0269 78.2049 53.2778 77.2419C54.123 76.5912 54.8621 75.8202 55.4953 74.929C56.1453 74.0247 56.5956 73.0185 56.8462 71.9102C57.1137 70.7888 57.0944 69.5922 56.7882 68.3202C56.4951 67.0651 55.828 65.7614 54.7869 64.4091L53.2252 62.3806C53.1081 62.2284 52.9735 62.2109 52.8213 62.328L38.9514 73.0057Z" fill="#AD5015"/>
<path d="M78.3183 78.4738L74.1671 78.4959C73.8778 78.4726 73.6523 78.3915 73.4904 78.2525C73.2799 78.0719 73.1632 77.8312 73.1402 77.5304C73.1172 77.2296 73.1961 76.9739 73.3767 76.7635C73.5295 76.5854 73.747 76.4629 74.0294 76.3959L78.1843 75.8289C78.5731 75.769 78.9213 75.871 79.2289 76.135C79.5041 76.3711 79.6486 76.6778 79.6623 77.055C79.6898 77.416 79.5855 77.7341 79.3494 78.0093C79.0993 78.3007 78.7556 78.4556 78.3183 78.4738ZM67.4157 98.5505C67.7557 98.8422 67.9348 99.2067 67.9531 99.6441C67.9853 100.065 67.8462 100.424 67.536 100.72L65.6399 102.635C65.2347 103.074 64.7382 103.309 64.1505 103.339C63.5627 103.368 63.0503 103.196 62.6132 102.821L54.0163 95.4437C53.7249 95.1936 53.3964 94.9539 53.031 94.7247C52.6817 94.5093 52.3474 94.2928 52.0282 94.0751C51.6466 93.8319 51.4235 93.4858 51.3589 93.0369C51.2944 92.588 51.4149 92.1854 51.7205 91.8292C52.0262 91.4731 52.3988 91.3009 52.8384 91.3127C53.292 91.3083 53.6679 91.4763 53.9662 91.8166C54.0009 91.8744 54.0506 91.9312 54.1154 91.9867C54.1801 92.0423 54.246 92.1129 54.3131 92.1986L54.3617 92.2402C54.4912 92.3514 54.6115 92.3422 54.7226 92.2127L66.4339 78.5646C66.5589 78.4189 66.5567 78.2904 66.4272 78.1793C66.3624 78.1237 66.2757 78.0774 66.1669 78.0403C66.0883 78.0009 66.0015 77.9546 65.9067 77.9013C65.525 77.6582 65.295 77.3202 65.2165 76.8875C65.152 76.4385 65.2725 76.036 65.5782 75.6798C65.8838 75.3236 66.2634 75.1433 66.7169 75.1389C67.1704 75.1346 67.5464 75.3025 67.8447 75.6428C68.1407 75.9531 68.4378 76.2783 68.7362 76.6186C69.0345 76.959 69.3374 77.2611 69.645 77.525L78.0962 84.7768C78.5333 85.1519 78.7818 85.6322 78.8416 86.2177C78.9015 86.8031 78.745 87.3295 78.3722 87.7967L76.7675 89.9616C76.5359 90.297 76.2026 90.4889 75.7676 90.5373C75.3325 90.5856 74.945 90.4639 74.605 90.1722C74.2812 89.8943 74.0963 89.5529 74.0502 89.148C74.0342 88.7407 74.1582 88.3833 74.4222 88.0757C74.5889 87.8814 74.7776 87.6779 74.9883 87.4651C75.229 87.25 75.4548 87.0361 75.6654 86.8233C75.7905 86.6776 75.7801 86.5423 75.6344 86.4172L68.8589 80.6033C68.7132 80.4783 68.5779 80.4886 68.4528 80.6343L64.1601 85.637C64.0351 85.7827 64.0454 85.9181 64.1911 86.0431L70.1409 91.1485C70.4323 91.3986 70.593 91.7192 70.6228 92.1102C70.6527 92.5013 70.5426 92.8426 70.2925 93.134C70.0425 93.4254 69.7219 93.586 69.3309 93.6159C68.9537 93.6296 68.6194 93.5114 68.328 93.2613L62.3782 88.1559C62.2325 88.0309 62.0971 88.0412 61.972 88.1869L57.0542 93.9181C56.9291 94.0639 56.9395 94.1992 57.0852 94.3243L63.8607 100.138C64.0064 100.263 64.1417 100.253 64.2668 100.107C64.459 99.8504 64.6292 99.6029 64.7774 99.3647C64.9557 99.1241 65.1351 98.8986 65.3157 98.6882C65.5797 98.3806 65.9072 98.2118 66.2983 98.1819C66.7194 98.1498 67.0919 98.2726 67.4157 98.5505Z" fill="#AD5015"/>
<path d="M88.5151 111.617C88.8869 111.827 89.1245 112.144 89.2278 112.569C89.3602 112.987 89.3124 113.376 89.0846 113.737C88.8358 114.136 88.5568 114.566 88.2476 115.029C87.9488 115.473 87.6448 115.926 87.3356 116.388C87.024 116.898 86.5829 117.225 86.0123 117.369C85.4416 117.513 84.9053 117.444 84.4034 117.161L75.9259 112.39C75.432 112.137 74.9277 111.902 74.413 111.685C73.8878 111.488 73.4114 111.269 72.9838 111.028C72.6119 110.819 72.3691 110.511 72.2553 110.104C72.1416 109.697 72.1893 109.308 72.3986 108.936C72.6078 108.564 72.9159 108.321 73.3226 108.208C73.7584 108.086 74.153 108.124 74.5062 108.323C74.6177 108.386 74.7148 108.453 74.7973 108.523C74.8983 108.605 75.0418 108.698 75.2277 108.803L75.2835 108.834C75.4322 108.918 75.5485 108.885 75.6322 108.736L84.4529 93.0641C84.5366 92.9154 84.5134 92.8044 84.3832 92.7312C84.1973 92.6265 84.0195 92.5509 83.8499 92.5044C83.7093 92.4498 83.5646 92.3806 83.4159 92.2969C83.0627 92.0981 82.8332 91.8098 82.7276 91.4321C82.6219 91.0544 82.6685 90.6889 82.8673 90.3357C83.0765 89.9639 83.3793 89.7304 83.7756 89.6352C84.201 89.5318 84.5891 89.6034 84.94 89.8499C85.4478 90.2091 85.8864 90.5171 86.2559 90.7741C86.6544 91.0228 87.0303 91.2466 87.3835 91.4454C87.7553 91.6547 88.1417 91.8599 88.5426 92.0611C88.9725 92.2541 89.4634 92.4692 90.0154 92.7064C90.4081 92.8785 90.6614 93.1679 90.7752 93.5747C90.8994 93.9628 90.8569 94.3428 90.6476 94.7147C90.4384 95.0865 90.1356 95.32 89.7393 95.4152C89.343 95.5104 88.9641 95.444 88.6028 95.2162C88.4192 95.0639 88.2159 94.925 87.9928 94.7994C87.7802 94.6553 87.5675 94.5111 87.3549 94.367L87.2991 94.3356C87.169 94.2623 87.0621 94.3001 86.9784 94.4488L78.189 110.065C78.0949 110.233 78.1314 110.363 78.2988 110.458L85.1589 114.319C85.3448 114.423 85.4662 114.381 85.5232 114.193C85.7034 113.829 85.8691 113.47 86.0203 113.114C86.1714 112.759 86.3255 112.441 86.4824 112.163C86.6812 111.809 86.9695 111.58 87.3472 111.474C87.754 111.36 88.1433 111.408 88.5151 111.617Z" fill="#AD5015"/>
<path d="M102.954 122.456C103.371 122.556 103.671 122.796 103.855 123.177C104.065 123.544 104.1 123.929 103.96 124.332C103.819 124.735 103.552 125.014 103.158 125.171C102.785 125.334 102.4 125.335 102.005 125.174C101.462 124.917 100.956 124.684 100.486 124.475C100.01 124.286 99.5404 124.11 99.0772 123.949C98.2715 123.667 97.3139 123.401 96.2043 123.149C95.7944 123.028 95.4842 122.784 95.2735 122.417C95.083 122.056 95.0581 121.675 95.1988 121.272C95.3395 120.869 95.5965 120.586 95.9699 120.423C96.3705 120.246 96.7652 120.249 97.1539 120.43C97.3483 120.52 97.5527 120.614 97.7672 120.712C97.9817 120.809 98.1962 120.907 98.4107 121.004L98.4712 121.025C98.6121 121.075 98.7108 121.019 98.7671 120.858L104.813 103.547C104.869 103.386 104.827 103.281 104.686 103.231C104.444 103.147 104.209 103.076 103.981 103.019C103.752 102.962 103.52 102.915 103.284 102.877C102.874 102.757 102.564 102.513 102.354 102.146C102.163 101.785 102.138 101.404 102.279 101.001C102.419 100.598 102.677 100.315 103.05 100.152C103.451 99.9753 103.845 99.9775 104.234 100.159C104.797 100.423 105.303 100.656 105.752 100.858C106.228 101.047 106.698 101.223 107.161 101.384C107.947 101.659 108.905 101.925 110.034 102.184C110.451 102.285 110.751 102.525 110.935 102.906C111.146 103.273 111.18 103.658 111.04 104.061C110.899 104.464 110.632 104.743 110.238 104.9C109.865 105.063 109.48 105.064 109.085 104.903C108.897 104.793 108.703 104.702 108.502 104.632C108.307 104.541 108.103 104.447 107.888 104.35L107.828 104.329C107.687 104.28 107.588 104.335 107.532 104.497L101.486 121.807C101.43 121.968 101.482 122.077 101.643 122.133C101.845 122.204 102.06 122.267 102.288 122.325C102.524 122.362 102.746 122.405 102.954 122.456Z" fill="#AD5015"/>
<path d="M122.639 112.531C122.444 113.321 122.504 114.001 122.82 114.573C123.16 115.126 123.661 115.631 124.32 116.086C125.001 116.545 125.761 116.985 126.599 117.405C127.438 117.825 128.271 118.277 129.099 118.761C129.931 119.223 130.673 119.768 131.326 120.395C132.003 121.005 132.498 121.736 132.811 122.588C133.148 123.422 133.219 124.429 133.024 125.607C132.811 126.891 132.273 127.98 131.411 128.875C130.57 129.774 129.501 130.418 128.203 130.808C126.906 131.199 125.5 131.268 123.984 131.017C122.09 130.703 120.568 130.104 119.417 129.221C118.269 128.317 117.416 127.397 116.858 126.461C116.433 125.764 116.278 125.067 116.393 124.373C116.491 123.784 116.764 123.31 117.213 122.952C117.662 122.594 118.244 122.474 118.959 122.593C119.548 122.691 119.996 122.992 120.301 123.497C120.628 124.005 120.746 124.533 120.655 125.08C120.61 125.354 120.499 125.627 120.324 125.901C120.233 126.059 120.233 126.189 120.325 126.29C120.802 126.802 121.36 127.219 121.998 127.541C122.658 127.867 123.335 128.087 124.03 128.202C124.956 128.356 125.866 128.345 126.76 128.169C127.658 127.972 128.418 127.622 129.042 127.12C129.67 126.597 130.05 125.936 130.182 125.136C130.301 124.42 130.178 123.794 129.813 123.258C129.451 122.701 128.928 122.203 128.244 121.765C127.584 121.31 126.846 120.874 126.028 120.457C125.211 120.04 124.388 119.59 123.56 119.107C122.753 118.627 122.021 118.084 121.365 117.478C120.733 116.854 120.257 116.137 119.937 115.327C119.618 114.517 119.549 113.565 119.73 112.471C119.929 111.271 120.309 110.285 120.869 109.513C121.455 108.724 122.157 108.137 122.978 107.754C123.802 107.35 124.685 107.108 125.629 107.026C126.575 106.924 127.522 106.951 128.469 107.108C129.669 107.307 130.788 107.666 131.827 108.184C132.865 108.703 133.672 109.312 134.248 110.013C134.845 110.718 135.08 111.449 134.955 112.206C134.836 112.792 134.531 113.261 134.04 113.612C133.571 113.966 133.041 114.095 132.452 113.997C131.863 113.899 131.392 113.605 131.041 113.114C130.711 112.627 130.595 112.089 130.693 111.5C130.728 111.289 130.763 111.143 130.798 111.063C130.868 110.901 130.873 110.805 130.813 110.773C130.564 110.581 130.175 110.386 129.645 110.19C129.136 109.998 128.577 109.851 127.966 109.75C127.272 109.635 126.549 109.623 125.799 109.715C125.073 109.789 124.424 110.049 123.853 110.495C123.285 110.919 122.881 111.598 122.639 112.531Z" fill="#AD5015"/>
<path d="M164.564 129.859C164.969 129.848 165.315 129.976 165.6 130.246C165.884 130.494 166.033 130.831 166.045 131.257C166.057 131.684 165.907 132.04 165.595 132.327C165.305 132.613 164.946 132.751 164.519 132.742C163.3 132.649 162.327 132.612 161.602 132.633C160.813 132.656 159.845 132.747 158.697 132.908C158.271 132.942 157.905 132.824 157.599 132.556C157.292 132.287 157.133 131.939 157.121 131.513C157.108 131.086 157.227 130.741 157.475 130.478C157.744 130.193 158.082 130.045 158.487 130.033C158.679 130.028 158.882 130.032 159.095 130.048C159.331 130.062 159.555 130.088 159.77 130.124C160.026 130.117 160.097 130.008 159.985 129.798L158.385 126.483C158.317 126.335 158.208 126.264 158.059 126.268L146.991 126.584C146.864 126.588 146.759 126.666 146.678 126.817L145.271 130.219C145.251 130.262 145.241 130.305 145.242 130.348C145.246 130.476 145.333 130.537 145.504 130.533C145.737 130.483 145.96 130.445 146.173 130.417C146.385 130.39 146.588 130.373 146.78 130.368C147.185 130.356 147.519 130.486 147.783 130.755C148.068 131.003 148.216 131.341 148.228 131.767C148.24 132.194 148.101 132.55 147.811 132.836C147.52 133.121 147.161 133.26 146.734 133.25C145.494 133.158 144.521 133.122 143.818 133.142C143.007 133.165 142.039 133.257 140.912 133.417C140.487 133.451 140.11 133.333 139.782 133.065C139.475 132.797 139.316 132.449 139.304 132.022C139.292 131.596 139.421 131.251 139.69 130.987C139.96 130.702 140.297 130.553 140.702 130.542C140.915 130.536 141.118 130.541 141.311 130.556C141.503 130.572 141.696 130.588 141.888 130.604L141.952 130.602C142.059 130.599 142.153 130.532 142.235 130.402L150.921 109.505C151.12 109.008 151.486 108.753 152.019 108.737C152.531 108.723 152.901 108.958 153.128 109.442L163.058 129.806C163.147 129.932 163.245 129.993 163.352 129.99C163.565 129.984 163.767 129.967 163.958 129.941C164.17 129.892 164.372 129.865 164.564 129.859ZM152.363 114.042C152.338 113.914 152.272 113.852 152.166 113.855C152.102 113.857 152.04 113.923 151.979 114.053L148.056 123.513C148.036 123.556 148.027 123.599 148.028 123.642C148.032 123.791 148.119 123.863 148.29 123.858L156.607 123.62C156.863 123.613 156.934 123.493 156.821 123.262L152.363 114.042Z" fill="#AD5015"/>
<path d="M182.766 109.619C182.901 110.003 182.861 110.386 182.644 110.766C182.427 111.146 182.101 111.388 181.665 111.492C181.23 111.596 180.829 111.526 180.465 111.284C180.121 111.037 179.913 110.714 179.84 110.314L179.455 108.005C179.411 107.818 179.305 107.744 179.139 107.784L174.594 108.864C174.407 108.908 174.336 109.024 174.38 109.211L178.532 126.676C178.571 126.842 178.664 126.908 178.809 126.874C179.058 126.814 179.294 126.747 179.518 126.672C179.757 126.572 179.978 126.486 180.18 126.416C180.586 126.276 180.968 126.317 181.328 126.538C181.682 126.739 181.909 127.047 182.008 127.462C182.101 127.856 182.035 128.223 181.809 128.562C181.582 128.901 181.259 129.109 180.839 129.187C180.222 129.268 179.735 129.34 179.377 129.403C179.04 129.461 178.755 129.507 178.522 129.54C178.293 129.594 178.044 129.654 177.775 129.718C177.484 129.787 177.225 129.849 176.996 129.903C176.773 129.978 176.498 130.065 176.17 130.165C175.864 130.26 175.417 130.41 174.83 130.615C174.441 130.729 174.058 130.689 173.683 130.493C173.328 130.292 173.104 129.995 173.01 129.6C172.912 129.185 172.976 128.808 173.202 128.469C173.444 128.105 173.767 127.896 174.172 127.844C174.384 127.816 174.607 127.785 174.84 127.751C175.073 127.718 175.307 127.684 175.54 127.651L175.602 127.636C175.748 127.601 175.8 127.501 175.761 127.335L171.61 109.869C171.565 109.683 171.45 109.611 171.263 109.656L166.686 110.744C166.52 110.783 166.459 110.896 166.504 111.083L167.2 113.319C167.335 113.703 167.294 114.086 167.078 114.466C166.861 114.846 166.535 115.088 166.099 115.192C165.663 115.296 165.263 115.226 164.898 114.984C164.555 114.737 164.346 114.414 164.273 114.014C164.201 113.527 164.119 112.998 164.028 112.428C163.936 111.858 163.834 111.29 163.722 110.725C163.625 110.134 163.727 109.594 164.028 109.106C164.349 108.613 164.79 108.3 165.35 108.167L179.204 104.874C179.744 104.746 180.268 104.829 180.777 105.125C181.286 105.421 181.62 105.857 181.779 106.433C181.953 106.983 182.128 107.534 182.303 108.084C182.477 108.635 182.632 109.146 182.766 109.619Z" fill="#AD5015"/>
<path d="M201.009 119.416C201.382 119.205 201.766 119.177 202.159 119.33C202.564 119.455 202.852 119.712 203.024 120.103C203.196 120.494 203.191 120.88 203.01 121.263C202.848 121.637 202.568 121.9 202.168 122.052C201.596 122.234 201.067 122.409 200.581 122.576C200.104 122.763 199.64 122.955 199.191 123.152C198.41 123.496 197.528 123.954 196.545 124.526C196.163 124.718 195.769 124.751 195.365 124.626C194.98 124.492 194.701 124.23 194.529 123.84C194.358 123.449 194.353 123.067 194.514 122.693C194.687 122.29 194.977 122.023 195.385 121.89C195.589 121.824 195.802 121.753 196.026 121.678C196.249 121.603 196.473 121.528 196.696 121.453L196.755 121.428C196.891 121.367 196.925 121.259 196.856 121.103L189.473 104.319C189.404 104.163 189.302 104.115 189.165 104.175C188.931 104.278 188.71 104.387 188.504 104.501C188.298 104.615 188.096 104.739 187.899 104.872C187.517 105.063 187.123 105.097 186.719 104.972C186.334 104.838 186.055 104.576 185.883 104.185C185.712 103.795 185.707 103.413 185.868 103.038C186.041 102.636 186.331 102.369 186.739 102.236C187.331 102.045 187.86 101.871 188.326 101.712C188.804 101.526 189.267 101.334 189.716 101.136C190.478 100.801 191.36 100.343 192.363 99.7619C192.736 99.5511 193.12 99.5222 193.513 99.6753C193.918 99.8003 194.206 100.058 194.378 100.449C194.55 100.839 194.545 101.226 194.364 101.609C194.202 101.983 193.922 102.246 193.522 102.398C193.31 102.445 193.106 102.511 192.911 102.597C192.707 102.664 192.493 102.734 192.27 102.809L192.211 102.835C192.075 102.895 192.041 103.003 192.109 103.16L199.493 119.943C199.561 120.1 199.674 120.143 199.83 120.075C200.025 119.989 200.226 119.889 200.432 119.775C200.63 119.641 200.822 119.522 201.009 119.416Z" fill="#AD5015"/>
<path d="M210.864 89.643C212.18 88.7328 213.599 88.1404 215.121 87.8658C216.631 87.5736 218.146 87.5891 219.666 87.9122C221.175 88.2178 222.593 88.8059 223.922 89.6768C225.268 90.5354 226.414 91.649 227.361 93.0176C228.32 94.4036 228.963 95.8779 229.292 97.4405C229.638 98.9909 229.694 100.534 229.46 102.071C229.214 103.59 228.694 105.014 227.9 106.341C227.094 107.651 226.033 108.761 224.717 109.671C223.401 110.581 221.988 111.182 220.478 111.474C218.956 111.749 217.441 111.733 215.933 111.428C214.412 111.105 212.979 110.514 211.633 109.655C210.304 108.784 209.16 107.656 208.202 106.27C207.255 104.901 206.609 103.442 206.263 101.891C205.934 100.329 205.893 98.7881 206.139 97.2689C206.373 95.7322 206.893 94.309 207.699 92.9992C208.493 91.6719 209.548 90.5531 210.864 89.643ZM223.06 107.276C224.446 106.317 225.45 105.143 226.071 103.754C226.68 102.347 226.898 100.86 226.723 99.2953C226.554 97.7004 225.959 96.1661 224.94 94.6923C223.92 93.2185 222.7 92.1298 221.28 91.4263C219.877 90.7106 218.407 90.4044 216.87 90.5076C215.339 90.5812 213.889 91.0913 212.52 92.0379C211.134 92.9966 210.128 94.1855 209.501 95.6047C208.88 96.9941 208.654 98.4863 208.824 100.081C208.998 101.646 209.589 103.157 210.597 104.613C211.604 106.07 212.815 107.164 214.23 107.898C215.663 108.619 217.153 108.936 218.702 108.851C220.239 108.747 221.692 108.222 223.06 107.276Z" fill="#AD5015"/>
<path d="M236.431 66.2671C236.689 65.9244 237.029 65.7445 237.451 65.7272C237.857 65.6955 238.217 65.8242 238.531 66.1133C238.829 66.388 238.986 66.7213 239.002 67.1132C239.018 67.505 238.896 67.8422 238.636 68.1246C238.535 68.2344 238.419 68.3448 238.287 68.4559C238.17 68.5512 238.039 68.6623 237.893 68.789L237.85 68.8361C237.749 68.9459 237.761 69.0587 237.886 69.1743L252.171 82.3367C252.516 82.6547 252.698 83.0398 252.716 83.492C252.75 83.9586 252.601 84.3723 252.269 84.7332C251.777 85.2666 251.159 85.4806 250.415 85.3751L230.234 81.9653C230.112 81.9401 230.029 81.951 229.986 81.998C229.914 82.0765 229.94 82.1735 230.066 82.2892L241.22 92.5675C241.346 92.6832 241.459 92.6861 241.561 92.5763C241.763 92.3566 241.943 92.1455 242.101 91.9427C242.257 91.7099 242.407 91.4999 242.551 91.3129C242.808 90.9702 243.148 90.7902 243.57 90.773C243.991 90.7256 244.358 90.8465 244.672 91.1356C244.986 91.4247 245.136 91.7809 245.123 92.2042C245.125 92.6117 244.973 92.9652 244.669 93.2645C244.217 93.6604 243.816 94.0165 243.467 94.3327C243.147 94.6477 242.843 94.9621 242.554 95.2759C242.279 95.5739 241.991 95.9028 241.689 96.2624C241.416 96.6208 241.094 97.0491 240.722 97.5474C240.463 97.86 240.123 98.04 239.702 98.0874C239.296 98.1191 238.936 97.9904 238.622 97.7012C238.308 97.4121 238.151 97.0788 238.151 96.7014C238.135 96.3095 238.257 95.9724 238.517 95.69C238.619 95.5802 238.728 95.4776 238.844 95.3822C238.976 95.2712 239.114 95.1523 239.26 95.0255L239.304 94.9785C239.405 94.8686 239.393 94.7559 239.267 94.6403L225.947 82.367C225.791 82.2224 225.656 82.243 225.542 82.4288L225.203 82.9862C224.932 83.3747 224.571 83.5933 224.12 83.6419C223.653 83.6761 223.247 83.5342 222.902 83.2161C222.557 82.8981 222.39 82.5124 222.402 82.059C222.428 81.5899 222.617 81.2123 222.967 80.9262C223.231 80.7342 223.473 80.5507 223.692 80.3757C223.91 80.1705 224.114 79.9961 224.305 79.8524C225.291 78.8761 226.408 78.4982 227.655 78.719L247.225 82.1312C247.347 82.1564 247.43 82.1455 247.473 82.0984C247.545 82.02 247.519 81.9229 247.393 81.8073L235.933 71.247C235.807 71.1314 235.694 71.1285 235.593 71.2383C235.405 71.4422 235.225 71.6534 235.053 71.8718C234.88 72.0902 234.73 72.3002 234.603 72.5017C234.329 72.8299 233.982 73.0177 233.561 73.0651C233.155 73.0968 232.795 72.9681 232.481 72.679C232.167 72.3899 232.01 72.0415 232.008 71.6339C232.005 71.1962 232.164 70.8349 232.485 70.5501C232.951 70.1385 233.352 69.7824 233.687 69.4819C234.006 69.1669 234.31 68.8525 234.599 68.5387C234.888 68.2249 235.177 67.8961 235.465 67.5522C235.751 67.1781 236.074 66.7498 236.431 66.2671Z" fill="#AD5015"/>
<path d="M262.471 43.5917C262.469 43.7065 262.498 43.7762 262.557 43.8008C262.597 43.8171 262.661 43.7744 262.749 43.6725C264.525 41.73 266.684 41.286 269.226 42.3404C270.428 42.8391 271.359 43.6294 272.019 44.7114C272.686 45.7738 273.051 47.0105 273.112 48.4217C273.162 49.805 272.881 51.2356 272.267 52.7135C271.475 54.6249 270.361 56.0568 268.927 57.0092C267.472 57.9535 265.875 58.2957 264.136 58.0358C263.894 58.005 263.681 57.9627 263.495 57.9089C263.29 57.8468 263.089 57.7749 262.892 57.6932C262.143 57.3826 261.6 56.9379 261.263 56.3591C260.934 55.7607 260.908 55.1265 261.186 54.4565C261.447 53.8259 261.855 53.429 262.407 53.2656C262.968 53.0826 263.505 53.0973 264.017 53.3099C264.372 53.457 264.68 53.6887 264.941 54.005C265.191 54.2935 265.327 54.6617 265.349 55.1096C265.343 55.2918 265.431 55.386 265.613 55.3923C267.404 55.419 268.814 54.191 269.844 51.7081C270.064 51.1761 270.228 50.5859 270.336 49.9375C270.431 49.2612 270.442 48.5958 270.367 47.9411C270.272 47.2783 270.068 46.6854 269.754 46.1624C269.42 45.6312 268.938 45.2348 268.307 44.9733C267.854 44.7853 267.39 44.6506 266.916 44.5693C266.421 44.4798 265.914 44.5348 265.392 44.7342C264.851 44.9254 264.289 45.3619 263.706 46.0439C263.131 46.7061 262.532 47.7048 261.908 49.04C261.758 49.3471 261.525 49.5739 261.21 49.7204C260.884 49.8391 260.563 49.833 260.248 49.7023C259.933 49.5715 259.716 49.3429 259.597 49.0165C259.459 48.682 259.445 48.353 259.556 48.0295C260.875 44.3499 260.361 42.0237 258.016 41.051C257.425 40.8058 256.77 40.742 256.052 40.8596C255.333 40.9772 254.644 41.3033 253.983 41.8376C253.323 42.372 252.784 43.1417 252.367 44.1466C251.444 46.3733 251.551 48.1734 252.691 49.5467C252.722 49.5828 252.757 49.609 252.797 49.6253C252.895 49.6662 252.995 49.6497 253.094 49.5757C253.414 49.3618 253.75 49.2472 254.103 49.2319C254.464 49.1969 254.802 49.2448 255.118 49.3755C255.61 49.5799 256 49.9493 256.286 50.4839C256.561 50.9905 256.568 51.5591 256.306 52.1897C256.036 52.84 255.583 53.2641 254.947 53.462C254.319 53.6402 253.64 53.5781 252.911 53.2756C252.753 53.2102 252.59 53.1309 252.421 53.0376C252.232 52.9362 252.051 52.815 251.878 52.6742C250.529 51.5834 249.676 50.1898 249.317 48.4936C248.966 46.7776 249.175 44.9935 249.943 43.1412C250.45 41.9195 251.089 40.9372 251.859 40.1942C252.609 39.4431 253.422 38.9027 254.298 38.5731C255.182 38.2238 256.04 38.0485 256.872 38.0472C257.704 38.0459 258.445 38.1801 259.095 38.4499C260.12 38.875 260.928 39.5449 261.518 40.4596C262.109 41.3744 262.426 42.4184 262.471 43.5917Z" fill="#AD5015"/>
<path d="M256.089 27.1529L256.879 22.971C257.323 20.6232 258.204 18.6621 259.522 17.0876C260.844 15.4921 262.481 14.3578 264.432 13.6845C266.362 13.0073 268.48 12.8867 270.786 13.3227C273.218 13.7825 275.223 14.6609 276.801 15.9581C278.359 17.2513 279.439 18.8885 280.041 20.8696C280.626 22.8257 280.681 25.0615 280.206 27.5769L279.415 31.7588C279.34 32.1571 279.283 32.5698 279.246 32.997C279.234 33.4072 279.223 33.8069 279.215 34.1961C279.173 34.6442 278.974 35.0082 278.617 35.2881C278.285 35.551 277.889 35.6389 277.428 35.5517C276.967 35.4645 276.621 35.2254 276.391 34.8345C276.161 34.4437 276.117 34.0446 276.259 33.6372L276.539 32.8435L276.551 32.7806C276.583 32.6129 276.515 32.5132 276.347 32.4815L258.645 29.1343C258.456 29.0987 258.342 29.1856 258.303 29.3953C258.313 29.5709 258.31 29.755 258.296 29.9476C258.285 30.1193 258.266 30.2785 258.238 30.4252C258.163 30.8235 257.961 31.1436 257.633 31.3855C257.288 31.6025 256.916 31.6734 256.518 31.5981C256.057 31.5109 255.711 31.2719 255.481 30.881C255.251 30.4901 255.207 30.091 255.35 29.6836C255.471 29.2723 255.604 28.8525 255.75 28.4242C255.897 27.9959 256.009 27.5721 256.089 27.1529ZM276.631 29.6041C276.819 29.6397 276.932 29.5632 276.967 29.3746L277.407 27.0478C277.538 26.3561 277.62 25.5791 277.653 24.7168C277.685 23.8546 277.611 22.983 277.431 22.102C277.229 21.2171 276.866 20.3779 276.343 19.5842C275.803 18.7656 275.047 18.0581 274.074 17.4617C273.084 16.8403 271.814 16.383 270.263 16.0897C269.215 15.8915 268.147 15.8525 267.061 15.9727C265.953 16.089 264.902 16.4222 263.908 16.9724C262.893 17.5187 262.012 18.3292 261.266 19.4039C260.524 20.4578 259.995 21.8232 259.678 23.5001L259.202 26.0155C259.166 26.2042 259.243 26.3164 259.432 26.352L276.631 29.6041Z" fill="#AD5015"/>
</svg>
