<svg width="1920" height="1274" viewBox="0 0 1920 1274" fill="none" xmlns="http://www.w3.org/2000/svg">
<path d="M1036.68 109.882C921.115 148.92 783.878 250.419 437.175 70.8438C316.182 8.17493 151.98 11.5728 0 45.2605V1065.5H1920V154.56C1830.45 137.053 1772.23 123.448 1744.53 109.882C1282.26 -116.54 1152.25 70.8437 1036.68 109.882Z" fill="#FF9894"/>
<path d="M883.318 1172.29C998.885 1136.15 1136.12 1042.2 1482.82 1208.42C1603.82 1266.43 1768.02 1263.29 1920 1232.11V700H0V1130.93C89.5529 1147.14 142.315 1157.26 175.466 1172.29C637.736 1381.87 767.75 1208.42 883.318 1172.29Z" fill="#FF9894"/>
</svg>
