<svg width="124" height="123" viewBox="0 0 124 123" fill="none" xmlns="http://www.w3.org/2000/svg">
<g clip-path="url(#clip0_150_165)">
<path d="M112.375 0H11.625C5.23125 0 0 5.18906 0 11.5312V111.469C0 117.811 5.23125 123 11.625 123H112.375C118.769 123 124 117.811 124 111.469V11.5312C124 5.18906 118.769 0 112.375 0ZM46.5 99.9375H31V46.125H46.5V99.9375ZM38.75 38.4375C36.6946 38.4375 34.7233 37.6276 33.2699 36.1859C31.8165 34.7442 31 32.7889 31 30.75C31 28.7111 31.8165 26.7558 33.2699 25.3141C34.7233 23.8724 36.6946 23.0625 38.75 23.0625C40.8054 23.0625 42.7767 23.8724 44.2301 25.3141C45.6835 26.7558 46.5 28.7111 46.5 30.75C46.5 32.7889 45.6835 34.7442 44.2301 36.1859C42.7767 37.6276 40.8054 38.4375 38.75 38.4375ZM100.75 99.9375H85.25V69.1875C85.25 67.1486 84.4335 65.1933 82.9801 63.7516C81.5267 62.3099 79.5554 61.5 77.5 61.5C75.4446 61.5 73.4733 62.3099 72.0199 63.7516C70.5665 65.1933 69.75 67.1486 69.75 69.1875V99.9375H54.25V46.125H69.75V55.6652C72.943 51.3141 77.841 46.125 83.3125 46.125C92.9535 46.125 100.75 54.7273 100.75 65.3438V99.9375Z" fill="#38585A"/>
</g>
<defs>
<clipPath id="clip0_150_165">
<rect width="124" height="123" fill="white"/>
</clipPath>
</defs>
</svg>
