<svg width="187" height="187" viewBox="0 0 187 187" fill="none" xmlns="http://www.w3.org/2000/svg">
<path d="M15.582 46.75C15.582 42.617 17.2238 38.6533 20.1463 35.7309C23.0687 32.8084 27.0324 31.1666 31.1654 31.1666H155.832C159.965 31.1666 163.929 32.8084 166.851 35.7309C169.774 38.6533 171.415 42.617 171.415 46.75V140.25C171.415 144.383 169.774 148.347 166.851 151.269C163.929 154.191 159.965 155.833 155.832 155.833H31.1654C27.0324 155.833 23.0687 154.191 20.1463 151.269C17.2238 148.347 15.582 144.383 15.582 140.25V46.75ZM43.0009 46.75L93.4987 90.9365L143.996 46.75H43.0009ZM155.832 57.1051L98.6334 107.159C97.2125 108.404 95.3878 109.09 93.4987 109.09C91.6096 109.09 89.7848 108.404 88.364 107.159L31.1654 57.1051V140.25H155.832V57.1051Z" fill="#38585A"/>
</svg>
