<svg width="3244" height="1647" viewBox="0 0 3244 1647" fill="none" xmlns="http://www.w3.org/2000/svg">
<g clip-path="url(#clip0_193_7)">
<rect width="3244" height="1647" fill="#FEF0E7"/>
<path d="M3244 -696V503H-371V443.102V-696H3244Z" fill="#F8C459"/>
<path d="M-42 1665H2255V189.021L1909.08 92L1472.07 189.021L1058.87 92L641.503 194.029L277.127 92L-42 121.419V1665Z" fill="#FF9894"/>
<path d="M-208 225C-78.3238 146.597 227.712 13.3122 414.446 107.396C647.863 225 740.257 158.528 818.063 132.962C895.869 107.396 983.4 -15.3219 1294.62 132.962C1356.67 162.522 1518.31 235.226 1756.59 107.396C1947.22 5.131 2228.29 143.188 2345 225" stroke="#F8C459" stroke-width="99" stroke-linecap="round"/>
<path d="M3919 1665H1622V189.021L1967.92 92L2404.93 189.021L2818.13 92L3235.5 194.029L3599.87 92L3919 121.419V1665Z" fill="#FF9894"/>
<path d="M4085 225C3955.32 146.597 3649.29 13.3122 3462.55 107.396C3229.14 225 3136.74 158.528 3058.94 132.962C2981.13 107.396 2893.6 -15.3219 2582.38 132.962C2520.33 162.522 2368.71 214.453 2120.41 107.396C1840 -13.5 1681.5 179 1526 179" stroke="#F8C459" stroke-width="99" stroke-linecap="round"/>
</g>
<defs>
<clipPath id="clip0_193_7">
<rect width="3244" height="1647" fill="white"/>
</clipPath>
</defs>
</svg>
