<svg width="296" height="148" viewBox="0 0 296 148" fill="none" xmlns="http://www.w3.org/2000/svg">
<path d="M147.654 147.654C229.201 147.654 295.308 81.5471 295.308 0H0C0 81.5471 66.107 147.654 147.654 147.654Z" fill="#FEF0E7"/>
<path d="M31.7987 53.9284C31.9311 54.3115 31.9116 54.6794 31.7401 55.0321C31.5887 55.3779 31.3114 55.6204 30.9082 55.7598C30.5049 55.8992 30.1199 55.863 29.7533 55.6512C29.3936 55.4595 29.1541 55.1586 29.0349 54.7483C28.9002 54.1629 28.7764 53.6414 28.6634 53.1839C28.5372 52.7535 28.4044 52.3367 28.265 51.9334C28.1326 51.5503 27.9796 51.1405 27.8061 50.7038C27.6194 50.2944 27.3948 49.8077 27.1321 49.2439C26.9726 48.8476 26.9751 48.4631 27.1396 48.0902C27.3042 47.7173 27.588 47.4611 27.9913 47.3217C28.3946 47.1824 28.776 47.2085 29.1357 47.4002C29.5156 47.5849 29.755 47.8858 29.8541 48.303C29.9106 48.5318 29.9706 48.7706 30.0341 49.0195C30.1045 49.2886 30.1715 49.5476 30.235 49.7965L30.2559 49.857C30.3047 49.9982 30.4097 50.0408 30.571 49.9851L45.8442 44.7055C45.9854 44.6567 46.042 44.592 46.0141 44.5113C46.0064 44.4237 45.9351 44.3806 45.8002 44.3821L29.2504 43.1283C28.879 43.0987 28.5437 42.9776 28.2445 42.765C27.9724 42.5656 27.7771 42.2945 27.6586 41.9518C27.5471 41.6292 27.5399 41.2818 27.637 40.9096C27.741 40.5577 27.9234 40.2689 28.184 40.0434L40.624 29.3102C40.738 29.2482 40.781 29.1769 40.7532 29.0962C40.7183 28.9954 40.6202 28.9729 40.4589 29.0286L25.1555 34.3187C24.9942 34.3745 24.9379 34.4729 24.9867 34.614C25.0773 34.8762 25.1745 35.1247 25.2783 35.3597C25.4092 35.6079 25.5266 35.8494 25.6304 36.0844C25.8101 36.4737 25.8076 36.8583 25.6229 37.2382C25.4584 37.6111 25.1745 37.8672 24.7713 38.0066C24.368 38.146 23.9865 38.1199 23.6268 37.9282C23.2671 37.7365 23.0277 37.4356 22.9085 37.0253C22.7738 36.4399 22.6499 35.9184 22.5369 35.4609C22.4107 35.0305 22.2779 34.6137 22.1385 34.2104C21.9991 33.8072 21.8462 33.3973 21.6797 32.9809C21.493 32.5714 21.2683 32.0847 21.0057 31.5209C20.8461 31.1247 20.8451 30.73 21.0027 30.3369C21.1673 29.9641 21.4511 29.7079 21.8544 29.5685C22.2577 29.4291 22.6256 29.4487 22.9581 29.6271C23.3108 29.7987 23.5534 30.0759 23.6858 30.459C23.7974 30.7816 23.8682 31.0845 23.8983 31.3675C23.968 31.5691 24.0936 31.6386 24.275 31.5758L41.4536 25.6376C41.6351 25.5748 41.6945 25.4527 41.6317 25.2713C41.5698 25.1573 41.5043 25.0332 41.4353 24.899C41.3865 24.7579 41.3343 24.6067 41.2785 24.4454C41.1461 24.0623 41.1656 23.6944 41.3371 23.3416C41.5086 22.9889 41.7859 22.7463 42.169 22.6139C42.5723 22.4745 42.9572 22.5107 43.3239 22.7226C43.6906 22.9344 43.9234 23.2489 44.0225 23.6661C44.1719 24.3594 44.303 24.9347 44.416 25.3923C44.5291 25.8498 44.6657 26.3104 44.826 26.7741C45.0281 27.3589 45.0481 27.9389 44.8858 28.5141C44.7304 29.1095 44.4154 29.6021 43.9407 29.992L31.73 40.4089C31.6299 40.5113 31.5903 40.5927 31.6113 40.6531C31.6461 40.754 31.7275 40.7935 31.8554 40.7719L48.0692 41.8371C48.6701 41.8777 49.2155 42.0842 49.7054 42.4566C50.1953 42.829 50.5378 43.2975 50.7329 43.862C50.9002 44.3459 51.0772 44.7926 51.2639 45.2021C51.4506 45.6116 51.6923 46.1149 51.989 46.712C52.1687 47.1013 52.1697 47.496 51.992 47.896C51.8344 48.2891 51.554 48.5553 51.1507 48.6947C50.7676 48.8271 50.3997 48.8076 50.047 48.6361C49.7145 48.4576 49.482 48.1768 49.3495 47.7937C49.3007 47.6526 49.262 47.508 49.2334 47.3599C49.2118 47.2319 49.1731 47.0873 49.1173 46.926L49.0964 46.8655C49.0476 46.7244 48.9425 46.6817 48.7812 46.7374L31.5724 52.6861C31.3909 52.7489 31.3351 52.881 31.4048 53.0827C31.5698 53.3642 31.7011 53.6461 31.7987 53.9284Z" fill="#AD5015"/>
<path d="M61.7432 64.4595C62.7357 65.7145 63.4176 67.0927 63.7889 68.5941C64.177 70.0823 64.2584 71.5954 64.0332 73.1334C63.8247 74.6581 63.3284 76.1113 62.5443 77.4929C61.7734 78.8912 60.7354 80.1065 59.4302 81.1386C58.1083 82.184 56.6781 82.9206 55.1397 83.3484C53.6146 83.7929 52.0778 83.9475 50.5293 83.8121C48.9975 83.6635 47.544 83.2355 46.1686 82.5281C44.81 81.8075 43.6345 80.8196 42.642 79.5646C41.6496 78.3096 40.9593 76.938 40.5712 75.4499C40.1998 73.9485 40.1184 72.4354 40.3269 70.9106C40.5522 69.3726 41.0502 67.9045 41.8211 66.5062C42.6052 65.1246 43.6582 63.9111 44.9801 62.8657C46.2853 61.8336 47.7005 61.0952 49.2256 60.6507C50.764 60.2229 52.299 60.0833 53.8308 60.2319C55.3793 60.3672 56.8329 60.7952 58.1915 61.5159C59.5669 62.2233 60.7508 63.2045 61.7432 64.4595ZM44.9261 77.7584C45.9715 79.0803 47.2074 80.0068 48.6337 80.538C50.0767 81.0559 51.5737 81.1776 53.1245 80.9031C54.7053 80.6322 56.1985 79.9409 57.6041 78.8294C59.0097 77.7179 60.0181 76.4308 60.6294 74.9683C61.254 73.5225 61.4656 72.0361 61.2643 70.509C61.093 68.9854 60.4913 67.571 59.4591 66.2658C58.4137 64.9439 57.1629 64.0156 55.7066 63.4809C54.2803 62.9498 52.7767 62.8197 51.1959 63.0907C49.6451 63.3651 48.1753 64.0515 46.7864 65.1498C45.3975 66.2481 44.3824 67.5268 43.7412 68.9858C43.1131 70.4616 42.8914 71.9696 43.076 73.5099C43.2772 75.037 43.894 76.4532 44.9261 77.7584Z" fill="#AD5015"/>
<path d="M92.5955 93.3666C92.9754 93.5654 93.2081 93.8716 93.2936 94.2852C93.3907 94.681 93.3221 95.0572 93.0877 95.4137C92.8649 95.7524 92.5615 95.9614 92.1774 96.0407C91.7933 96.12 91.4409 96.0542 91.12 95.8432C90.9953 95.7612 90.8674 95.6644 90.7366 95.5528C90.6235 95.4529 90.4926 95.3413 90.3439 95.218L90.2905 95.1828C90.1657 95.1008 90.0564 95.131 89.9626 95.2736L79.2902 111.503C79.0323 111.895 78.6818 112.137 78.2386 112.228C77.7837 112.338 77.3512 112.258 76.9413 111.988C76.3352 111.59 76.0239 111.015 76.0073 110.263L76.1003 89.7961C76.1054 89.6718 76.0813 89.5921 76.0278 89.5569C75.9387 89.4983 75.8472 89.5403 75.7534 89.6829L67.4194 102.356C67.3256 102.499 67.3411 102.611 67.4659 102.693C67.7155 102.857 67.953 103.001 68.1787 103.124C68.4338 103.24 68.6653 103.354 68.8731 103.465C69.253 103.664 69.4857 103.97 69.5712 104.384C69.6861 104.792 69.6264 105.174 69.392 105.53C69.1576 105.887 68.8305 106.093 68.4107 106.149C68.0088 106.216 67.6355 106.124 67.2907 105.872C66.8268 105.49 66.4104 105.152 66.0417 104.859C65.6792 104.595 65.3196 104.346 64.9631 104.111C64.6245 103.889 64.2532 103.657 63.8493 103.417C63.4516 103.207 62.9766 102.958 62.4246 102.672C62.0742 102.467 61.8415 102.161 61.7265 101.753C61.6293 101.357 61.698 100.981 61.9324 100.625C62.1668 100.268 62.4702 100.059 62.8426 99.9975C63.2267 99.9182 63.5792 99.984 63.9 100.195C64.0248 100.277 64.1437 100.368 64.2568 100.468C64.3876 100.58 64.5274 100.697 64.6761 100.82L64.7296 100.855C64.8544 100.937 64.9636 100.907 65.0574 100.765L75.009 85.6315C75.1262 85.4533 75.084 85.3234 74.8823 85.2418L74.2772 84.9971C73.8499 84.7927 73.5757 84.472 73.4546 84.0349C73.3453 83.58 73.4195 83.1564 73.6774 82.7643C73.9353 82.3722 74.2888 82.1451 74.7381 82.0831C75.2053 82.0328 75.6084 82.1575 75.9476 82.4571C76.1798 82.6864 76.4 82.8951 76.6083 83.0831C76.8461 83.265 77.0513 83.4383 77.2239 83.6029C78.3474 84.4182 78.9013 85.4591 78.8856 86.7254L78.6912 106.59C78.6861 106.714 78.7102 106.794 78.7637 106.829C78.8528 106.888 78.9443 106.846 79.038 106.703L87.6006 93.6821C87.6944 93.5395 87.6789 93.4271 87.5541 93.3451C87.3224 93.1927 87.0848 93.0492 86.8414 92.9147C86.598 92.7801 86.3665 92.6662 86.147 92.5729C85.7787 92.3563 85.5371 92.0442 85.4222 91.6367C85.325 91.2409 85.3936 90.8647 85.6281 90.5082C85.8625 90.1517 86.1807 89.9397 86.5826 89.8721C87.0141 89.7983 87.3963 89.8965 87.7294 90.1666C88.2111 90.56 88.6274 90.8976 88.9783 91.1794C89.3409 91.4434 89.7004 91.6926 90.0569 91.927C90.4134 92.1614 90.7847 92.3928 91.1707 92.6212C91.5863 92.8434 92.0612 93.0919 92.5955 93.3666Z" fill="#AD5015"/>
<path d="M118.594 110.487C118.518 110.887 118.29 111.197 117.912 111.417C117.534 111.638 117.13 111.683 116.701 111.554C116.272 111.424 115.961 111.163 115.767 110.771C115.594 110.384 115.576 110 115.714 109.618L116.541 107.428C116.597 107.244 116.543 107.127 116.38 107.078L111.906 105.729C111.723 105.674 111.603 105.738 111.548 105.922L106.365 123.11C106.316 123.273 106.363 123.376 106.506 123.419C106.751 123.493 106.989 123.554 107.219 123.601C107.477 123.634 107.711 123.671 107.921 123.713C108.342 123.795 108.652 124.022 108.852 124.394C109.058 124.746 109.099 125.126 108.976 125.535C108.859 125.923 108.618 126.206 108.251 126.386C107.885 126.565 107.501 126.583 107.099 126.439C106.525 126.199 106.068 126.017 105.727 125.892C105.406 125.773 105.136 125.669 104.918 125.581C104.693 125.513 104.448 125.439 104.183 125.359C103.897 125.273 103.641 125.196 103.417 125.128C103.186 125.081 102.904 125.018 102.571 124.94C102.258 124.868 101.797 124.774 101.186 124.656C100.792 124.56 100.481 124.333 100.255 123.975C100.049 123.623 100.005 123.253 100.122 122.865C100.245 122.456 100.49 122.162 100.856 121.983C101.248 121.79 101.632 121.772 102.008 121.93C102.206 122.012 102.415 122.097 102.633 122.185C102.852 122.273 103.07 122.361 103.289 122.449L103.35 122.468C103.493 122.511 103.589 122.451 103.638 122.287L108.821 105.1C108.876 104.916 108.812 104.796 108.628 104.741L104.124 103.383C103.961 103.334 103.852 103.401 103.796 103.585L103.275 105.867C103.199 106.268 102.972 106.578 102.593 106.798C102.215 107.018 101.811 107.064 101.382 106.935C100.954 106.805 100.642 106.544 100.449 106.152C100.276 105.765 100.258 105.381 100.395 104.999C100.578 104.542 100.772 104.043 100.98 103.504C101.187 102.965 101.384 102.423 101.57 101.877C101.784 101.318 102.143 100.903 102.648 100.632C103.173 100.367 103.712 100.317 104.263 100.484L117.897 104.595C118.428 104.755 118.839 105.09 119.131 105.602C119.422 106.113 119.492 106.658 119.34 107.236C119.215 107.799 119.089 108.363 118.964 108.927C118.838 109.491 118.715 110.011 118.594 110.487Z" fill="#AD5015"/>
<path d="M150.861 129.556C151.267 129.56 151.606 129.703 151.881 129.983C152.155 130.242 152.29 130.585 152.285 131.012C152.281 131.438 152.117 131.788 151.794 132.062C151.492 132.336 151.128 132.46 150.702 132.434C149.487 132.293 148.517 132.218 147.792 132.21C147.003 132.202 146.031 132.255 144.878 132.371C144.451 132.387 144.09 132.255 143.794 131.975C143.499 131.694 143.353 131.341 143.358 130.914C143.363 130.487 143.494 130.147 143.753 129.894C144.033 129.62 144.376 129.485 144.782 129.489C144.974 129.492 145.176 129.504 145.389 129.528C145.624 129.552 145.847 129.586 146.06 129.631C146.316 129.634 146.392 129.528 146.288 129.314L144.82 125.938C144.758 125.788 144.652 125.712 144.503 125.71L133.432 125.589C133.304 125.588 133.196 125.661 133.109 125.81L131.568 129.153C131.547 129.195 131.536 129.238 131.535 129.281C131.534 129.409 131.618 129.474 131.789 129.475C132.024 129.435 132.248 129.406 132.462 129.387C132.676 129.368 132.878 129.359 133.07 129.361C133.476 129.366 133.805 129.508 134.058 129.788C134.332 130.047 134.467 130.39 134.462 130.817C134.458 131.243 134.305 131.594 134.003 131.868C133.701 132.142 133.337 132.266 132.911 132.24C131.675 132.098 130.705 132.024 130.001 132.016C129.19 132.007 128.219 132.061 127.087 132.176C126.66 132.193 126.288 132.061 125.971 131.78C125.676 131.499 125.53 131.146 125.535 130.719C125.54 130.293 125.682 129.953 125.962 129.7C126.242 129.425 126.585 129.291 126.991 129.295C127.204 129.297 127.406 129.31 127.598 129.334C127.79 129.357 127.982 129.381 128.174 129.404L128.238 129.405C128.344 129.406 128.441 129.343 128.528 129.216L138.033 108.678C138.251 108.19 138.627 107.949 139.161 107.955C139.673 107.96 140.032 108.21 140.24 108.703L149.358 129.443C149.442 129.572 149.538 129.637 149.644 129.639C149.858 129.641 150.06 129.632 150.253 129.613C150.466 129.573 150.669 129.554 150.861 129.556ZM139.294 113.268C139.275 113.14 139.211 113.076 139.105 113.074C139.041 113.074 138.976 113.137 138.911 113.264L134.617 122.562C134.595 122.604 134.584 122.647 134.583 122.69C134.582 122.839 134.666 122.914 134.837 122.916L143.156 123.007C143.412 123.01 143.488 122.894 143.384 122.658L139.294 113.268Z" fill="#AD5015"/>
<path d="M183.939 115.011C184.129 115.622 183.987 116.135 183.513 116.551C183.369 116.662 183.319 116.789 183.364 116.932L185.681 124.388C185.795 124.755 185.751 125.115 185.548 125.469C185.365 125.816 185.09 126.046 184.724 126.16C184.357 126.274 184 126.24 183.653 126.057C183.306 125.875 183.075 125.6 182.961 125.234L182.524 123.828C182.486 123.706 182.434 123.644 182.366 123.642C182.293 123.621 182.221 123.677 182.15 123.81C181.637 124.819 180.919 125.779 179.996 126.691C179.067 127.583 177.869 128.257 176.402 128.713C174.752 129.226 173.18 129.379 171.687 129.173C170.187 128.947 168.81 128.436 167.558 127.642C166.326 126.84 165.25 125.823 164.331 124.59C163.432 123.35 162.745 121.966 162.27 120.438C161.7 118.605 161.509 116.877 161.698 115.255C161.88 113.612 162.345 112.127 163.094 110.799C163.837 109.452 164.788 108.307 165.948 107.366C167.107 106.425 168.38 105.739 169.765 105.308C170.845 104.973 171.968 104.813 173.135 104.831C174.302 104.848 175.445 105.073 176.563 105.508C177.955 106.036 178.797 106.768 179.089 107.705C179.279 108.316 179.223 108.892 178.922 109.432C178.635 109.946 178.216 110.289 177.666 110.459C177.055 110.649 176.489 110.591 175.969 110.283C175.47 109.969 175.137 109.547 174.973 109.018C174.897 108.773 174.869 108.503 174.888 108.206C174.896 108.159 174.887 108.095 174.862 108.014C174.836 107.932 174.774 107.873 174.673 107.838C173.962 107.634 173.242 107.545 172.512 107.571C171.804 107.59 171.113 107.704 170.441 107.913C169.443 108.223 168.528 108.731 167.697 109.436C166.86 110.121 166.175 110.97 165.641 111.985C165.107 113 164.784 114.15 164.67 115.437C164.57 116.697 164.748 118.06 165.204 119.527C165.762 121.252 166.566 122.689 167.615 123.837C168.679 124.959 169.901 125.729 171.283 126.149C172.658 126.548 174.079 126.52 175.546 126.064C178.683 125.089 180.535 122.927 181.103 119.578C181.126 119.437 181.122 119.315 181.09 119.214L180.606 117.655C180.549 117.472 180.429 117.409 180.246 117.466C179.791 117.584 179.336 117.737 178.88 117.923C178.438 118.083 177.914 118.302 177.308 118.58C176.927 118.72 176.543 118.706 176.155 118.536C175.787 118.36 175.54 118.068 175.414 117.66C175.287 117.253 175.325 116.872 175.528 116.519C175.745 116.139 176.053 115.909 176.453 115.829C177.063 115.707 177.588 115.6 178.028 115.507C178.483 115.388 178.904 115.269 179.291 115.149C179.698 115.022 180.123 114.879 180.565 114.719C181 114.539 181.494 114.33 182.045 114.091C182.44 113.924 182.824 113.939 183.198 114.135C183.566 114.311 183.813 114.603 183.939 115.011Z" fill="#AD5015"/>
<path d="M213.512 104.474C213.88 104.219 214.278 104.138 214.706 104.231C215.121 104.307 215.433 104.532 215.641 104.908L217.013 107.227C217.335 107.73 217.436 108.27 217.316 108.846C217.196 109.422 216.899 109.874 216.426 110.202L207.111 116.649C206.796 116.868 206.481 117.125 206.166 117.42C205.869 117.704 205.575 117.972 205.284 118.226C204.952 118.533 204.561 118.662 204.11 118.61C203.659 118.559 203.3 118.34 203.033 117.954C202.766 117.569 202.694 117.164 202.817 116.742C202.927 116.302 203.185 115.981 203.59 115.779C203.655 115.76 203.722 115.726 203.792 115.678C203.863 115.629 203.948 115.583 204.047 115.54L204.1 115.504C204.24 115.406 204.262 115.288 204.165 115.147L193.929 100.36C193.82 100.203 193.695 100.172 193.555 100.269C193.485 100.318 193.418 100.39 193.354 100.486C193.296 100.552 193.23 100.624 193.154 100.702C192.822 101.01 192.437 101.147 191.998 101.113C191.548 101.062 191.189 100.843 190.922 100.457C190.655 100.071 190.576 99.6585 190.687 99.2187C190.798 98.7788 191.055 98.4577 191.46 98.2554C191.835 98.0476 192.225 97.8426 192.63 97.6402C193.035 97.4379 193.404 97.2213 193.737 96.9906L202.894 90.6526C203.367 90.3247 203.895 90.206 204.476 90.2965C205.058 90.3869 205.527 90.6716 205.885 91.1507L207.572 93.2515C207.838 93.5605 207.939 93.9316 207.876 94.3647C207.813 94.7978 207.597 95.1418 207.228 95.3968C206.877 95.6396 206.5 95.732 206.097 95.674C205.699 95.5863 205.385 95.3758 205.154 95.0425C205.008 94.832 204.859 94.5979 204.707 94.3402C204.56 94.0528 204.41 93.7802 204.257 93.5225C204.148 93.3646 204.015 93.3403 203.857 93.4496L196.516 98.531C196.358 98.6403 196.334 98.7738 196.443 98.9317L200.195 104.352C200.304 104.51 200.438 104.534 200.595 104.425L207.042 99.9626C207.357 99.7441 207.708 99.6699 208.094 99.7401C208.48 99.8102 208.782 100.003 209.001 100.319C209.219 100.635 209.294 100.985 209.223 101.371C209.141 101.74 208.942 102.033 208.626 102.252L202.18 106.714C202.022 106.823 201.998 106.957 202.107 107.115L206.405 113.324C206.515 113.482 206.648 113.506 206.806 113.397L214.147 108.316C214.305 108.206 214.329 108.073 214.22 107.915C214.02 107.664 213.824 107.437 213.631 107.233C213.443 106.999 213.271 106.769 213.113 106.541C212.882 106.207 212.802 105.848 212.872 105.462C212.948 105.046 213.161 104.717 213.512 104.474Z" fill="#AD5015"/>
<path d="M243.957 62.5652C243.944 62.6794 243.966 62.7515 244.023 62.7816C244.06 62.8016 244.128 62.7652 244.226 62.6723C246.18 60.9092 248.371 60.6743 250.8 61.9678C251.949 62.5795 252.8 63.4555 253.353 64.5958C253.916 65.7174 254.16 66.9834 254.085 68.394C254.002 69.7757 253.585 71.1726 252.833 72.5849C251.86 74.4114 250.614 75.7298 249.095 76.5402C247.557 77.3406 245.934 77.528 244.228 77.1024C243.99 77.0486 243.782 76.986 243.602 76.9146C243.404 76.8331 243.211 76.7423 243.023 76.642C242.307 76.261 241.809 75.7662 241.529 75.1578C241.259 74.5305 241.294 73.8968 241.635 73.2565C241.956 72.654 242.399 72.2979 242.965 72.1884C243.541 72.06 244.074 72.1262 244.563 72.3869C244.902 72.5674 245.187 72.8276 245.417 73.1675C245.638 73.4786 245.738 73.8581 245.717 74.3062C245.693 74.4869 245.771 74.5891 245.952 74.6128C247.732 74.8112 249.253 73.7241 250.517 71.3515C250.787 70.8431 251.007 70.2714 251.176 69.6363C251.336 68.9724 251.411 68.311 251.399 67.6522C251.368 66.9833 251.222 66.3735 250.959 65.8228C250.678 65.262 250.236 64.8212 249.633 64.5003C249.2 64.2697 248.751 64.0912 248.287 63.9647C247.804 63.8283 247.293 63.8342 246.755 63.9827C246.198 64.1211 245.596 64.5017 244.95 65.1245C244.314 65.7285 243.622 66.6651 242.874 67.9343C242.695 68.2256 242.441 68.429 242.114 68.5447C241.778 68.6315 241.459 68.5947 241.157 68.4343C240.856 68.2738 240.662 68.0255 240.575 67.6892C240.47 67.3429 240.488 67.0141 240.629 66.7028C242.295 63.1667 242.007 60.802 239.766 59.6088C239.202 59.308 238.556 59.1817 237.829 59.2298C237.103 59.278 236.385 59.5363 235.676 60.0048C234.968 60.4734 234.358 61.1878 233.846 62.1481C232.713 64.2759 232.648 66.078 233.65 67.5544C233.678 67.5933 233.71 67.6227 233.748 67.6428C233.842 67.6929 233.943 67.686 234.049 67.6219C234.388 67.4397 234.734 67.3579 235.086 67.3765C235.449 67.3763 235.781 67.4564 236.082 67.6168C236.553 67.8675 236.905 68.2726 237.139 68.8321C237.364 69.3628 237.316 69.9294 236.995 70.532C236.664 71.1534 236.172 71.5321 235.52 71.668C234.878 71.7851 234.208 71.6582 233.511 71.2872C233.361 71.207 233.206 71.1123 233.046 71.0032C232.868 70.8841 232.7 70.7462 232.541 70.5894C231.303 69.3742 230.587 67.9052 230.393 66.1823C230.208 64.4407 230.588 62.6848 231.53 60.9148C232.152 59.7473 232.882 58.8308 233.719 58.1652C234.538 57.4895 235.4 57.0296 236.303 56.7856C237.216 56.5227 238.087 56.4306 238.915 56.5091C239.744 56.5876 240.469 56.7923 241.09 57.1232C242.069 57.6447 242.809 58.389 243.309 59.3562C243.809 60.3234 244.025 61.393 243.957 62.5652Z" fill="#AD5015"/>
<path d="M242.295 40.1841L243.111 36.0072C243.57 33.6623 244.463 31.7067 245.791 30.1404C247.123 28.5532 248.767 27.4291 250.722 26.768C252.656 26.1029 254.775 25.9955 257.078 26.4458C259.507 26.9207 261.506 27.8117 263.076 29.1187C264.626 30.4216 265.696 32.0654 266.286 34.0502C266.859 36.01 266.9 38.2461 266.409 40.7585L265.592 44.9354C265.514 45.3332 265.455 45.7456 265.415 46.1725C265.4 46.5826 265.387 46.9822 265.376 47.3713C265.332 47.8192 265.131 48.182 264.772 48.4596C264.439 48.7205 264.041 48.8058 263.581 48.7158C263.12 48.6257 262.776 48.3845 262.549 47.9922C262.321 47.5999 262.279 47.2005 262.424 46.7941L262.709 46.0021L262.722 45.9393C262.755 45.7718 262.687 45.6717 262.52 45.6389L244.839 42.1815C244.65 42.1446 244.535 42.2309 244.494 42.4402C244.504 42.6159 244.5 42.8 244.484 42.9925C244.472 43.1641 244.452 43.3232 244.424 43.4698C244.346 43.8676 244.142 44.1864 243.813 44.4263C243.466 44.6412 243.094 44.7097 242.696 44.6319C242.236 44.5418 241.892 44.3007 241.664 43.9084C241.436 43.516 241.395 43.1167 241.54 42.7102C241.663 42.2997 241.8 41.8807 241.949 41.4533C242.097 41.0259 242.213 40.6029 242.295 40.1841ZM262.821 42.7633C263.01 42.8002 263.122 42.7244 263.159 42.5359L263.613 40.212C263.749 39.521 263.835 38.7446 263.873 37.8825C263.911 37.0205 263.843 36.1485 263.668 35.2664C263.471 34.3803 263.114 33.5388 262.596 32.7419C262.061 31.9199 261.309 31.2077 260.34 30.6052C259.354 29.9777 258.087 29.5124 256.537 29.2095C255.491 29.0048 254.424 28.9591 253.336 29.0726C252.228 29.1819 251.175 29.5086 250.177 30.0526C249.159 30.5925 248.273 31.3975 247.521 32.4676C246.772 33.5168 246.234 34.8788 245.906 36.5538L245.415 39.0662C245.378 39.2546 245.454 39.3673 245.642 39.4041L262.821 42.7633Z" fill="#AD5015"/>
</svg>
