<svg width="116" height="117" viewBox="0 0 116 117" fill="none" xmlns="http://www.w3.org/2000/svg">
<path d="M105.125 32.0946V84.9054C105.123 90.5078 102.916 95.8801 98.9882 99.8415C95.0606 103.803 89.7342 106.029 84.1798 106.031H31.8275C26.2718 106.031 20.9436 103.806 17.0144 99.8441C13.0853 95.8824 10.8769 90.509 10.875 84.9054V32.1019C10.875 26.4983 13.0815 21.1241 17.0093 17.1611C20.9371 13.1981 26.2646 10.9707 31.8202 10.9688H84.1798C89.7342 10.9707 95.0606 13.1971 98.9882 17.1585C102.916 21.1199 105.123 26.4922 105.125 32.0946Z" stroke="#B0551C" stroke-width="10" stroke-linecap="round" stroke-linejoin="round"/>
<path d="M68.8677 63.3774V57.6956C68.8677 54.6812 70.0125 51.7901 72.0504 49.6578C74.0883 47.5256 76.8525 46.3267 79.7355 46.3247C82.6197 46.3247 85.3858 47.5227 87.4253 49.6551C89.4647 51.7876 90.6105 54.6798 90.6105 57.6956V63.3774H68.8677ZM68.8677 63.3774V69.0665C68.8677 72.081 70.0125 74.9721 72.0504 77.1043C74.0883 79.2366 76.8525 80.4355 79.7355 80.4375H87.8917M25.375 80.4375L31.4867 63.3774M58 80.4375L51.8882 63.3774M31.5012 63.3774L41.6875 34.9537L51.881 63.3847H31.494" stroke="#B0551C" stroke-width="10" stroke-linecap="round" stroke-linejoin="round"/>
</svg>
