<svg width="109" height="110" viewBox="0 0 109 110" fill="none" xmlns="http://www.w3.org/2000/svg">
<g clip-path="url(#clip0_187_358)">
<path d="M80.0287 0L27.1455 0.0183331C20.9235 0.0183331 14.6287 1.59956 10.0598 5.10576C6.85651 7.45487 4.33234 10.624 2.74771 14.286C1.05821 18.0122 0 23.008 0 27.275L0.0545 83.1909C0.0635833 90.5424 2.22996 97.2019 6.68987 102.037C11.1589 106.877 17.8715 109.751 26.3598 109.788L76.5543 109.998C82.2768 110.021 90.6108 109.833 96.0971 106.726C100.979 103.953 105.294 99.5944 107.438 93.0495C108.7 89.1996 109.004 83.498 109 78.626L108.905 27.6142C108.895 23.5442 108.223 18.3422 106.42 14.1669C104.49 9.69361 101.057 5.84825 95.8745 3.05246C92.4365 1.19165 86.8457 0 80.0287 0ZM80.0287 4.26244C86.2871 4.26244 91.5554 5.6145 93.8353 6.85199C98.2725 9.24903 100.848 12.1961 102.415 15.8352C103.845 19.1397 104.549 24.053 104.563 27.6234L104.644 78.6351C104.654 83.278 104.204 88.9796 103.291 91.7433C101.493 97.2524 98.0863 100.662 93.9216 103.027C90.2247 105.122 82.0588 105.745 76.5725 105.722L26.3871 105.521C18.8615 105.488 13.5251 103.073 9.919 99.1682C6.322 95.2678 4.4145 89.7266 4.4145 83.1955L4.53712 27.2704C4.53712 23.4709 5.42729 18.8968 6.68987 16.101C8.25675 12.6315 10.0961 10.569 12.8892 8.42863C16.2819 5.82075 22.1088 4.44577 27.6133 4.44577L80.0287 4.26244ZM54.3229 19.951C45.3485 20.3589 39.7714 27.55 39.7259 35.0299C39.8122 41.6436 47.1516 50.9843 52.8241 55.7921C53.3691 56.2459 53.5235 56.2917 54.3229 56.6171C54.6044 56.7317 55.2221 56.4017 55.808 55.9984C57.443 54.8755 60.3178 51.658 63.2926 48.0326C65.1749 45.6748 66.7486 43.0823 67.9751 40.319C69.8326 36.2399 69.1605 32.9904 69.0424 31.6658C68.2042 28.7445 66.6591 26.0795 64.5461 23.9109C61.7412 21.36 58.0987 19.9491 54.3229 19.951ZM73.2707 56.2596C68.2418 56.3781 63.2656 57.3224 58.5375 59.0554C57.8563 59.3212 57.3567 59.5137 56.8389 59.8346C56.5801 59.9996 56.3393 60.4533 56.3621 61.1729C56.4393 63.1574 57.6791 67.0303 59.1961 71.5769C60.9401 76.7789 64.0375 81.9809 67.5709 84.135C69.2801 85.1705 71.1805 85.8436 73.1561 86.1131C75.1317 86.3826 77.141 86.2429 79.0613 85.7025C82.84 84.5888 86.3053 81.7242 87.972 78.6168C92.4501 70.2844 88.835 62.3554 82.8808 58.3725C80.8507 57.0159 77.7351 56.3329 74.2971 56.2642L73.2707 56.2596ZM34.9754 56.4338C33.8336 56.4333 32.6929 56.5052 31.56 56.6492C28.8532 57.0067 27.3272 57.9004 25.7013 58.9867C22.5383 61.075 20.3126 64.3313 19.5019 68.0569C19.1613 70.5869 19.1113 72.8831 19.6518 74.9639C21.6183 81.3301 25.674 85.1479 32.5819 86.2021C35.4704 86.3304 38.804 85.9134 41.6198 84.1396C47.3832 80.5555 51.0665 69.6107 52.5743 62.4058C52.815 61.5991 52.7333 60.7695 52.5153 60.4808C52.4926 60.1737 52.3154 59.9629 51.6524 59.6421C49.8448 58.7621 45.6574 57.7308 40.8659 56.8921C38.9187 56.5719 36.9482 56.4186 34.9754 56.4338Z" fill="#B0551C"/>
</g>
<defs>
<clipPath id="clip0_187_358">
<rect width="109" height="110" fill="white"/>
</clipPath>
</defs>
</svg>
