<svg width="108" height="108" viewBox="0 0 108 108" fill="none" xmlns="http://www.w3.org/2000/svg">
<g clip-path="url(#clip0_187_360)">
<path d="M38.8789 108C48.8149 108 56.8789 99.9361 56.8789 90.0001V72.0001H38.8789C28.9429 72.0001 20.8789 80.0641 20.8789 90.0001C20.8789 99.9361 28.9429 108 38.8789 108Z" fill="#92491B"/>
<path d="M20.8789 53.9999C20.8789 44.0639 28.9429 35.9999 38.8789 35.9999H56.8789V71.9999H38.8789C28.9429 71.9999 20.8789 63.9359 20.8789 53.9999Z" fill="#D27439"/>
<path d="M20.8789 18C20.8789 8.064 28.9429 0 38.8789 0H56.8789V36H38.8789C28.9429 36 20.8789 27.936 20.8789 18Z" fill="#92491B"/>
<path d="M56.8789 0H74.8789C84.8149 0 92.8789 8.064 92.8789 18C92.8789 27.936 84.8149 36 74.8789 36H56.8789V0Z" fill="#D27439"/>
<path d="M92.8789 53.9999C92.8789 63.9359 84.8149 71.9999 74.8789 71.9999C64.9429 71.9999 56.8789 63.9359 56.8789 53.9999C56.8789 44.0639 64.9429 35.9999 74.8789 35.9999C84.8149 35.9999 92.8789 44.0639 92.8789 53.9999Z" fill="#92491B"/>
</g>
<defs>
<clipPath id="clip0_187_360">
<rect width="108" height="108" fill="white"/>
</clipPath>
</defs>
</svg>
