<svg width="117" height="118" viewBox="0 0 117 118" fill="none" xmlns="http://www.w3.org/2000/svg">
<path d="M80.4375 59V81.125M80.4375 44.1984V44.25M106.031 32.3689V85.6311C106.029 91.2813 103.803 96.6996 99.8415 100.695C95.8801 104.69 90.5078 106.936 84.9054 106.938H32.1019C26.4983 106.938 21.1241 104.693 17.1611 100.697C13.1981 96.7019 10.9707 91.2826 10.9688 85.6311V32.3762C10.9687 26.7248 13.1943 21.3047 17.1559 17.3078C21.1176 13.3109 26.491 11.0645 32.0946 11.0625H84.9054C90.5078 11.0645 95.8801 13.3099 99.8415 17.3052C103.803 21.3004 106.029 26.7187 106.031 32.3689Z" stroke="#B0551C" stroke-width="10" stroke-linecap="round" stroke-linejoin="round"/>
<path d="M32.9062 81.125L39.078 64.5312M39.078 64.5312L49.3594 36.875L59.6408 64.5312M39.078 64.5312H59.6408M65.8125 81.125L59.6408 64.5312" stroke="#B0551C" stroke-width="10" stroke-linecap="round" stroke-linejoin="round"/>
</svg>
