<svg width="117" height="117" viewBox="0 0 117 117" fill="none" xmlns="http://www.w3.org/2000/svg">
<path d="M106.031 32.0946V84.9054C106.029 90.5078 103.803 95.8801 99.8415 99.8415C95.8801 103.803 90.5078 106.029 84.9054 106.031H32.1019C26.4983 106.031 21.1241 103.806 17.1611 99.8441C13.1981 95.8824 10.9707 90.509 10.9688 84.9054V32.1019C10.9687 26.4983 13.1943 21.1241 17.1559 17.1611C21.1176 13.1981 26.491 10.9707 32.0946 10.9688H84.9054C90.5078 10.9707 95.8801 13.1971 99.8415 17.1585C103.803 21.1199 106.029 26.4922 106.031 32.0946Z" stroke="#B0551C" stroke-width="10" stroke-linecap="round" stroke-linejoin="round"/>
<path d="M32.9062 80.4375V58.5M32.9062 58.5V36.5625H43.1438C44.4882 36.5625 45.8194 36.8462 47.0615 37.3974C48.3035 37.9487 49.4321 38.7566 50.3828 39.7752C51.3334 40.7937 52.0875 42.0029 52.602 43.3337C53.1164 44.6645 53.3813 46.0908 53.3813 47.5312C53.3813 48.9717 53.1164 50.398 52.602 51.7288C52.0875 53.0596 51.3334 54.2688 50.3828 55.2873C49.4321 56.3059 48.3035 57.1138 47.0615 57.6651C45.8194 58.2163 44.4882 58.5 43.1438 58.5H32.9062ZM84.0938 53.0156C82.5289 49.6519 79.3187 47.5312 75.8087 47.5312H73.8563C72.8479 47.5312 71.8495 47.744 70.918 48.1575C69.9864 48.5709 69.14 49.1768 68.427 49.9408C67.714 50.7047 67.1485 51.6116 66.7626 52.6096C66.3767 53.6077 66.1781 54.6775 66.1781 55.7578C66.1781 56.8381 66.3767 57.9079 66.7626 58.906C67.1485 59.9041 67.714 60.811 68.427 61.5749C69.14 62.3388 69.9864 62.9447 70.918 63.3582C71.8495 63.7716 72.8479 63.9844 73.8563 63.9844H76.4156C77.4239 63.9844 78.4224 64.1972 79.3539 64.6106C80.2855 65.024 81.1319 65.63 81.8449 66.3939C82.5579 67.1578 83.1234 68.0647 83.5093 69.0628C83.8951 70.0609 84.0938 71.1306 84.0938 72.2109C84.0938 73.2913 83.8951 74.361 83.5093 75.3591C83.1234 76.3572 82.5579 77.2641 81.8449 78.028C81.1319 78.7919 80.2855 79.3979 79.3539 79.8113C78.4224 80.2247 77.4239 80.4375 76.4156 80.4375H74.4632C72.7432 80.4385 71.057 79.926 69.5936 78.9573C68.1302 77.9885 66.9475 76.602 66.1781 74.9531" stroke="#B0551C" stroke-width="10" stroke-linecap="round" stroke-linejoin="round"/>
</svg>
