<svg width="109" height="109" viewBox="0 0 109 109" fill="none" xmlns="http://www.w3.org/2000/svg">
<path fill-rule="evenodd" clip-rule="evenodd" d="M0 47.7439C0 48.3532 0.179708 48.7554 0.280413 49.1462C0.936736 51.6883 2.34748 53.8699 4.02128 55.8598C6.40523 58.6958 9.32482 60.9787 12.3156 63.1256C14.9096 64.9873 17.5566 66.8074 20.1611 68.6552C20.6082 68.9724 21.031 69.3373 21.5163 69.7265C21.0987 69.9518 20.7514 70.1503 20.3903 70.3332C16.9533 72.0736 13.6465 74.0246 10.5984 76.3881C8.76139 77.813 6.98515 79.3271 5.73067 81.3059C3.71222 84.4884 2.99773 87.8791 4.50224 91.4993C4.94152 92.5567 5.61174 93.4703 6.55715 94.1454C6.86361 94.3639 7.2074 94.5805 7.56595 94.6655C8.48445 94.8813 9.42032 95.0226 10.3501 95.1933L12.9832 95.1916C15.895 94.9324 18.5455 93.9366 20.9407 92.2863C24.6842 89.707 27.2062 86.2488 28.2905 81.8103C29.0788 78.5844 29.1109 75.355 28.182 72.1438C28.0927 71.8464 27.9902 71.5531 27.8746 71.2649C27.7618 70.9763 27.6289 70.6955 27.4727 70.3358L33.4421 66.9088L33.5315 66.9851C33.423 67.3396 33.3075 67.6932 33.2094 68.0511C32.5001 70.6374 32.0287 73.2688 32.198 75.953C32.3786 78.8132 33.1782 81.4905 34.8554 83.88C36.2115 85.8128 39.4428 85.8847 40.8839 83.945C41.3952 83.256 41.891 82.5357 42.2634 81.767C43.2366 79.7605 44.1377 77.7185 45.0675 75.6904L45.2299 75.3194C45.163 76.2798 45.0849 77.1231 45.0493 77.9673C44.9937 79.2855 45.071 80.596 45.5224 81.8502C45.9088 82.9232 46.566 83.7249 47.797 83.8661C48.6391 83.9624 49.3102 83.5775 49.9292 83.0896C50.8879 82.3327 51.6826 81.3895 52.2654 80.3169C53.9157 77.2912 55.6104 74.2837 57.1062 71.1817C58.7244 67.8266 60.1395 64.3736 61.6423 60.9614L61.8906 60.3564C62.2457 61.7492 62.4931 63.1134 62.9489 64.4048C63.4784 65.9034 64.1339 67.3664 64.8475 68.7887C65.1852 69.4604 65.1461 69.8964 64.6782 70.4597C62.7197 72.8172 60.795 75.2033 58.8685 77.5868C58.4423 78.1129 58.0177 78.6485 57.6627 79.2231C57.4472 79.586 57.3056 79.9877 57.246 80.4053C57.1862 80.7898 57.2779 81.1824 57.5017 81.5009C57.7255 81.8194 58.0642 82.0389 58.4466 82.1136C59.2185 82.2792 60.0099 82.3355 60.7976 82.2809C63.4862 82.0833 65.9275 81.1412 68.0857 79.5447C70.882 77.4767 71.7797 74.6547 71.1025 71.31C70.9194 70.4025 70.5955 69.5202 70.2804 68.6457C70.1389 68.2513 70.1293 67.9748 70.3872 67.6074C72.6227 64.4204 74.5326 61.0394 76.3088 57.5803C76.3792 57.4442 76.4512 57.3081 76.5745 57.1625C77.1501 60.1527 78.0165 63.0346 79.5688 65.6494C78.777 66.4113 77.9931 67.1021 77.2838 67.863C75.722 69.5393 74.3677 71.3594 73.661 73.5791C73.3571 74.5359 73.1236 75.5084 73.259 76.5302C73.4691 78.1172 74.7714 79.1486 76.3349 78.7872C79.6808 78.0141 82.5691 76.4401 84.6796 73.6519C86.0999 71.7745 86.2292 69.6806 85.6345 67.4869C85.4713 66.8906 85.2777 66.3038 85.0694 65.62C85.895 65.3643 86.6998 65.0575 87.5323 64.8677C91.8549 63.8831 96.1305 64.0547 100.296 65.613C102.728 66.5231 104.692 68.0459 105.857 70.4415C107.28 73.3702 106.494 76.1489 103.729 78.0002C103.471 78.1727 103.176 78.3087 102.962 78.5246C102.894 78.6037 102.843 78.6963 102.812 78.7962C102.781 78.8962 102.772 79.0014 102.784 79.1053C102.802 79.2119 103.084 79.3453 103.247 79.3436C104.156 79.3367 104.893 78.8608 105.6 78.372C107.373 77.1473 108.667 75.4997 108.945 73.3303L109 73.1674L108.933 71.7546C108.906 71.6731 108.953 71.5925 108.947 71.531C108.57 68.3718 106.88 65.9216 104.421 64.0009C101.574 61.7778 98.2115 60.8626 94.6555 60.7178C91.7715 60.5939 88.8912 61.0365 86.178 62.0205C85.3993 62.3022 84.6275 62.6359 83.8444 62.9505C83.7394 62.7607 83.6265 62.5787 83.5336 62.3906C82.7297 60.7473 81.7556 59.1768 81.5403 57.2925C81.3875 55.9543 81.2 54.6178 81.5186 53.2944C81.8251 52.0212 82.2244 50.7696 82.6003 49.5137C82.7939 48.8672 82.6577 48.5049 82.0395 48.2137C81.8235 48.108 81.5939 48.0328 81.3572 47.99C79.8379 47.7699 78.3395 47.8956 76.8679 48.3229C76.3471 48.4745 75.9685 48.7658 75.8531 49.3413C75.7871 49.6715 75.6525 49.9878 75.5588 50.3137C75.1742 51.6684 74.9016 53.0491 74.28 54.3396C72.7225 57.5768 70.9445 60.6918 69.1249 63.7843C68.9278 64.118 68.7203 64.4456 68.472 64.8503C67.8331 63.5156 67.1516 62.3178 66.945 60.9137C66.7114 59.3259 66.5274 57.7406 66.9233 56.1649C67.2176 54.9897 67.6021 53.8361 67.9564 52.6764C68.1239 52.1252 68.0466 51.8357 67.5466 51.5453C67.294 51.3988 67.0083 51.2688 66.7236 51.2264C65.1658 50.9894 63.574 51.1194 62.0755 51.606C61.6041 51.7585 61.3567 52.0628 61.2125 52.5481C60.7889 53.9799 60.4277 55.4464 59.8331 56.808C57.4248 62.3204 54.9471 67.8041 52.472 73.287C51.9554 74.4319 51.3503 75.537 50.7678 76.6516C50.6202 76.9341 50.4049 77.1829 50.2209 77.4481C50.0733 77.2739 50.016 77.1543 50.0169 77.0347C50.0212 76.33 49.937 75.6046 50.0716 74.9233C50.4847 72.863 50.9415 70.8116 51.4415 68.7705C51.8495 67.0839 52.3244 65.4128 52.7767 63.7375C52.9286 63.1767 52.9312 62.6523 52.5276 62.1808C51.8495 61.3913 50.4327 61.2179 49.5923 61.8263L49.2208 62.0361L49.2928 61.4381C49.4699 60.1562 49.5055 58.8786 49.153 57.6158C48.7138 56.0419 47.5886 55.1361 45.953 55.1864C45.1908 55.2098 44.3904 55.3398 43.6846 55.6172C40.7163 56.7786 38.434 58.8353 36.491 61.3098C36.3108 61.5394 36.0876 61.7319 35.8339 61.8766C33.3223 63.2668 30.8029 64.6397 28.2844 66.0178L25.4811 67.551C24.7293 66.8351 24.0461 66.0923 23.2708 65.4622C20.9034 63.5346 18.4977 61.6547 16.1138 59.7488C14.0007 58.0596 11.9536 56.3001 10.3874 54.0631C9.22238 52.399 8.47143 50.5781 8.39937 48.5205C8.30822 45.8986 9.05309 43.503 10.39 41.273C12.1003 38.4197 14.433 36.1299 16.9976 34.0558C19.7105 31.863 22.6449 30.0013 25.686 28.3017C29.9408 25.9242 34.3172 23.8198 39.0096 22.4305C43.8209 21.0056 48.7025 20.19 53.7378 20.7586C55.7171 20.9822 57.6392 21.4346 59.4042 22.401C60.7559 23.1403 61.8645 24.1085 62.3802 25.6218C62.889 27.1108 62.8733 28.6197 62.5209 30.1322C61.8046 33.1951 60.1248 35.7199 58.0108 37.976C54.5434 41.6743 50.3138 44.1921 45.5519 45.8553C42.814 46.8127 39.9654 47.4193 37.0744 47.6607C34.7053 47.8592 32.3856 47.6494 30.1422 46.8269C28.6568 46.2817 27.3633 45.448 26.3232 44.238C26.1375 44.0213 25.8996 43.7865 25.5532 43.9893C25.2137 44.1886 25.1538 44.511 25.2676 44.8378C25.4577 45.3804 25.6331 45.9454 25.9291 46.4308C26.6731 47.6486 27.7583 48.5317 28.9529 49.2893C31.2474 50.7462 33.8119 51.2359 36.4711 51.3494C40.5062 51.5237 44.4433 50.9222 48.3248 49.8414C53.8662 48.2986 58.6845 45.5736 62.5486 41.2747C65.766 37.6952 68.064 33.6554 68.5563 28.7775C68.7967 26.3966 68.5406 24.0643 67.4242 21.8923C66.2131 19.5391 64.2875 17.7892 61.9852 16.5836C58.6324 14.8285 55.0139 13.8066 51.2792 13.8066H47.5374C43.0143 13.8066 38.6415 15.1007 34.391 16.6443C31.1736 17.8135 28.0187 19.1933 24.9559 20.7205C18.2859 24.0478 12.0743 28.0598 6.97213 33.5765C4.43018 36.3249 2.27803 39.3575 1.04005 42.9284C0.66704 43.9947 0.345169 45.0782 0.0755293 46.1751M24.244 77.3883C23.9549 81.253 22.2004 84.3862 19.3329 86.9239C17.7199 88.3506 15.8698 89.3663 13.7151 89.7234C12.9337 89.8526 12.1342 89.8838 11.3763 89.5605C10.2954 89.0994 10.0532 88.1417 10.0324 87.1215C10.0002 85.4956 10.5706 84.0256 11.3528 82.6267C12.3738 80.8032 13.8705 79.4129 15.4687 78.1146C17.9864 76.0683 20.7176 74.3366 23.5148 72.7019L23.7257 72.6153C24.1581 74.21 24.3638 75.7849 24.244 77.3883ZM46.085 60.5921C45.881 61.8264 45.6257 63.0614 45.2646 64.2575C44.0162 68.3978 42.4127 72.4099 40.679 76.3682C40.3587 77.1005 39.8925 77.7688 39.487 78.463C39.418 78.5697 39.3354 78.667 39.2413 78.7525C38.7396 79.2474 38.2638 79.2214 38.0103 78.574C37.7151 77.8216 37.5337 77.0165 37.3774 76.22C37.2724 75.6852 37.2976 75.1236 37.2646 74.5758C37.2984 70.6807 38.4887 67.1411 40.508 63.8458C41.3405 62.4868 42.2469 61.1919 43.6316 60.3321C44.0625 60.065 44.5285 59.8591 45.0163 59.7202C45.7542 59.5131 46.2074 59.8537 46.085 60.5921ZM60.986 79.5456L66.3416 73.3026C66.5647 75.621 62.6172 80.2493 60.986 79.5456ZM78.0912 75.3446C77.7127 75.5612 77.3003 75.7173 76.9122 75.9175C76.5571 76.1012 76.4399 75.9157 76.4295 75.6106C76.4245 75.3995 76.4517 75.1887 76.5103 74.9857C77.2334 72.4393 78.5643 70.2656 80.5446 68.4975L80.6835 68.4264C81.6254 71.0569 80.5368 73.9457 78.0912 75.3446Z" fill="#B0551C"/>
</svg>
