<svg width="117" height="117" viewBox="0 0 117 117" fill="none" xmlns="http://www.w3.org/2000/svg">
<path d="M109.688 81.9V27.2976L62.9606 0V20.9649L81.2638 31.6851C81.9877 32.175 81.9877 33.1476 81.2638 33.3962L59.5822 46.0688C58.8583 46.5587 58.1417 46.3101 57.6591 46.0688L35.9775 33.3962C35.2536 33.1476 35.2536 31.9337 35.9775 31.6851L54.288 20.9649V0L7.3125 27.2976V81.9L25.1404 71.4212V49.9663C25.1404 49.2351 26.0983 48.7524 26.5809 48.9937L48.2625 61.6663C48.9864 62.1562 49.2277 62.6462 49.2277 63.3774V88.7226C49.2277 89.4538 48.2625 89.9437 47.7799 89.7024L29.4767 78.975L11.6488 89.4538L58.3757 117L105.11 89.7024L87.282 79.2163L68.9861 89.9437C68.2622 90.4337 67.5382 89.9437 67.5382 88.9712V63.6187C67.5382 62.8875 68.0209 62.1562 68.5035 61.9149L90.1851 49.2351C90.909 48.7524 91.6256 49.2351 91.6256 50.2149V71.6625L109.688 81.9Z" fill="#B0551C"/>
</svg>
