<svg width="109" height="111" viewBox="0 0 109 111" fill="none" xmlns="http://www.w3.org/2000/svg">
<g clip-path="url(#clip0_187_320)">
<mask id="mask0_187_320" style="mask-type:luminance" maskUnits="userSpaceOnUse" x="0" y="0" width="110" height="111">
<path d="M77.7197 109.654C78.5836 109.997 79.5077 110.156 80.4343 110.12C81.3609 110.083 82.2703 109.853 83.1058 109.443L105.46 98.4768C106.611 97.9116 107.582 97.0266 108.262 95.9235C108.942 94.8205 109.303 93.5442 109.302 92.2414V17.8828C109.303 16.5801 108.942 15.3039 108.262 14.2009C107.582 13.0979 106.611 12.213 105.46 11.6479L83.1062 0.681344C81.8431 0.0618676 80.4223 -0.142057 79.0405 0.0977837C77.6587 0.337624 76.3842 1.00937 75.3932 2.02009L32.5992 41.8244L13.9585 27.3986C13.1177 26.7478 12.0799 26.4177 11.0253 26.4655C9.9707 26.5134 8.96579 26.9361 8.18492 27.6603L2.20653 33.205C0.235159 35.033 0.23303 38.1949 2.20142 40.0259L18.3671 55.0621L2.20142 70.0978C0.23303 71.9293 0.235159 75.0908 2.20653 76.9192L8.18492 82.4635C8.96574 83.1878 9.97063 83.6105 11.0252 83.6584C12.0798 83.7063 13.1176 83.3763 13.9585 82.7256L32.5992 68.2994L75.3932 108.104C76.0548 108.779 76.8471 109.307 77.7197 109.654ZM82.1751 29.9328L49.7041 55.0621L82.1751 80.191V29.9328Z" fill="white"/>
</mask>
<g mask="url(#mask0_187_320)">
<path d="M105.526 11.665L83.1547 0.683315C81.8913 0.0631466 80.47 -0.141318 79.0875 0.0982144C77.7051 0.337747 76.4299 1.00943 75.4383 2.02033L2.20222 70.0981C0.232551 71.9295 0.235106 75.091 2.20732 76.9194L8.18955 82.4637C8.97106 83.1881 9.97658 83.611 11.0318 83.6589C12.087 83.7068 13.1254 83.3767 13.967 82.7259L102.16 14.514C105.119 12.2259 109.368 14.3773 109.368 18.1634V17.8986C109.368 16.5962 109.008 15.3203 108.328 14.2176C107.648 13.1149 106.677 12.2301 105.526 11.665Z" fill="#92491B"/>
</g>
<mask id="mask1_187_320" style="mask-type:luminance" maskUnits="userSpaceOnUse" x="0" y="0" width="110" height="111">
<path d="M77.7197 109.654C78.5836 109.997 79.5077 110.156 80.4343 110.12C81.3609 110.083 82.2703 109.853 83.1058 109.443L105.46 98.4768C106.611 97.9116 107.582 97.0266 108.262 95.9235C108.942 94.8205 109.303 93.5442 109.302 92.2414V17.8828C109.303 16.5801 108.942 15.3039 108.262 14.2009C107.582 13.0979 106.611 12.213 105.46 11.6479L83.1062 0.681344C81.8431 0.0618676 80.4223 -0.142057 79.0405 0.0977837C77.6587 0.337624 76.3842 1.00937 75.3932 2.02009L32.5992 41.8244L13.9585 27.3986C13.1177 26.7478 12.0799 26.4177 11.0253 26.4655C9.9707 26.5134 8.96579 26.9361 8.18492 27.6603L2.20653 33.205C0.235159 35.033 0.23303 38.1949 2.20142 40.0259L18.3671 55.0621L2.20142 70.0978C0.23303 71.9293 0.235159 75.0908 2.20653 76.9192L8.18492 82.4635C8.96574 83.1878 9.97063 83.6105 11.0252 83.6584C12.0798 83.7063 13.1176 83.3763 13.9585 82.7256L32.5992 68.2994L75.3932 108.104C76.0548 108.779 76.8471 109.307 77.7197 109.654ZM82.1751 29.9328L49.7041 55.0621L82.1751 80.191V29.9328Z" fill="white"/>
</mask>
<g mask="url(#mask1_187_320)">
<path d="M105.526 98.4588L83.1547 109.441C81.8912 110.06 80.47 110.265 79.0876 110.025C77.7053 109.786 76.43 109.114 75.4383 108.104L2.20222 40.0258C0.232551 38.1948 0.235106 35.0329 2.20732 33.2049L8.18955 27.6602C8.97111 26.9358 9.97666 26.5131 11.0319 26.4652C12.0871 26.4174 13.1255 26.7476 13.967 27.3984L102.16 95.6099C105.119 97.898 109.368 95.7466 109.368 91.96V92.2253C109.368 93.5276 109.008 94.8035 108.328 95.9063C107.648 97.009 106.677 97.8938 105.526 98.4588Z" fill="#B0551C"/>
</g>
<mask id="mask2_187_320" style="mask-type:luminance" maskUnits="userSpaceOnUse" x="0" y="0" width="110" height="111">
<path d="M77.7197 109.654C78.5836 109.997 79.5077 110.156 80.4343 110.12C81.3609 110.083 82.2703 109.853 83.1058 109.443L105.46 98.4768C106.611 97.9116 107.582 97.0266 108.262 95.9235C108.942 94.8205 109.303 93.5442 109.302 92.2414V17.8828C109.303 16.5801 108.942 15.3039 108.262 14.2009C107.582 13.0979 106.611 12.213 105.46 11.6479L83.1062 0.681344C81.8431 0.0618677 80.4223 -0.142057 79.0405 0.0977837C77.6587 0.337624 76.3842 1.00937 75.3932 2.02009L32.5992 41.8244L13.9585 27.3986C13.1177 26.7478 12.0799 26.4177 11.0253 26.4655C9.9707 26.5134 8.96579 26.9361 8.18492 27.6603L2.20653 33.205C0.235159 35.033 0.23303 38.1949 2.20142 40.0259L18.3671 55.0621L2.20142 70.0978C0.23303 71.9293 0.235159 75.0908 2.20653 76.9192L8.18492 82.4634C8.96574 83.1878 9.97063 83.6105 11.0252 83.6584C12.0798 83.7063 13.1176 83.3763 13.9585 82.7256L32.5992 68.2994L75.3932 108.104C76.0548 108.779 76.8471 109.307 77.7197 109.654ZM82.1751 29.9328L49.7041 55.0621L82.1751 80.191V29.9328Z" fill="white"/>
</mask>
<g mask="url(#mask2_187_320)">
<path d="M83.0845 109.449C81.8207 110.069 80.3993 110.273 79.0167 110.033C77.6342 109.794 76.3588 109.122 75.3672 108.111C77.8712 110.663 82.1533 108.855 82.1533 105.245V4.89271C82.1533 1.28191 77.8712 -0.526089 75.3672 2.02682C76.3588 1.01574 77.6341 0.343802 79.0166 0.103965C80.3992 -0.135872 81.8207 0.0682426 83.0845 0.688074L105.452 11.6546C106.604 12.2194 107.575 13.1042 108.256 14.2072C108.936 15.3102 109.297 16.5866 109.297 17.8895V92.2486C109.297 94.9074 107.802 97.3314 105.452 98.4835L83.0845 109.449Z" fill="#D27439"/>
</g>
</g>
<defs>
<clipPath id="clip0_187_320">
<rect width="109" height="111" fill="white"/>
</clipPath>
</defs>
</svg>
