<svg width="284" height="107" viewBox="0 0 284 107" fill="none" xmlns="http://www.w3.org/2000/svg">
<path d="M46.976 69.776C47.744 69.776 48.4053 70.0533 48.96 70.608C49.5147 71.12 49.792 71.8027 49.792 72.656C49.792 73.5093 49.4933 74.2133 48.896 74.768C48.2987 75.3227 47.5733 75.5787 46.72 75.536C45.5253 75.408 44.4373 75.3013 43.456 75.216C42.5173 75.1733 41.5787 75.152 40.64 75.152C39.7867 75.152 38.912 75.1733 38.016 75.216C37.12 75.3013 36.1173 75.408 35.008 75.536C34.1973 75.5787 33.472 75.3227 32.832 74.768C32.2347 74.2133 31.936 73.5093 31.936 72.656C31.936 71.8027 32.2347 71.0987 32.832 70.544C33.472 69.9467 34.1973 69.6907 35.008 69.776C35.4773 69.8187 35.968 69.8613 36.48 69.904C36.992 69.9467 37.5253 69.9893 38.08 70.032H38.208C38.5067 70.032 38.656 69.8613 38.656 69.52V53.648C38.656 53.264 38.464 53.072 38.08 53.072H15.168C14.784 53.072 14.592 53.264 14.592 53.648V69.52C14.592 69.8613 14.7413 70.032 15.04 70.032C15.5947 70.032 16.128 70.0107 16.64 69.968C17.1947 69.8827 17.728 69.8187 18.24 69.776C19.0933 69.6907 19.8187 69.9467 20.416 70.544C21.0133 71.0987 21.312 71.8027 21.312 72.656C21.312 73.5093 21.0133 74.2133 20.416 74.768C19.8187 75.3227 19.0933 75.5787 18.24 75.536C17.0453 75.408 15.9573 75.3013 14.976 75.216C14.0373 75.1733 13.0987 75.152 12.16 75.152C11.3067 75.152 10.432 75.1733 9.536 75.216C8.64 75.3013 7.63733 75.408 6.528 75.536C5.71733 75.5787 4.992 75.3227 4.352 74.768C3.75467 74.2133 3.456 73.5093 3.456 72.656C3.456 71.8027 3.73333 71.12 4.288 70.608C4.84267 70.0533 5.504 69.776 6.272 69.776C6.61333 69.776 6.95467 69.7973 7.296 69.84C7.63733 69.8827 7.97867 69.9253 8.32 69.968H8.448C8.74667 69.968 8.896 69.7973 8.896 69.456V32.912C8.896 32.5707 8.74667 32.4 8.448 32.4C8.064 32.4 7.70133 32.4427 7.36 32.528C7.01867 32.5707 6.656 32.592 6.272 32.592C5.504 32.592 4.84267 32.3147 4.288 31.76C3.73333 31.2053 3.456 30.5227 3.456 29.712C3.456 28.8587 3.75467 28.1547 4.352 27.6C4.992 27.0027 5.71733 26.7467 6.528 26.832C7.76533 26.96 8.85333 27.0667 9.792 27.152C10.7307 27.1947 11.6693 27.216 12.608 27.216C13.4613 27.216 14.336 27.1947 15.232 27.152C16.128 27.0667 17.1307 26.96 18.24 26.832C19.0933 26.7467 19.8187 27.0027 20.416 27.6C21.0133 28.1547 21.312 28.8587 21.312 29.712C21.312 30.5653 21.0133 31.2693 20.416 31.824C19.8187 32.3787 19.0933 32.6347 18.24 32.592C17.7707 32.5067 17.2587 32.464 16.704 32.464C16.192 32.4213 15.68 32.3787 15.168 32.336H15.04C14.7413 32.336 14.592 32.5067 14.592 32.848V46.864C14.592 47.248 14.784 47.44 15.168 47.44H38.08C38.464 47.44 38.656 47.248 38.656 46.864V32.848C38.656 32.5067 38.5067 32.336 38.208 32.336C37.6533 32.336 37.0987 32.3573 36.544 32.4C36.032 32.4427 35.52 32.5067 35.008 32.592C34.1973 32.6347 33.472 32.3787 32.832 31.824C32.2347 31.2693 31.936 30.5653 31.936 29.712C31.936 28.8587 32.2347 28.1547 32.832 27.6C33.472 27.0027 34.1973 26.7467 35.008 26.832C36.2453 26.96 37.3333 27.0667 38.272 27.152C39.2107 27.1947 40.1493 27.216 41.088 27.216C41.9413 27.216 42.816 27.1947 43.712 27.152C44.608 27.0667 45.6107 26.96 46.72 26.832C47.5733 26.7467 48.2987 27.0027 48.896 27.6C49.4933 28.1547 49.792 28.8587 49.792 29.712C49.792 30.5227 49.5147 31.2053 48.96 31.76C48.4053 32.3147 47.744 32.592 46.976 32.592C46.6347 32.592 46.2933 32.5707 45.952 32.528C45.6107 32.4853 45.2693 32.4427 44.928 32.4H44.8C44.5013 32.4 44.352 32.5707 44.352 32.912V69.456C44.352 69.7973 44.5227 69.968 44.864 69.968C45.2053 69.968 45.5467 69.9467 45.888 69.904C46.2293 69.8187 46.592 69.776 46.976 69.776ZM105.346 69.776C106.157 69.776 106.839 70.0533 107.394 70.608C107.949 71.12 108.226 71.8027 108.226 72.656C108.226 73.5093 107.906 74.2133 107.266 74.768C106.669 75.3227 105.943 75.5787 105.09 75.536C102.658 75.28 100.717 75.152 99.266 75.152C97.6873 75.152 95.746 75.28 93.442 75.536C92.5887 75.5787 91.8633 75.3227 91.266 74.768C90.6687 74.2133 90.37 73.5093 90.37 72.656C90.37 71.8027 90.626 71.12 91.138 70.608C91.6927 70.0533 92.3753 69.776 93.186 69.776C93.57 69.776 93.9753 69.7973 94.402 69.84C94.8713 69.8827 95.3193 69.9467 95.746 70.032C96.258 70.032 96.4073 69.8187 96.194 69.392L93.186 62.672C93.058 62.3733 92.8447 62.224 92.546 62.224H70.402C70.146 62.224 69.9327 62.3733 69.762 62.672L66.754 69.392C66.7113 69.4773 66.69 69.5627 66.69 69.648C66.69 69.904 66.8607 70.032 67.202 70.032C67.6713 69.9467 68.1193 69.8827 68.546 69.84C68.9727 69.7973 69.378 69.776 69.762 69.776C70.5727 69.776 71.234 70.0533 71.746 70.608C72.3007 71.12 72.578 71.8027 72.578 72.656C72.578 73.5093 72.2793 74.2133 71.682 74.768C71.0847 75.3227 70.3593 75.5787 69.506 75.536C67.0313 75.28 65.09 75.152 63.682 75.152C62.0607 75.152 60.1193 75.28 57.858 75.536C57.0047 75.5787 56.258 75.3227 55.618 74.768C55.0207 74.2133 54.722 73.5093 54.722 72.656C54.722 71.8027 54.9993 71.12 55.554 70.608C56.1087 70.0533 56.7913 69.776 57.602 69.776C58.0287 69.776 58.434 69.7973 58.818 69.84C59.202 69.8827 59.586 69.9253 59.97 69.968H60.098C60.3113 69.968 60.5033 69.84 60.674 69.584L79.234 28.304C79.6607 27.3227 80.4073 26.832 81.474 26.832C82.498 26.832 83.2233 27.3227 83.65 28.304L102.338 69.584C102.509 69.84 102.701 69.968 102.914 69.968C103.341 69.968 103.746 69.9467 104.13 69.904C104.557 69.8187 104.962 69.776 105.346 69.776ZM81.858 37.456C81.8153 37.2 81.6873 37.072 81.474 37.072C81.346 37.072 81.218 37.2 81.09 37.456L72.706 56.144C72.6633 56.2293 72.642 56.3147 72.642 56.4C72.642 56.6987 72.8127 56.848 73.154 56.848H89.794C90.306 56.848 90.4553 56.6133 90.242 56.144L81.858 37.456ZM118.163 39.504C118.035 41.1253 118.376 42.448 119.187 43.472C120.04 44.4533 121.192 45.2853 122.643 45.968C124.136 46.6507 125.779 47.2693 127.571 47.824C129.363 48.3787 131.155 48.9973 132.947 49.68C134.739 50.32 136.382 51.152 137.875 52.176C139.411 53.1573 140.627 54.4373 141.523 56.016C142.462 57.552 142.931 59.5147 142.931 61.904C142.931 64.5067 142.227 66.832 140.819 68.88C139.454 70.928 137.555 72.5493 135.123 73.744C132.691 74.9387 129.939 75.536 126.867 75.536C123.027 75.536 119.827 74.8533 117.267 73.488C114.707 72.08 112.723 70.544 111.315 68.88C110.248 67.6427 109.715 66.32 109.715 64.912C109.715 63.7173 110.099 62.6933 110.867 61.84C111.635 60.9867 112.744 60.56 114.195 60.56C115.39 60.56 116.371 61.008 117.139 61.904C117.95 62.8 118.355 63.8027 118.355 64.912C118.355 65.4667 118.227 66.0427 117.971 66.64C117.843 66.9813 117.886 67.2373 118.099 67.408C119.208 68.2613 120.446 68.9013 121.811 69.328C123.219 69.7547 124.627 69.968 126.035 69.968C127.912 69.968 129.704 69.648 131.411 69.008C133.118 68.3253 134.504 67.3867 135.571 66.192C136.638 64.9547 137.171 63.5253 137.171 61.904C137.171 60.4533 136.723 59.2587 135.827 58.32C134.931 57.3387 133.736 56.528 132.243 55.888C130.792 55.2053 129.192 54.5867 127.443 54.032C125.694 53.4773 123.923 52.8587 122.131 52.176C120.382 51.4933 118.76 50.6613 117.267 49.68C115.816 48.656 114.643 47.3973 113.747 45.904C112.851 44.4107 112.403 42.5547 112.403 40.336C112.403 37.904 112.83 35.8347 113.683 34.128C114.579 32.3787 115.774 30.992 117.267 29.968C118.76 28.9013 120.424 28.1333 122.259 27.664C124.094 27.152 125.971 26.896 127.891 26.896C130.323 26.896 132.648 27.2373 134.867 27.92C137.086 28.6027 138.878 29.5413 140.243 30.736C141.651 31.9307 142.355 33.296 142.355 34.832C142.312 36.0267 141.864 37.0507 141.011 37.904C140.2 38.7573 139.198 39.184 138.003 39.184C136.808 39.184 135.784 38.7573 134.931 37.904C134.12 37.0507 133.715 36.0267 133.715 34.832C133.715 34.4053 133.736 34.1067 133.779 33.936C133.864 33.5947 133.843 33.4027 133.715 33.36C133.16 33.0613 132.328 32.8053 131.219 32.592C130.152 32.3787 129 32.272 127.763 32.272C126.355 32.272 124.926 32.4853 123.475 32.912C122.067 33.296 120.872 34.0213 119.891 35.088C118.91 36.112 118.334 37.584 118.163 39.504ZM190.587 26.832C191.44 26.7467 192.166 27.0027 192.763 27.6C193.403 28.1547 193.723 28.8587 193.723 29.712C193.723 30.5227 193.446 31.2053 192.891 31.76C192.336 32.3147 191.654 32.592 190.843 32.592C190.502 32.592 190.118 32.5707 189.691 32.528C189.307 32.4853 188.902 32.4427 188.475 32.4H188.347C188.048 32.4 187.899 32.5707 187.899 32.912V57.36C187.899 61.072 187.238 64.2933 185.915 67.024C184.592 69.7547 182.694 71.8667 180.219 73.36C177.787 74.8107 174.886 75.536 171.515 75.536C168.144 75.536 165.222 74.8107 162.747 73.36C160.315 71.8667 158.438 69.7547 157.115 67.024C155.792 64.2933 155.131 61.072 155.131 57.36V32.912C155.131 32.5707 154.982 32.4 154.683 32.4C154.256 32.4 153.83 32.4427 153.403 32.528C153.019 32.5707 152.614 32.592 152.187 32.592C151.376 32.592 150.694 32.3147 150.139 31.76C149.584 31.2053 149.307 30.5227 149.307 29.712C149.307 28.8587 149.606 28.1547 150.203 27.6C150.843 27.0027 151.59 26.7467 152.443 26.832C153.68 26.96 154.747 27.0667 155.643 27.152C156.539 27.1947 157.414 27.216 158.267 27.216C159.12 27.216 159.995 27.1947 160.891 27.152C161.83 27.0667 162.896 26.96 164.091 26.832C164.944 26.7467 165.67 27.0027 166.267 27.6C166.864 28.1547 167.163 28.8587 167.163 29.712C167.163 30.5653 166.864 31.2693 166.267 31.824C165.67 32.3787 164.944 32.6347 164.091 32.592C163.664 32.5067 163.216 32.464 162.747 32.464C162.278 32.4213 161.808 32.3787 161.339 32.336H161.211C160.912 32.336 160.763 32.5067 160.763 32.848V57.424C160.763 58.064 160.806 58.896 160.891 59.92C161.019 60.944 161.254 62.0533 161.595 63.248C161.979 64.4 162.555 65.5093 163.323 66.576C164.134 67.6 165.2 68.4533 166.523 69.136C167.846 69.776 169.51 70.096 171.515 70.096C173.563 70.096 175.248 69.776 176.571 69.136C177.894 68.4533 178.939 67.5787 179.707 66.512C180.475 65.4453 181.03 64.336 181.371 63.184C181.755 61.9893 181.99 60.88 182.075 59.856C182.203 58.832 182.267 58.0213 182.267 57.424V32.848C182.267 32.5067 182.118 32.336 181.819 32.336C181.307 32.336 180.816 32.3573 180.347 32.4C179.878 32.4427 179.408 32.5067 178.939 32.592C178.128 32.6347 177.403 32.3787 176.763 31.824C176.166 31.2693 175.867 30.5653 175.867 29.712C175.867 28.8587 176.166 28.1547 176.763 27.6C177.403 27.0027 178.128 26.7467 178.939 26.832C180.176 26.96 181.243 27.0667 182.139 27.152C183.078 27.1947 183.952 27.216 184.763 27.216C185.616 27.216 186.491 27.1947 187.387 27.152C188.326 27.0667 189.392 26.96 190.587 26.832Z" fill="white"/>
<path d="M16.28 99.68C16.5333 99.68 16.7467 99.7667 16.92 99.94C17.0933 100.1 17.18 100.313 17.18 100.58C17.18 100.847 17.08 101.067 16.88 101.24C16.6933 101.413 16.4667 101.493 16.2 101.48C15.44 101.4 14.8333 101.36 14.38 101.36C13.8867 101.36 13.28 101.4 12.56 101.48C12.2933 101.493 12.0667 101.413 11.88 101.24C11.6933 101.067 11.6 100.847 11.6 100.58C11.6 100.313 11.68 100.1 11.84 99.94C12.0133 99.7667 12.2267 99.68 12.48 99.68C12.6 99.68 12.7267 99.6867 12.86 99.7C13.0067 99.7133 13.1467 99.7333 13.28 99.76C13.44 99.76 13.4867 99.6933 13.42 99.56L12.48 97.46C12.44 97.3667 12.3733 97.32 12.28 97.32H5.36C5.28 97.32 5.21333 97.3667 5.16 97.46L4.22 99.56C4.20667 99.5867 4.2 99.6133 4.2 99.64C4.2 99.72 4.25333 99.76 4.36 99.76C4.50667 99.7333 4.64667 99.7133 4.78 99.7C4.91333 99.6867 5.04 99.68 5.16 99.68C5.41333 99.68 5.62 99.7667 5.78 99.94C5.95333 100.1 6.04 100.313 6.04 100.58C6.04 100.847 5.94667 101.067 5.76 101.24C5.57333 101.413 5.34667 101.493 5.08 101.48C4.30667 101.4 3.7 101.36 3.26 101.36C2.75333 101.36 2.14667 101.4 1.44 101.48C1.17333 101.493 0.94 101.413 0.74 101.24C0.553333 101.067 0.46 100.847 0.46 100.58C0.46 100.313 0.546667 100.1 0.72 99.94C0.893333 99.7667 1.10667 99.68 1.36 99.68C1.49333 99.68 1.62 99.6867 1.74 99.7C1.86 99.7133 1.98 99.7267 2.1 99.74H2.14C2.20667 99.74 2.26667 99.7 2.32 99.62L8.12 86.72C8.25333 86.4133 8.48667 86.26 8.82 86.26C9.14 86.26 9.36667 86.4133 9.5 86.72L15.34 99.62C15.3933 99.7 15.4533 99.74 15.52 99.74C15.6533 99.74 15.78 99.7333 15.9 99.72C16.0333 99.6933 16.16 99.68 16.28 99.68ZM8.94 89.58C8.92667 89.5 8.88667 89.46 8.82 89.46C8.78 89.46 8.74 89.5 8.7 89.58L6.08 95.42C6.06667 95.4467 6.06 95.4733 6.06 95.5C6.06 95.5933 6.11333 95.64 6.22 95.64H11.42C11.58 95.64 11.6267 95.5667 11.56 95.42L8.94 89.58ZM30.8884 99.68C31.1551 99.6533 31.3818 99.7333 31.5684 99.92C31.7684 100.093 31.8684 100.313 31.8684 100.58C31.8684 100.847 31.7684 101.067 31.5684 101.24C31.3818 101.413 31.1551 101.493 30.8884 101.48C30.8351 101.467 30.6218 101.44 30.2484 101.4C29.8751 101.36 29.5151 101.34 29.1684 101.34C28.5951 101.34 28.1551 101.1 27.8484 100.62L24.5284 95.56C24.4884 95.48 24.4151 95.44 24.3084 95.44H21.9084C21.7884 95.44 21.7284 95.5 21.7284 95.62V99.6C21.7284 99.7067 21.7751 99.76 21.8684 99.76C22.0418 99.76 22.2084 99.7533 22.3684 99.74C22.5284 99.7133 22.6884 99.6933 22.8484 99.68C23.1151 99.6533 23.3418 99.7333 23.5284 99.92C23.7151 100.093 23.8084 100.313 23.8084 100.58C23.8084 100.847 23.7151 101.067 23.5284 101.24C23.3418 101.413 23.1151 101.493 22.8484 101.48C22.4751 101.44 22.1418 101.407 21.8484 101.38C21.5684 101.367 21.2951 101.36 21.0284 101.36C20.7618 101.36 20.4884 101.367 20.2084 101.38C19.9284 101.407 19.5951 101.44 19.2084 101.48C18.9418 101.493 18.7084 101.413 18.5084 101.24C18.3218 101.067 18.2284 100.847 18.2284 100.58C18.2284 100.313 18.3151 100.1 18.4884 99.94C18.6618 99.7667 18.8751 99.68 19.1284 99.68C19.2218 99.68 19.3151 99.6867 19.4084 99.7C19.5151 99.7133 19.6284 99.7267 19.7484 99.74H19.7884C19.8818 99.74 19.9284 99.6867 19.9284 99.58V88.24C19.9284 88.1067 19.8684 88.0533 19.7484 88.08L19.2684 88.12C19.0018 88.16 18.7618 88.0933 18.5484 87.92C18.3351 87.7333 18.2284 87.5 18.2284 87.22C18.2284 86.9267 18.3284 86.6933 18.5284 86.52C18.7418 86.3333 18.9884 86.2533 19.2684 86.28C19.5351 86.32 19.8084 86.36 20.0884 86.4C20.3818 86.4267 20.6618 86.44 20.9284 86.44L24.5884 86.46C26.3351 86.4733 27.6951 86.8733 28.6684 87.66C29.6551 88.4333 30.1484 89.5267 30.1484 90.94C30.1484 92.0467 29.8418 92.9733 29.2284 93.72C28.6284 94.4533 27.7751 94.9533 26.6684 95.22C26.5218 95.2467 26.4884 95.32 26.5684 95.44L29.3284 99.68C29.3684 99.76 29.4484 99.8 29.5684 99.8C30.0351 99.7733 30.4751 99.7333 30.8884 99.68ZM24.8084 88.18H21.9084C21.7884 88.18 21.7284 88.24 21.7284 88.36V93.5C21.7284 93.62 21.7884 93.68 21.9084 93.68H24.8084C27.2218 93.68 28.4284 92.7667 28.4284 90.94C28.4284 89.1 27.2218 88.18 24.8084 88.18ZM52.2508 94.68C52.2508 95.08 52.0708 95.36 51.7108 95.52C51.6041 95.56 51.5508 95.6267 51.5508 95.72V100.6C51.5508 100.84 51.4574 101.047 51.2708 101.22C51.0974 101.393 50.8908 101.48 50.6508 101.48C50.4108 101.48 50.2041 101.393 50.0308 101.22C49.8574 101.047 49.7708 100.84 49.7708 100.6V99.68C49.7708 99.6 49.7508 99.5533 49.7108 99.54C49.6708 99.5133 49.6174 99.5333 49.5508 99.6C49.0574 100.107 48.4508 100.547 47.7308 100.92C47.0108 101.28 46.1708 101.46 45.2108 101.46C44.1308 101.46 43.1641 101.26 42.3108 100.86C41.4574 100.447 40.7308 99.8867 40.1308 99.18C39.5441 98.4733 39.0908 97.6667 38.7708 96.76C38.4641 95.8533 38.3108 94.9 38.3108 93.9C38.3108 92.7 38.5174 91.6333 38.9308 90.7C39.3441 89.7533 39.8974 88.9533 40.5908 88.3C41.2841 87.6333 42.0641 87.1267 42.9308 86.78C43.7974 86.4333 44.6841 86.26 45.5908 86.26C46.2974 86.26 46.9974 86.3733 47.6908 86.6C48.3841 86.8267 49.0241 87.1733 49.6108 87.64C50.3441 88.2133 50.7108 88.8067 50.7108 89.42C50.7108 89.82 50.5708 90.1533 50.2908 90.42C50.0241 90.6733 49.7108 90.8 49.3508 90.8C48.9508 90.8 48.6241 90.66 48.3708 90.38C48.1308 90.1 48.0108 89.7867 48.0108 89.44C48.0108 89.28 48.0441 89.1133 48.1108 88.94C48.1241 88.9133 48.1308 88.8733 48.1308 88.82C48.1308 88.7667 48.1041 88.72 48.0508 88.68C47.6641 88.4267 47.2508 88.24 46.8108 88.12C46.3841 88 45.9508 87.94 45.5108 87.94C44.8574 87.94 44.2174 88.0733 43.5908 88.34C42.9641 88.5933 42.3974 88.9733 41.8908 89.48C41.3841 89.9867 40.9774 90.6133 40.6708 91.36C40.3774 92.0933 40.2308 92.94 40.2308 93.9C40.2441 95.0333 40.4574 96.04 40.8708 96.92C41.2974 97.7867 41.8841 98.4733 42.6308 98.98C43.3774 99.4733 44.2308 99.72 45.1908 99.72C47.2441 99.72 48.7508 98.7733 49.7108 96.88C49.7508 96.8 49.7708 96.7267 49.7708 96.66V95.64C49.7708 95.52 49.7108 95.46 49.5908 95.46C49.2974 95.4467 48.9974 95.4533 48.6908 95.48C48.3974 95.4933 48.0441 95.5267 47.6308 95.58C47.3774 95.5933 47.1508 95.5133 46.9508 95.34C46.7641 95.1667 46.6708 94.9467 46.6708 94.68C46.6708 94.4133 46.7641 94.1933 46.9508 94.02C47.1508 93.8333 47.3774 93.7533 47.6308 93.78C48.0174 93.82 48.3508 93.8533 48.6308 93.88C48.9241 93.8933 49.1974 93.9 49.4508 93.9C49.7174 93.9 49.9974 93.8933 50.2908 93.88C50.5841 93.8533 50.9174 93.82 51.2908 93.78C51.5574 93.7533 51.7841 93.8333 51.9708 94.02C52.1574 94.1933 52.2508 94.4133 52.2508 94.68ZM63.8105 99.72C63.8505 99.7067 63.9105 99.7 63.9905 99.7C64.2171 99.7 64.4105 99.7867 64.5705 99.96C64.7305 100.12 64.8105 100.327 64.8105 100.58C64.8105 100.86 64.7105 101.087 64.5105 101.26C64.3105 101.447 64.0771 101.513 63.8105 101.46C63.6105 101.407 63.4105 101.367 63.2105 101.34C63.0238 101.327 62.8438 101.313 62.6705 101.3C62.4038 101.3 62.1638 101.227 61.9505 101.08C61.7371 100.933 61.5771 100.747 61.4705 100.52C61.4038 100.4 61.3238 100.38 61.2305 100.46C60.7771 100.793 60.2905 101.04 59.7705 101.2C59.2505 101.373 58.6371 101.46 57.9305 101.46C56.9971 101.46 56.2305 101.193 55.6305 100.66C55.0305 100.113 54.7305 99.4133 54.7305 98.56C54.7305 97.9067 54.8905 97.3333 55.2105 96.84C55.5305 96.3333 55.9705 95.94 56.5305 95.66C57.1038 95.3667 57.7705 95.22 58.5305 95.22C58.9305 95.22 59.3438 95.26 59.7705 95.34C60.2105 95.42 60.6638 95.5533 61.1305 95.74C61.1438 95.74 61.1571 95.7467 61.1705 95.76C61.1838 95.76 61.1971 95.76 61.2105 95.76C61.3038 95.76 61.3505 95.7067 61.3505 95.6V94.98C61.3505 94.0733 61.1171 93.4 60.6505 92.96C60.1971 92.5067 59.6505 92.28 59.0105 92.28C58.8105 92.28 58.6038 92.3067 58.3905 92.36C58.1905 92.4 57.9838 92.46 57.7705 92.54C57.6638 92.58 57.6305 92.6533 57.6705 92.76C57.6838 92.8133 57.6905 92.86 57.6905 92.9C57.7038 92.94 57.7105 92.9867 57.7105 93.04C57.7105 93.3733 57.5905 93.6733 57.3505 93.94C57.1105 94.1933 56.8038 94.32 56.4305 94.32C56.0438 94.32 55.7305 94.1867 55.4905 93.92C55.2638 93.64 55.1505 93.3267 55.1505 92.98C55.1505 92.8067 55.1838 92.6333 55.2505 92.46C55.3171 92.2867 55.4171 92.1267 55.5505 91.98C55.9238 91.5533 56.3838 91.2267 56.9305 91C57.4905 90.76 58.0838 90.64 58.7105 90.64C60.0971 90.64 61.1705 91.02 61.9305 91.78C62.6905 92.5267 63.0705 93.5933 63.0705 94.98V99.64C63.0705 99.76 63.1171 99.82 63.2105 99.82C63.3171 99.82 63.4171 99.8067 63.5105 99.78C63.6171 99.7533 63.7171 99.7333 63.8105 99.72ZM57.9305 99.78C58.6638 99.7533 59.2771 99.6333 59.7705 99.42C60.2771 99.2067 60.7771 98.8533 61.2705 98.36C61.3238 98.2933 61.3505 98.22 61.3505 98.14V97.7C61.3505 97.6067 61.3105 97.54 61.2305 97.5C60.9505 97.3533 60.6038 97.2067 60.1905 97.06C59.7905 96.9133 59.2505 96.84 58.5705 96.84C57.8905 96.84 57.3571 96.9933 56.9705 97.3C56.5838 97.5933 56.3905 98.0133 56.3905 98.56C56.3905 98.92 56.5305 99.2133 56.8105 99.44C57.1038 99.6667 57.4771 99.78 57.9305 99.78ZM83.6083 99.84C83.8483 99.8133 84.0549 99.88 84.2283 100.04C84.4016 100.2 84.4883 100.407 84.4883 100.66C84.4883 100.9 84.4016 101.1 84.2283 101.26C84.0549 101.42 83.8483 101.493 83.6083 101.48C83.1949 101.44 82.8683 101.407 82.6283 101.38C82.4016 101.367 82.1816 101.36 81.9683 101.36C81.7283 101.36 81.4949 101.367 81.2683 101.38C81.0416 101.407 80.7283 101.44 80.3283 101.48C80.0883 101.493 79.8816 101.42 79.7083 101.26C79.5349 101.1 79.4483 100.9 79.4483 100.66C79.4483 100.407 79.5349 100.2 79.7083 100.04C79.8816 99.88 80.0883 99.8133 80.3283 99.84L80.9083 99.88H80.9483C81.0416 99.88 81.0883 99.8267 81.0883 99.72V94.64C81.0883 94.0667 81.0083 93.5933 80.8483 93.22C80.7016 92.8333 80.4949 92.6067 80.2283 92.54C80.1349 92.5133 80.0416 92.4933 79.9483 92.48C79.8549 92.4667 79.7616 92.46 79.6683 92.46C78.7349 92.46 77.6549 93.1 76.4283 94.38C76.3616 94.4467 76.3283 94.52 76.3283 94.6V99.72C76.3283 99.8267 76.3883 99.88 76.5083 99.88L77.1083 99.84C77.3616 99.8133 77.5749 99.88 77.7483 100.04C77.9216 100.2 78.0083 100.407 78.0083 100.66C78.0083 100.9 77.9149 101.1 77.7283 101.26C77.5549 101.42 77.3483 101.493 77.1083 101.48C76.6949 101.44 76.3683 101.407 76.1283 101.38C75.9016 101.367 75.6883 101.36 75.4883 101.36C75.2349 101.36 74.9949 101.367 74.7683 101.38C74.5549 101.407 74.2483 101.44 73.8483 101.48C73.6083 101.493 73.3949 101.42 73.2083 101.26C73.0349 101.1 72.9483 100.9 72.9483 100.66C72.9483 100.407 73.0349 100.2 73.2083 100.04C73.3816 99.88 73.5949 99.8133 73.8483 99.84L74.4483 99.88C74.5683 99.88 74.6283 99.8267 74.6283 99.72V94.64C74.6283 93.4 74.3749 92.6933 73.8683 92.52C73.7216 92.4667 73.5616 92.44 73.3883 92.44C72.9349 92.44 72.4283 92.6133 71.8683 92.96C71.3083 93.2933 70.7149 93.78 70.0883 94.42C70.0216 94.4867 69.9883 94.56 69.9883 94.64V99.72C69.9883 99.8267 70.0483 99.88 70.1683 99.88L70.7683 99.84C71.0083 99.8133 71.2149 99.88 71.3883 100.04C71.5616 100.2 71.6483 100.407 71.6483 100.66C71.6483 100.9 71.5616 101.1 71.3883 101.26C71.2149 101.42 71.0083 101.493 70.7683 101.48C70.3549 101.44 70.0283 101.407 69.7883 101.38C69.5616 101.367 69.3416 101.36 69.1283 101.36C68.8883 101.36 68.6549 101.367 68.4283 101.38C68.2016 101.407 67.8883 101.44 67.4883 101.48C67.2483 101.493 67.0416 101.42 66.8683 101.26C66.6949 101.1 66.6083 100.9 66.6083 100.66C66.6083 100.407 66.6949 100.2 66.8683 100.04C67.0416 99.88 67.2483 99.8133 67.4883 99.84L68.0883 99.88C68.2083 99.88 68.2683 99.8267 68.2683 99.72V92.42C68.2683 92.3133 68.2216 92.26 68.1283 92.26C67.9949 92.26 67.8683 92.2667 67.7483 92.28C67.6283 92.2933 67.5083 92.3133 67.3883 92.34C67.1349 92.3667 66.9149 92.3 66.7283 92.14C66.5416 91.9667 66.4483 91.7533 66.4483 91.5C66.4483 91.2333 66.5416 91.02 66.7283 90.86C66.9149 90.7 67.1349 90.6333 67.3883 90.66C67.6549 90.7133 67.9883 90.7533 68.3883 90.78H69.1283C69.3683 90.78 69.5683 90.8667 69.7283 91.04C69.9016 91.2 69.9883 91.4 69.9883 91.64V92.1C69.9883 92.1667 70.0083 92.2133 70.0483 92.24C70.1016 92.2667 70.1549 92.2533 70.2083 92.2C71.3949 91.16 72.5149 90.64 73.5683 90.64C74.0216 90.64 74.4483 90.74 74.8483 90.94C75.3816 91.1933 75.7683 91.6733 76.0083 92.38C76.0749 92.5133 76.1549 92.5333 76.2483 92.44C77.5149 91.24 78.7149 90.64 79.8483 90.64C80.3416 90.64 80.8016 90.7467 81.2283 90.96C81.6683 91.1733 82.0016 91.5 82.2283 91.94C82.4549 92.3667 82.6083 92.8267 82.6883 93.32C82.7816 93.8133 82.8283 94.2533 82.8283 94.64V99.72C82.8283 99.8267 82.8883 99.88 83.0083 99.88L83.6083 99.84ZM95.0339 96.84H88.1739C88.0406 96.84 87.9872 96.9067 88.0139 97.04C88.2272 97.8533 88.6539 98.52 89.2939 99.04C89.9339 99.5467 90.6672 99.8 91.4939 99.8C92.4806 99.8 93.3339 99.4067 94.0539 98.62C94.2539 98.3933 94.4939 98.28 94.7739 98.28C94.9472 98.28 95.1072 98.3333 95.2539 98.44C95.5072 98.6133 95.6339 98.8467 95.6339 99.14C95.6339 99.3267 95.5739 99.4933 95.4539 99.64C94.9606 100.213 94.3672 100.66 93.6739 100.98C92.9806 101.3 92.2539 101.46 91.4939 101.46C90.7606 101.46 90.0739 101.32 89.4339 101.04C88.8072 100.76 88.2472 100.373 87.7539 99.88C87.2739 99.3733 86.8939 98.7933 86.6139 98.14C86.3472 97.4867 86.2139 96.7933 86.2139 96.06C86.2139 95.0467 86.4339 94.1333 86.8739 93.32C87.3272 92.4933 87.9406 91.84 88.7139 91.36C89.4872 90.88 90.3472 90.64 91.2939 90.64C92.6806 90.64 93.8206 91.0733 94.7139 91.94C95.6072 92.8067 96.1339 93.9933 96.2939 95.5C96.3339 95.86 96.2272 96.1733 95.9739 96.44C95.7339 96.7067 95.4206 96.84 95.0339 96.84ZM91.2939 92.22C90.4406 92.22 89.7272 92.46 89.1539 92.94C88.5806 93.42 88.2006 94.0933 88.0139 94.96V95C88.0139 95.1067 88.0672 95.16 88.1739 95.16H94.3139C94.4472 95.16 94.5006 95.0867 94.4739 94.94C94.1139 93.1267 93.0539 92.22 91.2939 92.22Z" fill="white"/>
</svg>
