<svg width="108" height="107" viewBox="0 0 108 107" fill="none" xmlns="http://www.w3.org/2000/svg">
<path d="M76.7108 20.7386L72.8757 12.6361C64.8843 -4.24765 40.4799 -3.07737 34.1408 14.4936L32.6469 18.6343C30.457 24.7043 25.598 29.4305 19.4696 31.4513L14.7272 33.0151C-2.03603 38.5428 -4.91494 61.0301 9.91511 70.6025L24.2869 79.8791C27.4871 81.9448 30.0653 84.842 31.7453 88.2605L34.8988 94.6771C42.1021 109.334 62.5453 110.52 71.3952 96.7944L77.9785 86.5839C79.4884 84.2421 81.4493 82.2242 83.7469 80.6477L98.397 70.5956C112.277 61.072 109.872 39.9066 94.2092 33.7398L87.9986 31.2945C83.031 29.3386 78.9948 25.5642 76.7108 20.7386Z" fill="#FF9894"/>
</svg>
