<svg width="1103" height="221" viewBox="0 0 1103 221" fill="none" xmlns="http://www.w3.org/2000/svg">
<path d="M147.022 56.2837C145.25 54.0255 143.402 54.0516 141.219 55.0344C143.606 58.7772 143.618 58.7824 147.022 56.2837ZM223.473 48.3955C222.933 48.8817 222.95 49.6501 223.506 50.1101C224.058 50.5649 226.433 51.809 227.359 52.0704L228.222 52.1645C228.463 52.1906 228.878 51.8195 228.99 51.532C229.115 51.2183 229.135 50.6067 228.944 50.4551L227.699 49.4515C226.238 48.5053 224.008 47.9041 223.473 48.3955ZM628.272 12.9536C629.721 14.4434 631.315 13.5338 631.809 10.941L629.318 9.73869L628.745 9.46164C627.529 10.3869 626.728 11.354 626.96 11.6153L627.089 11.7408L628.272 12.9536ZM959.186 139.51C960.631 139.41 961.112 138.752 960.253 138.051C959.393 137.351 956.239 138.009 955.068 138.239C953.901 138.469 957.737 139.609 959.186 139.51ZM975.692 157.069C975.87 157.299 975.467 157.978 974.787 158.579C974.114 159.186 973.948 161.015 974.986 160.487L975.87 160.059L976.941 159.536C978.378 159.097 978.871 158.041 978.045 157.189L977.323 156.473C977.07 156.216 976.775 155.803 976.505 155.814L976.02 155.824C975.484 156.054 975.513 156.844 975.692 157.069ZM267.713 196.191C266.543 196.191 265.866 196.917 266.215 197.801C266.564 198.684 268.353 200.388 269.519 199.902C270.686 199.416 268.888 196.191 267.713 196.191ZM673.463 11.056C672.417 11.056 672.629 12.1799 673.949 13.5599L675.327 14.0722L675.742 14.2291C677.067 12.4831 674.518 11.056 673.463 11.056ZM829.25 10.6796C830.304 11.4219 831.139 11.6415 831.105 11.171C831.076 10.7005 831.321 9.31528 831.475 8.92322C831.624 8.5364 831.143 7.17203 829.901 7.09362C828.656 7.01521 828.195 9.93734 829.25 10.6796ZM967.318 31.9657C966.002 30.6955 965.936 30.3818 967.165 31.2652C968.394 32.1487 972.288 33.4608 972.62 33.1733C972.952 32.8858 972.445 31.2652 970.585 30.4027L969.585 30.8784L967.318 31.9657ZM802.532 8.45275C803.13 7.38636 802.748 6.97861 801.685 7.53795C800.622 8.10251 797.965 7.67386 797.509 8.09729L797.513 8.48411C797.513 9.29959 796.944 10.4183 798.343 10.7946L799.094 10.9985C799.958 11.4376 801.938 9.51915 802.532 8.45275ZM947.458 137.534C947.778 136.807 946.902 136.044 945.511 135.845L944.681 136.3L943.747 136.812C943.1 138.03 942.925 139.666 943.357 140.445L943.88 140.513L944.607 140.607C945.441 140.132 947.143 138.271 947.458 137.534ZM110.142 194.246C110.648 193.07 110.918 191.188 110.736 190.054L109.22 190.477C108.71 190.618 108.087 192.05 107.792 190.744C107.448 189.254 107.053 188.627 105.771 189.536L105.563 189.682C106.036 190.832 107.145 192.437 108.025 193.258L108.98 193.702L110.142 194.246ZM491.088 14.757C488.489 14.5166 487.16 15.468 488.132 16.8637L489.655 16.4978C491.129 16.1423 492.553 15.5464 493.944 14.9243C494.122 14.8459 494.052 13.9311 493.91 13.4711C493.844 13.262 493.159 13.0006 493.035 13.1104L491.088 14.757ZM343.683 21.3488C343.761 22.0545 344.459 21.8088 345.231 20.8052C346.011 19.8067 346.261 16.686 345.214 16.9473C344.172 17.2087 341.673 18.1862 341.615 18.4581C341.557 18.7246 341.707 19.4199 342.072 19.3676C342.433 19.3153 343.608 20.6536 343.683 21.3488ZM658.236 12.2426C659.428 12.9902 659.531 12.9588 658.469 12.1747C657.402 11.3906 654.998 8.91799 654.658 9.77006C654.321 10.6169 654.824 13.2881 656.439 14.0513L656.796 13.6959L658.236 12.2426ZM262.782 23.743C262.682 24.5114 263.379 24.7519 264.326 24.2866C265.272 23.8162 267.664 22.1277 268.017 21.4586L267.377 20.6065C266.916 19.9845 267.29 18.5678 265.912 18.8658L264.604 19.1481C263.77 20.3504 262.877 22.9798 262.782 23.743ZM125.792 46.6862C125.63 45.923 124.954 45.2695 124.281 45.2277C123.617 45.1911 122.243 45.8184 121.263 46.43C120.288 47.0364 118.984 50.0997 119.026 50.5231L119.242 50.7427L119.453 50.957C119.86 50.9936 121.849 49.7808 123.866 48.2596L125.647 46.8064L125.792 46.6862ZM272.654 20.2249C271.317 20.9568 271.935 22.0754 274.019 22.7027L275.464 23.2882C276.9 23.8632 277.461 22.7289 278.137 21.9604C278.411 21.6468 278.395 20.9359 278.299 20.4497C278.229 20.0786 274.173 19.4094 273.729 19.6447L272.654 20.2249ZM1083.97 171.684C1084.27 170.414 1083.35 169.86 1081.91 170.451L1080.75 171.167C1079.83 171.731 1079 172.521 1080.48 173.608L1080.87 173.901C1081.03 175.061 1083.65 172.955 1083.97 171.684ZM891.042 8.98072C892.557 8.56776 893.603 7.59545 893.363 6.81656C893.13 6.03767 890.565 4.87196 889.888 5.20652C889.211 5.55153 889.527 9.39369 891.042 8.98072ZM914.265 8.81344C914.97 9.52437 916.236 9.13755 917.079 7.9666L917.316 7.0152C917.486 6.32518 917.121 5.3738 916.73 4.69946C916.22 3.82125 915.456 3.4501 914.443 4.2499L913.683 4.85628C912.446 5.47311 913.559 8.10774 914.265 8.81344ZM691.899 210.467C691.264 210.106 690.741 210.441 690.741 211.209C690.741 211.972 690.442 213.844 690.081 213.791C689.72 213.75 688.483 213.99 688.503 214.487C688.52 214.983 688.669 216.348 688.732 216.421C688.802 216.494 691.343 216.149 694.22 215.485L694.066 214.183L693.967 213.326C693.996 212.417 692.534 210.827 691.899 210.467ZM964.637 145.051C964.134 145.568 964.62 145.803 965.712 145.573C966.808 145.343 969.73 147.633 970.934 147.581C972.138 147.534 972.508 144.429 971.187 144.277C969.871 144.131 965.139 144.538 964.637 145.051ZM170.27 30.2929C171.685 30.7373 172.835 30.8314 172.81 30.502C172.785 30.1727 173.092 28.6568 173.366 27.972C173.64 27.2819 172.765 26.5972 171.909 27.376L170.456 26.3149C169.128 25.353 168.7 27.4492 167.808 28.0765C166.878 28.7299 167.052 29.5977 167.833 30.3923C168.455 31.0248 168.837 31.7096 169.875 30.685L170.27 30.2929ZM1071.22 163.65C1071.94 164.173 1072.71 163.932 1072.92 163.117C1073.14 162.296 1071.68 159.609 1071.36 158.872L1070.42 159.844L1068.66 161.648C1067.13 161.235 1065.5 160.911 1065.04 160.932L1064.87 161.156C1064.72 161.376 1064.77 162.035 1064.97 162.181C1065.95 162.918 1067 163.54 1068.02 164.22L1068.31 164.418C1068.58 164.701 1070.5 163.122 1071.22 163.65ZM989.437 30.1466C989.387 29.122 989.104 28.8293 988.801 29.4932C988.503 30.1623 987.187 31.0875 986.36 30.4707C985.53 29.8486 982.707 29.5297 983.01 29.88C983.313 30.225 983.508 31.1607 983.064 31.5266C982.616 31.8873 982.342 32.9955 984.501 32.3212L985.443 32.7707L986.788 33.4242C988.324 33.3562 989.482 31.1659 989.437 30.1466ZM194.297 28.1392C194.982 26.5762 193.862 25.3583 191.811 25.4314L190.536 23.8266L190.478 23.7482C189.694 24.2919 188.905 25.3217 188.726 26.0378C188.544 26.754 191.13 28.2124 191.885 28.4215V28.6202C191.89 30.3975 192.433 30.7791 193.496 29.2736L194.297 28.1392ZM154.843 54.2503C154.798 55.1389 154.15 55.463 153.403 54.9769C152.656 54.4907 153.162 56.749 154.976 56.6549L156.579 56.864L159.638 57.2613C160.722 55.4212 160.821 54.1353 159.858 54.3966C158.895 54.658 156.222 53.9418 156.072 53.3407C155.923 52.7343 155.466 51.2758 155.362 51.2915C155.258 51.3124 154.889 53.3668 154.843 54.2503ZM1070.15 186.729C1070.68 186.875 1071.81 185.751 1072.66 184.23C1073.52 182.704 1070.85 179.05 1071.27 178.747L1071.25 178.506L1071.14 177.293C1069.87 176.865 1068.65 176.833 1068.42 177.231C1068.2 177.628 1069 179.374 1069.31 180.09C1069.62 180.796 1069.13 182.861 1069.65 183.676C1070.18 184.486 1069.63 186.577 1070.15 186.729ZM1056.39 60.1886C1056.71 59.807 1056.39 57.7579 1055.68 55.6303L1052.71 55.5832L1049.91 55.5414C1048.61 57.6063 1048.34 60.2461 1049.3 61.4118L1049.77 61.2864L1051.02 60.9623C1052.26 60.0736 1053.57 59.6554 1053.93 60.0213C1054.29 60.3925 1056.07 60.565 1056.39 60.1886ZM1036.5 45.0918C1037.36 43.5706 1036.77 41.7358 1035.19 41.0092L1033.86 40.7373L1031.89 40.3401C1029.68 40.1623 1028.51 40.6067 1029.3 41.3333C1030.1 42.0599 1035.63 46.6077 1036.5 45.0918ZM247.746 19.9845C247.949 19.3519 248.256 18.6253 248.426 18.3744C248.597 18.1235 250.257 18.3744 251.914 18.8762L253.852 16.9473L254.707 16.1005C255.563 16.4978 257.194 16.8219 258.34 16.8166C259.486 16.8166 263.429 14.3545 263.629 14.4747L263.649 14.6211L263.795 15.5202C263.907 16.5134 265.177 16.7278 266.609 15.9959C268.041 15.2641 273.583 16.5239 275.364 16.6912C277.145 16.8584 282.172 14.4225 283.223 14.5688C284.273 14.7152 286.996 16.043 287.835 16.205C288.678 16.3723 290.986 14.8982 291.579 14.6629C292.181 14.4277 293.634 14.4695 293.655 13.3613C293.676 12.2479 296.951 14.135 297.943 14.1036L298.616 13.6331C300.314 12.4361 300.542 13.1104 301.073 14.8093L301.472 16.09C302.543 14.5061 303.975 13.6227 304.652 14.135C305.333 14.6525 308.405 14.8302 309.891 14.4277L310.966 13.607L311.95 12.849C312.967 13.0006 314.374 13.3038 315.084 13.5234L315.491 13.9572C316.209 14.7152 316.67 15.7241 317.388 16.4821L317.546 16.6494C318.247 16.3096 318.746 15.4732 318.654 14.7936C318.559 14.1193 320.672 12.9693 322.245 12.572L323.54 13.7638L323.86 14.0513C325.317 14.9557 327.243 15.0341 328.136 14.2238L329.033 13.6854L329.556 13.3718C330.307 13.3456 330.884 13.9102 330.83 14.6316L330.78 15.285L330.747 15.6927C330.701 16.1371 331.212 16.4769 331.88 16.435L332.146 16.1109C332.682 15.4418 332.897 14.5061 333.4 13.7952L334.027 12.8961C334.948 13.2777 336.165 13.4711 336.725 13.3299C337.294 13.1836 340.171 13.492 342.234 15.5098L344.986 13.4763C345.385 13.1783 346.642 13.2724 346.804 13.5756L347.95 15.745C349.503 14.8302 351.147 13.6018 351.603 13.0163C352.064 12.4256 353.816 11.2965 354.198 12.1904C354.576 13.0843 356.444 14.9504 357.345 13.952L358.27 13.6959L359.869 13.2358C361.77 13.1261 363.555 13.0058 363.837 12.9692C364.115 12.9327 365.792 12.389 367.021 12.0701C368.254 11.7513 372.787 13.8004 373.244 13.1052L373.821 12.687L374.34 12.3054C375.091 12.1485 375.419 12.5197 375.058 13.1418L375.141 13.6279C375.224 14.0931 375.818 14.5009 376.254 14.8563L377.275 15.6823C377.433 14.6891 377.773 13.3979 378.035 12.8177C378.3 12.2374 380.542 11.2442 382.568 11.5683L384.274 11.9708L384.635 12.0597C384.992 12.619 385.146 13.0581 384.98 13.0424C384.818 13.0215 384.241 14.3022 383.759 15.7868C383.286 17.2714 378.902 16.7435 378.566 16.9578L378.466 17.2505L378.354 17.5642C378.446 17.998 380.297 19.514 382.472 20.9463L385.001 19.6238L386.068 19.0644C387.408 18.6724 387.404 17.9458 386.063 17.4439C384.723 16.9473 386.337 12.5354 387.628 11.8715L389.198 11.8297C392.07 11.7565 395.018 12.6347 397.882 11.1501C398.658 10.7528 400.34 11.3174 401.112 12.0179L401.888 12.7236C402.241 14.2029 402.88 14.71 403.3 13.8475C403.727 12.9849 405.853 10.9044 407.106 11.0717C408.368 11.239 412.345 10.7371 413.3 9.16891L414.359 10.1778L414.633 10.4392C414.903 10.7476 415.662 11.861 416.314 12.917L417.705 11.9656L418.095 11.7042C418.95 11.8244 419.751 12.4465 419.88 13.079C420 13.7115 420.739 15.4157 421.026 14.3859L421.109 13.8684C421.171 13.492 421.001 13.0424 421.142 12.7288C421.678 11.5735 422.392 11.7669 423.301 12.3995C425.501 13.9259 423.815 10.9462 424.878 10.9201L425.534 10.8992C426.285 10.5594 427.938 10.6796 429.208 11.1658L430.329 10.0367C430.644 9.71779 431.624 9.50346 431.778 9.69165L434.244 12.687C435.8 10.3189 437.967 9.27869 439.063 10.3764C440.155 11.4742 444.966 10.2667 445.805 10.9253C446.639 11.584 450.417 9.77529 452.285 9.95302L453.867 8.94413L454.099 8.79253C454.614 9.0539 456.383 9.66029 458.035 10.1308L460.692 9.59756L462.58 9.21596C462.867 10.6221 463.801 11.1867 464.66 10.4705C465.515 9.75438 468.807 10.711 469.272 10.7058C469.737 10.7058 471.473 9.78051 472.813 9.17413L474.3 9.57665L475.993 10.0367C477.94 9.81188 479.754 9.90075 480.033 10.2405C480.307 10.5751 481.162 10.6221 481.71 10.0628C482.258 9.49823 484.749 7.82546 485.184 8.45798C485.616 9.0905 487.102 10.596 487.903 10.8626C488.709 11.1292 492.138 10.6274 493.749 9.86939C495.368 9.11141 499.71 9.86416 500.586 9.87461C501.462 9.88507 504.123 8.97026 504.837 9.35709C505.555 9.74392 507.809 10.7371 508.233 10.6849L508.457 10.4653L509.748 9.22641C511.475 9.40414 513.289 9.54528 513.779 9.5296C514.264 9.51915 516.406 8.96504 517.644 8.81867C518.885 8.67753 521.674 9.05913 521.845 7.08316L524.281 8.83958L524.705 9.14277C525.203 9.38324 526.54 9.53483 527.686 9.48779C528.831 9.44074 532.684 9.9112 533.85 9.17413C535.013 8.43707 538.944 7.585 539.733 7.59022L540.185 7.95614C541.186 8.75594 541.871 9.83802 543.461 9.68119L544.818 9.55051C545.486 8.5573 546.458 7.59022 546.973 7.39681L547.487 7.33931L549.052 7.15112C550.7 6.63883 553.096 5.85472 554.379 5.3947L555.3 7.14066C556.213 8.88662 557.866 9.02777 559.46 7.73659L567.061 6.63884L569.282 6.8793C571.723 7.12499 574.413 7.21385 575.26 7.08316C576.111 6.95248 578.116 8.55208 578.24 7.76273C578.361 6.96817 579.266 6.30428 580.042 7.61113C580.814 8.92322 586.028 7.44385 587.867 7.52227C589.71 7.60068 594.812 6.26768 595.277 6.06904L595.435 6.19972L598.441 8.75594C602.276 8.30638 605.722 8.08161 606.104 8.25411L606.179 8.16524C607.254 6.90021 608.163 6.14746 610.052 7.18249L610.944 7.67387C612.53 7.00998 615.129 6.23109 616.715 5.94358L618.118 5.90177L620.09 5.84949C622.199 6.0429 624.262 6.54474 624.669 6.96294C625.075 7.38636 626.354 8.1966 626.524 7.77318C626.699 7.34453 627.981 6.18927 629.057 5.99586C630.136 5.80244 633.698 5.65084 634.449 6.16313L634.428 6.68588L634.354 8.95982C635.794 8.63571 638.206 7.92478 639.713 7.38636L641.232 8.40048C641.888 8.83958 643.437 8.87617 643.918 8.39524C645.18 7.14589 646.604 7.49613 648.016 7.28703L649.377 7.08839C650.834 6.61269 652.607 6.01154 653.309 5.76062C654.014 5.50448 656.136 6.99953 657.273 6.79043C658.411 6.5761 661.923 6.20495 662.537 6.19972C663.147 6.1945 664.625 5.3372 664.986 5.70312C665.352 6.07427 668.174 8.26979 670.454 9.76484L670.694 5.50448C670.694 5.42084 671.985 5.17515 672.517 5.3947L675.676 6.73293C677.158 6.18405 680.961 5.5463 684.124 5.3163H687.25C687.594 6.57611 690.583 6.93157 693.892 6.10041L696.989 6.29383C697.765 6.3461 697.636 7.8516 696.702 8.45275L696.291 8.71935C695.565 8.8448 695.482 9.2055 696.113 9.51914C696.74 9.83802 698.516 9.93212 698.516 8.94413C698.516 7.96138 699.484 4.79878 700.667 4.574C701.85 4.35445 706.005 5.82858 707.359 5.55153L708.629 5.56198C710.04 5.57243 711.61 5.62471 712.822 6.24678L714.918 7.32886C716.89 6.47679 719.256 5.33198 720.17 4.78833C721.087 4.24467 722.552 6.95248 722.719 6.97861C722.885 6.99952 723.794 6.40883 724.578 5.84426L725.504 6.65974C726.907 7.89865 727.733 7.79932 727.887 5.61425L727.929 5.03924C728.78 4.43809 729.905 4.69423 730.428 5.62471C730.951 6.54997 734.122 5.95404 735.837 5.82858C737.555 5.6979 742.624 5.29539 743.359 5.42085L743.691 4.40672C743.774 4.15058 745.21 3.95193 745.464 4.23944C746.078 4.93991 745.763 6.88453 747.377 6.05859L748.013 5.73449C748.233 4.16626 749.972 3.6958 751.886 4.69423L753.662 5.60903C754.061 5.8129 758.424 5.28493 758.748 4.96606C759.948 3.78466 761.118 2.56666 761.542 5.52539L761.567 5.70835C761.936 5.84949 762.895 6.12654 763.709 6.32518C764.518 6.52905 766.934 6.97339 767.212 6.60224C767.499 6.22587 768.362 4.97651 768.499 4.74128C768.636 4.50081 769.915 3.64351 771.032 3.36646C772.152 3.09463 775.274 4.23422 775.42 3.95194C775.569 3.66443 777.346 3.40828 777.935 4.00944C778.529 4.61582 780.916 6.18927 781.468 5.70835C782.024 5.2222 783.784 4.29172 784.187 4.68378C784.598 5.07583 786.018 5.82859 786.113 5.18561C786.217 4.54264 787.151 3.78465 787.994 4.85628L788.787 4.91379L790.393 5.03924C790.921 6.30428 791.838 6.64406 792.432 5.79199C793.021 4.94515 794.86 2.84894 795.018 3.29328C795.176 3.74283 796.097 4.574 796.753 4.23421C797.405 3.8892 799.414 3.2201 799.576 3.61215L799.705 4.05648C800.083 5.37902 801.477 5.40516 801.635 4.6315C802.179 2.00733 803.574 2.11711 805.155 3.20964L806.409 4.0774C807.625 3.68011 809.834 2.896 811.316 2.33666L812.458 3.70624C813.715 5.2222 815.065 5.62471 816.721 4.33877C816.862 4.22899 817.456 4.50604 817.668 4.75696L819.021 6.37223C819.523 5.73449 820.316 4.63673 820.785 3.93625H821.2L823.006 3.95716C824.966 4.26035 826.825 4.47991 827.141 4.44332C827.456 4.41195 828.855 3.87875 829.656 3.69056C830.458 3.50237 833.496 5.58289 834.505 4.92423C835.518 4.27081 838.466 3.50761 838.877 4.65764C839.292 5.8129 843.219 3.74284 844.921 3.57034C846.623 3.39783 851.14 4.77264 851.252 4.10876C851.355 3.43964 851.995 1.72505 852.344 2.32098L852.501 2.66599L852.651 2.98486C852.771 3.356 854.008 3.7742 855.407 3.90489C856.802 4.0408 859.791 5.56199 859.085 6.22064C858.375 6.8793 848.952 7.1093 846.997 7.54317C845.05 7.97705 845.199 9.3205 846.415 8.86049L847.652 9.39892L847.781 9.45119C848.134 9.00686 849.338 8.10774 850.455 7.45954C851.576 6.81134 853.14 10.481 853.61 10.643C854.079 10.7999 854.689 9.38846 854.635 8.75071L854.776 8.22274C855.328 6.137 855.208 6.56042 853.938 6.06904L852.385 5.46789C850.944 5.92267 849.55 6.47678 849.288 6.69634L849.014 6.87407L847.549 7.82023C849.201 7.23476 851.849 7.66341 853.439 8.77162C855.029 9.88506 858.546 10.1151 859.5 9.82756C860.451 9.54005 863.88 10.3189 864.752 9.96348C865.619 9.60801 865.553 7.32885 865.279 6.82702C864.997 6.33041 863.664 5.02356 862.954 5.02356C862.244 5.02356 861.198 4.58446 862.207 4.04603C863.212 3.50761 865.939 1.63618 866.118 1.25458C866.292 0.872979 868.33 1.05072 868.625 1.30163C868.924 1.55778 870.252 3.2776 870.867 4.14012C871.485 5.00265 874.943 6.8427 875.226 7.22953C875.512 7.61636 875.944 5.90177 875.811 5.24834L875.458 5.0706L874.225 4.43808C872.872 3.9467 872.075 2.88031 872.461 2.07006L872.262 1.7721C871.768 1.02458 871.523 0.130688 872.573 0.522745L874.287 1.16049C876.18 1.45323 878.692 2.01256 879.867 2.40985C881.046 2.8019 885.915 1.34345 886.604 1.04026C887.298 0.742292 888.825 0.412967 889.784 0L890.693 0.412969C890.847 0.480926 891.154 0.339784 891.233 0.433878L891.852 1.17617C892.499 2.02824 893.429 2.25825 893.923 1.68846C894.417 1.11867 896.244 1.17617 897.111 1.67278C897.979 2.16938 901.25 1.16049 902.549 1.97597L903.641 2.84372C903.774 2.94827 903.205 3.85261 903.127 4.41195L903.052 4.91379C903.168 5.50971 903.608 5.13333 904.032 4.08785C904.455 3.04236 907.224 2.14325 907.099 1.84529C906.975 1.54732 907.357 0.606381 908.287 0.564561C909.212 0.522742 913.007 2.0021 914.563 2.65031C916.124 3.30373 920.645 1.83482 920.969 1.92892C921.293 2.02301 922.028 2.56143 921.87 2.89599C921.708 3.22532 920.658 4.17149 920.114 4.56878C919.566 4.96606 920.961 8.59389 923.331 9.01732L924.269 6.73293L925.016 4.91379C923.638 2.55622 923.8 0.381606 925.373 0.0836428L925.838 0.501837C926.781 1.34868 927.038 2.96396 928.674 3.07896C928.703 3.08419 928.715 3.3351 928.732 3.47101C929.035 6.08472 929.047 6.00632 931.517 6.4036L932.771 6.60224C934.411 7.21385 935.748 6.74338 935.748 5.56198C935.748 4.38058 936.329 1.54209 937.039 1.42186L937.221 1.59959L938.151 2.52485C939.106 3.63306 939.098 4.71514 938.135 4.93469C937.176 5.14902 937.421 8.05023 938.168 8.17569C938.915 8.30115 940.987 6.42451 941.319 6.82702C941.655 7.2243 942.83 8.19661 943.208 8.11819L943.415 7.9666L943.718 7.75227C943.992 7.4334 944.64 6.83224 945.15 6.41405C945.661 5.99586 947.811 8.11819 948.239 7.44386C948.658 6.76429 950.232 5.58812 950.995 6.00109C951.763 6.41929 954.275 7.05703 954.794 6.77474C955.317 6.49246 956.641 5.24834 956.799 5.97495C956.961 6.70156 957.882 8.46844 958.526 8.40048L958.953 8.15479L961.693 6.58133C964.209 8.07114 966.588 9.51392 966.99 9.79097C967.385 10.068 968.551 10.6326 968.68 10.4549C968.809 10.2771 969.083 9.12186 969.278 8.2907C969.469 7.46477 971.864 8.02933 972.508 8.3273C973.147 8.62003 974.865 8.45798 974.928 8.99641C974.986 9.54006 977.281 8.71412 978.016 8.03979C978.751 7.36022 981.943 6.86884 982.383 6.39837L982.832 5.98017C983.093 5.73971 983.666 5.37379 983.724 5.4313L986.381 8.28547C986.668 5.85994 987.975 4.21331 989.3 4.62628C990.616 5.03924 992.504 8.6723 992.646 8.15479C992.787 7.6425 993.247 6.42451 993.459 6.21018C994.402 7.13021 995.444 7.97705 996.187 9.04867C996.407 9.37277 995.705 10.2928 995.585 10.9671L995.481 11.5997C995.539 12.3263 996.141 12.9902 996.805 13.0633L997.083 12.7915C998.769 11.1135 999.516 11.6676 999.906 13.79L999.927 13.9206C1000.92 13.8579 1001.76 13.3299 1001.79 12.7497C1001.83 12.1694 1001.84 10.9149 1001.25 10.7633C1000.65 10.6117 1001.59 8.71412 1002.41 8.47889C1003.24 8.24365 1004.85 10.9253 1005.12 12.4779L1004.99 13.8736C1004.94 14.4225 1003.95 15.3268 1003.43 15.3007L1001.17 15.1909C998.694 14.757 996.743 15.1125 996.826 15.975C996.909 16.8428 1000.61 17.2923 1001.13 18.2019C1001.65 19.1115 1001.79 20.8261 1001.93 21.4481C1002.07 22.0702 1001.3 24.2657 1000.62 25.2485L999.894 26.0692C999.01 27.0572 998.055 27.9772 997.117 28.9181L997.034 29.007C996.863 29.0279 996.764 28.0974 996.813 26.9369C996.859 25.7817 995.157 22.7445 994.414 23.3405C993.667 23.9364 991.77 25.9124 992.235 26.5501L992.587 26.8742L993.04 27.2976C993.6 27.6845 993.795 28.2386 993.467 28.5208C993.144 28.8084 992.6 29.9427 992.99 30.4132C993.376 30.8836 1000.87 32.0964 1000.34 32.3316C999.811 32.5669 999.358 33.1314 1000.47 33.0739C1001.59 33.0164 1002.52 35.7922 1002.87 35.7347C1003.22 35.6824 1004.05 35.2904 1003.93 34.9924C1003.81 34.6944 1004.07 34.0828 1004.77 34.2919L1005.41 34.4853C1007.51 35.8236 1008.5 36.9945 1007.59 37.0886C1006.69 37.1827 1004.12 38.0661 1004.12 38.8189C1004.13 39.5769 1005.13 41.1712 1005.77 42.1278C1006.41 43.0792 1009.8 43.5497 1010.04 43.2727C1010.28 42.9956 1011.85 42.3788 1012.77 42.797C1013.69 43.2152 1015.77 43.4661 1015.15 42.3317C1014.54 41.1974 1017.5 37.1147 1018.7 35.1963L1020.04 35.1492L1021.99 35.076C1022.55 33.6908 1023.09 33.0844 1023.18 33.7274C1023.27 34.3703 1023.94 36.2365 1024.36 35.5831C1024.78 34.9297 1026.55 34.0306 1027.49 34.8669C1028.42 35.7033 1031.73 37.6218 1032.77 37.2611C1033.8 36.9004 1036.69 34.6056 1038.85 35.3374L1040.8 35.9386C1040.85 35.9543 1041.03 35.2851 1041.25 35.0342C1041.66 34.5794 1042.2 33.8162 1042.61 33.8581L1044.03 34.0097C1043.69 35.1492 1043.07 36.6129 1042.65 37.2768C1042.24 37.9355 1042.6 41.0039 1044.86 42.039L1046.04 38.7875C1046.31 38.04 1047.75 37.5957 1048.73 37.3186C1049.11 37.2141 1049.98 37.857 1050.17 38.3432C1050.45 39.0802 1050.41 39.8696 1051.37 38.9496C1052.18 38.1655 1053.03 38.0243 1053.56 39.1116C1053.95 39.9219 1054.36 41.0667 1054.09 41.7985C1053.6 43.1106 1052.56 44.2084 1051.8 45.4264L1051.03 46.6548C1051.61 47.9146 1053.32 49.4619 1054.83 50.0944C1056.33 50.727 1059.45 51.0458 1060.57 51.0354C1061.67 51.0249 1066.17 54.2346 1066.83 55.3428C1067.49 56.451 1071 57.1096 1071.23 57.4024C1071.45 57.7003 1071.41 59.9638 1071.27 62.2953L1072.57 64.1981L1073.05 64.9038C1073.35 65.8708 1072.68 67.1463 1071.57 67.7266L1070.79 68.6204C1069.54 70.0528 1069.66 70.1678 1068.7 69.3889C1068.55 69.2739 1068.44 69.1014 1068.3 68.9916L1066.73 67.7997C1066.06 69.3314 1065.19 69.713 1064.78 68.6414C1064.38 67.575 1060.7 67.345 1059.67 67.5593C1058.64 67.7736 1055.78 69.0177 1057.13 69.5352C1058.49 70.0475 1061.03 71.966 1060.53 72.9383L1061.59 73.5865L1063.34 74.6634C1064.53 72.9644 1065.56 71.8562 1065.62 72.196C1065.68 72.5358 1066.61 73.4035 1067.39 73.5813C1068.18 73.7538 1067.24 76.5295 1065.96 76.8589L1065.3 77.7109L1064.56 78.6519C1063.93 80.2985 1063.82 81.8563 1064.32 82.1177C1064.82 82.379 1065 84.2296 1063.71 85.6985C1062.43 87.1674 1059.48 91.0252 1059.88 91.1768C1060.28 91.3284 1061.1 92.4418 1060.56 93.2207L1060.08 93.2364L1059.09 93.2782C1058.11 93.6023 1057.03 94.9615 1056.7 96.3101L1057.79 97.4184C1058.13 97.7634 1056.44 104.042 1055.97 104.407L1054.84 105.275C1053.61 106.185 1052.59 107.497 1052.58 108.182C1052.57 108.866 1051.05 111.187 1050.71 112.107L1050.2 112.792L1049.06 114.324C1049.84 115.897 1050.47 118.527 1050.47 120.158L1050.18 121.627L1049.77 123.718C1051.26 123.953 1051.88 124.716 1051.13 125.422C1050.39 126.122 1047.21 128.129 1045.95 128.098L1044.65 128.161L1042.71 128.26C1041.26 129.672 1039.66 130.978 1039.14 131.156L1039.09 131.067C1037.95 128.955 1036.8 131.987 1035.5 131.005C1034.43 130.184 1033.02 129.781 1031.63 129.384L1031.5 129.347C1030.96 130.675 1029.65 131.177 1028.58 130.461C1027.51 129.745 1024.48 131.632 1024.23 131.684L1024.15 131.59C1023.27 130.539 1021.92 131.574 1021.33 131.182L1019.65 130.048C1018.21 130.874 1015.81 130.795 1014.31 129.881L1012.77 131.35L1012.49 131.616C1011.84 131.486 1009.35 130.649 1006.96 129.76L1004.78 131.486L1004.42 131.768C1003.75 131.658 1002.53 131.726 1001.69 131.925C1000.86 132.123 998.055 131.01 997.378 130.759C996.701 130.508 994.464 130.937 993.775 131.412C993.086 131.883 989.312 131.287 987.755 131.465L986.298 131.574C985.605 131.627 984.654 131.637 984.231 131.219L983.193 130.215C982.217 130.743 980.104 131.642 978.49 132.207L977.037 132.787C976.646 132.944 976.397 133.482 976.082 133.848L975.285 134.789C974.882 133.775 974.147 133.143 973.649 133.388C973.151 133.629 971.615 136.012 971.644 138.009L971.54 139.891L971.519 140.215C968.78 140.2 965.915 140.482 965.156 140.853L965.542 140.482L968.236 137.915C968.198 140.163 968.78 141.82 969.535 141.601C970.282 141.386 970.345 138.935 970.316 138.004C970.287 137.068 969.07 134.533 968.726 134.219C968.381 133.901 966.459 135.469 965.691 136.284C964.923 137.105 969.361 141.109 972.811 142.238L973.778 141.256L974.878 140.142C975.854 138.276 977.771 137.183 979.141 137.722C980.507 138.26 983.87 140.126 983.774 138.804L984.031 137.994L984.131 137.685C985.065 137.617 985.738 137.805 985.626 138.109C985.505 138.407 985.592 139.478 986.157 139.567C986.722 139.656 988.15 140.283 987.992 140.754L987.913 140.749L986.34 140.597C984.995 141.778 984.787 143.033 985.866 143.378L986.24 143.043L987.793 141.648C989.652 141.689 991.936 142.008 992.866 142.359C993.8 142.709 996.016 140.827 996.436 140.686L996.693 140.837L997.664 141.397C998.636 142.04 1000.25 142.244 1001.27 141.852L1002.26 142.772C1002.57 143.059 1003.48 142.657 1004.12 142.594L1004.51 142.552C1004.94 142.547 1005.29 143.064 1005.29 143.692V145.03C1005.29 145.871 1004.63 147.638 1003.83 148.956L1002.12 148.882L1000.31 148.804C997.785 148.835 998.092 150.539 1000.99 152.589L1004.04 152.338L1005.31 152.233C1005.97 151.277 1007.2 150.309 1008.03 150.085L1009.33 151.277C1009.41 153.111 1009.96 155.187 1010.55 155.887L1011.38 155.704C1011.68 155.636 1012.03 154.8 1011.97 154.382L1011.91 154.026C1011.36 153.718 1010.18 153.754 1009.29 154.11L1008.16 153.739C1007.44 153.498 1006.6 154.606 1005.05 154.099L1002.95 153.42C1000.2 154.126 997.158 155.814 996.187 157.168L997.445 158.621L997.764 158.987C998.42 159.233 1000.53 157.926 1002.45 156.086L1005.06 157.257L1009.4 160.189L1011.3 157.8C1010.3 156.049 1009.97 153.838 1010.56 152.887C1011.15 151.935 1013.35 150.121 1014.56 151.616L1015.15 152.725C1015.38 153.169 1015.1 154.073 1014.78 154.596L1014.36 155.286C1013.87 157.942 1014.58 159.881 1015.95 159.593C1017.32 159.306 1019.46 163.059 1018.87 163.582C1018.26 164.105 1016.46 166.222 1017.57 165.913C1018.7 165.61 1029.78 163.964 1031.49 163.138C1033.19 162.312 1030.9 161.778 1028.61 162.165L1026.7 163.153L1026.13 163.446C1025.4 163.566 1024.9 163.425 1025.02 163.127C1025.14 162.829 1024.88 161.763 1024.17 161.418L1024.05 161.569C1023.27 162.495 1022.68 163.577 1021.97 164.565L1021.43 165.312C1022.02 166.311 1023.44 167.482 1024.58 167.91C1025.72 168.344 1027.98 165.38 1028.29 165.04C1028.6 164.701 1029.65 165.208 1029.85 166.954L1031.96 165.872L1033.16 165.265C1030.53 164.92 1026.66 164.052 1024.55 163.341C1022.44 162.631 1022.61 160.268 1023.15 159.583C1023.7 158.893 1025.2 157.131 1025.31 157.194L1025.36 157.356C1025.66 158.354 1025.65 159.965 1026.25 160.257L1027.94 161.062C1028.02 159.562 1028.39 157.962 1028.76 157.508C1029.13 157.053 1034.06 158.077 1037.5 158.93L1040.67 157.063L1041.76 156.42C1041.56 157.555 1041.77 158.804 1042.22 159.201C1042.66 159.599 1044.36 160.383 1044.48 159.593C1044.6 158.804 1045.96 157.476 1047.32 157.936C1048.68 158.396 1047.56 162.542 1048.21 163.3C1048.86 164.058 1052.81 164.403 1055.97 162.861L1058.82 161.758L1059.17 161.616C1060.1 162.803 1061.08 163.566 1061.35 163.31C1061.63 163.049 1062.39 162.207 1062.47 161.982L1062.43 161.956L1061.27 161.125C1059.97 160.268 1058.34 159.614 1057.66 159.677L1057.02 159.74C1056.62 159.776 1056.13 159.933 1055.85 159.755C1053.3 158.187 1053.65 160.1 1053.58 161.632L1053.56 161.956C1053.32 162.301 1053.08 161.925 1053.03 161.12C1052.98 160.315 1050.54 159.881 1050.21 159.363L1050.29 158.935C1050.36 158.59 1051.14 158.025 1051.38 158.124C1052.8 158.715 1054.05 156.295 1055.64 157.952L1055.84 158.161C1057.46 157.001 1058.98 156.692 1059.24 157.471L1059.81 157.952L1060.06 158.177C1060.93 157.68 1062.22 156.886 1062.92 156.405C1063.62 155.924 1066.1 155.025 1066.41 155.819C1066.7 156.609 1067.75 158.778 1067.97 158.647L1068.33 158.527L1070.48 157.837C1072.82 157.048 1075.79 156.818 1077.07 157.335L1077.06 157.466C1076.94 159.437 1078.06 161.663 1076.11 163.357C1075.95 163.498 1076.21 164.533 1076.54 164.784C1076.85 165.014 1077.77 164.941 1077.97 164.659C1078.57 163.812 1078.93 162.782 1079.45 161.862L1079.75 161.324C1080.2 160.801 1080.71 160.911 1080.89 161.575C1081.08 162.233 1082.12 164.099 1082.63 164.329C1083.14 164.559 1084.81 164.188 1085.24 164.596C1085.66 165.004 1087 165.84 1087.14 165.443C1087.28 165.046 1088.04 164.387 1088.44 165.014C1088.85 165.642 1091.17 166.499 1092.32 164.931L1093.58 163.948L1093.66 163.885C1094.47 164.779 1094.8 165.866 1094.4 166.305C1094 166.739 1093.25 168.213 1093.88 168.313C1094.51 168.412 1096.27 169.259 1096.03 169.907C1095.78 170.561 1095.69 172.725 1096.54 172.861C1097.4 172.997 1098.19 174.408 1096.07 175.642L1094.37 176.765C1093.78 177.158 1093.19 177.801 1092.97 178.454C1092.76 179.107 1092.77 180.132 1093.14 180.608C1093.49 181.036 1094.56 181.23 1095.13 181.026L1096.32 180.597C1096.32 179.306 1096.63 177.816 1097 177.283L1097.45 177.058C1098.81 176.384 1102.81 178.266 1102.96 179.698L1103 180.111C1102.36 180.655 1101.11 181.637 1100.22 182.301C1099.33 182.97 1097.4 185.412 1097.34 185.689C1097.28 185.971 1096.58 185.955 1095.92 184.826L1095.22 184.669L1094.61 184.528C1093.56 185.438 1093.17 186.52 1093.73 186.938C1094.3 187.351 1096.25 191.036 1096.2 193.755L1096.31 196.572L1096.42 199.688C1094.07 201.496 1092.05 202.505 1091.95 201.925C1091.85 201.345 1091.1 200.21 1090.53 200.691C1089.96 201.167 1090.26 203.864 1089.67 203.969C1089.09 204.068 1087.67 205.265 1088.43 206.295H1089.01C1089.98 206.295 1090.92 205.469 1091.92 205.302C1092.68 205.182 1093.99 204.748 1093.99 206.28C1094 207.085 1093.73 208.407 1093.23 208.611L1091.5 209.327C1089.7 209.714 1088.35 208.167 1088.51 205.887L1085.8 206.489L1083.65 206.964C1084.53 209.024 1084.44 210.77 1083.46 210.838C1082.47 210.906 1079.63 210.592 1079.54 209.97C1079.45 209.348 1078.64 208.276 1077.99 209.144C1077.34 210.012 1075.27 212.077 1075.15 211.376C1075.03 210.681 1074.24 208.883 1073.75 209.541C1073.26 210.195 1070.13 211.826 1067.97 211.554L1066.47 212.495L1064.87 213.499C1063.33 213.373 1060.68 213.384 1058.99 213.53L1057.43 213.431L1056.91 213.405C1056.33 213.645 1054.42 213.53 1052.67 213.138C1050.93 212.751 1046.01 214.079 1045.6 213.849C1045.2 213.614 1043.26 213.3 1042.25 213.19C1041.24 213.08 1038.66 213.337 1037.89 212.756C1037.11 212.171 1033.91 214.727 1032.41 215.443L1032.14 212.735L1032.05 211.852C1030.99 212.39 1029.55 213.107 1028.86 213.446C1028.16 213.786 1026.88 214.978 1026.45 214.246C1026.03 213.514 1022.73 214.434 1021.79 214.575C1020.85 214.722 1018.11 214.131 1017.55 213.88C1016.98 213.635 1015.35 215.035 1015.01 215.375C1014.66 215.71 1012.95 215.093 1012.5 214.884C1012.05 214.675 1009.64 215.15 1008.16 215.95C1006.69 216.75 1001.4 214.56 999.815 214.419C998.229 214.277 994.136 216.781 993.443 216.912C992.749 217.043 990.13 216.656 989.088 217.827L987.191 216.301C986.381 215.652 984.389 216.714 982.931 216.708C981.719 216.698 980.511 216.107 979.295 216.076C978.394 216.05 977.464 216.473 976.568 216.766L974.504 217.44C974.38 215.867 974.384 215.412 974.517 216.431C974.65 217.451 971.196 216.28 969.979 216.802L968.892 216.693L964.371 216.227C959.385 215.893 953.868 215.731 952.116 215.877C950.356 216.018 945.57 217.393 945.213 217.592C944.86 217.79 943.133 218.088 941.46 218.365L941.007 217.806C939.559 216.044 937.944 217.869 937.01 217.356L935.332 216.442C933.601 216.656 931.422 216.625 930.492 216.384C929.562 216.138 925.747 217.905 923.622 218.235L921.579 216.97L920.425 216.253C918.466 216.797 916.303 216.996 915.618 216.693C914.933 216.384 913.281 217.315 912.89 216.755C912.504 216.201 910.744 215.124 909.885 215.658C909.026 216.191 905.891 217.566 905.036 217.649C904.181 217.738 901.856 217.215 901.175 216.828C900.49 216.442 896.634 217.874 894.326 218.48C892.014 219.087 885.529 217.539 885.023 218.057C884.516 218.569 882.411 217.257 881.888 217.132C881.365 217.001 879.971 217.471 879.751 217.079C879.531 216.687 878.738 215.924 878.534 216.363C878.335 216.802 876.886 217.513 875.84 216.808C874.798 216.097 871.178 217.952 870.31 218.073L869.8 217.701C867.919 216.348 866.296 216.395 864.382 217.743C862.755 218.888 861.028 216.091 859.974 216.902C858.375 218.12 856.632 218.334 855.374 217.717C854.278 217.184 853.83 217.33 852.883 217.66C852.265 217.869 850.758 216.912 850.691 217.038C849.853 218.695 848.881 216.379 848.242 217.147C847.561 217.968 847.279 217.597 846.598 217.106L845.228 216.112C843.476 216.421 839.744 217.032 836.934 217.471C834.128 217.911 824.43 217.519 823.23 217.843L822.126 217.874L818.946 217.968C815.467 217.848 811.955 218.24 811.146 218.841C810.34 219.442 806.168 218.371 804.45 218.026L802.843 217.931C800.979 217.822 799.103 217.879 797.235 217.916L796.027 217.942C795.578 216.975 795.047 216.196 794.844 216.217C794.636 216.233 793.627 216.604 793.054 217.011C792.482 217.414 790.713 218.574 790.107 218.125C789.505 217.681 785.516 218.867 782.701 218.763C779.891 218.658 771.688 217.754 770.671 217.56C769.653 217.367 766.503 218.459 765.764 217.822C765.029 217.184 761.446 218.684 760.471 218.784C759.499 218.878 755.85 219.207 754.597 219.385C753.351 219.562 749.669 218.172 748.764 218.491C747.855 218.81 744.525 218.862 743.62 218.517C742.716 218.177 738.423 218.825 736.563 218.731L734.787 218.172L733.367 217.722C731.054 218.48 726.716 219.097 723.727 219.092C720.743 219.087 711.041 219.416 708.803 219.871L708.139 216.881L708.085 216.646C706.558 216.687 705.47 217.043 705.661 217.44C705.856 217.832 705.677 219.034 704.727 219.008C703.772 218.982 700.194 219.531 698.761 220.075L697.176 219.17L696.283 218.658C695.702 217.926 694.83 217.294 694.344 217.257L694.141 217.466C693.709 217.911 693.356 219.024 693.128 218.982L688.665 218.167C683.775 219.197 679.703 219.442 679.628 218.716C679.545 217.989 678.461 216.301 677.415 216.808L676.556 216.687C674.671 216.431 675.414 218.376 674.642 218.763C673.883 219.144 672.845 218.888 671.965 219.082C670.952 219.306 670.001 219.845 668.984 220.002L668.382 220.096C667.66 219.808 666.281 219.353 665.314 219.092C664.347 218.825 661.81 219.463 661.213 219.761C660.623 220.059 657.842 219.421 656.949 219.704C656.053 219.986 651.59 220.232 649.049 221L646.799 219.129C646.247 218.669 644.711 218.71 644.122 219.181L642.241 220.681C640.282 219.944 637.621 219.165 636.326 218.956L636.172 219.296C635.014 221.821 633.461 218.538 632.124 219.74L630.842 220.885C629.422 219.981 626.699 218.888 624.789 218.454L622.975 219.824L621.7 220.786C620.721 219.249 618.786 218.297 617.396 218.669L616.985 219.369C616.03 220.995 615.278 218.632 614.514 219.453L614.278 219.709C613.979 219.928 612.381 219.782 610.716 219.379C609.06 218.977 599.968 220.232 599.474 220.357L599.304 220.185C598.154 218.987 596.693 218.344 595.472 219.526C593.961 220.974 593.646 218.287 592.197 218.919L591.093 219.406C589.47 218.689 585.958 218.459 583.284 218.883L580.831 219.024C579.378 219.108 577.007 219.395 576.621 218.689L575.575 216.755C574.487 217.586 573.263 218.224 572.86 218.172C572.453 218.12 570.809 218.256 569.597 218.046L568.559 217.999C567.609 217.952 566.637 218.726 565.641 218.993L565.517 219.029C565.18 218.329 564.528 217.43 564.064 217.027C563.594 216.619 562.461 218.318 562.071 219.17L560.975 219.066L559.605 218.94C558.09 219.003 555.466 219.207 553.764 219.385L552.162 219.118L550.555 218.852C548.72 218.967 547.13 218.522 547.022 217.869C546.919 217.215 546.586 215.621 546.499 215.616C546.404 215.611 546.063 216.133 545.939 216.771C545.814 217.414 544.814 219.149 544.029 218.972L543.755 218.616C542.257 216.646 542.294 216.619 540.202 218.355L539.973 218.548C539.724 218.731 537.786 219.061 535.664 219.275C533.543 219.494 527.997 217.247 527.349 217.701C526.702 218.156 525.448 217.226 526.05 216.609C526.648 215.992 527.764 214.204 526.648 214.555C525.535 214.91 523.007 217.074 522.579 217.827L522.198 217.822C521.371 217.816 520.554 217.142 519.727 217.132C518.997 217.121 518.27 217.775 517.507 217.869C516.614 217.979 515.539 218.088 514.796 217.696L512.189 216.321C509.407 217.1 506.331 217.79 505.343 217.858L504.542 217.571C503.243 217.095 500.279 216.306 499.087 216.802L496.621 217.832C494.388 216.666 492.275 216.259 491.922 216.933C491.573 217.602 486.185 216.902 482.955 216.771L479.962 216.75L477.729 216.74C475.304 216.609 471.581 217.001 469.447 217.607L467.392 216.823C466.267 216.395 463.344 215.454 462.452 214.879C462.008 214.591 460.671 214.785 460.65 214.91C460.293 217.184 459.43 217.529 457.856 215.841L457.744 215.72C457.553 215.668 455.631 216.165 453.477 216.839L451.824 216.358C449.803 215.762 448.238 215.098 446.365 216.651C445.888 217.048 444.651 216.557 443.787 216.358L443.119 216.201C442.418 215.893 441.205 216.091 440.421 216.646C439.636 217.205 436.049 216.248 435.086 216.107C434.119 215.966 429.872 215.961 427.817 216.41L426.306 214.643C426.273 214.602 425.825 215.035 425.542 215.093L420.901 216.05C418.394 215.349 416.015 214.753 415.604 214.717C415.201 214.685 411.939 215.02 408.842 215.03L406.06 215.501L405.782 215.543C405.267 214.314 404.678 213.959 404.479 214.748C404.271 215.537 399.63 216.06 396.79 216.557L394.524 214.502L394.333 214.325C393.66 214.696 391.796 215.035 390.19 215.072L388.741 214.502C387.541 214.032 386.562 216.912 384.972 214.92C384.71 214.596 383.743 214.821 383.108 214.858C382.705 214.884 382.298 215.171 381.92 215.119L381.269 215.03C380.609 214.811 378.873 215.046 377.412 215.553L376.524 214.173C375.303 212.27 374.39 215.37 372.908 214.163C371.409 212.939 372.231 211.219 371.322 210.2C370.903 209.724 369.462 209.693 368.798 210.054L367.457 210.786C366.137 211.967 365.344 213.039 365.689 213.169C366.033 213.295 365.801 213.98 364.269 214.345L362.874 214.037C362.027 213.854 361.189 213.3 360.371 213.352L357.814 213.514C356.269 211.612 355.007 210.634 355.007 211.34C355.007 212.04 353.774 214.811 352.263 214.748C350.756 214.696 347.386 212.443 347.195 212.788L346.97 213.065L346.584 213.54C346.157 214.011 344.505 214.257 342.923 214.095C341.345 213.933 336.841 212.803 336.331 212.296C335.82 211.794 334.259 211.737 334.189 212.505C334.122 213.279 331.897 213.295 331.785 213.269C331.669 213.248 331.316 211.8 331.158 209.949L328.8 211.7C327.712 212.511 326.284 212.877 324.96 213.269L324.279 213.472C323.171 213.378 322.258 212.469 322.245 211.455L322.27 210.566C322.291 209.583 322.349 208.538 320.946 208.721C319.489 208.904 320.194 210.153 320.012 210.958L319.929 211.303C319.655 211.998 319.148 212.087 318.812 211.507C318.476 210.927 316.811 210.242 316.085 211.638L315.499 212.485C315.238 212.861 314.686 213.269 314.295 213.237L313.934 213.211C313.602 212.699 313.121 211.533 312.871 210.618C312.622 209.704 310.451 209.291 310.92 209.578C311.398 209.871 310.8 212.15 308.55 213.985L306.553 211.685L305.76 210.77C304.951 211.193 303.664 211.993 302.904 212.547C302.14 213.096 298.188 211.23 297.835 211.026L297.516 211.031L297.196 211.042C296.852 211.256 296.698 211.622 296.856 211.852C297.009 212.082 295.581 213.363 293.136 213.912L291.824 213.107L289.79 211.868C287.843 212.333 286.423 212.249 286.639 211.69C286.855 211.125 285.66 207.952 283.351 206.29L280.296 208.344L278.424 209.604C275.352 208.475 273.529 207.628 274.376 207.717L274.447 207.524L275.323 205.171C277.212 205.657 278.997 206.144 279.283 206.259C279.574 206.368 279.785 204.403 277.755 204.596L276.643 203.76L274.185 201.92C273.442 203.749 272.774 204.931 272.699 204.539C272.629 204.147 271.94 202.992 271.325 202.845C270.715 202.688 269.349 204.136 269.204 204.518C269.054 204.905 267.659 206.421 266.692 207.335C265.733 208.256 264.272 212.626 264.127 211.753C263.981 210.88 263.089 208.736 262.441 208.778C261.79 208.825 259.664 208.475 259.195 208.256C258.726 208.041 257.584 208.606 258.203 208.977C258.826 209.348 260.469 210.749 260.552 211.162L260.44 211.497C260.374 211.711 259.917 211.998 259.739 211.936L258.597 211.549C257.115 210.937 255.899 209.871 255.899 209.17C255.899 208.47 255.338 206.546 254.653 206.823C253.973 207.105 253.425 209.787 253.167 210.54C252.918 211.298 250.357 210.927 250.099 210.822C249.85 210.723 249.269 208.862 250.033 207.168C250.797 205.475 251.1 202.04 249.983 203.723C248.862 205.396 245.392 209.207 244.665 208.585C243.943 207.963 242.332 209.96 242 210.671C241.672 211.376 238.878 211.612 238.434 210.728C237.982 209.845 241.602 208.25 242.561 207.827C243.515 207.398 246.276 206.102 246.492 205.689C246.708 205.276 246.895 203.718 246.799 203.232L246.6 203.174C246.131 203.049 245.35 202.95 245.139 203.211L244.358 204.178C243.64 205.354 242.839 206.274 242.573 206.227C242.307 206.18 241.548 205.522 241.502 204.894C241.456 204.267 240.344 202.312 239.958 201.747C239.568 201.183 238.314 199.855 238.044 200.069C237.77 200.278 236.255 201.564 235.441 202.72L236.383 202.782L238.538 202.939C239.451 204.492 240.203 205.929 240.215 206.138C240.228 206.342 239.526 207.341 238.604 207.414L237.77 207.566L237.089 207.686C236.367 207.947 235.532 208.329 235.238 208.533C234.943 208.742 233.785 207.911 233.353 208.323C232.921 208.736 231.585 209.019 231.203 208.161C230.825 207.304 228.645 205.339 227.487 206.353L226.69 207.064L225.852 207.806C225.179 207.226 223.602 206.138 222.352 205.386L221.572 204.147L220.791 202.903C219.562 203.676 218.014 204.622 217.346 205.009L216.997 205.537L216.312 206.567C215.652 207.947 214.099 208.658 212.866 208.146C211.633 207.633 209.491 205.563 208.678 205.281C207.864 205.004 205.934 204.811 206.266 205.95L205.988 206.274C205.448 206.896 204.439 207.064 203.787 207.618L203.621 207.759C203.949 208.538 203.928 209.327 203.58 209.51C203.235 209.688 202.214 209.008 201.861 208.219C201.508 207.435 198.486 205.292 196.153 205.678L196.369 208.966C196.427 209.892 193.745 210.315 193.268 209.406C192.782 208.496 192.948 207.68 194.302 207.477C194.704 207.419 195.385 206.3 195.248 205.976L194.688 204.67C194.206 205.511 192.654 206.05 191.242 205.867C189.831 205.689 186.057 207.268 185.576 206.985L185.086 206.881C184.467 206.745 183.629 206.515 183.205 206.808L181.466 207.999C179.664 207.309 177.9 206.651 177.551 206.53C177.198 206.415 175.488 206.656 173.968 206.813L172.777 205.783L172.395 205.454C171.656 205.187 170.93 205.548 170.784 206.248C170.639 206.954 168.941 209.332 167.459 209.39C165.973 209.437 161.946 209.118 161.793 209.453L161.614 209.751L161.39 210.127C161.116 210.514 160.788 210.524 160.668 210.153L160.485 209.855L160.012 209.081C159.501 208.323 157.882 208.517 156.421 209.505L156.23 209.301L154.856 207.837C153.893 208.783 152.651 209.353 152.099 209.102C151.547 208.851 149.007 209.327 147.965 208.862C146.918 208.402 143.44 210.001 142.56 210.247C141.684 210.493 138.881 209.484 137.69 210.263L136.27 208.789L135.212 207.686C133.46 208.438 130.861 209.061 129.437 209.071L128.188 209.829L126.905 210.603C125.577 209.954 123.833 208.736 123.032 207.884L121.981 209.458C121.068 210.827 120.176 208.794 119.296 208.789C118.328 208.783 116.863 210.075 116.481 209.745C115.007 208.48 113.401 208.606 111.807 208.736C109.872 208.893 107.705 207.848 106.04 209.766L105.87 209.965C105.38 209.892 104.276 209.505 103.421 209.102C102.566 208.7 98.9043 208.193 97.1774 208.878L95.7119 208.611C92.6358 208.046 89.6178 207.074 86.6579 206.034C86.0103 205.809 85.7363 204.56 85.2049 203.849C84.9268 203.472 84.4494 202.986 84.0799 203.002C83.3576 203.033 82.5647 203.682 81.9628 203.504L81.5476 203.378C81.311 202.432 80.24 201.355 79.1731 200.974C78.1062 200.592 74.9138 201.141 74.1708 201.293L73.4484 200.712C71.9207 199.489 70.0319 199.181 66.9226 199.191C66.661 199.191 66.0508 198.005 66.1836 197.816C66.852 196.902 68.0974 196.243 65.7187 195.95C64.6352 195.819 64.7431 194.565 65.5485 193.786L65.947 193.399C66.3331 192.939 66.3912 191.993 66.084 191.303C65.7809 190.608 67.3584 189.635 67.9438 190.169C68.5374 190.702 70.7916 189.86 71.3894 190.446L71.7007 191.094C71.9249 191.559 71.6052 192.275 71.7879 192.782C71.9332 193.18 72.4314 193.53 72.8548 193.702L73.0873 193.796C73.4692 193.546 74.3202 192.537 74.9803 191.549C75.6403 190.566 77.1514 187.074 76.7695 186.164C76.3917 185.26 73.0042 186.065 72.0577 185.731L71.9415 185.203L71.6218 183.755C70.8705 182.411 69.9406 181.873 69.5545 182.568C69.1643 183.258 68.6661 186.206 67.6989 185.129C66.7274 184.047 62.6135 182.469 61.9866 181.831C61.3515 181.198 63.0909 178.956 63.9045 179.635C64.7141 180.315 67.1633 181.857 67.5452 181.564C67.9313 181.272 68.7533 179.499 69.3054 178.355L70.7667 179.431C71.2026 179.75 72.4023 179.803 72.5766 179.531C73.1163 178.694 73.0167 178.046 71.763 177.523L70.8331 177.137C70.0111 175.678 70.0153 174.037 70.8497 173.488L71.3479 172.761L71.6343 172.338C71.4475 171.512 70.9576 170.644 70.5425 170.409C70.1357 170.168 67.6739 168.626 65.7353 168.245L65.2911 170.048L64.5771 172.929C62.5803 172.212 61.4428 171.386 62.0489 171.094C62.655 170.801 63.7426 169.996 63.5143 169.761C63.2818 169.531 61.9908 168.193 61.1273 167.283L60.3012 166.499L59.5747 165.809C58.6241 166.138 57.059 165.882 56.0959 165.239L55.1038 165.025C54.0327 164.795 52.8703 164.972 51.7495 164.972C49.8772 164.972 47.9552 164.706 46.1452 165.051C44.3892 165.391 43.0359 163.984 41.2508 164.434C40.3624 164.659 39.1004 163.922 38.1871 163.331L36.9334 162.516C35.4639 162.516 32.7448 162.238 30.885 161.888C29.0293 161.543 22.8356 158.229 20.6935 157.455L18.6718 156.943L17.2977 156.598C15.7327 156.441 13.7068 156.049 12.7977 155.736L11.9467 155.197L8.52597 153.028C9.0781 150.665 9.83779 147.806 10.2239 146.671L7.67909 147.173C6.4254 147.419 5.76119 146.703 6.03102 145.406L6.21369 144.528C6.42541 143.561 6.29256 142.39 5.91479 141.919C5.54117 141.449 4.62789 139.891 5.12604 139.598C5.62005 139.295 7.44247 137.753 8.13574 136.844L6.72429 136.305C5.54947 135.856 5.05962 135.228 5.62835 134.408L6.64958 132.96C5.68232 132.207 4.13387 128.652 3.20398 125.061L1.09926 122.223L0.601108 121.548C1.44383 119.624 1.63893 117.978 1.04114 117.884C0.435051 117.795 -0.465782 116.906 0.285607 116.106C1.04115 115.307 0.306365 112.489 0.858491 112.332C1.41062 112.17 2.92169 110.497 2.4775 109.117L2.09973 107.826C1.70121 106.462 0.908303 105.009 1.09511 103.723C1.28607 102.421 2.2907 101.078 3.27871 100.121C3.94292 99.4832 5.73213 99.7968 6.08084 99.1486L6.81979 97.7895C7.88252 97.9568 9.24416 98.1397 9.84195 98.1972C10.4397 98.2443 13.2668 95.0399 13.8314 95.3117C14.3959 95.5835 17.6962 94.2819 18.8628 94.1983L19.9878 93.7487C20.8637 93.4037 22.4785 94.7001 23.1843 94.2662C24.3923 93.5292 24.932 93.6494 26.0279 94.3969C26.7046 94.8465 28.1534 94.6426 28.9754 94.193L31.4205 92.8705C31.1756 94.423 32.8942 93.916 35.2438 91.7414L38.6977 92.4209L39.254 92.5307C39.9805 92.0184 40.9685 91.8145 41.4459 92.0759C41.9316 92.3321 44.7006 92.1805 46.6849 90.3247L49.5036 91.9557C50.3796 92.4627 52.6628 90.9782 53.1526 91.5166L54.7177 93.2103C55.9049 92.2589 58.0346 90.8057 59.4502 89.9797L60.6582 89.6713C61.8953 89.3629 63.589 89.3577 64.8926 89.6347C67.0554 90.0895 68.9276 90.6384 71.0324 89.274L72.6763 88.2129C74.8765 88.0926 76.8733 88.3644 77.1057 88.814L77.3714 89.1852L77.8903 89.9274C78.5047 90.7377 79.5675 90.3875 80.2441 89.1538C80.9249 87.9097 85.7695 88.9447 87.3387 89.0649C88.9038 89.1852 93.5367 86.7753 94.7239 86.6864L95.8365 86.7335C98.4144 86.8485 99.7429 86.7387 100.884 86.2212C101.358 86.0069 101.852 85.573 102.3 85.62L103.151 85.7141C103.907 85.2855 105.447 84.6373 106.58 84.2714L107.527 84.5223L108.307 84.7314C109.017 85.7507 109.552 85.3953 109.503 83.9368L111.686 84.3393C113.01 84.585 114.663 85.0398 115.846 83.597C115.925 83.5029 116.576 83.6911 116.585 83.7852C116.672 84.7471 116.738 85.9232 118.017 85.4841C118.611 85.2855 118.743 83.8009 119.362 83.5082C120.769 82.8443 122.338 82.2484 123.854 82.2013L125.614 82.149C127.615 82.4209 129.902 82.3477 130.695 81.9818C131.492 81.6158 134.298 81.1349 135.025 81.2342C135.756 81.3283 138.147 81.4224 138.437 81.1245C138.728 80.8265 139.932 80.0006 140.04 80.3822C140.152 80.7638 141.169 81.642 141.987 81.2342C142.8 80.8265 145.482 80.079 145.989 80.5442C146.491 81.0095 148.5 82.2274 149.011 81.9034C149.513 81.5845 150.522 80.0058 151.074 79.253C151.626 78.5003 154.279 78.8871 155.217 78.5578L156.18 78.5317L157.38 78.5003C158.766 78.4637 161.103 78.7355 162.569 79.1119L163.968 79.3262C164.342 79.3785 164.823 79.2687 165.143 79.0544L168.181 77.0784C170 78.5212 171.557 79.2112 171.648 78.6101C171.735 78.0089 172.673 76.425 173.466 76.8641L174.093 77.0262L174.699 77.1882C175.417 77.1778 176.708 76.3152 177.576 75.2645L179.033 75.1234L179.61 75.0711C180.233 74.1824 180.17 72.8233 179.469 72.0496L178.709 71.8249C177.414 71.4485 177.48 72.6038 177.202 73.5133C177.09 73.8688 175.944 73.9263 175.259 74.057C173.782 74.3497 171.918 75.2854 170.901 74.6999C169.215 73.7276 167.663 74.2556 166.081 74.104C164.408 73.9368 162.71 74.0674 161.029 74.0674C159.343 74.0674 157.637 73.8949 155.977 74.1093C153.602 74.4124 152.78 72.4156 151.56 71.1558L150.14 69.6816C148.608 69.6868 146.686 69.9534 145.872 70.2723C145.05 70.5912 143.784 70.6853 143.157 70.7898C142.53 70.8944 140.496 69.3784 139.865 68.9184C139.243 68.4584 136.752 67.4495 136.299 68.0454L135.992 68.6989C135.515 69.7078 135.56 69.7234 137.171 69.7705C137.437 69.7809 137.935 69.9221 137.935 69.9744C137.898 70.4971 137.86 71.4276 137.673 71.4694C136.573 71.6942 134.971 72.724 134.726 70.5912L134.606 69.5143C134.863 68.1761 135.166 66.8222 135.266 66.5033C135.369 66.1792 135.278 65.4056 134.842 65.5415L134.444 65.6513C133.933 65.782 133.418 65.897 132.904 66.012L130.882 66.4615C131.696 67.7684 131.285 69.4621 129.969 70.2201C128.653 70.9833 124.659 70.9623 124.613 70.3821L124.717 69.8855L124.896 69.0805C125.199 68.2179 125.037 67.5593 124.53 67.6116C124.028 67.6691 122.459 66.4197 122.658 64.6581L122.243 64.496L118.382 62.9853C119.15 59.692 120.736 57.2822 121.907 57.6324L122.754 57.967C123.559 58.2911 124.29 58.8347 125.116 59.0595C125.556 59.1797 126.216 58.9758 126.602 58.6779L127.573 57.9304C128.798 57.831 130.438 57.0626 131.214 56.2262L131.172 55.5153L131.123 54.7625C130.259 54.0359 128.711 53.4191 127.673 53.3825L127 53.8425C126.448 54.2137 126.971 56.0067 125.585 55.5832L124.613 55.2853C123.65 54.3443 122.538 54.3025 122.135 55.1964C121.732 56.0851 119.341 55.0814 119.449 54.7991C119.565 54.5168 119.536 53.5498 119.03 53.5498C118.523 53.5498 116.904 53.9732 116.813 54.4907C116.718 55.0082 116.128 56.5137 115.742 56.4667L115.667 56.2994C115.456 55.8185 115.51 55.1755 115.219 54.773L114.065 53.1682C112.139 53.257 110.329 53.3093 110.042 53.2779C109.756 53.2414 109.32 51.2079 110.769 48.9758L112.82 50.2251L114.397 51.1818C116.153 51.1295 117.627 50.2722 117.672 49.2842C117.714 48.291 117.394 45.4839 116.842 45.4839C116.294 45.4839 114.787 45.9386 115.302 46.4875L115.456 46.9737L115.601 47.4389C115.464 48.1969 114.538 48.5576 113.529 48.2387C112.521 47.9251 110.831 46.6705 112.014 46.1582L112.056 45.6616C112.118 44.935 111.379 44.0568 110.794 43.419C110.669 43.2779 109.748 44.13 109.229 44.0829C108.693 44.0254 108.145 43.487 107.742 43.027C107.668 42.9433 108.212 42.2324 108.527 41.8612L108.602 41.7672C108.859 41.8142 110.599 42.1697 112.467 42.5565C114.331 42.9433 119.345 41.0719 119.835 41.4744L120.263 41.4326C120.819 41.3751 121.355 40.9203 121.84 40.5492C121.986 40.4342 122.023 39.9741 121.919 39.7703L121.766 39.4514C121.454 39.1743 121.616 38.7248 122.127 38.453C122.637 38.1864 124.406 37.7211 124.796 38.0923C125.178 38.4634 126.569 39.1953 126.942 38.8137C127.312 38.4373 128.893 38.1864 129.47 39.258C130.056 40.3296 131.679 43.1158 131.791 43.0792C131.903 43.0426 131.891 41.2758 131.513 39.2423L131.355 37.3709L131.322 36.9841C132.028 36.4927 132.937 36.4038 133.344 36.7854L133.51 37.2141L133.946 38.3589C134.402 39.9323 135.394 39.5664 136.142 37.5538L137.15 36.5659L138.329 35.4106C138.923 33.8999 139.591 32.9642 139.816 33.3196C140.036 33.6803 141.63 34.8931 142.659 34.8931L143.593 35.3949L144.482 35.8758C145.876 36.1372 147.014 35.7661 147.014 35.0447C147.014 34.3233 147.408 32.891 147.886 33.1994L148.346 33.4242C149.422 33.9469 150.501 34.7572 151.601 34.8042C152.141 34.8303 152.71 32.8073 153.32 32.7707L154.416 32.7132C155.719 32.7446 157.085 32.9537 157.45 33.1733C157.82 33.3876 159.306 32.9798 159.223 31.4273L159.406 30.3661L159.613 29.1795C160.099 27.9197 162.444 27.6688 164.827 28.6254L167.546 26.0065C169.174 24.4382 170.539 21.72 173.4 24.3755L173.487 24.4591C174.707 23.2882 176.252 22.9536 176.916 23.7168L177.655 24.2657L178.012 24.5323C178.597 24.4905 179.764 24.4539 180.602 24.4382C181.437 24.4225 184.06 23.1366 185.094 22.8073C186.128 22.4832 189.943 22.2898 191.23 22.2323C192.517 22.18 195.501 20.2615 196.219 20.9777C196.938 21.6938 198.577 23.8789 198.44 24.4225C198.303 24.9662 198.669 26.8428 199.719 26.7853L200.749 26.9108L202.438 27.1147C203.468 25.9228 204.838 24.0462 205.477 22.9484C206.12 21.8454 208.316 19.1219 208.798 19.561L209.188 19.7858L211.148 20.9358C210.849 22.2218 210.052 23.7325 209.375 24.2866L209.105 24.9348L208.893 25.4576C209.138 26.226 209.632 26.7697 209.989 26.6547C210.346 26.5396 212.235 24.9296 213.717 23.628L215.735 24.5951L216.308 24.8721C216.889 25.2537 217.84 24.5585 218.417 23.3196C219.002 22.0859 221.314 19.0697 222.107 19.7126L222.879 19.9374L224.266 20.3452C225.482 21.2652 227.01 22.1538 227.657 22.3211C228.305 22.4936 228.247 24.9767 228.546 25.3687C228.836 25.7608 229.949 25.881 230.144 26.3985C230.347 26.916 231.975 26.1528 232.174 25.3217C232.377 24.4905 235.126 24.7101 235.711 24.8721C236.305 25.0289 238.542 23.8684 240.568 24.3964L242.482 24.6264L244.288 24.846C246.23 25.3896 248.157 25.1282 248.563 24.2553C248.966 23.3823 247.538 20.617 247.746 19.9845Z" fill="#FF9894"/>
<path d="M346.58 77.92C355.82 77.92 363.117 80.12 368.47 84.52C373.823 88.8467 376.5 94.8967 376.5 102.67C376.5 110.443 373.823 116.53 368.47 120.93C363.19 125.257 355.747 127.42 346.14 127.42H331.18C330.52 127.42 330.19 127.75 330.19 128.41V150.3C330.19 150.887 330.447 151.18 330.96 151.18C331.913 151.18 332.83 151.143 333.71 151.07C334.59 150.923 335.47 150.813 336.35 150.74C337.817 150.593 339.063 151.033 340.09 152.06C341.117 153.013 341.63 154.223 341.63 155.69C341.63 157.083 341.08 158.257 339.98 159.21C338.953 160.237 337.743 160.677 336.35 160.53C334.223 160.383 332.353 160.237 330.74 160.09C329.127 160.017 327.587 159.98 326.12 159.98C324.653 159.98 323.15 160.017 321.61 160.09C320.143 160.237 318.383 160.383 316.33 160.53C314.937 160.677 313.69 160.273 312.59 159.32C311.49 158.367 310.94 157.157 310.94 155.69C310.94 154.223 311.417 153.05 312.37 152.17C313.323 151.217 314.497 150.74 315.89 150.74C316.403 150.74 316.917 150.777 317.43 150.85C318.017 150.923 318.64 150.997 319.3 151.07H319.52C320.033 151.07 320.29 150.777 320.29 150.19V87.82C320.29 87.2333 320.033 86.94 319.52 86.94C318.933 86.94 318.347 87.0133 317.76 87.16C317.247 87.2333 316.697 87.27 316.11 87.27C314.717 87.27 313.507 86.7933 312.48 85.84C311.453 84.8133 310.94 83.6033 310.94 82.21C310.94 80.5967 311.49 79.3133 312.59 78.36C313.763 77.3333 315.12 76.8933 316.66 77.04C318.127 77.26 319.63 77.48 321.17 77.7C322.783 77.8467 324.323 77.92 325.79 77.92H346.58ZM330.19 116.75C330.19 117.41 330.52 117.74 331.18 117.74H347.13C360.403 117.74 367.04 112.717 367.04 102.67C367.04 92.33 360.183 87.27 346.47 87.49H331.18C330.52 87.49 330.19 87.82 330.19 88.48V116.75ZM456.84 150.74C458.306 150.593 459.553 151.033 460.58 152.06C461.68 153.013 462.23 154.223 462.23 155.69C462.23 157.157 461.68 158.367 460.58 159.32C459.553 160.273 458.306 160.713 456.84 160.64C456.546 160.567 455.373 160.42 453.32 160.2C451.266 159.98 449.286 159.87 447.38 159.87C444.226 159.87 441.806 158.55 440.12 155.91L421.86 128.08C421.64 127.64 421.236 127.42 420.65 127.42H407.45C406.79 127.42 406.46 127.75 406.46 128.41V150.3C406.46 150.887 406.716 151.18 407.23 151.18C408.183 151.18 409.1 151.143 409.98 151.07C410.86 150.923 411.74 150.813 412.62 150.74C414.086 150.593 415.333 151.033 416.36 152.06C417.386 153.013 417.9 154.223 417.9 155.69C417.9 157.157 417.386 158.367 416.36 159.32C415.333 160.273 414.086 160.713 412.62 160.64C410.566 160.42 408.733 160.237 407.12 160.09C405.58 160.017 404.076 159.98 402.61 159.98C401.143 159.98 399.64 160.017 398.1 160.09C396.56 160.237 394.726 160.42 392.6 160.64C391.133 160.713 389.85 160.273 388.75 159.32C387.723 158.367 387.21 157.157 387.21 155.69C387.21 154.223 387.686 153.05 388.64 152.17C389.593 151.217 390.766 150.74 392.16 150.74C392.673 150.74 393.186 150.777 393.7 150.85C394.286 150.923 394.91 150.997 395.57 151.07H395.79C396.303 151.07 396.56 150.777 396.56 150.19V87.82C396.56 87.0867 396.23 86.7933 395.57 86.94L392.93 87.16C391.463 87.38 390.143 87.0133 388.97 86.06C387.796 85.0333 387.21 83.75 387.21 82.21C387.21 80.5967 387.76 79.3133 388.86 78.36C390.033 77.3333 391.39 76.8933 392.93 77.04C394.396 77.26 395.9 77.48 397.44 77.7C399.053 77.8467 400.593 77.92 402.06 77.92L422.19 78.03C431.796 78.1033 439.276 80.3033 444.63 84.63C450.056 88.8833 452.77 94.8967 452.77 102.67C452.77 108.757 451.083 113.853 447.71 117.96C444.41 121.993 439.716 124.743 433.63 126.21C432.823 126.357 432.64 126.76 433.08 127.42L448.26 150.74C448.48 151.18 448.92 151.4 449.58 151.4C452.146 151.253 454.566 151.033 456.84 150.74ZM423.4 87.49H407.45C406.79 87.49 406.46 87.82 406.46 88.48V116.75C406.46 117.41 406.79 117.74 407.45 117.74H423.4C436.673 117.74 443.31 112.717 443.31 102.67C443.31 92.55 436.673 87.49 423.4 87.49ZM504.808 76.93C510.308 76.93 515.478 78.03 520.318 80.23C525.158 82.3567 529.411 85.3633 533.078 89.25C536.745 93.0633 539.605 97.5 541.658 102.56C543.785 107.62 544.848 113.01 544.848 118.73C544.848 124.523 543.785 129.95 541.658 135.01C539.605 140.07 536.745 144.543 533.078 148.43C529.411 152.243 525.158 155.25 520.318 157.45C515.478 159.577 510.308 160.64 504.808 160.64C499.308 160.64 494.138 159.577 489.298 157.45C484.458 155.25 480.205 152.243 476.538 148.43C472.871 144.543 469.975 140.07 467.848 135.01C465.795 129.95 464.768 124.523 464.768 118.73C464.768 113.01 465.795 107.62 467.848 102.56C469.975 97.5 472.871 93.0633 476.538 89.25C480.205 85.3633 484.458 82.3567 489.298 80.23C494.138 78.03 499.308 76.93 504.808 76.93ZM504.808 150.63C510.601 150.63 515.735 149.273 520.208 146.56C524.681 143.773 528.201 139.997 530.768 135.23C533.408 130.39 534.728 124.89 534.728 118.73C534.728 112.57 533.408 107.107 530.768 102.34C528.201 97.5733 524.645 93.8333 520.098 91.12C515.625 88.3333 510.528 86.94 504.808 86.94C499.015 86.94 493.845 88.3333 489.298 91.12C484.825 93.8333 481.268 97.61 478.628 102.45C476.061 107.217 474.778 112.643 474.778 118.73C474.778 124.817 476.061 130.28 478.628 135.12C481.268 139.96 484.861 143.773 489.408 146.56C493.955 149.273 499.088 150.63 504.808 150.63ZM612.931 76.93C614.398 76.7833 615.645 77.2233 616.671 78.25C617.698 79.2033 618.211 80.4133 618.211 81.88C618.211 83.3467 617.698 84.5567 616.671 85.51C615.645 86.4633 614.398 86.9033 612.931 86.83C611.611 86.61 610.218 86.5 608.751 86.5H608.531C608.018 86.5 607.761 86.7933 607.761 87.38V131.82C607.761 136.293 606.991 140.327 605.451 143.92C603.985 147.44 601.968 150.483 599.401 153.05C596.908 155.543 594.085 157.45 590.931 158.77C587.851 160.09 584.698 160.75 581.471 160.75C575.678 160.75 570.581 159.577 566.181 157.23C561.781 154.81 558.518 151.473 556.391 147.22C555.585 145.607 554.961 143.957 554.521 142.27C554.155 140.583 553.971 138.933 553.971 137.32C553.971 133.873 554.741 130.94 556.281 128.52C557.895 126.1 560.058 124.89 562.771 124.89C565.191 124.89 567.025 125.66 568.271 127.2C569.518 128.74 570.141 130.463 570.141 132.37C570.141 133.91 569.701 135.34 568.821 136.66C568.015 137.98 566.768 138.897 565.081 139.41C564.348 139.63 564.091 140.033 564.311 140.62C564.678 142.013 565.485 143.517 566.731 145.13C567.978 146.743 569.775 148.137 572.121 149.31C574.541 150.41 577.658 150.96 581.471 150.96C584.625 150.96 587.411 150.153 589.831 148.54C592.325 146.853 594.305 144.58 595.771 141.72C597.238 138.787 597.971 135.487 597.971 131.82V87.38C597.971 86.7933 597.715 86.5 597.201 86.5C595.735 86.5 594.268 86.61 592.801 86.83C591.408 86.9033 590.161 86.4633 589.061 85.51C588.035 84.5567 587.521 83.3467 587.521 81.88C587.521 80.4133 588.035 79.2033 589.061 78.25C590.161 77.2233 591.408 76.7833 592.801 76.93C594.928 77.15 596.761 77.3333 598.301 77.48C599.915 77.5533 601.455 77.59 602.921 77.59C604.388 77.59 605.891 77.5533 607.431 77.48C609.045 77.3333 610.878 77.15 612.931 76.93ZM684.576 137.76C686.116 137.76 687.4 138.31 688.426 139.41C689.453 140.437 689.893 141.683 689.746 143.15L689.086 152.39C689.013 154.443 688.243 156.167 686.776 157.56C685.31 158.953 683.586 159.65 681.606 159.65H642.666C641.346 159.65 639.953 159.76 638.486 159.98C637.093 160.2 635.736 160.383 634.416 160.53C632.876 160.75 631.52 160.347 630.346 159.32C629.173 158.293 628.586 156.973 628.586 155.36C628.586 153.747 629.173 152.463 630.346 151.51C631.52 150.483 632.876 150.08 634.416 150.3C634.636 150.373 634.893 150.41 635.186 150.41C635.48 150.41 635.81 150.447 636.176 150.52H636.396C636.983 150.52 637.276 150.227 637.276 149.64V87.82C637.276 87.16 636.983 86.83 636.396 86.83C636.103 86.83 635.773 86.9033 635.406 87.05C635.113 87.1233 634.783 87.1967 634.416 87.27C632.876 87.49 631.52 87.1233 630.346 86.17C629.173 85.1433 628.586 83.8233 628.586 82.21C628.586 80.5967 629.173 79.2767 630.346 78.25C631.52 77.2233 632.876 76.82 634.416 77.04C635.883 77.1867 637.386 77.37 638.926 77.59C640.466 77.81 641.933 77.92 643.326 77.92H681.606C683.586 77.92 685.31 78.6167 686.776 80.01C688.243 81.4033 689.013 83.1267 689.086 85.18L689.746 94.42C689.893 95.8133 689.453 97.06 688.426 98.16C687.4 99.26 686.116 99.81 684.576 99.81C683.11 99.81 681.863 99.3333 680.836 98.38C679.883 97.3533 679.406 96.1433 679.406 94.75C679.406 93.87 679.443 92.9167 679.516 91.89C679.663 90.79 679.773 89.7267 679.846 88.7C679.846 88.04 679.516 87.71 678.856 87.71H648.166C647.506 87.71 647.176 88.04 647.176 88.7V111.36C647.176 112.02 647.506 112.35 648.166 112.35H675.116C676.436 112.35 677.573 112.827 678.526 113.78C679.48 114.733 679.956 115.87 679.956 117.19C679.956 118.51 679.48 119.647 678.526 120.6C677.573 121.48 676.436 121.92 675.116 121.92H648.166C647.506 121.92 647.176 122.25 647.176 122.91V148.87C647.176 149.53 647.506 149.86 648.166 149.86H678.856C679.516 149.86 679.846 149.53 679.846 148.87C679.773 147.77 679.663 146.743 679.516 145.79C679.443 144.763 679.406 143.773 679.406 142.82C679.406 141.427 679.883 140.253 680.836 139.3C681.863 138.273 683.11 137.76 684.576 137.76ZM768.472 96.62C768.619 98.0133 768.179 99.26 767.152 100.36C766.125 101.46 764.842 102.01 763.302 102.01C761.762 102.01 760.479 101.46 759.452 100.36C758.499 99.26 758.059 98.0133 758.132 96.62L758.682 88.59C758.682 87.93 758.389 87.6 757.802 87.6H741.742C741.082 87.6 740.752 87.93 740.752 88.59V150.3C740.752 150.887 741.009 151.18 741.522 151.18C742.402 151.18 743.245 151.143 744.052 151.07C744.932 150.923 745.739 150.813 746.472 150.74C747.939 150.593 749.185 151.033 750.212 152.06C751.239 153.013 751.752 154.223 751.752 155.69C751.752 157.083 751.239 158.257 750.212 159.21C749.185 160.163 747.939 160.603 746.472 160.53C744.345 160.31 742.659 160.163 741.412 160.09C740.239 160.017 739.249 159.943 738.442 159.87C737.635 159.87 736.755 159.87 735.802 159.87C734.775 159.87 733.859 159.87 733.052 159.87C732.245 159.943 731.255 160.017 730.082 160.09C728.982 160.163 727.369 160.31 725.242 160.53C723.849 160.603 722.602 160.163 721.502 159.21C720.475 158.257 719.962 157.083 719.962 155.69C719.962 154.223 720.475 153.013 721.502 152.06C722.602 151.033 723.849 150.593 725.242 150.74C725.975 150.813 726.745 150.887 727.552 150.96C728.359 151.033 729.165 151.107 729.972 151.18H730.192C730.705 151.18 730.962 150.887 730.962 150.3V88.59C730.962 87.93 730.632 87.6 729.972 87.6H713.802C713.215 87.6 712.922 87.93 712.922 88.59L713.472 96.62C713.619 98.0133 713.179 99.26 712.152 100.36C711.125 101.46 709.842 102.01 708.302 102.01C706.762 102.01 705.479 101.46 704.452 100.36C703.499 99.26 703.059 98.0133 703.132 96.62C703.279 94.9333 703.425 93.1 703.572 91.12C703.719 89.14 703.829 87.16 703.902 85.18C704.049 83.1267 704.819 81.4033 706.212 80.01C707.679 78.6167 709.402 77.92 711.382 77.92H760.332C762.239 77.92 763.925 78.6167 765.392 80.01C766.859 81.4033 767.629 83.1267 767.702 85.18C767.849 87.16 767.995 89.14 768.142 91.12C768.289 93.1 768.399 94.9333 768.472 96.62ZM795.339 98.71C795.119 101.497 795.705 103.77 797.099 105.53C798.565 107.217 800.545 108.647 803.039 109.82C805.605 110.993 808.429 112.057 811.509 113.01C814.589 113.963 817.669 115.027 820.749 116.2C823.829 117.3 826.652 118.73 829.219 120.49C831.859 122.177 833.949 124.377 835.489 127.09C837.102 129.73 837.909 133.103 837.909 137.21C837.909 141.683 836.699 145.68 834.279 149.2C831.932 152.72 828.669 155.507 824.489 157.56C820.309 159.613 815.579 160.64 810.299 160.64C803.699 160.64 798.199 159.467 793.799 157.12C789.399 154.7 785.989 152.06 783.569 149.2C781.735 147.073 780.819 144.8 780.819 142.38C780.819 140.327 781.479 138.567 782.799 137.1C784.119 135.633 786.025 134.9 788.519 134.9C790.572 134.9 792.259 135.67 793.579 137.21C794.972 138.75 795.669 140.473 795.669 142.38C795.669 143.333 795.449 144.323 795.009 145.35C794.789 145.937 794.862 146.377 795.229 146.67C797.135 148.137 799.262 149.237 801.609 149.97C804.029 150.703 806.449 151.07 808.869 151.07C812.095 151.07 815.175 150.52 818.109 149.42C821.042 148.247 823.425 146.633 825.259 144.58C827.092 142.453 828.009 139.997 828.009 137.21C828.009 134.717 827.239 132.663 825.699 131.05C824.159 129.363 822.105 127.97 819.539 126.87C817.045 125.697 814.295 124.633 811.289 123.68C808.282 122.727 805.239 121.663 802.159 120.49C799.152 119.317 796.365 117.887 793.799 116.2C791.305 114.44 789.289 112.277 787.749 109.71C786.209 107.143 785.439 103.953 785.439 100.14C785.439 95.96 786.172 92.4033 787.639 89.47C789.179 86.4633 791.232 84.08 793.799 82.32C796.365 80.4867 799.225 79.1667 802.379 78.36C805.532 77.48 808.759 77.04 812.059 77.04C816.239 77.04 820.235 77.6267 824.049 78.8C827.862 79.9733 830.942 81.5867 833.289 83.64C835.709 85.6933 836.919 88.04 836.919 90.68C836.845 92.7333 836.075 94.4933 834.609 95.96C833.215 97.4267 831.492 98.16 829.439 98.16C827.385 98.16 825.625 97.4267 824.159 95.96C822.765 94.4933 822.069 92.7333 822.069 90.68C822.069 89.9467 822.105 89.4333 822.179 89.14C822.325 88.5533 822.289 88.2233 822.069 88.15C821.115 87.6367 819.685 87.1967 817.779 86.83C815.945 86.4633 813.965 86.28 811.839 86.28C809.419 86.28 806.962 86.6467 804.469 87.38C802.049 88.04 799.995 89.2867 798.309 91.12C796.622 92.88 795.632 95.41 795.339 98.71Z" fill="#D67470"/>
</svg>
