<svg width="172" height="182" viewBox="0 0 172 182" fill="none" xmlns="http://www.w3.org/2000/svg">
<path d="M126.284 0L42.8351 0.0303329C33.0168 0.0303329 23.0838 2.64655 15.8742 8.44771C10.8194 12.3344 6.83635 17.5778 4.33583 23.6369C1.66983 29.8021 0 38.0678 0 45.1278L0.086 137.643C0.100333 149.807 3.51883 160.825 10.5565 168.825C17.6085 176.833 28.2008 181.588 41.5953 181.649L120.801 181.997C129.831 182.035 142.982 181.724 151.639 176.583C159.344 171.995 166.152 164.783 169.535 153.955C171.527 147.585 172.007 138.151 172 130.09L171.849 45.6889C171.835 38.955 170.774 30.3481 167.929 23.4397C164.883 16.0385 159.465 9.67619 151.288 5.05043C145.863 1.97164 137.041 0 126.284 0ZM126.284 7.0524C136.159 7.0524 144.473 9.28945 148.07 11.3369C155.072 15.3029 159.136 20.179 161.608 26.2C163.866 31.6675 164.977 39.7968 164.998 45.7041L165.127 130.105C165.141 137.787 164.432 147.221 162.991 151.793C160.153 160.908 154.778 166.55 148.207 170.463C142.373 173.929 129.487 174.96 120.83 174.922L41.6383 174.589C29.7632 174.536 21.3423 170.539 15.652 164.078C9.976 157.625 6.966 148.457 6.966 137.651L7.1595 45.1202C7.1595 38.8337 8.56416 31.2656 10.5565 26.6399C13.029 20.8994 15.9315 17.4869 20.339 13.9456C25.6925 9.6307 34.8873 7.35573 43.5733 7.35573L126.284 7.0524ZM85.7205 33.0098C71.5591 33.6847 62.7585 45.5828 62.6868 57.9586C62.823 68.9012 74.4043 84.3558 83.3555 92.3106C84.2155 93.0613 84.4591 93.1372 85.7205 93.6756C86.1648 93.8652 87.1395 93.3192 88.064 92.6518C90.644 90.794 95.1805 85.4705 99.8746 79.4722C102.845 75.571 105.328 71.2816 107.263 66.7096C110.195 59.9606 109.134 54.5841 108.948 52.3925C107.625 47.5591 105.187 43.1497 101.853 39.5617C97.4265 35.3411 91.6787 33.0067 85.7205 33.0098ZM115.62 93.0841C107.684 93.2802 99.8319 94.8425 92.3711 97.7099C91.2961 98.1497 90.5078 98.4682 89.6908 98.999C89.2823 99.272 88.9025 100.023 88.9383 101.213C89.0601 104.497 91.0166 110.905 93.4103 118.427C96.1623 127.034 101.05 135.641 106.626 139.205C109.323 140.918 112.322 142.032 115.439 142.478C118.556 142.924 121.727 142.693 124.757 141.799C130.72 139.956 136.188 135.216 138.818 130.075C145.885 116.289 140.18 103.17 130.784 96.58C127.581 94.3353 122.665 93.2054 117.239 93.0917L115.62 93.0841ZM55.1905 93.3722C53.3887 93.3715 51.5888 93.4905 49.8011 93.7287C45.5298 94.3201 43.1218 95.7989 40.5561 97.5961C35.565 101.051 32.053 106.439 30.7737 112.603C30.2362 116.789 30.1573 120.588 31.0102 124.031C34.1133 134.564 40.5131 140.881 51.4136 142.625C55.9716 142.838 61.232 142.148 65.6753 139.213C74.7698 133.283 80.582 115.174 82.9613 103.253C83.3411 101.919 83.2121 100.546 82.8681 100.068C82.8323 99.5602 82.5528 99.2113 81.5065 98.6805C78.6541 97.2245 72.0465 95.5183 64.4856 94.1306C61.413 93.6008 58.3035 93.3471 55.1905 93.3722Z" fill="#657B7D"/>
</svg>
