<svg width="165" height="182" viewBox="0 0 165 182" fill="none" xmlns="http://www.w3.org/2000/svg">
<path fill-rule="evenodd" clip-rule="evenodd" d="M0 62.5221C0 91 42.2968 182 82.4291 182C122.562 182 165 95.0245 165 59.2396C165 36.614 145.15 0 82.1922 0C19.235 0 0 40.4462 0 62.5221ZM53.3834 68.8947C38.3495 51.6883 29.019 34.2466 29.019 34.2466C29.019 34.2466 44.3921 26.1309 54.4353 23.9637C55.2909 23.7793 56.1636 23.5814 57.0576 23.38C66.6559 21.2128 78.5959 18.5185 95.8136 25.0722C131.637 38.7088 146.911 64.2153 146.911 64.2153C146.911 64.2153 123.857 44.5329 98.4721 40.5808C83.849 38.3039 56.649 47.5394 56.649 47.5394C56.649 47.5394 66.1033 58.1492 73.7984 73.6839C75.0114 76.1327 76.1934 78.3746 77.3253 80.5214C83.3721 91.9875 87.9659 100.698 87.9659 123.424C87.9659 140.005 76.1454 164.645 76.1454 164.645C76.1454 164.645 82.7843 132.541 77.4299 107.157C73.5605 88.8068 70.5755 85.9835 63.5397 79.3281C60.8427 76.7774 57.5494 73.6635 53.3834 68.8947Z" fill="#657B7D"/>
</svg>
