<svg width="70" height="209" viewBox="0 0 70 209" fill="none" xmlns="http://www.w3.org/2000/svg">
<path d="M2.58398 6.40677C0.975323 6.01003 -0.00712578 4.38433 0.389615 2.77568C0.786355 1.16703 2.41205 0.184579 4.0207 0.581319L2.58398 6.40677ZM55.1654 112.866L57.7571 114.377L55.1654 112.866ZM33.9569 116.894L36.2473 114.957L33.9569 116.894ZM49.2821 100.007L47.8927 102.666L47.8927 102.666L49.2821 100.007ZM41.4456 180.267L39.3039 178.167L39.3731 178.096L39.4468 178.03L41.4456 180.267ZM14.5982 204.973C12.9563 204.751 11.8051 203.24 12.027 201.598L15.6428 174.841C15.8647 173.2 17.3756 172.048 19.0175 172.27C20.6595 172.492 21.8106 174.003 21.5888 175.645L18.3747 199.429L42.1585 202.643C43.8005 202.865 44.9517 204.376 44.7298 206.018C44.5079 207.659 42.997 208.811 41.355 208.589L14.5982 204.973ZM4.0207 0.581319C26.0852 6.02306 47.6598 20.2693 59.6848 40.3099C71.8126 60.5218 74.0706 86.3964 57.7571 114.377L52.5737 111.355C67.7987 85.2413 65.5273 61.7083 54.5399 43.397C43.4498 24.9143 23.3236 11.5218 2.58398 6.40677L4.0207 0.581319ZM57.7571 114.377C56.058 117.291 52.6362 121.601 48.0509 123.657C45.6772 124.721 42.9097 125.213 39.9597 124.475C37.0268 123.743 34.2437 121.878 31.6665 118.832L36.2473 114.957C38.235 117.306 39.9983 118.301 41.414 118.654C42.8126 119.004 44.1959 118.81 45.596 118.182C48.5583 116.854 51.1757 113.753 52.5737 111.355L57.7571 114.377ZM31.6665 118.832C26.8603 113.15 29.4366 105.937 33.3928 101.616C37.3713 97.2711 44.3114 94.0251 50.6714 97.3484L47.8927 102.666C44.9506 101.129 40.8604 102.345 37.8181 105.668C34.7534 109.015 34.3182 112.676 36.2473 114.957L31.6665 118.832ZM50.6714 97.3484C60.7009 102.589 67.9764 115.918 68.2811 131.607C68.5896 147.497 61.8213 166.085 43.4445 182.504L39.4468 178.03C56.6244 162.682 62.5541 145.728 62.2822 131.724C62.0064 117.518 55.4229 106.601 47.8927 102.666L50.6714 97.3484ZM43.5874 182.368C38.5115 187.543 27.2667 196.425 16.8181 204.386L13.1819 199.614C23.7333 191.575 34.5935 182.969 39.3039 178.167L43.5874 182.368Z" fill="#E97D01"/>
</svg>
