<svg width="481" height="569" viewBox="0 0 481 569" fill="none" xmlns="http://www.w3.org/2000/svg">
<path d="M140.169 41.5722C184.611 -2.74671 224.165 -1.01922 238.386 5.38439C277.851 -1.40636 298.977 8.21387 304.607 13.8728C376.781 48.1843 393.164 163.737 390.942 217.199C385.467 293.702 408.691 321.157 403.714 361.902C398.736 402.646 383.881 424.138 379.437 427.414C376.844 432.533 367.609 437.858 363.316 439.881L358.847 427.414C359.509 430.411 359.741 437.101 355.372 439.881C351.003 442.661 325.419 443.687 313.173 443.853L309.697 432.434L300.761 443.853L273.456 445.839H227.284L178.135 441.371L169.198 432.434L164.73 441.371C156.787 441.371 134.28 439.385 124.02 438.392C115.282 437.995 103.047 431.646 98.0212 428.521C78.5894 412.56 61.6831 407.025 71.2827 349.839C80.8822 292.653 84.171 237.552 84.6154 217.15C84.6154 177.09 95.726 85.8912 140.169 41.5722Z" fill="#2F2924" stroke="black" stroke-width="3" stroke-linecap="round"/>
<path d="M278.488 172.33C281.155 170.543 287.821 167.773 293.154 170.99" stroke="black" stroke-width="3" stroke-linecap="round"/>
<path d="M181.167 175.15C183.834 173.363 190.5 170.593 195.833 173.809" stroke="black" stroke-width="3" stroke-linecap="round"/>
<path d="M133.158 300.55C128.714 319.761 121.158 361.488 126.492 374.713C131.825 387.937 141.453 399.285 145.601 403.305" stroke="black" stroke-width="3" stroke-linecap="round"/>
<path d="M178.06 287.147C171.986 300.55 163.482 331.734 178.06 349.248" stroke="black" stroke-width="3" stroke-linecap="round"/>
<path d="M179.433 289.382C173.359 302.785 164.855 333.969 179.433 351.482" stroke="#393029" stroke-width="3" stroke-linecap="round"/>
<path d="M135.437 298.317C130.992 317.528 122.49 359.702 127.824 372.926C133.157 386.151 141.01 397.498 145.157 401.519" stroke="#393029" stroke-width="3" stroke-linecap="round"/>
<path d="M307.469 302.507C305.543 310.251 303.825 329.581 312.357 344.949C320.89 360.318 308.802 383.52 301.691 393.2" stroke="black" stroke-width="3" stroke-linecap="round"/>
<path d="M87.3864 287.595C75.2981 357.647 103.549 415.232 115.548 427.444H99.6738C85.8199 419.047 75.2807 405.063 72.2986 387.266C67.2666 357.235 77.0413 319.398 79.8327 301.444C81.7557 289.077 85.1655 244.705 85.1655 217.453C85.1655 195.651 91.6838 151.183 94.9429 131.674C92.4241 182.903 87.3864 285.808 87.3864 287.595Z" fill="#393129"/>
<path d="M224.276 26.238C222.854 21.949 215.98 17.8984 212.721 16.4092C218.054 16.4092 233.017 22.9617 239.831 26.238C255.119 13.7286 269.608 17.7495 274.941 21.3236C268.541 21.3236 260.719 24.5998 257.608 26.238C264.008 27.6676 273.015 32.1948 276.718 34.2797C263.919 29.9908 246.794 36.0668 239.831 39.6409C229.876 34.2797 206.055 32.9394 195.389 32.9394C201.077 27.2209 217.017 26.0891 224.276 26.238Z" fill="#2E2620"/>
<path d="M279.471 37.4736C272.225 33.7995 251.31 37.5724 241.165 40.0872C256.859 28.6741 272.475 33.182 279.471 37.4736C279.949 37.7159 280.367 37.9906 280.719 38.3001C280.341 38.0284 279.924 37.7515 279.471 37.4736Z" fill="#3A2F27"/>
<path d="M213.143 15.1458C212.839 15.1165 212.546 15.0911 212.265 15.0693C212.524 15.0693 212.818 15.0955 213.143 15.1458C221.142 15.9159 236.394 19.3144 239.819 27.5787C232.967 23.6427 218.618 15.9913 213.143 15.1458Z" fill="#3A2F27"/>
<path d="M308.819 303.401C306.894 311.145 305.175 330.475 313.708 345.844C322.241 361.213 310.153 384.414 303.042 394.094" stroke="#393029" stroke-width="3" stroke-linecap="round"/>
<path d="M238.201 82.3535C229.837 82.3535 207.914 90.5462 183.613 132.222C153.238 184.316 124.624 199.9 107.896 201.236" stroke="#393029" stroke-width="6" stroke-linecap="round"/>
<path d="M242.562 82.3535C251.38 82.3535 276.602 88.3979 296.356 121.463C321.049 162.795 344.419 195.239 373.962 193.461" stroke="#393029" stroke-width="6" stroke-linecap="round"/>
<path d="M237.614 84.7646C229.17 84.7646 207.038 92.9851 182.506 134.802C151.84 187.073 122.953 202.71 106.064 204.051" stroke="black" stroke-width="3" stroke-linecap="round"/>
<path d="M242.928 84.7646C251.816 84.7646 277.237 90.8407 297.148 124.08C322.035 165.629 345.59 198.243 375.366 196.456" stroke="black" stroke-width="3" stroke-linecap="round"/>
<path d="M113.161 214.325C122.76 201.101 133.16 203.156 137.16 205.837V190.2C144.714 183.052 167.38 167.415 180.713 139.269C194.046 111.123 218.785 89.8268 226.933 86.9973C256.798 76.9898 284.708 103.974 294.93 118.718C315.552 157.318 333.447 175.903 339.817 180.371L334.04 205.837C343.284 202.263 349.446 204.347 351.372 205.837C358.483 211.335 361.89 234.578 355.372 243.365C346.928 253.193 336.706 254.831 330.929 253.193L324.262 261.235C301.152 287.326 270.931 288.488 255.821 288.488V306.358L269.98 314.276C260.278 325.492 244.393 332.906 232.746 331.652C219.959 330.275 206.433 321.723 201.965 312.166L214.489 306.358V288.488C161.869 290.275 146.492 263.916 142.493 250.96C129.16 262.129 101.161 230.855 113.161 214.325Z" fill="#FAE6DB" stroke="black" stroke-width="3" stroke-linecap="round"/>
<path d="M231.078 86.7568C221.223 96.6637 218.684 98.2833 209.795 126.519C200.907 154.754 181.043 161.058 173.043 161.058" stroke="#393029" stroke-width="4" stroke-linecap="round"/>
<path d="M232.172 85.6567C227.792 86.2071 216.492 97.1832 207.604 125.419C198.715 153.654 180.494 160.713 172.494 160.713" stroke="black" stroke-width="3" stroke-linecap="round"/>
<path d="M383.288 261.779C387.121 224.353 385.296 154.821 380.003 123.633C392.596 157.756 389.311 230.407 388.763 244.717C388.325 256.165 399.166 310.212 402.998 334.429C405.626 378.019 389.676 413.134 381.098 425.793H363.578C375.076 414.601 397.085 381.102 388.763 341.034C380.441 300.966 383.106 271.869 383.288 261.779Z" fill="#393029"/>
<path d="M343.978 338.832C342.737 347.607 342.382 369.337 350.891 386.052C359.401 402.768 349.828 421.712 343.978 429.094" stroke="#393029" stroke-width="3" stroke-linecap="round"/>
<path d="M340.683 336.631C339.442 345.406 339.087 367.136 347.596 383.852C356.106 400.567 346.533 419.511 340.683 426.893" stroke="black" stroke-width="3" stroke-linecap="round"/>
<path d="M291.879 67.4472C289.105 64.6582 297.718 72.7546 300.967 74.9657C302.731 76.1664 304.612 77.6394 306.569 78.5004C306.87 78.6326 308.268 79.3115 307.806 78.4854C306.091 75.42 301.347 72.83 298.315 71.2214C298.021 71.0654 295.354 69.3992 297.034 69.3343C301.202 69.1731 303.944 71.2486 307.567 72.9738C308.461 73.3993 304.539 70.0294 303.828 69.3343C303.34 68.8573 299.948 66.2011 302.219 66.3838C304.297 66.5509 306.315 67.441 308.357 67.8516C310.589 68.3003 310.872 68.1579 309.042 66.3688C307.906 65.2568 305.768 64.3362 304.871 63.1337C304.47 62.5961 308.571 63.2528 309.162 63.4033C310.255 63.682 311.324 63.759 312.41 63.9575C314.095 64.2655 310.273 61.6426 309.847 61.2616C308.334 59.9097 307.694 59.3683 310.443 59.8387C311.101 59.9514 315.115 60.7769 314.51 59.4943C313.964 58.3343 312.312 57.8454 311.724 56.6636" stroke="#3A2F27" stroke-width="3" stroke-linecap="round"/>
<path d="M152.12 70.121C148.142 74.1205 154.138 69.4636 155.491 68.2312C158.123 65.8336 162.634 61.2502 165.928 60.3789C168.34 59.7409 163.886 64.956 162.751 67.1885C161.648 69.3594 160.299 71.4015 159.219 73.5746C157.329 77.3736 161.64 72.8366 162.492 72.0107C164.05 70.501 165.592 68.798 167.419 67.6447C167.877 67.3557 171.308 64.1071 171.308 65.4617C171.308 67.1238 168.846 69.6719 167.872 71.0007C165.324 74.4776 164.027 77.5052 168.456 73.0533C171.272 70.2219 172.574 72.9766 171.243 75.9857C170.201 78.3432 174.176 71.3516 175.133 73.4117C176.293 75.912 175.202 76.9026 176.624 78.3316" stroke="#3A2F27" stroke-width="3" stroke-linecap="round"/>
<path d="M322.229 48.9663C322.279 49.8371 322.46 50.5449 323.198 50.9157" stroke="#3A2F27" stroke-width="5" stroke-linecap="round"/>
<path d="M181.646 87.9555C182.668 86.5051 183.905 85.6819 185.528 85.0293" stroke="#3A2F27" stroke-width="5" stroke-linecap="round"/>
<ellipse cx="176.705" cy="246.494" rx="24.8878" ry="13.4029" fill="url(#paint0_radial_51_1737)"/>
<rect width="2.66726" height="8.03962" rx="1.33363" transform="matrix(0.97411 -0.226074 0.223833 0.974628 182.927 242.63)" fill="#D98070"/>
<rect width="2.66726" height="8.03962" rx="1.33363" transform="matrix(0.97411 -0.226074 0.223833 0.974627 177.584 242.63)" fill="#D98070"/>
<rect width="2.66726" height="8.03962" rx="1.33363" transform="matrix(0.97411 -0.226074 0.223833 0.974628 172.264 242.63)" fill="#D98070"/>
<rect width="2.66726" height="8.03962" rx="1.33363" transform="matrix(0.97411 -0.226074 0.223833 0.974627 167.012 242.638)" fill="#D98070"/>
<ellipse cx="295.811" cy="246.494" rx="24.8878" ry="13.4029" fill="url(#paint1_radial_51_1737)"/>
<rect width="2.66726" height="8.03962" rx="1.33363" transform="matrix(0.97411 -0.226074 0.223833 0.974628 302.021 242.63)" fill="#D98070"/>
<rect width="2.66726" height="8.03962" rx="1.33363" transform="matrix(0.97411 -0.226074 0.223833 0.974627 296.712 242.63)" fill="#D98070"/>
<rect width="2.66726" height="8.03962" rx="1.33363" transform="matrix(0.97411 -0.226074 0.223833 0.974628 291.357 242.63)" fill="#D98070"/>
<rect width="2.66726" height="8.03962" rx="1.33363" transform="matrix(0.97411 -0.226074 0.223833 0.974627 286.129 242.638)" fill="#D98070"/>
<ellipse cx="240.268" cy="231.305" rx="6.66638" ry="3.57411" fill="url(#paint2_radial_51_1737)"/>
<rect x="238.945" y="232.198" width="0.89419" height="2.66853" rx="0.447095" transform="rotate(-90 238.945 232.198)" fill="#D98070"/>
<path d="M189.674 545.64C170.784 473.2 178.464 416.114 184.665 396.625L292.709 395.199C295.094 409.697 299.865 442.684 299.865 458.655C299.865 478.619 289.702 547.625 283.978 559.033L267.098 567.969L258.658 567.472L246.246 557.761V547.614C246.246 539.935 249.778 485.749 250.493 475.054C251.066 466.498 246.916 464.359 244.769 464.359C243.577 463.884 239.617 463.076 233.321 463.646C227.024 464.217 226.404 471.489 226.881 475.054C227.835 500.009 229.886 551.486 230.459 557.761C231.031 564.035 228.312 566.079 226.881 566.317C215.433 568.598 202.553 564.415 197.545 562.039C194.614 560.648 191.105 551.344 189.674 545.64Z" fill="#FAE6DB" stroke="black"/>
<path d="M196.599 566.317C193.403 564.8 190.583 549.346 189.152 543.642C193.455 551.255 218.444 552.578 229.862 552.578L230.458 557.761C229.862 563.997 228.311 566.079 226.88 566.317C215.432 568.598 201.608 568.693 196.599 566.317Z" fill="black" stroke="black"/>
<path d="M280.445 566.266C283.666 564.788 286.507 550.692 287.949 545.132C283.613 552.552 257.832 552.875 246.325 552.875V557.926C245.748 564.042 248.488 566.034 249.93 566.266C261.467 568.49 275.397 568.583 280.445 566.266Z" fill="black" stroke="black"/>
<path d="M392.998 201.101C385.994 211.215 387.025 224.059 388.416 229.216L271.07 306.332L285.467 354.986L408.591 247.193C419.517 252.067 436.85 241.423 444.151 235.492C449.049 235.016 459.534 233.312 462.293 230.301C465.051 227.29 463.056 225.052 459.589 225.242C457.188 225.373 451.635 225.351 448.635 224.209C445.635 223.068 447.444 221.865 448.723 221.406C454.609 219.167 466.435 213.394 466.651 208.222C466.922 201.756 457.229 205.085 456.749 205.499C446.615 209.288 444.172 208.079 444.217 207.002C446.052 204.764 450.863 199.378 455.426 195.74C459.989 192.101 459.202 188.965 458.238 187.852C457.58 187.253 456.452 186.757 454.441 186.855C452.321 186.828 440.575 192.628 434.58 195.871C444.772 185.177 446.671 179.171 446.346 177.505C445.959 176.412 444.752 174.211 443.022 174.151C441.293 174.09 438.368 175.714 437.121 176.534L416.75 192.222C411.992 194.473 411.422 193.33 411.463 190.957C413.7 179.984 411.308 175.123 409.832 174.064C409.382 173.544 407.859 172.656 405.363 173.259C402.867 173.862 401.864 176.158 401.675 177.23C401.701 180.973 400.003 190.986 392.998 201.101Z" fill="#FAE6DB" stroke="black" stroke-width="2"/>
<path d="M87.8483 202.21C94.9662 212.245 94.0803 225.099 92.7475 230.272L201.068 316.262L190.642 353.496L72.7768 248.475C61.9063 253.472 44.4544 243.024 37.0873 237.176C32.1842 236.756 21.6802 235.17 18.8879 232.19C16.0957 229.21 18.0656 226.95 21.5343 227.101C23.9369 227.205 29.4888 227.12 32.4761 225.945C35.4633 224.769 33.6408 223.587 32.3561 223.143C26.4454 220.97 14.5553 215.332 14.2805 210.162C13.937 203.699 23.6674 206.918 24.1512 207.328C34.3273 211.001 36.7568 209.766 36.6996 208.689C34.8394 206.472 29.968 201.141 25.3645 197.554C20.7611 193.967 21.5123 190.822 22.4634 189.698C23.1147 189.092 24.2371 188.584 26.2492 188.659C28.3682 188.608 40.1789 194.275 46.2102 197.45C35.8982 186.872 33.9321 180.888 34.2381 179.218C34.613 178.121 35.7949 175.907 37.5234 175.826C39.2519 175.746 42.1956 177.337 43.4514 178.142L63.9978 193.6C68.7815 195.797 69.3385 194.648 69.2702 192.276C66.9094 181.329 69.2468 176.441 70.7107 175.365C71.1546 174.84 72.6681 173.935 75.1708 174.51C77.6734 175.085 78.7017 177.369 78.903 178.439C78.919 182.182 80.7304 192.175 87.8483 202.21Z" fill="#FAE6DB" stroke="black" stroke-width="2"/>
<path d="M180.937 361.402L186.968 412.296C207.535 416.899 253.374 415.005 280.457 412.296L286.46 361.402L344.05 316.262C329.653 310.801 315.586 289.784 310.29 277.538L271.566 301.864L261.637 296.403C258.824 300.54 248.893 310.304 236.814 310.304C224.899 310.304 220.927 307.325 211.494 294.914L202.338 299.217L163.337 277.538C155.394 292.233 137.19 309.477 129.081 316.262L180.937 361.402Z" fill="white" stroke="black" stroke-width="2"/>
<path d="M180.94 361.526C193.002 351.273 199.536 316.04 201.295 299.705C209.011 296.403 209.011 295.907 212.487 294.417C211.99 300.375 212.487 322.219 212.487 329.17C218.941 329.17 233.866 329.174 237.31 329.17H261.14L262.133 295.41L271.566 300.871C273.717 319.298 274.545 343.071 290.431 357.468C297.382 381.409 303.836 441.371 310.29 473.106C289.326 479.05 231.693 487.373 168.877 473.106C170.686 450.79 177.673 389.421 180.94 361.526Z" fill="#FA8C4F" stroke="black"/>
<path d="M124.302 218.309C126.674 216.841 132.076 215.007 134.704 219.41C132.514 220.327 127.368 221.391 124.302 218.309Z" fill="#E08572"/>
<path d="M337.823 217.208C340.196 215.74 345.598 213.906 348.226 218.309C346.036 219.226 340.889 220.29 337.823 217.208Z" fill="#E08572"/>
<rect x="267.304" y="207.38" width="38.9036" height="6.33315" rx="3.16657" transform="rotate(-16.9883 267.304 207.38)" fill="black"/>
<rect x="273.898" y="180.989" width="23.9679" height="6.15936" rx="3.07968" transform="rotate(13.3823 273.898 180.989)" fill="black"/>
<rect x="181.357" y="187.033" width="24.4541" height="5.75451" rx="2.87725" transform="rotate(-10.8164 181.357 187.033)" fill="black"/>
<rect x="269.2" y="205.966" width="38.9036" height="6.33315" rx="3.16657" transform="rotate(17.4392 269.2 205.966)" fill="black"/>
<rect width="41.0143" height="6.57202" rx="3.28601" transform="matrix(-0.957895 -0.287117 -0.297307 0.954782 206.011 206.282)" fill="black"/>
<rect width="41.0109" height="6.57259" rx="3.28629" transform="matrix(-0.955642 0.294529 0.30493 0.952375 204.001 204.816)" fill="black"/>
<path d="M249.488 243.786C243.319 244.408 242.9 241.095 240.235 239.741C235.436 244.615 232.833 244.097 229.748 243.786C228.749 248.863 230.282 259.343 239.076 259.343C250.067 259.343 251.597 243.573 249.488 243.786Z" fill="#FEC7C2"/>
<path d="M249.488 243.786C243.319 244.408 242.9 241.095 240.235 239.741C235.436 244.615 232.833 244.097 229.748 243.786M249.488 243.786C251.597 243.573 250.067 259.343 239.076 259.343C230.282 259.343 228.749 248.863 229.748 243.786M249.488 243.786C250.413 243.682 252.646 243.008 253.732 241.375M229.748 243.786C228.762 243.553 227.134 242.464 226.591 241.375" stroke="#C3908F" stroke-linejoin="round"/>
<defs>
<radialGradient id="paint0_radial_51_1737" cx="0" cy="0" r="1" gradientUnits="userSpaceOnUse" gradientTransform="translate(176.705 246.494) rotate(90) scale(13.4029 24.8878)">
<stop offset="0.0566663" stop-color="#FFAC99"/>
<stop offset="0.476666" stop-color="#FCB4A5"/>
<stop offset="0.741666" stop-color="#FBC6B8"/>
<stop offset="0.941666" stop-color="#FAE6DB"/>
</radialGradient>
<radialGradient id="paint1_radial_51_1737" cx="0" cy="0" r="1" gradientUnits="userSpaceOnUse" gradientTransform="translate(295.811 246.494) rotate(90) scale(13.4029 24.8878)">
<stop offset="0.0566663" stop-color="#FFAC99"/>
<stop offset="0.476666" stop-color="#FCB4A5"/>
<stop offset="0.741666" stop-color="#FBC6B8"/>
<stop offset="0.941666" stop-color="#FAE6DB"/>
</radialGradient>
<radialGradient id="paint2_radial_51_1737" cx="0" cy="0" r="1" gradientUnits="userSpaceOnUse" gradientTransform="translate(240.268 231.305) rotate(90) scale(3.57411 6.66638)">
<stop offset="0.0566663" stop-color="#FFAC99"/>
<stop offset="0.476666" stop-color="#FCB4A5"/>
<stop offset="0.741666" stop-color="#FFD2C7"/>
<stop offset="0.941666" stop-color="#FAE6DB"/>
</radialGradient>
</defs>
</svg>
