<svg width="659" height="1050" viewBox="0 0 659 1050" fill="none" xmlns="http://www.w3.org/2000/svg">
<path d="M231.169 522.572C275.611 478.253 315.165 479.981 329.386 486.384C368.851 479.594 389.977 489.214 395.607 494.873C467.781 529.184 484.164 644.737 481.942 698.199C476.467 774.702 499.691 802.157 494.714 842.902C489.736 883.646 474.881 905.138 470.437 908.414C467.844 913.533 458.609 918.858 454.316 920.881L449.847 908.414C450.509 911.411 450.741 918.101 446.372 920.881C442.003 923.661 416.419 924.687 404.173 924.853L400.697 913.434L391.761 924.853L364.456 926.839H318.284L269.135 922.371L260.198 913.434L255.73 922.371C247.787 922.371 225.28 920.385 215.02 919.392C206.282 918.995 194.047 912.646 189.021 909.521C169.589 893.56 152.683 888.025 162.283 830.839C171.882 773.653 175.171 718.552 175.615 698.15C175.615 658.09 186.726 566.891 231.169 522.572Z" fill="#2F2924" stroke="black" stroke-width="3" stroke-linecap="round"/>
<path d="M369.488 653.33C372.155 651.543 378.821 648.773 384.154 651.99" stroke="black" stroke-width="3" stroke-linecap="round"/>
<path d="M272.167 656.15C274.834 654.363 281.5 651.593 286.833 654.809" stroke="black" stroke-width="3" stroke-linecap="round"/>
<path d="M224.158 781.55C219.714 800.761 212.158 842.488 217.492 855.713C222.825 868.937 232.453 880.285 236.601 884.305" stroke="black" stroke-width="3" stroke-linecap="round"/>
<path d="M269.06 768.147C262.986 781.55 254.482 812.734 269.06 830.248" stroke="black" stroke-width="3" stroke-linecap="round"/>
<path d="M270.433 770.382C264.359 783.785 255.855 814.969 270.433 832.482" stroke="#393029" stroke-width="3" stroke-linecap="round"/>
<path d="M226.437 779.317C221.992 798.528 213.49 840.702 218.824 853.926C224.157 867.151 232.01 878.498 236.157 882.519" stroke="#393029" stroke-width="3" stroke-linecap="round"/>
<path d="M398.469 783.507C396.543 791.251 394.825 810.581 403.357 825.949C411.89 841.318 399.802 864.52 392.691 874.2" stroke="black" stroke-width="3" stroke-linecap="round"/>
<path d="M178.386 768.595C166.298 838.647 194.549 896.232 206.548 908.444H190.674C176.82 900.047 166.281 886.063 163.299 868.266C158.267 838.235 168.041 800.398 170.833 782.444C172.756 770.077 176.165 725.705 176.165 698.453C176.165 676.651 182.684 632.183 185.943 612.674C183.424 663.903 178.386 766.808 178.386 768.595Z" fill="#393129"/>
<path d="M315.276 507.238C313.854 502.949 306.98 498.898 303.721 497.409C309.054 497.409 324.017 503.962 330.831 507.238C346.119 494.729 360.608 498.749 365.941 502.324C359.541 502.324 351.719 505.6 348.608 507.238C355.008 508.668 364.015 513.195 367.718 515.28C354.919 510.991 337.794 517.067 330.831 520.641C320.876 515.28 297.055 513.939 286.389 513.939C292.077 508.221 308.017 507.089 315.276 507.238Z" fill="#2E2620"/>
<path d="M370.471 518.474C363.225 514.799 342.31 518.572 332.165 521.087C347.859 509.674 363.475 514.182 370.471 518.474C370.949 518.716 371.367 518.991 371.719 519.3C371.341 519.028 370.924 518.751 370.471 518.474Z" fill="#3A2F27"/>
<path d="M304.143 496.146C303.839 496.117 303.546 496.091 303.265 496.069C303.524 496.069 303.818 496.096 304.143 496.146C312.142 496.916 327.394 500.314 330.819 508.579C323.967 504.643 309.618 496.991 304.143 496.146Z" fill="#3A2F27"/>
<path d="M399.819 784.401C397.894 792.145 396.175 811.475 404.708 826.844C413.241 842.213 401.153 865.414 394.042 875.094" stroke="#393029" stroke-width="3" stroke-linecap="round"/>
<path d="M329.201 563.354C320.837 563.354 298.914 571.546 274.613 613.222C244.238 665.316 215.624 680.9 198.896 682.236" stroke="#393029" stroke-width="6" stroke-linecap="round"/>
<path d="M333.562 563.354C342.38 563.354 367.602 569.398 387.356 602.463C412.049 643.795 435.419 676.239 464.962 674.461" stroke="#393029" stroke-width="6" stroke-linecap="round"/>
<path d="M328.614 565.765C320.17 565.765 298.038 573.985 273.506 615.802C242.84 668.073 213.953 683.71 197.064 685.051" stroke="black" stroke-width="3" stroke-linecap="round"/>
<path d="M333.928 565.765C342.816 565.765 368.237 571.841 388.148 605.08C413.035 646.629 436.59 679.243 466.366 677.456" stroke="black" stroke-width="3" stroke-linecap="round"/>
<path d="M204.161 695.325C213.76 682.101 224.16 684.156 228.16 686.837V671.2C235.714 664.052 258.38 648.415 271.713 620.269C285.046 592.123 309.785 570.827 317.933 567.997C347.798 557.99 375.708 584.974 385.93 599.718C406.552 638.318 424.447 656.903 430.817 661.371L425.04 686.837C434.284 683.263 440.446 685.347 442.372 686.837C449.483 692.335 452.89 715.578 446.372 724.365C437.928 734.193 427.706 735.831 421.929 734.193L415.262 742.235C392.152 768.326 361.931 769.488 346.821 769.488V787.358L360.98 795.276C351.278 806.492 335.393 813.906 323.746 812.652C310.959 811.275 297.433 802.723 292.965 793.166L305.489 787.358V769.488C252.869 771.275 237.492 744.916 233.493 731.96C220.16 743.129 192.161 711.855 204.161 695.325Z" fill="#FAE6DB" stroke="black" stroke-width="3" stroke-linecap="round"/>
<path d="M322.078 567.757C312.223 577.664 309.684 579.283 300.795 607.519C291.907 635.754 272.043 642.058 264.043 642.058" stroke="#393029" stroke-width="4" stroke-linecap="round"/>
<path d="M323.172 566.657C318.792 567.207 307.492 578.183 298.604 606.419C289.715 634.654 271.494 641.713 263.494 641.713" stroke="black" stroke-width="3" stroke-linecap="round"/>
<path d="M474.288 742.779C478.121 705.353 476.296 635.821 471.003 604.633C483.596 638.756 480.311 711.407 479.763 725.717C479.325 737.165 490.166 791.212 493.998 815.429C496.626 859.019 480.676 894.134 472.098 906.793H454.578C466.076 895.601 488.085 862.102 479.763 822.034C471.441 781.966 474.106 752.869 474.288 742.779Z" fill="#393029"/>
<path d="M434.978 819.832C433.737 828.607 433.382 850.337 441.891 867.052C450.401 883.768 440.828 902.712 434.978 910.094" stroke="#393029" stroke-width="3" stroke-linecap="round"/>
<path d="M431.683 817.631C430.442 826.406 430.087 848.136 438.596 864.852C447.106 881.567 437.533 900.511 431.683 907.893" stroke="black" stroke-width="3" stroke-linecap="round"/>
<path d="M382.879 548.447C380.105 545.658 388.718 553.755 391.967 555.966C393.731 557.166 395.612 558.639 397.569 559.5C397.87 559.633 399.268 560.312 398.806 559.485C397.091 556.42 392.347 553.83 389.315 552.221C389.021 552.065 386.354 550.399 388.034 550.334C392.202 550.173 394.944 552.249 398.567 553.974C399.461 554.399 395.539 551.029 394.828 550.334C394.34 549.857 390.948 547.201 393.219 547.384C395.297 547.551 397.315 548.441 399.357 548.852C401.589 549.3 401.872 549.158 400.042 547.369C398.906 546.257 396.768 545.336 395.871 544.134C395.47 543.596 399.571 544.253 400.162 544.403C401.255 544.682 402.324 544.759 403.41 544.957C405.095 545.266 401.273 542.643 400.847 542.262C399.334 540.91 398.694 540.368 401.443 540.839C402.101 540.951 406.115 541.777 405.51 540.494C404.964 539.334 403.312 538.845 402.724 537.664" stroke="#3A2F27" stroke-width="3" stroke-linecap="round"/>
<path d="M243.12 551.121C239.142 555.12 245.138 550.464 246.491 549.231C249.123 546.834 253.634 542.25 256.928 541.379C259.34 540.741 254.886 545.956 253.751 548.189C252.648 550.359 251.299 552.401 250.219 554.575C248.329 558.374 252.64 553.837 253.492 553.011C255.05 551.501 256.592 549.798 258.419 548.645C258.877 548.356 262.308 545.107 262.308 546.462C262.308 548.124 259.846 550.672 258.872 552.001C256.324 555.478 255.027 558.505 259.456 554.053C262.272 551.222 263.574 553.977 262.243 556.986C261.201 559.343 265.176 552.352 266.133 554.412C267.293 556.912 266.202 557.903 267.624 559.332" stroke="#3A2F27" stroke-width="3" stroke-linecap="round"/>
<path d="M413.229 529.966C413.279 530.837 413.46 531.545 414.198 531.916" stroke="#3A2F27" stroke-width="5" stroke-linecap="round"/>
<path d="M272.646 568.956C273.668 567.505 274.905 566.682 276.528 566.029" stroke="#3A2F27" stroke-width="5" stroke-linecap="round"/>
<ellipse cx="267.705" cy="727.494" rx="24.8878" ry="13.4029" fill="url(#paint0_radial_75_5)"/>
<rect width="2.66726" height="8.03962" rx="1.33363" transform="matrix(0.97411 -0.226074 0.223833 0.974628 273.927 723.63)" fill="#D98070"/>
<rect width="2.66726" height="8.03962" rx="1.33363" transform="matrix(0.97411 -0.226074 0.223833 0.974627 268.584 723.63)" fill="#D98070"/>
<rect width="2.66726" height="8.03962" rx="1.33363" transform="matrix(0.97411 -0.226074 0.223833 0.974628 263.264 723.63)" fill="#D98070"/>
<rect width="2.66726" height="8.03962" rx="1.33363" transform="matrix(0.97411 -0.226074 0.223833 0.974627 258.012 723.638)" fill="#D98070"/>
<ellipse cx="386.811" cy="727.494" rx="24.8878" ry="13.4029" fill="url(#paint1_radial_75_5)"/>
<rect width="2.66726" height="8.03962" rx="1.33363" transform="matrix(0.97411 -0.226074 0.223833 0.974628 393.021 723.63)" fill="#D98070"/>
<rect width="2.66726" height="8.03962" rx="1.33363" transform="matrix(0.97411 -0.226074 0.223833 0.974627 387.712 723.63)" fill="#D98070"/>
<rect width="2.66726" height="8.03962" rx="1.33363" transform="matrix(0.97411 -0.226074 0.223833 0.974628 382.357 723.63)" fill="#D98070"/>
<rect width="2.66726" height="8.03962" rx="1.33363" transform="matrix(0.97411 -0.226074 0.223833 0.974627 377.129 723.638)" fill="#D98070"/>
<ellipse cx="331.268" cy="712.305" rx="6.66638" ry="3.57411" fill="url(#paint2_radial_75_5)"/>
<rect x="329.945" y="713.198" width="0.89419" height="2.66853" rx="0.447095" transform="rotate(-90 329.945 713.198)" fill="#D98070"/>
<path d="M280.674 1026.64C261.784 954.2 269.464 897.114 275.665 877.625L383.709 876.199C386.094 890.697 390.865 923.684 390.865 939.655C390.865 959.619 380.702 1028.62 374.978 1040.03L358.098 1048.97L349.658 1048.47L337.246 1038.76V1028.61C337.246 1020.93 340.778 966.749 341.493 956.054C342.066 947.498 337.916 945.359 335.769 945.359C334.577 944.884 330.617 944.076 324.321 944.646C318.024 945.217 317.404 952.489 317.881 956.054C318.835 981.009 320.886 1032.49 321.459 1038.76C322.031 1045.03 319.312 1047.08 317.881 1047.32C306.433 1049.6 293.553 1045.42 288.545 1043.04C285.614 1041.65 282.105 1032.34 280.674 1026.64Z" fill="#FAE6DB" stroke="black"/>
<path d="M287.599 1047.32C284.403 1045.8 281.583 1030.35 280.152 1024.64C284.455 1032.25 309.444 1033.58 320.862 1033.58L321.458 1038.76C320.862 1045 319.311 1047.08 317.88 1047.32C306.432 1049.6 292.608 1049.69 287.599 1047.32Z" fill="black" stroke="black"/>
<path d="M371.445 1047.27C374.666 1045.79 377.507 1031.69 378.949 1026.13C374.613 1033.55 348.832 1033.87 337.325 1033.87V1038.93C336.748 1045.04 339.488 1047.03 340.93 1047.27C352.467 1049.49 366.397 1049.58 371.445 1047.27Z" fill="black" stroke="black"/>
<path d="M483.998 682.101C476.994 692.215 478.025 705.059 479.416 710.216L362.07 787.332L376.467 835.986L499.591 728.193C510.517 733.067 527.85 722.423 535.151 716.492C540.049 716.016 550.534 714.312 553.293 711.301C556.051 708.29 554.056 706.052 550.589 706.242C548.188 706.373 542.635 706.351 539.635 705.209C536.635 704.068 538.444 702.865 539.723 702.406C545.609 700.167 557.435 694.394 557.651 689.222C557.922 682.756 548.229 686.085 547.749 686.499C537.615 690.288 535.172 689.079 535.217 688.002C537.052 685.764 541.863 680.378 546.426 676.74C550.989 673.101 550.202 669.965 549.238 668.852C548.58 668.253 547.452 667.757 545.441 667.855C543.321 667.828 531.575 673.628 525.58 676.871C535.772 666.177 537.671 660.171 537.346 658.505C536.959 657.412 535.752 655.211 534.022 655.151C532.293 655.09 529.368 656.714 528.121 657.534L507.75 673.222C502.992 675.473 502.422 674.33 502.463 671.957C504.7 660.984 502.308 656.123 500.832 655.064C500.382 654.544 498.859 653.656 496.363 654.259C493.867 654.862 492.864 657.158 492.675 658.23C492.701 661.973 491.003 671.986 483.998 682.101Z" fill="#FAE6DB" stroke="black" stroke-width="2"/>
<path d="M178.848 683.21C185.966 693.245 185.08 706.099 183.748 711.272L292.068 797.262L281.642 834.496L163.777 729.475C152.906 734.472 135.454 724.024 128.087 718.176C123.184 717.756 112.68 716.17 109.888 713.19C107.096 710.21 109.066 707.95 112.534 708.101C114.937 708.205 120.489 708.12 123.476 706.945C126.463 705.769 124.641 704.587 123.356 704.143C117.445 701.97 105.555 696.332 105.28 691.162C104.937 684.699 114.667 687.918 115.151 688.328C125.327 692.001 127.757 690.766 127.7 689.689C125.839 687.472 120.968 682.141 116.365 678.554C111.761 674.967 112.512 671.822 113.463 670.698C114.115 670.092 115.237 669.584 117.249 669.659C119.368 669.608 131.179 675.275 137.21 678.45C126.898 667.872 124.932 661.888 125.238 660.218C125.613 659.121 126.795 656.907 128.523 656.826C130.252 656.746 133.196 658.337 134.451 659.142L154.998 674.6C159.782 676.797 160.339 675.648 160.27 673.276C157.909 662.329 160.247 657.441 161.711 656.365C162.155 655.84 163.668 654.935 166.171 655.51C168.673 656.085 169.702 658.369 169.903 659.439C169.919 663.182 171.73 673.175 178.848 683.21Z" fill="#FAE6DB" stroke="black" stroke-width="2"/>
<path d="M271.937 842.402L277.968 893.296C298.535 897.899 344.374 896.005 371.457 893.296L377.46 842.402L435.05 797.262C420.653 791.801 406.586 770.784 401.29 758.538L362.566 782.864L352.637 777.403C349.824 781.54 339.893 791.304 327.814 791.304C315.899 791.304 311.927 788.325 302.494 775.914L293.338 780.217L254.337 758.538C246.394 773.233 228.19 790.477 220.081 797.262L271.937 842.402Z" fill="white" stroke="black" stroke-width="2"/>
<path d="M271.94 842.526C284.002 832.273 290.536 797.04 292.295 780.705C300.011 777.403 300.011 776.906 303.487 775.417C302.99 781.375 303.487 803.219 303.487 810.169C309.941 810.169 324.866 810.174 328.31 810.169H352.14L353.133 776.41L362.566 781.871C364.717 800.298 365.545 824.07 381.431 838.468C388.382 862.409 394.836 922.37 401.29 954.105C380.326 960.05 322.693 968.373 259.877 954.105C261.686 931.79 268.673 870.421 271.94 842.526Z" fill="#FA8C4F" stroke="black"/>
<path d="M215.302 699.309C217.674 697.841 223.076 696.007 225.704 700.41C223.514 701.327 218.368 702.391 215.302 699.309Z" fill="#E08572"/>
<path d="M428.823 698.208C431.196 696.74 436.598 694.906 439.226 699.309C437.036 700.226 431.889 701.29 428.823 698.208Z" fill="#E08572"/>
<rect x="358.304" y="688.38" width="38.9036" height="6.33315" rx="3.16657" transform="rotate(-16.9883 358.304 688.38)" fill="black"/>
<rect x="364.898" y="661.989" width="23.9679" height="6.15936" rx="3.07968" transform="rotate(13.3823 364.898 661.989)" fill="black"/>
<rect x="272.357" y="668.033" width="24.4541" height="5.75451" rx="2.87725" transform="rotate(-10.8164 272.357 668.033)" fill="black"/>
<rect x="360.2" y="686.966" width="38.9036" height="6.33315" rx="3.16657" transform="rotate(17.4392 360.2 686.966)" fill="black"/>
<rect width="41.0143" height="6.57202" rx="3.28601" transform="matrix(-0.957895 -0.287117 -0.297307 0.954782 297.011 687.282)" fill="black"/>
<rect width="41.0109" height="6.57259" rx="3.28629" transform="matrix(-0.955642 0.294529 0.30493 0.952375 295.001 685.816)" fill="black"/>
<path d="M340.488 724.786C334.319 725.408 333.9 722.095 331.235 720.741C326.436 725.615 323.833 725.097 320.748 724.786C319.749 729.863 321.282 740.343 330.076 740.343C341.067 740.343 342.597 724.573 340.488 724.786Z" fill="#FEC7C2"/>
<path d="M340.488 724.786C334.319 725.408 333.9 722.095 331.235 720.741C326.436 725.615 323.833 725.097 320.748 724.786M340.488 724.786C342.597 724.573 341.067 740.343 330.076 740.343C321.282 740.343 319.749 729.863 320.748 724.786M340.488 724.786C341.413 724.682 343.646 724.008 344.732 722.375M320.748 724.786C319.762 724.553 318.134 723.464 317.591 722.375" stroke="#C3908F" stroke-linejoin="round"/>
<rect width="659" height="320" rx="33" fill="#FECA64"/>
<path d="M330 373L388.024 316H271.976L330 373Z" fill="#FECA64"/>
<defs>
<radialGradient id="paint0_radial_75_5" cx="0" cy="0" r="1" gradientUnits="userSpaceOnUse" gradientTransform="translate(267.705 727.494) rotate(90) scale(13.4029 24.8878)">
<stop offset="0.0566663" stop-color="#FFAC99"/>
<stop offset="0.476666" stop-color="#FCB4A5"/>
<stop offset="0.741666" stop-color="#FBC6B8"/>
<stop offset="0.941666" stop-color="#FAE6DB"/>
</radialGradient>
<radialGradient id="paint1_radial_75_5" cx="0" cy="0" r="1" gradientUnits="userSpaceOnUse" gradientTransform="translate(386.811 727.494) rotate(90) scale(13.4029 24.8878)">
<stop offset="0.0566663" stop-color="#FFAC99"/>
<stop offset="0.476666" stop-color="#FCB4A5"/>
<stop offset="0.741666" stop-color="#FBC6B8"/>
<stop offset="0.941666" stop-color="#FAE6DB"/>
</radialGradient>
<radialGradient id="paint2_radial_75_5" cx="0" cy="0" r="1" gradientUnits="userSpaceOnUse" gradientTransform="translate(331.268 712.305) rotate(90) scale(3.57411 6.66638)">
<stop offset="0.0566663" stop-color="#FFAC99"/>
<stop offset="0.476666" stop-color="#FCB4A5"/>
<stop offset="0.741666" stop-color="#FFD2C7"/>
<stop offset="0.941666" stop-color="#FAE6DB"/>
</radialGradient>
</defs>
</svg>
