<svg width="172" height="172" viewBox="0 0 172 172" fill="none" xmlns="http://www.w3.org/2000/svg">
<g clip-path="url(#clip0_426_79)">
<path d="M61.9206 171.999C77.7446 171.999 90.5872 159.157 90.5872 143.333V114.666H61.9206C46.0966 114.666 33.2539 127.509 33.2539 143.333C33.2539 159.157 46.0966 171.999 61.9206 171.999Z" fill="#38585A"/>
<path d="M33.2539 86.0007C33.2539 70.1767 46.0966 57.334 61.9206 57.334H90.5872V114.667H61.9206C46.0966 114.667 33.2539 101.825 33.2539 86.0007Z" fill="#4A8F94"/>
<path d="M33.2539 28.6667C33.2539 12.8427 46.0966 0 61.9206 0H90.5872V57.3333H61.9206C46.0966 57.3333 33.2539 44.4907 33.2539 28.6667Z" fill="#38585A"/>
<path d="M90.5898 0H119.257C135.081 0 147.923 12.8427 147.923 28.6667C147.923 44.4907 135.081 57.3333 119.257 57.3333H90.5898V0Z" fill="#4A8F94"/>
<path d="M147.923 86.0007C147.923 101.825 135.081 114.667 119.257 114.667C103.433 114.667 90.5898 101.825 90.5898 86.0007C90.5898 70.1767 103.433 57.334 119.257 57.334C135.081 57.334 147.923 70.1767 147.923 86.0007Z" fill="#38585A"/>
</g>
<defs>
<clipPath id="clip0_426_79">
<rect width="172" height="172" fill="white"/>
</clipPath>
</defs>
</svg>
