<svg width="296" height="148" viewBox="0 0 296 148" fill="none" xmlns="http://www.w3.org/2000/svg">
<path d="M147.654 147.814C229.201 147.814 295.308 81.7073 295.308 0.160156H0C0 81.7073 66.107 147.814 147.654 147.814Z" fill="#FEF0E7"/>
<path d="M40.698 18.7844L41.5289 22.9585C41.9953 25.3019 41.9103 27.4424 41.2738 29.38C40.6414 31.3386 39.5438 32.981 37.9809 34.3072C36.4389 35.6296 34.5137 36.5015 32.2052 36.9231C29.7708 37.3677 27.5764 37.2697 25.6219 36.6291C23.6885 35.9848 22.0705 34.8491 20.7679 33.2222C19.4905 31.6124 18.602 29.5521 18.1022 27.0414L17.2713 22.8672C17.1922 22.4697 17.09 22.0655 16.9647 21.6547C16.8226 21.2687 16.6826 20.8931 16.5447 20.528C16.4153 20.0963 16.4642 19.6862 16.6913 19.2978C16.9017 18.9342 17.2377 18.7102 17.6994 18.6259C18.1611 18.5415 18.5722 18.6399 18.9326 18.9211C19.2931 19.2022 19.4834 19.5577 19.5038 19.9877L19.5403 20.8266L19.5528 20.8894C19.5861 21.0568 19.6867 21.1252 19.8546 21.0945L37.5775 17.8581C37.7664 17.8236 37.84 17.7018 37.7984 17.4925C37.7231 17.3328 37.6562 17.1607 37.5977 16.9762C37.5434 16.8127 37.5017 16.6577 37.4725 16.5112C37.3934 16.1137 37.4611 15.7436 37.6756 15.4008C37.9153 15.0752 38.2345 14.8759 38.6332 14.8031C39.0949 14.7188 39.506 14.8172 39.8664 15.0983C40.2269 15.3794 40.4173 15.735 40.4376 16.1649C40.4789 16.5911 40.5118 17.0296 40.5363 17.4804C40.5608 17.9313 40.6147 18.366 40.698 18.7844ZM20.6687 23.8731C20.4798 23.9076 20.4041 24.019 20.4416 24.2073L20.9039 26.5297C21.0413 27.2202 21.2563 27.9724 21.5488 28.7863C21.8413 29.6002 22.2366 30.3845 22.7348 31.1392C23.254 31.89 23.9056 32.5408 24.6894 33.0916C25.4984 33.6594 26.4671 34.0462 27.5956 34.2522C28.7492 34.4752 30.1024 34.4449 31.6554 34.1613C32.7047 33.9697 33.7123 33.623 34.6782 33.1214C35.665 32.616 36.5179 31.929 37.2367 31.0605C37.9765 30.1881 38.4922 29.1182 38.7836 27.8507C39.0792 26.6042 39.0604 25.144 38.7272 23.4702L38.2275 20.9594C38.19 20.7711 38.0768 20.6942 37.8879 20.7287L20.6687 23.8731Z" fill="#AD5015"/>
<path d="M35.7854 60.9198C35.979 61.3238 35.9938 61.7249 35.8299 62.1229C35.6855 62.5124 35.4088 62.7737 34.9997 62.9069L32.4558 63.815C31.8997 64.0361 31.3439 64.0357 30.7885 63.814C30.2331 63.5923 29.8309 63.2217 29.582 62.7022L24.6874 52.4862C24.5215 52.1399 24.3171 51.7872 24.0741 51.4282C23.8404 51.0884 23.621 50.7539 23.416 50.4248C23.1639 50.0465 23.1008 49.6434 23.2267 49.2154C23.3527 48.7875 23.6305 48.4791 24.0602 48.2903C24.4899 48.1015 24.9054 48.1052 25.3068 48.3015C25.7277 48.4892 26.0057 48.7979 26.1406 49.2277C26.1488 49.294 26.1713 49.3656 26.2081 49.4425C26.245 49.5195 26.2767 49.6104 26.3033 49.7151L26.3309 49.7729C26.4047 49.9268 26.5197 49.9694 26.6759 49.9008L43.1407 42.6665C43.3165 42.5892 43.3675 42.4737 43.2938 42.3198C43.2569 42.2428 43.1959 42.1648 43.1107 42.0858C43.0543 42.0174 42.9933 41.9394 42.9277 41.8518C42.6755 41.4735 42.6027 41.0747 42.7091 40.6553C42.835 40.2273 43.1129 39.9189 43.5425 39.7301C43.9722 39.5413 44.3975 39.5408 44.8185 39.7285C45.2394 39.9162 45.5173 40.2249 45.6523 40.6547C45.7976 41.0566 45.9377 41.4725 46.0727 41.9022C46.2077 42.332 46.3627 42.7296 46.5379 43.0952L51.3495 53.138C51.5984 53.6575 51.6295 54.1911 51.4427 54.739C51.256 55.2868 50.8938 55.6905 50.3561 55.95L47.9782 57.2044C47.6255 57.406 47.2382 57.4364 46.8162 57.2958C46.3942 57.1552 46.0864 56.8828 45.8928 56.4788C45.7084 56.094 45.6787 55.7112 45.8035 55.3303C45.9571 54.96 46.2195 54.6934 46.5906 54.5303C46.825 54.4273 47.0835 54.3254 47.3661 54.2245C47.6775 54.1343 47.9746 54.0387 48.2572 53.9378C48.433 53.8605 48.4794 53.7354 48.3964 53.5622L44.5388 45.5106C44.4559 45.3375 44.3265 45.2895 44.1507 45.3667L38.1156 48.0184C37.9398 48.0957 37.8934 48.2209 37.9764 48.394L41.3639 55.4644C41.5298 55.8107 41.5457 56.1647 41.4116 56.5264C41.2776 56.888 41.0347 57.1461 40.6832 57.3006C40.3316 57.4551 39.969 57.463 39.5952 57.3245C39.241 57.1773 38.981 56.9306 38.815 56.5843L35.4275 49.5139C35.3446 49.3408 35.2152 49.2928 35.0394 49.3701L28.1254 52.4079C27.9496 52.4852 27.9032 52.6104 27.9862 52.7835L31.8438 60.8351C31.9267 61.0083 32.0561 61.0562 32.2319 60.979C32.5156 60.831 32.7752 60.682 33.0107 60.532C33.2749 60.3926 33.534 60.2671 33.7879 60.1556C34.159 59.9925 34.5314 59.9803 34.9051 60.1188C35.3076 60.268 35.601 60.535 35.7854 60.9198Z" fill="#AD5015"/>
<path d="M52.7097 67.6247C52.0176 68.0568 51.593 68.5828 51.4357 69.2027C51.309 69.8266 51.336 70.5223 51.5169 71.2898C51.7111 72.074 51.9779 72.8973 52.3173 73.7597C52.6567 74.6221 52.9703 75.5035 53.2583 76.4039C53.5634 77.2917 53.7444 78.1784 53.8014 79.064C53.8889 79.9536 53.7559 80.8074 53.4024 81.6254C53.0795 82.4473 52.4377 83.2134 51.477 83.9236C50.4306 84.6973 49.2748 85.1144 48.0095 85.1752C46.7576 85.2525 45.5099 84.9954 44.2663 84.4039C43.0227 83.8124 41.9189 82.9188 40.9548 81.7231C39.7496 80.2284 39.0198 78.7799 38.7653 77.3777C38.5279 75.9627 38.5228 74.7339 38.7499 73.6912C38.9126 72.9082 39.277 72.3075 39.8431 71.8889C40.3234 71.5338 40.8556 71.3789 41.4397 71.4242C42.0239 71.4695 42.5436 71.7744 42.9988 72.3391C43.3738 72.8041 43.5016 73.3192 43.3824 73.8845C43.2766 74.4664 43.0007 74.9222 42.5547 75.2519C42.3317 75.4168 42.06 75.5382 41.7395 75.6161C41.562 75.6677 41.4725 75.7604 41.4709 75.8942C41.4759 76.5797 41.6069 77.2515 41.8639 77.9098C42.1343 78.5846 42.4904 79.1961 42.9323 79.7441C43.5214 80.4749 44.2125 81.0773 45.0054 81.5513C45.8155 82.0127 46.6281 82.2734 47.4432 82.3335C48.2754 82.3808 49.0175 82.1636 49.6693 81.6816C50.2526 81.2504 50.5923 80.7209 50.6885 80.0932C50.8018 79.4527 50.7528 78.7467 50.5414 77.9752C50.3606 77.2076 50.1072 76.401 49.7812 75.5552C49.4552 74.7094 49.1482 73.8363 48.8603 72.9359C48.5857 72.0521 48.4114 71.1737 48.3372 70.3007C48.2937 69.4317 48.4315 68.6008 48.7506 67.8082C49.0698 67.0155 49.6754 66.2895 50.5674 65.63C51.5452 64.9071 52.5111 64.458 53.4651 64.2829C54.4496 64.1116 55.382 64.1644 56.2624 64.4413C57.1599 64.7055 57.9909 65.1249 58.7554 65.6995C59.5371 66.2614 60.2292 66.9161 60.8317 67.6634C61.595 68.61 62.1876 69.6166 62.6094 70.6831C63.0313 71.7496 63.2163 72.7261 63.1645 73.6127C63.126 74.5158 62.798 75.1957 62.1805 75.6523C61.6868 75.9908 61.1345 76.1208 60.5236 76.0423C59.9261 75.9804 59.4399 75.7169 59.065 75.2519C58.69 74.7869 58.5402 74.2615 58.6155 73.6757C58.7041 73.1065 58.9886 72.6444 59.4689 72.2893C59.6405 72.1624 59.7672 72.082 59.8492 72.0478C60.0132 71.9796 60.0837 71.9142 60.0607 71.8517C60.0067 71.547 59.8485 71.1471 59.5861 70.6519C59.3372 70.1733 59.0185 69.6932 58.6302 69.2116C58.1883 68.6635 57.6539 68.1706 57.0271 67.7328C56.4308 67.2989 55.7643 67.0495 55.0274 66.9846C54.3078 66.907 53.5352 67.1204 52.7097 67.6247Z" fill="#AD5015"/>
<path d="M61.3925 99.3801C61.749 99.6215 61.9417 99.9484 61.9704 100.361C62.0298 100.771 61.9161 101.134 61.6292 101.449C61.3424 101.765 60.9827 101.923 60.5504 101.924C60.1344 101.938 59.7697 101.801 59.4561 101.512C59.0402 101.082 58.6498 100.688 58.285 100.329C57.9059 99.9853 57.5279 99.6566 57.1508 99.3426C56.4951 98.7965 55.6898 98.2091 54.7349 97.5803C54.3926 97.3231 54.1918 96.9894 54.1324 96.5793C54.0893 96.1829 54.2112 95.8268 54.4981 95.511C54.785 95.1951 55.1364 95.0301 55.5524 95.0159C55.9991 94.9996 56.372 95.1438 56.6712 95.4484C56.8208 95.6007 56.9786 95.7598 57.1445 95.9258C57.3105 96.0918 57.4765 96.2577 57.6425 96.4237L57.6917 96.4646C57.8064 96.5602 57.9212 96.5448 58.0359 96.4185L70.3639 82.8454C70.4787 82.719 70.4787 82.6081 70.3639 82.5125C70.1672 82.3487 69.9715 82.1996 69.7768 82.0652C69.5821 81.9308 69.3803 81.8044 69.1713 81.6858C68.8291 81.4285 68.6283 81.0949 68.5688 80.6848C68.5258 80.2884 68.6477 79.9323 68.9345 79.6164C69.2214 79.3006 69.5728 79.1356 69.9888 79.1214C70.4355 79.1051 70.8084 79.2493 71.1076 79.5539C71.54 79.9971 71.9304 80.3916 72.2787 80.7371C72.6578 81.0806 73.0359 81.4093 73.4129 81.7233C74.0523 82.2557 74.8576 82.8431 75.8289 83.4856C76.1855 83.727 76.3781 84.0538 76.4068 84.4661C76.4662 84.8761 76.3525 85.2391 76.0657 85.5549C75.7788 85.8708 75.4192 86.0289 74.9868 86.0294C74.5708 86.0436 74.2061 85.9063 73.8926 85.6175C73.7573 85.4494 73.6077 85.2971 73.4438 85.1605C73.2942 85.0082 73.1364 84.8491 72.9704 84.6831L72.9213 84.6422C72.8065 84.5466 72.6918 84.562 72.577 84.6883L60.249 98.2615C60.1343 98.3878 60.1425 98.5056 60.2736 98.6148C60.4376 98.7513 60.6169 98.8868 60.8115 99.0211C61.0205 99.1397 61.2142 99.2594 61.3925 99.3801Z" fill="#AD5015"/>
<path d="M96.2105 112.446C95.8932 113.001 95.4159 113.257 94.7786 113.212C94.5957 113.188 94.4672 113.242 94.3931 113.371L90.5213 120.152C90.3309 120.485 90.0346 120.703 89.6325 120.805C89.2492 120.917 88.8875 120.885 88.5473 120.706C88.2071 120.528 87.9829 120.255 87.8748 119.885C87.7666 119.516 87.8077 119.164 87.9981 118.831L88.7281 117.552C88.7915 117.441 88.8002 117.362 88.7541 117.313C88.7185 117.247 88.6271 117.235 88.4797 117.278C87.3784 117.616 86.1693 117.777 84.8525 117.761C83.5463 117.727 82.2128 117.354 80.852 116.642C79.321 115.84 78.1095 114.845 77.2172 113.656C76.3356 112.449 75.7498 111.131 75.46 109.704C75.1891 108.287 75.1865 106.83 75.4522 105.332C75.7369 103.845 76.2759 102.407 77.0693 101.017C78.0214 99.3501 79.1607 98.0214 80.4871 97.0313C81.8241 96.0227 83.2432 95.3218 84.7443 94.9285C86.2561 94.5168 87.7637 94.3916 89.2673 94.5531C90.7708 94.7145 92.1652 95.1317 93.4504 95.8045C94.4521 96.3289 95.3545 97.0058 96.1574 97.8352C96.9604 98.6647 97.5926 99.6213 98.0539 100.705C98.6385 102.046 98.6875 103.142 98.2009 103.994C97.8835 104.55 97.4206 104.91 96.8121 105.072C96.2331 105.226 95.6885 105.17 95.1782 104.903C94.6112 104.606 94.2592 104.169 94.1223 103.592C94.0042 103.025 94.0827 102.5 94.3578 102.019C94.4847 101.796 94.6642 101.59 94.8962 101.398C94.9363 101.371 94.9775 101.32 95.0198 101.246C95.0621 101.172 95.0613 101.088 95.0175 100.992C94.6703 100.353 94.2325 99.7874 93.7041 99.2941C93.1945 98.8108 92.6278 98.4059 92.0041 98.0793C91.078 97.5945 90.065 97.3049 88.9651 97.2103C87.8758 97.0973 86.7711 97.2048 85.6509 97.5328C84.5307 97.8607 83.457 98.4297 82.4299 99.2395C81.4323 100.041 80.5526 101.108 79.7909 102.442C78.9106 104.027 78.4144 105.584 78.3021 107.113C78.2192 108.634 78.506 110.023 79.1624 111.281C79.8294 112.521 80.8433 113.497 82.2041 114.209C85.1148 115.733 88.0016 115.536 90.8646 113.618C90.9847 113.536 91.0713 113.449 91.1242 113.356L91.9334 111.939C92.0286 111.772 91.9912 111.645 91.8211 111.555C91.4159 111.319 90.9853 111.106 90.5295 110.915C90.1031 110.716 89.5758 110.5 88.9476 110.268C88.5779 110.098 88.3201 109.819 88.1741 109.43C88.047 109.05 88.0893 108.675 88.3008 108.305C88.5124 107.934 88.8193 107.698 89.2214 107.596C89.653 107.485 90.0378 107.542 90.3757 107.767C90.8921 108.109 91.3381 108.403 91.7139 108.648C92.1191 108.884 92.5013 109.096 92.8604 109.284C93.2384 109.482 93.6406 109.68 94.0669 109.88C94.5039 110.06 95.0028 110.261 95.5638 110.483C95.9629 110.644 96.2208 110.923 96.3373 111.321C96.4643 111.7 96.4221 112.075 96.2105 112.446Z" fill="#AD5015"/>
<path d="M128.062 108.213C128.488 108.271 128.808 108.479 129.023 108.837C129.244 109.175 129.3 109.55 129.193 109.963C129.091 110.356 128.87 110.654 128.53 110.858C128.191 111.062 127.834 111.119 127.46 111.03C127.315 110.995 127.162 110.948 127.002 110.887C126.862 110.832 126.701 110.772 126.52 110.707L126.458 110.692C126.312 110.657 126.218 110.722 126.175 110.888L121.279 129.684C121.161 130.139 120.906 130.483 120.514 130.719C120.117 130.975 119.679 131.046 119.202 130.932C118.497 130.763 118.014 130.33 117.755 129.633L111.216 110.441C111.18 110.323 111.132 110.257 111.069 110.242C110.965 110.217 110.892 110.287 110.849 110.452L107.026 125.131C106.983 125.296 107.034 125.396 107.179 125.43C107.47 125.5 107.742 125.554 107.997 125.593C108.277 125.616 108.534 125.644 108.768 125.678C109.194 125.736 109.514 125.944 109.729 126.302C109.971 126.645 110.038 127.023 109.93 127.436C109.823 127.849 109.578 128.152 109.197 128.346C108.837 128.545 108.452 128.585 108.042 128.465C107.477 128.264 106.972 128.089 106.526 127.939C106.096 127.814 105.673 127.702 105.258 127.603C104.864 127.509 104.436 127.418 103.974 127.329C103.527 127.267 102.995 127.195 102.377 127.113C101.978 127.039 101.657 126.831 101.416 126.489C101.195 126.151 101.139 125.776 101.246 125.363C101.354 124.95 101.575 124.652 101.909 124.468C102.248 124.264 102.605 124.207 102.979 124.296C103.124 124.331 103.266 124.376 103.406 124.431C103.567 124.491 103.738 124.554 103.919 124.619L103.982 124.634C104.127 124.669 104.221 124.604 104.264 124.438L108.829 106.911C108.883 106.705 108.801 106.597 108.582 106.589L107.928 106.564C107.455 106.517 107.09 106.31 106.833 105.941C106.582 105.553 106.516 105.131 106.634 104.677C106.752 104.223 107.015 103.891 107.422 103.681C107.85 103.476 108.274 103.457 108.694 103.623C108.989 103.759 109.266 103.88 109.525 103.985C109.81 104.075 110.061 104.168 110.279 104.264C111.612 104.648 112.475 105.435 112.871 106.626L119.119 125.287C119.154 125.405 119.203 125.472 119.265 125.487C119.369 125.511 119.442 125.441 119.485 125.276L123.413 110.195C123.456 110.03 123.405 109.93 123.26 109.896C122.99 109.831 122.717 109.777 122.442 109.733C122.167 109.69 121.91 109.661 121.671 109.648C121.251 109.569 120.92 109.359 120.679 109.016C120.458 108.678 120.401 108.303 120.509 107.89C120.616 107.477 120.85 107.171 121.211 106.972C121.597 106.758 121.993 106.721 122.397 106.861C122.983 107.066 123.488 107.242 123.913 107.387C124.343 107.512 124.766 107.624 125.181 107.723C125.596 107.822 126.024 107.913 126.465 107.996C126.933 108.064 127.465 108.136 128.062 108.213Z" fill="#AD5015"/>
<path d="M155.175 116.016C155.226 116.826 155.489 117.459 155.963 117.913C156.455 118.344 157.085 118.681 157.853 118.925C158.641 119.166 159.499 119.365 160.427 119.524C161.354 119.682 162.286 119.872 163.223 120.094C164.157 120.294 165.03 120.599 165.842 121.009C166.673 121.395 167.366 121.95 167.922 122.673C168.496 123.373 168.867 124.314 169.036 125.497C169.219 126.785 169.035 127.982 168.481 129.087C167.949 130.189 167.122 131.115 166 131.864C164.879 132.613 163.557 133.087 162.034 133.287C160.13 133.536 158.495 133.405 157.13 132.896C155.761 132.365 154.669 131.733 153.854 131.001C153.238 130.457 152.88 129.837 152.78 129.14C152.696 128.549 152.814 128.017 153.135 127.545C153.455 127.073 153.975 126.79 154.694 126.696C155.287 126.618 155.805 126.776 156.249 127.17C156.714 127.561 156.986 128.031 157.064 128.58C157.103 128.854 157.08 129.148 156.996 129.46C156.956 129.637 156.995 129.761 157.113 129.832C157.723 130.182 158.382 130.419 159.089 130.542C159.817 130.661 160.53 130.676 161.228 130.584C162.159 130.463 163.025 130.188 163.826 129.76C164.624 129.312 165.245 128.757 165.69 128.097C166.131 127.415 166.295 126.673 166.18 125.87C166.078 125.152 165.771 124.59 165.261 124.183C164.747 123.756 164.098 123.432 163.312 123.212C162.545 122.968 161.708 122.766 160.802 122.605C159.895 122.444 158.974 122.252 158.037 122.031C157.122 121.806 156.259 121.5 155.449 121.111C154.658 120.698 153.987 120.151 153.438 119.47C152.888 118.789 152.535 117.899 152.378 116.801C152.207 115.597 152.272 114.545 152.575 113.645C152.895 112.721 153.39 111.957 154.058 111.353C154.723 110.729 155.494 110.241 156.37 109.889C157.244 109.517 158.156 109.268 159.108 109.144C160.314 108.986 161.491 109.004 162.639 109.198C163.787 109.392 164.742 109.74 165.503 110.243C166.285 110.743 166.731 111.373 166.839 112.134C166.902 112.728 166.753 113.264 166.39 113.741C166.048 114.216 165.581 114.493 164.989 114.57C164.397 114.648 163.859 114.503 163.375 114.136C162.913 113.766 162.64 113.285 162.556 112.694C162.526 112.483 162.515 112.334 162.524 112.246C162.542 112.072 162.518 111.978 162.452 111.965C162.156 111.854 161.725 111.781 161.16 111.747C160.616 111.711 160.038 111.733 159.424 111.813C158.726 111.904 158.033 112.103 157.344 112.408C156.673 112.689 156.131 113.126 155.72 113.718C155.306 114.288 155.124 115.054 155.175 116.016Z" fill="#AD5015"/>
<path d="M188.356 124.761C188.747 124.587 189.135 124.594 189.52 124.781C189.918 124.942 190.189 125.222 190.334 125.624C190.478 126.025 190.446 126.407 190.236 126.768C190.046 127.123 189.745 127.357 189.333 127.471C188.744 127.598 188.2 127.722 187.699 127.843C187.206 127.983 186.726 128.13 186.26 128.285C185.45 128.552 184.53 128.924 183.5 129.399C183.102 129.553 182.704 129.55 182.306 129.39C181.928 129.222 181.667 128.938 181.523 128.537C181.378 128.135 181.4 127.757 181.59 127.403C181.792 127.021 182.103 126.784 182.523 126.69C182.733 126.643 182.953 126.593 183.183 126.539C183.413 126.486 183.643 126.432 183.873 126.378L183.934 126.358C184.075 126.311 184.117 126.208 184.06 126.047L177.842 108.798C177.784 108.637 177.684 108.58 177.542 108.627C177.299 108.707 177.07 108.795 176.854 108.888C176.639 108.982 176.427 109.086 176.218 109.2C175.82 109.354 175.423 109.35 175.025 109.19C174.647 109.023 174.386 108.738 174.241 108.337C174.097 107.936 174.119 107.558 174.308 107.203C174.511 106.822 174.822 106.584 175.242 106.49C175.851 106.356 176.395 106.232 176.876 106.118C177.369 105.978 177.849 105.83 178.315 105.676C179.105 105.415 180.025 105.044 181.075 104.562C181.466 104.388 181.854 104.394 182.238 104.581C182.636 104.742 182.908 105.023 183.052 105.424C183.197 105.826 183.164 106.207 182.955 106.568C182.765 106.923 182.464 107.157 182.052 107.271C181.835 107.298 181.625 107.345 181.422 107.412C181.213 107.459 180.993 107.509 180.763 107.562L180.702 107.582C180.56 107.629 180.518 107.733 180.576 107.894L186.794 125.143C186.852 125.304 186.962 125.357 187.124 125.304C187.326 125.237 187.535 125.156 187.751 125.063C187.959 124.949 188.161 124.848 188.356 124.761Z" fill="#AD5015"/>
<path d="M210.448 97.2656C210.698 97.5892 210.778 97.9607 210.686 98.3803C210.595 98.7998 210.355 99.1201 209.965 99.3413C209.575 99.5624 209.167 99.6106 208.738 99.486C208.329 99.3508 208.027 99.1056 207.832 98.7504L206.741 96.6851C206.64 96.5219 206.516 96.4824 206.367 96.5666L202.304 98.8728C202.137 98.9676 202.104 99.0966 202.205 99.2599L211.653 114.524C211.743 114.67 211.853 114.705 211.983 114.631C212.206 114.505 212.413 114.375 212.606 114.241C212.806 114.078 212.994 113.935 213.168 113.812C213.517 113.565 213.899 113.495 214.316 113.601C214.722 113.69 215.037 113.915 215.262 114.278C215.475 114.623 215.525 114.987 215.411 115.37C215.297 115.753 215.049 116.041 214.667 116.233C214.095 116.484 213.646 116.69 213.319 116.851C213.011 117.002 212.75 117.126 212.534 117.223C212.33 117.339 212.108 117.466 211.866 117.602C211.607 117.75 211.375 117.881 211.171 117.997C210.978 118.131 210.738 118.292 210.453 118.478C210.186 118.654 209.8 118.922 209.296 119.282C208.954 119.5 208.572 119.571 208.147 119.493C207.742 119.404 207.432 119.188 207.219 118.843C206.994 118.48 206.939 118.107 207.053 117.724C207.174 117.312 207.422 117.024 207.797 116.86C207.994 116.773 208.2 116.681 208.415 116.583C208.63 116.485 208.846 116.388 209.061 116.29L209.117 116.258C209.246 116.185 209.266 116.075 209.177 115.93L199.728 100.666C199.627 100.502 199.493 100.468 199.326 100.563L195.235 102.885C195.087 102.969 195.063 103.093 195.164 103.256L196.533 105.164C196.783 105.487 196.863 105.859 196.772 106.278C196.68 106.698 196.44 107.018 196.05 107.239C195.661 107.46 195.252 107.509 194.824 107.384C194.414 107.249 194.112 107.004 193.917 106.648C193.696 106.21 193.452 105.736 193.186 105.225C192.92 104.714 192.645 104.208 192.36 103.708C192.083 103.179 192.014 102.642 192.153 102.097C192.311 101.542 192.64 101.122 193.141 100.838L205.525 93.8089C206.008 93.5351 206.541 93.4652 207.125 93.5992C207.71 93.7333 208.168 94.049 208.501 94.5464C208.842 95.0151 209.182 95.4838 209.522 95.9525C209.862 96.4212 210.171 96.8589 210.448 97.2656Z" fill="#AD5015"/>
<path d="M236.955 91.1716C237.285 90.8686 237.673 90.7292 238.12 90.7533C238.551 90.7624 238.902 90.9321 239.172 91.2624L240.933 93.2917C241.34 93.7282 241.529 94.2339 241.502 94.8089C241.475 95.3839 241.249 95.8662 240.824 96.2557L232.48 103.917C232.197 104.177 231.921 104.474 231.652 104.807C231.399 105.127 231.146 105.431 230.893 105.721C230.609 106.069 230.235 106.253 229.772 106.273C229.309 106.293 228.912 106.137 228.58 105.805C228.248 105.474 228.109 105.095 228.164 104.668C228.205 104.226 228.412 103.876 228.788 103.618C228.85 103.59 228.912 103.547 228.975 103.489C229.038 103.432 229.116 103.374 229.21 103.317L229.257 103.274C229.383 103.158 229.385 103.04 229.265 102.92L216.539 90.2119C216.403 90.0762 216.273 90.0661 216.147 90.1815C216.084 90.2393 216.028 90.3193 215.98 90.4215C215.932 90.4943 215.877 90.5743 215.813 90.6615C215.529 91.0098 215.162 91.2013 214.715 91.2362C214.252 91.256 213.854 91.1001 213.522 90.7684C213.19 90.4368 213.044 90.05 213.084 89.6081C213.124 89.1662 213.332 88.8164 213.707 88.5586C214.052 88.3002 214.412 88.0421 214.787 87.7844C215.162 87.5266 215.499 87.2606 215.798 86.9865L224.001 79.455C224.425 79.0654 224.938 78.8696 225.539 78.8674C226.14 78.8653 226.66 79.0681 227.098 79.4757L229.141 81.2453C229.46 81.5028 229.622 81.8457 229.628 82.2738C229.635 82.7019 229.473 83.0675 229.143 83.3705C228.829 83.659 228.464 83.8063 228.047 83.8123C227.632 83.7889 227.28 83.6339 226.994 83.3475C226.813 83.1666 226.624 82.9634 226.429 82.7379C226.234 82.483 226.038 82.2427 225.843 82.0173C225.707 81.8816 225.568 81.8787 225.427 82.0085L218.85 88.0467C218.709 88.1766 218.706 88.3093 218.842 88.445L223.506 93.1031C223.642 93.2387 223.781 93.2417 223.922 93.1118L229.697 87.8095C229.98 87.5497 230.322 87.4241 230.722 87.4325C231.123 87.4409 231.459 87.5808 231.731 87.8521C232.002 88.1235 232.134 88.4509 232.126 88.8344C232.103 89.2029 231.95 89.517 231.667 89.7767L225.892 95.079C225.751 95.2089 225.748 95.3417 225.884 95.4773L231.227 100.814C231.363 100.949 231.502 100.952 231.643 100.822L238.22 94.7843C238.361 94.6545 238.364 94.5217 238.228 94.386C237.986 94.1743 237.751 93.9849 237.524 93.8178C237.296 93.6212 237.085 93.4249 236.889 93.2289C236.602 92.9425 236.462 92.6075 236.47 92.224C236.479 91.811 236.641 91.4602 236.955 91.1716Z" fill="#AD5015"/>
<path d="M245.71 49.9284C245.902 49.5465 246.206 49.3045 246.625 49.2022C247.024 49.0893 247.408 49.1399 247.777 49.3543C248.128 49.5579 248.349 49.8465 248.44 50.22C248.532 50.5936 248.474 50.9426 248.269 51.2669C248.189 51.3931 248.088 51.5319 247.967 51.6833C247.846 51.8348 247.725 51.9863 247.604 52.1377L247.569 52.1918C247.489 52.3179 247.508 52.4275 247.626 52.5206L262.252 66.897C262.526 67.18 262.68 67.5156 262.711 67.9037C262.754 68.2739 262.679 68.6122 262.485 68.9185C262.279 69.2429 261.986 69.4669 261.605 69.5906C261.242 69.725 260.875 69.7461 260.504 69.6541L243.576 64.886C243.454 64.8397 243.364 64.8617 243.307 64.9518C243.262 65.0238 243.283 65.11 243.37 65.2104L255.64 77.3306C255.915 77.6136 256.068 77.9492 256.1 78.3374C256.143 78.7076 256.062 79.0548 255.856 79.3792C255.651 79.7035 255.361 79.9419 254.987 80.0944C254.624 80.2288 254.248 80.2446 253.859 80.1418L233.787 74.361C233.646 74.304 233.536 74.3385 233.456 74.4647C233.342 74.6449 233.252 74.8268 233.186 75.0104C233.113 75.1653 233.025 75.3238 232.922 75.486C232.717 75.8104 232.42 76.02 232.032 76.115C231.643 76.2099 231.274 76.1556 230.923 75.952C230.555 75.7377 230.33 75.4347 230.25 75.0431C230.163 74.6228 230.247 74.2521 230.5 73.9312C230.887 73.4408 231.219 73.017 231.495 72.66C231.765 72.2743 232.014 71.9013 232.242 71.5409C232.471 71.1805 232.695 70.8057 232.917 70.4165C233.131 69.9987 233.371 69.5214 233.635 68.9847C233.826 68.6028 234.131 68.3608 234.549 68.2585C234.949 68.1456 235.333 68.1962 235.702 68.4106C236.071 68.6249 236.296 68.9278 236.375 69.3194C236.455 69.711 236.372 70.0817 236.125 70.4314C235.963 70.6081 235.813 70.8047 235.676 71.0209C235.52 71.2264 235.365 71.4319 235.209 71.6375L235.175 71.6915C235.084 71.8357 235.133 71.938 235.321 71.9984L250.403 76.3959C250.536 76.4242 250.626 76.4023 250.671 76.3302C250.717 76.2581 250.69 76.1809 250.591 76.0986L238.692 64.2304C238.417 63.9474 238.263 63.6118 238.232 63.2236C238.182 62.8247 238.259 62.4631 238.465 62.1387C238.671 61.8144 238.97 61.5813 239.362 61.4396C239.736 61.2872 240.118 61.2624 240.507 61.3652L257.025 66.0054C257.158 66.0336 257.248 66.0117 257.293 65.9396C257.339 65.8675 257.312 65.7903 257.213 65.708L246.146 54.9153L246.063 54.8671C245.953 54.8028 245.863 54.8247 245.795 54.9328C245.658 55.149 245.524 55.3797 245.394 55.6246C245.275 55.8516 245.166 56.0839 245.066 56.3216C244.867 56.6747 244.563 56.9167 244.152 57.0477C243.752 57.1607 243.368 57.11 242.999 56.8957C242.63 56.6814 242.405 56.3784 242.325 55.9868C242.238 55.5665 242.322 55.1958 242.576 54.8749C242.962 54.3845 243.294 53.9607 243.57 53.6038C243.84 53.218 244.089 52.845 244.317 52.4846C244.546 52.1242 244.771 51.7494 244.992 51.3602C245.206 50.9424 245.446 50.4651 245.71 49.9284Z" fill="#AD5015"/>
<path d="M268.225 37.3472C268.355 36.9184 268.617 36.6038 269.012 36.4035C269.386 36.1975 269.773 36.172 270.172 36.3269L272.706 37.2294C273.275 37.4095 273.694 37.758 273.961 38.2747C274.228 38.7914 274.278 39.3255 274.111 39.8767L270.828 50.7188C270.717 51.0863 270.631 51.4828 270.569 51.9083C270.513 52.3134 270.45 52.7054 270.38 53.0843C270.312 53.5302 270.084 53.8766 269.697 54.1234C269.311 54.3702 268.891 54.4309 268.439 54.3054C267.987 54.1799 267.677 53.9168 267.508 53.5159C267.319 53.1094 267.321 52.7003 267.512 52.2886C267.551 52.2331 267.583 52.1644 267.608 52.0828C267.633 52.0011 267.671 51.9121 267.722 51.8157L267.741 51.7544C267.79 51.5911 267.733 51.4866 267.568 51.441L250.239 46.6325C250.054 46.5811 249.937 46.6371 249.887 46.8005C249.862 46.8822 249.855 46.9798 249.865 47.0933C249.861 47.1806 249.854 47.2782 249.844 47.386C249.775 47.8319 249.558 48.1811 249.192 48.4337C248.806 48.6805 248.386 48.7412 247.934 48.6157C247.482 48.4902 247.161 48.2242 246.972 47.8176C246.783 47.4111 246.784 47.002 246.976 46.5903C247.141 46.1933 247.319 45.789 247.51 45.3774C247.702 44.9657 247.856 44.5659 247.974 44.1779L251.2 33.5196C251.367 32.9683 251.708 32.5427 252.222 32.2427C252.736 31.9427 253.284 31.8624 253.866 32.0017L256.512 32.5366C256.915 32.6041 257.227 32.8236 257.449 33.195C257.671 33.5665 257.717 33.9666 257.587 34.3953C257.463 34.8037 257.224 35.1137 256.871 35.3254C256.503 35.511 256.123 35.5496 255.733 35.4412C255.486 35.3728 255.222 35.2884 254.94 35.1882C254.644 35.0618 254.355 34.9484 254.074 34.8482C253.889 34.7968 253.768 34.863 253.713 35.0468L251.126 43.5918C251.07 43.7756 251.135 43.8931 251.32 43.9445L257.672 45.707C257.857 45.7583 257.977 45.6921 258.033 45.5084L260.305 38.0047C260.416 37.6371 260.645 37.3577 260.993 37.1665C261.34 36.9752 261.699 36.9309 262.069 37.0335C262.439 37.1362 262.718 37.3573 262.905 37.6969C263.071 38.0308 263.098 38.3815 262.987 38.749L260.716 46.2527C260.66 46.4365 260.725 46.5541 260.91 46.6054L268.187 48.6246C268.372 48.6759 268.492 48.6097 268.548 48.426L271.135 39.8809C271.19 39.6972 271.125 39.5796 270.94 39.5283C270.626 39.4631 270.329 39.4139 270.049 39.3806C269.755 39.3212 269.475 39.2544 269.207 39.1802C268.817 39.0718 268.528 38.8479 268.341 38.5083C268.14 38.1426 268.101 37.7555 268.225 37.3472Z" fill="#AD5015"/>
<path d="M265.224 12.5212C265.319 12.7395 265.447 12.7459 265.607 12.5403C266.268 11.3985 267.116 10.5437 268.151 9.97593C269.166 9.38579 270.28 9.12101 271.495 9.18161C272.645 9.23902 273.634 9.52331 274.461 10.0345C275.289 10.5243 275.959 11.1665 276.471 11.961C276.983 12.7555 277.353 13.6177 277.58 14.5475C277.808 15.456 277.898 16.3575 277.849 17.2522L277.525 23.1954C277.501 23.6214 277.51 24.0597 277.549 24.5102C277.589 24.9607 277.618 25.4001 277.637 25.8282C277.678 26.2575 277.54 26.635 277.223 26.961C276.906 27.2869 276.513 27.4382 276.045 27.4148C275.597 27.3925 275.234 27.2035 274.954 26.8478C274.674 26.4921 274.578 26.1028 274.665 25.6799C274.696 25.5106 274.738 25.3311 274.791 25.1415C274.822 24.9509 274.854 24.7602 274.886 24.5696L274.889 24.5057C274.899 24.3352 274.808 24.2453 274.616 24.2357L256.558 23.3347C256.366 23.3251 256.265 23.4268 256.253 23.6398C256.266 23.79 256.279 23.9402 256.293 24.0904C256.306 24.2405 256.329 24.4019 256.362 24.5744C256.403 25.0037 256.265 25.3812 255.948 25.7072C255.631 26.0331 255.249 26.1849 254.802 26.1626C254.333 26.1392 253.959 25.9497 253.679 25.594C253.399 25.2382 253.303 24.849 253.39 24.4261C253.45 24.1087 253.511 23.7807 253.572 23.442C253.634 23.082 253.685 22.7427 253.724 22.4243L254.057 16.8981C254.134 15.4922 254.401 14.32 254.858 13.3817C255.295 12.4209 255.849 11.6583 256.521 11.0937C257.172 10.5068 257.867 10.1036 258.606 9.88413C259.345 9.64336 260.035 9.53892 260.674 9.57081C262.655 9.66969 264.172 10.6531 265.224 12.5212ZM260.52 12.3826C259.476 12.3305 258.632 12.7263 257.988 13.5699C257.324 14.3911 256.951 15.5473 256.87 17.0384L256.699 20.1698C256.688 20.3615 256.779 20.4621 256.971 20.4717L263.65 20.805C263.842 20.8146 263.943 20.7235 263.954 20.5318L264.093 17.9756C264.088 16.117 263.8 14.7356 263.23 13.8314C262.638 12.9262 261.735 12.4432 260.52 12.3826ZM266.67 20.6673C266.66 20.859 266.751 20.9597 266.942 20.9693L274.517 21.3472C274.709 21.3568 274.81 21.2657 274.82 21.074L275.036 17.1119C275.122 15.5355 274.837 14.3038 274.18 13.4167C273.525 12.5082 272.579 12.0231 271.343 11.9615C268.552 11.8222 267.035 13.9892 266.791 18.4626L266.67 20.6673Z" fill="#AD5015"/>
</svg>
