<svg width="3244" height="1665" viewBox="0 0 3244 1665" fill="none" xmlns="http://www.w3.org/2000/svg">
<g clip-path="url(#clip0_207_10)">
<rect width="3244" height="1665" fill="#FEF0E7"/>
<path d="M3244 619V1818H-81V1758.1V619H3244Z" fill="#F8C459"/>
<path d="M-98 1645C17.7079 1578.55 290.779 1465.58 457.398 1545.32C665.672 1645 748.114 1588.66 817.539 1566.99C886.964 1545.32 965.067 1441.31 1242.77 1566.99C1277.48 1566.99 1442.36 1653.67 1654.98 1545.32C1825.07 1458.65 2075.36 1501.16 2179.5 1570.5" stroke="#AAC8CA" stroke-width="99" stroke-linecap="round"/>
<path d="M3827.5 1645.23C3711.79 1578.78 3438.72 1465.81 3272.1 1545.55C3063.83 1645.23 2981.39 1588.89 2911.96 1567.22C2842.54 1545.55 2764.43 1441.54 2486.73 1567.22C2452.02 1567.22 2287.14 1653.9 2074.52 1545.55C1904.43 1458.88 1654.14 1501.39 1550 1570.73" stroke="#AAC8CA" stroke-width="99" stroke-linecap="round"/>
<path d="M-21 155.837L267.5 110.5L635.5 155.837L978.495 133L1437.5 155.837L1806 110.5L2029 155.837V1559L1763 1515.5L1404 1608L1033.5 1515.5L635.5 1583L478.5 1559H-21V155.837Z" fill="#AAC8CA"/>
<path d="M-102 218C13.7079 151.549 286.779 38.5817 453.398 118.323C661.672 218 744.114 161.661 813.539 139.992C882.964 118.323 961.067 14.3125 1238.77 139.992C1273.48 139.992 1438.36 226.668 1650.98 118.323C1821.07 31.6476 2071.86 148.66 2176 218" stroke="#AAC8CA" stroke-width="111" stroke-linecap="round"/>
<path d="M3628 152.837L3339.5 107.5L2971.5 152.837L2628.51 130L2169.5 152.837L1801 107.5L1578 152.837V1556L1844 1512.5L2203 1605L2573.5 1512.5L2971.5 1580L3128.5 1556H3628V152.837Z" fill="#AAC8CA"/>
<path d="M3709 215C3593.29 148.549 3320.22 35.5817 3153.6 115.323C2945.33 215 2862.89 158.661 2793.46 136.992C2724.04 115.323 2645.93 11.3125 2368.23 136.992C2333.52 136.992 2168.64 223.668 1956.02 115.323C1785.93 28.6476 1535.14 145.66 1431 215" stroke="#AAC8CA" stroke-width="111" stroke-linecap="round"/>
</g>
<defs>
<clipPath id="clip0_207_10">
<rect width="3244" height="1665" fill="white"/>
</clipPath>
</defs>
</svg>
