<svg width="173" height="176" viewBox="0 0 173 176" fill="none" xmlns="http://www.w3.org/2000/svg">
<g clip-path="url(#clip0_426_65)">
<mask id="mask0_426_65" style="mask-type:luminance" maskUnits="userSpaceOnUse" x="1" y="0" width="173" height="175">
<path d="M123.352 173.866C124.724 174.41 126.19 174.662 127.661 174.604C129.132 174.546 130.575 174.181 131.901 173.531L167.38 156.143C169.208 155.247 170.749 153.844 171.828 152.095C172.907 150.346 173.479 148.322 173.479 146.257V28.3547C173.479 26.2892 172.907 24.2656 171.828 22.5168C170.749 20.7679 169.207 19.3647 167.38 18.4687L131.902 1.08033C129.897 0.0980964 127.642 -0.225244 125.449 0.155044C123.256 0.535332 121.233 1.60045 119.66 3.20303L51.7392 66.3161L22.1535 43.4428C20.819 42.411 19.1719 41.8876 17.4981 41.9634C15.8242 42.0392 14.2293 42.7094 12.9899 43.8578L3.50128 52.6494C0.37241 55.5478 0.369031 60.5613 3.49317 63.4645L29.1506 87.3057L3.49317 111.146C0.369031 114.05 0.37241 119.063 3.50128 121.962L12.9899 130.753C14.2292 131.901 15.8241 132.572 17.4979 132.648C19.1718 132.724 20.8189 132.2 22.1535 131.169L51.7392 108.295L119.66 171.408C120.71 172.479 121.968 173.316 123.352 173.866M130.424 47.461L78.8874 87.3057L130.424 127.15V47.461Z" fill="white"/>
</mask>
<g mask="url(#mask0_426_65)">
<path d="M167.486 18.4967L131.979 1.08425C129.973 0.100916 127.718 -0.223281 125.523 0.156519C123.329 0.536319 121.305 1.60134 119.732 3.20419L3.49443 111.147C0.368271 114.051 0.372325 119.064 3.50254 121.963L12.9973 130.754C14.2376 131.903 15.8336 132.573 17.5084 132.649C19.1832 132.725 20.8313 132.202 22.1669 131.17L162.143 23.014C166.839 19.386 173.584 22.7972 173.584 28.8005V28.3806C173.584 26.3156 173.011 24.2925 171.932 22.544C170.854 20.7956 169.312 19.3927 167.486 18.4967Z" fill="#38585A"/>
</g>
<mask id="mask1_426_65" style="mask-type:luminance" maskUnits="userSpaceOnUse" x="1" y="0" width="173" height="175">
<path d="M123.352 173.866C124.724 174.41 126.19 174.662 127.661 174.604C129.132 174.546 130.575 174.181 131.901 173.531L167.38 156.143C169.208 155.247 170.749 153.844 171.828 152.095C172.907 150.346 173.479 148.322 173.479 146.257V28.3547C173.479 26.2892 172.907 24.2656 171.828 22.5168C170.749 20.7679 169.207 19.3647 167.38 18.4687L131.902 1.08033C129.897 0.0980964 127.642 -0.225244 125.449 0.155044C123.256 0.535332 121.233 1.60045 119.66 3.20303L51.7392 66.3161L22.1535 43.4428C20.819 42.411 19.1719 41.8876 17.4981 41.9634C15.8242 42.0392 14.2293 42.7094 12.9899 43.8578L3.50128 52.6494C0.37241 55.5478 0.369031 60.5613 3.49317 63.4645L29.1506 87.3057L3.49317 111.146C0.369031 114.05 0.37241 119.063 3.50128 121.962L12.9899 130.753C14.2292 131.901 15.8241 132.572 17.4979 132.648C19.1718 132.724 20.8189 132.2 22.1535 131.169L51.7392 108.295L119.66 171.408C120.71 172.479 121.968 173.316 123.352 173.866M130.424 47.461L78.8874 87.3057L130.424 127.15V47.461Z" fill="white"/>
</mask>
<g mask="url(#mask1_426_65)">
<path d="M167.486 156.114L131.979 173.527C129.973 174.51 127.718 174.834 125.524 174.454C123.33 174.074 121.306 173.009 119.732 171.407L3.49443 63.4638C0.368271 60.5605 0.372325 55.547 3.50254 52.6486L12.9973 43.857C14.2377 42.7084 15.8337 42.0381 17.5085 41.9623C19.1833 41.8865 20.8313 42.41 22.1669 43.442L162.143 151.597C166.839 155.225 173.584 151.814 173.584 145.81V146.23C173.584 148.295 173.011 150.319 171.932 152.067C170.854 153.815 169.312 155.218 167.486 156.114Z" fill="#4E7779"/>
</g>
<mask id="mask2_426_65" style="mask-type:luminance" maskUnits="userSpaceOnUse" x="1" y="0" width="173" height="175">
<path d="M123.352 173.866C124.724 174.41 126.19 174.662 127.661 174.604C129.132 174.546 130.575 174.181 131.901 173.531L167.38 156.143C169.208 155.247 170.749 153.844 171.828 152.095C172.907 150.346 173.479 148.322 173.479 146.257V28.3547C173.479 26.2892 172.907 24.2656 171.828 22.5168C170.749 20.7679 169.207 19.3647 167.38 18.4687L131.902 1.08033C129.897 0.0980965 127.642 -0.225244 125.449 0.155044C123.256 0.535332 121.233 1.60045 119.66 3.20303L51.7392 66.3161L22.1535 43.4428C20.819 42.411 19.1719 41.8876 17.4981 41.9634C15.8242 42.0392 14.2293 42.7094 12.9899 43.8578L3.50128 52.6494C0.37241 55.5478 0.369031 60.5613 3.49317 63.4645L29.1506 87.3057L3.49317 111.146C0.369031 114.05 0.37241 119.063 3.50128 121.962L12.9899 130.753C14.2292 131.901 15.8241 132.572 17.4979 132.648C19.1718 132.724 20.8189 132.2 22.1535 131.169L51.7392 108.295L119.66 171.408C120.71 172.479 121.968 173.316 123.352 173.866ZM130.424 47.461L78.8874 87.3057L130.424 127.15V47.461Z" fill="white"/>
</mask>
<g mask="url(#mask2_426_65)">
<path d="M131.866 173.541C129.86 174.524 127.604 174.848 125.41 174.467C123.215 174.087 121.191 173.022 119.617 171.419C123.591 175.466 130.388 172.599 130.388 166.874V7.75771C130.388 2.03248 123.591 -0.834264 119.617 3.21359C121.191 1.61043 123.215 0.545022 125.409 0.16474C127.604 -0.215542 129.86 0.108099 131.866 1.09089L167.367 18.4793C169.194 19.3748 170.737 20.7778 171.816 22.5267C172.896 24.2756 173.469 26.2994 173.469 28.3652V146.268C173.469 150.484 171.097 154.327 167.367 156.154L131.866 173.541Z" fill="#4A8F94"/>
</g>
</g>
<defs>
<clipPath id="clip0_426_65">
<rect width="173" height="176" fill="white"/>
</clipPath>
</defs>
</svg>
