<svg width="810" height="784" viewBox="0 0 810 784" fill="none" xmlns="http://www.w3.org/2000/svg">
<ellipse cx="402.5" cy="381.5" rx="376.5" ry="380.5" fill="#FEC16E"/>
<path d="M251.18 145.971C321.901 75.4466 384.842 78.1955 407.473 88.3855C470.272 77.5795 503.89 92.8881 512.849 101.893C627.7 156.493 653.769 340.37 650.233 425.445C641.521 547.183 672.921 578.102 665 642.938C628.5 678.772 523.9 751.538 397.5 755.938C271.1 760.339 173.167 685.105 140 646.938L141.562 636.513C156.838 545.514 162.071 457.832 162.779 425.367C162.779 361.62 180.459 216.495 251.18 145.971Z" fill="#2F2924" stroke="black" stroke-width="3" stroke-linecap="round"/>
<path d="M471.286 354.046C475.529 351.203 486.138 346.795 494.624 351.914" stroke="black" stroke-width="3" stroke-linecap="round"/>
<path d="M316.419 358.534C320.662 355.69 331.27 351.282 339.757 356.401" stroke="black" stroke-width="3" stroke-linecap="round"/>
<path d="M240.023 558.081C232.951 588.651 220.928 655.052 229.415 676.096C237.902 697.139 253.223 715.197 259.823 721.595" stroke="black" stroke-width="3" stroke-linecap="round"/>
<path d="M311.476 536.754C301.811 558.082 288.279 607.705 311.476 635.573" stroke="black" stroke-width="3" stroke-linecap="round"/>
<path d="M313.661 540.312C303.995 561.639 290.464 611.262 313.661 639.131" stroke="#393029" stroke-width="3" stroke-linecap="round"/>
<path d="M243.65 554.526C236.578 585.096 223.049 652.208 231.535 673.252C240.022 694.295 252.518 712.353 259.118 718.751" stroke="#393029" stroke-width="3" stroke-linecap="round"/>
<path d="M517.403 561.196C514.338 573.519 511.603 604.279 525.182 628.735C538.76 653.191 519.524 690.112 508.209 705.515" stroke="black" stroke-width="3" stroke-linecap="round"/>
<path d="M179.212 289.352C175.204 370.872 167.188 534.623 167.188 537.466C159.739 580.633 161.916 620.824 168.489 655H155.168L143.465 628.5C146.854 600.792 152.711 575.308 155.168 559.505C158.228 539.825 163.654 469.217 163.654 425.85C163.654 391.157 174.026 320.396 179.212 289.352Z" fill="#393129"/>
<path d="M385.019 121.571C382.756 114.746 371.818 108.3 366.632 105.931C375.118 105.931 398.928 116.358 409.772 121.571C434.1 101.665 457.155 108.063 465.641 113.751C455.458 113.751 443.011 118.964 438.06 121.571C448.244 123.846 462.577 131.05 468.47 134.368C448.103 127.543 420.851 137.212 409.772 142.899C393.93 134.368 356.024 132.235 339.051 132.235C348.103 123.135 373.468 121.334 385.019 121.571Z" fill="#2E2620"/>
<path d="M472.851 139.45C461.321 133.604 428.04 139.608 411.896 143.609C436.87 125.448 461.719 132.621 472.851 139.45C473.611 139.836 474.277 140.273 474.837 140.766C474.235 140.333 473.572 139.893 472.851 139.45Z" fill="#3A2F27"/>
<path d="M367.303 103.92C366.82 103.874 366.353 103.833 365.905 103.799C366.318 103.799 366.785 103.841 367.303 103.92C380.032 105.146 404.301 110.554 409.752 123.705C398.849 117.442 376.015 105.266 367.303 103.92Z" fill="#3A2F27"/>
<path d="M519.552 562.621C516.487 574.944 513.753 605.703 527.331 630.16C540.91 654.616 521.674 691.537 510.358 706.94" stroke="#393029" stroke-width="3" stroke-linecap="round"/>
<path d="M407.177 210.867C393.867 210.867 358.981 223.904 320.313 290.222C271.977 373.12 226.443 397.918 199.823 400.044" stroke="#393029" stroke-width="6" stroke-linecap="round"/>
<path d="M414.117 210.867C428.15 210.867 468.286 220.485 499.72 273.102C539.013 338.874 576.202 390.5 623.213 387.671" stroke="#393029" stroke-width="6" stroke-linecap="round"/>
<path d="M406.244 214.703C392.807 214.703 357.588 227.784 318.55 294.327C269.753 377.506 223.784 402.389 196.91 404.522" stroke="black" stroke-width="3" stroke-linecap="round"/>
<path d="M414.699 214.703C428.843 214.703 469.296 224.372 500.979 277.265C540.583 343.382 578.065 395.279 625.448 392.436" stroke="black" stroke-width="3" stroke-linecap="round"/>
<path d="M208.203 420.872C223.479 399.829 240.027 403.099 246.392 407.365V382.482C258.414 371.107 294.482 346.225 315.698 301.436C336.914 256.648 376.282 222.76 389.248 218.257C436.772 202.332 481.185 245.272 497.451 268.733C530.266 330.158 558.743 359.732 568.879 366.842L559.685 407.365C574.395 401.678 584.202 404.995 587.267 407.365C598.582 416.114 604.004 453.101 593.632 467.083C580.195 482.723 563.929 485.33 554.735 482.723L544.127 495.52C507.352 537.038 459.262 538.887 435.217 538.887V567.324L453.604 576.566C404.099 634.152 371.438 580.05 371.438 568.202L369.446 567.324V538.887C285.712 541.731 261.243 499.786 254.879 479.169C233.663 496.942 189.108 447.177 208.203 420.872Z" fill="#FAE6DB" stroke="black" stroke-width="3" stroke-linecap="round"/>
<path d="M395.843 217.873C380.161 233.638 376.12 236.215 361.975 281.146C347.831 326.077 316.222 336.108 303.492 336.108" stroke="#393029" stroke-width="4" stroke-linecap="round"/>
<path d="M397.584 216.125C390.614 217.001 372.633 234.467 358.489 279.398C344.345 324.329 315.349 335.561 302.619 335.561" stroke="black" stroke-width="3" stroke-linecap="round"/>
<path d="M636.227 504.83C642.326 445.275 639.422 334.63 631 285C651.038 339.301 645.811 454.909 644.94 477.68C644.243 495.897 661.493 581.902 667.592 620.438V635.882L644.94 653.382V630.948C631.697 567.188 635.937 520.887 636.227 504.83Z" fill="#393029"/>
<path d="M575.499 618.999C573.524 632.963 572.96 667.542 586.501 694.141" stroke="#393029" stroke-width="3" stroke-linecap="round"/>
<path d="M570.255 615.496C568.28 629.461 567.716 664.039 581.257 690.638" stroke="black" stroke-width="3" stroke-linecap="round"/>
<path d="M492.595 187.147C488.181 182.709 501.887 195.593 507.057 199.111C509.864 201.022 512.857 203.366 515.972 204.736C516.45 204.946 518.675 206.027 517.939 204.712C515.21 199.834 507.662 195.713 502.837 193.153C502.369 192.905 498.125 190.253 500.798 190.15C507.43 189.894 511.795 193.196 517.56 195.942C518.982 196.619 512.74 191.256 511.609 190.15C510.833 189.391 505.434 185.164 509.049 185.455C512.356 185.721 515.568 187.137 518.817 187.791C522.368 188.505 522.818 188.278 519.907 185.431C518.098 183.662 514.696 182.197 513.269 180.283C512.63 179.428 519.157 180.473 520.097 180.712C521.837 181.156 523.538 181.278 525.265 181.594C527.947 182.084 521.866 177.91 521.187 177.304C518.78 175.153 517.761 174.291 522.136 175.04C523.183 175.219 529.57 176.533 528.608 174.492C527.738 172.646 525.11 171.868 524.175 169.987" stroke="#3A2F27" stroke-width="3" stroke-linecap="round"/>
<path d="M270.2 191.4C263.869 197.765 273.411 190.354 275.564 188.393C279.752 184.578 286.93 177.285 292.171 175.898C296.009 174.883 288.922 183.181 287.117 186.734C285.361 190.188 283.215 193.438 281.495 196.896C278.488 202.942 285.348 195.722 286.704 194.408C289.183 192.005 291.636 189.295 294.544 187.46C295.272 187 300.733 181.831 300.733 183.986C300.733 186.631 296.816 190.686 295.266 192.8C291.21 198.333 289.147 203.151 296.194 196.067C300.676 191.561 302.747 195.945 300.63 200.733C298.971 204.484 305.297 193.359 306.819 196.637C308.666 200.616 306.929 202.192 309.191 204.466" stroke="#3A2F27" stroke-width="3" stroke-linecap="round"/>
<path d="M540.891 157.739C540.972 159.125 541.26 160.251 542.434 160.841" stroke="#3A2F27" stroke-width="5" stroke-linecap="round"/>
<path d="M317.184 219.782C318.81 217.474 320.777 216.164 323.36 215.126" stroke="#3A2F27" stroke-width="5" stroke-linecap="round"/>
<ellipse cx="309.319" cy="472.063" rx="39.6037" ry="21.3279" fill="url(#paint0_radial_51_1664)"/>
<rect width="4.24439" height="12.7934" rx="2.1222" transform="matrix(0.97411 -0.226074 0.223833 0.974628 319.219 465.914)" fill="#D98070"/>
<rect width="4.24439" height="12.7934" rx="2.1222" transform="matrix(0.97411 -0.226074 0.223833 0.974627 310.717 465.914)" fill="#D98070"/>
<rect width="4.24439" height="12.7934" rx="2.1222" transform="matrix(0.97411 -0.226074 0.223833 0.974628 302.251 465.914)" fill="#D98070"/>
<rect width="4.24439" height="12.7934" rx="2.1222" transform="matrix(0.97411 -0.226074 0.223833 0.974627 293.894 465.927)" fill="#D98070"/>
<ellipse cx="498.851" cy="472.063" rx="39.6037" ry="21.3279" fill="url(#paint1_radial_51_1664)"/>
<rect width="4.24439" height="12.7934" rx="2.1222" transform="matrix(0.97411 -0.226074 0.223833 0.974628 508.733 465.914)" fill="#D98070"/>
<rect width="4.24439" height="12.7934" rx="2.1222" transform="matrix(0.97411 -0.226074 0.223833 0.974627 500.285 465.914)" fill="#D98070"/>
<rect width="4.24439" height="12.7934" rx="2.1222" transform="matrix(0.97411 -0.226074 0.223833 0.974628 491.765 465.914)" fill="#D98070"/>
<rect width="4.24439" height="12.7934" rx="2.1222" transform="matrix(0.97411 -0.226074 0.223833 0.974627 483.444 465.927)" fill="#D98070"/>
<ellipse cx="410.468" cy="447.892" rx="10.6081" ry="5.68745" fill="url(#paint2_radial_51_1664)"/>
<rect x="408.362" y="449.313" width="1.42292" height="4.24641" rx="0.711458" transform="rotate(-90 408.362 449.313)" fill="#D98070"/>
<path d="M225.93 427.212C229.705 424.877 238.301 421.958 242.483 428.964C238.998 430.424 230.809 432.117 225.93 427.212Z" fill="#E08572"/>
<path d="M565.704 425.459C569.479 423.124 578.076 420.205 582.258 427.211C578.773 428.671 570.583 430.364 565.704 425.459Z" fill="#E08572"/>
<path d="M7.5 753.181V436.936C41.0316 624.995 204.236 767.759 400.609 767.759H400.615L401.272 767.759H401.278C619.13 767.398 795.993 591.338 799.958 372.807H802.409V753.172L400.613 775.926L7.5 753.181Z" fill="#FECA64" stroke="#FECA64" stroke-width="15"/>
<rect x="453.488" y="409.82" width="61.907" height="10.0779" rx="5.03894" transform="rotate(-16.9883 453.488 409.82)" fill="black"/>
<rect x="463.983" y="367.823" width="38.1399" height="9.80132" rx="4.90066" transform="rotate(13.3823 463.983 367.823)" fill="black"/>
<rect x="316.724" y="377.438" width="38.9136" height="9.15709" rx="4.57855" transform="rotate(-10.8164 316.724 377.438)" fill="black"/>
<rect x="456.507" y="407.567" width="61.907" height="10.0779" rx="5.03894" transform="rotate(17.4392 456.507 407.567)" fill="black"/>
<rect width="65.2657" height="10.458" rx="5.229" transform="matrix(-0.957895 -0.287117 -0.297307 0.954782 355.954 408.072)" fill="black"/>
<rect width="65.2602" height="10.4589" rx="5.22945" transform="matrix(-0.955642 0.294529 0.30493 0.952375 352.758 405.74)" fill="black"/>
<path d="M424.962 468.327C415.083 469.293 414.412 464.15 410.144 462.049C402.458 469.614 398.29 468.81 393.35 468.327C391.75 476.207 394.205 492.475 408.287 492.475C425.89 492.475 428.339 467.996 424.962 468.327Z" fill="#FEC7C2"/>
<path d="M424.962 468.327C415.083 469.293 414.412 464.15 410.144 462.049C402.458 469.614 398.29 468.81 393.35 468.327M424.962 468.327C428.339 467.996 425.89 492.475 408.287 492.475C394.205 492.475 391.75 476.207 393.35 468.327M424.962 468.327C426.444 468.166 430.02 467.12 431.759 464.584M393.35 468.327C391.77 467.965 389.162 466.275 388.293 464.584" stroke="#C3908F" stroke-linejoin="round"/>
<path d="M644.431 409.618C633.64 425.2 635.229 444.986 637.372 452.931L456.594 571.732L478.774 646.685L668.452 480.625C685.284 488.133 711.986 471.736 723.233 462.598C730.779 461.866 746.932 459.241 751.182 454.602C755.431 449.963 752.357 446.515 747.017 446.808C743.317 447.01 734.764 446.976 730.141 445.217C725.519 443.459 728.306 441.606 730.278 440.899C739.345 437.449 757.563 428.557 757.896 420.588C758.313 410.627 743.38 415.755 742.642 416.394C727.03 422.23 723.266 420.369 723.335 418.709C726.162 415.261 733.574 406.965 740.603 401.359C747.632 395.754 746.42 390.923 744.935 389.208C743.922 388.286 742.184 387.521 739.085 387.672C735.82 387.63 717.725 396.565 708.489 401.561C724.19 385.087 727.115 375.835 726.615 373.268C726.018 371.584 724.159 368.194 721.495 368.1C718.831 368.007 714.324 370.508 712.404 371.771L681.022 395.94C673.691 399.407 672.813 397.647 672.877 393.992C676.323 377.087 672.637 369.598 670.364 367.966C669.671 367.166 667.323 365.797 663.478 366.726C659.633 367.655 658.089 371.192 657.797 372.845C657.838 378.61 655.221 394.036 644.431 409.618Z" fill="#FAE6DB" stroke="black" stroke-width="2"/>
<path d="M174.333 411.328C185.299 426.787 183.934 446.589 181.881 454.558L348.754 587.029L332.692 644.39L151.115 482.601C134.369 490.298 107.483 474.203 96.1339 465.194C88.5806 464.546 72.3985 462.104 68.097 457.513C63.7955 452.922 66.8302 449.44 72.1739 449.672C75.8751 449.833 84.4282 449.702 89.0301 447.892C93.6321 446.081 90.8244 444.26 88.8452 443.575C79.7396 440.228 61.4224 431.542 60.9991 423.577C60.47 413.621 75.4599 418.581 76.2053 419.211C91.882 424.871 95.6248 422.967 95.5367 421.308C92.6709 417.892 85.1663 409.68 78.0745 404.154C70.9827 398.628 72.14 393.784 73.6052 392.053C74.6085 391.119 76.3376 390.335 79.4373 390.451C82.7018 390.372 100.897 399.102 110.188 403.994C94.3021 387.698 91.2733 378.48 91.7446 375.907C92.3221 374.217 94.1429 370.806 96.8058 370.682C99.4687 370.558 104.003 373.009 105.938 374.25L137.591 398.064C144.96 401.448 145.818 399.678 145.713 396.023C142.076 379.159 145.677 371.628 147.932 369.971C148.616 369.163 150.948 367.768 154.803 368.654C158.659 369.539 160.243 373.059 160.553 374.708C160.577 380.473 163.368 395.868 174.333 411.328Z" fill="#FAE6DB" stroke="black" stroke-width="2"/>
<path d="M317.845 656.7L327.132 735.144C358.8 742.238 429.382 739.319 471.082 735.144L480.326 656.7L569 587.125C546.831 578.707 525.172 546.314 517.018 527.438L457.393 564.934L442.104 556.516C437.772 562.893 422.482 577.942 403.882 577.942C385.536 577.942 379.42 573.351 364.896 554.221L350.798 560.854L290.746 527.438C278.515 550.089 250.486 576.667 238 587.125L317.845 656.7Z" fill="white" stroke="black" stroke-width="2"/>
<path d="M317.596 656.674C336.191 640.901 346.264 586.701 348.976 561.573C360.871 556.493 360.871 555.73 366.228 553.438C365.463 562.603 366.228 596.207 366.228 606.899C376.177 606.899 399.187 606.906 404.495 606.899H441.231L442.762 554.966L457.304 563.367C460.62 591.713 461.896 628.284 486.387 650.432C491.509 668.037 496.456 698.305 501.311 730.438C478.4 746.605 407.77 770.338 308.539 735.938C311.885 705.866 315.324 676.031 317.596 656.674Z" fill="#FA8C4F" stroke="black"/>
<circle cx="407.28" cy="381.28" r="371.78" stroke="#D59B4B" stroke-width="19"/>
<defs>
<radialGradient id="paint0_radial_51_1664" cx="0" cy="0" r="1" gradientUnits="userSpaceOnUse" gradientTransform="translate(309.319 472.063) rotate(90) scale(21.3279 39.6037)">
<stop offset="0.0566663" stop-color="#FFAC99"/>
<stop offset="0.476666" stop-color="#FCB4A5"/>
<stop offset="0.741666" stop-color="#FBC6B8"/>
<stop offset="0.941666" stop-color="#FAE6DB"/>
</radialGradient>
<radialGradient id="paint1_radial_51_1664" cx="0" cy="0" r="1" gradientUnits="userSpaceOnUse" gradientTransform="translate(498.851 472.063) rotate(90) scale(21.3279 39.6037)">
<stop offset="0.0566663" stop-color="#FFAC99"/>
<stop offset="0.476666" stop-color="#FCB4A5"/>
<stop offset="0.741666" stop-color="#FBC6B8"/>
<stop offset="0.941666" stop-color="#FAE6DB"/>
</radialGradient>
<radialGradient id="paint2_radial_51_1664" cx="0" cy="0" r="1" gradientUnits="userSpaceOnUse" gradientTransform="translate(410.468 447.892) rotate(90) scale(5.68745 10.6081)">
<stop offset="0.0566663" stop-color="#FFAC99"/>
<stop offset="0.476666" stop-color="#FCB4A5"/>
<stop offset="0.741666" stop-color="#FFD2C7"/>
<stop offset="0.941666" stop-color="#FAE6DB"/>
</radialGradient>
</defs>
</svg>
