<svg width="307" height="107" viewBox="0 0 307 107" fill="none" xmlns="http://www.w3.org/2000/svg">
<path d="M24.192 27.408C29.568 27.408 33.8133 28.688 36.928 31.248C40.0427 33.7653 41.6 37.2853 41.6 41.808C41.6 46.3307 40.0427 49.872 36.928 52.432C33.856 54.9493 29.5253 56.208 23.936 56.208H15.232C14.848 56.208 14.656 56.4 14.656 56.784V69.52C14.656 69.8613 14.8053 70.032 15.104 70.032C15.6587 70.032 16.192 70.0107 16.704 69.968C17.216 69.8827 17.728 69.8187 18.24 69.776C19.0933 69.6907 19.8187 69.9467 20.416 70.544C21.0133 71.0987 21.312 71.8027 21.312 72.656C21.312 73.4667 20.992 74.1493 20.352 74.704C19.7547 75.3013 19.0507 75.5573 18.24 75.472C17.0027 75.3867 15.9147 75.3013 14.976 75.216C14.0373 75.1733 13.1413 75.152 12.288 75.152C11.4347 75.152 10.56 75.1733 9.664 75.216C8.81067 75.3013 7.78667 75.3867 6.592 75.472C5.78133 75.5573 5.056 75.3227 4.416 74.768C3.776 74.2133 3.456 73.5093 3.456 72.656C3.456 71.8027 3.73333 71.12 4.288 70.608C4.84267 70.0533 5.52533 69.776 6.336 69.776C6.63467 69.776 6.93333 69.7973 7.232 69.84C7.57333 69.8827 7.936 69.9253 8.32 69.968H8.448C8.74667 69.968 8.896 69.7973 8.896 69.456V33.168C8.896 32.8267 8.74667 32.656 8.448 32.656C8.10667 32.656 7.76533 32.6987 7.424 32.784C7.12533 32.8267 6.80533 32.848 6.464 32.848C5.65333 32.848 4.94933 32.5707 4.352 32.016C3.75467 31.4187 3.456 30.7147 3.456 29.904C3.456 28.9653 3.776 28.2187 4.416 27.664C5.09867 27.0667 5.888 26.8107 6.784 26.896C7.63733 27.024 8.512 27.152 9.408 27.28C10.3467 27.3653 11.2427 27.408 12.096 27.408H24.192ZM14.656 50C14.656 50.384 14.848 50.576 15.232 50.576H24.512C32.2347 50.576 36.096 47.6533 36.096 41.808C36.096 35.792 32.1067 32.848 24.128 32.976H15.232C14.848 32.976 14.656 33.168 14.656 33.552V50ZM71.127 26.832C74.327 26.832 77.335 27.472 80.151 28.752C82.967 29.9893 85.4417 31.7387 87.575 34C89.7083 36.2187 91.3723 38.8 92.567 41.744C93.8043 44.688 94.423 47.824 94.423 51.152C94.423 54.5227 93.8043 57.68 92.567 60.624C91.3723 63.568 89.7083 66.1707 87.575 68.432C85.4417 70.6507 82.967 72.4 80.151 73.68C77.335 74.9173 74.327 75.536 71.127 75.536C67.927 75.536 64.919 74.9173 62.103 73.68C59.287 72.4 56.8123 70.6507 54.679 68.432C52.5457 66.1707 50.8603 63.568 49.623 60.624C48.4283 57.68 47.831 54.5227 47.831 51.152C47.831 47.824 48.4283 44.688 49.623 41.744C50.8603 38.8 52.5457 36.2187 54.679 34C56.8123 31.7387 59.287 29.9893 62.103 28.752C64.919 27.472 67.927 26.832 71.127 26.832ZM71.127 69.712C74.4977 69.712 77.4843 68.9227 80.087 67.344C82.6897 65.7227 84.7377 63.5253 86.231 60.752C87.767 57.936 88.535 54.736 88.535 51.152C88.535 47.568 87.767 44.3893 86.231 41.616C84.7377 38.8427 82.6683 36.6667 80.023 35.088C77.4203 33.4667 74.455 32.656 71.127 32.656C67.7563 32.656 64.7483 33.4667 62.103 35.088C59.5003 36.6667 57.431 38.864 55.895 41.68C54.4017 44.4533 53.655 47.6107 53.655 51.152C53.655 54.6933 54.4017 57.872 55.895 60.688C57.431 63.504 59.5217 65.7227 62.167 67.344C64.8123 68.9227 67.799 69.712 71.127 69.712ZM132.051 61.264C132.904 61.264 133.63 61.584 134.227 62.224C134.867 62.8213 135.166 63.5467 135.123 64.4C135.08 65.3387 135.016 66.3627 134.931 67.472C134.846 68.5387 134.76 69.6267 134.675 70.736C134.632 71.9307 134.184 72.9333 133.331 73.744C132.478 74.5547 131.475 74.96 130.323 74.96H110.867C109.758 75.0027 108.648 75.088 107.539 75.216C106.43 75.3867 105.384 75.472 104.403 75.472C103.55 75.472 102.824 75.1733 102.227 74.576C101.63 73.9787 101.331 73.2533 101.331 72.4C101.331 71.5467 101.63 70.8213 102.227 70.224C102.867 69.584 103.592 69.264 104.403 69.264C104.659 69.264 104.894 69.2853 105.107 69.328C105.363 69.3707 105.704 69.392 106.131 69.392H106.259C106.6 69.392 106.771 69.2213 106.771 68.88V32.912C106.771 32.5707 106.622 32.4 106.323 32.4C105.896 32.4 105.512 32.4427 105.171 32.528C104.872 32.5707 104.552 32.592 104.211 32.592C103.4 32.592 102.718 32.3147 102.163 31.76C101.608 31.2053 101.331 30.5227 101.331 29.712C101.331 28.8587 101.63 28.1547 102.227 27.6C102.867 27.0027 103.614 26.7467 104.467 26.832C105.704 26.96 106.771 27.0667 107.667 27.152C108.606 27.1947 109.48 27.216 110.291 27.216C111.144 27.216 112.019 27.1947 112.915 27.152C113.854 27.0667 114.92 26.96 116.115 26.832C116.968 26.7467 117.694 27.0027 118.291 27.6C118.888 28.1547 119.187 28.8587 119.187 29.712C119.187 30.5653 118.888 31.2693 118.291 31.824C117.694 32.3787 116.968 32.6347 116.115 32.592C115.646 32.5067 115.155 32.464 114.643 32.464C114.131 32.4213 113.619 32.3787 113.107 32.336H112.979C112.68 32.336 112.531 32.5067 112.531 32.848V68.688C112.531 69.072 112.723 69.264 113.107 69.264H128.851C129.278 69.264 129.448 69.072 129.363 68.688C129.32 67.8773 129.256 67.088 129.171 66.32C129.086 65.552 129.043 64.848 129.043 64.208C129.043 63.3973 129.32 62.7147 129.875 62.16C130.472 61.5627 131.198 61.264 132.051 61.264ZM189.721 69.776C190.532 69.776 191.214 70.0533 191.769 70.608C192.324 71.12 192.601 71.8027 192.601 72.656C192.601 73.5093 192.281 74.2133 191.641 74.768C191.044 75.3227 190.318 75.5787 189.465 75.536C187.033 75.28 185.092 75.152 183.641 75.152C182.062 75.152 180.121 75.28 177.817 75.536C176.964 75.5787 176.238 75.3227 175.641 74.768C175.044 74.2133 174.745 73.5093 174.745 72.656C174.745 71.8027 175.001 71.12 175.513 70.608C176.068 70.0533 176.75 69.776 177.561 69.776C177.945 69.776 178.35 69.7973 178.777 69.84C179.246 69.8827 179.694 69.9467 180.121 70.032C180.633 70.032 180.782 69.8187 180.569 69.392L177.561 62.672C177.433 62.3733 177.22 62.224 176.921 62.224H154.777C154.521 62.224 154.308 62.3733 154.137 62.672L151.129 69.392C151.086 69.4773 151.065 69.5627 151.065 69.648C151.065 69.904 151.236 70.032 151.577 70.032C152.046 69.9467 152.494 69.8827 152.921 69.84C153.348 69.7973 153.753 69.776 154.137 69.776C154.948 69.776 155.609 70.0533 156.121 70.608C156.676 71.12 156.953 71.8027 156.953 72.656C156.953 73.5093 156.654 74.2133 156.057 74.768C155.46 75.3227 154.734 75.5787 153.881 75.536C151.406 75.28 149.465 75.152 148.057 75.152C146.436 75.152 144.494 75.28 142.233 75.536C141.38 75.5787 140.633 75.3227 139.993 74.768C139.396 74.2133 139.097 73.5093 139.097 72.656C139.097 71.8027 139.374 71.12 139.929 70.608C140.484 70.0533 141.166 69.776 141.977 69.776C142.404 69.776 142.809 69.7973 143.193 69.84C143.577 69.8827 143.961 69.9253 144.345 69.968H144.473C144.686 69.968 144.878 69.84 145.049 69.584L163.609 28.304C164.036 27.3227 164.782 26.832 165.849 26.832C166.873 26.832 167.598 27.3227 168.025 28.304L186.713 69.584C186.884 69.84 187.076 69.968 187.289 69.968C187.716 69.968 188.121 69.9467 188.505 69.904C188.932 69.8187 189.337 69.776 189.721 69.776ZM166.233 37.456C166.19 37.2 166.062 37.072 165.849 37.072C165.721 37.072 165.593 37.2 165.465 37.456L157.081 56.144C157.038 56.2293 157.017 56.3147 157.017 56.4C157.017 56.6987 157.188 56.848 157.529 56.848H174.169C174.681 56.848 174.83 56.6133 174.617 56.144L166.233 37.456ZM236.468 69.776C237.321 69.6907 238.047 69.9467 238.644 70.544C239.284 71.0987 239.604 71.8027 239.604 72.656C239.604 73.5093 239.284 74.2133 238.644 74.768C238.047 75.3227 237.321 75.5787 236.468 75.536C236.297 75.4933 235.615 75.408 234.42 75.28C233.225 75.152 232.073 75.088 230.964 75.088C229.129 75.088 227.721 74.32 226.74 72.784L216.116 56.592C215.988 56.336 215.753 56.208 215.412 56.208H207.732C207.348 56.208 207.156 56.4 207.156 56.784V69.52C207.156 69.8613 207.305 70.032 207.604 70.032C208.159 70.032 208.692 70.0107 209.204 69.968C209.716 69.8827 210.228 69.8187 210.74 69.776C211.593 69.6907 212.319 69.9467 212.916 70.544C213.513 71.0987 213.812 71.8027 213.812 72.656C213.812 73.5093 213.513 74.2133 212.916 74.768C212.319 75.3227 211.593 75.5787 210.74 75.536C209.545 75.408 208.479 75.3013 207.54 75.216C206.644 75.1733 205.769 75.152 204.916 75.152C204.063 75.152 203.188 75.1733 202.292 75.216C201.396 75.3013 200.329 75.408 199.092 75.536C198.239 75.5787 197.492 75.3227 196.852 74.768C196.255 74.2133 195.956 73.5093 195.956 72.656C195.956 71.8027 196.233 71.12 196.788 70.608C197.343 70.0533 198.025 69.776 198.836 69.776C199.135 69.776 199.433 69.7973 199.732 69.84C200.073 69.8827 200.436 69.9253 200.82 69.968H200.948C201.247 69.968 201.396 69.7973 201.396 69.456V33.168C201.396 32.7413 201.204 32.5707 200.82 32.656L199.284 32.784C198.431 32.912 197.663 32.6987 196.98 32.144C196.297 31.5467 195.956 30.8 195.956 29.904C195.956 28.9653 196.276 28.2187 196.916 27.664C197.599 27.0667 198.388 26.8107 199.284 26.896C200.137 27.024 201.012 27.152 201.908 27.28C202.847 27.3653 203.743 27.408 204.596 27.408L216.308 27.472C221.897 27.5147 226.249 28.7947 229.364 31.312C232.521 33.7867 234.1 37.2853 234.1 41.808C234.1 45.3493 233.119 48.3147 231.156 50.704C229.236 53.0507 226.505 54.6507 222.964 55.504C222.495 55.5893 222.388 55.824 222.644 56.208L231.476 69.776C231.604 70.032 231.86 70.16 232.244 70.16C233.737 70.0747 235.145 69.9467 236.468 69.776ZM217.012 32.976H207.732C207.348 32.976 207.156 33.168 207.156 33.552V50C207.156 50.384 207.348 50.576 207.732 50.576H217.012C224.735 50.576 228.596 47.6533 228.596 41.808C228.596 35.92 224.735 32.976 217.012 32.976ZM259.068 69.776C259.921 69.6907 260.646 69.9467 261.244 70.544C261.884 71.0987 262.204 71.8027 262.204 72.656C262.204 73.5093 261.884 74.2133 261.244 74.768C260.646 75.3227 259.921 75.5787 259.068 75.536C257.873 75.408 256.764 75.3013 255.74 75.216C254.716 75.1733 253.713 75.152 252.732 75.152C251.025 75.152 249.041 75.28 246.78 75.536C245.926 75.5787 245.18 75.3227 244.54 74.768C243.942 74.2133 243.644 73.5093 243.644 72.656C243.644 71.8027 243.942 71.0987 244.54 70.544C245.18 69.9467 245.926 69.6907 246.78 69.776C247.206 69.8187 247.654 69.8613 248.124 69.904C248.593 69.9467 249.062 69.9893 249.532 70.032H249.66C249.958 70.032 250.108 69.8613 250.108 69.52V32.848C250.108 32.5067 249.958 32.336 249.66 32.336C249.148 32.336 248.657 32.3573 248.188 32.4C247.718 32.4427 247.249 32.5067 246.78 32.592C245.926 32.6347 245.18 32.3787 244.54 31.824C243.942 31.2693 243.644 30.5653 243.644 29.712C243.644 28.8587 243.942 28.1547 244.54 27.6C245.18 27.0027 245.926 26.7467 246.78 26.832C248.017 26.96 249.126 27.0667 250.108 27.152C251.132 27.1947 252.134 27.216 253.116 27.216C254.78 27.216 256.764 27.088 259.068 26.832C259.921 26.7467 260.646 27.0027 261.244 27.6C261.884 28.1547 262.204 28.8587 262.204 29.712C262.204 30.5653 261.884 31.2693 261.244 31.824C260.646 32.3787 259.921 32.6347 259.068 32.592C258.641 32.5067 258.214 32.464 257.788 32.464C257.361 32.4213 256.913 32.3787 256.444 32.336H256.316C256.017 32.336 255.868 32.5067 255.868 32.848V69.52C255.868 69.8613 256.038 70.032 256.38 70.032C256.806 70.032 257.254 70.0107 257.724 69.968C258.193 69.8827 258.641 69.8187 259.068 69.776ZM277.976 39.504C277.848 41.1253 278.189 42.448 279 43.472C279.853 44.4533 281.005 45.2853 282.456 45.968C283.949 46.6507 285.592 47.2693 287.384 47.824C289.176 48.3787 290.968 48.9973 292.76 49.68C294.552 50.32 296.194 51.152 297.688 52.176C299.224 53.1573 300.44 54.4373 301.336 56.016C302.274 57.552 302.744 59.5147 302.744 61.904C302.744 64.5067 302.04 66.832 300.632 68.88C299.266 70.928 297.368 72.5493 294.936 73.744C292.504 74.9387 289.752 75.536 286.68 75.536C282.84 75.536 279.64 74.8533 277.08 73.488C274.52 72.08 272.536 70.544 271.128 68.88C270.061 67.6427 269.528 66.32 269.528 64.912C269.528 63.7173 269.912 62.6933 270.68 61.84C271.448 60.9867 272.557 60.56 274.008 60.56C275.202 60.56 276.184 61.008 276.952 61.904C277.762 62.8 278.168 63.8027 278.168 64.912C278.168 65.4667 278.04 66.0427 277.784 66.64C277.656 66.9813 277.698 67.2373 277.912 67.408C279.021 68.2613 280.258 68.9013 281.624 69.328C283.032 69.7547 284.44 69.968 285.848 69.968C287.725 69.968 289.517 69.648 291.224 69.008C292.93 68.3253 294.317 67.3867 295.384 66.192C296.45 64.9547 296.984 63.5253 296.984 61.904C296.984 60.4533 296.536 59.2587 295.64 58.32C294.744 57.3387 293.549 56.528 292.056 55.888C290.605 55.2053 289.005 54.5867 287.256 54.032C285.506 53.4773 283.736 52.8587 281.944 52.176C280.194 51.4933 278.573 50.6613 277.08 49.68C275.629 48.656 274.456 47.3973 273.56 45.904C272.664 44.4107 272.216 42.5547 272.216 40.336C272.216 37.904 272.642 35.8347 273.496 34.128C274.392 32.3787 275.586 30.992 277.08 29.968C278.573 28.9013 280.237 28.1333 282.072 27.664C283.906 27.152 285.784 26.896 287.704 26.896C290.136 26.896 292.461 27.2373 294.68 27.92C296.898 28.6027 298.69 29.5413 300.056 30.736C301.464 31.9307 302.168 33.296 302.168 34.832C302.125 36.0267 301.677 37.0507 300.824 37.904C300.013 38.7573 299.01 39.184 297.816 39.184C296.621 39.184 295.597 38.7573 294.744 37.904C293.933 37.0507 293.528 36.0267 293.528 34.832C293.528 34.4053 293.549 34.1067 293.592 33.936C293.677 33.5947 293.656 33.4027 293.528 33.36C292.973 33.0613 292.141 32.8053 291.032 32.592C289.965 32.3787 288.813 32.272 287.576 32.272C286.168 32.272 284.738 32.4853 283.288 32.912C281.88 33.296 280.685 34.0213 279.704 35.088C278.722 36.112 278.146 37.584 277.976 39.504Z" fill="white"/>
<path d="M3.84 90.22C3.8 90.7267 3.90667 91.14 4.16 91.46C4.42667 91.7667 4.78667 92.0267 5.24 92.24C5.70667 92.4533 6.22 92.6467 6.78 92.82C7.34 92.9933 7.9 93.1867 8.46 93.4C9.02 93.6 9.53333 93.86 10 94.18C10.48 94.4867 10.86 94.8867 11.14 95.38C11.4333 95.86 11.58 96.4733 11.58 97.22C11.58 98.0333 11.36 98.76 10.92 99.4C10.4933 100.04 9.9 100.547 9.14 100.92C8.38 101.293 7.52 101.48 6.56 101.48C5.36 101.48 4.36 101.267 3.56 100.84C2.76 100.4 2.14 99.92 1.7 99.4C1.36667 99.0133 1.2 98.6 1.2 98.16C1.2 97.7867 1.32 97.4667 1.56 97.2C1.8 96.9333 2.14667 96.8 2.6 96.8C2.97333 96.8 3.28 96.94 3.52 97.22C3.77333 97.5 3.9 97.8133 3.9 98.16C3.9 98.3333 3.86 98.5133 3.78 98.7C3.74 98.8067 3.75333 98.8867 3.82 98.94C4.16667 99.2067 4.55333 99.4067 4.98 99.54C5.42 99.6733 5.86 99.74 6.3 99.74C6.88667 99.74 7.44667 99.64 7.98 99.44C8.51333 99.2267 8.94667 98.9333 9.28 98.56C9.61333 98.1733 9.78 97.7267 9.78 97.22C9.78 96.7667 9.64 96.3933 9.36 96.1C9.08 95.7933 8.70667 95.54 8.24 95.34C7.78667 95.1267 7.28667 94.9333 6.74 94.76C6.19333 94.5867 5.64 94.3933 5.08 94.18C4.53333 93.9667 4.02667 93.7067 3.56 93.4C3.10667 93.08 2.74 92.6867 2.46 92.22C2.18 91.7533 2.04 91.1733 2.04 90.48C2.04 89.72 2.17333 89.0733 2.44 88.54C2.72 87.9933 3.09333 87.56 3.56 87.24C4.02667 86.9067 4.54667 86.6667 5.12 86.52C5.69333 86.36 6.28 86.28 6.88 86.28C7.64 86.28 8.36667 86.3867 9.06 86.6C9.75333 86.8133 10.3133 87.1067 10.74 87.48C11.18 87.8533 11.4 88.28 11.4 88.76C11.3867 89.1333 11.2467 89.4533 10.98 89.72C10.7267 89.9867 10.4133 90.12 10.04 90.12C9.66667 90.12 9.34667 89.9867 9.08 89.72C8.82667 89.4533 8.7 89.1333 8.7 88.76C8.7 88.6267 8.70667 88.5333 8.72 88.48C8.74667 88.3733 8.74 88.3133 8.7 88.3C8.52667 88.2067 8.26667 88.1267 7.92 88.06C7.58667 87.9933 7.22667 87.96 6.84 87.96C6.4 87.96 5.95333 88.0267 5.5 88.16C5.06 88.28 4.68667 88.5067 4.38 88.84C4.07333 89.16 3.89333 89.62 3.84 90.22ZM19.8725 97.78C20.1392 97.78 20.3592 97.8733 20.5325 98.06C20.7058 98.2467 20.7792 98.4733 20.7525 98.74C20.6592 99.6333 20.3725 100.313 19.8925 100.78C19.4258 101.247 18.7992 101.48 18.0125 101.48C17.5058 101.48 17.0525 101.36 16.6525 101.12C16.2525 100.88 15.9325 100.553 15.6925 100.14C15.4658 99.7267 15.3525 99.2667 15.3525 98.76V92.6C15.3525 92.48 15.2925 92.42 15.1725 92.42H14.0925C13.8792 92.42 13.6858 92.34 13.5125 92.18C13.3525 92.0067 13.2725 91.8133 13.2725 91.6C13.2725 91.3733 13.3525 91.1867 13.5125 91.04C13.6858 90.88 13.8792 90.8 14.0925 90.8H15.1725C15.2925 90.8 15.3525 90.74 15.3525 90.62V87.32C15.3525 87.08 15.4392 86.8733 15.6125 86.7C15.7858 86.5267 15.9925 86.44 16.2325 86.44C16.4725 86.44 16.6725 86.5267 16.8325 86.7C17.0058 86.8733 17.0925 87.08 17.0925 87.32V90.62C17.0925 90.74 17.1525 90.8 17.2725 90.8H19.5725C19.7992 90.8 19.9858 90.88 20.1325 91.04C20.2925 91.1867 20.3725 91.3733 20.3725 91.6C20.3725 91.8133 20.2925 92.0067 20.1325 92.18C19.9858 92.34 19.7992 92.42 19.5725 92.42H17.2725C17.1525 92.42 17.0925 92.48 17.0925 92.6V98.76C17.0925 98.8 17.1058 98.9 17.1325 99.06C17.1725 99.22 17.2525 99.3733 17.3725 99.52C17.5058 99.6667 17.7192 99.74 18.0125 99.74C18.3325 99.74 18.5658 99.6533 18.7125 99.48C18.8725 99.3067 18.9792 98.9933 19.0325 98.54C19.0592 98.3133 19.1525 98.1333 19.3125 98C19.4725 97.8533 19.6592 97.78 19.8725 97.78ZM28.0239 101.48C27.2639 101.48 26.5506 101.34 25.8839 101.06C25.2172 100.78 24.6306 100.393 24.1239 99.9C23.6172 99.4067 23.2172 98.8333 22.9239 98.18C22.6439 97.5133 22.5039 96.8067 22.5039 96.06C22.5039 95.3133 22.6439 94.6133 22.9239 93.96C23.2172 93.2933 23.6172 92.7133 24.1239 92.22C24.6306 91.7267 25.2172 91.34 25.8839 91.06C26.5506 90.78 27.2639 90.64 28.0239 90.64C28.7839 90.64 29.4906 90.78 30.1439 91.06C30.8106 91.34 31.3972 91.7333 31.9039 92.24C32.4106 92.7333 32.8039 93.3067 33.0839 93.96C33.3772 94.6133 33.5239 95.3133 33.5239 96.06C33.5239 96.8067 33.3772 97.5067 33.0839 98.16C32.8039 98.8133 32.4106 99.3933 31.9039 99.9C31.3972 100.393 30.8106 100.78 30.1439 101.06C29.4906 101.34 28.7839 101.48 28.0239 101.48ZM28.0239 99.82C28.7306 99.82 29.3706 99.6533 29.9439 99.32C30.5172 98.9867 30.9706 98.5333 31.3039 97.96C31.6372 97.3867 31.8039 96.7533 31.8039 96.06C31.8039 95.3667 31.6306 94.74 31.2839 94.18C30.9506 93.6067 30.4972 93.1533 29.9239 92.82C29.3639 92.4733 28.7306 92.3 28.0239 92.3C27.3039 92.3 26.6572 92.4667 26.0839 92.8C25.5106 93.1333 25.0572 93.5867 24.7239 94.16C24.3906 94.72 24.2239 95.3533 24.2239 96.06C24.2239 96.7533 24.3906 97.3867 24.7239 97.96C25.0572 98.5333 25.5106 98.9867 26.0839 99.32C26.6706 99.6533 27.3172 99.82 28.0239 99.82ZM43.6598 91.92C43.6598 92.2533 43.5398 92.5467 43.2998 92.8C43.0598 93.04 42.7598 93.16 42.3998 93.16C42.1598 93.16 41.9398 93.1 41.7398 92.98C41.5532 92.8467 41.3998 92.6867 41.2798 92.5C41.2398 92.4067 41.1665 92.3667 41.0598 92.38C40.4332 92.4733 39.8332 92.8467 39.2598 93.5C38.6865 94.14 38.2465 94.9467 37.9398 95.92C37.9132 95.9733 37.8998 96.0467 37.8998 96.14V99.74C37.8998 99.8467 37.9465 99.9 38.0398 99.9C38.1865 99.9 38.3198 99.8933 38.4398 99.88C38.5732 99.8533 38.7065 99.84 38.8398 99.84C39.0665 99.84 39.2598 99.92 39.4198 100.08C39.5798 100.227 39.6598 100.42 39.6598 100.66C39.6598 100.9 39.5665 101.1 39.3798 101.26C39.2065 101.42 38.9998 101.493 38.7598 101.48C38.3465 101.44 38.0132 101.407 37.7598 101.38C37.5198 101.367 37.2798 101.36 37.0398 101.36C36.7598 101.36 36.4998 101.367 36.2598 101.38C36.0198 101.407 35.7065 101.44 35.3198 101.48C35.0798 101.493 34.8665 101.42 34.6798 101.26C34.5065 101.1 34.4198 100.9 34.4198 100.66C34.4198 100.42 34.4998 100.227 34.6598 100.08C34.8198 99.92 35.0132 99.84 35.2398 99.84C35.3465 99.84 35.4598 99.8467 35.5798 99.86C35.7132 99.8733 35.8465 99.8867 35.9798 99.9H36.0198C36.1132 99.9 36.1598 99.8467 36.1598 99.74V92.54C36.1598 92.4333 36.1132 92.38 36.0198 92.38C35.7798 92.38 35.5465 92.4 35.3198 92.44C35.0532 92.4533 34.8198 92.3733 34.6198 92.2C34.4332 92.0267 34.3398 91.8067 34.3398 91.54C34.3398 91.2733 34.4398 91.0533 34.6398 90.88C34.8398 90.7067 35.0665 90.6333 35.3198 90.66C35.5865 90.6867 35.7932 90.7067 35.9398 90.72C36.0998 90.7333 36.2532 90.74 36.3998 90.74C36.5598 90.74 36.7732 90.74 37.0398 90.74C37.2798 90.74 37.4798 90.8267 37.6398 91C37.8132 91.1733 37.8998 91.3733 37.8998 91.6V92.42C37.8998 92.5 37.9198 92.5467 37.9598 92.56C38.0132 92.5733 38.0665 92.5467 38.1198 92.48C38.9998 91.3467 40.0798 90.7 41.3598 90.54C41.4532 90.5267 41.5398 90.52 41.6198 90.52C41.7132 90.5067 41.8065 90.5 41.8998 90.5C42.4065 90.5 42.8265 90.62 43.1598 90.86C43.4932 91.1 43.6598 91.4533 43.6598 91.92ZM55.7863 90.66C56.0263 90.6333 56.2329 90.7 56.4062 90.86C56.5796 91.02 56.6663 91.2267 56.6663 91.48C56.6663 91.72 56.5796 91.92 56.4062 92.08C56.2329 92.24 56.0263 92.3133 55.7863 92.3L55.5063 92.26H55.4663C55.3996 92.26 55.3396 92.3 55.2863 92.38L50.4063 103.28C49.4463 105.28 48.2196 106.28 46.7263 106.28C46.2463 106.28 45.8063 106.167 45.4063 105.94C45.0196 105.727 44.7063 105.44 44.4663 105.08C44.2263 104.72 44.1063 104.327 44.1063 103.9C44.1063 103.433 44.2396 103.053 44.5063 102.76C44.7729 102.48 45.1063 102.34 45.5063 102.34C45.8529 102.34 46.1463 102.467 46.3863 102.72C46.6396 102.987 46.7663 103.293 46.7663 103.64C46.7663 103.96 46.6796 104.22 46.5063 104.42C46.3996 104.527 46.4063 104.613 46.5263 104.68C46.6063 104.707 46.6729 104.72 46.7263 104.72C47.5529 104.72 48.2329 104.12 48.7663 102.92L49.4663 101.34C49.4929 101.26 49.4929 101.18 49.4663 101.1L45.6263 92.38C45.5729 92.2867 45.4996 92.2467 45.4063 92.26L45.0263 92.3C44.7863 92.3133 44.5796 92.24 44.4063 92.08C44.2329 91.92 44.1463 91.72 44.1463 91.48C44.1463 91.2267 44.2329 91.02 44.4063 90.86C44.5796 90.7 44.7863 90.6333 45.0263 90.66C45.3996 90.6867 45.7129 90.7067 45.9663 90.72C46.2196 90.7333 46.4529 90.74 46.6663 90.74C46.8929 90.74 47.1329 90.7333 47.3863 90.72C47.6396 90.7067 47.9463 90.6867 48.3063 90.66C48.5463 90.6333 48.7529 90.7 48.9263 90.86C49.0996 91.02 49.1862 91.2267 49.1862 91.48C49.1862 91.7067 49.1063 91.9 48.9463 92.06C48.7863 92.22 48.5929 92.3 48.3663 92.3C48.2596 92.3 48.1396 92.2933 48.0063 92.28C47.8729 92.2533 47.7396 92.2333 47.6063 92.22H47.5663C47.4329 92.22 47.3996 92.2867 47.4663 92.42L50.3063 98.92C50.3463 99 50.3863 99.04 50.4263 99.04C50.4929 99.04 50.5329 99 50.5463 98.92L53.4663 92.42C53.4796 92.3933 53.4863 92.36 53.4863 92.32C53.4863 92.2533 53.4463 92.22 53.3663 92.22C53.2329 92.22 53.0863 92.2267 52.9263 92.24C52.7796 92.2533 52.6396 92.2733 52.5063 92.3C52.2663 92.3133 52.0596 92.24 51.8863 92.08C51.7129 91.92 51.6263 91.72 51.6263 91.48C51.6263 91.2267 51.7129 91.02 51.8863 90.86C52.0596 90.7 52.2663 90.6333 52.5063 90.66C52.8796 90.6867 53.1929 90.7067 53.4463 90.72C53.6996 90.7333 53.9329 90.74 54.1463 90.74C54.3729 90.74 54.6129 90.7333 54.8663 90.72C55.1196 90.7067 55.4263 90.6867 55.7863 90.66ZM63.935 97.78C64.2017 97.78 64.4217 97.8733 64.595 98.06C64.7683 98.2467 64.8417 98.4733 64.815 98.74C64.7217 99.6333 64.435 100.313 63.955 100.78C63.4883 101.247 62.8617 101.48 62.075 101.48C61.5683 101.48 61.115 101.36 60.715 101.12C60.315 100.88 59.995 100.553 59.755 100.14C59.5283 99.7267 59.415 99.2667 59.415 98.76V92.6C59.415 92.48 59.355 92.42 59.235 92.42H58.155C57.9417 92.42 57.7483 92.34 57.575 92.18C57.415 92.0067 57.335 91.8133 57.335 91.6C57.335 91.3733 57.415 91.1867 57.575 91.04C57.7483 90.88 57.9417 90.8 58.155 90.8H59.235C59.355 90.8 59.415 90.74 59.415 90.62V87.32C59.415 87.08 59.5017 86.8733 59.675 86.7C59.8483 86.5267 60.055 86.44 60.295 86.44C60.535 86.44 60.735 86.5267 60.895 86.7C61.0683 86.8733 61.155 87.08 61.155 87.32V90.62C61.155 90.74 61.215 90.8 61.335 90.8H63.635C63.8617 90.8 64.0483 90.88 64.195 91.04C64.355 91.1867 64.435 91.3733 64.435 91.6C64.435 91.8133 64.355 92.0067 64.195 92.18C64.0483 92.34 63.8617 92.42 63.635 92.42H61.335C61.215 92.42 61.155 92.48 61.155 92.6V98.76C61.155 98.8 61.1683 98.9 61.195 99.06C61.235 99.22 61.315 99.3733 61.435 99.52C61.5683 99.6667 61.7817 99.74 62.075 99.74C62.395 99.74 62.6283 99.6533 62.775 99.48C62.935 99.3067 63.0417 98.9933 63.095 98.54C63.1217 98.3133 63.215 98.1333 63.375 98C63.535 97.8533 63.7217 97.78 63.935 97.78ZM75.3464 96.84H68.4864C68.3531 96.84 68.2997 96.9067 68.3264 97.04C68.5397 97.8533 68.9664 98.52 69.6064 99.04C70.2464 99.5467 70.9797 99.8 71.8064 99.8C72.7931 99.8 73.6464 99.4067 74.3664 98.62C74.5664 98.3933 74.8064 98.28 75.0864 98.28C75.2597 98.28 75.4197 98.3333 75.5664 98.44C75.8197 98.6133 75.9464 98.8467 75.9464 99.14C75.9464 99.3267 75.8864 99.4933 75.7664 99.64C75.2731 100.213 74.6797 100.66 73.9864 100.98C73.2931 101.3 72.5664 101.46 71.8064 101.46C71.0731 101.46 70.3864 101.32 69.7464 101.04C69.1197 100.76 68.5597 100.373 68.0664 99.88C67.5864 99.3733 67.2064 98.7933 66.9264 98.14C66.6597 97.4867 66.5264 96.7933 66.5264 96.06C66.5264 95.0467 66.7464 94.1333 67.1864 93.32C67.6397 92.4933 68.2531 91.84 69.0264 91.36C69.7997 90.88 70.6597 90.64 71.6064 90.64C72.9931 90.64 74.1331 91.0733 75.0264 91.94C75.9197 92.8067 76.4464 93.9933 76.6064 95.5C76.6464 95.86 76.5397 96.1733 76.2864 96.44C76.0464 96.7067 75.7331 96.84 75.3464 96.84ZM71.6064 92.22C70.7531 92.22 70.0397 92.46 69.4664 92.94C68.8931 93.42 68.5131 94.0933 68.3264 94.96V95C68.3264 95.1067 68.3797 95.16 68.4864 95.16H74.6264C74.7597 95.16 74.8131 95.0867 74.7864 94.94C74.4264 93.1267 73.3664 92.22 71.6064 92.22ZM82.7786 99.84C83.0053 99.84 83.1986 99.92 83.3586 100.08C83.5186 100.227 83.5986 100.42 83.5986 100.66C83.5986 100.9 83.5053 101.1 83.3186 101.26C83.1453 101.42 82.9386 101.493 82.6986 101.48C82.2853 101.44 81.9519 101.407 81.6986 101.38C81.4586 101.367 81.2186 101.36 80.9786 101.36C80.6986 101.36 80.4386 101.367 80.1986 101.38C79.9586 101.407 79.6453 101.44 79.2586 101.48C79.0186 101.493 78.8053 101.42 78.6186 101.26C78.4453 101.1 78.3586 100.9 78.3586 100.66C78.3586 100.42 78.4386 100.227 78.5986 100.08C78.7586 99.92 78.9519 99.84 79.1786 99.84C79.2853 99.84 79.3986 99.8467 79.5186 99.86C79.6519 99.8733 79.7853 99.8867 79.9186 99.9H79.9586C80.0519 99.9 80.0986 99.8467 80.0986 99.74V87.88C80.0986 87.7733 80.0519 87.72 79.9586 87.72C79.8253 87.72 79.6919 87.7333 79.5586 87.76C79.4386 87.7733 79.3053 87.78 79.1586 87.78C78.9453 87.78 78.7586 87.7067 78.5986 87.56C78.4386 87.4 78.3586 87.2067 78.3586 86.98C78.3586 86.7267 78.4453 86.52 78.6186 86.36C78.7919 86.2 79.0053 86.1333 79.2586 86.16C79.4586 86.1733 79.6653 86.1933 79.8786 86.22C80.1053 86.2333 80.3253 86.2467 80.5386 86.26C80.8986 86.2733 81.2053 86.4133 81.4586 86.68C81.7253 86.9333 81.8586 87.2333 81.8586 87.58V99.74C81.8586 99.8467 81.9119 99.9 82.0186 99.9C82.1386 99.9 82.2653 99.8933 82.3986 99.88C82.5319 99.8533 82.6586 99.84 82.7786 99.84ZM89.6145 99.84C89.8412 99.84 90.0345 99.92 90.1945 100.08C90.3545 100.227 90.4345 100.42 90.4345 100.66C90.4345 100.9 90.3412 101.1 90.1545 101.26C89.9812 101.42 89.7745 101.493 89.5345 101.48C89.1212 101.44 88.7879 101.407 88.5345 101.38C88.2945 101.367 88.0545 101.36 87.8145 101.36C87.5345 101.36 87.2745 101.367 87.0345 101.38C86.7945 101.407 86.4812 101.44 86.0945 101.48C85.8545 101.493 85.6412 101.42 85.4545 101.26C85.2812 101.1 85.1945 100.9 85.1945 100.66C85.1945 100.42 85.2745 100.227 85.4345 100.08C85.5945 99.92 85.7879 99.84 86.0145 99.84C86.1212 99.84 86.2345 99.8467 86.3545 99.86C86.4879 99.8733 86.6212 99.8867 86.7545 99.9H86.7945C86.8879 99.9 86.9345 99.8467 86.9345 99.74V87.88C86.9345 87.7733 86.8879 87.72 86.7945 87.72C86.6612 87.72 86.5279 87.7333 86.3945 87.76C86.2745 87.7733 86.1412 87.78 85.9945 87.78C85.7812 87.78 85.5945 87.7067 85.4345 87.56C85.2745 87.4 85.1945 87.2067 85.1945 86.98C85.1945 86.7267 85.2812 86.52 85.4545 86.36C85.6279 86.2 85.8412 86.1333 86.0945 86.16C86.2945 86.1733 86.5012 86.1933 86.7145 86.22C86.9412 86.2333 87.1612 86.2467 87.3745 86.26C87.7345 86.2733 88.0412 86.4133 88.2945 86.68C88.5612 86.9333 88.6945 87.2333 88.6945 87.58V99.74C88.6945 99.8467 88.7479 99.9 88.8545 99.9C88.9745 99.9 89.1012 99.8933 89.2345 99.88C89.3679 99.8533 89.4945 99.84 89.6145 99.84ZM94.9305 89.14C94.5705 89.14 94.2571 89.0133 93.9905 88.76C93.7371 88.4933 93.6105 88.18 93.6105 87.82C93.6105 87.4467 93.7371 87.1333 93.9905 86.88C94.2571 86.6267 94.5705 86.5 94.9305 86.5C95.2905 86.5 95.5971 86.6267 95.8505 86.88C96.1171 87.1333 96.2505 87.4467 96.2505 87.82C96.2505 88.18 96.1171 88.4933 95.8505 88.76C95.5971 89.0133 95.2905 89.14 94.9305 89.14ZM93.2105 101.48C92.9438 101.493 92.7105 101.413 92.5105 101.24C92.3238 101.067 92.2305 100.847 92.2305 100.58C92.2305 100.313 92.3238 100.093 92.5105 99.92C92.7105 99.7333 92.9438 99.6533 93.2105 99.68C93.4105 99.72 93.6305 99.74 93.8705 99.74H93.9105C94.0038 99.74 94.0505 99.6867 94.0505 99.58V92.54C94.0505 92.4333 94.0038 92.38 93.9105 92.38C93.6705 92.38 93.4371 92.4 93.2105 92.44C92.9438 92.4533 92.7105 92.3733 92.5105 92.2C92.3238 92.0267 92.2305 91.8067 92.2305 91.54C92.2305 91.2733 92.3305 91.0533 92.5305 90.88C92.7305 90.6933 92.9571 90.6133 93.2105 90.64C93.5705 90.6667 93.8238 90.6933 93.9705 90.72C94.1305 90.7333 94.2371 90.74 94.2905 90.74C94.3438 90.74 94.4105 90.74 94.4905 90.74C94.8505 90.74 95.1571 90.8733 95.4105 91.14C95.6771 91.3933 95.8105 91.7 95.8105 92.06V99.58C95.8105 99.6867 95.8571 99.74 95.9505 99.74C96.2038 99.74 96.4371 99.72 96.6505 99.68C96.9171 99.6533 97.1438 99.7333 97.3305 99.92C97.5171 100.093 97.6105 100.313 97.6105 100.58C97.6105 100.847 97.5171 101.067 97.3305 101.24C97.1438 101.413 96.9171 101.493 96.6505 101.48C96.3838 101.453 96.0971 101.427 95.7905 101.4C95.4971 101.373 95.2105 101.36 94.9305 101.36C94.6505 101.36 94.3571 101.373 94.0505 101.4C93.7571 101.427 93.4771 101.453 93.2105 101.48ZM110.339 99.84C110.579 99.8133 110.786 99.88 110.959 100.04C111.132 100.2 111.219 100.407 111.219 100.66C111.219 100.9 111.132 101.093 110.959 101.24C110.786 101.4 110.579 101.473 110.339 101.46C109.926 101.42 109.599 101.393 109.359 101.38C109.132 101.367 108.912 101.36 108.699 101.36C108.459 101.36 108.226 101.367 107.999 101.38C107.772 101.407 107.459 101.433 107.059 101.46C106.819 101.473 106.612 101.4 106.439 101.24C106.266 101.093 106.179 100.9 106.179 100.66C106.179 100.407 106.266 100.2 106.439 100.04C106.612 99.88 106.819 99.8133 107.059 99.84L107.639 99.88H107.679C107.772 99.88 107.819 99.8267 107.819 99.72V94.3C107.819 93.6467 107.719 93.18 107.519 92.9C107.319 92.62 106.992 92.48 106.539 92.48C105.459 92.48 104.252 93.0867 102.919 94.3C102.852 94.3667 102.819 94.4467 102.819 94.54V99.72C102.819 99.84 102.879 99.8933 102.999 99.88L103.579 99.84C103.819 99.8133 104.026 99.88 104.199 100.04C104.372 100.2 104.459 100.407 104.459 100.66C104.459 100.9 104.372 101.093 104.199 101.24C104.026 101.4 103.819 101.473 103.579 101.46C103.166 101.42 102.839 101.393 102.599 101.38C102.372 101.367 102.152 101.36 101.939 101.36C101.699 101.36 101.466 101.367 101.239 101.38C101.012 101.407 100.699 101.433 100.299 101.46C100.059 101.473 99.8522 101.4 99.6789 101.24C99.5056 101.093 99.4189 100.9 99.4189 100.66C99.4189 100.407 99.5056 100.2 99.6789 100.04C99.8522 99.88 100.059 99.8133 100.299 99.84L100.899 99.88C101.019 99.88 101.079 99.8267 101.079 99.72V92.38C101.079 92.2733 101.032 92.22 100.939 92.22C100.806 92.22 100.679 92.2333 100.559 92.26C100.439 92.2733 100.312 92.28 100.179 92.28C99.9656 92.28 99.7789 92.2 99.6189 92.04C99.4589 91.88 99.3789 91.6867 99.3789 91.46C99.3789 91.22 99.4656 91.02 99.6389 90.86C99.8122 90.6867 100.019 90.6133 100.259 90.64C100.446 90.6533 100.646 90.6733 100.859 90.7C101.072 90.7133 101.286 90.7267 101.499 90.74C101.872 90.7533 102.186 90.8933 102.439 91.16C102.692 91.4267 102.819 91.7333 102.819 92.08V92.28C102.819 92.36 102.839 92.4133 102.879 92.44C102.932 92.4533 102.986 92.4333 103.039 92.38C104.332 91.22 105.579 90.64 106.779 90.64C108.646 90.64 109.579 91.8667 109.579 94.32V99.72C109.579 99.84 109.639 99.8933 109.759 99.88L110.339 99.84ZM123.534 90.66C123.787 90.6333 124.007 90.7 124.194 90.86C124.381 91.02 124.474 91.2333 124.474 91.5C124.474 91.7533 124.381 91.9667 124.194 92.14C124.007 92.3133 123.787 92.3867 123.534 92.36L122.854 92.26H122.814C122.707 92.26 122.654 92.32 122.654 92.44V100.58C122.654 101.153 122.561 101.767 122.374 102.42C122.187 103.087 121.894 103.713 121.494 104.3C121.094 104.887 120.581 105.367 119.954 105.74C119.327 106.113 118.581 106.3 117.714 106.3C116.221 106.3 115.074 105.813 114.274 104.84C114.061 104.573 113.901 104.293 113.794 104C113.687 103.72 113.634 103.447 113.634 103.18C113.634 102.753 113.747 102.387 113.974 102.08C114.214 101.787 114.554 101.64 114.994 101.64C115.407 101.64 115.734 101.78 115.974 102.06C116.214 102.34 116.334 102.653 116.334 103C116.334 103.373 116.207 103.687 115.954 103.94C115.874 104.02 115.867 104.107 115.934 104.2C116.254 104.56 116.847 104.74 117.714 104.74C118.461 104.74 119.067 104.527 119.534 104.1C120.001 103.687 120.347 103.16 120.574 102.52C120.801 101.88 120.914 101.233 120.914 100.58V100.38C120.914 100.313 120.894 100.267 120.854 100.24C120.814 100.213 120.761 100.227 120.694 100.28C119.934 100.96 119.061 101.3 118.074 101.3C117.221 101.3 116.467 101.147 115.814 100.84C115.174 100.52 114.634 100.1 114.194 99.58C113.767 99.06 113.447 98.4867 113.234 97.86C113.021 97.2333 112.914 96.6067 112.914 95.98C112.914 95.3667 113.014 94.7467 113.214 94.12C113.414 93.4933 113.721 92.92 114.134 92.4C114.547 91.88 115.061 91.46 115.674 91.14C116.301 90.82 117.034 90.66 117.874 90.66C118.421 90.66 118.927 90.7467 119.394 90.92C119.874 91.0933 120.307 91.3333 120.694 91.64C120.761 91.6933 120.814 91.72 120.854 91.72C120.894 91.72 120.914 91.7 120.914 91.66C120.914 91.42 121.001 91.2133 121.174 91.04C121.347 90.8667 121.554 90.78 121.794 90.78H122.534C122.574 90.78 122.667 90.7733 122.814 90.76C122.961 90.7333 123.107 90.7133 123.254 90.7C123.401 90.6733 123.494 90.66 123.534 90.66ZM118.054 99.6C118.641 99.6 119.167 99.4933 119.634 99.28C120.114 99.0533 120.514 98.74 120.834 98.34C120.887 98.2733 120.914 98.2 120.914 98.12V93.74C120.914 93.66 120.887 93.5867 120.834 93.52C120.101 92.72 119.167 92.32 118.034 92.32C117.381 92.32 116.801 92.48 116.294 92.8C115.801 93.1067 115.414 93.5333 115.134 94.08C114.854 94.6267 114.714 95.2533 114.714 95.96C114.714 96.6533 114.861 97.2733 115.154 97.82C115.447 98.3667 115.847 98.8 116.354 99.12C116.861 99.44 117.427 99.6 118.054 99.6ZM149.375 86.26C149.642 86.2333 149.869 86.3133 150.055 86.5C150.242 86.6733 150.335 86.8933 150.335 87.16C150.335 87.4133 150.249 87.6267 150.075 87.8C149.902 87.9733 149.695 88.06 149.455 88.06C149.362 88.06 149.255 88.0533 149.135 88.04C149.015 88.0267 148.895 88.0133 148.775 88H148.735C148.642 88 148.589 88.0467 148.575 88.14L145.395 100.68C145.329 100.92 145.195 101.113 144.995 101.26C144.809 101.407 144.602 101.48 144.375 101.48C144.135 101.48 143.922 101.4 143.735 101.24C143.549 101.093 143.422 100.907 143.355 100.68L140.615 90.14C140.602 90.06 140.562 90.02 140.495 90.02C140.442 90.02 140.402 90.06 140.375 90.14L137.675 100.68C137.609 100.92 137.475 101.113 137.275 101.26C137.089 101.407 136.875 101.48 136.635 101.48C136.395 101.48 136.175 101.407 135.975 101.26C135.789 101.113 135.662 100.92 135.595 100.68L132.415 88.14C132.402 88.0467 132.349 88 132.255 88C132.122 88 131.995 88.0133 131.875 88.04C131.769 88.0533 131.655 88.06 131.535 88.06C131.295 88.06 131.089 87.9733 130.915 87.8C130.742 87.6267 130.655 87.4133 130.655 87.16C130.655 86.8933 130.749 86.6733 130.935 86.5C131.135 86.3133 131.362 86.2333 131.615 86.26C132.002 86.3 132.335 86.3333 132.615 86.36C132.909 86.3733 133.189 86.38 133.455 86.38C133.722 86.38 133.995 86.3733 134.275 86.36C134.569 86.3333 134.902 86.3 135.275 86.26C135.542 86.2333 135.769 86.3133 135.955 86.5C136.142 86.6733 136.235 86.8933 136.235 87.16C136.235 87.4267 136.142 87.6467 135.955 87.82C135.769 87.9933 135.542 88.0733 135.275 88.06C135.129 88.0333 134.975 88.02 134.815 88.02C134.655 88.0067 134.495 87.9933 134.335 87.98H134.295C134.189 87.98 134.149 88.04 134.175 88.16L136.535 97.6C136.562 97.68 136.602 97.72 136.655 97.72C136.709 97.72 136.742 97.68 136.755 97.6L139.435 87.34C139.502 87.1 139.635 86.9067 139.835 86.76C140.035 86.6 140.255 86.52 140.495 86.52C140.735 86.52 140.955 86.6 141.155 86.76C141.355 86.9067 141.489 87.1 141.555 87.34L144.235 97.62C144.262 97.7 144.302 97.74 144.355 97.74C144.409 97.74 144.442 97.7 144.455 97.62L146.815 88.16V88.1C146.815 88.02 146.775 87.98 146.695 87.98C146.535 87.98 146.369 87.9867 146.195 88C146.035 88.0133 145.875 88.0333 145.715 88.06C145.462 88.0733 145.235 87.9933 145.035 87.82C144.849 87.6467 144.755 87.4267 144.755 87.16C144.755 86.8933 144.849 86.6733 145.035 86.5C145.235 86.3133 145.462 86.2333 145.715 86.26C146.102 86.3 146.435 86.3333 146.715 86.36C147.009 86.3733 147.289 86.38 147.555 86.38C147.822 86.38 148.095 86.3733 148.375 86.36C148.669 86.3333 149.002 86.3 149.375 86.26ZM158.589 96.84H151.729C151.595 96.84 151.542 96.9067 151.569 97.04C151.782 97.8533 152.209 98.52 152.849 99.04C153.489 99.5467 154.222 99.8 155.049 99.8C156.035 99.8 156.889 99.4067 157.609 98.62C157.809 98.3933 158.049 98.28 158.329 98.28C158.502 98.28 158.662 98.3333 158.809 98.44C159.062 98.6133 159.189 98.8467 159.189 99.14C159.189 99.3267 159.129 99.4933 159.009 99.64C158.515 100.213 157.922 100.66 157.229 100.98C156.535 101.3 155.809 101.46 155.049 101.46C154.315 101.46 153.629 101.32 152.989 101.04C152.362 100.76 151.802 100.373 151.309 99.88C150.829 99.3733 150.449 98.7933 150.169 98.14C149.902 97.4867 149.769 96.7933 149.769 96.06C149.769 95.0467 149.989 94.1333 150.429 93.32C150.882 92.4933 151.495 91.84 152.269 91.36C153.042 90.88 153.902 90.64 154.849 90.64C156.235 90.64 157.375 91.0733 158.269 91.94C159.162 92.8067 159.689 93.9933 159.849 95.5C159.889 95.86 159.782 96.1733 159.529 96.44C159.289 96.7067 158.975 96.84 158.589 96.84ZM154.849 92.22C153.995 92.22 153.282 92.46 152.709 92.94C152.135 93.42 151.755 94.0933 151.569 94.96V95C151.569 95.1067 151.622 95.16 151.729 95.16H157.869C158.002 95.16 158.055 95.0867 158.029 94.94C157.669 93.1267 156.609 92.22 154.849 92.22ZM167.721 90.66C168.561 90.66 169.294 90.82 169.921 91.14C170.547 91.46 171.061 91.8867 171.461 92.42C171.874 92.9533 172.181 93.54 172.381 94.18C172.581 94.8067 172.681 95.4333 172.681 96.06C172.681 96.7 172.567 97.34 172.341 97.98C172.114 98.62 171.781 99.2 171.341 99.72C170.901 100.24 170.361 100.66 169.721 100.98C169.081 101.3 168.347 101.46 167.521 101.46C167.027 101.46 166.554 101.373 166.101 101.2C165.661 101.027 165.247 100.787 164.861 100.48C164.714 100.36 164.641 100.34 164.641 100.42C164.641 100.66 164.554 100.867 164.381 101.04C164.207 101.213 164.001 101.3 163.761 101.3C163.521 101.3 163.314 101.213 163.141 101.04C162.981 100.867 162.901 100.66 162.901 100.42V87.88C162.901 87.7733 162.854 87.72 162.761 87.72C162.627 87.72 162.494 87.7333 162.361 87.76C162.227 87.7733 162.094 87.78 161.961 87.78C161.747 87.78 161.561 87.7067 161.401 87.56C161.241 87.4 161.161 87.2067 161.161 86.98C161.161 86.7267 161.247 86.52 161.421 86.36C161.594 86.2 161.801 86.1333 162.041 86.16C162.241 86.1733 162.447 86.1933 162.661 86.22C162.887 86.2333 163.107 86.2467 163.321 86.26C163.681 86.2733 163.987 86.4067 164.241 86.66C164.507 86.9133 164.641 87.22 164.641 87.58V91.8C164.641 91.88 164.661 91.9333 164.701 91.96C164.741 91.9867 164.787 91.9733 164.841 91.92C165.227 91.5467 165.661 91.2467 166.141 91.02C166.621 90.78 167.147 90.66 167.721 90.66ZM167.541 99.76C168.167 99.76 168.734 99.6 169.241 99.28C169.747 98.9467 170.147 98.5 170.441 97.94C170.734 97.38 170.881 96.7467 170.881 96.04C170.881 95.32 170.734 94.68 170.441 94.12C170.161 93.56 169.774 93.1267 169.281 92.82C168.787 92.5 168.214 92.34 167.561 92.34C167.027 92.34 166.507 92.46 166.001 92.7C165.507 92.94 165.081 93.2733 164.721 93.7C164.667 93.7667 164.641 93.84 164.641 93.92V98.2C164.641 98.2667 164.661 98.34 164.701 98.42C165.341 99.3133 166.287 99.76 167.541 99.76ZM177.23 93.78C177.23 94.0867 177.39 94.3267 177.71 94.5C178.043 94.6733 178.463 94.8133 178.97 94.92C179.49 95.0267 180.036 95.1467 180.61 95.28C181.183 95.4 181.723 95.5733 182.23 95.8C182.75 96.0267 183.17 96.34 183.49 96.74C183.823 97.14 183.99 97.6667 183.99 98.32C183.99 98.9467 183.796 99.5 183.41 99.98C183.036 100.447 182.503 100.807 181.81 101.06C181.13 101.327 180.336 101.46 179.43 101.46C178.91 101.46 178.383 101.393 177.85 101.26C177.316 101.14 176.823 100.967 176.37 100.74C175.916 100.513 175.55 100.24 175.27 99.92C174.99 99.6 174.85 99.2467 174.85 98.86C174.85 98.5 174.976 98.2 175.23 97.96C175.483 97.7067 175.776 97.58 176.11 97.58C176.483 97.58 176.783 97.7133 177.01 97.98C177.25 98.2333 177.37 98.5267 177.37 98.86C177.37 98.9 177.37 98.94 177.37 98.98C177.37 99.02 177.363 99.06 177.35 99.1V99.14C177.35 99.22 177.39 99.28 177.47 99.32C177.736 99.44 178.036 99.5467 178.37 99.64C178.703 99.7333 179.056 99.78 179.43 99.78C180.27 99.78 180.95 99.64 181.47 99.36C181.99 99.08 182.25 98.7133 182.25 98.26C182.25 97.9133 182.083 97.6467 181.75 97.46C181.43 97.2733 181.01 97.12 180.49 97C179.983 96.8667 179.443 96.7333 178.87 96.6C178.296 96.4667 177.75 96.3 177.23 96.1C176.723 95.8867 176.303 95.6 175.97 95.24C175.65 94.8667 175.49 94.38 175.49 93.78C175.49 92.82 175.87 92.0667 176.63 91.52C177.403 90.96 178.423 90.68 179.69 90.68C180.423 90.68 181.07 90.7733 181.63 90.96C182.19 91.1467 182.63 91.4067 182.95 91.74C183.283 92.06 183.45 92.4333 183.45 92.86C183.45 92.9 183.45 92.9467 183.45 93C183.45 93.04 183.443 93.08 183.43 93.12C183.39 93.4133 183.25 93.66 183.01 93.86C182.77 94.06 182.496 94.16 182.19 94.16C181.803 94.16 181.483 94.0133 181.23 93.72C180.99 93.4133 180.896 93.0733 180.95 92.7V92.66C180.95 92.58 180.91 92.52 180.83 92.48C180.656 92.4267 180.476 92.3867 180.29 92.36C180.116 92.3333 179.916 92.32 179.69 92.32C178.983 92.32 178.396 92.4533 177.93 92.72C177.463 92.9867 177.23 93.34 177.23 93.78ZM188.778 89.14C188.418 89.14 188.105 89.0133 187.838 88.76C187.585 88.4933 187.458 88.18 187.458 87.82C187.458 87.4467 187.585 87.1333 187.838 86.88C188.105 86.6267 188.418 86.5 188.778 86.5C189.138 86.5 189.445 86.6267 189.698 86.88C189.965 87.1333 190.098 87.4467 190.098 87.82C190.098 88.18 189.965 88.4933 189.698 88.76C189.445 89.0133 189.138 89.14 188.778 89.14ZM187.058 101.48C186.791 101.493 186.558 101.413 186.358 101.24C186.171 101.067 186.078 100.847 186.078 100.58C186.078 100.313 186.171 100.093 186.358 99.92C186.558 99.7333 186.791 99.6533 187.058 99.68C187.258 99.72 187.478 99.74 187.718 99.74H187.758C187.851 99.74 187.898 99.6867 187.898 99.58V92.54C187.898 92.4333 187.851 92.38 187.758 92.38C187.518 92.38 187.285 92.4 187.058 92.44C186.791 92.4533 186.558 92.3733 186.358 92.2C186.171 92.0267 186.078 91.8067 186.078 91.54C186.078 91.2733 186.178 91.0533 186.378 90.88C186.578 90.6933 186.805 90.6133 187.058 90.64C187.418 90.6667 187.671 90.6933 187.818 90.72C187.978 90.7333 188.085 90.74 188.138 90.74C188.191 90.74 188.258 90.74 188.338 90.74C188.698 90.74 189.005 90.8733 189.258 91.14C189.525 91.3933 189.658 91.7 189.658 92.06V99.58C189.658 99.6867 189.705 99.74 189.798 99.74C190.051 99.74 190.285 99.72 190.498 99.68C190.765 99.6533 190.991 99.7333 191.178 99.92C191.365 100.093 191.458 100.313 191.458 100.58C191.458 100.847 191.365 101.067 191.178 101.24C190.991 101.413 190.765 101.493 190.498 101.48C190.231 101.453 189.945 101.427 189.638 101.4C189.345 101.373 189.058 101.36 188.778 101.36C188.498 101.36 188.205 101.373 187.898 101.4C187.605 101.427 187.325 101.453 187.058 101.48ZM199.287 97.78C199.553 97.78 199.773 97.8733 199.947 98.06C200.12 98.2467 200.193 98.4733 200.167 98.74C200.073 99.6333 199.787 100.313 199.307 100.78C198.84 101.247 198.213 101.48 197.427 101.48C196.92 101.48 196.467 101.36 196.067 101.12C195.667 100.88 195.347 100.553 195.107 100.14C194.88 99.7267 194.767 99.2667 194.767 98.76V92.6C194.767 92.48 194.707 92.42 194.587 92.42H193.507C193.293 92.42 193.1 92.34 192.927 92.18C192.767 92.0067 192.687 91.8133 192.687 91.6C192.687 91.3733 192.767 91.1867 192.927 91.04C193.1 90.88 193.293 90.8 193.507 90.8H194.587C194.707 90.8 194.767 90.74 194.767 90.62V87.32C194.767 87.08 194.853 86.8733 195.027 86.7C195.2 86.5267 195.407 86.44 195.647 86.44C195.887 86.44 196.087 86.5267 196.247 86.7C196.42 86.8733 196.507 87.08 196.507 87.32V90.62C196.507 90.74 196.567 90.8 196.687 90.8H198.987C199.213 90.8 199.4 90.88 199.547 91.04C199.707 91.1867 199.787 91.3733 199.787 91.6C199.787 91.8133 199.707 92.0067 199.547 92.18C199.4 92.34 199.213 92.42 198.987 92.42H196.687C196.567 92.42 196.507 92.48 196.507 92.6V98.76C196.507 98.8 196.52 98.9 196.547 99.06C196.587 99.22 196.667 99.3733 196.787 99.52C196.92 99.6667 197.133 99.74 197.427 99.74C197.747 99.74 197.98 99.6533 198.127 99.48C198.287 99.3067 198.393 98.9933 198.447 98.54C198.473 98.3133 198.567 98.1333 198.727 98C198.887 97.8533 199.073 97.78 199.287 97.78ZM210.698 96.84H203.838C203.705 96.84 203.651 96.9067 203.678 97.04C203.891 97.8533 204.318 98.52 204.958 99.04C205.598 99.5467 206.331 99.8 207.158 99.8C208.145 99.8 208.998 99.4067 209.718 98.62C209.918 98.3933 210.158 98.28 210.438 98.28C210.611 98.28 210.771 98.3333 210.918 98.44C211.171 98.6133 211.298 98.8467 211.298 99.14C211.298 99.3267 211.238 99.4933 211.118 99.64C210.625 100.213 210.031 100.66 209.338 100.98C208.645 101.3 207.918 101.46 207.158 101.46C206.425 101.46 205.738 101.32 205.098 101.04C204.471 100.76 203.911 100.373 203.418 99.88C202.938 99.3733 202.558 98.7933 202.278 98.14C202.011 97.4867 201.878 96.7933 201.878 96.06C201.878 95.0467 202.098 94.1333 202.538 93.32C202.991 92.4933 203.605 91.84 204.378 91.36C205.151 90.88 206.011 90.64 206.958 90.64C208.345 90.64 209.485 91.0733 210.378 91.94C211.271 92.8067 211.798 93.9933 211.958 95.5C211.998 95.86 211.891 96.1733 211.638 96.44C211.398 96.7067 211.085 96.84 210.698 96.84ZM206.958 92.22C206.105 92.22 205.391 92.46 204.818 92.94C204.245 93.42 203.865 94.0933 203.678 94.96V95C203.678 95.1067 203.731 95.16 203.838 95.16H209.978C210.111 95.16 210.165 95.0867 210.138 94.94C209.778 93.1267 208.718 92.22 206.958 92.22Z" fill="white"/>
</svg>
