<svg width="98" height="99" viewBox="0 0 98 99" fill="none" xmlns="http://www.w3.org/2000/svg">
<rect x="4" y="4.27637" width="90" height="90" rx="17" stroke="#FA8C4F" stroke-width="8"/>
<path d="M31.936 34.0364C31.1253 34.0364 30.4 33.7164 29.76 33.0764C29.1627 32.4364 28.8853 31.711 28.928 30.9004L28.992 28.5324C29.0347 27.7217 29.3547 27.0177 29.952 26.4204C30.5493 25.823 31.2533 25.5244 32.064 25.5244C32.8747 25.5244 33.5787 25.8444 34.176 26.4844C34.816 27.1244 35.1147 27.8284 35.072 28.5964L35.008 31.0284C34.9653 31.8817 34.6453 32.607 34.048 33.2044C33.4933 33.759 32.7893 34.0364 31.936 34.0364ZM31.616 68.6604C30.7627 68.6604 30.016 68.3617 29.376 67.7644C28.7787 67.1244 28.48 66.3777 28.48 65.5244L28.8 40.0524C28.8 39.199 29.0987 38.4737 29.696 37.8764C30.336 37.2364 31.0827 36.9164 31.936 36.9164C32.832 36.9164 33.5787 37.2364 34.176 37.8764C34.7733 38.4737 35.072 39.199 35.072 40.0524L34.752 65.5244C34.752 66.3777 34.432 67.1244 33.792 67.7644C33.1947 68.3617 32.4693 68.6604 31.616 68.6604ZM47.1145 68.6604C46.3038 68.6604 45.5785 68.3617 44.9385 67.7644C44.3412 67.167 44.0425 66.4844 44.0425 65.7164V39.7324C44.0425 38.879 44.3625 38.1537 45.0025 37.5564C45.6425 36.959 46.3892 36.6604 47.2425 36.6604C48.0532 36.6604 48.7358 36.959 49.2905 37.5564C49.8878 38.1537 50.1865 38.879 50.1865 39.7324V44.5964C51.3812 42.0364 52.8958 40.095 54.7305 38.7724C56.5652 37.407 58.5705 36.7244 60.7465 36.7244C63.1358 36.7244 65.0345 37.279 66.4425 38.3884C67.8505 39.4977 68.8745 41.3324 69.5145 43.8924C70.1545 46.4097 70.4745 49.9084 70.4745 54.3884L70.4105 65.5884C70.4105 66.399 70.1332 67.1244 69.5785 67.7644C69.0238 68.3617 68.3198 68.6604 67.4665 68.6604C66.6558 68.6604 65.9305 68.3617 65.2905 67.7644C64.6932 67.1244 64.3945 66.4204 64.3945 65.6524V55.0284C64.3945 51.7004 64.2452 49.1404 63.9465 47.3484C63.6478 45.5564 63.1998 44.3404 62.6025 43.7004C62.0052 43.0177 61.1945 42.6764 60.1705 42.6764C58.8905 42.6764 57.6105 43.231 56.3305 44.3404C55.0505 45.407 53.8558 46.943 52.7465 48.9484C51.7652 50.6977 51.0825 52.4044 50.6985 54.0684C50.3145 55.7324 50.1225 57.7377 50.1225 60.0844V65.4604C50.1225 66.399 49.8452 67.167 49.2905 67.7644C48.7785 68.3617 48.0532 68.6604 47.1145 68.6604Z" fill="#FA8C4F"/>
</svg>
