<svg width="1536" height="689" viewBox="0 0 1536 689" fill="none" xmlns="http://www.w3.org/2000/svg">
<path d="M1393.3 643.018C1269.12 735.863 1197.92 643.018 1177.84 584.989C1070.35 547.851 1079 453.459 1096.76 410.905C1150.51 318.058 1239.62 336.629 1277.46 357.52C1272.06 314.966 1291.36 227.072 1411.83 215.931C1532.3 204.79 1573.23 296.396 1578.63 343.592C1647.21 330.594 1675.16 383.051 1680.57 410.905C1789.91 407.191 1807.98 503.75 1803.35 552.494C1787.13 666.231 1652.77 661.587 1606.43 631.412C1526.74 729.828 1431.14 680.156 1393.3 643.018Z" fill="#FFFBF4"/>
<path d="M291.461 406.346C173.685 494.49 106.155 406.346 87.1116 351.256C-14.8433 315.998 -6.64007 226.385 10.2059 185.985C61.1834 97.8401 145.706 115.471 181.596 135.304C176.469 94.9047 194.78 11.4612 309.039 0.88388C423.299 -9.69341 462.118 77.2749 467.246 122.081C532.286 109.741 558.8 159.542 563.927 185.985C667.64 182.46 684.779 274.13 680.384 320.405C665.003 428.383 537.559 423.975 493.613 395.328C418.026 488.76 327.35 441.603 291.461 406.346Z" fill="#FFF7E8"/>
</svg>
