<svg width="171" height="60" viewBox="0 0 171 60" fill="none" xmlns="http://www.w3.org/2000/svg">
<path d="M122.764 36.331L124.219 35.4883L122.54 35.3991C89.1102 33.6235 42.5255 33.8212 4.87394 36.8878C3.14331 35.6577 2.14883 34.4158 1.65045 33.2345C1.14071 32.0264 1.13289 30.842 1.43833 29.7265C2.04413 27.5142 3.88484 25.5786 5.47035 24.4451C42.6171 20.6963 82.8334 21.4543 121.234 22.1781C122.515 22.2023 123.795 22.2264 125.072 22.2503L125.238 21.2758C119.852 19.4918 115.107 17.3814 108.473 14.3953L108.471 14.3942C108.316 14.3255 108.152 14.2535 107.982 14.1784C105.84 13.2348 102.558 11.789 100.232 9.90195C98.9771 8.88353 98.062 7.78382 97.7219 6.62424C97.3928 5.50249 97.5781 4.24215 98.7047 2.81082L98.7048 2.81087L98.7099 2.80408C99.6195 1.60707 100.922 1.00583 102.468 0.806312C104.024 0.605457 105.798 0.817181 107.583 1.22774C109.363 1.63727 111.12 2.23675 112.638 2.78888C113.022 2.9286 113.393 3.06659 113.747 3.19805C114.761 3.5744 115.631 3.89717 116.229 4.05354C120.852 5.55601 124.513 6.78777 127.777 7.88587C135.509 10.4873 141.012 12.3385 151.788 15.2614L151.792 15.2624C152.095 15.342 152.414 15.4247 152.747 15.511C156.36 16.4485 161.588 17.8051 165.458 20.0195C167.571 21.2283 169.207 22.6542 169.981 24.3401C170.739 25.9902 170.709 27.977 169.304 30.4288C167.655 33.2717 164.729 35.4572 161.411 37.287C159.061 38.5826 156.564 39.6754 154.23 40.6972C153.263 41.1202 152.325 41.531 151.436 41.939C150.995 42.1351 150.56 42.3286 150.13 42.5198C137.646 48.0745 129.707 51.6066 116.358 55.8064C115.798 55.9712 115.194 56.1574 114.558 56.3536C112.305 57.0484 109.649 57.8675 107.102 58.2965C105.472 58.5709 103.922 58.6786 102.581 58.4998C101.246 58.3216 100.156 57.8648 99.3895 57.0432C98.308 55.8311 98.0112 54.6491 98.1842 53.5138C98.3616 52.3486 99.0442 51.1679 100.05 50.0152C102.063 47.7074 105.21 45.689 107.432 44.3384C110.346 42.5863 112.778 41.3942 115.184 40.2353C115.34 40.1599 115.496 40.0847 115.653 40.0095C117.901 38.9274 120.156 37.8424 122.764 36.331Z" fill="#FF9894" stroke="#FF9894"/>
</svg>
