<svg width="171" height="60" viewBox="0 0 171 60" fill="none" xmlns="http://www.w3.org/2000/svg">
<path d="M48.423 36.7031L46.9684 35.8603L48.6472 35.7712C82.0773 33.9956 128.662 34.1933 166.314 37.2599C168.044 36.0298 169.039 34.7878 169.537 33.6066C170.047 32.3985 170.055 31.2141 169.749 30.0986C169.143 27.8863 167.303 25.9507 165.717 24.8172C128.57 21.0683 88.3541 21.8264 49.9534 22.5502C48.6721 22.5744 47.3928 22.5985 46.1157 22.6224L45.9491 21.6478C51.3354 19.8639 56.081 17.7535 62.7143 14.7674L62.7169 14.7663C62.872 14.6975 63.0353 14.6256 63.2059 14.5504C65.3477 13.6069 68.6299 12.1611 70.9554 10.274C72.2104 9.2556 73.1255 8.15589 73.4656 6.99631C73.7947 5.87456 73.6094 4.61422 72.4828 3.18289L72.4827 3.18294L72.4776 3.17615C71.568 1.97914 70.2656 1.3779 68.7197 1.17838C67.1635 0.977527 65.3893 1.18925 63.6049 1.59981C61.825 2.00934 60.067 2.60882 58.5499 3.16095C58.166 3.30067 57.7942 3.43866 57.4401 3.57012C56.4263 3.94647 55.5568 4.26924 54.9585 4.42561C50.3356 5.92808 46.6744 7.15985 43.4105 8.25794C35.6781 10.8594 30.1757 12.7106 19.3993 15.6335L19.3954 15.6345C19.0925 15.714 18.7735 15.7968 18.4409 15.8831C14.8279 16.8206 9.59988 18.1771 5.72953 20.3916C3.61698 21.6003 1.98048 23.0262 1.2065 24.7122C0.448986 26.3623 0.478707 28.3491 1.88393 30.8009C3.53232 33.6438 6.45814 35.8293 9.77645 37.6591C12.126 38.9547 14.623 40.0475 16.9577 41.0692C17.9242 41.4922 18.8629 41.9031 19.7518 42.3111C20.1927 42.5071 20.6277 42.7007 21.0573 42.8919C33.5417 48.4466 41.4802 51.9787 54.829 56.1785C55.3893 56.3432 55.9933 56.5295 56.6295 56.7257C58.8823 57.4204 61.5385 58.2396 64.0858 58.6686C65.7155 58.943 67.2659 59.0507 68.6061 58.8719C69.9418 58.6937 71.0312 58.2368 71.798 57.4153C72.8795 56.2032 73.1763 55.0212 73.0033 53.8859C72.8259 52.7207 72.1433 51.54 71.1379 50.3873C69.1249 48.0795 65.9776 46.061 63.7557 44.7104C60.8416 42.9584 58.4092 41.7663 56.0037 40.6074C55.8473 40.532 55.691 40.4568 55.5347 40.3815C53.2863 39.2995 51.0317 38.2145 48.423 36.7031Z" fill="#FF9894" stroke="#FF9894"/>
</svg>
