<svg width="140" height="158" viewBox="0 0 140 158" fill="none" xmlns="http://www.w3.org/2000/svg">
<path d="M105.925 68.894C105.925 80.0168 101.716 86.3678 97.1746 92.9747C97.0756 93.1187 96.9764 93.263 96.877 93.4075C92.3617 99.9707 87.5446 106.973 87.5446 118.671C87.5446 121.103 86.944 122.788 86.0774 124.006C85.1988 125.24 83.9111 126.184 82.2382 126.891C78.7914 128.349 74.2027 128.611 69.826 128.611C66.2781 128.611 60.5351 127.921 55.7685 126.133C50.7754 124.26 48.1152 121.716 48.1152 118.664C48.1152 106.984 43.3865 99.9908 38.9472 93.426C38.8495 93.2815 38.7519 93.1372 38.6545 92.993C34.1933 86.3901 30.0508 80.0318 30.0508 68.894C30.0508 48.0019 48.295 30.9502 68.2931 30.9502C88.2495 30.9502 105.925 47.9537 105.925 68.894Z" stroke="#FFC759" stroke-width="5"/>
<path d="M83.3086 148.299C83.3086 151.366 75.0961 157.558 67.9902 157.558C60.8843 157.558 52.6719 151.366 52.6719 148.299C52.6719 145.233 60.8806 146.447 67.9902 146.447C75.0998 146.447 83.3086 145.233 83.3086 148.299Z" fill="#FEDA93"/>
<path d="M56.1094 120.527V93.0937C56.1094 87.9247 56.1094 85.3385 56.5484 82.901C56.9854 80.4601 57.8349 78.31 59.54 74.0063L64.9637 60.2993C66.4993 56.4085 67.2692 54.4697 68.3617 54.4697C69.4542 54.4697 70.224 56.4118 71.7596 60.296L77.1833 74.0063C78.8864 78.31 79.7359 80.4601 80.1749 82.901C80.614 85.3385 80.614 87.9214 80.614 93.0937V120.527" stroke="#FFC759" stroke-width="3" stroke-linecap="round" stroke-linejoin="round"/>
<path d="M58.1523 84.1962C59.4429 85.2631 61.193 87.4099 62.8082 87.4991C64.8891 87.6048 66.294 84.6487 68.3626 84.6487C70.4312 84.6487 71.8361 87.6048 73.917 87.4958C75.5322 87.4099 77.2843 85.2631 78.5728 84.1962M68.3626 87.4991V120.528M64.2785 64.3789H72.4467" stroke="#FFC759" stroke-width="3" stroke-linecap="round" stroke-linejoin="round"/>
<path d="M90.043 142.744C90.043 144.709 89.2684 146.593 87.8896 147.982C86.5108 149.371 84.6407 150.152 82.6908 150.152H53.2819C51.332 150.152 49.4619 149.371 48.0831 147.982C46.7043 146.593 45.9297 144.709 45.9297 142.744V120.522H90.043V142.744Z" fill="#FFC759"/>
<path d="M45.9281 146.447C45.0076 146.444 44.1218 146.093 43.4459 145.463C42.77 144.833 42.3533 143.971 42.278 143.047C42.2027 142.122 42.4743 141.203 43.0392 140.471C43.6042 139.739 44.4212 139.247 45.3289 139.092L89.4422 131.685C89.9185 131.602 90.4063 131.616 90.8774 131.724C91.3485 131.833 91.7936 132.035 92.1867 132.318C92.5799 132.601 92.9135 132.96 93.168 133.374C93.4226 133.788 93.5931 134.248 93.6697 134.729C93.8292 135.698 93.6004 136.69 93.0338 137.489C92.4672 138.287 91.6091 138.827 90.648 138.988L46.5347 146.396C46.3343 146.43 46.1314 146.447 45.9281 146.447ZM45.9281 131.633C45.0076 131.629 44.1218 131.278 43.4459 130.648C42.77 130.019 42.3533 129.157 42.278 128.232C42.2027 127.308 42.4743 126.389 43.0392 125.656C43.6042 124.924 44.4212 124.432 45.3289 124.277L89.4422 116.87C89.9184 116.788 90.4061 116.802 90.877 116.911C91.3479 117.02 91.7928 117.221 92.1859 117.505C92.5789 117.788 92.9124 118.146 93.1671 118.56C93.4218 118.974 93.5926 119.434 93.6697 119.915C93.8292 120.883 93.6004 121.876 93.0338 122.674C92.4672 123.473 91.6091 124.012 90.648 124.174L46.5347 131.581C46.3343 131.615 46.1314 131.632 45.9281 131.633Z" fill="#FEDA93"/>
<path d="M116.567 65.7575H136.774M104.388 29.0775L121.078 21.1399M110.986 96.8489L127.676 104.78M68.1939 3.41895V16.68M19.8206 25.9712L32.511 33.4061M11.4457 104.78L25.5209 96.8489M19.8206 65.7575H3.01953" stroke="#FFC759" stroke-width="6" stroke-linecap="round" stroke-linejoin="round"/>
</svg>
