<svg width="602" height="151" viewBox="0 0 602 151" fill="none" xmlns="http://www.w3.org/2000/svg">
<path d="M121.44 87.72C122.453 87.72 123.307 88.0667 124 88.76C124.693 89.4 125.04 90.2533 125.04 91.32C125.04 92.3867 124.64 93.2667 123.84 93.96C123.093 94.6533 122.187 94.9733 121.12 94.92C119.627 94.76 118.293 94.6267 117.12 94.52C116 94.4667 114.907 94.44 113.84 94.44C112.827 94.44 111.733 94.4667 110.56 94.52C109.44 94.6267 108.107 94.76 106.56 94.92C105.493 94.9733 104.587 94.6533 103.84 93.96C103.093 93.2667 102.72 92.3867 102.72 91.32C102.72 90.2533 103.093 89.3733 103.84 88.68C104.587 87.9333 105.493 87.6133 106.56 87.72C107.147 87.7733 107.76 87.8267 108.4 87.88C109.093 87.9333 109.76 87.9867 110.4 88.04H110.56C110.933 88.04 111.12 87.8267 111.12 87.4V47C111.12 46.6267 111.013 46.44 110.8 46.44C110.587 46.3867 110.427 46.52 110.32 46.84L93.84 84.92C93.4667 85.7733 92.9067 86.4667 92.16 87C91.4667 87.48 90.6667 87.72 89.76 87.72C88.9067 87.72 88.08 87.4533 87.28 86.92C86.5333 86.3867 86 85.72 85.68 84.92L70.48 46.76C70.4267 46.44 70.2933 46.28 70.08 46.28C69.8133 46.28 69.68 46.4933 69.68 46.92V87.4C69.68 87.8267 69.8667 88.04 70.24 88.04C70.9333 88.04 71.6 88.0133 72.24 87.96C72.9333 87.8533 73.6 87.7733 74.24 87.72C75.3067 87.6133 76.2133 87.9333 76.96 88.68C77.7067 89.3733 78.08 90.2533 78.08 91.32C78.08 92.3867 77.7067 93.2667 76.96 93.96C76.2133 94.6533 75.3067 94.9733 74.24 94.92C72.7467 94.76 71.4133 94.6267 70.24 94.52C69.12 94.4667 68.0267 94.44 66.96 94.44C65.8933 94.44 64.8 94.4667 63.68 94.52C62.56 94.6267 61.2267 94.76 59.68 94.92C58.6133 94.9733 57.68 94.6533 56.88 93.96C56.1333 93.2667 55.76 92.3867 55.76 91.32C55.76 90.2533 56.1067 89.4 56.8 88.76C57.4933 88.0667 58.3467 87.72 59.36 87.72C60.2133 87.72 60.9867 87.8 61.68 87.96C62.2133 87.96 62.48 87.72 62.48 87.24V41.8C62.48 41.32 62.24 41.08 61.76 41.08C61.44 41.1333 61.0933 41.1867 60.72 41.24C60.3467 41.24 59.9467 41.24 59.52 41.24C58.5067 41.24 57.6533 40.8933 56.96 40.2C56.2667 39.5067 55.92 38.6533 55.92 37.64C55.92 36.5733 56.32 35.6933 57.12 35C57.92 34.3067 58.8533 34.0133 59.92 34.12C61.68 34.3333 63.1467 34.4933 64.32 34.6C65.4933 34.7067 66.6933 34.76 67.92 34.76C69.4667 34.76 70.8533 35.1867 72.08 36.04C73.36 36.8933 74.2667 38.04 74.8 39.48L89.44 76.84C89.6 77.16 89.76 77.32 89.92 77.32C90.1867 77.32 90.3467 77.16 90.4 76.84L106.16 39.4C106.747 38.0133 107.68 36.8933 108.96 36.04C110.24 35.1867 111.627 34.76 113.12 34.76C114.4 34.76 115.6 34.7067 116.72 34.6C117.84 34.4933 119.227 34.3333 120.88 34.12C121.947 34.0133 122.88 34.3333 123.68 35.08C124.48 35.7733 124.88 36.6533 124.88 37.72C124.88 38.7333 124.533 39.5867 123.84 40.28C123.147 40.92 122.293 41.24 121.28 41.24C120.907 41.24 120.533 41.2133 120.16 41.16C119.84 41.1067 119.467 41.08 119.04 41.08H118.88C118.507 41.08 118.32 41.2933 118.32 41.72V87.24C118.32 87.72 118.587 87.96 119.12 87.96C119.92 87.8 120.693 87.72 121.44 87.72ZM158.799 34.04C162.799 34.04 166.559 34.84 170.079 36.44C173.599 37.9867 176.693 40.1733 179.359 43C182.026 45.7733 184.106 49 185.599 52.68C187.146 56.36 187.919 60.28 187.919 64.44C187.919 68.6533 187.146 72.6 185.599 76.28C184.106 79.96 182.026 83.2133 179.359 86.04C176.693 88.8133 173.599 91 170.079 92.6C166.559 94.1467 162.799 94.92 158.799 94.92C154.799 94.92 151.039 94.1467 147.519 92.6C143.999 91 140.906 88.8133 138.239 86.04C135.573 83.2133 133.466 79.96 131.919 76.28C130.426 72.6 129.679 68.6533 129.679 64.44C129.679 60.28 130.426 56.36 131.919 52.68C133.466 49 135.573 45.7733 138.239 43C140.906 40.1733 143.999 37.9867 147.519 36.44C151.039 34.84 154.799 34.04 158.799 34.04ZM158.799 87.64C163.013 87.64 166.746 86.6533 169.999 84.68C173.253 82.6533 175.813 79.9067 177.679 76.44C179.599 72.92 180.559 68.92 180.559 64.44C180.559 59.96 179.599 55.9867 177.679 52.52C175.813 49.0533 173.226 46.3333 169.919 44.36C166.666 42.3333 162.959 41.32 158.799 41.32C154.586 41.32 150.826 42.3333 147.519 44.36C144.266 46.3333 141.679 49.08 139.759 52.6C137.893 56.0667 136.959 60.0133 136.959 64.44C136.959 68.8667 137.893 72.84 139.759 76.36C141.679 79.88 144.293 82.6533 147.599 84.68C150.906 86.6533 154.639 87.64 158.799 87.64ZM250.634 34.04C251.701 33.9333 252.608 34.2533 253.354 35C254.101 35.6933 254.474 36.5733 254.474 37.64C254.474 38.6533 254.128 39.5067 253.434 40.2C252.741 40.8933 251.914 41.24 250.954 41.24C250.581 41.24 250.181 41.2133 249.754 41.16C249.381 41.1067 248.954 41.0533 248.474 41H248.314C247.941 41 247.754 41.2133 247.754 41.64V90.2C247.754 91.3733 247.354 92.36 246.554 93.16C245.754 94.0133 244.741 94.44 243.514 94.44C241.701 94.44 240.261 93.6667 239.194 92.12L211.274 49.24C211.114 48.9733 210.954 48.84 210.794 48.84C210.528 48.84 210.394 49.0533 210.394 49.48V87.4C210.394 87.8267 210.581 88.04 210.954 88.04C211.701 88.04 212.394 88.0133 213.034 87.96C213.728 87.8533 214.368 87.7733 214.954 87.72C216.021 87.6133 216.928 87.9333 217.674 88.68C218.474 89.3733 218.874 90.2533 218.874 91.32C218.874 92.3867 218.474 93.2667 217.674 93.96C216.928 94.6533 216.021 94.9733 214.954 94.92C213.461 94.76 212.128 94.6267 210.954 94.52C209.834 94.4667 208.741 94.44 207.674 94.44C206.661 94.44 205.568 94.4667 204.394 94.52C203.274 94.6267 201.941 94.76 200.394 94.92C199.381 94.9733 198.474 94.6533 197.674 93.96C196.928 93.2667 196.554 92.3867 196.554 91.32C196.554 90.2533 196.901 89.4 197.594 88.76C198.288 88.0667 199.114 87.72 200.074 87.72C200.448 87.72 200.821 87.7467 201.194 87.8C201.621 87.8533 202.074 87.9067 202.554 87.96H202.714C203.088 87.96 203.274 87.7467 203.274 87.32V42.04C203.274 41.5067 203.008 41.2933 202.474 41.4L200.874 41.72C199.701 41.88 198.688 41.5867 197.834 40.84C196.981 40.04 196.554 39.0533 196.554 37.88C196.554 36.7067 196.981 35.7467 197.834 35C198.741 34.2533 199.754 33.96 200.874 34.12C201.674 34.28 202.421 34.4133 203.114 34.52C203.861 34.5733 204.528 34.6533 205.114 34.76C208.581 34.92 211.168 36.3333 212.874 39L239.754 80.76C239.914 81.0267 240.074 81.16 240.234 81.16C240.501 81.16 240.634 80.9467 240.634 80.52V41.56C240.634 41.1333 240.448 40.92 240.074 40.92C239.381 40.92 238.688 40.9467 237.994 41C237.301 41.0533 236.661 41.1333 236.074 41.24C235.008 41.2933 234.074 40.9733 233.274 40.28C232.528 39.5867 232.154 38.7067 232.154 37.64C232.154 36.5733 232.528 35.6933 233.274 35C234.074 34.2533 235.008 33.9333 236.074 34.04C237.621 34.2 238.954 34.3333 240.074 34.44C241.194 34.4933 242.288 34.52 243.354 34.52C244.421 34.52 245.514 34.4933 246.634 34.44C247.808 34.3333 249.141 34.2 250.634 34.04ZM332.741 87.72C333.808 87.6133 334.715 87.9333 335.461 88.68C336.261 89.3733 336.661 90.2533 336.661 91.32C336.661 92.3867 336.261 93.2667 335.461 93.96C334.715 94.6533 333.808 94.9733 332.741 94.92C332.528 94.8667 331.675 94.76 330.181 94.6C328.688 94.44 327.248 94.36 325.861 94.36C323.568 94.36 321.808 93.4 320.581 91.48L307.301 71.24C307.141 70.92 306.848 70.76 306.421 70.76H296.821C296.341 70.76 296.101 71 296.101 71.48V87.4C296.101 87.8267 296.288 88.04 296.661 88.04C297.355 88.04 298.021 88.0133 298.661 87.96C299.301 87.8533 299.941 87.7733 300.581 87.72C301.648 87.6133 302.555 87.9333 303.301 88.68C304.048 89.3733 304.421 90.2533 304.421 91.32C304.421 92.3867 304.048 93.2667 303.301 93.96C302.555 94.6533 301.648 94.9733 300.581 94.92C299.088 94.76 297.755 94.6267 296.581 94.52C295.461 94.4667 294.368 94.44 293.301 94.44C292.235 94.44 291.141 94.4667 290.021 94.52C288.901 94.6267 287.568 94.76 286.021 94.92C284.955 94.9733 284.021 94.6533 283.221 93.96C282.475 93.2667 282.101 92.3867 282.101 91.32C282.101 90.2533 282.448 89.4 283.141 88.76C283.835 88.0667 284.688 87.72 285.701 87.72C286.075 87.72 286.448 87.7467 286.821 87.8C287.248 87.8533 287.701 87.9067 288.181 87.96H288.341C288.715 87.96 288.901 87.7467 288.901 87.32V41.96C288.901 41.4267 288.661 41.2133 288.181 41.32L286.261 41.48C285.195 41.64 284.235 41.3733 283.381 40.68C282.528 39.9333 282.101 39 282.101 37.88C282.101 36.7067 282.501 35.7733 283.301 35.08C284.155 34.3333 285.141 34.0133 286.261 34.12C287.328 34.28 288.421 34.44 289.541 34.6C290.715 34.7067 291.835 34.76 292.901 34.76L307.541 34.84C314.528 34.8933 319.968 36.4933 323.861 39.64C327.808 42.7333 329.781 47.1067 329.781 52.76C329.781 57.1867 328.555 60.8933 326.101 63.88C323.701 66.8133 320.288 68.8133 315.861 69.88C315.275 69.9867 315.141 70.28 315.461 70.76L326.501 87.72C326.661 88.04 326.981 88.2 327.461 88.2C329.328 88.0933 331.088 87.9333 332.741 87.72ZM308.421 41.72H296.821C296.341 41.72 296.101 41.96 296.101 42.44V63C296.101 63.48 296.341 63.72 296.821 63.72H308.421C318.075 63.72 322.901 60.0667 322.901 52.76C322.901 45.4 318.075 41.72 308.421 41.72ZM368.108 22.68C367.788 22.4133 367.468 22.4133 367.148 22.68L358.348 28.68C358.081 28.8933 357.734 29 357.308 29C356.828 29 356.401 28.8667 356.028 28.6C355.761 28.3333 355.601 28.0933 355.548 27.88C355.388 27.56 355.307 27.24 355.307 26.92C355.307 26.3333 355.547 25.8533 356.028 25.48L364.988 17.32C365.734 16.5733 366.614 16.2 367.628 16.2C368.641 16.2 369.521 16.5733 370.268 17.32L379.228 25.48C379.708 25.8533 379.948 26.3333 379.948 26.92C379.948 27.24 379.868 27.56 379.708 27.88C379.654 28.0933 379.494 28.3333 379.228 28.6C378.854 28.8667 378.428 29 377.948 29C377.521 29 377.174 28.8933 376.908 28.68L368.108 22.68ZM367.628 94.92C363.574 94.92 359.788 94.1467 356.268 92.6C352.748 91 349.654 88.8133 346.988 86.04C344.321 83.2667 342.241 80.04 340.748 76.36C339.254 72.68 338.508 68.7333 338.508 64.52C338.508 60.3067 339.254 56.36 340.748 52.68C342.294 49 344.401 45.7733 347.068 43C349.734 40.1733 352.828 37.9867 356.348 36.44C359.868 34.84 363.628 34.04 367.628 34.04C371.628 34.04 375.388 34.84 378.908 36.44C382.428 37.9867 385.521 40.1733 388.188 43C390.854 45.7733 392.934 49 394.428 52.68C395.974 56.36 396.748 60.3067 396.748 64.52C396.748 68.7333 396.001 72.68 394.508 76.36C393.014 80.04 390.934 83.2667 388.268 86.04C385.601 88.8133 382.508 91 378.988 92.6C375.468 94.1467 371.681 94.92 367.628 94.92ZM367.628 87.64C371.841 87.64 375.574 86.6533 378.828 84.68C382.081 82.6533 384.641 79.9067 386.508 76.44C388.428 72.9733 389.388 69 389.388 64.52C389.388 60.04 388.428 56.0667 386.508 52.6C384.641 49.1333 382.081 46.4133 378.828 44.44C375.574 42.4133 371.841 41.4 367.628 41.4C363.468 41.4 359.734 42.4133 356.428 44.44C353.121 46.4133 350.508 49.1333 348.588 52.6C346.721 56.0667 345.788 60.04 345.788 64.52C345.788 68.9467 346.721 72.92 348.588 76.44C350.508 79.9067 353.121 82.6533 356.428 84.68C359.734 86.6533 363.468 87.64 367.628 87.64ZM443.783 77.08C444.849 77.08 445.756 77.48 446.503 78.28C447.303 79.0267 447.676 79.9333 447.623 81C447.569 82.1733 447.489 83.4533 447.383 84.84C447.276 86.1733 447.169 87.5333 447.063 88.92C447.009 90.4133 446.449 91.6667 445.383 92.68C444.316 93.6933 443.063 94.2 441.623 94.2H417.303C415.916 94.2533 414.529 94.36 413.143 94.52C411.756 94.7333 410.449 94.84 409.223 94.84C408.156 94.84 407.249 94.4667 406.503 93.72C405.756 92.9733 405.383 92.0667 405.383 91C405.383 89.9333 405.756 89.0267 406.503 88.28C407.303 87.48 408.209 87.08 409.223 87.08C409.543 87.08 409.836 87.1067 410.103 87.16C410.423 87.2133 410.849 87.24 411.383 87.24H411.543C411.969 87.24 412.183 87.0267 412.183 86.6V41.64C412.183 41.2133 411.996 41 411.622 41C411.089 41 410.609 41.0533 410.183 41.16C409.809 41.2133 409.409 41.24 408.983 41.24C407.969 41.24 407.116 40.8933 406.423 40.2C405.729 39.5067 405.383 38.6533 405.383 37.64C405.383 36.5733 405.756 35.6933 406.503 35C407.303 34.2533 408.236 33.9333 409.303 34.04C410.849 34.2 412.183 34.3333 413.303 34.44C414.476 34.4933 415.569 34.52 416.583 34.52C417.649 34.52 418.743 34.4933 419.863 34.44C421.036 34.3333 422.369 34.2 423.863 34.04C424.929 33.9333 425.836 34.2533 426.583 35C427.329 35.6933 427.703 36.5733 427.703 37.64C427.703 38.7067 427.329 39.5867 426.583 40.28C425.836 40.9733 424.929 41.2933 423.863 41.24C423.276 41.1333 422.663 41.08 422.023 41.08C421.383 41.0267 420.743 40.9733 420.103 40.92H419.943C419.569 40.92 419.383 41.1333 419.383 41.56V86.36C419.383 86.84 419.623 87.08 420.103 87.08H439.783C440.316 87.08 440.529 86.84 440.423 86.36C440.369 85.3467 440.289 84.36 440.183 83.4C440.076 82.44 440.023 81.56 440.023 80.76C440.023 79.7467 440.369 78.8933 441.062 78.2C441.809 77.4533 442.716 77.08 443.783 77.08ZM496.962 78.28C498.082 78.28 499.015 78.68 499.762 79.48C500.509 80.2267 500.829 81.1333 500.722 82.2L500.242 88.92C500.189 90.4133 499.629 91.6667 498.562 92.68C497.495 93.6933 496.242 94.2 494.802 94.2H466.482C465.522 94.2 464.509 94.28 463.442 94.44C462.429 94.6 461.442 94.7333 460.482 94.84C459.362 95 458.375 94.7067 457.522 93.96C456.669 93.2133 456.242 92.2533 456.242 91.08C456.242 89.9067 456.669 88.9733 457.522 88.28C458.375 87.5333 459.362 87.24 460.482 87.4C460.642 87.4533 460.829 87.48 461.042 87.48C461.255 87.48 461.495 87.5067 461.762 87.56H461.922C462.349 87.56 462.562 87.3467 462.562 86.92V41.96C462.562 41.48 462.349 41.24 461.922 41.24C461.709 41.24 461.469 41.2933 461.202 41.4C460.989 41.4533 460.749 41.5067 460.482 41.56C459.362 41.72 458.375 41.4533 457.522 40.76C456.669 40.0133 456.242 39.0533 456.242 37.88C456.242 36.7067 456.669 35.7467 457.522 35C458.375 34.2533 459.362 33.96 460.482 34.12C461.549 34.2267 462.642 34.36 463.762 34.52C464.882 34.68 465.949 34.76 466.962 34.76H494.802C496.242 34.76 497.495 35.2667 498.562 36.28C499.629 37.2933 500.189 38.5467 500.242 40.04L500.722 46.76C500.829 47.7733 500.509 48.68 499.762 49.48C499.015 50.28 498.082 50.68 496.962 50.68C495.895 50.68 494.989 50.3333 494.242 49.64C493.549 48.8933 493.202 48.0133 493.202 47C493.202 46.36 493.229 45.6667 493.282 44.92C493.389 44.12 493.469 43.3467 493.522 42.6C493.522 42.12 493.282 41.88 492.802 41.88H470.482C470.002 41.88 469.762 42.12 469.762 42.6V59.08C469.762 59.56 470.002 59.8 470.482 59.8H490.082C491.042 59.8 491.869 60.1467 492.562 60.84C493.255 61.5333 493.602 62.36 493.602 63.32C493.602 64.28 493.255 65.1067 492.562 65.8C491.869 66.44 491.042 66.76 490.082 66.76H470.482C470.002 66.76 469.762 67 469.762 67.48V86.36C469.762 86.84 470.002 87.08 470.482 87.08H492.802C493.282 87.08 493.522 86.84 493.522 86.36C493.469 85.56 493.389 84.8133 493.282 84.12C493.229 83.3733 493.202 82.6533 493.202 81.96C493.202 80.9467 493.549 80.0933 494.242 79.4C494.989 78.6533 495.895 78.28 496.962 78.28Z" fill="#AC5014"/>
<path d="M507.549 118.37C507.876 118.699 508.448 118.438 508.819 117.789L508.863 117.861C509.339 118.621 509.732 117.546 509.91 117.735C510.542 118.43 510.968 118.358 511.66 117.772C511.84 117.615 512.682 118.493 513.276 118.627L513.716 118.73C514.276 118.49 515.098 118.367 515.545 118.458C515.99 118.547 517.819 118.982 518.626 119.196L519.262 118.516C519.338 118.433 519.556 118.421 519.673 118.467C520.436 118.787 521.185 119.379 521.945 119.388L522.556 119.396C523.141 118.873 523.55 119.262 523.468 120.268L524.639 119.096L525.62 118.115C526.58 118.573 527.889 118.73 528.534 118.464C529.179 118.195 531.115 119.468 531.802 119.402C532.493 119.339 534.805 120.248 535.498 120.431L535.452 119.351C535.449 119.288 535.876 119.093 535.952 119.156L536.85 119.9C537.935 119.674 539.151 119.814 539.549 120.217C539.947 120.617 541.354 119.765 541.705 119.965C542.056 120.166 543.392 120.469 543.854 120.174C544.315 119.877 546.887 119.974 548.34 120.037L549.599 120.709C550.008 120.932 550.792 120.26 551.426 120.183L551.884 120.123C552.424 120.308 553.053 120.314 553.286 120.137L553.313 120.166L554.469 121.349C555.847 120.72 557.136 120.852 557.339 121.641C557.541 122.427 558.641 124.3 558.917 124.246C559.193 124.189 559.946 124.223 559.995 124.438C560.044 124.655 559.713 125.479 559.259 125.79C558.808 126.099 558.759 128.598 558.035 129.905L558.279 131.529L558.337 131.904C558.31 132.487 558.135 132.819 557.948 132.642C557.761 132.467 557.261 132.456 557.088 132.856L557.099 132.862C558.357 133.517 556.867 134.612 557.465 135.358C557.534 135.447 557.532 135.704 557.461 135.787L556.505 136.877C556.467 137.703 555.438 138.612 554.22 138.898L553.14 137.843L552.962 137.666C552.257 138.043 551.121 138.369 550.434 138.398C549.747 138.424 547.442 138.195 546.804 138.364L546.215 138.375L545.637 138.387C545.017 138.244 544.288 138.121 544.017 138.109C543.746 138.101 542.732 138.026 542.405 138.146C542.076 138.266 539.889 138.369 538.288 138.361C536.688 138.349 531.722 138.312 530.801 138.172C529.883 138.032 527.425 139.019 527.209 139.019L527.009 139.036L525.8 139.153C524.499 138.867 522.943 138.804 522.341 139.007C521.738 139.207 519.784 138.584 519.28 138.675C518.78 138.761 516.999 138.933 516.401 138.764C515.803 138.592 512.876 138.981 511.462 139.033H510.159C508.854 139.033 507.552 139.036 506.249 139.033C505.447 139.033 504.188 139.356 503.935 138.964C503.344 138.052 502.554 139.333 502.114 138.527C502.03 138.369 501.556 138.367 501.285 138.418C500.678 138.53 499.794 139.056 499.54 138.815L498.671 137.989C498.029 138.575 497.142 138.878 496.704 138.658C496.264 138.438 495.301 138.306 494.781 138.109C494.261 137.918 492.671 138.687 492.22 138.375C491.771 138.063 490.191 139.116 489.693 139.236C489.195 139.353 487.318 138.358 486.385 138.146L485.393 138.924L484.687 139.479C483.299 139.219 481.928 138.87 481.639 138.707C481.35 138.544 480.027 138.321 479.318 138.172C478.607 138.021 475.875 139.399 474.628 139.996L473.75 138.432C473.672 138.292 473.054 138.269 472.9 138.427C471.942 139.399 470.844 137.76 469.862 138.664C469.551 138.95 468.957 139.059 468.519 139.004C467.688 138.898 466.879 138.461 466.058 138.447L465.343 138.441C464.564 138.721 463.56 138.898 463.113 138.827C462.664 138.758 461.057 138.718 460.679 138.489C460.299 138.264 458.825 139.119 458.334 139.356C457.845 139.596 456.535 138.601 456.062 138.844C455.586 139.09 453.463 138.904 452.605 138.73L451.827 138.727C451.069 138.727 450.307 139.027 449.551 139.01L448.144 138.978C446.608 138.747 444.116 138.587 442.606 138.627L441.341 139.079L440.234 139.476C439.101 139.179 437.111 138.978 435.811 139.033H423.778C422.575 139.033 421.371 138.987 420.17 139.047L419.421 139.087C418.605 139.316 417.816 139.53 417.669 139.565C417.523 139.599 416.402 139.41 415.493 139.216C414.584 139.024 409.485 139.505 409.12 139.35C408.753 139.196 407.74 139.244 407.366 139.176C406.993 139.113 405.134 139.613 404.169 139.662H388.531C387.542 139.676 384.603 139.773 382 139.879C379.397 139.985 371.732 140.68 370.745 141.12L370.452 140.84L369.705 140.131C369.2 140.583 368.178 140.566 367.438 140.099L366.513 140.849C366.013 141.255 364.961 140.923 364.161 140.923H362.858C361.429 140.897 359.76 141.029 359.151 141.212C358.544 141.395 356.376 140.694 355.729 140.211L355.269 140.96L354.602 142.052C354.076 141.441 353.046 141.049 352.317 141.18C351.59 141.306 349.201 141.501 348.634 141.449C348.067 141.403 345.826 141.852 344.79 141.664L343.843 141.572L342.85 141.478C341.745 141.526 340.365 141.718 339.784 141.904C339.206 142.093 337.506 142.221 336.599 142.679L335.545 142.253C334.672 141.901 333.565 142.178 332.564 142.178H331.562C330.461 142.195 329.092 142.459 328.521 142.762H327.483C326.918 142.467 324.506 142.293 322.123 142.376C319.738 142.459 313.138 143.296 312.747 143.937L312.031 143.016C311.869 142.805 310.906 143.339 310.297 143.422L309.706 143.502C309.05 143.488 308.043 143.105 307.469 142.65C306.896 142.193 304.831 143.408 304.171 143.416C303.513 143.425 301.232 143.428 300.572 143.416C299.909 143.402 297.546 143.617 296.786 143.811L296.097 143.814C295.45 143.82 294.792 143.431 294.154 143.468L292.911 143.548C291.553 143.488 289.47 143.465 288.283 143.497C287.098 143.531 283.571 144.174 282.837 143.991L282.172 143.948L281.21 143.888C280.156 144.043 278.856 144.043 278.322 143.888C277.789 143.731 275.968 144.678 275.252 144.78C274.534 144.881 271.898 144.763 271.071 144.78C270.244 144.798 266.67 144.801 264.951 144.952C263.233 145.106 257.253 145.33 255.488 145.355C253.723 145.378 248.777 145.47 248.413 145.701C248.048 145.936 246.419 145.344 245.943 145.261C245.467 145.181 243.72 146.01 242.882 146.073C242.046 146.139 238.656 146.05 237.276 146.076C235.895 146.104 231.192 146.062 229.86 146.247C228.531 146.433 222.838 146.585 220.19 146.585H215.28C212.521 146.579 209.671 146.593 208.942 146.619L208.398 147.203C207.884 147.752 207.433 145.987 206.719 147.088L206.575 147.311C205.93 147.174 204.999 147.248 204.505 147.474C204.01 147.7 202.131 146.868 201.011 147.188L199.982 147.194L192.161 147.237C183.561 147.24 175.627 147.017 174.531 146.736L173.693 147.7L173.566 147.849C173.208 147.783 172.402 147.637 171.775 147.523C171.148 147.411 169.318 147.448 169.096 147.666C168.876 147.883 167.913 147.383 167.649 147.514C167.387 147.646 166.126 147.752 165.502 147.68L164.932 147.597L162.207 147.8L161.609 147.817C160.956 147.823 160.311 147.617 160.18 147.357C160.049 147.097 158.819 147.626 158.246 147.649L157.71 147.577C157.448 147.54 157.112 147.16 156.97 147.245L154.918 148.429C152.535 148.095 148.601 147.832 146.178 147.846H138.457C137.037 147.892 135.321 147.817 134.638 147.68C133.958 147.543 131.522 148.832 130.461 149.273L129.757 147.972C129.672 147.814 129.117 147.74 128.941 147.869L127.936 148.607C126.811 148.292 124.949 148.175 123.797 148.343L122.752 148.449C121.559 148.567 120.347 148.475 119.144 148.475H104.208C102.997 148.489 101.259 148.358 100.343 148.186C99.4292 148.012 96.8261 148.918 96.4971 148.77C96.1681 148.621 94.1231 148.435 92.7048 148.346C91.2866 148.258 87.1764 149.013 86.674 148.984C86.1716 148.953 84.6155 148.93 84.251 148.652C83.8864 148.378 82.2415 149.09 81.768 149.17C81.2945 149.25 79.7384 148.632 79.1271 148.821C78.518 149.015 76.4107 149.156 75.8394 149.253C75.2659 149.35 73.383 148.718 72.954 148.835C72.525 148.95 70.4554 149.07 69.3528 149.061C68.2503 149.053 63.7577 148.927 61.8193 148.689L60.1655 149.707L59.8653 149.89C59.3963 149.788 58.2137 149.73 57.2445 149.765L55.6084 148.712C54.8704 149.224 53.73 149.527 53.072 149.393L52.3296 149.665L51.5271 149.965C50.4935 149.83 49.2842 149.799 48.8418 149.896C48.3994 149.996 45.1739 149.09 42.4264 148.87L40.1301 150.277L39.3121 150.78C38.3984 150.542 37.158 150.359 36.5512 150.368C35.9465 150.379 33.8637 150.399 33.2701 150.457C32.6766 150.511 31.2761 150.156 31.0294 150.268C30.7804 150.377 29.4 150.399 28.6309 150.382C27.8595 150.368 25.3053 150.305 24.6673 150.234C24.0316 150.159 22.1377 150.359 21.5997 150.165C21.0595 149.973 19.8302 150.851 19.6724 150.683C19.519 150.511 18.7944 150.091 18.5898 150.322C18.3853 150.554 17.1471 150.969 16.4936 150.991H15.8912C14.7886 150.991 13.6861 150.986 12.5835 150.994L11.9722 151C11.6965 150.494 11.3831 150.079 11.2719 150.076C11.1608 150.076 10.8429 150.297 10.8096 150.574C10.774 150.848 9.21351 150.843 8.1665 150.663L7.21062 150.654L6.4704 150.645C5.59679 150.617 5.01882 150.548 5.18109 150.485C5.34115 150.428 5.66345 149.925 5.41225 149.547C5.16329 149.17 5.01435 147.752 5.1255 147.297C5.23887 146.842 5.32557 145.455 4.96767 145.455C4.60978 145.455 3.80508 145.601 3.87622 145.784C3.94735 145.961 3.97848 146.459 3.80065 146.525C3.62059 146.588 3.06708 146.25 2.74253 145.921C2.42243 145.595 0.846374 144.901 0.535163 144.529C0.226174 144.16 -0.340684 142.63 0.275069 142.461C0.890823 142.287 1.59548 144.277 2.00672 144.666H2.51802C2.69363 144.669 2.92481 144.346 3.02929 144.12L3.08708 143.991C2.97371 143.762 2.75142 143.631 2.59804 143.697C2.44021 143.765 1.93783 143.754 1.93783 143.471C1.93783 143.188 2.44463 142.25 3.06483 142.055C3.68281 141.867 5.45672 141.006 5.45672 140.628C5.45672 140.251 5.67459 139.061 5.93912 139.485C6.20365 139.908 7.26176 140.603 7.69079 140.079L7.83528 139.599C8.02423 138.956 8.15314 139.099 8.55549 139.399L8.8378 139.61C9.28461 139.636 10.4761 139.665 11.4853 139.679C12.4946 139.69 14.9131 138.652 14.6908 138.538C14.4685 138.427 15.2265 137.706 16.8648 137.186L18.6343 138.021C18.97 138.181 19.3256 138.335 19.6857 138.384L19.9436 138.418C20.3837 138.261 20.5282 137.823 20.2659 137.443C20.0059 137.06 19.5702 135.973 19.8792 135.864L20.137 135.907C20.4393 135.953 20.8306 136.359 20.9884 136.262L21.9932 135.644C22.6134 136.379 23.3158 137.011 23.5559 137.048C23.7982 137.085 24.7852 137.02 24.5517 136.745C24.3139 136.468 24.5562 135.813 25.0475 135.33C25.541 134.844 27.3793 134.749 27.7194 134.792C28.064 134.841 29.4511 134.741 29.9513 134.818C30.4559 134.892 31.9497 134.752 32.6455 134.995C33.3413 135.238 34.7395 133.625 35.1174 133.68C35.4953 133.728 36.1977 134.652 36.2666 134.763C36.3355 134.875 36.6112 135.009 36.7268 134.815L36.729 134.635L36.7468 132.913C37.9072 133.174 39.4721 133.723 40.219 134.137L41.1571 133.557L42.0041 133.031C43.1755 132.868 44.5271 132.539 45.0094 132.299C45.4918 132.056 46.6544 133.085 46.8789 132.985L47.0768 132.542C47.3369 132.444 48.0438 132.524 48.6484 132.722L49.2019 132.716L50.0155 132.705C50.8758 132.47 51.865 132.21 52.2162 132.127C52.5674 132.041 54.1191 131.95 54.7904 131.855C55.4595 131.764 57.8091 131.587 58.516 131.718C59.2229 131.85 61.5237 130.94 62.2194 130.857C62.9152 130.777 64.9359 131.215 65.2582 130.949C65.5805 130.686 66.8654 131.215 67.1788 130.946C67.4945 130.677 68.5837 131.201 68.7793 130.997C68.975 130.794 69.6952 130.426 69.9286 130.654C70.1598 130.883 71.0667 131.338 71.4713 131.195C71.8759 131.058 73.4542 130.932 74.0855 130.997C74.7146 131.066 76.6041 130.814 77.0753 130.866C77.5444 130.92 79.0337 130.692 79.3805 130.523C79.7251 130.354 81.1389 130.134 81.7902 129.977C82.4393 129.816 84.3577 130.935 84.7712 131.1C85.1802 131.269 85.6692 129.928 85.8893 129.808L86.0115 129.874L86.9496 130.406C87.901 130.014 88.7635 129.639 88.8658 129.573L88.9347 129.599C89.4571 129.794 90.0484 130.28 90.473 130.151L90.982 129.997C91.4288 130.111 92.0068 130.04 92.2736 129.839C92.5359 129.633 93.8118 129.816 94.3787 130.074L94.9144 130.2L95.279 130.283C95.7035 130.185 96.5283 130.057 97.1107 129.997C97.6931 129.942 99.7804 129.985 100.536 130.497L101.428 129.656C101.934 129.179 102.977 129.968 103.648 129.193C103.711 129.122 104.188 129.493 104.493 129.582L105.825 129.982C107.298 129.765 108.777 129.356 109.11 129.07C109.444 128.787 110.655 129.29 110.924 128.959C111.191 128.63 112.249 129.476 112.422 129.551C112.598 129.628 113.396 129.691 113.996 129.845C114.596 129.997 116.824 129.31 117.893 129.182L118.675 130.02L118.791 130.145C119.118 130.225 119.609 130.017 119.885 129.679C120.16 129.345 120.878 129.076 121.332 128.996C121.787 128.916 123.982 129.13 125.164 129.405L126.107 128.372C126.347 128.109 127.145 128.498 127.558 128.298L128.487 127.846C129.288 128.33 130.212 128.761 130.541 128.807C130.873 128.856 132.093 128.538 132.538 128.727L132.938 128.967C133.458 129.273 133.702 127.766 134.365 128.75C134.427 128.844 135.107 128.367 135.505 128.358L136.065 128.35C136.67 128.53 137.344 128.741 137.559 128.821C137.773 128.907 139.095 128.698 139.896 128.767C140.698 128.836 142.79 127.843 143.005 127.961C143.219 128.078 144.297 128.727 144.862 129.225L145.42 128.255L146.267 126.78C147.505 127.397 149.092 128.052 149.792 128.232C150.49 128.412 152.837 127.689 153.38 127.429C153.922 127.169 155.412 127.154 155.945 126.997L156.294 127.263L156.683 127.557C157.017 128.021 157.643 128.021 158.079 127.563L158.439 127.2L158.502 127.134C158.715 127.046 159.104 127.157 159.364 127.386C159.624 127.612 160.582 128.041 160.858 127.786C161.136 127.529 163.41 127.537 163.859 127.683C164.31 127.826 165.366 127.738 165.804 127.863C166.242 127.989 167.218 127.686 167.582 127.718C167.947 127.746 169.256 127.54 169.714 127.254C170.174 126.968 172.144 127.841 173.068 128.004L173.669 127.086C173.731 126.988 174.055 127.046 174.249 127.077L175.471 127.277C176.812 127.48 178.419 127.334 179.044 126.954C179.668 126.574 181.996 127.615 182.787 127.592L183.423 127.409L184.014 127.24C184.672 127.214 185.741 127.046 186.393 126.868C187.044 126.688 188.769 127.689 188.991 127.76L189.147 127.692L190.91 126.86C192.948 126.977 195.033 127.06 195.547 127.046C196.056 127.031 197.959 127.229 198.766 127.835L199.459 126.531L199.766 125.953C200.622 126.233 201.518 126.728 201.758 127.051C201.998 127.374 203.289 126.534 203.638 126.439C203.987 126.345 205.092 127.008 205.432 127.066L205.588 126.917L206.424 126.131C207.239 126.597 208.38 127.066 208.956 127.174C209.531 127.283 211.167 126.8 211.57 126.565C211.968 126.334 213.348 126.811 213.559 126.74C213.77 126.662 214.526 126.225 214.755 125.959C214.986 125.696 215.878 126.119 216.096 125.807L216.769 126.162L217.514 126.551C218.628 126.322 220.119 125.979 220.83 125.793C221.54 125.602 223.418 126.108 223.734 126.028C224.052 125.942 225.347 126.145 225.934 126.351L226.483 126.408L226.681 126.425C226.99 126.045 227.301 126.033 227.375 126.408C227.448 126.78 228.033 127.703 228.471 127.409C228.909 127.117 230.291 126.294 230.651 126.099C231.009 125.907 233.519 125.873 233.961 125.979C234.402 126.082 235.838 125.307 236.389 125.241C236.942 125.175 238.816 125.281 239.296 125.484C239.777 125.693 242.193 125.407 243.438 125.381L244.209 124.867L244.903 124.406C245.336 124.778 245.867 125.25 246.081 125.456C246.292 125.659 248.168 125.27 249.128 124.95C250.089 124.626 253.048 124.709 253.443 124.867C253.841 125.03 255.337 125.041 255.895 124.918C256.455 124.798 258.416 124.621 258.996 124.678C259.576 124.735 261.132 124.238 261.452 124.069C261.773 123.9 262.668 124.532 262.775 124.578L262.853 124.549C263.375 124.352 263.882 124.014 264.413 123.96C264.885 123.914 265.409 124.352 265.861 124.269L266.547 124.14C267.317 124.066 268.352 123.897 268.846 123.766C269.342 123.634 270.489 124.286 270.598 124.012L270.755 123.811L270.869 123.671C271.078 123.591 271.871 123.671 272.629 123.849C273.387 124.026 276.768 123.537 277.34 123.697L277.8 123.94L278.378 124.249C278.854 123.909 279.681 123.809 280.214 124.029L280.603 123.883L281.285 123.626C281.959 123.119 282.83 122.839 283.224 123.005C283.615 123.174 285.082 123.111 285.574 122.919C286.063 122.725 287.061 122.779 287.467 122.693C287.877 122.608 289.012 122.839 289.37 122.968C289.726 123.094 290.766 122.831 290.906 123.025C291.044 123.222 291.927 123.577 292.545 123.362C293.165 123.148 296.802 123.251 298.055 123.197C299.309 123.145 301.648 122.347 302.13 122.199L302.752 122.379L303.953 122.722C305.384 122.685 306.992 122.653 307.529 122.662L308.067 122.407L308.761 122.079C309.677 122.056 310.797 122.147 311.248 122.282C311.702 122.419 313.274 122.141 313.663 122.23L314.025 122.322L314.369 122.405C314.73 122.479 315.968 122.402 317.124 122.242L318.153 122.044L319.027 121.878C320.005 121.73 320.874 121.604 320.96 121.598C321.045 121.592 321.643 121.764 322.176 121.878C322.71 121.993 324.433 122.119 324.877 122.279C325.322 122.442 326.436 122.988 326.591 122.708C326.745 122.422 327.514 122.081 327.838 122.067C328.163 122.05 329.345 121.375 330.023 121.329C330.699 121.289 333.373 121.229 334.436 121.169C335.501 121.109 338.724 121.452 339.209 121.561C339.691 121.67 341.107 120.96 341.432 121.089C341.758 121.218 342.367 121.195 342.581 121.275C342.792 121.352 344.346 121.021 345.617 120.66L346.8 120.812L347.662 120.92C348.378 120.529 349.514 120.426 350.188 120.692L350.817 120.743L351.457 120.8C352.171 120.532 353.126 120.632 353.584 121.023C354.044 121.412 356.081 120.017 357.152 119.782L358.048 120.514C358.126 120.574 358.457 120.437 358.557 120.3L358.717 120.085C358.81 119.782 359.179 119.419 359.535 119.276C359.891 119.139 361.138 119.742 361.605 119.9C362.069 120.057 363.805 119.974 364.257 120.117C364.706 120.263 365.688 120.031 366.028 119.977C366.368 119.92 367.916 120.151 368.549 120.286C369.183 120.42 371.406 119.834 372.124 120.008L372.406 119.739C373.311 118.884 373.622 120.354 374.184 120.114L374.769 119.865C375.325 119.365 376.185 118.862 376.683 118.744C377.181 118.63 379.033 118.884 379.515 118.999C379.997 119.11 381.716 119.059 382.178 118.873C382.64 118.681 384.303 119.053 384.75 119.268C385.194 119.488 386.899 119.262 387.795 119.047L388.727 119.459C389.376 119.745 390.321 119.705 390.827 118.81L392.744 118.45C394.733 119.279 396.814 119.11 398.763 118.567C399.519 118.355 400.213 119.717 400.964 118.424C401.193 118.032 402.458 118.227 403.238 118.29L403.676 118.321C404.145 118.578 404.701 118.704 404.916 118.604C405.13 118.501 405.703 118.207 406.143 117.881C406.584 117.555 407.802 118.699 408.215 118.636C408.631 118.573 409.645 118.047 409.845 117.987C410.047 117.929 410.961 118.49 411.405 118.827L411.821 118.83C412.239 118.836 412.646 118.415 413.083 118.272L413.808 118.035C414.566 118.338 415.364 118.65 415.586 118.721C415.807 118.793 416.365 118.547 416.634 118.373C416.898 118.195 417.845 118.616 418.083 118.55L418.261 118.418C418.501 118.232 418.712 117.778 418.901 117.798C419.414 117.849 419.919 118.255 420.408 118.218C421.037 118.175 421.637 117.746 422.271 117.658L422.833 117.583C423.442 117.723 424.334 117.646 424.812 117.406L425.303 117.846L425.625 118.135C426.165 118.181 427.237 118.29 428.008 118.375C428.78 118.464 431.123 117.875 431.632 118.152C432.136 118.427 434.964 118.029 436.758 118.478L438.438 117.666C438.934 117.429 439.725 117.42 440.203 117.678L441.021 118.115C441.797 117.844 442.811 117.36 443.273 117.043L443.689 117.049C444.105 117.057 444.522 117.429 444.925 117.672L445.158 117.815C445.372 118.001 446.743 118.272 448.199 118.413C449.655 118.55 453.334 117.134 453.428 117.189C453.521 117.243 453.701 117.492 453.823 117.606C453.948 117.721 455.079 117.578 455.744 117.458C456.411 117.337 458.665 117.112 459.269 117.192C459.876 117.272 461.881 118.047 462.384 118.313C462.886 118.584 464.5 117.924 464.891 118.261C465.282 118.596 467.081 117.42 467.89 117L468.804 117.926L469.202 118.327C470.402 117.952 472.289 117.615 473.394 117.583L474.392 117.643L475.43 117.709C476.548 118.007 478.053 117.804 478.778 117.252L479.738 118.118C480.483 118.787 481.348 116.877 482.348 117.804C483.182 118.576 483.915 118.418 484.633 117.638C484.682 117.586 484.842 117.595 484.924 117.635L485.607 117.952C486.36 118.058 487.216 118.23 487.507 118.333C487.801 118.438 489.148 117.835 489.793 117.658L490.348 117.689L491.493 117.749C492.751 117.721 494.854 117.652 496.168 117.595L497.371 117.643L498.122 117.672C498.94 117.918 499.949 118.184 500.365 118.264C500.776 118.344 501.796 117.961 502.123 117.844C502.448 117.726 503.49 118.284 503.777 118.335L503.819 118.25L504.437 117.063C505.149 117.703 507.225 118.038 507.549 118.37Z" fill="#AD5015"/>
</svg>
