<svg width="633" height="157" viewBox="0 0 633 157" fill="none" xmlns="http://www.w3.org/2000/svg">
<path d="M64.28 59.256C64.088 61.752 64.6 63.8 65.816 65.4C67.096 67 68.824 68.344 71 69.432C73.24 70.456 75.672 71.384 78.296 72.216C80.984 73.048 83.672 73.944 86.36 74.904C89.112 75.864 91.608 77.08 93.848 78.552C96.152 80.024 97.976 81.912 99.32 84.216C100.728 86.52 101.432 89.4 101.432 92.856C101.432 96.888 100.344 100.408 98.168 103.416C96.056 106.36 93.208 108.664 89.624 110.328C86.04 111.928 82.136 112.728 77.912 112.728C72.28 112.728 67.576 111.704 63.8 109.656C60.024 107.608 57.112 105.368 55.064 102.936C54.296 102.04 53.72 101.112 53.336 100.152C52.952 99.128 52.76 98.168 52.76 97.272C52.76 95.672 53.272 94.296 54.296 93.144C55.384 91.992 56.92 91.416 58.904 91.416C60.504 91.416 61.816 92.024 62.84 93.24C63.928 94.456 64.472 95.8 64.472 97.272C64.472 98.296 64.248 99.224 63.8 100.056C63.608 100.568 63.672 100.984 63.992 101.304C65.72 102.776 67.672 103.864 69.848 104.568C72.088 105.208 74.36 105.528 76.664 105.528C79.608 105.528 82.392 105.016 85.016 103.992C87.64 102.968 89.784 101.496 91.448 99.576C93.112 97.656 93.944 95.416 93.944 92.856C93.944 90.552 93.272 88.664 91.928 87.192C90.584 85.656 88.792 84.376 86.552 83.352C84.376 82.328 81.976 81.4 79.352 80.568C76.728 79.672 74.072 78.744 71.384 77.784C68.76 76.76 66.328 75.512 64.088 74.04C61.912 72.568 60.152 70.744 58.808 68.568C57.464 66.392 56.792 63.672 56.792 60.408C56.792 55.608 57.88 51.768 60.056 48.888C62.296 46.008 65.144 43.928 68.6 42.648C72.12 41.368 75.736 40.728 79.448 40.728C83.032 40.728 86.424 41.24 89.624 42.264C92.824 43.224 95.448 44.568 97.496 46.296C99.544 48.024 100.568 50.008 100.568 52.248C100.504 53.848 99.896 55.256 98.744 56.472C97.656 57.624 96.28 58.2 94.616 58.2C93.016 58.2 91.64 57.624 90.488 56.472C89.336 55.256 88.76 53.848 88.76 52.248C88.76 51.992 88.76 51.736 88.76 51.48C88.824 51.224 88.888 50.968 88.952 50.712C89.08 50.136 89.112 49.848 89.048 49.848C88.28 49.336 87 48.888 85.208 48.504C83.416 48.056 81.432 47.832 79.256 47.832C77.016 47.832 74.776 48.184 72.536 48.888C70.36 49.528 68.504 50.68 66.968 52.344C65.432 53.944 64.536 56.248 64.28 59.256ZM166.415 41.112C167.503 40.984 168.431 41.304 169.199 42.072C169.967 42.84 170.351 43.768 170.351 44.856C170.351 45.88 169.999 46.744 169.295 47.448C168.655 48.152 167.791 48.504 166.703 48.504C166.191 48.504 165.615 48.472 164.975 48.408C164.335 48.344 163.695 48.28 163.055 48.216H162.767C162.383 48.216 162.095 48.408 161.903 48.792L143.951 81.912C143.759 82.168 143.663 82.52 143.663 82.968V104.568C143.663 105.08 143.887 105.336 144.335 105.336C145.167 105.336 145.999 105.304 146.831 105.24C147.727 105.112 148.591 105.016 149.423 104.952C150.511 104.824 151.439 105.144 152.207 105.912C152.975 106.68 153.359 107.608 153.359 108.696C153.359 109.784 152.975 110.68 152.207 111.384C151.439 112.152 150.511 112.504 149.423 112.44C147.567 112.248 145.839 112.088 144.239 111.96C142.703 111.896 141.199 111.864 139.727 111.864C137.231 111.864 134.255 112.056 130.799 112.44C129.711 112.504 128.751 112.152 127.919 111.384C127.151 110.68 126.767 109.784 126.767 108.696C126.767 107.608 127.151 106.68 127.919 105.912C128.751 105.144 129.711 104.824 130.799 104.952C131.503 105.016 132.271 105.08 133.103 105.144C133.999 105.208 134.863 105.272 135.695 105.336H135.887C136.335 105.336 136.559 105.08 136.559 104.568V83.64C136.559 83.192 136.463 82.84 136.271 82.584L118.223 48.792C118.031 48.408 117.743 48.216 117.359 48.216C116.655 48.216 115.983 48.28 115.343 48.408C114.703 48.472 114.031 48.504 113.327 48.504C112.303 48.504 111.439 48.152 110.735 47.448C110.031 46.744 109.679 45.88 109.679 44.856C109.679 43.768 110.063 42.84 110.831 42.072C111.599 41.304 112.527 40.984 113.615 41.112C115.471 41.304 117.071 41.464 118.415 41.592C119.759 41.656 121.007 41.688 122.159 41.688C123.439 41.688 124.783 41.656 126.191 41.592C127.599 41.464 129.295 41.304 131.279 41.112C132.367 40.984 133.295 41.304 134.063 42.072C134.895 42.84 135.311 43.768 135.311 44.856C135.311 45.88 134.959 46.744 134.255 47.448C133.551 48.152 132.655 48.504 131.567 48.504C130.799 48.504 129.999 48.472 129.167 48.408C128.399 48.28 127.599 48.184 126.767 48.12H126.575C126.319 48.12 126.127 48.216 125.999 48.408C125.935 48.6 125.967 48.824 126.095 49.08L139.535 75.096C139.663 75.416 139.855 75.576 140.111 75.576C140.367 75.576 140.559 75.416 140.687 75.096L154.127 49.08C154.191 48.952 154.223 48.792 154.223 48.6C154.223 48.28 154.031 48.12 153.647 48.12C152.751 48.12 151.855 48.184 150.959 48.312C150.127 48.44 149.295 48.504 148.463 48.504C147.439 48.504 146.543 48.152 145.775 47.448C145.071 46.744 144.719 45.88 144.719 44.856C144.719 43.768 145.103 42.84 145.871 42.072C146.703 41.304 147.663 40.984 148.751 41.112C150.607 41.304 152.175 41.464 153.455 41.592C154.799 41.656 156.079 41.688 157.295 41.688C158.575 41.688 159.919 41.656 161.327 41.592C162.735 41.464 164.431 41.304 166.415 41.112ZM242.225 40.824C243.313 40.696 244.241 41.016 245.009 41.784C245.777 42.552 246.161 43.48 246.161 44.568C246.161 45.656 245.777 46.584 245.009 47.352C244.241 48.056 243.313 48.376 242.225 48.312L238.961 48.024H238.769C238.321 48.024 238.097 48.28 238.097 48.792V107.64C238.097 108.92 237.649 110.008 236.753 110.904C235.921 111.736 234.865 112.152 233.585 112.152C231.601 112.152 230.033 111.32 228.881 109.656L194.321 56.568C194.129 56.248 193.937 56.088 193.745 56.088C193.425 56.088 193.265 56.344 193.265 56.856V104.856C193.265 105.432 193.553 105.72 194.129 105.72C195.025 105.592 195.921 105.496 196.817 105.432C197.777 105.368 198.641 105.304 199.409 105.24C200.497 105.112 201.425 105.432 202.193 106.2C203.025 106.968 203.441 107.896 203.441 108.984C203.441 110.072 203.025 110.968 202.193 111.672C201.425 112.44 200.497 112.792 199.409 112.728C197.617 112.536 196.017 112.376 194.609 112.248C193.201 112.184 191.857 112.152 190.577 112.152C189.361 112.152 188.049 112.184 186.641 112.248C185.233 112.376 183.601 112.536 181.745 112.728C180.721 112.792 179.793 112.44 178.961 111.672C178.193 110.968 177.809 110.072 177.809 108.984C177.809 107.896 178.193 106.968 178.961 106.2C179.793 105.432 180.721 105.112 181.745 105.24L185.009 105.528H185.201C185.649 105.528 185.873 105.272 185.873 104.76V49.272C185.873 48.696 185.617 48.408 185.105 48.408C184.529 48.408 183.953 48.504 183.377 48.696C182.865 48.888 182.321 48.984 181.745 48.984C180.657 48.984 179.729 48.6 178.961 47.832C178.193 47 177.809 46.008 177.809 44.856C177.809 43.64 178.257 42.648 179.153 41.88C180.049 41.048 181.105 40.728 182.321 40.92C183.153 41.048 184.017 41.176 184.913 41.304C185.809 41.432 186.673 41.56 187.505 41.688C189.297 41.752 190.961 42.2 192.497 43.032C194.097 43.864 195.377 45.016 196.337 46.488L229.649 98.232C229.841 98.552 230.033 98.712 230.225 98.712C230.545 98.712 230.705 98.456 230.705 97.944V48.696C230.705 48.12 230.417 47.832 229.841 47.832C228.945 47.896 228.017 47.96 227.057 48.024C226.161 48.088 225.329 48.184 224.561 48.312C223.473 48.376 222.513 48.056 221.681 47.352C220.913 46.584 220.529 45.656 220.529 44.568C220.529 43.48 220.913 42.552 221.681 41.784C222.513 41.016 223.473 40.696 224.561 40.824C226.417 41.016 228.017 41.176 229.361 41.304C230.769 41.368 232.113 41.4 233.393 41.4C234.673 41.4 235.985 41.368 237.329 41.304C238.737 41.176 240.369 41.016 242.225 40.824ZM289.615 40.824C294.351 40.824 298.799 41.752 302.958 43.608C307.119 45.464 310.767 48.056 313.903 51.384C317.039 54.648 319.503 58.456 321.295 62.808C323.087 67.16 323.983 71.8 323.983 76.728C323.983 81.72 323.087 86.392 321.295 90.744C319.503 95.096 317.039 98.936 313.903 102.264C310.767 105.528 307.119 108.088 302.958 109.944C298.799 111.8 294.351 112.728 289.615 112.728C284.879 112.728 280.431 111.8 276.271 109.944C272.111 108.088 268.463 105.528 265.327 102.264C262.191 98.936 259.727 95.096 257.935 90.744C256.143 86.392 255.247 81.72 255.247 76.728C255.247 71.8 256.143 67.16 257.935 62.808C259.727 58.456 262.191 54.648 265.327 51.384C268.463 48.056 272.111 45.464 276.271 43.608C280.431 41.752 284.879 40.824 289.615 40.824ZM289.615 105.144C294.671 105.144 299.183 103.96 303.151 101.592C307.183 99.16 310.383 95.8 312.751 91.512C315.119 87.224 316.303 82.296 316.303 76.728C316.303 71.224 315.119 66.36 312.751 62.136C310.447 57.848 307.279 54.488 303.247 52.056C299.215 49.624 294.671 48.408 289.615 48.408C284.431 48.408 279.823 49.656 275.791 52.152C271.759 54.584 268.591 57.944 266.287 62.232C263.983 66.52 262.831 71.352 262.831 76.728C262.831 82.168 264.015 87.032 266.383 91.32C268.751 95.608 271.951 99 275.983 101.496C280.015 103.928 284.559 105.144 289.615 105.144ZM346.756 41.688H364.324C372.516 41.688 378.916 43.544 383.524 47.256C388.132 50.904 390.436 56.056 390.436 62.712C390.436 67.576 389.284 71.576 386.98 74.712C384.676 77.784 381.572 80.056 377.667 81.528C373.764 83 369.38 83.736 364.516 83.736H350.884C350.308 83.736 350.02 84.024 350.02 84.6V104.856C350.02 105.432 350.308 105.72 350.884 105.72C351.78 105.592 352.644 105.496 353.476 105.432C354.372 105.368 355.236 105.304 356.068 105.24C357.156 105.112 358.084 105.432 358.852 106.2C359.62 106.968 360.004 107.896 360.004 108.984C360.004 110.008 359.62 110.904 358.852 111.672C358.084 112.44 357.156 112.76 356.068 112.632C354.148 112.504 352.484 112.376 351.076 112.248C349.668 112.184 348.324 112.152 347.044 112.152C345.764 112.152 344.452 112.184 343.108 112.248C341.764 112.376 340.196 112.504 338.404 112.632C337.316 112.76 336.356 112.44 335.523 111.672C334.756 110.904 334.372 110.008 334.372 108.984C334.372 107.896 334.756 106.968 335.523 106.2C336.356 105.432 337.316 105.112 338.404 105.24C339.364 105.432 340.452 105.528 341.668 105.528H341.859C342.308 105.528 342.532 105.272 342.532 104.76V49.08C342.532 48.568 342.308 48.312 341.859 48.312C341.284 48.312 340.74 48.344 340.228 48.408C339.716 48.472 339.204 48.568 338.692 48.696C337.54 48.824 336.516 48.504 335.62 47.736C334.788 46.968 334.372 46.008 334.372 44.856C334.372 43.64 334.788 42.648 335.62 41.88C336.516 41.112 337.54 40.792 338.692 40.92C339.972 41.112 341.316 41.304 342.724 41.496C344.132 41.624 345.476 41.688 346.756 41.688ZM350.02 75.576C350.02 76.152 350.308 76.44 350.884 76.44H365.38C371.012 76.44 375.396 75.384 378.531 73.272C381.732 71.096 383.332 67.576 383.332 62.712C383.332 59.192 382.5 56.44 380.836 54.456C379.236 52.408 377.06 50.968 374.308 50.136C371.62 49.304 368.644 48.888 365.38 48.888H350.884C350.308 48.888 350.02 49.176 350.02 49.752V75.576ZM411.811 59.256C411.619 61.752 412.131 63.8 413.347 65.4C414.627 67 416.355 68.344 418.531 69.432C420.771 70.456 423.203 71.384 425.827 72.216C428.515 73.048 431.203 73.944 433.891 74.904C436.643 75.864 439.139 77.08 441.379 78.552C443.683 80.024 445.507 81.912 446.851 84.216C448.259 86.52 448.963 89.4 448.963 92.856C448.963 96.888 447.875 100.408 445.699 103.416C443.587 106.36 440.739 108.664 437.155 110.328C433.571 111.928 429.667 112.728 425.443 112.728C419.811 112.728 415.107 111.704 411.331 109.656C407.555 107.608 404.643 105.368 402.595 102.936C401.827 102.04 401.251 101.112 400.867 100.152C400.483 99.128 400.291 98.168 400.291 97.272C400.291 95.672 400.803 94.296 401.827 93.144C402.915 91.992 404.451 91.416 406.435 91.416C408.035 91.416 409.347 92.024 410.371 93.24C411.459 94.456 412.003 95.8 412.003 97.272C412.003 98.296 411.779 99.224 411.331 100.056C411.139 100.568 411.203 100.984 411.523 101.304C413.251 102.776 415.203 103.864 417.379 104.568C419.619 105.208 421.891 105.528 424.195 105.528C427.139 105.528 429.923 105.016 432.547 103.992C435.171 102.968 437.315 101.496 438.979 99.576C440.643 97.656 441.475 95.416 441.475 92.856C441.475 90.552 440.803 88.664 439.459 87.192C438.115 85.656 436.323 84.376 434.083 83.352C431.907 82.328 429.507 81.4 426.883 80.568C424.259 79.672 421.603 78.744 418.915 77.784C416.291 76.76 413.859 75.512 411.619 74.04C409.443 72.568 407.683 70.744 406.339 68.568C404.995 66.392 404.323 63.672 404.323 60.408C404.323 55.608 405.411 51.768 407.587 48.888C409.827 46.008 412.675 43.928 416.131 42.648C419.651 41.368 423.267 40.728 426.979 40.728C430.563 40.728 433.955 41.24 437.155 42.264C440.355 43.224 442.979 44.568 445.027 46.296C447.075 48.024 448.099 50.008 448.099 52.248C448.035 53.848 447.427 55.256 446.275 56.472C445.187 57.624 443.811 58.2 442.147 58.2C440.547 58.2 439.171 57.624 438.019 56.472C436.867 55.256 436.291 53.848 436.291 52.248C436.291 51.992 436.291 51.736 436.291 51.48C436.355 51.224 436.419 50.968 436.483 50.712C436.611 50.136 436.643 49.848 436.579 49.848C435.811 49.336 434.531 48.888 432.739 48.504C430.947 48.056 428.963 47.832 426.787 47.832C424.547 47.832 422.307 48.184 420.067 48.888C417.891 49.528 416.035 50.68 414.499 52.344C412.963 53.944 412.067 56.248 411.811 59.256ZM482.746 105.24C483.834 105.112 484.762 105.432 485.53 106.2C486.362 106.968 486.778 107.896 486.778 108.984C486.778 110.072 486.362 110.968 485.53 111.672C484.762 112.44 483.834 112.792 482.746 112.728C480.954 112.536 479.258 112.376 477.658 112.248C476.122 112.184 474.618 112.152 473.146 112.152C471.738 112.152 470.298 112.184 468.826 112.248C467.418 112.376 465.85 112.536 464.122 112.728C463.034 112.792 462.074 112.44 461.242 111.672C460.474 110.968 460.09 110.072 460.09 108.984C460.09 107.896 460.474 106.968 461.242 106.2C462.074 105.432 463.034 105.112 464.122 105.24C464.826 105.304 465.594 105.368 466.426 105.432C467.258 105.496 468.09 105.56 468.922 105.624H469.114C469.562 105.624 469.786 105.368 469.786 104.856V48.696C469.786 48.184 469.562 47.928 469.114 47.928C468.282 47.928 467.418 47.96 466.522 48.024C465.69 48.088 464.89 48.184 464.122 48.312C463.034 48.376 462.074 48.056 461.242 47.352C460.474 46.584 460.09 45.656 460.09 44.568C460.09 43.48 460.474 42.552 461.242 41.784C462.074 41.016 463.034 40.696 464.122 40.824C465.978 41.016 467.674 41.176 469.21 41.304C470.746 41.368 472.25 41.4 473.722 41.4C475.13 41.4 476.538 41.368 477.946 41.304C479.418 41.176 481.018 41.016 482.746 40.824C483.834 40.696 484.762 41.016 485.53 41.784C486.362 42.552 486.778 43.48 486.778 44.568C486.778 45.656 486.362 46.584 485.53 47.352C484.762 48.056 483.834 48.376 482.746 48.312C482.042 48.184 481.274 48.12 480.442 48.12C479.674 48.056 478.906 47.992 478.138 47.928H477.946C477.498 47.928 477.274 48.184 477.274 48.696V104.856C477.274 105.368 477.53 105.624 478.042 105.624C478.81 105.624 479.578 105.592 480.346 105.528C481.178 105.4 481.978 105.304 482.746 105.24ZM509.218 59.256C509.026 61.752 509.538 63.8 510.754 65.4C512.034 67 513.762 68.344 515.938 69.432C518.178 70.456 520.61 71.384 523.234 72.216C525.922 73.048 528.61 73.944 531.298 74.904C534.05 75.864 536.546 77.08 538.786 78.552C541.09 80.024 542.914 81.912 544.258 84.216C545.666 86.52 546.37 89.4 546.37 92.856C546.37 96.888 545.282 100.408 543.106 103.416C540.994 106.36 538.146 108.664 534.562 110.328C530.978 111.928 527.074 112.728 522.85 112.728C517.218 112.728 512.514 111.704 508.738 109.656C504.962 107.608 502.05 105.368 500.002 102.936C499.234 102.04 498.658 101.112 498.273 100.152C497.89 99.128 497.698 98.168 497.698 97.272C497.698 95.672 498.21 94.296 499.234 93.144C500.322 91.992 501.858 91.416 503.842 91.416C505.442 91.416 506.754 92.024 507.778 93.24C508.866 94.456 509.41 95.8 509.41 97.272C509.41 98.296 509.186 99.224 508.738 100.056C508.546 100.568 508.61 100.984 508.93 101.304C510.658 102.776 512.61 103.864 514.786 104.568C517.026 105.208 519.298 105.528 521.602 105.528C524.546 105.528 527.33 105.016 529.954 103.992C532.578 102.968 534.722 101.496 536.386 99.576C538.05 97.656 538.882 95.416 538.882 92.856C538.882 90.552 538.21 88.664 536.866 87.192C535.522 85.656 533.73 84.376 531.49 83.352C529.314 82.328 526.914 81.4 524.29 80.568C521.666 79.672 519.01 78.744 516.322 77.784C513.698 76.76 511.266 75.512 509.026 74.04C506.85 72.568 505.09 70.744 503.746 68.568C502.402 66.392 501.73 63.672 501.73 60.408C501.73 55.608 502.818 51.768 504.994 48.888C507.234 46.008 510.082 43.928 513.538 42.648C517.058 41.368 520.674 40.728 524.386 40.728C527.97 40.728 531.362 41.24 534.562 42.264C537.762 43.224 540.386 44.568 542.434 46.296C544.482 48.024 545.506 50.008 545.506 52.248C545.442 53.848 544.834 55.256 543.682 56.472C542.594 57.624 541.218 58.2 539.554 58.2C537.954 58.2 536.578 57.624 535.426 56.472C534.274 55.256 533.698 53.848 533.698 52.248C533.698 51.992 533.698 51.736 533.698 51.48C533.762 51.224 533.826 50.968 533.89 50.712C534.018 50.136 534.05 49.848 533.986 49.848C533.218 49.336 531.938 48.888 530.146 48.504C528.354 48.056 526.37 47.832 524.194 47.832C521.954 47.832 519.714 48.184 517.474 48.888C515.298 49.528 513.442 50.68 511.906 52.344C510.37 53.944 509.474 56.248 509.218 59.256Z" fill="#AC5014"/>
<path d="M548.335 129.168C548.688 129.449 549.305 129.227 549.706 128.673L549.754 128.734C550.268 129.383 550.693 128.466 550.885 128.627C551.567 129.22 552.028 129.159 552.775 128.659C552.97 128.524 553.88 129.273 554.521 129.388L554.997 129.476C555.602 129.271 556.49 129.166 556.973 129.244C557.453 129.32 559.43 129.69 560.302 129.873L560.989 129.293C561.07 129.222 561.306 129.212 561.433 129.251C562.257 129.524 563.066 130.029 563.887 130.037L564.548 130.044C565.179 129.598 565.621 129.929 565.532 130.788L566.798 129.788L567.857 128.951C568.894 129.341 570.309 129.476 571.005 129.249C571.702 129.02 573.794 130.105 574.536 130.049C575.283 129.995 577.78 130.771 578.53 130.927L578.479 130.005C578.477 129.951 578.938 129.785 579.019 129.839L579.99 130.473C581.162 130.28 582.475 130.4 582.905 130.744C583.335 131.085 584.855 130.359 585.235 130.529C585.614 130.7 587.058 130.959 587.557 130.707C588.054 130.454 590.833 130.537 592.403 130.59L593.763 131.163C594.205 131.354 595.052 130.78 595.737 130.715L596.232 130.663C596.815 130.822 597.495 130.827 597.747 130.676L597.776 130.7L599.025 131.71C600.513 131.173 601.906 131.285 602.125 131.959C602.343 132.629 603.532 134.227 603.83 134.18C604.128 134.132 604.942 134.161 604.995 134.344C605.048 134.529 604.69 135.232 604.2 135.498C603.712 135.761 603.66 137.893 602.877 139.007L603.141 140.393L603.203 140.712C603.174 141.21 602.985 141.493 602.783 141.341C602.581 141.193 602.041 141.183 601.854 141.524L601.866 141.529C603.225 142.088 601.616 143.022 602.262 143.659C602.336 143.734 602.334 143.954 602.257 144.024L601.224 144.954C601.184 145.659 600.072 146.434 598.756 146.678L597.588 145.778L597.396 145.627C596.635 145.949 595.408 146.227 594.666 146.251C593.924 146.273 591.433 146.078 590.744 146.222L590.108 146.232L589.483 146.241C588.813 146.12 588.025 146.015 587.732 146.005C587.439 145.998 586.344 145.934 585.991 146.037C585.636 146.139 583.273 146.227 581.543 146.22C579.814 146.21 574.449 146.178 573.455 146.059C572.463 145.939 569.807 146.78 569.574 146.78L569.358 146.795L568.052 146.895C566.647 146.651 564.965 146.598 564.315 146.771C563.664 146.941 561.553 146.41 561.008 146.488C560.467 146.561 558.544 146.707 557.898 146.563C557.252 146.417 554.089 146.749 552.561 146.793H551.154C549.744 146.793 548.337 146.795 546.93 146.793C546.063 146.793 544.703 147.068 544.43 146.734C543.791 145.956 542.938 147.049 542.463 146.361C542.372 146.227 541.86 146.224 541.567 146.268C540.911 146.363 539.956 146.812 539.682 146.607L538.743 145.902C538.049 146.402 537.09 146.661 536.617 146.473C536.142 146.285 535.102 146.173 534.54 146.005C533.978 145.841 532.261 146.498 531.773 146.232C531.288 145.966 529.581 146.863 529.043 146.966C528.505 147.066 526.478 146.217 525.469 146.037L524.398 146.7L523.635 147.173C522.136 146.951 520.654 146.654 520.342 146.515C520.03 146.376 518.601 146.185 517.835 146.059C517.066 145.929 514.115 147.105 512.767 147.615L511.819 146.28C511.735 146.161 511.067 146.141 510.901 146.276C509.866 147.105 508.68 145.707 507.618 146.478C507.282 146.722 506.641 146.815 506.168 146.768C505.27 146.678 504.396 146.305 503.509 146.293L502.736 146.288C501.896 146.527 500.81 146.678 500.327 146.617C499.842 146.559 498.106 146.524 497.698 146.329C497.287 146.137 495.695 146.866 495.164 147.068C494.636 147.273 493.221 146.424 492.71 146.632C492.196 146.841 489.902 146.683 488.975 146.534L488.135 146.532C487.316 146.532 486.492 146.788 485.675 146.773L484.155 146.746C482.496 146.549 479.804 146.412 478.173 146.446L476.806 146.832L475.61 147.171C474.386 146.917 472.236 146.746 470.831 146.793H457.832C456.532 146.793 455.231 146.754 453.934 146.805L453.125 146.839C452.243 147.034 451.391 147.217 451.232 147.246C451.074 147.276 449.863 147.115 448.881 146.949C447.899 146.785 442.39 147.195 441.996 147.063C441.599 146.932 440.504 146.973 440.101 146.915C439.697 146.861 437.69 147.288 436.647 147.329H419.752C418.684 147.341 415.509 147.424 412.697 147.515C409.884 147.605 401.604 148.198 400.537 148.573L400.22 148.334L399.413 147.729C398.868 148.115 397.764 148.1 396.964 147.702L395.965 148.341C395.425 148.688 394.289 148.405 393.424 148.405H392.017C390.472 148.383 388.669 148.495 388.011 148.651C387.355 148.807 385.014 148.21 384.315 147.798L383.818 148.437L383.097 149.368C382.528 148.846 381.416 148.512 380.628 148.624C379.843 148.732 377.261 148.898 376.649 148.854C376.037 148.815 373.616 149.198 372.497 149.037L371.474 148.959L370.4 148.878C369.207 148.92 367.715 149.083 367.088 149.241C366.464 149.402 364.627 149.512 363.647 149.902L362.509 149.539C361.565 149.239 360.369 149.476 359.288 149.476H358.205C357.016 149.49 355.537 149.715 354.92 149.973H353.798C353.188 149.722 350.582 149.573 348.008 149.644C345.431 149.715 338.301 150.429 337.878 150.976L337.105 150.19C336.93 150.01 335.89 150.466 335.232 150.537L334.593 150.605C333.884 150.593 332.796 150.266 332.177 149.878C331.557 149.488 329.326 150.524 328.613 150.532C327.902 150.539 325.438 150.541 324.725 150.532C324.009 150.52 321.456 150.702 320.635 150.868L319.89 150.871C319.192 150.876 318.481 150.544 317.791 150.576L316.449 150.644C314.982 150.593 312.731 150.573 311.449 150.6C310.169 150.629 306.358 151.178 305.565 151.022L304.847 150.985L303.807 150.934C302.669 151.066 301.264 151.066 300.687 150.934C300.111 150.8 298.144 151.607 297.371 151.695C296.595 151.78 293.747 151.68 292.854 151.695C291.96 151.71 288.098 151.712 286.242 151.841C284.386 151.973 277.925 152.163 276.019 152.185C274.112 152.205 268.768 152.283 268.374 152.48C267.981 152.68 266.22 152.176 265.706 152.105C265.192 152.037 263.305 152.744 262.399 152.798C261.496 152.854 257.834 152.778 256.343 152.8C254.851 152.824 249.769 152.788 248.331 152.946C246.895 153.105 240.744 153.234 237.884 153.234H232.579C229.599 153.229 226.52 153.241 225.732 153.263L225.144 153.761C224.589 154.229 224.102 152.724 223.331 153.663L223.175 153.854C222.478 153.737 221.472 153.8 220.939 153.993C220.403 154.185 218.374 153.476 217.163 153.749L216.052 153.754L207.603 153.79C198.311 153.793 189.74 153.602 188.556 153.363L187.651 154.185L187.514 154.312C187.127 154.256 186.255 154.132 185.578 154.034C184.901 153.939 182.924 153.971 182.684 154.156C182.446 154.341 181.406 153.915 181.121 154.027C180.837 154.139 179.476 154.229 178.801 154.168L178.186 154.098L175.242 154.271L174.596 154.285C173.89 154.29 173.193 154.115 173.051 153.893C172.91 153.671 171.582 154.122 170.962 154.141L170.383 154.08C170.1 154.049 169.737 153.724 169.584 153.798L167.367 154.807C164.792 154.522 160.542 154.298 157.924 154.31H149.583C148.049 154.349 146.195 154.285 145.457 154.168C144.723 154.051 142.09 155.151 140.945 155.527L140.184 154.417C140.092 154.283 139.492 154.22 139.302 154.329L138.217 154.959C137.002 154.69 134.989 154.59 133.745 154.734L132.616 154.824C131.327 154.924 130.018 154.846 128.719 154.846H112.582C111.274 154.859 109.396 154.746 108.406 154.6C107.419 154.451 104.607 155.224 104.251 155.098C103.896 154.971 101.687 154.812 100.154 154.737C98.6221 154.661 94.1816 155.305 93.6389 155.28C93.0961 155.254 91.415 155.234 91.0211 154.998C90.6273 154.763 88.8501 155.371 88.3386 155.439C87.8271 155.507 86.146 154.98 85.4855 155.141C84.8275 155.307 82.5508 155.427 81.9336 155.51C81.314 155.593 79.2799 155.054 78.8164 155.154C78.3529 155.251 76.117 155.354 74.9258 155.346C73.7347 155.339 68.8811 155.232 66.7869 155.029L65.0002 155.898L64.6759 156.054C64.1692 155.966 62.8916 155.917 61.8445 155.946L60.077 155.049C59.2796 155.485 58.0476 155.744 57.3368 155.629L56.5346 155.861L55.6677 156.117C54.551 156.002 53.2445 155.976 52.7666 156.059C52.2887 156.144 48.804 155.371 45.8357 155.183L43.3549 156.383L42.4711 156.812C41.484 156.61 40.144 156.454 39.4883 156.461C38.8351 156.471 36.5848 156.488 35.9436 156.537C35.3024 156.583 33.7894 156.28 33.5228 156.376C33.2538 156.468 31.7625 156.488 30.9315 156.473C30.0982 156.461 27.3388 156.407 26.6495 156.346C25.9627 156.283 23.9166 156.454 23.3354 156.288C22.7518 156.124 21.4237 156.873 21.2532 156.729C21.0875 156.583 20.3046 156.224 20.0837 156.422C19.8627 156.62 18.525 156.973 17.819 156.993H17.1682C15.977 156.993 14.7858 156.988 13.5947 156.995L12.9342 157C12.6364 156.568 12.2978 156.215 12.1777 156.212C12.0576 156.212 11.7142 156.4 11.6782 156.637C11.6398 156.871 9.95388 156.866 8.82274 156.712L7.79005 156.705L6.99035 156.698C6.04653 156.673 5.42212 156.615 5.59743 156.561C5.77034 156.512 6.11854 156.083 5.84717 155.761C5.57819 155.439 5.41729 154.229 5.53737 153.841C5.65985 153.454 5.75351 152.271 5.36686 152.271C4.98021 152.271 4.11085 152.395 4.1877 152.551C4.26455 152.702 4.29818 153.127 4.10605 153.183C3.91153 153.237 3.31354 152.949 2.96291 152.668C2.61709 152.39 0.914386 151.798 0.578167 151.48C0.244349 151.166 -0.368061 149.861 0.297173 149.717C0.962407 149.568 1.72368 151.266 2.16797 151.598H2.72036C2.91008 151.6 3.15984 151.324 3.27271 151.132L3.33515 151.022C3.21267 150.827 2.97251 150.715 2.80681 150.771C2.63629 150.829 2.09355 150.82 2.09355 150.578C2.09355 150.337 2.64108 149.537 3.31111 149.371C3.97875 149.21 5.89521 148.476 5.89521 148.154C5.89521 147.832 6.13059 146.817 6.41637 147.178C6.70216 147.539 7.84529 148.132 8.3088 147.685L8.4649 147.276C8.66904 146.727 8.8083 146.849 9.24299 147.105L9.54798 147.285C10.0307 147.307 11.318 147.332 12.4083 147.344C13.4986 147.354 16.1115 146.468 15.8713 146.371C15.6312 146.276 16.4501 145.661 18.2201 145.217L20.1317 145.929C20.4944 146.066 20.8786 146.198 21.2676 146.239L21.5462 146.268C22.0217 146.134 22.1778 145.761 21.8945 145.437C21.6135 145.11 21.1428 144.183 21.4766 144.09L21.7552 144.127C22.0818 144.166 22.5044 144.512 22.675 144.429L23.7605 143.902C24.4305 144.529 25.1894 145.068 25.4488 145.1C25.7105 145.132 26.7768 145.076 26.5247 144.841C26.2677 144.605 26.5295 144.046 27.0602 143.634C27.5934 143.22 29.5795 143.139 29.9469 143.176C30.3191 143.217 31.8177 143.132 32.3581 143.198C32.9032 143.261 34.5171 143.141 35.2688 143.349C36.0205 143.556 37.5311 142.18 37.9393 142.227C38.3476 142.268 39.1065 143.056 39.1809 143.151C39.2554 143.246 39.5532 143.361 39.678 143.195L39.6805 143.041L39.6997 141.573C40.9533 141.795 42.644 142.263 43.4509 142.617L44.4644 142.122L45.3794 141.673C46.645 141.534 48.1051 141.254 48.6263 141.049C49.1474 140.841 50.4034 141.72 50.646 141.634L50.8598 141.256C51.1407 141.173 51.9044 141.241 52.5577 141.41L53.1556 141.405L54.0346 141.395C54.964 141.195 56.0327 140.973 56.4122 140.902C56.7916 140.829 58.4679 140.751 59.1932 140.671C59.9161 140.593 62.4545 140.441 63.2182 140.554C63.9819 140.666 66.4675 139.89 67.2192 139.82C67.9709 139.751 70.1539 140.124 70.5022 139.898C70.8504 139.673 72.2385 140.124 72.5771 139.895C72.9181 139.666 74.0949 140.112 74.3063 139.939C74.5176 139.766 75.2957 139.451 75.5479 139.646C75.7976 139.841 76.7775 140.229 77.2145 140.107C77.6516 139.99 79.3567 139.883 80.0388 139.939C80.7184 139.998 82.7598 139.783 83.2689 139.827C83.7756 139.873 85.3847 139.678 85.7593 139.534C86.1316 139.39 87.659 139.202 88.3626 139.068C89.0639 138.932 91.1364 139.885 91.5831 140.027C92.025 140.171 92.5533 139.027 92.7911 138.924L92.9232 138.98L93.9366 139.434C94.9645 139.1 95.8963 138.78 96.0068 138.724L96.0813 138.746C96.6456 138.912 97.2844 139.327 97.7431 139.217L98.2931 139.085C98.7758 139.183 99.4002 139.122 99.6884 138.951C99.9718 138.776 101.35 138.932 101.963 139.151L102.541 139.259L102.935 139.329C103.394 139.246 104.285 139.137 104.914 139.085C105.543 139.039 107.798 139.076 108.615 139.512L109.578 138.795C110.126 138.388 111.252 139.061 111.977 138.4C112.044 138.339 112.561 138.656 112.89 138.732L114.328 139.073C115.921 138.888 117.518 138.539 117.878 138.295C118.238 138.054 119.547 138.483 119.838 138.2C120.126 137.92 121.269 138.641 121.456 138.705C121.646 138.771 122.508 138.824 123.156 138.956C123.805 139.085 126.211 138.5 127.366 138.39L128.212 139.105L128.337 139.212C128.69 139.28 129.22 139.102 129.518 138.815C129.816 138.529 130.592 138.3 131.082 138.232C131.574 138.163 133.944 138.346 135.222 138.58L136.24 137.7C136.5 137.476 137.362 137.807 137.808 137.637L138.812 137.251C139.677 137.663 140.676 138.032 141.031 138.071C141.389 138.112 142.708 137.841 143.188 138.002L143.62 138.207C144.182 138.468 144.446 137.183 145.162 138.022C145.229 138.102 145.964 137.695 146.394 137.688L146.999 137.68C147.652 137.834 148.38 138.015 148.613 138.083C148.844 138.156 150.273 137.978 151.137 138.037C152.004 138.095 154.264 137.249 154.497 137.349C154.727 137.449 155.892 138.002 156.502 138.427L157.105 137.6L158.02 136.341C159.358 136.868 161.072 137.427 161.829 137.58C162.583 137.734 165.119 137.117 165.705 136.895C166.291 136.673 167.9 136.661 168.476 136.527L168.853 136.754L169.274 137.005C169.634 137.4 170.311 137.4 170.782 137.01L171.171 136.7L171.238 136.644C171.469 136.568 171.889 136.663 172.17 136.859C172.451 137.051 173.486 137.417 173.784 137.2C174.084 136.98 176.541 136.988 177.026 137.112C177.514 137.234 178.654 137.159 179.127 137.266C179.601 137.373 180.655 137.115 181.049 137.141C181.443 137.166 182.857 136.99 183.352 136.746C183.849 136.502 185.977 137.246 186.976 137.385L187.624 136.602C187.691 136.52 188.042 136.568 188.251 136.595L189.572 136.766C191.02 136.939 192.756 136.815 193.431 136.49C194.106 136.166 196.62 137.054 197.475 137.034L198.162 136.878L198.801 136.734C199.512 136.712 200.667 136.568 201.371 136.417C202.074 136.263 203.938 137.117 204.178 137.178L204.346 137.12L206.251 136.41C208.453 136.51 210.706 136.58 211.26 136.568C211.81 136.556 213.866 136.724 214.738 137.241L215.487 136.129L215.819 135.637C216.743 135.876 217.711 136.298 217.97 136.573C218.23 136.849 219.625 136.132 220.002 136.051C220.379 135.971 221.573 136.537 221.94 136.585L222.108 136.459L223.011 135.788C223.893 136.185 225.125 136.585 225.747 136.678C226.369 136.771 228.136 136.359 228.571 136.159C229.001 135.961 230.492 136.368 230.72 136.307C230.948 136.241 231.765 135.868 232.012 135.641C232.262 135.417 233.225 135.778 233.46 135.512L234.188 135.815L234.993 136.146C236.196 135.951 237.807 135.659 238.576 135.5C239.342 135.337 241.371 135.768 241.712 135.7C242.056 135.627 243.456 135.8 244.09 135.976L244.683 136.024L244.897 136.039C245.231 135.715 245.567 135.705 245.646 136.024C245.725 136.341 246.357 137.129 246.83 136.878C247.303 136.629 248.797 135.927 249.186 135.761C249.573 135.598 252.284 135.568 252.762 135.659C253.237 135.746 254.789 135.085 255.384 135.029C255.982 134.973 258.007 135.063 258.526 135.237C259.044 135.415 261.655 135.171 263 135.149L263.833 134.71L264.582 134.317C265.051 134.634 265.625 135.037 265.855 135.212C266.083 135.385 268.11 135.054 269.148 134.78C270.185 134.505 273.382 134.576 273.809 134.71C274.239 134.849 275.855 134.859 276.458 134.754C277.063 134.651 279.181 134.5 279.808 134.549C280.435 134.598 282.116 134.173 282.462 134.029C282.808 133.885 283.776 134.424 283.891 134.463L283.975 134.439C284.539 134.271 285.087 133.983 285.661 133.937C286.17 133.898 286.737 134.271 287.224 134.2L287.966 134.09C288.797 134.027 289.916 133.883 290.45 133.771C290.985 133.659 292.224 134.215 292.342 133.98L292.513 133.81L292.635 133.69C292.861 133.622 293.718 133.69 294.537 133.841C295.356 133.993 299.009 133.576 299.626 133.712L300.123 133.92L300.748 134.183C301.261 133.893 302.155 133.807 302.731 133.995L303.152 133.871L303.889 133.651C304.616 133.22 305.558 132.98 305.983 133.122C306.406 133.266 307.991 133.212 308.521 133.049C309.05 132.883 310.128 132.929 310.568 132.856C311.009 132.783 312.237 132.98 312.623 133.09C313.008 133.198 314.131 132.973 314.283 133.139C314.432 133.307 315.385 133.61 316.053 133.427C316.723 133.244 320.652 133.332 322.006 133.285C323.361 133.241 325.887 132.561 326.408 132.434L327.081 132.588L328.378 132.88C329.924 132.849 331.661 132.822 332.242 132.829L332.823 132.612L333.572 132.332C334.562 132.312 335.772 132.39 336.26 132.505C336.749 132.622 338.447 132.385 338.868 132.461L339.259 132.539L339.631 132.61C340.02 132.673 341.358 132.607 342.607 132.471L343.719 132.302L344.663 132.161C345.719 132.034 346.658 131.927 346.752 131.922C346.843 131.917 347.489 132.063 348.066 132.161C348.642 132.259 350.503 132.366 350.984 132.502C351.464 132.641 352.667 133.107 352.835 132.868C353.001 132.624 353.832 132.334 354.182 132.322C354.533 132.307 355.811 131.732 356.543 131.693C357.273 131.659 360.162 131.607 361.31 131.556C362.461 131.505 365.943 131.798 366.466 131.89C366.988 131.983 368.517 131.378 368.868 131.488C369.221 131.598 369.879 131.578 370.11 131.646C370.338 131.712 372.016 131.429 373.39 131.122L374.668 131.251L375.6 131.344C376.373 131.01 377.6 130.922 378.328 131.149L379.007 131.193L379.699 131.241C380.47 131.012 381.503 131.098 381.997 131.432C382.494 131.763 384.694 130.573 385.852 130.373L386.82 130.998C386.904 131.049 387.262 130.932 387.37 130.815L387.543 130.632C387.643 130.373 388.042 130.063 388.426 129.941C388.811 129.824 390.158 130.339 390.662 130.473C391.164 130.607 393.04 130.537 393.527 130.659C394.012 130.783 395.074 130.585 395.441 130.539C395.809 130.49 397.48 130.688 398.165 130.802C398.849 130.917 401.251 130.417 402.026 130.566L402.331 130.337C403.309 129.607 403.645 130.861 404.253 130.656L404.884 130.444C405.485 130.017 406.414 129.588 406.952 129.488C407.49 129.39 409.49 129.607 410.012 129.705C410.533 129.8 412.389 129.756 412.889 129.598C413.388 129.434 415.185 129.751 415.667 129.934C416.148 130.122 417.99 129.929 418.957 129.746L419.964 130.098C420.665 130.341 421.686 130.307 422.233 129.544L424.303 129.237C426.453 129.944 428.701 129.8 430.807 129.337C431.623 129.156 432.373 130.317 433.184 129.215C433.432 128.88 434.798 129.046 435.641 129.1L436.114 129.127C436.621 129.346 437.221 129.454 437.454 129.368C437.685 129.28 438.304 129.029 438.78 128.751C439.255 128.473 440.572 129.449 441.018 129.395C441.467 129.341 442.562 128.893 442.779 128.841C442.997 128.793 443.984 129.271 444.464 129.559L444.914 129.561C445.365 129.566 445.805 129.207 446.278 129.085L447.061 128.883C447.88 129.141 448.742 129.407 448.982 129.468C449.22 129.529 449.822 129.32 450.113 129.171C450.399 129.02 451.422 129.378 451.679 129.322L451.871 129.21C452.13 129.051 452.358 128.663 452.563 128.68C453.117 128.724 453.662 129.071 454.191 129.039C454.87 129.002 455.519 128.637 456.203 128.561L456.811 128.498C457.469 128.617 458.432 128.551 458.948 128.346L459.479 128.722L459.827 128.968C460.411 129.007 461.568 129.1 462.402 129.173C463.235 129.249 465.766 128.746 466.316 128.983C466.861 129.217 469.916 128.878 471.854 129.261L473.67 128.568C474.205 128.366 475.06 128.359 475.577 128.578L476.461 128.951C477.299 128.72 478.394 128.307 478.893 128.037L479.342 128.041C479.792 128.049 480.243 128.366 480.678 128.573L480.93 128.695C481.16 128.854 482.642 129.085 484.215 129.205C485.788 129.322 489.763 128.115 489.864 128.161C489.965 128.207 490.159 128.42 490.291 128.517C490.426 128.615 491.648 128.493 492.366 128.39C493.087 128.288 495.522 128.095 496.175 128.163C496.831 128.232 498.997 128.893 499.54 129.12C500.082 129.351 501.826 128.788 502.249 129.076C502.671 129.361 504.614 128.359 505.488 128L506.475 128.79L506.905 129.132C508.202 128.812 510.241 128.524 511.435 128.498L512.513 128.549L513.634 128.605C514.842 128.859 516.468 128.685 517.251 128.215L518.289 128.954C519.093 129.524 520.027 127.895 521.108 128.685C522.009 129.344 522.801 129.21 523.577 128.544C523.63 128.5 523.803 128.507 523.891 128.541L524.629 128.812C525.443 128.902 526.368 129.049 526.682 129.137C526.999 129.227 528.454 128.712 529.151 128.561L529.751 128.588L530.988 128.639C532.347 128.615 534.619 128.556 536.039 128.507L537.338 128.549L538.15 128.573C539.033 128.783 540.124 129.01 540.573 129.078C541.017 129.146 542.119 128.82 542.472 128.72C542.823 128.62 543.949 129.095 544.259 129.139L544.305 129.066L544.972 128.054C545.741 128.6 547.984 128.885 548.335 129.168Z" fill="#AD5015"/>
</svg>
