<svg width="1394" height="741" viewBox="0 0 1394 741" fill="none" xmlns="http://www.w3.org/2000/svg">
<path d="M226.6 371.92C227.8 371.92 228.8 372.36 229.6 373.24C230.48 374.12 230.92 375.2 230.92 376.48C230.92 377.84 230.4 378.96 229.36 379.84C228.4 380.8 227.24 381.16 225.88 380.92C222.76 380.36 220.36 380.08 218.68 380.08C217 380.08 215.52 379.56 214.24 378.52C212.96 377.4 212.12 376.08 211.72 374.56C211.48 373.76 211.08 373.64 210.52 374.2C208.28 376.28 205.72 377.92 202.84 379.12C200.04 380.4 197 381.04 193.72 381.04C188.84 381.04 184.52 380.12 180.76 378.28C177 376.44 173.84 374 171.28 370.96C168.72 367.84 166.76 364.4 165.4 360.64C164.12 356.88 163.48 353.12 163.48 349.36C163.48 345.68 164.04 342 165.16 338.32C166.36 334.56 168.16 331.12 170.56 328C172.96 324.88 175.96 322.4 179.56 320.56C183.24 318.64 187.56 317.68 192.52 317.68C196.04 317.68 199.28 318.48 202.24 320.08C205.28 321.6 207.92 323.56 210.16 325.96C210.4 326.2 210.64 326.32 210.88 326.32C211.28 326.32 211.48 326.04 211.48 325.48V299.56C211.48 298.92 211.2 298.6 210.64 298.6C209.68 298.6 208.72 298.68 207.76 298.84C206.88 298.92 206 298.96 205.12 298.96C204 298.96 203.04 298.56 202.24 297.76C201.44 296.96 201.04 296 201.04 294.88C201.04 293.6 201.48 292.56 202.36 291.76C203.24 290.88 204.32 290.52 205.6 290.68C206.72 290.76 207.96 290.88 209.32 291.04C210.68 291.12 212 291.2 213.28 291.28C215.28 291.36 216.96 292.08 218.32 293.44C219.76 294.8 220.48 296.48 220.48 298.48V371.8C220.48 372.44 220.8 372.76 221.44 372.76C222.32 372.76 223.2 372.64 224.08 372.4C224.96 372.08 225.8 371.92 226.6 371.92ZM193.6 372.28C197.6 372.28 201.04 371.52 203.92 370C206.88 368.4 209.24 366.4 211 364C211.32 363.6 211.48 363.16 211.48 362.68V336.04C211.48 335.56 211.32 335.12 211 334.72C208.76 332.16 206.08 330.12 202.96 328.6C199.92 327.08 196.76 326.32 193.48 326.32C189.32 326.32 185.68 327.36 182.56 329.44C179.52 331.44 177.12 334.16 175.36 337.6C173.68 341.04 172.84 344.92 172.84 349.24C172.84 353.48 173.72 357.36 175.48 360.88C177.32 364.4 179.8 367.2 182.92 369.28C186.04 371.28 189.6 372.28 193.6 372.28ZM269.345 381.16C264.865 381.16 260.665 380.36 256.745 378.76C252.825 377.08 249.385 374.8 246.425 371.92C243.465 368.96 241.145 365.56 239.465 361.72C237.785 357.88 236.945 353.76 236.945 349.36C236.945 344.96 237.785 340.84 239.465 337C241.145 333.16 243.465 329.8 246.425 326.92C249.385 323.96 252.825 321.68 256.745 320.08C260.665 318.4 264.865 317.56 269.345 317.56C273.825 317.56 277.985 318.4 281.825 320.08C285.745 321.68 289.185 323.96 292.145 326.92C295.105 329.8 297.425 333.16 299.105 337C300.785 340.84 301.625 344.96 301.625 349.36C301.625 353.76 300.785 357.88 299.105 361.72C297.425 365.56 295.105 368.96 292.145 371.92C289.185 374.8 285.745 377.08 281.825 378.76C277.985 380.36 273.825 381.16 269.345 381.16ZM269.345 372.64C273.905 372.64 277.945 371.56 281.465 369.4C284.985 367.24 287.745 364.4 289.745 360.88C291.745 357.36 292.745 353.52 292.745 349.36C292.745 345.2 291.705 341.36 289.625 337.84C287.625 334.32 284.865 331.48 281.345 329.32C277.825 327.16 273.825 326.08 269.345 326.08C264.705 326.08 260.625 327.16 257.105 329.32C253.585 331.48 250.825 334.32 248.825 337.84C246.825 341.36 245.825 345.2 245.825 349.36C245.825 353.52 246.825 357.36 248.825 360.88C250.905 364.4 253.705 367.24 257.225 369.4C260.745 371.56 264.785 372.64 269.345 372.64ZM409.106 372.76C410.226 372.76 411.186 373.16 411.986 373.96C412.786 374.76 413.186 375.76 413.186 376.96C413.186 378.16 412.746 379.16 411.866 379.96C410.986 380.76 409.946 381.12 408.746 381.04C406.266 380.8 404.306 380.64 402.866 380.56C401.426 380.48 400.066 380.44 398.786 380.44C397.346 380.44 395.906 380.48 394.466 380.56C393.106 380.72 391.226 380.88 388.826 381.04C387.626 381.12 386.586 380.76 385.706 379.96C384.826 379.16 384.386 378.16 384.386 376.96C384.386 375.76 384.786 374.76 385.586 373.96C386.386 373.16 387.346 372.76 388.466 372.76C389.186 372.76 389.946 372.8 390.746 372.88C391.546 372.96 392.346 373.04 393.146 373.12H393.386C393.946 373.12 394.226 372.8 394.226 372.16V338.8C394.226 335.28 393.626 332.48 392.426 330.4C391.306 328.24 389.106 327.16 385.826 327.16C383.106 327.16 379.906 327.92 376.226 329.44C372.546 330.96 368.266 333.96 363.386 338.44C362.986 338.84 362.786 339.32 362.786 339.88V372.16C362.786 372.8 363.066 373.12 363.626 373.12C364.506 373.12 365.346 373.08 366.146 373C366.946 372.84 367.746 372.76 368.546 372.76C369.666 372.76 370.626 373.16 371.426 373.96C372.226 374.76 372.626 375.76 372.626 376.96C372.626 378.16 372.186 379.16 371.306 379.96C370.426 380.76 369.386 381.12 368.186 381.04C365.706 380.8 363.746 380.64 362.306 380.56C360.866 380.48 359.506 380.44 358.226 380.44C356.786 380.44 355.346 380.48 353.906 380.56C352.546 380.72 350.666 380.88 348.266 381.04C347.066 381.12 346.026 380.76 345.146 379.96C344.266 379.16 343.826 378.16 343.826 376.96C343.826 375.76 344.226 374.76 345.026 373.96C345.826 373.16 346.786 372.76 347.906 372.76C348.706 372.76 349.506 372.8 350.306 372.88C351.106 372.96 351.906 373.04 352.706 373.12H352.946C353.506 373.12 353.786 372.8 353.786 372.16V326.56C353.786 325.92 353.506 325.6 352.946 325.6C351.986 325.6 351.066 325.68 350.186 325.84C349.386 325.92 348.546 325.96 347.666 325.96C346.546 325.96 345.586 325.56 344.786 324.76C343.986 323.88 343.586 322.88 343.586 321.76C343.586 320.56 344.026 319.52 344.906 318.64C345.786 317.76 346.826 317.4 348.026 317.56C349.146 317.64 350.346 317.76 351.626 317.92C352.986 318 354.306 318.08 355.586 318.16C357.586 318.24 359.266 319 360.626 320.44C362.066 321.8 362.786 323.48 362.786 325.48V328.36C362.786 328.84 362.906 329.12 363.146 329.2C363.466 329.28 363.786 329.16 364.106 328.84C368.586 324.6 372.706 321.68 376.466 320.08C380.306 318.4 383.906 317.56 387.266 317.56C391.426 317.56 394.666 318.56 396.986 320.56C399.306 322.48 400.946 325.08 401.906 328.36C402.866 331.56 403.346 335.08 403.346 338.92V372.16C403.346 372.8 403.666 373.12 404.306 373.12C405.186 373.12 405.986 373.08 406.706 373C407.506 372.84 408.306 372.76 409.106 372.76ZM452.158 381.16C447.678 381.16 443.478 380.36 439.558 378.76C435.638 377.08 432.198 374.8 429.238 371.92C426.278 368.96 423.958 365.56 422.278 361.72C420.598 357.88 419.758 353.76 419.758 349.36C419.758 344.96 420.598 340.84 422.278 337C423.958 333.16 426.278 329.8 429.238 326.92C432.198 323.96 435.638 321.68 439.558 320.08C443.478 318.4 447.678 317.56 452.158 317.56C456.638 317.56 460.798 318.4 464.638 320.08C468.558 321.68 471.998 323.96 474.958 326.92C477.918 329.8 480.238 333.16 481.918 337C483.598 340.84 484.438 344.96 484.438 349.36C484.438 353.76 483.598 357.88 481.918 361.72C480.238 365.56 477.918 368.96 474.958 371.92C471.998 374.8 468.558 377.08 464.638 378.76C460.798 380.36 456.638 381.16 452.158 381.16ZM452.158 372.64C456.718 372.64 460.758 371.56 464.278 369.4C467.798 367.24 470.558 364.4 472.558 360.88C474.558 357.36 475.558 353.52 475.558 349.36C475.558 345.2 474.518 341.36 472.438 337.84C470.438 334.32 467.678 331.48 464.158 329.32C460.638 327.16 456.638 326.08 452.158 326.08C447.518 326.08 443.438 327.16 439.918 329.32C436.398 331.48 433.638 334.32 431.638 337.84C429.638 341.36 428.638 345.2 428.638 349.36C428.638 353.52 429.638 357.36 431.638 360.88C433.718 364.4 436.518 367.24 440.038 369.4C443.558 371.56 447.598 372.64 452.158 372.64ZM531.918 360.4C533.278 360.4 534.438 360.88 535.398 361.84C536.358 362.8 536.758 363.96 536.598 365.32C535.398 375.88 530.158 381.16 520.878 381.16C517.838 381.16 515.158 380.44 512.838 379C510.598 377.56 508.838 375.68 507.558 373.36C506.278 370.96 505.638 368.36 505.638 365.56V327.88C505.638 327.16 505.278 326.8 504.558 326.8H497.358C496.238 326.8 495.238 326.4 494.358 325.6C493.558 324.72 493.158 323.72 493.158 322.6C493.158 321.48 493.558 320.52 494.358 319.72C495.238 318.92 496.238 318.52 497.358 318.52H504.558C505.278 318.52 505.638 318.16 505.638 317.44V296.92C505.638 295.64 506.078 294.56 506.958 293.68C507.838 292.8 508.918 292.36 510.198 292.36C511.398 292.36 512.438 292.8 513.318 293.68C514.198 294.56 514.638 295.64 514.638 296.92V317.44C514.638 318.16 514.998 318.52 515.718 318.52H530.238C531.358 318.52 532.318 318.92 533.118 319.72C533.918 320.52 534.318 321.48 534.318 322.6C534.318 323.72 533.918 324.72 533.118 325.6C532.318 326.4 531.358 326.8 530.238 326.8H515.718C514.998 326.8 514.638 327.16 514.638 327.88V365.56C514.638 365.8 514.718 366.48 514.878 367.6C515.118 368.64 515.678 369.68 516.558 370.72C517.438 371.68 518.878 372.16 520.878 372.16C523.198 372.16 524.838 371.52 525.798 370.24C526.758 368.96 527.398 367 527.718 364.36C527.878 363.24 528.358 362.32 529.158 361.6C529.958 360.8 530.878 360.4 531.918 360.4ZM641.221 372.76C642.341 372.76 643.301 373.16 644.101 373.96C644.901 374.76 645.301 375.76 645.301 376.96C645.301 378.16 644.861 379.16 643.981 379.96C643.101 380.76 642.061 381.12 640.861 381.04C638.301 380.8 636.301 380.64 634.861 380.56C633.421 380.48 632.101 380.44 630.901 380.44C629.381 380.44 627.941 380.48 626.581 380.56C625.221 380.72 623.341 380.88 620.941 381.04C619.741 381.12 618.701 380.76 617.821 379.96C616.941 379.16 616.501 378.16 616.501 376.96C616.501 375.76 616.901 374.76 617.701 373.96C618.501 373.16 619.461 372.76 620.581 372.76C621.301 372.76 622.061 372.8 622.861 372.88C623.661 372.96 624.461 373.04 625.261 373.12H625.501C626.061 373.12 626.341 372.8 626.341 372.16V338.8C626.341 335.28 625.741 332.48 624.541 330.4C623.421 328.24 621.221 327.16 617.941 327.16C615.221 327.16 612.021 327.92 608.341 329.44C604.661 330.96 600.381 333.96 595.501 338.44C595.101 338.84 594.901 339.32 594.901 339.88V372.16C594.901 372.8 595.181 373.12 595.741 373.12C596.621 373.12 597.461 373.08 598.261 373C599.061 372.84 599.861 372.76 600.661 372.76C601.781 372.76 602.741 373.16 603.541 373.96C604.341 374.76 604.741 375.76 604.741 376.96C604.741 378.16 604.301 379.16 603.421 379.96C602.541 380.76 601.501 381.12 600.301 381.04C597.821 380.8 595.861 380.64 594.421 380.56C592.981 380.48 591.621 380.44 590.341 380.44C588.901 380.44 587.461 380.48 586.021 380.56C584.661 380.72 582.781 380.88 580.381 381.04C579.181 381.12 578.141 380.76 577.261 379.96C576.381 379.16 575.941 378.16 575.941 376.96C575.941 375.76 576.341 374.76 577.141 373.96C577.941 373.16 578.901 372.76 580.021 372.76C580.661 372.76 581.421 372.8 582.301 372.88C583.181 372.96 584.021 373.04 584.821 373.12H585.061C585.621 373.12 585.901 372.8 585.901 372.16V299.56C585.901 298.92 585.621 298.6 585.061 298.6C584.101 298.6 583.181 298.68 582.301 298.84C581.501 298.92 580.661 298.96 579.781 298.96C578.661 298.96 577.701 298.56 576.901 297.76C576.101 296.96 575.701 295.96 575.701 294.76C575.701 293.56 576.141 292.56 577.021 291.76C577.901 290.88 578.941 290.52 580.141 290.68C581.261 290.76 582.461 290.88 583.741 291.04C585.101 291.12 586.421 291.2 587.701 291.28C589.701 291.36 591.381 292.08 592.741 293.44C594.181 294.8 594.901 296.48 594.901 298.48V328.36C594.901 328.84 595.021 329.12 595.261 329.2C595.581 329.28 595.901 329.16 596.221 328.84C600.701 324.6 604.821 321.68 608.581 320.08C612.421 318.4 616.021 317.56 619.381 317.56C623.541 317.56 626.781 318.56 629.101 320.56C631.421 322.48 633.061 325.08 634.021 328.36C634.981 331.56 635.461 335.08 635.461 338.92V372.16C635.461 372.8 635.781 373.12 636.421 373.12C637.301 373.12 638.101 373.08 638.821 373C639.621 372.84 640.421 372.76 641.221 372.76ZM707.499 353.32H665.499C664.699 353.32 664.379 353.72 664.539 354.52C665.259 358.04 666.659 361.16 668.739 363.88C670.819 366.6 673.379 368.72 676.419 370.24C679.459 371.76 682.739 372.52 686.259 372.52C689.299 372.52 692.179 371.88 694.899 370.6C697.699 369.24 700.099 367.44 702.099 365.2C703.299 364 704.579 363.4 705.939 363.4C706.819 363.4 707.659 363.68 708.459 364.24C709.739 365.12 710.379 366.32 710.379 367.84C710.379 368.88 710.059 369.72 709.419 370.36C706.539 373.72 703.059 376.36 698.979 378.28C694.979 380.12 690.739 381.04 686.259 381.04C680.499 381.04 675.259 379.6 670.539 376.72C665.899 373.84 662.179 370 659.379 365.2C656.659 360.4 655.299 355.12 655.299 349.36C655.299 343.52 656.579 338.2 659.139 333.4C661.699 328.6 665.219 324.76 669.699 321.88C674.259 319 679.379 317.56 685.059 317.56C690.659 317.56 695.539 318.76 699.699 321.16C703.859 323.56 707.179 326.92 709.659 331.24C712.219 335.48 713.779 340.44 714.339 346.12C714.579 348.12 713.979 349.84 712.539 351.28C711.179 352.64 709.499 353.32 707.499 353.32ZM685.059 325.6C679.459 325.6 674.859 327.24 671.259 330.52C667.659 333.8 665.419 338.12 664.539 343.48C664.539 343.56 664.499 343.64 664.419 343.72C664.419 343.72 664.419 343.76 664.419 343.84C664.419 344.4 664.779 344.68 665.499 344.68H704.019C704.899 344.68 705.219 344.28 704.979 343.48C704.019 337.88 701.899 333.52 698.619 330.4C695.419 327.2 690.899 325.6 685.059 325.6ZM739.406 335.56C739.406 337.56 740.366 339.12 742.286 340.24C744.286 341.36 746.806 342.28 749.846 343C752.966 343.72 756.246 344.48 759.686 345.28C763.126 346.08 766.366 347.12 769.406 348.4C772.526 349.68 775.046 351.48 776.966 353.8C778.966 356.04 779.966 359.08 779.966 362.92C779.966 366.2 778.926 369.24 776.846 372.04C774.846 374.76 771.846 376.96 767.846 378.64C763.926 380.24 759.086 381.04 753.326 381.04C750.286 381.04 747.166 380.68 743.966 379.96C740.846 379.24 737.966 378.24 735.326 376.96C732.686 375.6 730.566 374.04 728.966 372.28C727.366 370.44 726.566 368.4 726.566 366.16C726.566 364.24 727.246 362.6 728.606 361.24C729.966 359.88 731.566 359.2 733.406 359.2C735.486 359.2 737.126 359.92 738.326 361.36C739.606 362.72 740.246 364.32 740.246 366.16C740.246 366.48 740.206 366.8 740.126 367.12C740.126 367.36 740.086 367.64 740.006 367.96C739.926 368.04 739.886 368.2 739.886 368.44C739.886 368.84 740.126 369.16 740.606 369.4C742.366 370.12 744.326 370.8 746.486 371.44C748.646 372.08 750.926 372.4 753.326 372.4C756.446 372.4 759.326 372.04 761.966 371.32C764.686 370.52 766.846 369.4 768.446 367.96C770.126 366.52 770.966 364.72 770.966 362.56C770.966 360.32 769.966 358.6 767.966 357.4C766.046 356.12 763.526 355.12 760.406 354.4C757.366 353.6 754.126 352.84 750.686 352.12C747.246 351.32 743.966 350.32 740.846 349.12C737.806 347.84 735.286 346.16 733.286 344.08C731.366 341.92 730.406 339.08 730.406 335.56C730.406 332.36 731.286 329.44 733.046 326.8C734.886 324.08 737.606 321.92 741.206 320.32C744.886 318.64 749.446 317.8 754.886 317.8C758.566 317.8 762.046 318.28 765.326 319.24C768.686 320.2 771.406 321.6 773.486 323.44C775.646 325.28 776.726 327.48 776.726 330.04C776.726 330.28 776.726 330.56 776.726 330.88C776.726 331.12 776.686 331.36 776.606 331.6C776.366 333.2 775.606 334.56 774.326 335.68C773.046 336.72 771.566 337.24 769.886 337.24C767.886 337.24 766.246 336.56 764.966 335.2C763.686 333.84 763.046 332.24 763.046 330.4C763.046 330.16 763.046 329.92 763.046 329.68C763.046 329.36 763.086 329.08 763.166 328.84C763.246 328.76 763.286 328.6 763.286 328.36C763.286 327.88 763.046 327.6 762.566 327.52C760.566 326.64 758.006 326.2 754.886 326.2C752.486 326.2 750.086 326.56 747.686 327.28C745.286 327.92 743.286 328.92 741.686 330.28C740.166 331.64 739.406 333.4 739.406 335.56ZM807.894 307.12C805.894 307.12 804.174 306.44 802.734 305.08C801.374 303.64 800.694 301.92 800.694 299.92C800.694 297.84 801.374 296.12 802.734 294.76C804.174 293.4 805.894 292.72 807.894 292.72C809.894 292.72 811.574 293.4 812.934 294.76C814.374 296.12 815.094 297.84 815.094 299.92C815.094 301.92 814.374 303.64 812.934 305.08C811.574 306.44 809.894 307.12 807.894 307.12ZM797.454 381.16C796.094 381.24 794.894 380.8 793.854 379.84C792.894 378.96 792.414 377.84 792.414 376.48C792.414 375.12 792.894 373.96 793.854 373C794.894 372.04 796.094 371.64 797.454 371.8C798.174 371.88 798.934 371.96 799.734 372.04C800.614 372.12 801.454 372.2 802.254 372.28H802.494C803.054 372.28 803.334 371.92 803.334 371.2V327.52C803.334 326.88 803.054 326.56 802.494 326.56C800.734 326.56 799.054 326.68 797.454 326.92C796.094 327 794.894 326.6 793.854 325.72C792.894 324.76 792.414 323.6 792.414 322.24C792.414 320.88 792.894 319.72 793.854 318.76C794.894 317.8 796.094 317.4 797.454 317.56C799.694 317.72 801.254 317.88 802.134 318.04C803.014 318.12 803.614 318.16 803.934 318.16C804.334 318.16 804.774 318.16 805.254 318.16C807.254 318.16 808.934 318.88 810.294 320.32C811.734 321.68 812.454 323.36 812.454 325.36V371.2C812.454 371.92 812.734 372.28 813.294 372.28C814.174 372.28 815.014 372.24 815.814 372.16C816.694 372 817.534 371.88 818.334 371.8C819.694 371.64 820.854 372.04 821.814 373C822.774 373.96 823.254 375.12 823.254 376.48C823.254 377.84 822.774 378.96 821.814 379.84C820.854 380.8 819.694 381.24 818.334 381.16C816.734 381 815.014 380.84 813.174 380.68C811.334 380.52 809.574 380.44 807.894 380.44C806.214 380.44 804.454 380.52 802.614 380.68C800.774 380.84 799.054 381 797.454 381.16ZM869.301 360.4C870.661 360.4 871.821 360.88 872.781 361.84C873.741 362.8 874.141 363.96 873.981 365.32C872.781 375.88 867.541 381.16 858.261 381.16C855.221 381.16 852.541 380.44 850.221 379C847.981 377.56 846.221 375.68 844.941 373.36C843.661 370.96 843.021 368.36 843.021 365.56V327.88C843.021 327.16 842.661 326.8 841.941 326.8H834.741C833.621 326.8 832.621 326.4 831.741 325.6C830.941 324.72 830.541 323.72 830.541 322.6C830.541 321.48 830.941 320.52 831.741 319.72C832.621 318.92 833.621 318.52 834.741 318.52H841.941C842.661 318.52 843.021 318.16 843.021 317.44V296.92C843.021 295.64 843.461 294.56 844.341 293.68C845.221 292.8 846.301 292.36 847.581 292.36C848.781 292.36 849.821 292.8 850.701 293.68C851.581 294.56 852.021 295.64 852.021 296.92V317.44C852.021 318.16 852.381 318.52 853.101 318.52H867.621C868.741 318.52 869.701 318.92 870.501 319.72C871.301 320.52 871.701 321.48 871.701 322.6C871.701 323.72 871.301 324.72 870.501 325.6C869.701 326.4 868.741 326.8 867.621 326.8H853.101C852.381 326.8 852.021 327.16 852.021 327.88V365.56C852.021 365.8 852.101 366.48 852.261 367.6C852.501 368.64 853.061 369.68 853.941 370.72C854.821 371.68 856.261 372.16 858.261 372.16C860.581 372.16 862.221 371.52 863.181 370.24C864.141 368.96 864.781 367 865.101 364.36C865.261 363.24 865.741 362.32 866.541 361.6C867.341 360.8 868.261 360.4 869.301 360.4ZM939.243 371.92C940.443 371.92 941.443 372.4 942.243 373.36C943.123 374.24 943.563 375.28 943.563 376.48C943.563 377.92 943.043 379.08 942.003 379.96C940.963 380.92 939.763 381.28 938.403 381.04C937.363 380.8 936.243 380.6 935.043 380.44C933.843 380.28 932.643 380.16 931.443 380.08C929.843 380.08 928.403 379.6 927.123 378.64C925.843 377.68 924.963 376.44 924.483 374.92C924.243 374.2 923.843 374.08 923.283 374.56C920.563 376.64 917.603 378.24 914.403 379.36C911.203 380.48 907.403 381.04 903.003 381.04C897.723 381.04 893.323 379.52 889.803 376.48C886.283 373.36 884.523 369.32 884.523 364.36C884.523 358.68 886.523 354.04 890.523 350.44C894.523 346.84 899.803 345.04 906.363 345.04C908.843 345.04 911.483 345.32 914.283 345.88C917.083 346.44 919.963 347.32 922.923 348.52C923.003 348.52 923.083 348.56 923.163 348.64C923.243 348.64 923.323 348.64 923.403 348.64C923.963 348.64 924.243 348.32 924.243 347.68V342.88C924.243 337.2 922.723 332.96 919.683 330.16C916.723 327.36 913.243 325.96 909.243 325.96C906.603 325.96 903.883 326.56 901.083 327.76C900.523 328.08 900.323 328.56 900.483 329.2C900.723 329.92 900.843 330.6 900.843 331.24C900.843 333 900.203 334.6 898.923 336.04C897.723 337.48 896.083 338.2 894.003 338.2C891.843 338.2 890.123 337.48 888.843 336.04C887.643 334.52 887.043 332.8 887.043 330.88C887.043 328.88 887.763 327.04 889.203 325.36C891.363 322.88 894.043 320.96 897.243 319.6C900.523 318.24 904.003 317.56 907.683 317.56C913.923 317.56 918.883 318.72 922.563 321.04C926.323 323.36 929.003 326.44 930.603 330.28C932.283 334.12 933.123 338.32 933.123 342.88V371.8C933.123 372.44 933.443 372.76 934.083 372.76C934.963 372.76 935.843 372.64 936.723 372.4C937.603 372.08 938.443 371.92 939.243 371.92ZM903.003 372.4C907.643 372.24 911.523 371.48 914.643 370.12C917.763 368.76 920.803 366.56 923.763 363.52C924.083 363.12 924.243 362.68 924.243 362.2V358.84C924.243 358.28 924.003 357.88 923.523 357.64C921.843 356.68 919.723 355.72 917.163 354.76C914.603 353.8 911.163 353.32 906.843 353.32C901.883 353.32 898.323 354.44 896.163 356.68C894.083 358.92 893.043 361.48 893.043 364.36C893.043 366.28 893.563 367.84 894.603 369.04C895.643 370.16 896.923 371 898.443 371.56C900.043 372.12 901.563 372.4 903.003 372.4ZM988.95 360.4C990.31 360.4 991.47 360.88 992.43 361.84C993.39 362.8 993.79 363.96 993.63 365.32C992.43 375.88 987.19 381.16 977.91 381.16C974.87 381.16 972.19 380.44 969.87 379C967.63 377.56 965.87 375.68 964.59 373.36C963.31 370.96 962.67 368.36 962.67 365.56V327.88C962.67 327.16 962.31 326.8 961.59 326.8H954.39C953.27 326.8 952.27 326.4 951.39 325.6C950.59 324.72 950.19 323.72 950.19 322.6C950.19 321.48 950.59 320.52 951.39 319.72C952.27 318.92 953.27 318.52 954.39 318.52H961.59C962.31 318.52 962.67 318.16 962.67 317.44V296.92C962.67 295.64 963.11 294.56 963.99 293.68C964.87 292.8 965.95 292.36 967.23 292.36C968.43 292.36 969.47 292.8 970.35 293.68C971.23 294.56 971.67 295.64 971.67 296.92V317.44C971.67 318.16 972.03 318.52 972.75 318.52H987.27C988.39 318.52 989.35 318.92 990.15 319.72C990.95 320.52 991.35 321.48 991.35 322.6C991.35 323.72 990.95 324.72 990.15 325.6C989.35 326.4 988.39 326.8 987.27 326.8H972.75C972.03 326.8 971.67 327.16 971.67 327.88V365.56C971.67 365.8 971.75 366.48 971.91 367.6C972.15 368.64 972.71 369.68 973.59 370.72C974.47 371.68 975.91 372.16 977.91 372.16C980.23 372.16 981.87 371.52 982.83 370.24C983.79 368.96 984.43 367 984.75 364.36C984.91 363.24 985.39 362.32 986.19 361.6C986.99 360.8 987.91 360.4 988.95 360.4ZM1056.13 353.32H1014.13C1013.33 353.32 1013.01 353.72 1013.17 354.52C1013.89 358.04 1015.29 361.16 1017.37 363.88C1019.45 366.6 1022.01 368.72 1025.05 370.24C1028.09 371.76 1031.37 372.52 1034.89 372.52C1037.93 372.52 1040.81 371.88 1043.53 370.6C1046.33 369.24 1048.73 367.44 1050.73 365.2C1051.93 364 1053.21 363.4 1054.57 363.4C1055.45 363.4 1056.29 363.68 1057.09 364.24C1058.37 365.12 1059.01 366.32 1059.01 367.84C1059.01 368.88 1058.69 369.72 1058.05 370.36C1055.17 373.72 1051.69 376.36 1047.61 378.28C1043.61 380.12 1039.37 381.04 1034.89 381.04C1029.13 381.04 1023.89 379.6 1019.17 376.72C1014.53 373.84 1010.81 370 1008.01 365.2C1005.29 360.4 1003.93 355.12 1003.93 349.36C1003.93 343.52 1005.21 338.2 1007.77 333.4C1010.33 328.6 1013.85 324.76 1018.33 321.88C1022.89 319 1028.01 317.56 1033.69 317.56C1039.29 317.56 1044.17 318.76 1048.33 321.16C1052.49 323.56 1055.81 326.92 1058.29 331.24C1060.85 335.48 1062.41 340.44 1062.97 346.12C1063.21 348.12 1062.61 349.84 1061.17 351.28C1059.81 352.64 1058.13 353.32 1056.13 353.32ZM1033.69 325.6C1028.09 325.6 1023.49 327.24 1019.89 330.52C1016.29 333.8 1014.05 338.12 1013.17 343.48C1013.17 343.56 1013.13 343.64 1013.05 343.72C1013.05 343.72 1013.05 343.76 1013.05 343.84C1013.05 344.4 1013.41 344.68 1014.13 344.68H1052.65C1053.53 344.68 1053.85 344.28 1053.61 343.48C1052.65 337.88 1050.53 333.52 1047.25 330.4C1044.05 327.2 1039.53 325.6 1033.69 325.6ZM1140.24 360.4C1141.6 360.4 1142.76 360.88 1143.72 361.84C1144.68 362.8 1145.08 363.96 1144.92 365.32C1143.72 375.88 1138.48 381.16 1129.2 381.16C1126.16 381.16 1123.48 380.44 1121.16 379C1118.92 377.56 1117.16 375.68 1115.88 373.36C1114.6 370.96 1113.96 368.36 1113.96 365.56V327.88C1113.96 327.16 1113.6 326.8 1112.88 326.8H1105.68C1104.56 326.8 1103.56 326.4 1102.68 325.6C1101.88 324.72 1101.48 323.72 1101.48 322.6C1101.48 321.48 1101.88 320.52 1102.68 319.72C1103.56 318.92 1104.56 318.52 1105.68 318.52H1112.88C1113.6 318.52 1113.96 318.16 1113.96 317.44V296.92C1113.96 295.64 1114.4 294.56 1115.28 293.68C1116.16 292.8 1117.24 292.36 1118.52 292.36C1119.72 292.36 1120.76 292.8 1121.64 293.68C1122.52 294.56 1122.96 295.64 1122.96 296.92V317.44C1122.96 318.16 1123.32 318.52 1124.04 318.52H1138.56C1139.68 318.52 1140.64 318.92 1141.44 319.72C1142.24 320.52 1142.64 321.48 1142.64 322.6C1142.64 323.72 1142.24 324.72 1141.44 325.6C1140.64 326.4 1139.68 326.8 1138.56 326.8H1124.04C1123.32 326.8 1122.96 327.16 1122.96 327.88V365.56C1122.96 365.8 1123.04 366.48 1123.2 367.6C1123.44 368.64 1124 369.68 1124.88 370.72C1125.76 371.68 1127.2 372.16 1129.2 372.16C1131.52 372.16 1133.16 371.52 1134.12 370.24C1135.08 368.96 1135.72 367 1136.04 364.36C1136.2 363.24 1136.68 362.32 1137.48 361.6C1138.28 360.8 1139.2 360.4 1140.24 360.4ZM1187.86 381.16C1183.38 381.16 1179.18 380.36 1175.26 378.76C1171.34 377.08 1167.9 374.8 1164.94 371.92C1161.98 368.96 1159.66 365.56 1157.98 361.72C1156.3 357.88 1155.46 353.76 1155.46 349.36C1155.46 344.96 1156.3 340.84 1157.98 337C1159.66 333.16 1161.98 329.8 1164.94 326.92C1167.9 323.96 1171.34 321.68 1175.26 320.08C1179.18 318.4 1183.38 317.56 1187.86 317.56C1192.34 317.56 1196.5 318.4 1200.34 320.08C1204.26 321.68 1207.7 323.96 1210.66 326.92C1213.62 329.8 1215.94 333.16 1217.62 337C1219.3 340.84 1220.14 344.96 1220.14 349.36C1220.14 353.76 1219.3 357.88 1217.62 361.72C1215.94 365.56 1213.62 368.96 1210.66 371.92C1207.7 374.8 1204.26 377.08 1200.34 378.76C1196.5 380.36 1192.34 381.16 1187.86 381.16ZM1187.86 372.64C1192.42 372.64 1196.46 371.56 1199.98 369.4C1203.5 367.24 1206.26 364.4 1208.26 360.88C1210.26 357.36 1211.26 353.52 1211.26 349.36C1211.26 345.2 1210.22 341.36 1208.14 337.84C1206.14 334.32 1203.38 331.48 1199.86 329.32C1196.34 327.16 1192.34 326.08 1187.86 326.08C1183.22 326.08 1179.14 327.16 1175.62 329.32C1172.1 331.48 1169.34 334.32 1167.34 337.84C1165.34 341.36 1164.34 345.2 1164.34 349.36C1164.34 353.52 1165.34 357.36 1167.34 360.88C1169.42 364.4 1172.22 367.24 1175.74 369.4C1179.26 371.56 1183.3 372.64 1187.86 372.64Z" fill="white"/>
<path d="M89.216 555.552C90.5813 556.747 91.264 558.24 91.264 560.032C91.264 561.227 90.9653 562.251 90.368 563.104C86.1867 568.907 80.896 573.557 74.496 577.056C68.096 580.555 61.1413 582.304 53.632 582.304C47.3173 582.304 41.3867 581.067 35.84 578.592C30.2933 576.032 25.4293 572.576 21.248 568.224C17.0667 563.787 13.7813 558.667 11.392 552.864C9.00267 547.061 7.808 540.875 7.808 534.304C7.808 527.648 9.00267 521.461 11.392 515.744C13.7813 509.941 17.0667 504.864 21.248 500.512C25.4293 496.075 30.2933 492.619 35.84 490.144C41.3867 487.669 47.3173 486.432 53.632 486.432C60.032 486.432 65.664 487.456 70.528 489.504C75.4773 491.552 79.872 494.411 83.712 498.08C85.4187 499.701 86.9547 501.493 88.32 503.456C89.6853 505.419 90.368 507.552 90.368 509.856C90.368 511.989 89.6 513.867 88.064 515.488C86.528 517.109 84.6507 517.92 82.432 517.92C80.128 517.92 78.2507 517.109 76.8 515.488C75.3493 513.867 74.624 512.032 74.624 509.984C74.624 508.363 75.0507 506.955 75.904 505.76C76.3307 505.077 76.288 504.523 75.776 504.096C73.0453 501.109 69.7173 499.019 65.792 497.824C61.952 496.544 57.8987 495.904 53.632 495.904C46.72 495.904 40.576 497.611 35.2 501.024C29.824 504.437 25.5573 509.045 22.4 514.848C19.328 520.565 17.792 527.051 17.792 534.304C17.792 541.557 19.3707 548.043 22.528 553.76C25.6853 559.477 29.952 564 35.328 567.328C40.7893 570.571 46.8907 572.192 53.632 572.192C59.776 572.192 65.408 570.827 70.528 568.096C75.648 565.28 79.7867 561.483 82.944 556.704C83.8827 555.339 85.12 554.656 86.656 554.656C87.68 554.656 88.5333 554.955 89.216 555.552ZM151.861 486.432C158.176 486.432 164.106 487.669 169.653 490.144C175.2 492.619 180.064 496.075 184.245 500.512C188.426 504.864 191.712 509.941 194.101 515.744C196.49 521.547 197.685 527.733 197.685 534.304C197.685 540.96 196.49 547.189 194.101 552.992C191.712 558.795 188.426 563.915 184.245 568.352C180.064 572.704 175.2 576.117 169.653 578.592C164.106 581.067 158.176 582.304 151.861 582.304C145.546 582.304 139.616 581.067 134.069 578.592C128.522 576.117 123.658 572.704 119.477 568.352C115.296 563.915 112.01 558.795 109.621 552.992C107.232 547.189 106.037 540.96 106.037 534.304C106.037 527.733 107.232 521.547 109.621 515.744C112.01 509.941 115.296 504.864 119.477 500.512C123.658 496.075 128.522 492.619 134.069 490.144C139.616 487.669 145.546 486.432 151.861 486.432ZM151.861 572.192C158.602 572.192 164.618 570.613 169.909 567.456C175.285 564.213 179.552 559.733 182.709 554.016C185.866 548.299 187.445 541.728 187.445 534.304C187.445 526.965 185.866 520.48 182.709 514.848C179.637 509.131 175.413 504.651 170.037 501.408C164.661 498.165 158.602 496.544 151.861 496.544C144.949 496.544 138.805 498.208 133.429 501.536C128.053 504.779 123.829 509.259 120.757 514.976C117.685 520.693 116.149 527.136 116.149 534.304C116.149 541.557 117.728 548.043 120.885 553.76C124.042 559.477 128.309 564 133.685 567.328C139.061 570.571 145.12 572.192 151.861 572.192ZM297.425 486.432C298.876 486.261 300.113 486.688 301.137 487.712C302.161 488.736 302.673 489.973 302.673 491.424C302.673 492.875 302.161 494.112 301.137 495.136C300.113 496.075 298.876 496.501 297.425 496.416L293.073 496.032H292.817C292.22 496.032 291.921 496.373 291.921 497.056V575.52C291.921 577.227 291.324 578.677 290.129 579.872C289.02 580.981 287.612 581.536 285.905 581.536C283.26 581.536 281.169 580.427 279.633 578.208L233.553 507.424C233.297 506.997 233.041 506.784 232.785 506.784C232.358 506.784 232.145 507.125 232.145 507.808V571.808C232.145 572.576 232.529 572.96 233.297 572.96C234.492 572.789 235.686 572.661 236.881 572.576C238.161 572.491 239.313 572.405 240.337 572.32C241.788 572.149 243.025 572.576 244.049 573.6C245.158 574.624 245.713 575.861 245.713 577.312C245.713 578.763 245.158 579.957 244.049 580.896C243.025 581.92 241.788 582.389 240.337 582.304C237.948 582.048 235.814 581.835 233.937 581.664C232.06 581.579 230.268 581.536 228.561 581.536C226.94 581.536 225.19 581.579 223.313 581.664C221.436 581.835 219.26 582.048 216.785 582.304C215.42 582.389 214.182 581.92 213.073 580.896C212.049 579.957 211.537 578.763 211.537 577.312C211.537 575.861 212.049 574.624 213.073 573.6C214.182 572.576 215.42 572.149 216.785 572.32L221.137 572.704H221.393C221.99 572.704 222.289 572.363 222.289 571.68V497.696C222.289 496.928 221.948 496.544 221.265 496.544C220.497 496.544 219.729 496.672 218.961 496.928C218.278 497.184 217.553 497.312 216.785 497.312C215.334 497.312 214.097 496.8 213.073 495.776C212.049 494.667 211.537 493.344 211.537 491.808C211.537 490.187 212.134 488.864 213.329 487.84C214.524 486.731 215.932 486.304 217.553 486.56C218.662 486.731 219.814 486.901 221.009 487.072C222.204 487.243 223.356 487.413 224.465 487.584C226.854 487.669 229.073 488.267 231.121 489.376C233.254 490.485 234.961 492.021 236.241 493.984L280.657 562.976C280.913 563.403 281.169 563.616 281.425 563.616C281.852 563.616 282.065 563.275 282.065 562.592V496.928C282.065 496.16 281.681 495.776 280.913 495.776C279.718 495.861 278.481 495.947 277.201 496.032C276.006 496.117 274.897 496.245 273.873 496.416C272.422 496.501 271.142 496.075 270.033 495.136C269.009 494.112 268.497 492.875 268.497 491.424C268.497 489.973 269.009 488.736 270.033 487.712C271.142 486.688 272.422 486.261 273.873 486.432C276.348 486.688 278.481 486.901 280.273 487.072C282.15 487.157 283.942 487.2 285.649 487.2C287.356 487.2 289.105 487.157 290.897 487.072C292.774 486.901 294.95 486.688 297.425 486.432ZM389.027 508.576C389.198 510.027 388.728 511.307 387.619 512.416C386.595 513.525 385.315 514.08 383.779 514.08C382.243 514.08 380.963 513.525 379.939 512.416C378.915 511.307 378.446 510.027 378.531 508.576L379.171 498.464C379.171 497.696 378.83 497.312 378.147 497.312H357.923C357.155 497.312 356.771 497.696 356.771 498.464V571.808C356.771 572.491 357.07 572.832 357.667 572.832C358.776 572.832 359.886 572.789 360.995 572.704C362.19 572.533 363.299 572.405 364.323 572.32C365.774 572.149 367.011 572.576 368.035 573.6C369.059 574.624 369.571 575.861 369.571 577.312C369.571 578.677 369.059 579.829 368.035 580.768C367.011 581.792 365.774 582.261 364.323 582.176C361.848 581.92 359.886 581.749 358.435 581.664C356.984 581.579 355.79 581.493 354.851 581.408C353.912 581.408 352.888 581.408 351.779 581.408C350.584 581.408 349.518 581.408 348.579 581.408C347.64 581.493 346.488 581.579 345.123 581.664C343.758 581.749 341.838 581.92 339.363 582.176C337.998 582.261 336.76 581.792 335.651 580.768C334.627 579.829 334.115 578.677 334.115 577.312C334.115 575.861 334.627 574.624 335.651 573.6C336.76 572.576 337.998 572.149 339.363 572.32C340.302 572.405 341.326 572.491 342.435 572.576C343.544 572.661 344.654 572.747 345.763 572.832H346.019C346.616 572.832 346.915 572.491 346.915 571.808V498.464C346.915 497.696 346.531 497.312 345.763 497.312H325.411C324.728 497.312 324.387 497.696 324.387 498.464L325.027 508.576C325.198 510.027 324.728 511.307 323.619 512.416C322.595 513.525 321.315 514.08 319.779 514.08C318.243 514.08 316.963 513.525 315.939 512.416C314.915 511.307 314.446 510.027 314.531 508.576C314.702 506.613 314.872 504.48 315.043 502.176C315.214 499.872 315.342 497.568 315.427 495.264C315.598 493.045 316.408 491.211 317.859 489.76C319.395 488.309 321.23 487.584 323.363 487.584H380.323C382.456 487.584 384.248 488.352 385.699 489.888C387.235 491.339 388.046 493.131 388.131 495.264C388.302 497.568 388.472 499.872 388.643 502.176C388.814 504.48 388.942 506.613 389.027 508.576ZM480.79 572.32C482.241 572.149 483.478 572.576 484.502 573.6C485.611 574.624 486.166 575.861 486.166 577.312C486.166 578.763 485.611 579.957 484.502 580.896C483.478 581.92 482.241 582.389 480.79 582.304C475.926 581.792 472.001 581.536 469.014 581.536C465.771 581.536 461.846 581.792 457.238 582.304C455.787 582.389 454.55 581.92 453.526 580.896C452.502 579.957 451.99 578.763 451.99 577.312C451.99 575.861 452.502 574.624 453.526 573.6C454.55 572.576 455.787 572.149 457.238 572.32C458.177 572.405 459.115 572.491 460.054 572.576C461.078 572.661 462.102 572.747 463.126 572.832H463.382C464.235 572.832 464.449 572.405 464.022 571.552L457.238 556.576C456.982 555.979 456.555 555.68 455.958 555.68H410.902C410.39 555.68 409.963 555.979 409.622 556.576L402.838 571.552C402.753 571.723 402.71 571.936 402.71 572.192C402.71 572.619 402.966 572.832 403.478 572.832C404.502 572.832 405.526 572.789 406.55 572.704C407.659 572.533 408.683 572.405 409.622 572.32C411.073 572.149 412.31 572.576 413.334 573.6C414.358 574.624 414.87 575.861 414.87 577.312C414.87 578.763 414.358 579.957 413.334 580.896C412.31 581.92 411.073 582.389 409.622 582.304C404.673 581.792 400.747 581.536 397.846 581.536C394.518 581.536 390.593 581.792 386.07 582.304C384.619 582.389 383.339 581.92 382.23 580.896C381.206 579.957 380.694 578.763 380.694 577.312C380.694 575.861 381.206 574.624 382.23 573.6C383.339 572.576 384.619 572.149 386.07 572.32C387.606 572.576 389.185 572.704 390.806 572.704H391.062C391.489 572.704 391.873 572.448 392.214 571.936L429.59 488.864C430.358 487.243 431.638 486.432 433.43 486.432C435.137 486.432 436.374 487.243 437.142 488.864L474.646 571.936C474.987 572.533 475.457 572.789 476.054 572.704C477.675 572.704 479.254 572.576 480.79 572.32ZM434.198 505.12C434.113 504.608 433.857 504.352 433.43 504.352C433.174 504.352 432.918 504.608 432.662 505.12L414.742 545.056C414.657 545.227 414.614 545.397 414.614 545.568C414.614 546.165 414.955 546.464 415.638 546.464H451.222C452.246 546.464 452.545 545.995 452.118 545.056L434.198 505.12ZM567.091 555.552C568.456 556.747 569.139 558.24 569.139 560.032C569.139 561.227 568.84 562.251 568.243 563.104C564.062 568.907 558.771 573.557 552.371 577.056C545.971 580.555 539.016 582.304 531.507 582.304C525.192 582.304 519.262 581.067 513.715 578.592C508.168 576.032 503.304 572.576 499.123 568.224C494.942 563.787 491.656 558.667 489.267 552.864C486.878 547.061 485.683 540.875 485.683 534.304C485.683 527.648 486.878 521.461 489.267 515.744C491.656 509.941 494.942 504.864 499.123 500.512C503.304 496.075 508.168 492.619 513.715 490.144C519.262 487.669 525.192 486.432 531.507 486.432C537.907 486.432 543.539 487.456 548.403 489.504C553.352 491.552 557.747 494.411 561.587 498.08C563.294 499.701 564.83 501.493 566.195 503.456C567.56 505.419 568.243 507.552 568.243 509.856C568.243 511.989 567.475 513.867 565.939 515.488C564.403 517.109 562.526 517.92 560.307 517.92C558.003 517.92 556.126 517.109 554.675 515.488C553.224 513.867 552.499 512.032 552.499 509.984C552.499 508.363 552.926 506.955 553.779 505.76C554.206 505.077 554.163 504.523 553.651 504.096C550.92 501.109 547.592 499.019 543.667 497.824C539.827 496.544 535.774 495.904 531.507 495.904C524.595 495.904 518.451 497.611 513.075 501.024C507.699 504.437 503.432 509.045 500.275 514.848C497.203 520.565 495.667 527.051 495.667 534.304C495.667 541.557 497.246 548.043 500.403 553.76C503.56 559.477 507.827 564 513.203 567.328C518.664 570.571 524.766 572.192 531.507 572.192C537.651 572.192 543.283 570.827 548.403 568.096C553.523 565.28 557.662 561.483 560.819 556.704C561.758 555.339 562.995 554.656 564.531 554.656C565.555 554.656 566.408 554.955 567.091 555.552ZM658.152 508.576C658.323 510.027 657.853 511.307 656.744 512.416C655.72 513.525 654.44 514.08 652.904 514.08C651.368 514.08 650.088 513.525 649.064 512.416C648.04 511.307 647.571 510.027 647.656 508.576L648.296 498.464C648.296 497.696 647.955 497.312 647.272 497.312H627.048C626.28 497.312 625.896 497.696 625.896 498.464V571.808C625.896 572.491 626.195 572.832 626.792 572.832C627.901 572.832 629.011 572.789 630.12 572.704C631.315 572.533 632.424 572.405 633.448 572.32C634.899 572.149 636.136 572.576 637.16 573.6C638.184 574.624 638.696 575.861 638.696 577.312C638.696 578.677 638.184 579.829 637.16 580.768C636.136 581.792 634.899 582.261 633.448 582.176C630.973 581.92 629.011 581.749 627.56 581.664C626.109 581.579 624.915 581.493 623.976 581.408C623.037 581.408 622.013 581.408 620.904 581.408C619.709 581.408 618.643 581.408 617.704 581.408C616.765 581.493 615.613 581.579 614.248 581.664C612.883 581.749 610.963 581.92 608.488 582.176C607.123 582.261 605.885 581.792 604.776 580.768C603.752 579.829 603.24 578.677 603.24 577.312C603.24 575.861 603.752 574.624 604.776 573.6C605.885 572.576 607.123 572.149 608.488 572.32C609.427 572.405 610.451 572.491 611.56 572.576C612.669 572.661 613.779 572.747 614.888 572.832H615.144C615.741 572.832 616.04 572.491 616.04 571.808V498.464C616.04 497.696 615.656 497.312 614.888 497.312H594.536C593.853 497.312 593.512 497.696 593.512 498.464L594.152 508.576C594.323 510.027 593.853 511.307 592.744 512.416C591.72 513.525 590.44 514.08 588.904 514.08C587.368 514.08 586.088 513.525 585.064 512.416C584.04 511.307 583.571 510.027 583.656 508.576C583.827 506.613 583.997 504.48 584.168 502.176C584.339 499.872 584.467 497.568 584.552 495.264C584.723 493.045 585.533 491.211 586.984 489.76C588.52 488.309 590.355 487.584 592.488 487.584H649.448C651.581 487.584 653.373 488.352 654.824 489.888C656.36 491.339 657.171 493.131 657.256 495.264C657.427 497.568 657.597 499.872 657.768 502.176C657.939 504.48 658.067 506.613 658.152 508.576ZM806.702 572.32C808.153 572.149 809.39 572.576 810.414 573.6C811.523 574.624 812.078 575.861 812.078 577.312C812.078 578.763 811.523 579.957 810.414 580.896C809.39 581.92 808.153 582.389 806.702 582.304C804.227 582.048 802.051 581.835 800.174 581.664C798.382 581.579 796.633 581.536 794.926 581.536C793.305 581.536 791.555 581.579 789.678 581.664C787.801 581.835 785.625 582.048 783.15 582.304C781.699 582.389 780.462 581.92 779.438 580.896C778.414 579.957 777.902 578.763 777.902 577.312C777.902 575.861 778.414 574.624 779.438 573.6C780.462 572.576 781.699 572.149 783.15 572.32C784.259 572.405 785.411 572.491 786.606 572.576C787.801 572.661 788.995 572.789 790.19 572.96C790.958 572.96 791.342 572.576 791.342 571.808V502.816C791.342 502.219 791.171 501.92 790.83 501.92C790.489 501.835 790.233 502.048 790.062 502.56L762.286 566.816C761.774 567.925 760.963 568.864 759.854 569.632C758.83 570.4 757.678 570.784 756.398 570.784C755.203 570.784 754.051 570.4 752.942 569.632C751.833 568.864 751.065 567.925 750.638 566.816L724.782 502.048C724.697 501.536 724.483 501.28 724.142 501.28C723.715 501.28 723.502 501.621 723.502 502.304V571.808C723.502 572.576 723.886 572.96 724.654 572.96C725.849 572.789 727.043 572.661 728.238 572.576C729.433 572.491 730.585 572.405 731.694 572.32C733.145 572.149 734.382 572.576 735.406 573.6C736.43 574.624 736.942 575.861 736.942 577.312C736.942 578.763 736.43 579.957 735.406 580.896C734.382 581.92 733.145 582.389 731.694 582.304C729.219 582.048 727.043 581.835 725.166 581.664C723.374 581.579 721.625 581.536 719.918 581.536C718.211 581.536 716.419 581.579 714.542 581.664C712.75 581.835 710.617 582.048 708.142 582.304C706.691 582.389 705.411 581.92 704.302 580.896C703.278 579.957 702.766 578.763 702.766 577.312C702.766 575.861 703.278 574.624 704.302 573.6C705.411 572.576 706.691 572.149 708.142 572.32L712.366 572.704H712.622C713.219 572.704 713.518 572.363 713.518 571.68V497.184C713.518 496.331 713.134 495.989 712.366 496.16C711.598 496.16 710.83 496.203 710.062 496.288C709.379 496.373 708.654 496.416 707.886 496.416C706.521 496.416 705.369 495.947 704.43 495.008C703.491 493.984 703.022 492.789 703.022 491.424C703.022 489.973 703.577 488.779 704.686 487.84C705.795 486.816 707.075 486.389 708.526 486.56C711.342 486.901 713.689 487.157 715.566 487.328C717.443 487.499 719.406 487.584 721.454 487.584C723.673 487.584 725.721 488.224 727.598 489.504C729.475 490.784 730.841 492.491 731.694 494.624L755.886 556.192C756.142 556.704 756.398 556.96 756.654 556.96C757.081 556.96 757.337 556.704 757.422 556.192L783.406 494.496C784.259 492.448 785.625 490.784 787.502 489.504C789.465 488.224 791.555 487.584 793.774 487.584C795.907 487.584 797.87 487.499 799.662 487.328C801.454 487.157 803.673 486.901 806.318 486.56C807.769 486.389 809.049 486.816 810.158 487.84C811.267 488.864 811.822 490.101 811.822 491.552C811.822 493.003 811.267 494.24 810.158 495.264C809.049 496.203 807.769 496.587 806.318 496.416L802.478 496.032H802.222C801.625 496.032 801.326 496.373 801.326 497.056V571.68C801.326 572.533 801.753 572.875 802.606 572.704L806.702 572.32ZM890.296 557.216C891.747 557.216 893.027 557.771 894.136 558.88C895.245 559.904 895.715 561.184 895.544 562.72L894.776 573.472C894.691 575.605 893.88 577.44 892.344 578.976C890.808 580.427 888.973 581.152 886.84 581.152H841.528C839.907 581.152 838.243 581.28 836.536 581.536C834.915 581.792 833.336 582.005 831.8 582.176C830.179 582.432 828.771 582.005 827.576 580.896C826.467 579.872 825.912 578.549 825.912 576.928C825.912 575.307 826.467 573.984 827.576 572.96C828.771 571.936 830.179 571.552 831.8 571.808L834.744 572.192H835C835.683 572.192 836.024 571.851 836.024 571.168V497.568C836.024 496.8 835.683 496.416 835 496.416C834.317 496.416 833.635 496.544 832.952 496.8C832.355 496.971 831.715 497.056 831.032 497.056C829.667 497.056 828.472 496.544 827.448 495.52C826.424 494.411 825.912 493.173 825.912 491.808C825.912 490.187 826.467 488.864 827.576 487.84C828.771 486.731 830.179 486.304 831.8 486.56C833.507 486.731 835.256 486.944 837.048 487.2C838.925 487.456 840.675 487.584 842.296 487.584H886.84C888.973 487.584 890.808 488.352 892.344 489.888C893.88 491.339 894.691 493.131 894.776 495.264L895.544 506.016C895.715 507.467 895.245 508.747 894.136 509.856C893.112 510.965 891.832 511.52 890.296 511.52C888.845 511.52 887.608 511.008 886.584 509.984C885.56 508.96 885.048 507.765 885.048 506.4C885.048 505.205 885.091 503.968 885.176 502.688C885.347 501.323 885.475 499.957 885.56 498.592V498.336C885.56 497.739 885.219 497.44 884.536 497.44H847.16C846.392 497.44 846.008 497.824 846.008 498.592V526.496C846.008 527.264 846.392 527.648 847.16 527.648H879.288C880.653 527.648 881.805 528.117 882.744 529.056C883.683 529.995 884.152 531.147 884.152 532.512C884.152 533.877 883.683 535.029 882.744 535.968C881.805 536.821 880.653 537.248 879.288 537.248H847.16C846.392 537.248 846.008 537.632 846.008 538.4V570.144C846.008 570.912 846.392 571.296 847.16 571.296H884.536C885.389 571.296 885.731 570.912 885.56 570.144C885.475 568.693 885.347 567.328 885.176 566.048C885.091 564.683 885.048 563.445 885.048 562.336C885.048 560.885 885.56 559.691 886.584 558.752C887.608 557.728 888.845 557.216 890.296 557.216ZM954.292 559.776C953.183 559.776 952.244 559.392 951.476 558.624C950.708 557.856 950.281 556.917 950.196 555.808L948.66 491.04C948.66 489.504 949.172 488.181 950.196 487.072C951.305 485.963 952.671 485.408 954.292 485.408C955.828 485.408 957.151 485.963 958.26 487.072C959.369 488.181 959.881 489.504 959.796 491.04L958.26 555.808C958.26 556.917 957.876 557.856 957.108 558.624C956.34 559.392 955.401 559.776 954.292 559.776ZM954.292 582.432C952.159 582.432 950.367 581.664 948.916 580.128C947.465 578.677 946.74 576.885 946.74 574.752C946.74 572.704 947.465 570.955 948.916 569.504C950.367 567.968 952.159 567.2 954.292 567.2C956.34 567.2 958.089 567.968 959.54 569.504C961.076 570.955 961.844 572.704 961.844 574.752C961.844 576.885 961.076 578.677 959.54 580.128C958.089 581.664 956.34 582.432 954.292 582.432ZM989.917 559.776C988.808 559.776 987.869 559.392 987.101 558.624C986.333 557.856 985.906 556.917 985.821 555.808L984.285 491.04C984.285 489.504 984.797 488.181 985.821 487.072C986.93 485.963 988.296 485.408 989.917 485.408C991.453 485.408 992.776 485.963 993.885 487.072C994.994 488.181 995.506 489.504 995.421 491.04L993.885 555.808C993.885 556.917 993.501 557.856 992.733 558.624C991.965 559.392 991.026 559.776 989.917 559.776ZM989.917 582.432C987.784 582.432 985.992 581.664 984.541 580.128C983.09 578.677 982.365 576.885 982.365 574.752C982.365 572.704 983.09 570.955 984.541 569.504C985.992 567.968 987.784 567.2 989.917 567.2C991.965 567.2 993.714 567.968 995.165 569.504C996.701 570.955 997.469 572.704 997.469 574.752C997.469 576.885 996.701 578.677 995.165 580.128C993.714 581.664 991.965 582.432 989.917 582.432Z" fill="#38585A"/>
<path d="M34.8 176.8C36.16 176.64 37.32 177.04 38.28 178C39.32 178.96 39.84 180.12 39.84 181.48C39.84 182.84 39.32 183.96 38.28 184.84C37.32 185.8 36.16 186.24 34.8 186.16C32.56 185.92 30.44 185.72 28.44 185.56C26.52 185.48 24.64 185.44 22.8 185.44C21.04 185.44 19.24 185.48 17.4 185.56C15.64 185.72 13.68 185.92 11.52 186.16C10.16 186.24 8.96 185.8 7.92 184.84C6.96 183.96 6.48 182.84 6.48 181.48C6.48 180.12 6.96 178.96 7.92 178C8.96 177.04 10.16 176.64 11.52 176.8C12.4 176.88 13.36 176.96 14.4 177.04C15.44 177.12 16.48 177.2 17.52 177.28H17.76C18.32 177.28 18.6 176.96 18.6 176.32V106.12C18.6 105.48 18.32 105.16 17.76 105.16C16.72 105.16 15.64 105.2 14.52 105.28C13.48 105.36 12.48 105.48 11.52 105.64C10.16 105.72 8.96 105.32 7.92 104.44C6.96 103.48 6.48 102.32 6.48 100.96C6.48 99.6 6.96 98.44 7.92 97.48C8.96 96.52 10.16 96.12 11.52 96.28C13.84 96.52 15.96 96.72 17.88 96.88C19.8 96.96 21.68 97 23.52 97C25.28 97 27.04 96.96 28.8 96.88C30.64 96.72 32.64 96.52 34.8 96.28C36.16 96.12 37.32 96.52 38.28 97.48C39.32 98.44 39.84 99.6 39.84 100.96C39.84 102.32 39.32 103.48 38.28 104.44C37.32 105.32 36.16 105.72 34.8 105.64C33.92 105.48 32.96 105.4 31.92 105.4C30.96 105.32 30 105.24 29.04 105.16H28.8C28.24 105.16 27.96 105.48 27.96 106.12V176.32C27.96 176.96 28.28 177.28 28.92 177.28C29.88 177.28 30.84 177.24 31.8 177.16C32.84 177 33.84 176.88 34.8 176.8ZM133.289 96.28C134.649 96.12 135.809 96.52 136.769 97.48C137.729 98.44 138.209 99.6 138.209 100.96C138.209 102.32 137.729 103.48 136.769 104.44C135.809 105.32 134.649 105.72 133.289 105.64L129.209 105.28H128.969C128.409 105.28 128.129 105.6 128.129 106.24V179.8C128.129 181.4 127.569 182.76 126.449 183.88C125.409 184.92 124.089 185.44 122.489 185.44C120.009 185.44 118.049 184.4 116.609 182.32L73.4091 115.96C73.1691 115.56 72.9291 115.36 72.6891 115.36C72.2891 115.36 72.0891 115.68 72.0891 116.32V176.32C72.0891 177.04 72.4491 177.4 73.1691 177.4C74.2891 177.24 75.4091 177.12 76.5291 177.04C77.7291 176.96 78.8091 176.88 79.7691 176.8C81.1291 176.64 82.2891 177.04 83.2491 178C84.2891 178.96 84.8091 180.12 84.8091 181.48C84.8091 182.84 84.2891 183.96 83.2491 184.84C82.2891 185.8 81.1291 186.24 79.7691 186.16C77.5291 185.92 75.5291 185.72 73.7691 185.56C72.0091 185.48 70.3291 185.44 68.7291 185.44C67.2091 185.44 65.5691 185.48 63.8091 185.56C62.0491 185.72 60.0091 185.92 57.6891 186.16C56.4091 186.24 55.2491 185.8 54.2091 184.84C53.2491 183.96 52.7691 182.84 52.7691 181.48C52.7691 180.12 53.2491 178.96 54.2091 178C55.2491 177.04 56.4091 176.64 57.6891 176.8L61.7691 177.16H62.0091C62.5691 177.16 62.8491 176.84 62.8491 176.2V106.84C62.8491 106.12 62.5291 105.76 61.8891 105.76C61.1691 105.76 60.4491 105.88 59.7291 106.12C59.0891 106.36 58.4091 106.48 57.6891 106.48C56.3291 106.48 55.1691 106 54.2091 105.04C53.2491 104 52.7691 102.76 52.7691 101.32C52.7691 99.8 53.3291 98.56 54.4491 97.6C55.5691 96.56 56.8891 96.16 58.4091 96.4C59.4491 96.56 60.5291 96.72 61.6491 96.88C62.7691 97.04 63.8491 97.2 64.8891 97.36C67.1291 97.44 69.2091 98 71.1291 99.04C73.1291 100.08 74.7291 101.52 75.9291 103.36L117.569 168.04C117.809 168.44 118.049 168.64 118.289 168.64C118.689 168.64 118.889 168.32 118.889 167.68V106.12C118.889 105.4 118.529 105.04 117.809 105.04C116.689 105.12 115.529 105.2 114.329 105.28C113.209 105.36 112.169 105.48 111.209 105.64C109.849 105.72 108.649 105.32 107.609 104.44C106.649 103.48 106.169 102.32 106.169 100.96C106.169 99.6 106.649 98.44 107.609 97.48C108.649 96.52 109.849 96.12 111.209 96.28C113.529 96.52 115.529 96.72 117.209 96.88C118.969 96.96 120.649 97 122.249 97C123.849 97 125.489 96.96 127.169 96.88C128.929 96.72 130.969 96.52 133.289 96.28ZM249.166 117.04C249.326 118.4 248.886 119.6 247.846 120.64C246.886 121.68 245.686 122.2 244.246 122.2C242.806 122.2 241.606 121.68 240.646 120.64C239.686 119.6 239.246 118.4 239.326 117.04L239.926 107.56C239.926 106.84 239.606 106.48 238.966 106.48H220.006C219.286 106.48 218.926 106.84 218.926 107.56V176.32C218.926 176.96 219.206 177.28 219.766 177.28C220.806 177.28 221.846 177.24 222.886 177.16C224.006 177 225.046 176.88 226.006 176.8C227.366 176.64 228.526 177.04 229.486 178C230.446 178.96 230.926 180.12 230.926 181.48C230.926 182.76 230.446 183.84 229.486 184.72C228.526 185.68 227.366 186.12 226.006 186.04C223.686 185.8 221.846 185.64 220.486 185.56C219.126 185.48 218.006 185.4 217.126 185.32C216.246 185.32 215.286 185.32 214.246 185.32C213.126 185.32 212.126 185.32 211.246 185.32C210.366 185.4 209.286 185.48 208.006 185.56C206.726 185.64 204.926 185.8 202.606 186.04C201.326 186.12 200.166 185.68 199.126 184.72C198.166 183.84 197.686 182.76 197.686 181.48C197.686 180.12 198.166 178.96 199.126 178C200.166 177.04 201.326 176.64 202.606 176.8C203.486 176.88 204.446 176.96 205.486 177.04C206.526 177.12 207.566 177.2 208.606 177.28H208.846C209.406 177.28 209.686 176.96 209.686 176.32V107.56C209.686 106.84 209.326 106.48 208.606 106.48H189.526C188.886 106.48 188.566 106.84 188.566 107.56L189.166 117.04C189.326 118.4 188.886 119.6 187.846 120.64C186.886 121.68 185.686 122.2 184.246 122.2C182.806 122.2 181.606 121.68 180.646 120.64C179.686 119.6 179.246 118.4 179.326 117.04C179.486 115.2 179.646 113.2 179.806 111.04C179.966 108.88 180.086 106.72 180.166 104.56C180.326 102.48 181.086 100.76 182.446 99.4C183.886 98.04 185.606 97.36 187.606 97.36H241.006C243.006 97.36 244.686 98.08 246.046 99.52C247.486 100.88 248.246 102.56 248.326 104.56C248.486 106.72 248.646 108.88 248.806 111.04C248.966 113.2 249.086 115.2 249.166 117.04ZM336.375 176.8C337.735 176.64 338.895 177.04 339.855 178C340.815 178.96 341.295 180.12 341.295 181.48C341.295 182.84 340.815 183.96 339.855 184.84C338.895 185.8 337.735 186.24 336.375 186.16C334.135 185.92 332.095 185.72 330.255 185.56C328.415 185.48 326.615 185.44 324.855 185.44C323.255 185.44 321.575 185.48 319.815 185.56C318.135 185.72 316.255 185.92 314.175 186.16C312.895 186.24 311.735 185.8 310.695 184.84C309.735 183.96 309.255 182.84 309.255 181.48C309.255 180.12 309.735 178.96 310.695 178C311.735 177.04 312.895 176.64 314.175 176.8C315.215 176.88 316.295 176.96 317.415 177.04C318.535 177.12 319.655 177.24 320.775 177.4C321.495 177.4 321.855 177.04 321.855 176.32V145.12C321.855 144.4 321.495 144.04 320.775 144.04H276.375C275.655 144.04 275.295 144.4 275.295 145.12V176.32C275.295 177.04 275.655 177.4 276.375 177.4C277.495 177.24 278.615 177.12 279.735 177.04C280.855 176.96 281.935 176.88 282.975 176.8C284.335 176.64 285.495 177.04 286.455 178C287.415 178.96 287.895 180.12 287.895 181.48C287.895 182.84 287.415 183.96 286.455 184.84C285.495 185.8 284.335 186.24 282.975 186.16C280.735 185.92 278.695 185.72 276.855 185.56C275.015 185.48 273.215 185.44 271.455 185.44C269.855 185.44 268.175 185.48 266.415 185.56C264.735 185.72 262.855 185.92 260.775 186.16C259.495 186.24 258.335 185.8 257.295 184.84C256.335 183.96 255.855 182.84 255.855 181.48C255.855 180.12 256.335 178.96 257.295 178C258.335 177.04 259.495 176.64 260.775 176.8C262.135 177.04 263.535 177.16 264.975 177.16H265.215C265.775 177.16 266.055 176.84 266.055 176.2V106.24C266.055 105.44 265.695 105.12 264.975 105.28C263.535 105.28 262.135 105.4 260.775 105.64C259.495 105.72 258.335 105.32 257.295 104.44C256.335 103.48 255.855 102.32 255.855 100.96C255.855 99.6 256.335 98.44 257.295 97.48C258.335 96.52 259.495 96.12 260.775 96.28C263.095 96.52 265.135 96.72 266.895 96.88C268.735 96.96 270.535 97 272.295 97C273.895 97 275.535 96.96 277.215 96.88C278.975 96.72 280.895 96.52 282.975 96.28C284.335 96.12 285.495 96.52 286.455 97.48C287.415 98.44 287.895 99.6 287.895 100.96C287.895 102.32 287.415 103.48 286.455 104.44C285.495 105.32 284.335 105.72 282.975 105.64C281.935 105.48 280.855 105.36 279.735 105.28C278.615 105.2 277.495 105.12 276.375 105.04C275.655 105.04 275.295 105.4 275.295 106.12V133.84C275.295 134.56 275.655 134.92 276.375 134.92H320.775C321.495 134.92 321.855 134.56 321.855 133.84V106.12C321.855 105.4 321.495 105.04 320.775 105.04C319.655 105.12 318.535 105.2 317.415 105.28C316.295 105.36 315.215 105.48 314.175 105.64C312.895 105.72 311.735 105.32 310.695 104.44C309.735 103.48 309.255 102.32 309.255 100.96C309.255 99.6 309.735 98.44 310.695 97.48C311.735 96.52 312.895 96.12 314.175 96.28C316.495 96.52 318.535 96.72 320.295 96.88C322.135 96.96 323.935 97 325.695 97C327.295 97 328.935 96.96 330.615 96.88C332.375 96.72 334.295 96.52 336.375 96.28C337.735 96.12 338.895 96.52 339.855 97.48C340.815 98.44 341.295 99.6 341.295 100.96C341.295 102.32 340.815 103.48 339.855 104.44C338.895 105.32 337.735 105.72 336.375 105.64C335.095 105.4 333.695 105.28 332.175 105.28H331.935C331.375 105.28 331.095 105.6 331.095 106.24V176.2C331.095 176.84 331.415 177.16 332.055 177.16C333.495 177.16 334.935 177.04 336.375 176.8ZM444.413 176.8C445.773 176.64 446.933 177.04 447.893 178C448.933 178.96 449.453 180.12 449.453 181.48C449.453 182.84 448.933 183.96 447.893 184.84C446.933 185.8 445.773 186.24 444.413 186.16C439.853 185.68 436.173 185.44 433.373 185.44C430.333 185.44 426.653 185.68 422.333 186.16C420.973 186.24 419.813 185.8 418.853 184.84C417.893 183.96 417.413 182.84 417.413 181.48C417.413 180.12 417.893 178.96 418.853 178C419.813 177.04 420.973 176.64 422.333 176.8C423.213 176.88 424.093 176.96 424.973 177.04C425.933 177.12 426.893 177.2 427.853 177.28H428.093C428.893 177.28 429.093 176.88 428.693 176.08L422.333 162.04C422.093 161.48 421.693 161.2 421.133 161.2H378.893C378.413 161.2 378.013 161.48 377.693 162.04L371.333 176.08C371.253 176.24 371.213 176.44 371.213 176.68C371.213 177.08 371.453 177.28 371.933 177.28C372.893 177.28 373.853 177.24 374.813 177.16C375.853 177 376.813 176.88 377.693 176.8C379.053 176.64 380.213 177.04 381.173 178C382.133 178.96 382.613 180.12 382.613 181.48C382.613 182.84 382.133 183.96 381.173 184.84C380.213 185.8 379.053 186.24 377.693 186.16C373.053 185.68 369.373 185.44 366.653 185.44C363.533 185.44 359.853 185.68 355.613 186.16C354.253 186.24 353.053 185.8 352.013 184.84C351.053 183.96 350.573 182.84 350.573 181.48C350.573 180.12 351.053 178.96 352.013 178C353.053 177.04 354.253 176.64 355.613 176.8C357.053 177.04 358.533 177.16 360.053 177.16H360.293C360.693 177.16 361.053 176.92 361.373 176.44L396.413 98.56C397.133 97.04 398.333 96.28 400.013 96.28C401.613 96.28 402.773 97.04 403.493 98.56L438.653 176.44C438.973 177 439.413 177.24 439.973 177.16C441.493 177.16 442.973 177.04 444.413 176.8ZM400.733 113.8C400.653 113.32 400.413 113.08 400.013 113.08C399.773 113.08 399.533 113.32 399.293 113.8L382.493 151.24C382.413 151.4 382.373 151.56 382.373 151.72C382.373 152.28 382.693 152.56 383.333 152.56H416.693C417.653 152.56 417.933 152.12 417.533 151.24L400.733 113.8ZM511.549 117.04C511.709 118.4 511.269 119.6 510.229 120.64C509.269 121.68 508.069 122.2 506.629 122.2C505.189 122.2 503.989 121.68 503.029 120.64C502.069 119.6 501.629 118.4 501.709 117.04L502.309 107.56C502.309 106.84 501.989 106.48 501.349 106.48H482.389C481.669 106.48 481.309 106.84 481.309 107.56V176.32C481.309 176.96 481.589 177.28 482.149 177.28C483.189 177.28 484.229 177.24 485.269 177.16C486.389 177 487.429 176.88 488.389 176.8C489.749 176.64 490.909 177.04 491.869 178C492.829 178.96 493.309 180.12 493.309 181.48C493.309 182.76 492.829 183.84 491.869 184.72C490.909 185.68 489.749 186.12 488.389 186.04C486.069 185.8 484.229 185.64 482.869 185.56C481.509 185.48 480.389 185.4 479.509 185.32C478.629 185.32 477.669 185.32 476.629 185.32C475.509 185.32 474.509 185.32 473.629 185.32C472.749 185.4 471.669 185.48 470.389 185.56C469.109 185.64 467.309 185.8 464.989 186.04C463.709 186.12 462.549 185.68 461.509 184.72C460.549 183.84 460.069 182.76 460.069 181.48C460.069 180.12 460.549 178.96 461.509 178C462.549 177.04 463.709 176.64 464.989 176.8C465.869 176.88 466.829 176.96 467.869 177.04C468.909 177.12 469.949 177.2 470.989 177.28H471.229C471.789 177.28 472.069 176.96 472.069 176.32V107.56C472.069 106.84 471.709 106.48 470.989 106.48H451.909C451.269 106.48 450.949 106.84 450.949 107.56L451.549 117.04C451.709 118.4 451.269 119.6 450.229 120.64C449.269 121.68 448.069 122.2 446.629 122.2C445.189 122.2 443.989 121.68 443.029 120.64C442.069 119.6 441.629 118.4 441.709 117.04C441.869 115.2 442.029 113.2 442.189 111.04C442.349 108.88 442.469 106.72 442.549 104.56C442.709 102.48 443.469 100.76 444.829 99.4C446.269 98.04 447.989 97.36 449.989 97.36H503.389C505.389 97.36 507.069 98.08 508.429 99.52C509.869 100.88 510.629 102.56 510.709 104.56C510.869 106.72 511.029 108.88 511.189 111.04C511.349 113.2 511.469 115.2 511.549 117.04ZM631.374 161.08C632.654 162.2 633.294 163.6 633.294 165.28C633.294 166.4 633.014 167.36 632.454 168.16C628.534 173.6 623.574 177.96 617.574 181.24C611.574 184.52 605.054 186.16 598.014 186.16C592.094 186.16 586.534 185 581.334 182.68C576.134 180.28 571.574 177.04 567.654 172.96C563.734 168.8 560.654 164 558.414 158.56C556.174 153.12 555.054 147.32 555.054 141.16C555.054 134.92 556.174 129.12 558.414 123.76C560.654 118.32 563.734 113.56 567.654 109.48C571.574 105.32 576.134 102.08 581.334 99.76C586.534 97.44 592.094 96.28 598.014 96.28C604.014 96.28 609.294 97.24 613.854 99.16C618.494 101.08 622.614 103.76 626.214 107.2C627.814 108.72 629.254 110.4 630.534 112.24C631.814 114.08 632.454 116.08 632.454 118.24C632.454 120.24 631.734 122 630.294 123.52C628.854 125.04 627.094 125.8 625.014 125.8C622.854 125.8 621.094 125.04 619.734 123.52C618.374 122 617.694 120.28 617.694 118.36C617.694 116.84 618.094 115.52 618.894 114.4C619.294 113.76 619.254 113.24 618.774 112.84C616.214 110.04 613.094 108.08 609.414 106.96C605.814 105.76 602.014 105.16 598.014 105.16C591.534 105.16 585.774 106.76 580.734 109.96C575.694 113.16 571.694 117.48 568.734 122.92C565.854 128.28 564.414 134.36 564.414 141.16C564.414 147.96 565.894 154.04 568.854 159.4C571.814 164.76 575.814 169 580.854 172.12C585.974 175.16 591.694 176.68 598.014 176.68C603.774 176.68 609.054 175.4 613.854 172.84C618.654 170.2 622.534 166.64 625.494 162.16C626.374 160.88 627.534 160.24 628.974 160.24C629.934 160.24 630.734 160.52 631.374 161.08ZM730.116 176.8C731.476 176.64 732.636 177.04 733.596 178C734.636 178.96 735.156 180.12 735.156 181.48C735.156 182.84 734.636 183.96 733.596 184.84C732.636 185.8 731.476 186.24 730.116 186.16C725.556 185.68 721.876 185.44 719.076 185.44C716.036 185.44 712.356 185.68 708.036 186.16C706.676 186.24 705.516 185.8 704.556 184.84C703.596 183.96 703.116 182.84 703.116 181.48C703.116 180.12 703.596 178.96 704.556 178C705.516 177.04 706.676 176.64 708.036 176.8C708.916 176.88 709.796 176.96 710.676 177.04C711.636 177.12 712.596 177.2 713.556 177.28H713.796C714.596 177.28 714.796 176.88 714.396 176.08L708.036 162.04C707.796 161.48 707.396 161.2 706.836 161.2H664.596C664.116 161.2 663.716 161.48 663.396 162.04L657.036 176.08C656.956 176.24 656.916 176.44 656.916 176.68C656.916 177.08 657.156 177.28 657.636 177.28C658.596 177.28 659.556 177.24 660.516 177.16C661.556 177 662.516 176.88 663.396 176.8C664.756 176.64 665.916 177.04 666.876 178C667.836 178.96 668.316 180.12 668.316 181.48C668.316 182.84 667.836 183.96 666.876 184.84C665.916 185.8 664.756 186.24 663.396 186.16C658.756 185.68 655.076 185.44 652.356 185.44C649.236 185.44 645.556 185.68 641.316 186.16C639.956 186.24 638.756 185.8 637.716 184.84C636.756 183.96 636.276 182.84 636.276 181.48C636.276 180.12 636.756 178.96 637.716 178C638.756 177.04 639.956 176.64 641.316 176.8C642.756 177.04 644.236 177.16 645.756 177.16H645.996C646.396 177.16 646.756 176.92 647.076 176.44L682.116 98.56C682.836 97.04 684.036 96.28 685.716 96.28C687.316 96.28 688.476 97.04 689.196 98.56L724.356 176.44C724.676 177 725.116 177.24 725.676 177.16C727.196 177.16 728.676 177.04 730.116 176.8ZM686.436 113.8C686.356 113.32 686.116 113.08 685.716 113.08C685.476 113.08 685.236 113.32 684.996 113.8L668.196 151.24C668.116 151.4 668.076 151.56 668.076 151.72C668.076 152.28 668.396 152.56 669.036 152.56H702.396C703.356 152.56 703.636 152.12 703.236 151.24L686.436 113.8ZM752.381 119.32C752.141 122.44 752.781 125 754.301 127C755.901 129 758.061 130.68 760.781 132.04C763.581 133.32 766.621 134.48 769.901 135.52C773.261 136.56 776.621 137.68 779.981 138.88C783.421 140.08 786.541 141.6 789.341 143.44C792.221 145.28 794.501 147.64 796.181 150.52C797.941 153.4 798.821 157 798.821 161.32C798.821 166.36 797.461 170.76 794.741 174.52C792.101 178.2 788.541 181.08 784.061 183.16C779.581 185.16 774.701 186.16 769.421 186.16C762.381 186.16 756.501 184.88 751.781 182.32C747.061 179.76 743.421 176.96 740.861 173.92C739.901 172.8 739.181 171.64 738.701 170.44C738.221 169.16 737.981 167.96 737.981 166.84C737.981 164.84 738.621 163.12 739.901 161.68C741.261 160.24 743.181 159.52 745.661 159.52C747.661 159.52 749.301 160.28 750.581 161.8C751.941 163.32 752.621 165 752.621 166.84C752.621 168.12 752.341 169.28 751.781 170.32C751.541 170.96 751.621 171.48 752.021 171.88C754.181 173.72 756.621 175.08 759.341 175.96C762.141 176.76 764.981 177.16 767.861 177.16C771.541 177.16 775.021 176.52 778.301 175.24C781.581 173.96 784.261 172.12 786.341 169.72C788.421 167.32 789.461 164.52 789.461 161.32C789.461 158.44 788.621 156.08 786.941 154.24C785.261 152.32 783.021 150.72 780.221 149.44C777.501 148.16 774.501 147 771.221 145.96C767.941 144.84 764.621 143.68 761.261 142.48C757.981 141.2 754.941 139.64 752.141 137.8C749.421 135.96 747.221 133.68 745.541 130.96C743.861 128.24 743.021 124.84 743.021 120.76C743.021 114.76 744.381 109.96 747.101 106.36C749.901 102.76 753.461 100.16 757.781 98.56C762.181 96.96 766.701 96.16 771.341 96.16C775.821 96.16 780.061 96.8 784.061 98.08C788.061 99.28 791.341 100.96 793.901 103.12C796.461 105.28 797.741 107.76 797.741 110.56C797.661 112.56 796.901 114.32 795.461 115.84C794.101 117.28 792.381 118 790.301 118C788.301 118 786.581 117.28 785.141 115.84C783.701 114.32 782.981 112.56 782.981 110.56C782.981 110.24 782.981 109.92 782.981 109.6C783.061 109.28 783.141 108.96 783.221 108.64C783.381 107.92 783.421 107.56 783.341 107.56C782.381 106.92 780.781 106.36 778.541 105.88C776.301 105.32 773.821 105.04 771.101 105.04C768.301 105.04 765.501 105.48 762.701 106.36C759.981 107.16 757.661 108.6 755.741 110.68C753.821 112.68 752.701 115.56 752.381 119.32ZM873.09 162.64C874.45 162.64 875.65 163.16 876.69 164.2C877.73 165.16 878.17 166.36 878.01 167.8L877.29 177.88C877.21 179.88 876.45 181.6 875.01 183.04C873.57 184.4 871.85 185.08 869.85 185.08H827.37C825.85 185.08 824.29 185.2 822.69 185.44C821.17 185.68 819.69 185.88 818.25 186.04C816.73 186.28 815.41 185.88 814.29 184.84C813.25 183.88 812.73 182.64 812.73 181.12C812.73 179.6 813.25 178.36 814.29 177.4C815.41 176.44 816.73 176.08 818.25 176.32L821.01 176.68H821.25C821.89 176.68 822.21 176.36 822.21 175.72V106.72C822.21 106 821.89 105.64 821.25 105.64C820.61 105.64 819.97 105.76 819.33 106C818.77 106.16 818.17 106.24 817.53 106.24C816.25 106.24 815.13 105.76 814.17 104.8C813.21 103.76 812.73 102.6 812.73 101.32C812.73 99.8 813.25 98.56 814.29 97.6C815.41 96.56 816.73 96.16 818.25 96.4C819.85 96.56 821.49 96.76 823.17 97C824.93 97.24 826.57 97.36 828.09 97.36H869.85C871.85 97.36 873.57 98.08 875.01 99.52C876.45 100.88 877.21 102.56 877.29 104.56L878.01 114.64C878.17 116 877.73 117.2 876.69 118.24C875.73 119.28 874.53 119.8 873.09 119.8C871.73 119.8 870.57 119.32 869.61 118.36C868.65 117.4 868.17 116.28 868.17 115C868.17 113.88 868.21 112.72 868.29 111.52C868.45 110.24 868.57 108.96 868.65 107.68V107.44C868.65 106.88 868.33 106.6 867.69 106.6H832.65C831.93 106.6 831.57 106.96 831.57 107.68V133.84C831.57 134.56 831.93 134.92 832.65 134.92H862.77C864.05 134.92 865.13 135.36 866.01 136.24C866.89 137.12 867.33 138.2 867.33 139.48C867.33 140.76 866.89 141.84 866.01 142.72C865.13 143.52 864.05 143.92 862.77 143.92H832.65C831.93 143.92 831.57 144.28 831.57 145V174.76C831.57 175.48 831.93 175.84 832.65 175.84H867.69C868.49 175.84 868.81 175.48 868.65 174.76C868.57 173.4 868.45 172.12 868.29 170.92C868.21 169.64 868.17 168.48 868.17 167.44C868.17 166.08 868.65 164.96 869.61 164.08C870.57 163.12 871.73 162.64 873.09 162.64ZM891.086 205C890.846 205.16 890.486 205.24 890.006 205.24C889.446 205.24 888.926 205 888.446 204.52C888.046 204.12 887.846 203.64 887.846 203.08C887.846 202.36 888.206 201.76 888.926 201.28C892.126 199.12 894.446 196.92 895.886 194.68C897.406 192.52 898.166 190.68 898.166 189.16C898.166 187 897.046 185.72 894.806 185.32C892.566 184.92 890.926 184.04 889.886 182.68C888.846 181.24 888.326 179.68 888.326 178C888.326 176 888.966 174.16 890.246 172.48C891.606 170.8 893.526 170 896.006 170.08C898.726 170.08 900.886 171.36 902.486 173.92C904.086 176.4 904.886 179.4 904.886 182.92C904.886 186.68 903.806 190.6 901.646 194.68C899.566 198.84 896.046 202.28 891.086 205Z" fill="white"/>
<path d="M784.564 621.619C782.152 620.275 781.287 617.229 782.632 614.818C783.976 612.406 787.022 611.541 789.433 612.885L784.564 621.619ZM1083.4 628.127L1078.54 626.949C1078.57 626.799 1078.62 626.652 1078.67 626.506L1083.4 628.127ZM1151 725L1151.9 720.082L1151.9 720.082L1151 725ZM1386.29 623.131C1389.05 623.017 1391.38 625.161 1391.5 627.92L1393.36 672.881C1393.48 675.64 1391.33 677.97 1388.57 678.084C1385.81 678.198 1383.48 676.055 1383.37 673.296L1381.71 633.33L1341.75 634.988C1338.99 635.102 1336.66 632.958 1336.54 630.199C1336.43 627.44 1338.57 625.111 1341.33 624.996L1386.29 623.131ZM789.433 612.885C908.293 679.152 1007.89 697.835 1075.25 692.836C1108.99 690.331 1134.28 681.917 1149.92 670.941C1165.51 660 1170.8 647.205 1167.3 635.048L1176.91 632.284C1182 649.986 1173.33 666.726 1155.66 679.126C1138.05 691.491 1110.8 700.225 1075.99 702.808C1006.25 707.984 904.705 688.601 784.564 621.619L789.433 612.885ZM1167.3 635.048C1163.24 620.912 1156.84 611.866 1149.73 606.516C1142.65 601.181 1134.51 599.239 1126.38 599.927C1109.84 601.324 1093.67 613.58 1088.13 629.748L1078.67 626.506C1085.52 606.521 1105.11 591.687 1125.54 589.962C1135.89 589.088 1146.52 591.577 1155.75 598.529C1164.96 605.464 1172.39 616.56 1176.91 632.284L1167.3 635.048ZM1088.26 629.305C1085.42 641.026 1086.06 661.082 1095.15 679.541C1104.1 697.729 1121.28 714.459 1151.9 720.082L1150.1 729.918C1116.19 723.692 1096.45 704.824 1086.18 683.957C1076.04 663.361 1075.15 640.905 1078.54 626.949L1088.26 629.305ZM1151.9 720.082C1190.84 727.232 1236.01 717.131 1278 698.139C1319.94 679.174 1358.07 651.629 1382.82 624.741L1390.18 631.513C1364.42 659.498 1325.14 687.795 1282.12 707.251C1239.16 726.68 1191.82 737.579 1150.1 729.918L1151.9 720.082Z" fill="#38585A"/>
<path d="M937.918 75.8333C937.918 83.3363 934.32 89.9958 928.733 94.1804L934.233 101.514C938.225 98.5283 941.466 94.6523 943.697 90.1941C945.928 85.7359 947.088 80.8186 947.085 75.8333H937.918ZM915.001 52.9167C921.079 52.9167 926.908 55.3311 931.206 59.6288C935.504 63.9265 937.918 69.7555 937.918 75.8333H947.085C947.085 67.3243 943.704 59.1638 937.688 53.147C931.671 47.1302 923.51 43.75 915.001 43.75V52.9167ZM892.085 75.8333C892.085 69.7555 894.499 63.9265 898.797 59.6288C903.094 55.3311 908.923 52.9167 915.001 52.9167V43.75C906.492 43.75 898.332 47.1302 892.315 53.147C886.298 59.1638 882.918 67.3243 882.918 75.8333H892.085ZM901.27 94.1804C898.416 92.0488 896.099 89.28 894.504 86.0947C892.91 82.9093 892.081 79.3955 892.085 75.8333H882.918C882.914 80.8186 884.074 85.7359 886.305 90.1941C888.536 94.6523 891.777 98.5283 895.77 101.514L901.27 94.1804ZM910.404 120.489C910.259 113.5 908.815 106.599 906.146 100.139L897.676 103.645C899.904 109.04 901.118 114.815 901.242 120.681L910.404 120.489ZM921.152 118.05C919.242 119.006 917.137 119.503 915.001 119.503C912.866 119.503 910.76 119.006 908.85 118.05L904.753 126.25C907.935 127.841 911.444 128.669 915.001 128.669C918.559 128.669 922.068 127.841 925.25 126.25L921.152 118.05ZM923.856 100.143C921.187 106.602 919.741 113.501 919.594 120.489L928.76 120.681C928.884 114.815 930.099 109.04 932.326 103.645L923.856 100.143ZM925.25 126.25C926.286 125.729 927.161 124.936 927.78 123.954C928.399 122.973 928.738 121.841 928.76 120.681L919.594 120.489C919.606 119.979 919.758 119.482 920.033 119.052C920.308 118.622 920.695 118.276 921.152 118.05L925.25 126.25ZM901.242 120.681C901.288 122.991 902.59 125.168 904.753 126.25L908.85 118.05C909.308 118.276 909.695 118.622 909.97 119.052C910.244 119.482 910.396 119.979 910.409 120.489L901.242 120.681ZM895.77 101.514C896.457 102.036 896.865 102.339 897.149 102.568C897.438 102.806 897.383 102.797 897.255 102.632L904.496 97.0129C903.639 95.9038 902.31 94.9596 901.27 94.1804L895.77 101.514ZM906.146 100.139C905.789 99.2725 905.335 98.09 904.496 97.0129L897.255 102.632C897.195 102.55 897.181 102.508 897.241 102.632L897.401 102.99L897.676 103.645L906.146 100.139ZM928.733 94.1804C927.693 94.9596 926.359 95.9083 925.502 97.0129L932.748 102.632C932.624 102.793 932.565 102.806 932.853 102.573C933.138 102.339 933.541 102.036 934.233 101.518L928.733 94.1804ZM932.326 103.645L932.601 102.99L932.762 102.632C932.821 102.508 932.808 102.55 932.748 102.632L925.502 97.0129C924.663 98.0946 924.214 99.2725 923.856 100.143L932.326 103.645Z" fill="#FFC759"/>
<path d="M928.716 103.333C924.658 106.049 919.885 107.498 915.002 107.498C910.12 107.498 905.347 106.049 901.289 103.333" stroke="#FFC759" stroke-width="7"/>
<path fill-rule="evenodd" clip-rule="evenodd" d="M902.133 43.4643C898.951 43.1856 897.919 39.2728 896.518 36.5689C895.201 33.9587 893.706 31.0722 892.582 28.1833C889.961 22.0354 887.059 15.5125 886.585 9.54959C886.31 6.19439 886.871 1.25784 890.053 1.63036C893.239 2.09664 894.078 7.77825 894.641 10.8547C896.607 21.0091 898.765 29.7672 901.669 38.619C902.133 40.1091 903.447 41.9742 902.133 43.4643ZM970.604 18.3077C970.976 19.9853 969.667 21.9417 968.727 23.153C965.357 27.1595 960.297 30.7935 955.523 34.8913C953.368 36.7564 951.211 38.619 948.778 40.6691C947.185 41.9742 942.22 46.1682 940.911 42.998C939.879 40.5754 945.313 37.4077 946.908 36.1051C949.341 34.1462 952.153 31.8173 954.303 30.046C960.208 25.3906 964.608 21.3816 970.133 18.0289C970.319 18.1202 970.319 18.3077 970.604 18.3077ZM884.807 52.1286C880.876 53.8062 877.035 50.8236 874.034 49.0547C867.479 45.2332 861.676 41.6017 856.056 36.5689C853.338 34.1462 849.588 32.0961 848.839 28.3708C851.932 26.6932 856.431 30.7935 859.521 32.8436C865.517 36.7564 871.226 41.0392 877.035 44.9544C880.125 47.0045 884.155 48.4947 884.807 52.1286ZM978 60.0479C976.973 61.7255 974.444 62.0043 972.192 62.3793C966.202 63.4031 956.743 64.7995 950.372 64.427C948.874 64.427 947.094 63.9606 946.908 62.8431C946.531 59.9541 953.09 60.6079 955.052 60.5142C962.639 60.2354 971.068 58.5578 978 60.0479ZM845 68.4335C845.563 66.6621 847.53 67.6884 848.938 67.6884C856.991 67.6884 863.263 66.8496 871.698 67.9672C874.034 68.2459 881.715 68.246 882.094 69.7385C882.935 72.8125 876.1 73 873.285 73C869.917 73 865.143 72.8125 860.27 72.5337C853.898 72.2524 845.471 73.2788 845 68.4335ZM923.957 0.046527C927.236 -0.604777 926.864 5.73058 926.765 9.73462C926.393 17.8414 926.115 24.2706 925.081 32.0961C924.803 34.8 923.957 40.6691 921.15 40.2028C919.272 39.9241 919.183 34.1463 919.086 30.5123C918.809 21.9417 918.809 15.7938 920.21 8.6171C920.775 5.91566 921.524 0.510335 923.957 0.046527Z" fill="#FFC759"/>
</svg>
