<svg width="1412" height="761" viewBox="0 0 1412 761" fill="none" xmlns="http://www.w3.org/2000/svg">
<path d="M228.52 368.76C229.64 368.76 230.6 369.16 231.4 369.96C232.2 370.76 232.6 371.76 232.6 372.96C232.6 374.16 232.16 375.16 231.28 375.96C230.4 376.76 229.36 377.12 228.16 377.04C225.68 376.8 223.72 376.64 222.28 376.56C220.84 376.48 219.48 376.44 218.2 376.44C216.76 376.44 215.32 376.48 213.88 376.56C212.52 376.72 210.64 376.88 208.24 377.04C207.04 377.12 206 376.76 205.12 375.96C204.24 375.16 203.8 374.16 203.8 372.96C203.8 371.76 204.2 370.76 205 369.96C205.8 369.16 206.76 368.76 207.88 368.76C208.6 368.76 209.36 368.8 210.16 368.88C210.96 368.96 211.76 369.04 212.56 369.12H212.8C213.36 369.12 213.64 368.8 213.64 368.16V334.8C213.64 331.28 213.04 328.48 211.84 326.4C210.72 324.24 208.52 323.16 205.24 323.16C202.52 323.16 199.32 323.92 195.64 325.44C191.96 326.96 187.68 329.96 182.8 334.44C182.4 334.84 182.2 335.32 182.2 335.88V368.16C182.2 368.8 182.48 369.12 183.04 369.12C183.92 369.12 184.76 369.08 185.56 369C186.36 368.84 187.16 368.76 187.96 368.76C189.08 368.76 190.04 369.16 190.84 369.96C191.64 370.76 192.04 371.76 192.04 372.96C192.04 374.16 191.6 375.16 190.72 375.96C189.84 376.76 188.8 377.12 187.6 377.04C185.12 376.8 183.16 376.64 181.72 376.56C180.28 376.48 178.92 376.44 177.64 376.44C176.2 376.44 174.76 376.48 173.32 376.56C171.96 376.72 170.08 376.88 167.68 377.04C166.48 377.12 165.44 376.76 164.56 375.96C163.68 375.16 163.24 374.16 163.24 372.96C163.24 371.76 163.64 370.76 164.44 369.96C165.24 369.16 166.2 368.76 167.32 368.76C168.12 368.76 168.92 368.8 169.72 368.88C170.52 368.96 171.32 369.04 172.12 369.12H172.36C172.92 369.12 173.2 368.8 173.2 368.16V322.56C173.2 321.92 172.92 321.6 172.36 321.6C171.4 321.6 170.48 321.68 169.6 321.84C168.8 321.92 167.96 321.96 167.08 321.96C165.96 321.96 165 321.56 164.2 320.76C163.4 319.88 163 318.88 163 317.76C163 316.56 163.44 315.52 164.32 314.64C165.2 313.76 166.24 313.4 167.44 313.56C168.56 313.64 169.76 313.76 171.04 313.92C172.4 314 173.72 314.08 175 314.16C177 314.24 178.68 315 180.04 316.44C181.48 317.8 182.2 319.48 182.2 321.48V324.36C182.2 324.84 182.32 325.12 182.56 325.2C182.88 325.28 183.2 325.16 183.52 324.84C188 320.6 192.12 317.68 195.88 316.08C199.72 314.4 203.32 313.56 206.68 313.56C210.84 313.56 214.08 314.56 216.4 316.56C218.72 318.48 220.36 321.08 221.32 324.36C222.28 327.56 222.76 331.08 222.76 334.92V368.16C222.76 368.8 223.08 369.12 223.72 369.12C224.6 369.12 225.4 369.08 226.12 369C226.92 368.84 227.72 368.76 228.52 368.76ZM250.845 308.52C249.885 308.52 249.045 308.2 248.325 307.56C247.685 306.92 247.365 306.08 247.365 305.04C247.285 301.44 247.045 297.8 246.645 294.12C246.245 290.44 245.925 287.12 245.685 284.16C245.605 282.64 246.045 281.36 247.005 280.32C248.045 279.2 249.325 278.64 250.845 278.64C252.445 278.64 253.765 279.2 254.805 280.32C255.845 281.36 256.285 282.64 256.125 284.16C255.885 287.12 255.565 290.44 255.165 294.12C254.845 297.8 254.605 301.48 254.445 305.16C254.445 306.12 254.085 306.92 253.365 307.56C252.725 308.2 251.885 308.52 250.845 308.52ZM335.127 368.76C336.247 368.76 337.207 369.16 338.007 369.96C338.807 370.76 339.207 371.76 339.207 372.96C339.207 374.16 338.767 375.16 337.887 375.96C337.007 376.76 335.967 377.12 334.767 377.04C332.207 376.8 330.207 376.64 328.767 376.56C327.327 376.48 326.007 376.44 324.807 376.44C323.287 376.44 321.847 376.48 320.487 376.56C319.127 376.72 317.247 376.88 314.847 377.04C313.647 377.12 312.607 376.76 311.727 375.96C310.847 375.16 310.407 374.16 310.407 372.96C310.407 371.76 310.807 370.76 311.607 369.96C312.407 369.16 313.367 368.76 314.487 368.76C315.207 368.76 315.967 368.8 316.767 368.88C317.567 368.96 318.367 369.04 319.167 369.12H319.407C319.967 369.12 320.247 368.8 320.247 368.16V334.8C320.247 331.28 319.647 328.48 318.447 326.4C317.327 324.24 315.127 323.16 311.847 323.16C309.127 323.16 305.927 323.92 302.247 325.44C298.567 326.96 294.287 329.96 289.407 334.44C289.007 334.84 288.807 335.32 288.807 335.88V368.16C288.807 368.8 289.087 369.12 289.647 369.12C290.527 369.12 291.367 369.08 292.167 369C292.967 368.84 293.767 368.76 294.567 368.76C295.687 368.76 296.647 369.16 297.447 369.96C298.247 370.76 298.647 371.76 298.647 372.96C298.647 374.16 298.207 375.16 297.327 375.96C296.447 376.76 295.407 377.12 294.207 377.04C291.727 376.8 289.767 376.64 288.327 376.56C286.887 376.48 285.527 376.44 284.247 376.44C282.807 376.44 281.367 376.48 279.927 376.56C278.567 376.72 276.687 376.88 274.287 377.04C273.087 377.12 272.047 376.76 271.167 375.96C270.287 375.16 269.847 374.16 269.847 372.96C269.847 371.76 270.247 370.76 271.047 369.96C271.847 369.16 272.807 368.76 273.927 368.76C274.567 368.76 275.327 368.8 276.207 368.88C277.087 368.96 277.927 369.04 278.727 369.12H278.967C279.527 369.12 279.807 368.8 279.807 368.16V295.56C279.807 294.92 279.527 294.6 278.967 294.6C278.007 294.6 277.087 294.68 276.207 294.84C275.407 294.92 274.567 294.96 273.687 294.96C272.567 294.96 271.607 294.56 270.807 293.76C270.007 292.96 269.607 291.96 269.607 290.76C269.607 289.56 270.047 288.56 270.927 287.76C271.807 286.88 272.847 286.52 274.047 286.68C275.167 286.76 276.367 286.88 277.647 287.04C279.007 287.12 280.327 287.2 281.607 287.28C283.607 287.36 285.287 288.08 286.647 289.44C288.087 290.8 288.807 292.48 288.807 294.48V324.36C288.807 324.84 288.927 325.12 289.167 325.2C289.487 325.28 289.807 325.16 290.127 324.84C294.607 320.6 298.727 317.68 302.487 316.08C306.327 314.4 309.927 313.56 313.287 313.56C317.447 313.56 320.687 314.56 323.007 316.56C325.327 318.48 326.967 321.08 327.927 324.36C328.887 327.56 329.367 331.08 329.367 334.92V368.16C329.367 368.8 329.687 369.12 330.327 369.12C331.207 369.12 332.007 369.08 332.727 369C333.527 368.84 334.327 368.76 335.127 368.76ZM389.645 291.84L377.885 302.04C377.165 302.6 376.445 302.88 375.725 302.88C374.925 302.88 374.205 302.56 373.565 301.92C372.925 301.28 372.605 300.52 372.605 299.64C372.605 298.92 372.885 298.2 373.445 297.48L383.885 285.72C384.765 284.76 385.805 284.28 387.005 284.28C388.125 284.28 389.125 284.72 390.005 285.6C390.805 286.4 391.205 287.36 391.205 288.48C391.205 289.92 390.685 291.04 389.645 291.84ZM380.285 377.04C374.525 377.04 369.285 375.6 364.565 372.72C359.845 369.84 356.085 366 353.285 361.2C350.565 356.4 349.205 351.12 349.205 345.36C349.205 339.52 350.485 334.2 353.045 329.4C355.685 324.6 359.245 320.76 363.725 317.88C368.285 315 373.405 313.56 379.085 313.56C387.485 313.56 394.245 316.2 399.365 321.48C404.485 326.68 407.485 333.56 408.365 342.12C408.605 344.12 408.005 345.84 406.565 347.28C405.205 348.64 403.525 349.32 401.525 349.32H359.525C358.725 349.32 358.405 349.72 358.565 350.52C359.285 354.04 360.685 357.16 362.765 359.88C364.845 362.6 367.405 364.72 370.445 366.24C373.485 367.76 376.765 368.52 380.285 368.52C383.325 368.52 386.205 367.88 388.925 366.6C391.725 365.24 394.125 363.44 396.125 361.2C397.325 360 398.605 359.4 399.965 359.4C400.845 359.4 401.685 359.68 402.485 360.24C403.765 361.12 404.405 362.32 404.405 363.84C404.405 364.88 404.085 365.72 403.445 366.36C400.565 369.72 397.085 372.36 393.005 374.28C389.005 376.12 384.765 377.04 380.285 377.04ZM358.565 339.48C358.565 339.56 358.525 339.64 358.445 339.72C358.445 339.72 358.445 339.76 358.445 339.84C358.445 340.4 358.805 340.68 359.525 340.68H398.045C398.845 340.68 399.165 340.28 399.005 339.48C397.965 333.88 395.845 329.52 392.645 326.4C389.445 323.2 384.925 321.6 379.085 321.6C373.485 321.6 368.885 323.24 365.285 326.52C361.685 329.8 359.445 334.12 358.565 339.48ZM433.429 331.56C433.429 333.56 434.389 335.12 436.309 336.24C438.309 337.36 440.829 338.28 443.869 339C446.989 339.72 450.269 340.48 453.709 341.28C457.149 342.08 460.389 343.12 463.429 344.4C466.549 345.68 469.069 347.48 470.989 349.8C472.989 352.04 473.989 355.08 473.989 358.92C473.989 362.2 472.949 365.24 470.869 368.04C468.869 370.76 465.869 372.96 461.869 374.64C457.949 376.24 453.109 377.04 447.349 377.04C444.309 377.04 441.189 376.68 437.989 375.96C434.869 375.24 431.989 374.24 429.349 372.96C426.709 371.6 424.589 370.04 422.989 368.28C421.389 366.44 420.589 364.4 420.589 362.16C420.589 360.24 421.269 358.6 422.629 357.24C423.989 355.88 425.589 355.2 427.429 355.2C429.509 355.2 431.149 355.92 432.349 357.36C433.629 358.72 434.269 360.32 434.269 362.16C434.269 362.48 434.229 362.8 434.149 363.12C434.149 363.36 434.109 363.64 434.029 363.96C433.949 364.04 433.909 364.2 433.909 364.44C433.909 364.84 434.149 365.16 434.629 365.4C436.389 366.12 438.349 366.8 440.509 367.44C442.669 368.08 444.949 368.4 447.349 368.4C450.469 368.4 453.349 368.04 455.989 367.32C458.709 366.52 460.869 365.4 462.469 363.96C464.149 362.52 464.989 360.72 464.989 358.56C464.989 356.32 463.989 354.6 461.989 353.4C460.069 352.12 457.549 351.12 454.429 350.4C451.389 349.6 448.149 348.84 444.709 348.12C441.269 347.32 437.989 346.32 434.869 345.12C431.829 343.84 429.309 342.16 427.309 340.08C425.389 337.92 424.429 335.08 424.429 331.56C424.429 328.36 425.309 325.44 427.069 322.8C428.909 320.08 431.629 317.92 435.229 316.32C438.909 314.64 443.469 313.8 448.909 313.8C452.589 313.8 456.069 314.28 459.349 315.24C462.709 316.2 465.429 317.6 467.509 319.44C469.669 321.28 470.749 323.48 470.749 326.04C470.749 326.28 470.749 326.56 470.749 326.88C470.749 327.12 470.709 327.36 470.629 327.6C470.389 329.2 469.629 330.56 468.349 331.68C467.069 332.72 465.589 333.24 463.909 333.24C461.909 333.24 460.269 332.56 458.989 331.2C457.709 329.84 457.069 328.24 457.069 326.4C457.069 326.16 457.069 325.92 457.069 325.68C457.069 325.36 457.109 325.08 457.189 324.84C457.269 324.76 457.309 324.6 457.309 324.36C457.309 323.88 457.069 323.6 456.589 323.52C454.589 322.64 452.029 322.2 448.909 322.2C446.509 322.2 444.109 322.56 441.709 323.28C439.309 323.92 437.309 324.92 435.709 326.28C434.189 327.64 433.429 329.4 433.429 331.56ZM501.918 303.12C499.918 303.12 498.198 302.44 496.758 301.08C495.398 299.64 494.718 297.92 494.718 295.92C494.718 293.84 495.398 292.12 496.758 290.76C498.198 289.4 499.918 288.72 501.918 288.72C503.918 288.72 505.598 289.4 506.958 290.76C508.398 292.12 509.118 293.84 509.118 295.92C509.118 297.92 508.398 299.64 506.958 301.08C505.598 302.44 503.918 303.12 501.918 303.12ZM491.478 377.16C490.118 377.24 488.918 376.8 487.878 375.84C486.918 374.96 486.438 373.84 486.438 372.48C486.438 371.12 486.918 369.96 487.878 369C488.918 368.04 490.118 367.64 491.478 367.8C492.198 367.88 492.958 367.96 493.758 368.04C494.638 368.12 495.478 368.2 496.277 368.28H496.518C497.078 368.28 497.358 367.92 497.358 367.2V323.52C497.358 322.88 497.078 322.56 496.518 322.56C494.758 322.56 493.078 322.68 491.478 322.92C490.118 323 488.918 322.6 487.878 321.72C486.918 320.76 486.438 319.6 486.438 318.24C486.438 316.88 486.918 315.72 487.878 314.76C488.918 313.8 490.118 313.4 491.478 313.56C493.718 313.72 495.278 313.88 496.158 314.04C497.038 314.12 497.638 314.16 497.958 314.16C498.358 314.16 498.798 314.16 499.278 314.16C501.278 314.16 502.958 314.88 504.318 316.32C505.758 317.68 506.478 319.36 506.478 321.36V367.2C506.478 367.92 506.758 368.28 507.318 368.28C508.198 368.28 509.038 368.24 509.838 368.16C510.718 368 511.558 367.88 512.358 367.8C513.718 367.64 514.878 368.04 515.838 369C516.798 369.96 517.278 371.12 517.278 372.48C517.278 373.84 516.798 374.96 515.838 375.84C514.878 376.8 513.718 377.24 512.358 377.16C510.758 377 509.038 376.84 507.198 376.68C505.358 376.52 503.598 376.44 501.918 376.44C500.238 376.44 498.478 376.52 496.638 376.68C494.798 376.84 493.078 377 491.478 377.16ZM563.325 356.4C564.685 356.4 565.845 356.88 566.805 357.84C567.765 358.8 568.165 359.96 568.005 361.32C566.805 371.88 561.565 377.16 552.285 377.16C549.245 377.16 546.565 376.44 544.245 375C542.005 373.56 540.245 371.68 538.965 369.36C537.685 366.96 537.045 364.36 537.045 361.56V323.88C537.045 323.16 536.685 322.8 535.965 322.8H528.765C527.645 322.8 526.645 322.4 525.765 321.6C524.965 320.72 524.565 319.72 524.565 318.6C524.565 317.48 524.965 316.52 525.765 315.72C526.645 314.92 527.645 314.52 528.765 314.52H535.965C536.685 314.52 537.045 314.16 537.045 313.44V292.92C537.045 291.64 537.485 290.56 538.365 289.68C539.245 288.8 540.325 288.36 541.605 288.36C542.805 288.36 543.845 288.8 544.725 289.68C545.605 290.56 546.045 291.64 546.045 292.92V313.44C546.045 314.16 546.405 314.52 547.125 314.52H561.645C562.765 314.52 563.725 314.92 564.525 315.72C565.325 316.52 565.725 317.48 565.725 318.6C565.725 319.72 565.325 320.72 564.525 321.6C563.725 322.4 562.765 322.8 561.645 322.8H547.125C546.405 322.8 546.045 323.16 546.045 323.88V361.56C546.045 361.8 546.125 362.48 546.285 363.6C546.525 364.64 547.085 365.68 547.965 366.72C548.845 367.68 550.285 368.16 552.285 368.16C554.605 368.16 556.245 367.52 557.205 366.24C558.165 364.96 558.805 363 559.125 360.36C559.285 359.24 559.765 358.32 560.565 357.6C561.365 356.8 562.285 356.4 563.325 356.4ZM630.507 349.32H588.507C587.707 349.32 587.387 349.72 587.547 350.52C588.267 354.04 589.667 357.16 591.747 359.88C593.827 362.6 596.387 364.72 599.427 366.24C602.467 367.76 605.747 368.52 609.267 368.52C612.307 368.52 615.187 367.88 617.907 366.6C620.707 365.24 623.107 363.44 625.107 361.2C626.307 360 627.587 359.4 628.947 359.4C629.827 359.4 630.667 359.68 631.467 360.24C632.747 361.12 633.387 362.32 633.387 363.84C633.387 364.88 633.067 365.72 632.427 366.36C629.547 369.72 626.067 372.36 621.987 374.28C617.987 376.12 613.747 377.04 609.267 377.04C603.507 377.04 598.267 375.6 593.547 372.72C588.907 369.84 585.187 366 582.387 361.2C579.667 356.4 578.307 351.12 578.307 345.36C578.307 339.52 579.587 334.2 582.147 329.4C584.707 324.6 588.227 320.76 592.707 317.88C597.267 315 602.387 313.56 608.067 313.56C613.667 313.56 618.547 314.76 622.707 317.16C626.867 319.56 630.187 322.92 632.667 327.24C635.227 331.48 636.787 336.44 637.347 342.12C637.587 344.12 636.987 345.84 635.547 347.28C634.187 348.64 632.507 349.32 630.507 349.32ZM608.067 321.6C602.467 321.6 597.867 323.24 594.267 326.52C590.667 329.8 588.427 334.12 587.547 339.48C587.547 339.56 587.507 339.64 587.427 339.72C587.427 339.72 587.427 339.76 587.427 339.84C587.427 340.4 587.787 340.68 588.507 340.68H627.027C627.907 340.68 628.227 340.28 627.987 339.48C627.027 333.88 624.907 329.52 621.627 326.4C618.427 323.2 613.907 321.6 608.067 321.6ZM693.494 376.08H654.014C652.654 376.08 651.534 375.6 650.654 374.64C649.774 373.68 649.334 372.56 649.334 371.28C649.334 370.8 649.414 370.32 649.574 369.84C649.734 369.28 649.974 368.8 650.294 368.4L683.054 324.84C683.214 324.52 683.294 324.32 683.294 324.24C683.294 323.76 682.974 323.52 682.334 323.52H658.214C657.574 323.52 657.254 323.8 657.254 324.36C657.254 325.16 657.294 326.04 657.374 327C657.534 327.88 657.654 328.72 657.734 329.52C657.894 330.88 657.494 332.08 656.534 333.12C655.574 334.08 654.414 334.56 653.054 334.56C651.694 334.56 650.534 334.08 649.574 333.12C648.694 332.08 648.294 330.88 648.374 329.52C648.534 328.32 648.654 327.04 648.734 325.68C648.894 324.32 649.014 322.96 649.094 321.6C649.174 319.6 649.894 317.92 651.254 316.56C652.614 315.12 654.294 314.4 656.294 314.4H692.294C693.734 314.4 694.894 314.92 695.774 315.96C696.654 316.92 697.094 318.04 697.094 319.32C697.094 320.2 696.774 321.16 696.134 322.2L663.254 365.76C663.094 366.08 663.014 366.28 663.014 366.36C663.014 366.84 663.334 367.08 663.974 367.08H691.454C692.094 367.08 692.414 366.8 692.414 366.24C692.414 364.4 692.294 362.64 692.054 360.96C691.974 359.6 692.374 358.44 693.254 357.48C694.214 356.44 695.374 355.92 696.734 355.92C698.094 355.92 699.214 356.44 700.094 357.48C701.054 358.44 701.454 359.6 701.294 360.96C701.214 362.16 701.094 363.44 700.934 364.8C700.854 366.16 700.774 367.52 700.694 368.88C700.614 370.88 699.854 372.6 698.414 374.04C697.054 375.4 695.414 376.08 693.494 376.08ZM779.221 313.68C784.181 313.68 788.461 314.64 792.061 316.56C795.741 318.4 798.781 320.88 801.181 324C803.581 327.12 805.381 330.56 806.581 334.32C807.781 338 808.381 341.68 808.381 345.36C808.381 349.12 807.701 352.88 806.341 356.64C805.061 360.4 803.101 363.84 800.461 366.96C797.901 370 794.741 372.44 790.981 374.28C787.221 376.12 782.901 377.04 778.021 377.04C774.981 377.04 772.101 376.48 769.381 375.36C766.661 374.24 764.181 372.72 761.941 370.8C761.781 370.64 761.541 370.56 761.221 370.56C760.821 370.56 760.621 370.84 760.621 371.4V396.84C760.621 397.48 760.901 397.8 761.461 397.8C762.341 397.8 763.181 397.72 763.981 397.56C764.861 397.48 765.701 397.44 766.501 397.44C767.621 397.44 768.581 397.84 769.381 398.64C770.181 399.44 770.581 400.44 770.581 401.64C770.581 402.84 770.141 403.84 769.261 404.64C768.381 405.44 767.301 405.8 766.021 405.72C763.541 405.48 761.581 405.32 760.141 405.24C758.701 405.16 757.381 405.12 756.181 405.12C754.661 405.12 753.221 405.16 751.861 405.24C750.501 405.4 748.621 405.56 746.221 405.72C744.941 405.8 743.861 405.44 742.981 404.64C742.101 403.84 741.661 402.84 741.661 401.64C741.661 400.44 742.061 399.44 742.861 398.64C743.661 397.84 744.621 397.44 745.741 397.44C746.461 397.44 747.221 397.48 748.021 397.56C748.901 397.64 749.741 397.72 750.541 397.8H750.781C751.341 397.8 751.621 397.48 751.621 396.84V323.4C751.621 322.76 751.341 322.44 750.781 322.44C749.741 322.44 748.741 322.52 747.781 322.68C746.901 322.76 745.981 322.8 745.021 322.8C743.821 322.8 742.781 322.36 741.901 321.48C741.101 320.52 740.701 319.44 740.701 318.24C740.701 316.88 741.181 315.72 742.141 314.76C743.181 313.8 744.341 313.4 745.621 313.56C747.221 313.72 748.941 313.88 750.781 314.04C752.621 314.2 754.381 314.28 756.061 314.28C757.341 314.28 758.421 314.72 759.301 315.6C760.181 316.48 760.621 317.56 760.621 318.84V321.12C760.621 321.6 760.741 321.92 760.981 322.08C761.221 322.16 761.501 322.04 761.821 321.72C764.141 319.4 766.741 317.48 769.621 315.96C772.501 314.44 775.701 313.68 779.221 313.68ZM778.261 368.52C782.261 368.52 785.781 367.48 788.821 365.4C791.941 363.32 794.381 360.52 796.141 357C797.981 353.4 798.901 349.48 798.901 345.24C798.901 340.92 798.061 337.04 796.381 333.6C794.701 330.16 792.301 327.44 789.181 325.44C786.141 323.44 782.541 322.44 778.381 322.44C774.941 322.44 771.701 323.28 768.661 324.96C765.701 326.56 763.181 328.8 761.101 331.68C760.781 332.08 760.621 332.52 760.621 333V359.16C760.621 359.56 760.741 359.96 760.981 360.36C762.821 362.76 765.181 364.72 768.061 366.24C770.941 367.76 774.341 368.52 778.261 368.52ZM873.853 367.92C875.053 367.92 876.053 368.4 876.853 369.36C877.733 370.24 878.173 371.28 878.173 372.48C878.173 373.92 877.653 375.08 876.613 375.96C875.573 376.92 874.373 377.28 873.013 377.04C871.973 376.8 870.853 376.6 869.653 376.44C868.453 376.28 867.253 376.16 866.053 376.08C864.453 376.08 863.013 375.6 861.733 374.64C860.453 373.68 859.573 372.44 859.093 370.92C858.853 370.2 858.453 370.08 857.893 370.56C855.173 372.64 852.213 374.24 849.013 375.36C845.813 376.48 842.013 377.04 837.613 377.04C832.333 377.04 827.933 375.52 824.413 372.48C820.893 369.36 819.133 365.32 819.133 360.36C819.133 354.68 821.133 350.04 825.133 346.44C829.133 342.84 834.413 341.04 840.973 341.04C843.453 341.04 846.093 341.32 848.893 341.88C851.693 342.44 854.573 343.32 857.533 344.52C857.613 344.52 857.693 344.56 857.773 344.64C857.853 344.64 857.933 344.64 858.013 344.64C858.573 344.64 858.853 344.32 858.853 343.68V338.88C858.853 333.2 857.333 328.96 854.293 326.16C851.333 323.36 847.853 321.96 843.853 321.96C841.213 321.96 838.493 322.56 835.693 323.76C835.133 324.08 834.933 324.56 835.093 325.2C835.333 325.92 835.453 326.6 835.453 327.24C835.453 329 834.813 330.6 833.533 332.04C832.333 333.48 830.693 334.2 828.613 334.2C826.453 334.2 824.733 333.48 823.453 332.04C822.253 330.52 821.653 328.8 821.653 326.88C821.653 324.88 822.373 323.04 823.813 321.36C825.973 318.88 828.653 316.96 831.853 315.6C835.133 314.24 838.613 313.56 842.293 313.56C848.533 313.56 853.493 314.72 857.173 317.04C860.933 319.36 863.613 322.44 865.213 326.28C866.893 330.12 867.733 334.32 867.733 338.88V367.8C867.733 368.44 868.053 368.76 868.693 368.76C869.573 368.76 870.453 368.64 871.333 368.4C872.213 368.08 873.053 367.92 873.853 367.92ZM837.613 368.4C842.253 368.24 846.133 367.48 849.253 366.12C852.373 364.76 855.413 362.56 858.373 359.52C858.693 359.12 858.853 358.68 858.853 358.2V354.84C858.853 354.28 858.613 353.88 858.133 353.64C856.453 352.68 854.333 351.72 851.773 350.76C849.213 349.8 845.773 349.32 841.453 349.32C836.493 349.32 832.933 350.44 830.773 352.68C828.693 354.92 827.653 357.48 827.653 360.36C827.653 362.28 828.173 363.84 829.213 365.04C830.253 366.16 831.533 367 833.053 367.56C834.653 368.12 836.173 368.4 837.613 368.4ZM901.359 331.56C901.359 333.56 902.319 335.12 904.239 336.24C906.239 337.36 908.759 338.28 911.799 339C914.919 339.72 918.199 340.48 921.639 341.28C925.079 342.08 928.319 343.12 931.359 344.4C934.479 345.68 936.999 347.48 938.919 349.8C940.919 352.04 941.919 355.08 941.919 358.92C941.919 362.2 940.879 365.24 938.799 368.04C936.799 370.76 933.799 372.96 929.799 374.64C925.879 376.24 921.039 377.04 915.279 377.04C912.239 377.04 909.119 376.68 905.919 375.96C902.799 375.24 899.919 374.24 897.279 372.96C894.639 371.6 892.519 370.04 890.919 368.28C889.319 366.44 888.519 364.4 888.519 362.16C888.519 360.24 889.199 358.6 890.559 357.24C891.919 355.88 893.519 355.2 895.359 355.2C897.439 355.2 899.079 355.92 900.279 357.36C901.559 358.72 902.199 360.32 902.199 362.16C902.199 362.48 902.159 362.8 902.079 363.12C902.079 363.36 902.039 363.64 901.959 363.96C901.879 364.04 901.839 364.2 901.839 364.44C901.839 364.84 902.079 365.16 902.559 365.4C904.319 366.12 906.279 366.8 908.439 367.44C910.599 368.08 912.879 368.4 915.279 368.4C918.399 368.4 921.279 368.04 923.919 367.32C926.639 366.52 928.799 365.4 930.399 363.96C932.079 362.52 932.919 360.72 932.919 358.56C932.919 356.32 931.919 354.6 929.919 353.4C927.999 352.12 925.479 351.12 922.359 350.4C919.319 349.6 916.079 348.84 912.639 348.12C909.199 347.32 905.919 346.32 902.799 345.12C899.759 343.84 897.239 342.16 895.239 340.08C893.319 337.92 892.359 335.08 892.359 331.56C892.359 328.36 893.239 325.44 894.999 322.8C896.839 320.08 899.559 317.92 903.159 316.32C906.839 314.64 911.399 313.8 916.839 313.8C920.519 313.8 923.999 314.28 927.279 315.24C930.639 316.2 933.359 317.6 935.439 319.44C937.599 321.28 938.679 323.48 938.679 326.04C938.679 326.28 938.679 326.56 938.679 326.88C938.679 327.12 938.639 327.36 938.559 327.6C938.319 329.2 937.559 330.56 936.279 331.68C934.999 332.72 933.519 333.24 931.839 333.24C929.839 333.24 928.199 332.56 926.919 331.2C925.639 329.84 924.999 328.24 924.999 326.4C924.999 326.16 924.999 325.92 924.999 325.68C924.999 325.36 925.039 325.08 925.119 324.84C925.199 324.76 925.239 324.6 925.239 324.36C925.239 323.88 924.999 323.6 924.519 323.52C922.519 322.64 919.959 322.2 916.839 322.2C914.439 322.2 912.039 322.56 909.639 323.28C907.239 323.92 905.239 324.92 903.639 326.28C902.119 327.64 901.359 329.4 901.359 331.56ZM1007.65 302.04L995.767 291.84C994.727 290.96 994.207 289.88 994.207 288.6C994.207 287.48 994.647 286.48 995.527 285.6C996.407 284.72 997.407 284.28 998.527 284.28C999.807 284.28 1000.85 284.76 1001.65 285.72L1011.97 297.48C1012.53 298.2 1012.81 298.92 1012.81 299.64C1012.81 300.52 1012.49 301.28 1011.85 301.92C1011.21 302.56 1010.49 302.88 1009.69 302.88C1009.05 302.88 1008.37 302.6 1007.65 302.04ZM1039.09 367.92C1040.29 367.92 1041.29 368.4 1042.09 369.36C1042.97 370.24 1043.41 371.28 1043.41 372.48C1043.41 373.92 1042.89 375.08 1041.85 375.96C1040.81 376.92 1039.61 377.28 1038.25 377.04C1037.21 376.8 1036.09 376.6 1034.89 376.44C1033.69 376.28 1032.49 376.16 1031.29 376.08C1029.69 376.08 1028.25 375.6 1026.97 374.64C1025.69 373.68 1024.81 372.44 1024.33 370.92C1024.09 370.2 1023.69 370.08 1023.13 370.56C1020.41 372.64 1017.45 374.24 1014.25 375.36C1011.05 376.48 1007.25 377.04 1002.85 377.04C997.567 377.04 993.167 375.52 989.647 372.48C986.127 369.36 984.367 365.32 984.367 360.36C984.367 354.68 986.367 350.04 990.367 346.44C994.367 342.84 999.647 341.04 1006.21 341.04C1008.69 341.04 1011.33 341.32 1014.13 341.88C1016.93 342.44 1019.81 343.32 1022.77 344.52C1022.85 344.52 1022.93 344.56 1023.01 344.64C1023.09 344.64 1023.17 344.64 1023.25 344.64C1023.81 344.64 1024.09 344.32 1024.09 343.68V338.88C1024.09 333.2 1022.57 328.96 1019.53 326.16C1016.57 323.36 1013.09 321.96 1009.09 321.96C1006.45 321.96 1003.73 322.56 1000.93 323.76C1000.37 324.08 1000.17 324.56 1000.33 325.2C1000.57 325.92 1000.69 326.6 1000.69 327.24C1000.69 329 1000.05 330.6 998.767 332.04C997.567 333.48 995.927 334.2 993.847 334.2C991.687 334.2 989.967 333.48 988.687 332.04C987.487 330.52 986.887 328.8 986.887 326.88C986.887 324.88 987.607 323.04 989.047 321.36C991.207 318.88 993.887 316.96 997.087 315.6C1000.37 314.24 1003.85 313.56 1007.53 313.56C1013.77 313.56 1018.73 314.72 1022.41 317.04C1026.17 319.36 1028.85 322.44 1030.45 326.28C1032.13 330.12 1032.97 334.32 1032.97 338.88V367.8C1032.97 368.44 1033.29 368.76 1033.93 368.76C1034.81 368.76 1035.69 368.64 1036.57 368.4C1037.45 368.08 1038.29 367.92 1039.09 367.92ZM1002.85 368.4C1007.49 368.24 1011.37 367.48 1014.49 366.12C1017.61 364.76 1020.65 362.56 1023.61 359.52C1023.93 359.12 1024.09 358.68 1024.09 358.2V354.84C1024.09 354.28 1023.85 353.88 1023.37 353.64C1021.69 352.68 1019.57 351.72 1017.01 350.76C1014.45 349.8 1011.01 349.32 1006.69 349.32C1001.73 349.32 998.167 350.44 996.007 352.68C993.927 354.92 992.887 357.48 992.887 360.36C992.887 362.28 993.407 363.84 994.447 365.04C995.487 366.16 996.767 367 998.287 367.56C999.887 368.12 1001.41 368.4 1002.85 368.4Z" fill="white"/>
<path d="M109.952 568.32C111.403 568.149 112.64 568.576 113.664 569.6C114.773 570.624 115.328 571.861 115.328 573.312C115.328 574.763 114.773 575.957 113.664 576.896C112.64 577.92 111.403 578.389 109.952 578.304C107.477 578.048 105.301 577.835 103.424 577.664C101.632 577.579 99.8827 577.536 98.176 577.536C96.5547 577.536 94.8053 577.579 92.928 577.664C91.0507 577.835 88.8747 578.048 86.4 578.304C84.9493 578.389 83.712 577.92 82.688 576.896C81.664 575.957 81.152 574.763 81.152 573.312C81.152 571.861 81.664 570.624 82.688 569.6C83.712 568.576 84.9493 568.149 86.4 568.32C87.5093 568.405 88.6613 568.491 89.856 568.576C91.0507 568.661 92.2453 568.789 93.44 568.96C94.208 568.96 94.592 568.576 94.592 567.808V498.816C94.592 498.219 94.4213 497.92 94.08 497.92C93.7387 497.835 93.4827 498.048 93.312 498.56L65.536 562.816C65.024 563.925 64.2133 564.864 63.104 565.632C62.08 566.4 60.928 566.784 59.648 566.784C58.4533 566.784 57.3013 566.4 56.192 565.632C55.0827 564.864 54.3147 563.925 53.888 562.816L28.032 498.048C27.9467 497.536 27.7333 497.28 27.392 497.28C26.9653 497.28 26.752 497.621 26.752 498.304V567.808C26.752 568.576 27.136 568.96 27.904 568.96C29.0987 568.789 30.2933 568.661 31.488 568.576C32.6827 568.491 33.8347 568.405 34.944 568.32C36.3947 568.149 37.632 568.576 38.656 569.6C39.68 570.624 40.192 571.861 40.192 573.312C40.192 574.763 39.68 575.957 38.656 576.896C37.632 577.92 36.3947 578.389 34.944 578.304C32.4693 578.048 30.2933 577.835 28.416 577.664C26.624 577.579 24.8747 577.536 23.168 577.536C21.4613 577.536 19.6693 577.579 17.792 577.664C16 577.835 13.8667 578.048 11.392 578.304C9.94133 578.389 8.66133 577.92 7.552 576.896C6.528 575.957 6.016 574.763 6.016 573.312C6.016 571.861 6.528 570.624 7.552 569.6C8.66133 568.576 9.94133 568.149 11.392 568.32L15.616 568.704H15.872C16.4693 568.704 16.768 568.363 16.768 567.68V493.184C16.768 492.331 16.384 491.989 15.616 492.16C14.848 492.16 14.08 492.203 13.312 492.288C12.6293 492.373 11.904 492.416 11.136 492.416C9.77067 492.416 8.61867 491.947 7.68 491.008C6.74133 489.984 6.272 488.789 6.272 487.424C6.272 485.973 6.82667 484.779 7.936 483.84C9.04533 482.816 10.3253 482.389 11.776 482.56C14.592 482.901 16.9387 483.157 18.816 483.328C20.6933 483.499 22.656 483.584 24.704 483.584C26.9227 483.584 28.9707 484.224 30.848 485.504C32.7253 486.784 34.0907 488.491 34.944 490.624L59.136 552.192C59.392 552.704 59.648 552.96 59.904 552.96C60.3307 552.96 60.5867 552.704 60.672 552.192L86.656 490.496C87.5093 488.448 88.8747 486.784 90.752 485.504C92.7147 484.224 94.8053 483.584 97.024 483.584C99.1573 483.584 101.12 483.499 102.912 483.328C104.704 483.157 106.923 482.901 109.568 482.56C111.019 482.389 112.299 482.816 113.408 483.84C114.517 484.864 115.072 486.101 115.072 487.552C115.072 489.003 114.517 490.24 113.408 491.264C112.299 492.203 111.019 492.587 109.568 492.416L105.728 492.032H105.472C104.875 492.032 104.576 492.373 104.576 493.056V567.68C104.576 568.533 105.003 568.875 105.856 568.704L109.952 568.32ZM193.546 553.216C194.997 553.216 196.277 553.771 197.386 554.88C198.495 555.904 198.965 557.184 198.794 558.72L198.026 569.472C197.941 571.605 197.13 573.44 195.594 574.976C194.058 576.427 192.223 577.152 190.09 577.152H144.778C143.157 577.152 141.493 577.28 139.786 577.536C138.165 577.792 136.586 578.005 135.05 578.176C133.429 578.432 132.021 578.005 130.826 576.896C129.717 575.872 129.162 574.549 129.162 572.928C129.162 571.307 129.717 569.984 130.826 568.96C132.021 567.936 133.429 567.552 135.05 567.808L137.994 568.192H138.25C138.933 568.192 139.274 567.851 139.274 567.168V493.568C139.274 492.8 138.933 492.416 138.25 492.416C137.567 492.416 136.885 492.544 136.202 492.8C135.605 492.971 134.965 493.056 134.282 493.056C132.917 493.056 131.722 492.544 130.698 491.52C129.674 490.411 129.162 489.173 129.162 487.808C129.162 486.187 129.717 484.864 130.826 483.84C132.021 482.731 133.429 482.304 135.05 482.56C136.757 482.731 138.506 482.944 140.298 483.2C142.175 483.456 143.925 483.584 145.546 483.584H190.09C192.223 483.584 194.058 484.352 195.594 485.888C197.13 487.339 197.941 489.131 198.026 491.264L198.794 502.016C198.965 503.467 198.495 504.747 197.386 505.856C196.362 506.965 195.082 507.52 193.546 507.52C192.095 507.52 190.858 507.008 189.834 505.984C188.81 504.96 188.298 503.765 188.298 502.4C188.298 501.205 188.341 499.968 188.426 498.688C188.597 497.323 188.725 495.957 188.81 494.592V494.336C188.81 493.739 188.469 493.44 187.786 493.44H150.41C149.642 493.44 149.258 493.824 149.258 494.592V522.496C149.258 523.264 149.642 523.648 150.41 523.648H182.538C183.903 523.648 185.055 524.117 185.994 525.056C186.933 525.995 187.402 527.147 187.402 528.512C187.402 529.877 186.933 531.029 185.994 531.968C185.055 532.821 183.903 533.248 182.538 533.248H150.41C149.642 533.248 149.258 533.632 149.258 534.4V566.144C149.258 566.912 149.642 567.296 150.41 567.296H187.786C188.639 567.296 188.981 566.912 188.81 566.144C188.725 564.693 188.597 563.328 188.426 562.048C188.341 560.683 188.298 559.445 188.298 558.336C188.298 556.885 188.81 555.691 189.834 554.752C190.858 553.728 192.095 553.216 193.546 553.216ZM328.966 551.552C330.331 552.747 331.014 554.24 331.014 556.032C331.014 557.227 330.715 558.251 330.118 559.104C325.937 564.907 320.646 569.557 314.246 573.056C307.846 576.555 300.891 578.304 293.382 578.304C287.067 578.304 281.137 577.067 275.59 574.592C270.043 572.032 265.179 568.576 260.998 564.224C256.817 559.787 253.531 554.667 251.142 548.864C248.753 543.061 247.558 536.875 247.558 530.304C247.558 523.648 248.753 517.461 251.142 511.744C253.531 505.941 256.817 500.864 260.998 496.512C265.179 492.075 270.043 488.619 275.59 486.144C281.137 483.669 287.067 482.432 293.382 482.432C299.782 482.432 305.414 483.456 310.278 485.504C315.227 487.552 319.622 490.411 323.462 494.08C325.169 495.701 326.705 497.493 328.07 499.456C329.435 501.419 330.118 503.552 330.118 505.856C330.118 507.989 329.35 509.867 327.814 511.488C326.278 513.109 324.401 513.92 322.182 513.92C319.878 513.92 318.001 513.109 316.55 511.488C315.099 509.867 314.374 508.032 314.374 505.984C314.374 504.363 314.801 502.955 315.654 501.76C316.081 501.077 316.038 500.523 315.526 500.096C312.795 497.109 309.467 495.019 305.542 493.824C301.702 492.544 297.649 491.904 293.382 491.904C286.47 491.904 280.326 493.611 274.95 497.024C269.574 500.437 265.307 505.045 262.15 510.848C259.078 516.565 257.542 523.051 257.542 530.304C257.542 537.557 259.121 544.043 262.278 549.76C265.435 555.477 269.702 560 275.078 563.328C280.539 566.571 286.641 568.192 293.382 568.192C299.526 568.192 305.158 566.827 310.278 564.096C315.398 561.28 319.537 557.483 322.694 552.704C323.633 551.339 324.87 550.656 326.406 550.656C327.43 550.656 328.283 550.955 328.966 551.552ZM391.611 482.432C397.926 482.432 403.856 483.669 409.403 486.144C414.95 488.619 419.814 492.075 423.995 496.512C428.176 500.864 431.462 505.941 433.851 511.744C436.24 517.547 437.435 523.733 437.435 530.304C437.435 536.96 436.24 543.189 433.851 548.992C431.462 554.795 428.176 559.915 423.995 564.352C419.814 568.704 414.95 572.117 409.403 574.592C403.856 577.067 397.926 578.304 391.611 578.304C385.296 578.304 379.366 577.067 373.819 574.592C368.272 572.117 363.408 568.704 359.227 564.352C355.046 559.915 351.76 554.795 349.371 548.992C346.982 543.189 345.787 536.96 345.787 530.304C345.787 523.733 346.982 517.547 349.371 511.744C351.76 505.941 355.046 500.864 359.227 496.512C363.408 492.075 368.272 488.619 373.819 486.144C379.366 483.669 385.296 482.432 391.611 482.432ZM391.611 568.192C398.352 568.192 404.368 566.613 409.659 563.456C415.035 560.213 419.302 555.733 422.459 550.016C425.616 544.299 427.195 537.728 427.195 530.304C427.195 522.965 425.616 516.48 422.459 510.848C419.387 505.131 415.163 500.651 409.787 497.408C404.411 494.165 398.352 492.544 391.611 492.544C384.699 492.544 378.555 494.208 373.179 497.536C367.803 500.779 363.579 505.259 360.507 510.976C357.435 516.693 355.899 523.136 355.899 530.304C355.899 537.557 357.478 544.043 360.635 549.76C363.792 555.477 368.059 560 373.435 563.328C378.811 566.571 384.87 568.192 391.611 568.192ZM537.175 482.432C538.626 482.261 539.863 482.688 540.887 483.712C541.911 484.736 542.423 485.973 542.423 487.424C542.423 488.875 541.911 490.112 540.887 491.136C539.863 492.075 538.626 492.501 537.175 492.416L532.823 492.032H532.567C531.97 492.032 531.671 492.373 531.671 493.056V571.52C531.671 573.227 531.074 574.677 529.879 575.872C528.77 576.981 527.362 577.536 525.655 577.536C523.01 577.536 520.919 576.427 519.383 574.208L473.303 503.424C473.047 502.997 472.791 502.784 472.535 502.784C472.108 502.784 471.895 503.125 471.895 503.808V567.808C471.895 568.576 472.279 568.96 473.047 568.96C474.242 568.789 475.436 568.661 476.631 568.576C477.911 568.491 479.063 568.405 480.087 568.32C481.538 568.149 482.775 568.576 483.799 569.6C484.908 570.624 485.463 571.861 485.463 573.312C485.463 574.763 484.908 575.957 483.799 576.896C482.775 577.92 481.538 578.389 480.087 578.304C477.698 578.048 475.564 577.835 473.687 577.664C471.81 577.579 470.018 577.536 468.311 577.536C466.69 577.536 464.94 577.579 463.063 577.664C461.186 577.835 459.01 578.048 456.535 578.304C455.17 578.389 453.932 577.92 452.823 576.896C451.799 575.957 451.287 574.763 451.287 573.312C451.287 571.861 451.799 570.624 452.823 569.6C453.932 568.576 455.17 568.149 456.535 568.32L460.887 568.704H461.143C461.74 568.704 462.039 568.363 462.039 567.68V493.696C462.039 492.928 461.698 492.544 461.015 492.544C460.247 492.544 459.479 492.672 458.711 492.928C458.028 493.184 457.303 493.312 456.535 493.312C455.084 493.312 453.847 492.8 452.823 491.776C451.799 490.667 451.287 489.344 451.287 487.808C451.287 486.187 451.884 484.864 453.079 483.84C454.274 482.731 455.682 482.304 457.303 482.56C458.412 482.731 459.564 482.901 460.759 483.072C461.954 483.243 463.106 483.413 464.215 483.584C466.604 483.669 468.823 484.267 470.871 485.376C473.004 486.485 474.711 488.021 475.991 489.984L520.407 558.976C520.663 559.403 520.919 559.616 521.175 559.616C521.602 559.616 521.815 559.275 521.815 558.592V492.928C521.815 492.16 521.431 491.776 520.663 491.776C519.468 491.861 518.231 491.947 516.951 492.032C515.756 492.117 514.647 492.245 513.623 492.416C512.172 492.501 510.892 492.075 509.783 491.136C508.759 490.112 508.247 488.875 508.247 487.424C508.247 485.973 508.759 484.736 509.783 483.712C510.892 482.688 512.172 482.261 513.623 482.432C516.098 482.688 518.231 482.901 520.023 483.072C521.9 483.157 523.692 483.2 525.399 483.2C527.106 483.2 528.855 483.157 530.647 483.072C532.524 482.901 534.7 482.688 537.175 482.432ZM628.777 504.576C628.948 506.027 628.478 507.307 627.369 508.416C626.345 509.525 625.065 510.08 623.529 510.08C621.993 510.08 620.713 509.525 619.689 508.416C618.665 507.307 618.196 506.027 618.281 504.576L618.921 494.464C618.921 493.696 618.58 493.312 617.897 493.312H597.673C596.905 493.312 596.521 493.696 596.521 494.464V567.808C596.521 568.491 596.82 568.832 597.417 568.832C598.526 568.832 599.636 568.789 600.745 568.704C601.94 568.533 603.049 568.405 604.073 568.32C605.524 568.149 606.761 568.576 607.785 569.6C608.809 570.624 609.321 571.861 609.321 573.312C609.321 574.677 608.809 575.829 607.785 576.768C606.761 577.792 605.524 578.261 604.073 578.176C601.598 577.92 599.636 577.749 598.185 577.664C596.734 577.579 595.54 577.493 594.601 577.408C593.662 577.408 592.638 577.408 591.529 577.408C590.334 577.408 589.268 577.408 588.329 577.408C587.39 577.493 586.238 577.579 584.873 577.664C583.508 577.749 581.588 577.92 579.113 578.176C577.748 578.261 576.51 577.792 575.401 576.768C574.377 575.829 573.865 574.677 573.865 573.312C573.865 571.861 574.377 570.624 575.401 569.6C576.51 568.576 577.748 568.149 579.113 568.32C580.052 568.405 581.076 568.491 582.185 568.576C583.294 568.661 584.404 568.747 585.513 568.832H585.769C586.366 568.832 586.665 568.491 586.665 567.808V494.464C586.665 493.696 586.281 493.312 585.513 493.312H565.161C564.478 493.312 564.137 493.696 564.137 494.464L564.777 504.576C564.948 506.027 564.478 507.307 563.369 508.416C562.345 509.525 561.065 510.08 559.529 510.08C557.993 510.08 556.713 509.525 555.689 508.416C554.665 507.307 554.196 506.027 554.281 504.576C554.452 502.613 554.622 500.48 554.793 498.176C554.964 495.872 555.092 493.568 555.177 491.264C555.348 489.045 556.158 487.211 557.609 485.76C559.145 484.309 560.98 483.584 563.113 483.584H620.073C622.206 483.584 623.998 484.352 625.449 485.888C626.985 487.339 627.796 489.131 627.881 491.264C628.052 493.568 628.222 495.872 628.393 498.176C628.564 500.48 628.692 502.613 628.777 504.576ZM720.54 568.32C721.991 568.149 723.228 568.576 724.252 569.6C725.361 570.624 725.916 571.861 725.916 573.312C725.916 574.763 725.361 575.957 724.252 576.896C723.228 577.92 721.991 578.389 720.54 578.304C715.676 577.792 711.751 577.536 708.764 577.536C705.521 577.536 701.596 577.792 696.988 578.304C695.537 578.389 694.3 577.92 693.276 576.896C692.252 575.957 691.74 574.763 691.74 573.312C691.74 571.861 692.252 570.624 693.276 569.6C694.3 568.576 695.537 568.149 696.988 568.32C697.927 568.405 698.865 568.491 699.804 568.576C700.828 568.661 701.852 568.747 702.876 568.832H703.132C703.985 568.832 704.199 568.405 703.772 567.552L696.988 552.576C696.732 551.979 696.305 551.68 695.708 551.68H650.652C650.14 551.68 649.713 551.979 649.372 552.576L642.588 567.552C642.503 567.723 642.46 567.936 642.46 568.192C642.46 568.619 642.716 568.832 643.228 568.832C644.252 568.832 645.276 568.789 646.3 568.704C647.409 568.533 648.433 568.405 649.372 568.32C650.823 568.149 652.06 568.576 653.084 569.6C654.108 570.624 654.62 571.861 654.62 573.312C654.62 574.763 654.108 575.957 653.084 576.896C652.06 577.92 650.823 578.389 649.372 578.304C644.423 577.792 640.497 577.536 637.596 577.536C634.268 577.536 630.343 577.792 625.82 578.304C624.369 578.389 623.089 577.92 621.98 576.896C620.956 575.957 620.444 574.763 620.444 573.312C620.444 571.861 620.956 570.624 621.98 569.6C623.089 568.576 624.369 568.149 625.82 568.32C627.356 568.576 628.935 568.704 630.556 568.704H630.812C631.239 568.704 631.623 568.448 631.964 567.936L669.34 484.864C670.108 483.243 671.388 482.432 673.18 482.432C674.887 482.432 676.124 483.243 676.892 484.864L714.396 567.936C714.737 568.533 715.207 568.789 715.804 568.704C717.425 568.704 719.004 568.576 720.54 568.32ZM673.948 501.12C673.863 500.608 673.607 500.352 673.18 500.352C672.924 500.352 672.668 500.608 672.412 501.12L654.492 541.056C654.407 541.227 654.364 541.397 654.364 541.568C654.364 542.165 654.705 542.464 655.388 542.464H690.972C691.996 542.464 692.295 541.995 691.868 541.056L673.948 501.12ZM806.841 551.552C808.206 552.747 808.889 554.24 808.889 556.032C808.889 557.227 808.59 558.251 807.993 559.104C803.812 564.907 798.521 569.557 792.121 573.056C785.721 576.555 778.766 578.304 771.257 578.304C764.942 578.304 759.012 577.067 753.465 574.592C747.918 572.032 743.054 568.576 738.873 564.224C734.692 559.787 731.406 554.667 729.017 548.864C726.628 543.061 725.433 536.875 725.433 530.304C725.433 523.648 726.628 517.461 729.017 511.744C731.406 505.941 734.692 500.864 738.873 496.512C743.054 492.075 747.918 488.619 753.465 486.144C759.012 483.669 764.942 482.432 771.257 482.432C777.657 482.432 783.289 483.456 788.153 485.504C793.102 487.552 797.497 490.411 801.337 494.08C803.044 495.701 804.58 497.493 805.945 499.456C807.31 501.419 807.993 503.552 807.993 505.856C807.993 507.989 807.225 509.867 805.689 511.488C804.153 513.109 802.276 513.92 800.057 513.92C797.753 513.92 795.876 513.109 794.425 511.488C792.974 509.867 792.249 508.032 792.249 505.984C792.249 504.363 792.676 502.955 793.529 501.76C793.956 501.077 793.913 500.523 793.401 500.096C790.67 497.109 787.342 495.019 783.417 493.824C779.577 492.544 775.524 491.904 771.257 491.904C764.345 491.904 758.201 493.611 752.825 497.024C747.449 500.437 743.182 505.045 740.025 510.848C736.953 516.565 735.417 523.051 735.417 530.304C735.417 537.557 736.996 544.043 740.153 549.76C743.31 555.477 747.577 560 752.953 563.328C758.414 566.571 764.516 568.192 771.257 568.192C777.401 568.192 783.033 566.827 788.153 564.096C793.273 561.28 797.412 557.483 800.569 552.704C801.508 551.339 802.745 550.656 804.281 550.656C805.305 550.656 806.158 550.955 806.841 551.552ZM897.902 504.576C898.073 506.027 897.603 507.307 896.494 508.416C895.47 509.525 894.19 510.08 892.654 510.08C891.118 510.08 889.838 509.525 888.814 508.416C887.79 507.307 887.321 506.027 887.406 504.576L888.046 494.464C888.046 493.696 887.705 493.312 887.022 493.312H866.798C866.03 493.312 865.646 493.696 865.646 494.464V567.808C865.646 568.491 865.945 568.832 866.542 568.832C867.651 568.832 868.761 568.789 869.87 568.704C871.065 568.533 872.174 568.405 873.198 568.32C874.649 568.149 875.886 568.576 876.91 569.6C877.934 570.624 878.446 571.861 878.446 573.312C878.446 574.677 877.934 575.829 876.91 576.768C875.886 577.792 874.649 578.261 873.198 578.176C870.723 577.92 868.761 577.749 867.31 577.664C865.859 577.579 864.665 577.493 863.726 577.408C862.787 577.408 861.763 577.408 860.654 577.408C859.459 577.408 858.393 577.408 857.454 577.408C856.515 577.493 855.363 577.579 853.998 577.664C852.633 577.749 850.713 577.92 848.238 578.176C846.873 578.261 845.635 577.792 844.526 576.768C843.502 575.829 842.99 574.677 842.99 573.312C842.99 571.861 843.502 570.624 844.526 569.6C845.635 568.576 846.873 568.149 848.238 568.32C849.177 568.405 850.201 568.491 851.31 568.576C852.419 568.661 853.529 568.747 854.638 568.832H854.894C855.491 568.832 855.79 568.491 855.79 567.808V494.464C855.79 493.696 855.406 493.312 854.638 493.312H834.286C833.603 493.312 833.262 493.696 833.262 494.464L833.902 504.576C834.073 506.027 833.603 507.307 832.494 508.416C831.47 509.525 830.19 510.08 828.654 510.08C827.118 510.08 825.838 509.525 824.814 508.416C823.79 507.307 823.321 506.027 823.406 504.576C823.577 502.613 823.747 500.48 823.918 498.176C824.089 495.872 824.217 493.568 824.302 491.264C824.473 489.045 825.283 487.211 826.734 485.76C828.27 484.309 830.105 483.584 832.238 483.584H889.198C891.331 483.584 893.123 484.352 894.574 485.888C896.11 487.339 896.921 489.131 897.006 491.264C897.177 493.568 897.347 495.872 897.518 498.176C897.689 500.48 897.817 502.613 897.902 504.576ZM975.796 553.216C977.247 553.216 978.527 553.771 979.636 554.88C980.745 555.904 981.215 557.184 981.044 558.72L980.276 569.472C980.191 571.605 979.38 573.44 977.844 574.976C976.308 576.427 974.473 577.152 972.34 577.152H927.028C925.407 577.152 923.743 577.28 922.036 577.536C920.415 577.792 918.836 578.005 917.3 578.176C915.679 578.432 914.271 578.005 913.076 576.896C911.967 575.872 911.412 574.549 911.412 572.928C911.412 571.307 911.967 569.984 913.076 568.96C914.271 567.936 915.679 567.552 917.3 567.808L920.244 568.192H920.5C921.183 568.192 921.524 567.851 921.524 567.168V493.568C921.524 492.8 921.183 492.416 920.5 492.416C919.817 492.416 919.135 492.544 918.452 492.8C917.855 492.971 917.215 493.056 916.532 493.056C915.167 493.056 913.972 492.544 912.948 491.52C911.924 490.411 911.412 489.173 911.412 487.808C911.412 486.187 911.967 484.864 913.076 483.84C914.271 482.731 915.679 482.304 917.3 482.56C919.007 482.731 920.756 482.944 922.548 483.2C924.425 483.456 926.175 483.584 927.796 483.584H972.34C974.473 483.584 976.308 484.352 977.844 485.888C979.38 487.339 980.191 489.131 980.276 491.264L981.044 502.016C981.215 503.467 980.745 504.747 979.636 505.856C978.612 506.965 977.332 507.52 975.796 507.52C974.345 507.52 973.108 507.008 972.084 505.984C971.06 504.96 970.548 503.765 970.548 502.4C970.548 501.205 970.591 499.968 970.676 498.688C970.847 497.323 970.975 495.957 971.06 494.592V494.336C971.06 493.739 970.719 493.44 970.036 493.44H932.66C931.892 493.44 931.508 493.824 931.508 494.592V522.496C931.508 523.264 931.892 523.648 932.66 523.648H964.788C966.153 523.648 967.305 524.117 968.244 525.056C969.183 525.995 969.652 527.147 969.652 528.512C969.652 529.877 969.183 531.029 968.244 531.968C967.305 532.821 966.153 533.248 964.788 533.248H932.66C931.892 533.248 931.508 533.632 931.508 534.4V566.144C931.508 566.912 931.892 567.296 932.66 567.296H970.036C970.889 567.296 971.231 566.912 971.06 566.144C970.975 564.693 970.847 563.328 970.676 562.048C970.591 560.683 970.548 559.445 970.548 558.336C970.548 556.885 971.06 555.691 972.084 554.752C973.108 553.728 974.345 553.216 975.796 553.216ZM1077.3 568.32C1078.75 568.149 1079.98 568.576 1081.01 569.6C1082.12 570.624 1082.67 571.861 1082.67 573.312C1082.67 574.763 1082.12 575.957 1081.01 576.896C1079.98 577.92 1078.75 578.389 1077.3 578.304C1076.95 578.219 1075.55 578.048 1073.07 577.792C1070.68 577.536 1068.38 577.408 1066.16 577.408C1062.83 577.408 1060.23 576 1058.35 573.184L1036.85 540.416C1036.59 539.904 1036.12 539.648 1035.44 539.648H1018.93C1018.16 539.648 1017.78 540.032 1017.78 540.8V567.808C1017.78 568.576 1018.16 568.96 1018.93 568.96C1020.12 568.789 1021.27 568.661 1022.38 568.576C1023.58 568.491 1024.73 568.405 1025.84 568.32C1027.29 568.149 1028.53 568.576 1029.55 569.6C1030.58 570.624 1031.09 571.861 1031.09 573.312C1031.09 574.763 1030.58 575.957 1029.55 576.896C1028.53 577.92 1027.29 578.389 1025.84 578.304C1023.37 578.048 1021.19 577.835 1019.31 577.664C1017.52 577.579 1015.77 577.536 1014.06 577.536C1012.36 577.536 1010.57 577.579 1008.69 577.664C1006.9 577.835 1004.76 578.048 1002.29 578.304C1000.84 578.389 999.557 577.92 998.448 576.896C997.424 575.957 996.912 574.763 996.912 573.312C996.912 571.861 997.381 570.667 998.32 569.728C999.344 568.789 1000.54 568.32 1001.9 568.32C1002.59 568.32 1003.31 568.363 1004.08 568.448C1004.93 568.533 1005.79 568.619 1006.64 568.704H1006.9C1007.49 568.704 1007.79 568.363 1007.79 567.68V493.44C1007.79 492.757 1007.49 492.416 1006.9 492.416C1006.04 492.416 1005.19 492.501 1004.34 492.672C1003.57 492.843 1002.76 492.928 1001.9 492.928C1000.54 492.928 999.344 492.416 998.32 491.392C997.381 490.368 996.912 489.173 996.912 487.808C996.912 486.187 997.467 484.864 998.576 483.84C999.771 482.816 1001.14 482.389 1002.67 482.56C1004.38 482.816 1006.17 483.072 1008.05 483.328C1009.93 483.499 1011.72 483.584 1013.42 483.584L1036.85 483.712C1047.77 483.797 1056.3 486.272 1062.45 491.136C1068.59 495.915 1071.66 502.741 1071.66 511.616C1071.66 519.296 1069.53 525.312 1065.26 529.664C1061.08 534.016 1055.62 536.96 1048.88 538.496C1047.94 538.667 1047.73 539.136 1048.24 539.904L1066.8 568.32C1067.06 568.832 1067.57 569.088 1068.34 569.088C1069.79 569.003 1071.28 568.917 1072.82 568.832C1074.44 568.661 1075.93 568.491 1077.3 568.32ZM1038.26 493.184H1018.93C1018.16 493.184 1017.78 493.568 1017.78 494.336V528.768C1017.78 529.536 1018.16 529.92 1018.93 529.92H1038.26C1045.77 529.92 1051.61 528.512 1055.79 525.696C1060.06 522.795 1062.19 518.101 1062.19 511.616C1062.19 506.923 1061.08 503.253 1058.86 500.608C1056.73 497.877 1053.83 495.957 1050.16 494.848C1046.58 493.739 1042.61 493.184 1038.26 493.184ZM1133.67 555.776C1132.56 555.776 1131.62 555.392 1130.85 554.624C1130.08 553.856 1129.66 552.917 1129.57 551.808L1128.04 487.04C1128.04 485.504 1128.55 484.181 1129.57 483.072C1130.68 481.963 1132.05 481.408 1133.67 481.408C1135.2 481.408 1136.53 481.963 1137.64 483.072C1138.74 484.181 1139.26 485.504 1139.17 487.04L1137.64 551.808C1137.64 552.917 1137.25 553.856 1136.48 554.624C1135.72 555.392 1134.78 555.776 1133.67 555.776ZM1133.67 578.432C1131.53 578.432 1129.74 577.664 1128.29 576.128C1126.84 574.677 1126.12 572.885 1126.12 570.752C1126.12 568.704 1126.84 566.955 1128.29 565.504C1129.74 563.968 1131.53 563.2 1133.67 563.2C1135.72 563.2 1137.46 563.968 1138.92 565.504C1140.45 566.955 1141.22 568.704 1141.22 570.752C1141.22 572.885 1140.45 574.677 1138.92 576.128C1137.46 577.664 1135.72 578.432 1133.67 578.432ZM1169.29 555.776C1168.18 555.776 1167.24 555.392 1166.48 554.624C1165.71 553.856 1165.28 552.917 1165.2 551.808L1163.66 487.04C1163.66 485.504 1164.17 484.181 1165.2 483.072C1166.31 481.963 1167.67 481.408 1169.29 481.408C1170.83 481.408 1172.15 481.963 1173.26 483.072C1174.37 484.181 1174.88 485.504 1174.8 487.04L1173.26 551.808C1173.26 552.917 1172.88 553.856 1172.11 554.624C1171.34 555.392 1170.4 555.776 1169.29 555.776ZM1169.29 578.432C1167.16 578.432 1165.37 577.664 1163.92 576.128C1162.47 574.677 1161.74 572.885 1161.74 570.752C1161.74 568.704 1162.47 566.955 1163.92 565.504C1165.37 563.968 1167.16 563.2 1169.29 563.2C1171.34 563.2 1173.09 563.968 1174.54 565.504C1176.08 566.955 1176.84 568.704 1176.84 570.752C1176.84 572.885 1176.08 574.677 1174.54 576.128C1173.09 577.664 1171.34 578.432 1169.29 578.432Z" fill="#38585A"/>
<path d="M21.84 93.36H37.8C46.76 93.36 54.56 95.24 61.2 99C67.84 102.76 73 107.92 76.68 114.48C80.44 121.04 82.32 128.6 82.32 137.16C82.32 146.52 80.44 154.48 76.68 161.04C73 167.52 67.76 172.48 60.96 175.92C54.24 179.36 46.28 181.08 37.08 181.08H21.12C19.6 181.08 18.04 181.16 16.44 181.32C14.84 181.56 13.32 181.8 11.88 182.04C10.44 182.2 9.16 181.8 8.04 180.84C7 179.88 6.48 178.64 6.48 177.12C6.48 175.6 7 174.36 8.04 173.4C9.16 172.36 10.44 171.96 11.88 172.2C12.52 172.28 13.16 172.4 13.8 172.56C14.52 172.64 15.24 172.72 15.96 172.8H16.2C16.76 172.8 17.04 172.48 17.04 171.84V102.6C17.04 101.72 16.64 101.36 15.84 101.52L11.88 102.12C10.44 102.36 9.16 102 8.04 101.04C7 100 6.48 98.76 6.48 97.32C6.48 95.8 7 94.56 8.04 93.6C9.16 92.56 10.44 92.16 11.88 92.4C13.48 92.56 15.12 92.76 16.8 93C18.56 93.24 20.24 93.36 21.84 93.36ZM26.4 170.76C26.4 171.48 26.76 171.84 27.48 171.84H37.08C39.8 171.84 42.76 171.6 45.96 171.12C49.16 170.64 52.36 169.72 55.56 168.36C58.76 167 61.68 165.04 64.32 162.48C67.04 159.92 69.2 156.6 70.8 152.52C72.4 148.36 73.2 143.24 73.2 137.16C73.2 133.16 72.56 129.16 71.28 125.16C70.08 121.08 68.08 117.36 65.28 114C62.56 110.56 58.92 107.8 54.36 105.72C49.88 103.64 44.36 102.6 37.8 102.6H27.48C26.76 102.6 26.4 102.96 26.4 103.68V170.76ZM172.889 172.8C174.249 172.64 175.409 173.04 176.369 174C177.409 174.96 177.929 176.12 177.929 177.48C177.929 178.84 177.409 179.96 176.369 180.84C175.409 181.8 174.249 182.24 172.889 182.16C168.329 181.68 164.649 181.44 161.849 181.44C158.809 181.44 155.129 181.68 150.809 182.16C149.449 182.24 148.289 181.8 147.329 180.84C146.369 179.96 145.889 178.84 145.889 177.48C145.889 176.12 146.369 174.96 147.329 174C148.289 173.04 149.449 172.64 150.809 172.8C151.689 172.88 152.569 172.96 153.449 173.04C154.409 173.12 155.369 173.2 156.329 173.28H156.569C157.369 173.28 157.569 172.88 157.169 172.08L150.809 158.04C150.569 157.48 150.169 157.2 149.609 157.2H107.369C106.889 157.2 106.489 157.48 106.169 158.04L99.8091 172.08C99.7291 172.24 99.6891 172.44 99.6891 172.68C99.6891 173.08 99.9291 173.28 100.409 173.28C101.369 173.28 102.329 173.24 103.289 173.16C104.329 173 105.289 172.88 106.169 172.8C107.529 172.64 108.689 173.04 109.649 174C110.609 174.96 111.089 176.12 111.089 177.48C111.089 178.84 110.609 179.96 109.649 180.84C108.689 181.8 107.529 182.24 106.169 182.16C101.529 181.68 97.8491 181.44 95.1291 181.44C92.0091 181.44 88.3291 181.68 84.0891 182.16C82.7291 182.24 81.5291 181.8 80.4891 180.84C79.5291 179.96 79.0491 178.84 79.0491 177.48C79.0491 176.12 79.5291 174.96 80.4891 174C81.5291 173.04 82.7291 172.64 84.0891 172.8C85.5291 173.04 87.0091 173.16 88.5291 173.16H88.7691C89.1691 173.16 89.5291 172.92 89.8491 172.44L124.889 94.56C125.609 93.04 126.809 92.28 128.489 92.28C130.089 92.28 131.249 93.04 131.969 94.56L167.129 172.44C167.449 173 167.889 173.24 168.449 173.16C169.969 173.16 171.449 173.04 172.889 172.8ZM129.209 109.8C129.129 109.32 128.889 109.08 128.489 109.08C128.249 109.08 128.009 109.32 127.769 109.8L110.969 147.24C110.889 147.4 110.849 147.56 110.849 147.72C110.849 148.28 111.169 148.56 111.809 148.56H145.169C146.129 148.56 146.409 148.12 146.009 147.24L129.209 109.8ZM265.359 92.28C266.719 92.12 267.879 92.52 268.839 93.48C269.799 94.44 270.279 95.6 270.279 96.96C270.279 98.32 269.799 99.48 268.839 100.44C267.879 101.32 266.719 101.72 265.359 101.64L261.279 101.28H261.039C260.479 101.28 260.199 101.6 260.199 102.24V175.8C260.199 177.4 259.639 178.76 258.519 179.88C257.479 180.92 256.159 181.44 254.559 181.44C252.079 181.44 250.119 180.4 248.679 178.32L205.479 111.96C205.239 111.56 204.999 111.36 204.759 111.36C204.359 111.36 204.159 111.68 204.159 112.32V172.32C204.159 173.04 204.519 173.4 205.239 173.4C206.359 173.24 207.479 173.12 208.599 173.04C209.799 172.96 210.879 172.88 211.839 172.8C213.199 172.64 214.359 173.04 215.319 174C216.359 174.96 216.879 176.12 216.879 177.48C216.879 178.84 216.359 179.96 215.319 180.84C214.359 181.8 213.199 182.24 211.839 182.16C209.599 181.92 207.599 181.72 205.839 181.56C204.079 181.48 202.399 181.44 200.799 181.44C199.279 181.44 197.639 181.48 195.879 181.56C194.119 181.72 192.079 181.92 189.759 182.16C188.479 182.24 187.319 181.8 186.279 180.84C185.319 179.96 184.839 178.84 184.839 177.48C184.839 176.12 185.319 174.96 186.279 174C187.319 173.04 188.479 172.64 189.759 172.8L193.839 173.16H194.079C194.639 173.16 194.919 172.84 194.919 172.2V102.84C194.919 102.12 194.599 101.76 193.959 101.76C193.239 101.76 192.519 101.88 191.799 102.12C191.159 102.36 190.479 102.48 189.759 102.48C188.399 102.48 187.239 102 186.279 101.04C185.319 100 184.839 98.76 184.839 97.32C184.839 95.8 185.399 94.56 186.519 93.6C187.639 92.56 188.959 92.16 190.479 92.4C191.519 92.56 192.599 92.72 193.719 92.88C194.839 93.04 195.919 93.2 196.959 93.36C199.199 93.44 201.279 94 203.199 95.04C205.199 96.08 206.799 97.52 207.999 99.36L249.639 164.04C249.879 164.44 250.119 164.64 250.359 164.64C250.759 164.64 250.959 164.32 250.959 163.68V102.12C250.959 101.4 250.599 101.04 249.879 101.04C248.759 101.12 247.599 101.2 246.399 101.28C245.279 101.36 244.239 101.48 243.279 101.64C241.919 101.72 240.719 101.32 239.679 100.44C238.719 99.48 238.239 98.32 238.239 96.96C238.239 95.6 238.719 94.44 239.679 93.48C240.719 92.52 241.919 92.12 243.279 92.28C245.599 92.52 247.599 92.72 249.279 92.88C251.039 92.96 252.719 93 254.319 93C255.919 93 257.559 92.96 259.239 92.88C260.999 92.72 263.039 92.52 265.359 92.28ZM296.756 115.32C296.516 118.44 297.156 121 298.676 123C300.276 125 302.436 126.68 305.156 128.04C307.956 129.32 310.996 130.48 314.276 131.52C317.636 132.56 320.996 133.68 324.356 134.88C327.796 136.08 330.916 137.6 333.716 139.44C336.596 141.28 338.876 143.64 340.556 146.52C342.316 149.4 343.196 153 343.196 157.32C343.196 162.36 341.836 166.76 339.116 170.52C336.476 174.2 332.916 177.08 328.436 179.16C323.956 181.16 319.076 182.16 313.796 182.16C306.756 182.16 300.876 180.88 296.156 178.32C291.436 175.76 287.796 172.96 285.236 169.92C284.276 168.8 283.556 167.64 283.076 166.44C282.596 165.16 282.356 163.96 282.356 162.84C282.356 160.84 282.996 159.12 284.276 157.68C285.636 156.24 287.556 155.52 290.036 155.52C292.036 155.52 293.676 156.28 294.956 157.8C296.316 159.32 296.996 161 296.996 162.84C296.996 164.12 296.716 165.28 296.156 166.32C295.916 166.96 295.996 167.48 296.396 167.88C298.556 169.72 300.996 171.08 303.716 171.96C306.516 172.76 309.356 173.16 312.236 173.16C315.916 173.16 319.396 172.52 322.676 171.24C325.956 169.96 328.636 168.12 330.716 165.72C332.796 163.32 333.836 160.52 333.836 157.32C333.836 154.44 332.996 152.08 331.316 150.24C329.636 148.32 327.396 146.72 324.596 145.44C321.876 144.16 318.876 143 315.596 141.96C312.316 140.84 308.996 139.68 305.636 138.48C302.356 137.2 299.316 135.64 296.516 133.8C293.796 131.96 291.596 129.68 289.916 126.96C288.236 124.24 287.396 120.84 287.396 116.76C287.396 110.76 288.756 105.96 291.476 102.36C294.276 98.76 297.836 96.16 302.156 94.56C306.556 92.96 311.076 92.16 315.716 92.16C320.196 92.16 324.436 92.8 328.436 94.08C332.436 95.28 335.716 96.96 338.276 99.12C340.836 101.28 342.116 103.76 342.116 106.56C342.036 108.56 341.276 110.32 339.836 111.84C338.476 113.28 336.756 114 334.676 114C332.676 114 330.956 113.28 329.516 111.84C328.076 110.32 327.356 108.56 327.356 106.56C327.356 106.24 327.356 105.92 327.356 105.6C327.436 105.28 327.516 104.96 327.596 104.64C327.756 103.92 327.796 103.56 327.716 103.56C326.756 102.92 325.156 102.36 322.916 101.88C320.676 101.32 318.196 101.04 315.476 101.04C312.676 101.04 309.876 101.48 307.076 102.36C304.356 103.16 302.036 104.6 300.116 106.68C298.196 108.68 297.076 111.56 296.756 115.32ZM464.265 157.08C465.545 158.2 466.185 159.6 466.185 161.28C466.185 162.4 465.905 163.36 465.345 164.16C461.425 169.6 456.465 173.96 450.465 177.24C444.465 180.52 437.945 182.16 430.905 182.16C424.985 182.16 419.425 181 414.225 178.68C409.025 176.28 404.465 173.04 400.545 168.96C396.625 164.8 393.545 160 391.305 154.56C389.065 149.12 387.945 143.32 387.945 137.16C387.945 130.92 389.065 125.12 391.305 119.76C393.545 114.32 396.625 109.56 400.545 105.48C404.465 101.32 409.025 98.08 414.225 95.76C419.425 93.44 424.985 92.28 430.905 92.28C436.905 92.28 442.185 93.24 446.745 95.16C451.385 97.08 455.505 99.76 459.105 103.2C460.705 104.72 462.145 106.4 463.425 108.24C464.705 110.08 465.345 112.08 465.345 114.24C465.345 116.24 464.625 118 463.185 119.52C461.745 121.04 459.985 121.8 457.905 121.8C455.745 121.8 453.985 121.04 452.625 119.52C451.265 118 450.585 116.28 450.585 114.36C450.585 112.84 450.985 111.52 451.785 110.4C452.185 109.76 452.145 109.24 451.665 108.84C449.105 106.04 445.985 104.08 442.305 102.96C438.705 101.76 434.905 101.16 430.905 101.16C424.425 101.16 418.665 102.76 413.625 105.96C408.585 109.16 404.585 113.48 401.625 118.92C398.745 124.28 397.305 130.36 397.305 137.16C397.305 143.96 398.785 150.04 401.745 155.4C404.705 160.76 408.705 165 413.745 168.12C418.865 171.16 424.585 172.68 430.905 172.68C436.665 172.68 441.945 171.4 446.745 168.84C451.545 166.2 455.425 162.64 458.385 158.16C459.265 156.88 460.425 156.24 461.865 156.24C462.825 156.24 463.625 156.52 464.265 157.08ZM540.395 158.64C541.755 158.64 542.955 159.16 543.995 160.2C545.035 161.16 545.475 162.36 545.315 163.8L544.595 173.88C544.515 175.88 543.755 177.6 542.315 179.04C540.875 180.4 539.155 181.08 537.155 181.08H494.675C493.155 181.08 491.595 181.2 489.995 181.44C488.475 181.68 486.995 181.88 485.555 182.04C484.035 182.28 482.715 181.88 481.595 180.84C480.555 179.88 480.035 178.64 480.035 177.12C480.035 175.6 480.555 174.36 481.595 173.4C482.715 172.44 484.035 172.08 485.555 172.32L488.315 172.68H488.555C489.195 172.68 489.515 172.36 489.515 171.72V102.72C489.515 102 489.195 101.64 488.555 101.64C487.915 101.64 487.275 101.76 486.635 102C486.075 102.16 485.475 102.24 484.835 102.24C483.555 102.24 482.435 101.76 481.475 100.8C480.515 99.76 480.035 98.6 480.035 97.32C480.035 95.8 480.555 94.56 481.595 93.6C482.715 92.56 484.035 92.16 485.555 92.4C487.155 92.56 488.795 92.76 490.475 93C492.235 93.24 493.875 93.36 495.395 93.36H537.155C539.155 93.36 540.875 94.08 542.315 95.52C543.755 96.88 544.515 98.56 544.595 100.56L545.315 110.64C545.475 112 545.035 113.2 543.995 114.24C543.035 115.28 541.835 115.8 540.395 115.8C539.035 115.8 537.875 115.32 536.915 114.36C535.955 113.4 535.475 112.28 535.475 111C535.475 109.88 535.515 108.72 535.595 107.52C535.755 106.24 535.875 104.96 535.955 103.68V103.44C535.955 102.88 535.635 102.6 534.995 102.6H499.955C499.235 102.6 498.875 102.96 498.875 103.68V129.84C498.875 130.56 499.235 130.92 499.955 130.92H530.075C531.355 130.92 532.435 131.36 533.315 132.24C534.195 133.12 534.635 134.2 534.635 135.48C534.635 136.76 534.195 137.84 533.315 138.72C532.435 139.52 531.355 139.92 530.075 139.92H499.955C499.235 139.92 498.875 140.28 498.875 141V170.76C498.875 171.48 499.235 171.84 499.955 171.84H534.995C535.795 171.84 536.115 171.48 535.955 170.76C535.875 169.4 535.755 168.12 535.595 166.92C535.515 165.64 535.475 164.48 535.475 163.44C535.475 162.08 535.955 160.96 536.915 160.08C537.875 159.12 539.035 158.64 540.395 158.64ZM667.351 157.08C668.631 158.2 669.271 159.6 669.271 161.28C669.271 162.4 668.991 163.36 668.431 164.16C664.511 169.6 659.551 173.96 653.551 177.24C647.551 180.52 641.031 182.16 633.991 182.16C628.071 182.16 622.511 181 617.311 178.68C612.111 176.28 607.551 173.04 603.631 168.96C599.711 164.8 596.631 160 594.391 154.56C592.151 149.12 591.031 143.32 591.031 137.16C591.031 130.92 592.151 125.12 594.391 119.76C596.631 114.32 599.711 109.56 603.631 105.48C607.551 101.32 612.111 98.08 617.311 95.76C622.511 93.44 628.071 92.28 633.991 92.28C639.991 92.28 645.271 93.24 649.831 95.16C654.471 97.08 658.591 99.76 662.191 103.2C663.791 104.72 665.231 106.4 666.511 108.24C667.791 110.08 668.431 112.08 668.431 114.24C668.431 116.24 667.711 118 666.271 119.52C664.831 121.04 663.071 121.8 660.991 121.8C658.831 121.8 657.071 121.04 655.711 119.52C654.351 118 653.671 116.28 653.671 114.36C653.671 112.84 654.071 111.52 654.871 110.4C655.271 109.76 655.231 109.24 654.751 108.84C652.191 106.04 649.071 104.08 645.391 102.96C641.791 101.76 637.991 101.16 633.991 101.16C627.511 101.16 621.751 102.76 616.711 105.96C611.671 109.16 607.671 113.48 604.711 118.92C601.831 124.28 600.391 130.36 600.391 137.16C600.391 143.96 601.871 150.04 604.831 155.4C607.791 160.76 611.791 165 616.831 168.12C621.951 171.16 627.671 172.68 633.991 172.68C639.751 172.68 645.031 171.4 649.831 168.84C654.631 166.2 658.511 162.64 661.471 158.16C662.351 156.88 663.511 156.24 664.951 156.24C665.911 156.24 666.711 156.52 667.351 157.08ZM766.092 172.8C767.452 172.64 768.612 173.04 769.572 174C770.612 174.96 771.132 176.12 771.132 177.48C771.132 178.84 770.612 179.96 769.572 180.84C768.612 181.8 767.452 182.24 766.092 182.16C761.532 181.68 757.852 181.44 755.052 181.44C752.012 181.44 748.332 181.68 744.012 182.16C742.652 182.24 741.492 181.8 740.532 180.84C739.572 179.96 739.092 178.84 739.092 177.48C739.092 176.12 739.572 174.96 740.532 174C741.492 173.04 742.652 172.64 744.012 172.8C744.892 172.88 745.772 172.96 746.652 173.04C747.612 173.12 748.572 173.2 749.532 173.28H749.772C750.572 173.28 750.772 172.88 750.372 172.08L744.012 158.04C743.772 157.48 743.372 157.2 742.812 157.2H700.572C700.092 157.2 699.692 157.48 699.372 158.04L693.012 172.08C692.932 172.24 692.892 172.44 692.892 172.68C692.892 173.08 693.132 173.28 693.612 173.28C694.572 173.28 695.532 173.24 696.492 173.16C697.532 173 698.492 172.88 699.372 172.8C700.732 172.64 701.892 173.04 702.852 174C703.812 174.96 704.292 176.12 704.292 177.48C704.292 178.84 703.812 179.96 702.852 180.84C701.892 181.8 700.732 182.24 699.372 182.16C694.732 181.68 691.052 181.44 688.332 181.44C685.212 181.44 681.532 181.68 677.292 182.16C675.932 182.24 674.732 181.8 673.692 180.84C672.732 179.96 672.252 178.84 672.252 177.48C672.252 176.12 672.732 174.96 673.692 174C674.732 173.04 675.932 172.64 677.292 172.8C678.732 173.04 680.212 173.16 681.732 173.16H681.972C682.372 173.16 682.732 172.92 683.052 172.44L718.092 94.56C718.812 93.04 720.012 92.28 721.692 92.28C723.292 92.28 724.452 93.04 725.172 94.56L760.332 172.44C760.652 173 761.092 173.24 761.652 173.16C763.172 173.16 764.652 173.04 766.092 172.8ZM722.412 109.8C722.332 109.32 722.092 109.08 721.692 109.08C721.452 109.08 721.212 109.32 720.972 109.8L704.172 147.24C704.092 147.4 704.052 147.56 704.052 147.72C704.052 148.28 704.372 148.56 705.012 148.56H738.372C739.332 148.56 739.612 148.12 739.212 147.24L722.412 109.8ZM788.358 115.32C788.118 118.44 788.758 121 790.278 123C791.878 125 794.038 126.68 796.758 128.04C799.558 129.32 802.598 130.48 805.878 131.52C809.238 132.56 812.598 133.68 815.958 134.88C819.398 136.08 822.518 137.6 825.318 139.44C828.198 141.28 830.478 143.64 832.158 146.52C833.918 149.4 834.798 153 834.798 157.32C834.798 162.36 833.438 166.76 830.718 170.52C828.078 174.2 824.518 177.08 820.038 179.16C815.558 181.16 810.678 182.16 805.398 182.16C798.358 182.16 792.478 180.88 787.758 178.32C783.038 175.76 779.398 172.96 776.838 169.92C775.878 168.8 775.158 167.64 774.678 166.44C774.198 165.16 773.958 163.96 773.958 162.84C773.958 160.84 774.598 159.12 775.878 157.68C777.238 156.24 779.158 155.52 781.638 155.52C783.638 155.52 785.278 156.28 786.558 157.8C787.918 159.32 788.598 161 788.598 162.84C788.598 164.12 788.318 165.28 787.758 166.32C787.518 166.96 787.598 167.48 787.998 167.88C790.158 169.72 792.598 171.08 795.318 171.96C798.118 172.76 800.958 173.16 803.838 173.16C807.518 173.16 810.998 172.52 814.278 171.24C817.558 169.96 820.238 168.12 822.318 165.72C824.398 163.32 825.438 160.52 825.438 157.32C825.438 154.44 824.598 152.08 822.918 150.24C821.238 148.32 818.998 146.72 816.198 145.44C813.478 144.16 810.478 143 807.198 141.96C803.918 140.84 800.598 139.68 797.238 138.48C793.958 137.2 790.918 135.64 788.118 133.8C785.398 131.96 783.198 129.68 781.518 126.96C779.838 124.24 778.998 120.84 778.998 116.76C778.998 110.76 780.358 105.96 783.078 102.36C785.878 98.76 789.438 96.16 793.758 94.56C798.158 92.96 802.678 92.16 807.318 92.16C811.798 92.16 816.038 92.8 820.038 94.08C824.038 95.28 827.318 96.96 829.878 99.12C832.438 101.28 833.718 103.76 833.718 106.56C833.638 108.56 832.878 110.32 831.438 111.84C830.078 113.28 828.358 114 826.278 114C824.278 114 822.558 113.28 821.118 111.84C819.678 110.32 818.958 108.56 818.958 106.56C818.958 106.24 818.958 105.92 818.958 105.6C819.038 105.28 819.118 104.96 819.198 104.64C819.358 103.92 819.398 103.56 819.318 103.56C818.358 102.92 816.758 102.36 814.518 101.88C812.278 101.32 809.798 101.04 807.078 101.04C804.278 101.04 801.478 101.48 798.678 102.36C795.958 103.16 793.638 104.6 791.718 106.68C789.798 108.68 788.678 111.56 788.358 115.32ZM846.907 201C846.667 201.16 846.307 201.24 845.827 201.24C845.267 201.24 844.747 201 844.267 200.52C843.867 200.12 843.667 199.64 843.667 199.08C843.667 198.36 844.027 197.76 844.747 197.28C847.947 195.12 850.267 192.92 851.707 190.68C853.227 188.52 853.987 186.68 853.987 185.16C853.987 183 852.867 181.72 850.627 181.32C848.387 180.92 846.747 180.04 845.707 178.68C844.667 177.24 844.147 175.68 844.147 174C844.147 172 844.787 170.16 846.067 168.48C847.427 166.8 849.347 166 851.827 166.08C854.547 166.08 856.707 167.36 858.307 169.92C859.907 172.4 860.707 175.4 860.707 178.92C860.707 182.68 859.627 186.6 857.467 190.68C855.387 194.84 851.867 198.28 846.907 201Z" fill="white"/>
<path d="M802.915 642.119C800.504 640.775 799.638 637.729 800.983 635.318C802.328 632.906 805.373 632.041 807.785 633.385L802.915 642.119ZM1101.75 648.627L1096.89 647.449C1096.93 647.299 1096.97 647.152 1097.02 647.006L1101.75 648.627ZM1169.35 745.5L1170.25 740.582L1169.35 745.5ZM1404.64 643.631C1407.4 643.517 1409.73 645.661 1409.85 648.42L1411.71 693.381C1411.83 696.14 1409.68 698.47 1406.92 698.584C1404.16 698.698 1401.84 696.555 1401.72 693.796L1400.06 653.83L1360.1 655.488C1357.34 655.602 1355.01 653.458 1354.89 650.699C1354.78 647.94 1356.92 645.611 1359.68 645.496L1404.64 643.631ZM807.785 633.385C926.644 699.652 1026.24 718.335 1093.6 713.336C1127.34 710.831 1152.63 702.417 1168.27 691.441C1183.86 680.5 1189.15 667.705 1185.65 655.548L1195.26 652.784C1200.36 670.486 1191.68 687.226 1174.01 699.626C1156.4 711.991 1129.15 720.725 1094.34 723.308C1024.6 728.484 923.056 709.101 802.915 642.119L807.785 633.385ZM1185.65 655.548C1181.59 641.412 1175.19 632.366 1168.09 627.016C1161.01 621.681 1152.86 619.739 1144.73 620.427C1128.19 621.824 1112.02 634.08 1106.48 650.248L1097.02 647.006C1103.87 627.021 1123.47 612.187 1143.89 610.462C1154.24 609.588 1164.88 612.077 1174.1 619.029C1183.31 625.964 1190.74 637.06 1195.26 652.784L1185.65 655.548ZM1106.61 649.805C1103.77 661.526 1104.42 681.582 1113.5 700.041C1122.45 718.229 1139.63 734.959 1170.25 740.582L1168.45 750.418C1134.54 744.192 1114.8 725.324 1104.53 704.457C1094.39 683.861 1093.51 661.405 1096.89 647.449L1106.61 649.805ZM1170.25 740.582C1209.19 747.732 1254.36 737.631 1296.35 718.639C1338.29 699.674 1376.43 672.129 1401.17 645.241L1408.53 652.013C1382.78 679.998 1343.5 708.295 1300.47 727.751C1257.51 747.18 1210.17 758.079 1168.45 750.418L1170.25 740.582Z" fill="#38585A"/>
<path d="M899.918 75.8333C899.918 83.3363 896.32 89.9958 890.733 94.1804L896.233 101.514C900.225 98.5283 903.466 94.6523 905.697 90.1941C907.928 85.7359 909.088 80.8186 909.085 75.8333H899.918ZM877.001 52.9167C883.079 52.9167 888.908 55.3311 893.206 59.6288C897.504 63.9265 899.918 69.7555 899.918 75.8333H909.085C909.085 67.3243 905.704 59.1638 899.688 53.147C893.671 47.1302 885.51 43.75 877.001 43.75V52.9167ZM854.085 75.8333C854.085 69.7555 856.499 63.9265 860.797 59.6288C865.094 55.3311 870.923 52.9167 877.001 52.9167V43.75C868.492 43.75 860.332 47.1302 854.315 53.147C848.298 59.1638 844.918 67.3243 844.918 75.8333H854.085ZM863.27 94.1804C860.416 92.0488 858.099 89.28 856.504 86.0947C854.91 82.9093 854.081 79.3955 854.085 75.8333H844.918C844.914 80.8186 846.074 85.7359 848.305 90.1941C850.536 94.6523 853.777 98.5283 857.77 101.514L863.27 94.1804ZM872.404 120.489C872.259 113.5 870.815 106.599 868.146 100.139L859.676 103.645C861.904 109.04 863.118 114.815 863.242 120.681L872.404 120.489ZM883.152 118.05C881.242 119.006 879.137 119.503 877.001 119.503C874.866 119.503 872.76 119.006 870.85 118.05L866.753 126.25C869.935 127.841 873.444 128.669 877.001 128.669C880.559 128.669 884.068 127.841 887.25 126.25L883.152 118.05ZM885.856 100.143C883.187 106.602 881.741 113.501 881.594 120.489L890.76 120.681C890.884 114.815 892.099 109.04 894.326 103.645L885.856 100.143ZM887.25 126.25C888.286 125.729 889.161 124.936 889.78 123.954C890.399 122.973 890.738 121.841 890.76 120.681L881.594 120.489C881.606 119.979 881.758 119.482 882.033 119.052C882.308 118.622 882.695 118.276 883.152 118.05L887.25 126.25ZM863.242 120.681C863.288 122.991 864.59 125.168 866.753 126.25L870.85 118.05C871.308 118.276 871.695 118.622 871.97 119.052C872.244 119.482 872.396 119.979 872.409 120.489L863.242 120.681ZM857.77 101.514C858.457 102.036 858.865 102.339 859.149 102.568C859.438 102.806 859.383 102.797 859.255 102.632L866.496 97.0129C865.639 95.9038 864.31 94.9596 863.27 94.1804L857.77 101.514ZM868.146 100.139C867.789 99.2725 867.335 98.09 866.496 97.0129L859.255 102.632C859.195 102.55 859.181 102.508 859.241 102.632L859.401 102.99L859.676 103.645L868.146 100.139ZM890.733 94.1804C889.693 94.9596 888.359 95.9083 887.502 97.0129L894.748 102.632C894.624 102.793 894.565 102.806 894.853 102.573C895.138 102.339 895.541 102.036 896.233 101.518L890.733 94.1804ZM894.326 103.645L894.601 102.99L894.762 102.632C894.821 102.508 894.808 102.55 894.748 102.632L887.502 97.0129C886.663 98.0946 886.214 99.2725 885.856 100.143L894.326 103.645Z" fill="#FFC759"/>
<path d="M890.716 103.333C886.658 106.049 881.885 107.498 877.002 107.498C872.12 107.498 867.347 106.049 863.289 103.333" stroke="#FFC759" stroke-width="7"/>
<path fill-rule="evenodd" clip-rule="evenodd" d="M867.133 35.1287C863.951 34.9034 862.919 31.741 861.518 29.5557C860.201 27.4461 858.706 25.1132 857.582 22.7783C854.961 17.8094 852.059 12.5375 851.585 7.71816C851.31 5.00642 851.871 1.01661 855.053 1.31769C858.239 1.69454 859.078 6.28653 859.641 8.77296C861.607 16.98 863.765 24.0584 866.669 31.2126C867.133 32.417 868.447 33.9244 867.133 35.1287ZM935.604 14.7966C935.976 16.1525 934.667 17.7337 933.727 18.7127C930.357 21.9508 925.297 24.8879 920.523 28.1998C918.368 29.7072 916.211 31.2126 913.778 32.8696C912.185 33.9244 907.22 37.314 905.911 34.7518C904.879 32.7938 910.313 30.2336 911.908 29.1808C914.341 27.5976 917.153 25.7154 919.303 24.2837C925.208 20.5212 929.608 17.2811 935.133 14.5713C935.319 14.6451 935.319 14.7966 935.604 14.7966ZM849.807 42.1314C845.876 43.4872 842.035 41.0766 839.034 39.6469C832.479 36.5583 826.676 33.6233 821.056 29.5557C818.338 27.5976 814.588 25.9407 813.839 22.9298C816.932 21.574 821.431 24.8879 824.521 26.5449C830.517 29.7072 836.226 33.1686 842.035 36.333C845.125 37.99 849.155 39.1943 849.807 42.1314ZM943 48.5319C941.973 49.8878 939.444 50.1131 937.192 50.4161C931.202 51.2436 921.743 52.3722 915.372 52.0711C913.874 52.0711 912.094 51.6942 911.908 50.791C911.531 48.4561 918.09 48.9845 920.052 48.9087C927.639 48.6834 936.068 47.3276 943 48.5319ZM810 55.3092C810.563 53.8776 812.53 54.7071 813.938 54.7071C821.991 54.7071 828.263 54.0291 836.698 54.9324C839.034 55.1577 846.715 55.1577 847.094 56.364C847.935 58.8485 841.1 59 838.285 59C834.917 59 830.143 58.8484 825.27 58.6231C818.898 58.3958 810.471 59.2253 810 55.3092ZM888.957 0.037604C892.236 -0.488793 891.864 4.63157 891.765 7.86771C891.393 14.4198 891.115 19.616 890.081 25.9407C889.803 28.126 888.957 32.8696 886.15 32.4927C884.272 32.2674 884.183 27.5977 884.086 24.6606C883.809 17.7337 883.809 12.7648 885.21 6.9645C885.775 4.78115 886.524 0.412462 888.957 0.037604Z" fill="#FFC759"/>
</svg>
