<svg width="344" height="122" viewBox="0 0 344 122" fill="none" xmlns="http://www.w3.org/2000/svg">
<path d="M52.096 69.776C52.9067 69.776 53.5893 70.0533 54.144 70.608C54.6987 71.12 54.976 71.8027 54.976 72.656C54.976 73.5093 54.656 74.2133 54.016 74.768C53.4187 75.3227 52.6933 75.5787 51.84 75.536C49.408 75.28 47.4667 75.152 46.016 75.152C44.4373 75.152 42.496 75.28 40.192 75.536C39.3387 75.5787 38.6133 75.3227 38.016 74.768C37.4187 74.2133 37.12 73.5093 37.12 72.656C37.12 71.8027 37.376 71.12 37.888 70.608C38.4427 70.0533 39.1253 69.776 39.936 69.776C40.32 69.776 40.7253 69.7973 41.152 69.84C41.6213 69.8827 42.0693 69.9467 42.496 70.032C43.008 70.032 43.1573 69.8187 42.944 69.392L39.936 62.672C39.808 62.3733 39.5947 62.224 39.296 62.224H17.152C16.896 62.224 16.6827 62.3733 16.512 62.672L13.504 69.392C13.4613 69.4773 13.44 69.5627 13.44 69.648C13.44 69.904 13.6107 70.032 13.952 70.032C14.4213 69.9467 14.8693 69.8827 15.296 69.84C15.7227 69.7973 16.128 69.776 16.512 69.776C17.3227 69.776 17.984 70.0533 18.496 70.608C19.0507 71.12 19.328 71.8027 19.328 72.656C19.328 73.5093 19.0293 74.2133 18.432 74.768C17.8347 75.3227 17.1093 75.5787 16.256 75.536C13.7813 75.28 11.84 75.152 10.432 75.152C8.81067 75.152 6.86933 75.28 4.608 75.536C3.75467 75.5787 3.008 75.3227 2.368 74.768C1.77067 74.2133 1.472 73.5093 1.472 72.656C1.472 71.8027 1.74933 71.12 2.304 70.608C2.85867 70.0533 3.54133 69.776 4.352 69.776C4.77867 69.776 5.184 69.7973 5.568 69.84C5.952 69.8827 6.336 69.9253 6.72 69.968H6.848C7.06133 69.968 7.25333 69.84 7.424 69.584L25.984 28.304C26.4107 27.3227 27.1573 26.832 28.224 26.832C29.248 26.832 29.9733 27.3227 30.4 28.304L49.088 69.584C49.2587 69.84 49.4507 69.968 49.664 69.968C50.0907 69.968 50.496 69.9467 50.88 69.904C51.3067 69.8187 51.712 69.776 52.096 69.776ZM28.608 37.456C28.5653 37.2 28.4373 37.072 28.224 37.072C28.096 37.072 27.968 37.2 27.84 37.456L19.456 56.144C19.4133 56.2293 19.392 56.3147 19.392 56.4C19.392 56.6987 19.5627 56.848 19.904 56.848H36.544C37.056 56.848 37.2053 56.6133 36.992 56.144L28.608 37.456ZM93.7745 26.832C94.6278 26.7467 95.3532 27.0027 95.9505 27.6C96.5905 28.1547 96.9105 28.8587 96.9105 29.712C96.9105 30.5227 96.6332 31.2053 96.0785 31.76C95.5238 32.3147 94.8412 32.592 94.0305 32.592C93.6892 32.592 93.3052 32.5707 92.8785 32.528C92.4945 32.4853 92.0892 32.4427 91.6625 32.4H91.5345C91.2358 32.4 91.0865 32.5707 91.0865 32.912V57.36C91.0865 61.072 90.4252 64.2933 89.1025 67.024C87.7798 69.7547 85.8812 71.8667 83.4065 73.36C80.9745 74.8107 78.0732 75.536 74.7025 75.536C71.3318 75.536 68.4092 74.8107 65.9345 73.36C63.5025 71.8667 61.6252 69.7547 60.3025 67.024C58.9798 64.2933 58.3185 61.072 58.3185 57.36V32.912C58.3185 32.5707 58.1692 32.4 57.8705 32.4C57.4438 32.4 57.0172 32.4427 56.5905 32.528C56.2065 32.5707 55.8012 32.592 55.3745 32.592C54.5638 32.592 53.8812 32.3147 53.3265 31.76C52.7718 31.2053 52.4945 30.5227 52.4945 29.712C52.4945 28.8587 52.7932 28.1547 53.3905 27.6C54.0305 27.0027 54.7772 26.7467 55.6305 26.832C56.8678 26.96 57.9345 27.0667 58.8305 27.152C59.7265 27.1947 60.6012 27.216 61.4545 27.216C62.3078 27.216 63.1825 27.1947 64.0785 27.152C65.0172 27.0667 66.0838 26.96 67.2785 26.832C68.1318 26.7467 68.8572 27.0027 69.4545 27.6C70.0518 28.1547 70.3505 28.8587 70.3505 29.712C70.3505 30.5653 70.0518 31.2693 69.4545 31.824C68.8572 32.3787 68.1318 32.6347 67.2785 32.592C66.8518 32.5067 66.4038 32.464 65.9345 32.464C65.4652 32.4213 64.9958 32.3787 64.5265 32.336H64.3985C64.0998 32.336 63.9505 32.5067 63.9505 32.848V57.424C63.9505 58.064 63.9932 58.896 64.0785 59.92C64.2065 60.944 64.4412 62.0533 64.7825 63.248C65.1665 64.4 65.7425 65.5093 66.5105 66.576C67.3212 67.6 68.3878 68.4533 69.7105 69.136C71.0332 69.776 72.6972 70.096 74.7025 70.096C76.7505 70.096 78.4358 69.776 79.7585 69.136C81.0812 68.4533 82.1265 67.5787 82.8945 66.512C83.6625 65.4453 84.2172 64.336 84.5585 63.184C84.9425 61.9893 85.1772 60.88 85.2625 59.856C85.3905 58.832 85.4545 58.0213 85.4545 57.424V32.848C85.4545 32.5067 85.3052 32.336 85.0065 32.336C84.4945 32.336 84.0038 32.3573 83.5345 32.4C83.0652 32.4427 82.5958 32.5067 82.1265 32.592C81.3158 32.6347 80.5905 32.3787 79.9505 31.824C79.3532 31.2693 79.0545 30.5653 79.0545 29.712C79.0545 28.8587 79.3532 28.1547 79.9505 27.6C80.5905 27.0027 81.3158 26.7467 82.1265 26.832C83.3638 26.96 84.4305 27.0667 85.3265 27.152C86.2652 27.1947 87.1398 27.216 87.9505 27.216C88.8038 27.216 89.6785 27.1947 90.5745 27.152C91.5132 27.0667 92.5798 26.96 93.7745 26.832ZM143.281 69.776C144.134 69.6907 144.859 69.9467 145.457 70.544C146.097 71.0987 146.417 71.8027 146.417 72.656C146.417 73.5093 146.097 74.2133 145.457 74.768C144.859 75.3227 144.134 75.5787 143.281 75.536C143.11 75.4933 142.427 75.408 141.233 75.28C140.038 75.152 138.886 75.088 137.777 75.088C135.942 75.088 134.534 74.32 133.553 72.784L122.929 56.592C122.801 56.336 122.566 56.208 122.225 56.208H114.545C114.161 56.208 113.969 56.4 113.969 56.784V69.52C113.969 69.8613 114.118 70.032 114.417 70.032C114.971 70.032 115.505 70.0107 116.017 69.968C116.529 69.8827 117.041 69.8187 117.553 69.776C118.406 69.6907 119.131 69.9467 119.729 70.544C120.326 71.0987 120.625 71.8027 120.625 72.656C120.625 73.5093 120.326 74.2133 119.729 74.768C119.131 75.3227 118.406 75.5787 117.553 75.536C116.358 75.408 115.291 75.3013 114.353 75.216C113.457 75.1733 112.582 75.152 111.729 75.152C110.875 75.152 110.001 75.1733 109.105 75.216C108.209 75.3013 107.142 75.408 105.905 75.536C105.051 75.5787 104.305 75.3227 103.665 74.768C103.067 74.2133 102.769 73.5093 102.769 72.656C102.769 71.8027 103.046 71.12 103.601 70.608C104.155 70.0533 104.838 69.776 105.649 69.776C105.947 69.776 106.246 69.7973 106.545 69.84C106.886 69.8827 107.249 69.9253 107.633 69.968H107.76C108.059 69.968 108.209 69.7973 108.209 69.456V33.168C108.209 32.7413 108.017 32.5707 107.633 32.656L106.097 32.784C105.243 32.912 104.475 32.6987 103.793 32.144C103.11 31.5467 102.769 30.8 102.769 29.904C102.769 28.9653 103.089 28.2187 103.729 27.664C104.411 27.0667 105.201 26.8107 106.097 26.896C106.95 27.024 107.825 27.152 108.72 27.28C109.659 27.3653 110.555 27.408 111.409 27.408L123.121 27.472C128.71 27.5147 133.062 28.7947 136.177 31.312C139.334 33.7867 140.913 37.2853 140.913 41.808C140.913 45.3493 139.931 48.3147 137.969 50.704C136.049 53.0507 133.318 54.6507 129.777 55.504C129.307 55.5893 129.201 55.824 129.457 56.208L138.289 69.776C138.417 70.032 138.673 70.16 139.057 70.16C140.55 70.0747 141.958 69.9467 143.281 69.776ZM123.825 32.976H114.545C114.161 32.976 113.969 33.168 113.969 33.552V50C113.969 50.384 114.161 50.576 114.545 50.576H123.825C131.547 50.576 135.409 47.6533 135.409 41.808C135.409 35.92 131.547 32.976 123.825 32.976ZM171.19 26.832C174.39 26.832 177.398 27.472 180.214 28.752C183.03 29.9893 185.504 31.7387 187.638 34C189.771 36.2187 191.435 38.8 192.63 41.744C193.867 44.688 194.486 47.824 194.486 51.152C194.486 54.5227 193.867 57.68 192.63 60.624C191.435 63.568 189.771 66.1707 187.638 68.432C185.504 70.6507 183.03 72.4 180.214 73.68C177.398 74.9173 174.39 75.536 171.19 75.536C167.99 75.536 164.982 74.9173 162.166 73.68C159.35 72.4 156.875 70.6507 154.742 68.432C152.608 66.1707 150.923 63.568 149.686 60.624C148.491 57.68 147.894 54.5227 147.894 51.152C147.894 47.824 148.491 44.688 149.686 41.744C150.923 38.8 152.608 36.2187 154.742 34C156.875 31.7387 159.35 29.9893 162.166 28.752C164.982 27.472 167.99 26.832 171.19 26.832ZM171.19 69.712C174.56 69.712 177.547 68.9227 180.15 67.344C182.752 65.7227 184.8 63.5253 186.294 60.752C187.83 57.936 188.598 54.736 188.598 51.152C188.598 47.568 187.83 44.3893 186.294 41.616C184.8 38.8427 182.731 36.6667 180.086 35.088C177.483 33.4667 174.518 32.656 171.19 32.656C167.819 32.656 164.811 33.4667 162.166 35.088C159.563 36.6667 157.494 38.864 155.958 41.68C154.464 44.4533 153.718 47.6107 153.718 51.152C153.718 54.6933 154.464 57.872 155.958 60.688C157.494 63.504 159.584 65.7227 162.23 67.344C164.875 68.9227 167.862 69.712 171.19 69.712ZM241.906 69.776C242.759 69.6907 243.484 69.9467 244.082 70.544C244.722 71.0987 245.042 71.8027 245.042 72.656C245.042 73.5093 244.722 74.2133 244.082 74.768C243.484 75.3227 242.759 75.5787 241.906 75.536C241.735 75.4933 241.052 75.408 239.858 75.28C238.663 75.152 237.511 75.088 236.402 75.088C234.567 75.088 233.159 74.32 232.178 72.784L221.554 56.592C221.426 56.336 221.191 56.208 220.85 56.208H213.17C212.786 56.208 212.594 56.4 212.594 56.784V69.52C212.594 69.8613 212.743 70.032 213.042 70.032C213.596 70.032 214.13 70.0107 214.642 69.968C215.154 69.8827 215.666 69.8187 216.178 69.776C217.031 69.6907 217.756 69.9467 218.354 70.544C218.951 71.0987 219.25 71.8027 219.25 72.656C219.25 73.5093 218.951 74.2133 218.354 74.768C217.756 75.3227 217.031 75.5787 216.178 75.536C214.983 75.408 213.916 75.3013 212.978 75.216C212.082 75.1733 211.207 75.152 210.354 75.152C209.5 75.152 208.626 75.1733 207.73 75.216C206.834 75.3013 205.767 75.408 204.53 75.536C203.676 75.5787 202.93 75.3227 202.29 74.768C201.692 74.2133 201.394 73.5093 201.394 72.656C201.394 71.8027 201.671 71.12 202.226 70.608C202.78 70.0533 203.463 69.776 204.274 69.776C204.572 69.776 204.871 69.7973 205.17 69.84C205.511 69.8827 205.874 69.9253 206.258 69.968H206.385C206.684 69.968 206.834 69.7973 206.834 69.456V33.168C206.834 32.7413 206.642 32.5707 206.258 32.656L204.722 32.784C203.868 32.912 203.1 32.6987 202.418 32.144C201.735 31.5467 201.394 30.8 201.394 29.904C201.394 28.9653 201.714 28.2187 202.354 27.664C203.036 27.0667 203.826 26.8107 204.722 26.896C205.575 27.024 206.45 27.152 207.345 27.28C208.284 27.3653 209.18 27.408 210.034 27.408L221.746 27.472C227.335 27.5147 231.687 28.7947 234.802 31.312C237.959 33.7867 239.538 37.2853 239.538 41.808C239.538 45.3493 238.556 48.3147 236.594 50.704C234.674 53.0507 231.943 54.6507 228.402 55.504C227.932 55.5893 227.826 55.824 228.082 56.208L236.914 69.776C237.042 70.032 237.298 70.16 237.682 70.16C239.175 70.0747 240.583 69.9467 241.906 69.776ZM222.45 32.976H213.17C212.786 32.976 212.594 33.168 212.594 33.552V50C212.594 50.384 212.786 50.576 213.17 50.576H222.45C230.172 50.576 234.034 47.6533 234.034 41.808C234.034 35.92 230.172 32.976 222.45 32.976ZM297.721 69.776C298.532 69.776 299.214 70.0533 299.769 70.608C300.324 71.12 300.601 71.8027 300.601 72.656C300.601 73.5093 300.281 74.2133 299.641 74.768C299.044 75.3227 298.318 75.5787 297.465 75.536C295.033 75.28 293.092 75.152 291.641 75.152C290.062 75.152 288.121 75.28 285.817 75.536C284.964 75.5787 284.238 75.3227 283.641 74.768C283.044 74.2133 282.745 73.5093 282.745 72.656C282.745 71.8027 283.001 71.12 283.513 70.608C284.068 70.0533 284.75 69.776 285.561 69.776C285.945 69.776 286.35 69.7973 286.777 69.84C287.246 69.8827 287.694 69.9467 288.121 70.032C288.633 70.032 288.782 69.8187 288.569 69.392L285.561 62.672C285.433 62.3733 285.22 62.224 284.921 62.224H262.777C262.521 62.224 262.308 62.3733 262.137 62.672L259.129 69.392C259.086 69.4773 259.065 69.5627 259.065 69.648C259.065 69.904 259.236 70.032 259.577 70.032C260.046 69.9467 260.494 69.8827 260.921 69.84C261.348 69.7973 261.753 69.776 262.137 69.776C262.948 69.776 263.609 70.0533 264.121 70.608C264.676 71.12 264.953 71.8027 264.953 72.656C264.953 73.5093 264.654 74.2133 264.057 74.768C263.46 75.3227 262.734 75.5787 261.881 75.536C259.406 75.28 257.465 75.152 256.057 75.152C254.436 75.152 252.494 75.28 250.233 75.536C249.38 75.5787 248.633 75.3227 247.993 74.768C247.396 74.2133 247.097 73.5093 247.097 72.656C247.097 71.8027 247.374 71.12 247.929 70.608C248.484 70.0533 249.166 69.776 249.977 69.776C250.404 69.776 250.809 69.7973 251.193 69.84C251.577 69.8827 251.961 69.9253 252.345 69.968H252.473C252.686 69.968 252.878 69.84 253.049 69.584L271.609 28.304C272.036 27.3227 272.782 26.832 273.849 26.832C274.873 26.832 275.598 27.3227 276.025 28.304L294.713 69.584C294.884 69.84 295.076 69.968 295.289 69.968C295.716 69.968 296.121 69.9467 296.505 69.904C296.932 69.8187 297.337 69.776 297.721 69.776ZM274.233 37.456C274.19 37.2 274.062 37.072 273.849 37.072C273.721 37.072 273.593 37.2 273.465 37.456L265.081 56.144C265.038 56.2293 265.017 56.3147 265.017 56.4C265.017 56.6987 265.188 56.848 265.529 56.848H282.169C282.681 56.848 282.83 56.6133 282.617 56.144L274.233 37.456ZM336.032 62.224C336.928 62.224 337.675 62.544 338.272 63.184C338.869 63.7813 339.125 64.5067 339.04 65.36L338.656 70.736C338.613 71.9307 338.165 72.9333 337.312 73.744C336.459 74.5547 335.456 74.96 334.304 74.96H311.648C310.88 74.96 310.069 75.024 309.216 75.152C308.405 75.28 307.616 75.3867 306.848 75.472C305.952 75.6 305.163 75.3653 304.48 74.768C303.797 74.1707 303.456 73.4027 303.456 72.464C303.456 71.5253 303.797 70.7787 304.48 70.224C305.163 69.6267 305.952 69.392 306.848 69.52C306.976 69.5627 307.125 69.584 307.296 69.584C307.467 69.584 307.659 69.6053 307.872 69.648H308C308.341 69.648 308.512 69.4773 308.512 69.136V33.168C308.512 32.784 308.341 32.592 308 32.592C307.829 32.592 307.637 32.6347 307.424 32.72C307.253 32.7627 307.061 32.8053 306.848 32.848C305.952 32.976 305.163 32.7627 304.48 32.208C303.797 31.6107 303.456 30.8427 303.456 29.904C303.456 28.9653 303.797 28.1973 304.48 27.6C305.163 27.0027 305.952 26.768 306.848 26.896C307.701 26.9813 308.576 27.088 309.472 27.216C310.368 27.344 311.221 27.408 312.032 27.408H334.304C335.456 27.408 336.459 27.8133 337.312 28.624C338.165 29.4347 338.613 30.4373 338.656 31.632L339.04 37.008C339.125 37.8187 338.869 38.544 338.272 39.184C337.675 39.824 336.928 40.144 336.032 40.144C335.179 40.144 334.453 39.8667 333.856 39.312C333.301 38.7147 333.024 38.0107 333.024 37.2C333.024 36.688 333.045 36.1333 333.088 35.536C333.173 34.896 333.237 34.2773 333.28 33.68C333.28 33.296 333.088 33.104 332.704 33.104H314.848C314.464 33.104 314.272 33.296 314.272 33.68V46.864C314.272 47.248 314.464 47.44 314.848 47.44H330.528C331.296 47.44 331.957 47.7173 332.512 48.272C333.067 48.8267 333.344 49.488 333.344 50.256C333.344 51.024 333.067 51.6853 332.512 52.24C331.957 52.752 331.296 53.008 330.528 53.008H314.848C314.464 53.008 314.272 53.2 314.272 53.584V68.688C314.272 69.072 314.464 69.264 314.848 69.264H332.704C333.088 69.264 333.28 69.072 333.28 68.688C333.237 68.048 333.173 67.4507 333.088 66.896C333.045 66.2987 333.024 65.7227 333.024 65.168C333.024 64.3573 333.301 63.6747 333.856 63.12C334.453 62.5227 335.179 62.224 336.032 62.224Z" fill="white"/>
<path d="M3.84 105.22C3.8 105.727 3.90667 106.14 4.16 106.46C4.42667 106.767 4.78667 107.027 5.24 107.24C5.70667 107.453 6.22 107.647 6.78 107.82C7.34 107.993 7.9 108.187 8.46 108.4C9.02 108.6 9.53333 108.86 10 109.18C10.48 109.487 10.86 109.887 11.14 110.38C11.4333 110.86 11.58 111.473 11.58 112.22C11.58 113.033 11.36 113.76 10.92 114.4C10.4933 115.04 9.9 115.547 9.14 115.92C8.38 116.293 7.52 116.48 6.56 116.48C5.36 116.48 4.36 116.267 3.56 115.84C2.76 115.4 2.14 114.92 1.7 114.4C1.36667 114.013 1.2 113.6 1.2 113.16C1.2 112.787 1.32 112.467 1.56 112.2C1.8 111.933 2.14667 111.8 2.6 111.8C2.97333 111.8 3.28 111.94 3.52 112.22C3.77333 112.5 3.9 112.813 3.9 113.16C3.9 113.333 3.86 113.513 3.78 113.7C3.74 113.807 3.75333 113.887 3.82 113.94C4.16667 114.207 4.55333 114.407 4.98 114.54C5.42 114.673 5.86 114.74 6.3 114.74C6.88667 114.74 7.44667 114.64 7.98 114.44C8.51333 114.227 8.94667 113.933 9.28 113.56C9.61333 113.173 9.78 112.727 9.78 112.22C9.78 111.767 9.64 111.393 9.36 111.1C9.08 110.793 8.70667 110.54 8.24 110.34C7.78667 110.127 7.28667 109.933 6.74 109.76C6.19333 109.587 5.64 109.393 5.08 109.18C4.53333 108.967 4.02667 108.707 3.56 108.4C3.10667 108.08 2.74 107.687 2.46 107.22C2.18 106.753 2.04 106.173 2.04 105.48C2.04 104.72 2.17333 104.073 2.44 103.54C2.72 102.993 3.09333 102.56 3.56 102.24C4.02667 101.907 4.54667 101.667 5.12 101.52C5.69333 101.36 6.28 101.28 6.88 101.28C7.64 101.28 8.36667 101.387 9.06 101.6C9.75333 101.813 10.3133 102.107 10.74 102.48C11.18 102.853 11.4 103.28 11.4 103.76C11.3867 104.133 11.2467 104.453 10.98 104.72C10.7267 104.987 10.4133 105.12 10.04 105.12C9.66667 105.12 9.34667 104.987 9.08 104.72C8.82667 104.453 8.7 104.133 8.7 103.76C8.7 103.627 8.70667 103.533 8.72 103.48C8.74667 103.373 8.74 103.313 8.7 103.3C8.52667 103.207 8.26667 103.127 7.92 103.06C7.58667 102.993 7.22667 102.96 6.84 102.96C6.4 102.96 5.95333 103.027 5.5 103.16C5.06 103.28 4.68667 103.507 4.38 103.84C4.07333 104.16 3.89333 104.62 3.84 105.22ZM24.5325 114.84C24.7725 114.813 24.9792 114.88 25.1525 115.04C25.3258 115.2 25.4125 115.407 25.4125 115.66C25.4125 115.9 25.3258 116.093 25.1525 116.24C24.9792 116.4 24.7725 116.473 24.5325 116.46C24.1192 116.42 23.7925 116.393 23.5525 116.38C23.3125 116.367 23.0925 116.36 22.8925 116.36C22.6392 116.36 22.3992 116.367 22.1725 116.38C21.9592 116.407 21.6525 116.433 21.2525 116.46C21.0125 116.473 20.8058 116.4 20.6325 116.24C20.4592 116.093 20.3725 115.9 20.3725 115.66C20.3725 115.407 20.4592 115.2 20.6325 115.04C20.8058 114.88 21.0125 114.813 21.2525 114.84L21.8325 114.88H21.8725C21.9658 114.88 22.0125 114.827 22.0125 114.72V109.3C22.0125 108.647 21.9125 108.18 21.7125 107.9C21.5125 107.62 21.1858 107.48 20.7325 107.48C19.6525 107.48 18.4458 108.087 17.1125 109.3C17.0458 109.367 17.0125 109.447 17.0125 109.54V114.72C17.0125 114.84 17.0725 114.893 17.1925 114.88L17.7725 114.84C18.0125 114.813 18.2192 114.88 18.3925 115.04C18.5658 115.2 18.6525 115.407 18.6525 115.66C18.6525 115.9 18.5658 116.093 18.3925 116.24C18.2192 116.4 18.0125 116.473 17.7725 116.46C17.3592 116.42 17.0325 116.393 16.7925 116.38C16.5658 116.367 16.3458 116.36 16.1325 116.36C15.8925 116.36 15.6592 116.367 15.4325 116.38C15.2058 116.407 14.8925 116.433 14.4925 116.46C14.2525 116.473 14.0458 116.4 13.8725 116.24C13.6992 116.093 13.6125 115.9 13.6125 115.66C13.6125 115.407 13.6992 115.2 13.8725 115.04C14.0458 114.88 14.2525 114.813 14.4925 114.84L15.0925 114.88C15.2125 114.88 15.2725 114.827 15.2725 114.72V102.88C15.2725 102.773 15.2258 102.72 15.1325 102.72C14.9992 102.72 14.8725 102.733 14.7525 102.76C14.6325 102.773 14.5058 102.78 14.3725 102.78C14.1592 102.78 13.9725 102.707 13.8125 102.56C13.6525 102.4 13.5725 102.2 13.5725 101.96C13.5725 101.72 13.6592 101.52 13.8325 101.36C14.0058 101.2 14.2125 101.133 14.4525 101.16C14.6392 101.173 14.8392 101.193 15.0525 101.22C15.2658 101.233 15.4792 101.247 15.6925 101.26C16.0525 101.273 16.3592 101.407 16.6125 101.66C16.8792 101.913 17.0125 102.22 17.0125 102.58V107.28C17.0125 107.36 17.0325 107.413 17.0725 107.44C17.1258 107.453 17.1792 107.433 17.2325 107.38C18.5258 106.22 19.7725 105.64 20.9725 105.64C22.8392 105.64 23.7725 106.867 23.7725 109.32V114.72C23.7725 114.84 23.8325 114.893 23.9525 114.88L24.5325 114.84ZM32.6333 116.48C31.8733 116.48 31.1599 116.34 30.4933 116.06C29.8266 115.78 29.2399 115.393 28.7333 114.9C28.2266 114.407 27.8266 113.833 27.5333 113.18C27.2533 112.513 27.1133 111.807 27.1133 111.06C27.1133 110.313 27.2533 109.613 27.5333 108.96C27.8266 108.293 28.2266 107.713 28.7333 107.22C29.2399 106.727 29.8266 106.34 30.4933 106.06C31.1599 105.78 31.8733 105.64 32.6333 105.64C33.3933 105.64 34.0999 105.78 34.7533 106.06C35.4199 106.34 36.0066 106.733 36.5133 107.24C37.0199 107.733 37.4133 108.307 37.6933 108.96C37.9866 109.613 38.1333 110.313 38.1333 111.06C38.1333 111.807 37.9866 112.507 37.6933 113.16C37.4133 113.813 37.0199 114.393 36.5133 114.9C36.0066 115.393 35.4199 115.78 34.7533 116.06C34.0999 116.34 33.3933 116.48 32.6333 116.48ZM32.6333 114.82C33.3399 114.82 33.9799 114.653 34.5533 114.32C35.1266 113.987 35.5799 113.533 35.9133 112.96C36.2466 112.387 36.4133 111.753 36.4133 111.06C36.4133 110.367 36.2399 109.74 35.8933 109.18C35.5599 108.607 35.1066 108.153 34.5333 107.82C33.9733 107.473 33.3399 107.3 32.6333 107.3C31.9133 107.3 31.2666 107.467 30.6933 107.8C30.1199 108.133 29.6666 108.587 29.3333 109.16C28.9999 109.72 28.8333 110.353 28.8333 111.06C28.8333 111.753 28.9999 112.387 29.3333 112.96C29.6666 113.533 30.1199 113.987 30.6933 114.32C31.2799 114.653 31.9266 114.82 32.6333 114.82ZM48.2692 106.92C48.2692 107.253 48.1492 107.547 47.9092 107.8C47.6692 108.04 47.3692 108.16 47.0092 108.16C46.7692 108.16 46.5492 108.1 46.3492 107.98C46.1626 107.847 46.0092 107.687 45.8892 107.5C45.8492 107.407 45.7759 107.367 45.6692 107.38C45.0426 107.473 44.4426 107.847 43.8692 108.5C43.2959 109.14 42.8559 109.947 42.5492 110.92C42.5226 110.973 42.5092 111.047 42.5092 111.14V114.74C42.5092 114.847 42.5559 114.9 42.6492 114.9C42.7959 114.9 42.9292 114.893 43.0492 114.88C43.1826 114.853 43.3159 114.84 43.4492 114.84C43.6759 114.84 43.8692 114.92 44.0292 115.08C44.1892 115.227 44.2692 115.42 44.2692 115.66C44.2692 115.9 44.1759 116.1 43.9892 116.26C43.8159 116.42 43.6092 116.493 43.3692 116.48C42.9559 116.44 42.6226 116.407 42.3692 116.38C42.1292 116.367 41.8892 116.36 41.6492 116.36C41.3692 116.36 41.1092 116.367 40.8692 116.38C40.6292 116.407 40.3159 116.44 39.9292 116.48C39.6892 116.493 39.4759 116.42 39.2892 116.26C39.1159 116.1 39.0292 115.9 39.0292 115.66C39.0292 115.42 39.1092 115.227 39.2692 115.08C39.4292 114.92 39.6226 114.84 39.8492 114.84C39.9559 114.84 40.0692 114.847 40.1892 114.86C40.3226 114.873 40.4559 114.887 40.5892 114.9H40.6292C40.7226 114.9 40.7692 114.847 40.7692 114.74V107.54C40.7692 107.433 40.7226 107.38 40.6292 107.38C40.3892 107.38 40.1559 107.4 39.9292 107.44C39.6626 107.453 39.4292 107.373 39.2292 107.2C39.0426 107.027 38.9492 106.807 38.9492 106.54C38.9492 106.273 39.0492 106.053 39.2492 105.88C39.4492 105.707 39.6759 105.633 39.9292 105.66C40.1959 105.687 40.4026 105.707 40.5492 105.72C40.7092 105.733 40.8626 105.74 41.0092 105.74C41.1692 105.74 41.3826 105.74 41.6492 105.74C41.8892 105.74 42.0892 105.827 42.2492 106C42.4226 106.173 42.5092 106.373 42.5092 106.6V107.42C42.5092 107.5 42.5292 107.547 42.5692 107.56C42.6226 107.573 42.6759 107.547 42.7292 107.48C43.6092 106.347 44.6892 105.7 45.9692 105.54C46.0626 105.527 46.1492 105.52 46.2292 105.52C46.3226 105.507 46.4159 105.5 46.5092 105.5C47.0159 105.5 47.4359 105.62 47.7692 105.86C48.1026 106.1 48.2692 106.453 48.2692 106.92ZM55.5756 112.78C55.8423 112.78 56.0623 112.873 56.2356 113.06C56.409 113.247 56.4823 113.473 56.4556 113.74C56.3623 114.633 56.0756 115.313 55.5956 115.78C55.129 116.247 54.5023 116.48 53.7156 116.48C53.209 116.48 52.7556 116.36 52.3556 116.12C51.9556 115.88 51.6356 115.553 51.3956 115.14C51.169 114.727 51.0556 114.267 51.0556 113.76V107.6C51.0556 107.48 50.9956 107.42 50.8756 107.42H49.7956C49.5823 107.42 49.389 107.34 49.2156 107.18C49.0556 107.007 48.9756 106.813 48.9756 106.6C48.9756 106.373 49.0556 106.187 49.2156 106.04C49.389 105.88 49.5823 105.8 49.7956 105.8H50.8756C50.9956 105.8 51.0556 105.74 51.0556 105.62V102.32C51.0556 102.08 51.1423 101.873 51.3156 101.7C51.489 101.527 51.6956 101.44 51.9356 101.44C52.1756 101.44 52.3756 101.527 52.5356 101.7C52.709 101.873 52.7956 102.08 52.7956 102.32V105.62C52.7956 105.74 52.8556 105.8 52.9756 105.8H55.2756C55.5023 105.8 55.689 105.88 55.8356 106.04C55.9956 106.187 56.0756 106.373 56.0756 106.6C56.0756 106.813 55.9956 107.007 55.8356 107.18C55.689 107.34 55.5023 107.42 55.2756 107.42H52.9756C52.8556 107.42 52.7956 107.48 52.7956 107.6V113.76C52.7956 113.8 52.809 113.9 52.8356 114.06C52.8756 114.22 52.9556 114.373 53.0756 114.52C53.209 114.667 53.4223 114.74 53.7156 114.74C54.0356 114.74 54.269 114.653 54.4156 114.48C54.5756 114.307 54.6823 113.993 54.7356 113.54C54.7623 113.313 54.8556 113.133 55.0156 113C55.1756 112.853 55.3623 112.78 55.5756 112.78ZM74.407 104.44C74.4337 104.693 74.3537 104.92 74.167 105.12C73.9804 105.32 73.747 105.42 73.467 105.42C73.2004 105.42 72.9737 105.333 72.787 105.16C72.6137 104.973 72.527 104.753 72.527 104.5C72.527 104.34 72.5337 104.167 72.547 103.98C72.5737 103.78 72.5937 103.587 72.607 103.4C72.607 103.28 72.547 103.22 72.427 103.22H66.847C66.727 103.22 66.667 103.28 66.667 103.4V107.52C66.667 107.64 66.727 107.7 66.847 107.7H71.747C71.987 107.7 72.1937 107.787 72.367 107.96C72.5404 108.133 72.627 108.34 72.627 108.58C72.627 108.82 72.5404 109.027 72.367 109.2C72.1937 109.36 71.987 109.44 71.747 109.44H66.847C66.727 109.44 66.667 109.5 66.667 109.62V114.6C66.667 114.707 66.7137 114.76 66.807 114.76C66.9937 114.76 67.1737 114.753 67.347 114.74C67.5337 114.713 67.7137 114.693 67.887 114.68C68.1537 114.653 68.3804 114.733 68.567 114.92C68.767 115.093 68.867 115.313 68.867 115.58C68.867 115.847 68.767 116.067 68.567 116.24C68.3804 116.413 68.1537 116.493 67.887 116.48C67.5137 116.44 67.1804 116.407 66.887 116.38C66.607 116.367 66.3337 116.36 66.067 116.36C65.8137 116.36 65.5404 116.367 65.247 116.38C64.967 116.407 64.6337 116.44 64.247 116.48C63.9937 116.493 63.767 116.413 63.567 116.24C63.3804 116.067 63.287 115.847 63.287 115.58C63.287 115.313 63.3804 115.093 63.567 114.92C63.767 114.733 63.9937 114.653 64.247 114.68L64.687 114.72H64.727C64.8204 114.72 64.867 114.667 64.867 114.56V103.24C64.867 103.12 64.8137 103.06 64.707 103.06C64.627 103.06 64.547 103.073 64.467 103.1C64.387 103.113 64.3004 103.12 64.207 103.12C63.9537 103.12 63.7337 103.033 63.547 102.86C63.3737 102.673 63.287 102.453 63.287 102.2C63.287 101.92 63.387 101.693 63.587 101.52C63.8004 101.333 64.047 101.253 64.327 101.28C64.5937 101.32 64.867 101.36 65.147 101.4C65.427 101.427 65.7004 101.44 65.967 101.44H72.927C73.287 101.44 73.6004 101.567 73.867 101.82C74.1337 102.073 74.2737 102.387 74.287 102.76L74.407 104.44ZM79.2664 104.14C78.9064 104.14 78.5931 104.013 78.3264 103.76C78.0731 103.493 77.9464 103.18 77.9464 102.82C77.9464 102.447 78.0731 102.133 78.3264 101.88C78.5931 101.627 78.9064 101.5 79.2664 101.5C79.6264 101.5 79.9331 101.627 80.1864 101.88C80.4531 102.133 80.5864 102.447 80.5864 102.82C80.5864 103.18 80.4531 103.493 80.1864 103.76C79.9331 104.013 79.6264 104.14 79.2664 104.14ZM77.5464 116.48C77.2797 116.493 77.0464 116.413 76.8464 116.24C76.6597 116.067 76.5664 115.847 76.5664 115.58C76.5664 115.313 76.6597 115.093 76.8464 114.92C77.0464 114.733 77.2797 114.653 77.5464 114.68C77.7464 114.72 77.9664 114.74 78.2064 114.74H78.2464C78.3397 114.74 78.3864 114.687 78.3864 114.58V107.54C78.3864 107.433 78.3397 107.38 78.2464 107.38C78.0064 107.38 77.7731 107.4 77.5464 107.44C77.2797 107.453 77.0464 107.373 76.8464 107.2C76.6597 107.027 76.5664 106.807 76.5664 106.54C76.5664 106.273 76.6664 106.053 76.8664 105.88C77.0664 105.693 77.2931 105.613 77.5464 105.64C77.9064 105.667 78.1597 105.693 78.3064 105.72C78.4664 105.733 78.5731 105.74 78.6264 105.74C78.6797 105.74 78.7464 105.74 78.8264 105.74C79.1864 105.74 79.4931 105.873 79.7464 106.14C80.0131 106.393 80.1464 106.7 80.1464 107.06V114.58C80.1464 114.687 80.1931 114.74 80.2864 114.74C80.5397 114.74 80.7731 114.72 80.9864 114.68C81.2531 114.653 81.4797 114.733 81.6664 114.92C81.8531 115.093 81.9464 115.313 81.9464 115.58C81.9464 115.847 81.8531 116.067 81.6664 116.24C81.4797 116.413 81.2531 116.493 80.9864 116.48C80.7197 116.453 80.4331 116.427 80.1264 116.4C79.8331 116.373 79.5464 116.36 79.2664 116.36C78.9864 116.36 78.6931 116.373 78.3864 116.4C78.0931 116.427 77.8131 116.453 77.5464 116.48ZM87.9348 114.84C88.1615 114.84 88.3548 114.92 88.5148 115.08C88.6748 115.227 88.7548 115.42 88.7548 115.66C88.7548 115.9 88.6615 116.1 88.4748 116.26C88.3015 116.42 88.0948 116.493 87.8548 116.48C87.4415 116.44 87.1082 116.407 86.8548 116.38C86.6148 116.367 86.3748 116.36 86.1348 116.36C85.8548 116.36 85.5948 116.367 85.3548 116.38C85.1148 116.407 84.8015 116.44 84.4148 116.48C84.1748 116.493 83.9615 116.42 83.7748 116.26C83.6015 116.1 83.5148 115.9 83.5148 115.66C83.5148 115.42 83.5948 115.227 83.7548 115.08C83.9148 114.92 84.1082 114.84 84.3348 114.84C84.4415 114.84 84.5548 114.847 84.6748 114.86C84.8082 114.873 84.9415 114.887 85.0748 114.9H85.1148C85.2082 114.9 85.2548 114.847 85.2548 114.74V102.88C85.2548 102.773 85.2082 102.72 85.1148 102.72C84.9815 102.72 84.8482 102.733 84.7148 102.76C84.5948 102.773 84.4615 102.78 84.3148 102.78C84.1015 102.78 83.9148 102.707 83.7548 102.56C83.5948 102.4 83.5148 102.207 83.5148 101.98C83.5148 101.727 83.6015 101.52 83.7748 101.36C83.9482 101.2 84.1615 101.133 84.4148 101.16C84.6148 101.173 84.8215 101.193 85.0348 101.22C85.2615 101.233 85.4815 101.247 85.6948 101.26C86.0548 101.273 86.3615 101.413 86.6148 101.68C86.8815 101.933 87.0148 102.233 87.0148 102.58V114.74C87.0148 114.847 87.0682 114.9 87.1748 114.9C87.2948 114.9 87.4215 114.893 87.5548 114.88C87.6882 114.853 87.8148 114.84 87.9348 114.84ZM107.28 114.84C107.52 114.813 107.727 114.88 107.9 115.04C108.073 115.2 108.16 115.407 108.16 115.66C108.16 115.9 108.073 116.1 107.9 116.26C107.727 116.42 107.52 116.493 107.28 116.48C106.867 116.44 106.54 116.407 106.3 116.38C106.073 116.367 105.853 116.36 105.64 116.36C105.4 116.36 105.167 116.367 104.94 116.38C104.713 116.407 104.4 116.44 104 116.48C103.76 116.493 103.553 116.42 103.38 116.26C103.207 116.1 103.12 115.9 103.12 115.66C103.12 115.407 103.207 115.2 103.38 115.04C103.553 114.88 103.76 114.813 104 114.84L104.58 114.88H104.62C104.713 114.88 104.76 114.827 104.76 114.72V109.64C104.76 109.067 104.68 108.593 104.52 108.22C104.373 107.833 104.167 107.607 103.9 107.54C103.807 107.513 103.713 107.493 103.62 107.48C103.527 107.467 103.433 107.46 103.34 107.46C102.407 107.46 101.327 108.1 100.1 109.38C100.033 109.447 100 109.52 100 109.6V114.72C100 114.827 100.06 114.88 100.18 114.88L100.78 114.84C101.033 114.813 101.247 114.88 101.42 115.04C101.593 115.2 101.68 115.407 101.68 115.66C101.68 115.9 101.587 116.1 101.4 116.26C101.227 116.42 101.02 116.493 100.78 116.48C100.367 116.44 100.04 116.407 99.8002 116.38C99.5735 116.367 99.3602 116.36 99.1602 116.36C98.9068 116.36 98.6668 116.367 98.4402 116.38C98.2268 116.407 97.9202 116.44 97.5202 116.48C97.2802 116.493 97.0668 116.42 96.8802 116.26C96.7068 116.1 96.6202 115.9 96.6202 115.66C96.6202 115.407 96.7068 115.2 96.8802 115.04C97.0535 114.88 97.2668 114.813 97.5202 114.84L98.1202 114.88C98.2402 114.88 98.3002 114.827 98.3002 114.72V109.64C98.3002 108.4 98.0468 107.693 97.5402 107.52C97.3935 107.467 97.2335 107.44 97.0602 107.44C96.6068 107.44 96.1002 107.613 95.5402 107.96C94.9802 108.293 94.3868 108.78 93.7602 109.42C93.6935 109.487 93.6602 109.56 93.6602 109.64V114.72C93.6602 114.827 93.7202 114.88 93.8402 114.88L94.4402 114.84C94.6802 114.813 94.8868 114.88 95.0602 115.04C95.2335 115.2 95.3202 115.407 95.3202 115.66C95.3202 115.9 95.2335 116.1 95.0602 116.26C94.8868 116.42 94.6802 116.493 94.4402 116.48C94.0268 116.44 93.7002 116.407 93.4602 116.38C93.2335 116.367 93.0135 116.36 92.8002 116.36C92.5602 116.36 92.3268 116.367 92.1002 116.38C91.8735 116.407 91.5602 116.44 91.1602 116.48C90.9202 116.493 90.7135 116.42 90.5402 116.26C90.3668 116.1 90.2802 115.9 90.2802 115.66C90.2802 115.407 90.3668 115.2 90.5402 115.04C90.7135 114.88 90.9202 114.813 91.1602 114.84L91.7602 114.88C91.8802 114.88 91.9402 114.827 91.9402 114.72V107.42C91.9402 107.313 91.8935 107.26 91.8002 107.26C91.6668 107.26 91.5402 107.267 91.4202 107.28C91.3002 107.293 91.1802 107.313 91.0602 107.34C90.8068 107.367 90.5868 107.3 90.4002 107.14C90.2135 106.967 90.1202 106.753 90.1202 106.5C90.1202 106.233 90.2135 106.02 90.4002 105.86C90.5868 105.7 90.8068 105.633 91.0602 105.66C91.3268 105.713 91.6602 105.753 92.0602 105.78H92.8002C93.0402 105.78 93.2402 105.867 93.4002 106.04C93.5735 106.2 93.6602 106.4 93.6602 106.64V107.1C93.6602 107.167 93.6802 107.213 93.7202 107.24C93.7735 107.267 93.8268 107.253 93.8802 107.2C95.0668 106.16 96.1868 105.64 97.2402 105.64C97.6935 105.64 98.1202 105.74 98.5202 105.94C99.0535 106.193 99.4402 106.673 99.6802 107.38C99.7468 107.513 99.8268 107.533 99.9202 107.44C101.187 106.24 102.387 105.64 103.52 105.64C104.013 105.64 104.473 105.747 104.9 105.96C105.34 106.173 105.673 106.5 105.9 106.94C106.127 107.367 106.28 107.827 106.36 108.32C106.453 108.813 106.5 109.253 106.5 109.64V114.72C106.5 114.827 106.56 114.88 106.68 114.88L107.28 114.84Z" fill="white"/>
</svg>
