<svg width="1920" height="1098" viewBox="0 0 1920 1098" fill="none" xmlns="http://www.w3.org/2000/svg">
<g clip-path="url(#clip0_188_998)">
<rect width="1920" height="1098" fill="#FEF0E7"/>
<path d="M848.075 819.191C783.197 840.575 706.154 896.175 511.519 797.807C364.531 723.519 128.894 818.705 12 884.766V1098.31H1926V797.807C1828.31 764.519 1718.08 750.767 1630.67 797.807C1431.98 904.728 1277.89 819.191 1245.46 819.191C985.942 695.162 912.954 797.807 848.075 819.191Z" fill="#F8C459" stroke="#F8C459" stroke-width="37" stroke-linecap="round"/>
<path d="M841.317 1008.62C776.032 987.231 698.506 931.632 502.651 1030C354.742 1104.29 117.627 1009.1 0 943.041V-337H1926V1030C1827.69 1063.29 1716.78 1077.04 1628.82 1030C1428.88 923.078 1273.83 1008.62 1241.19 1008.62C980.048 1132.64 906.602 1030 841.317 1008.62Z" fill="#FF9894"/>
<path d="M962.964 132.5C1044.94 132.5 1111.39 66.462 1111.39 -15H814.539C814.539 66.462 880.991 132.5 962.964 132.5Z" fill="#FEF0E7"/>
<path d="M870.824 46.5759L870.984 42.5794C870.996 42.2047 871.161 41.8902 871.478 41.636C871.732 41.4326 872.031 41.3499 872.374 41.3878C872.733 41.4131 873.02 41.5606 873.236 41.8304C873.478 42.1319 873.564 42.4669 873.494 42.8353L872.82 46.7749C872.782 46.9877 872.651 47.1831 872.429 47.361C872.207 47.5389 871.967 47.6137 871.71 47.5852C871.424 47.5536 871.192 47.4267 871.014 47.2045C870.887 47.0458 870.824 46.8363 870.824 46.5759ZM860.666 69.5592C860.907 69.8608 861.007 70.1973 860.966 70.5689C860.941 70.9277 860.77 71.2343 860.452 71.4885C860.135 71.7427 859.778 71.8334 859.381 71.7605C858.996 71.7036 858.685 71.51 858.447 71.1799C857.818 70.1989 857.287 69.4387 856.855 68.8991C856.384 68.3118 855.759 67.6278 854.977 66.847C854.707 66.5423 854.586 66.1962 854.614 65.8088C854.643 65.4214 854.816 65.1006 855.133 64.8464C855.451 64.5922 855.781 64.484 856.124 64.522C856.495 64.5631 856.802 64.7344 857.043 65.0359C857.158 65.1788 857.27 65.3359 857.382 65.5073C857.506 65.6946 857.615 65.8803 857.711 66.0645C857.863 66.2549 857.987 66.2469 858.082 66.0405L859.686 62.9197C859.759 62.7831 859.751 62.6592 859.662 62.5481L853.065 54.311C852.989 54.2158 852.87 54.1809 852.708 54.2064L849.312 55.0893C849.268 55.0989 849.23 55.1164 849.198 55.1418C849.103 55.218 849.106 55.3197 849.208 55.4466C849.379 55.5958 849.536 55.7434 849.679 55.8894C849.822 56.0354 849.951 56.1798 850.065 56.3226C850.307 56.6242 850.401 56.9528 850.347 57.3085C850.322 57.6674 850.15 57.9739 849.833 58.2281C849.516 58.4823 849.165 58.5809 848.78 58.5239C848.396 58.467 848.085 58.2734 847.847 57.9433C847.205 56.9465 846.674 56.1862 846.254 55.6625C845.771 55.0594 845.145 54.3754 844.377 53.6105C844.107 53.3058 843.979 52.9517 843.995 52.5484C844.023 52.161 844.196 51.8402 844.514 51.586C844.831 51.3318 845.168 51.2316 845.523 51.2854C845.895 51.3265 846.201 51.4978 846.443 51.7994C846.57 51.9581 846.683 52.1152 846.781 52.2708C846.88 52.4263 846.978 52.5819 847.077 52.7374L847.115 52.785C847.179 52.8644 847.283 52.8977 847.43 52.8849L868.314 47.4917C868.806 47.3581 869.211 47.4897 869.529 47.8864C869.834 48.2673 869.867 48.6833 869.629 49.1344L859.841 68.3831C859.797 68.5228 859.806 68.6324 859.87 68.7118C859.997 68.8705 860.126 69.0149 860.256 69.145C860.415 69.2783 860.551 69.4164 860.666 69.5592ZM865.691 51.1941C865.774 51.102 865.783 51.0163 865.72 50.9369C865.681 50.8893 865.596 50.8798 865.462 50.9084L856.013 53.3568C855.969 53.3664 855.931 53.3839 855.899 53.4093C855.788 53.4983 855.783 53.6062 855.885 53.7332L860.842 59.923C860.994 60.1134 861.126 60.0991 861.237 59.8799L865.691 51.1941Z" fill="#AB4D05"/>
<path d="M903.143 79.7058C905.425 80.87 906.95 82.3328 907.718 84.094C908.495 85.8372 908.394 87.6687 907.414 89.5887C906.435 91.5087 905.007 92.6748 903.13 93.087C901.281 93.4904 899.17 93.0869 896.797 91.8765L893.102 89.9916C892.939 89.9085 892.816 89.9484 892.733 90.1114L889.975 95.5181C889.901 95.663 889.928 95.7678 890.054 95.8324C890.29 95.9526 890.521 96.059 890.747 96.1518C890.983 96.2264 891.214 96.3101 891.441 96.4029C891.822 96.5515 892.074 96.8172 892.198 97.2001C892.332 97.565 892.306 97.9285 892.121 98.2908C891.946 98.6349 891.662 98.8554 891.27 98.9523C890.887 99.0765 890.533 99.0327 890.208 98.8209C889.701 98.5168 889.257 98.2449 888.877 98.0054C888.488 97.784 888.112 97.5809 887.75 97.3962C887.388 97.2114 887.012 97.031 886.622 96.8551C886.242 96.7065 885.788 96.521 885.263 96.2985C884.9 96.1592 884.643 95.9025 884.491 95.5284C884.34 95.1544 884.356 94.7862 884.541 94.4239C884.726 94.0617 884.992 93.8319 885.338 93.7347C885.694 93.6194 886.043 93.6495 886.388 93.825C886.514 93.8897 886.637 93.9634 886.754 94.0462C886.89 94.1382 887.034 94.2349 887.188 94.3362L887.243 94.3639C887.369 94.4286 887.47 94.3884 887.544 94.2435L895.402 78.8386C895.476 78.6937 895.449 78.5889 895.323 78.5243C895.178 78.4503 895.024 78.3945 894.86 78.3568C894.724 78.3103 894.584 78.25 894.439 78.1761C894.095 78.0006 893.856 77.7304 893.722 77.3656C893.598 76.9826 893.624 76.6191 893.799 76.2749C894.003 75.8765 894.3 75.6288 894.692 75.5319C895.111 75.4262 895.502 75.4884 895.864 75.7187C896.198 75.9578 896.542 76.2016 896.894 76.4499C897.274 76.6894 897.646 76.9016 898.008 77.0864L903.143 79.7058ZM894.202 87.2315C894.119 87.3945 894.159 87.5176 894.322 87.6007L898.261 89.6104C901.54 91.2828 903.812 90.8782 905.078 88.3968C906.381 85.8429 905.325 83.7292 901.91 82.0557L898.133 80.1292C897.97 80.0461 897.847 80.086 897.764 80.249L894.202 87.2315Z" fill="#AB4D05"/>
<path d="M933.855 112.229C934.262 112.272 934.576 112.461 934.797 112.797C935.042 113.118 935.124 113.477 935.041 113.876C934.959 114.274 934.742 114.572 934.39 114.769C934.058 114.97 933.694 115.02 933.3 114.917C933.225 114.881 932.914 114.775 932.369 114.6C931.824 114.426 931.292 114.285 930.775 114.178C929.918 114.001 929.335 113.507 929.025 112.695L925.628 104.114C925.593 103.982 925.496 103.9 925.336 103.867L921.752 103.127C921.573 103.09 921.465 103.161 921.428 103.34L920.2 109.284C920.167 109.443 920.22 109.537 920.36 109.566C920.618 109.62 920.869 109.661 921.113 109.69C921.36 109.7 921.605 109.72 921.848 109.749C922.254 109.791 922.568 109.981 922.789 110.317C923.015 110.634 923.086 110.991 923.004 111.389C922.922 111.787 922.714 112.087 922.382 112.289C922.05 112.49 921.687 112.539 921.293 112.437C920.747 112.262 920.26 112.11 919.83 111.979C919.416 111.873 919.01 111.779 918.612 111.697C918.213 111.614 917.803 111.54 917.381 111.473C916.954 111.427 916.446 111.374 915.856 111.314C915.454 111.252 915.13 111.061 914.885 110.74C914.66 110.424 914.588 110.066 914.67 109.668C914.753 109.27 914.948 108.978 915.256 108.792C915.568 108.587 915.914 108.523 916.292 108.601C916.432 108.63 916.569 108.669 916.704 108.718C916.859 108.77 917.025 108.825 917.2 108.882L917.259 108.895C917.399 108.923 917.485 108.858 917.518 108.699L921.016 91.7628C921.057 91.5637 920.984 91.4656 920.797 91.4684L920.067 91.38C919.657 91.3575 919.319 91.1839 919.054 90.8592C918.793 90.5146 918.705 90.1333 918.792 89.7151C918.882 89.277 919.104 88.9594 919.456 88.7622C919.832 88.5492 920.225 88.5058 920.635 88.632C921.021 88.774 921.417 88.9181 921.823 89.0642C922.252 89.1945 922.666 89.3008 923.065 89.3831L928.525 90.542C931.129 91.1007 933.037 92.1176 934.248 93.5928C935.483 95.0521 935.882 96.8371 935.446 98.9479C935.105 100.601 934.361 101.89 933.215 102.816C932.093 103.726 930.664 104.21 928.929 104.266C928.702 104.261 928.629 104.36 928.712 104.564L931.526 111.748C931.561 111.88 931.668 111.964 931.847 112.001C932.552 112.105 933.222 112.181 933.855 112.229ZM928.323 93.1786L923.992 92.284C923.812 92.247 923.704 92.3181 923.667 92.4973L922.082 100.174C922.045 100.353 922.116 100.461 922.295 100.498L926.626 101.393C930.23 102.137 932.314 101.145 932.878 98.4173C933.445 95.6693 931.927 93.9231 928.323 93.1786Z" fill="#AB4D05"/>
<path d="M957.424 94.1501C958.944 94.0245 960.398 94.2105 961.785 94.7079C963.171 95.1851 964.415 95.9188 965.517 96.9091C966.618 97.8792 967.509 99.0399 968.192 100.391C968.895 101.741 969.312 103.206 969.443 104.787C969.575 106.388 969.405 107.911 968.933 109.358C968.481 110.803 967.793 112.105 966.868 113.262C965.942 114.4 964.835 115.328 963.548 116.046C962.259 116.744 960.855 117.156 959.335 117.282C957.815 117.407 956.362 117.232 954.976 116.754C953.589 116.257 952.345 115.523 951.244 114.553C950.142 113.563 949.24 112.393 948.537 111.043C947.854 109.692 947.446 108.216 947.314 106.615C947.183 105.034 947.344 103.521 947.796 102.076C948.268 100.629 948.967 99.3373 949.893 98.1998C950.818 97.0421 951.925 96.1142 953.214 95.416C954.501 94.6976 955.904 94.2756 957.424 94.1501ZM959.107 114.516C960.707 114.383 962.095 113.891 963.269 113.039C964.442 112.167 965.328 111.043 965.929 109.668C966.548 108.27 966.787 106.72 966.646 105.018C966.506 103.316 966.016 101.836 965.178 100.579C964.36 99.3204 963.291 98.3682 961.973 97.7222C960.673 97.0542 959.233 96.7856 957.653 96.9161C956.052 97.0484 954.655 97.5514 953.462 98.4253C952.288 99.2772 951.391 100.402 950.772 101.8C950.172 103.175 949.941 104.704 950.08 106.386C950.219 108.068 950.698 109.549 951.518 110.827C952.358 112.105 953.438 113.076 954.758 113.743C956.076 114.389 957.526 114.646 959.107 114.516Z" fill="#AB4D05"/>
<path d="M989.144 89.3177C991.532 88.3906 993.639 88.2272 995.464 88.8274C997.282 89.4087 998.581 90.704 999.361 92.7133C1000.14 94.7225 1000.06 96.5644 999.117 98.2388C998.186 99.887 996.479 101.193 993.996 102.157L990.129 103.658C989.959 103.724 989.907 103.842 989.973 104.013L992.169 109.671C992.228 109.823 992.324 109.873 992.456 109.821C992.703 109.726 992.936 109.624 993.156 109.517C993.369 109.391 993.585 109.274 993.805 109.167C994.17 108.982 994.536 108.97 994.905 109.133C995.266 109.276 995.52 109.538 995.667 109.917C995.807 110.277 995.782 110.635 995.594 110.992C995.431 111.36 995.163 111.596 994.788 111.697C994.223 111.873 993.725 112.023 993.293 112.147C992.869 112.289 992.467 112.434 992.088 112.582C991.709 112.729 991.324 112.889 990.933 113.063C990.569 113.248 990.129 113.462 989.613 113.706C989.267 113.884 988.905 113.905 988.525 113.769C988.145 113.632 987.881 113.375 987.734 112.996C987.587 112.617 987.592 112.266 987.75 111.942C987.901 111.6 988.157 111.359 988.517 111.22C988.65 111.168 988.786 111.126 988.926 111.094C989.085 111.054 989.253 111.01 989.431 110.963L989.488 110.941C989.621 110.889 989.658 110.788 989.599 110.636L983.341 94.5144C983.282 94.3627 983.187 94.3127 983.054 94.3642C982.902 94.423 982.758 94.5008 982.621 94.5976C982.496 94.6681 982.357 94.7327 982.206 94.7916C981.846 94.9314 981.485 94.9296 981.124 94.7862C980.756 94.6238 980.501 94.3625 980.362 94.0024C980.2 93.5854 980.213 93.1985 980.402 92.8417C980.602 92.4586 980.909 92.2087 981.321 92.0921C981.723 92.0018 982.133 91.9079 982.553 91.8102C982.985 91.6863 983.391 91.5507 983.77 91.4036L989.144 89.3177ZM988.803 100.999C988.869 101.17 988.988 101.222 989.158 101.156L993.281 99.5553C996.712 98.2236 997.923 96.2593 996.915 93.6624C995.878 90.9897 993.598 90.3697 990.075 91.8024L986.123 93.3365C985.953 93.4027 985.9 93.5211 985.967 93.6917L988.803 100.999Z" fill="#AB4D05"/>
<path d="M1014.66 77.022C1015.87 76.0882 1017.19 75.4515 1018.62 75.1119C1020.04 74.7563 1021.49 74.6932 1022.95 74.9227C1024.4 75.136 1025.78 75.623 1027.09 76.3835C1028.42 77.1316 1029.56 78.1326 1030.54 79.3864C1031.52 80.6564 1032.21 82.0265 1032.6 83.4968C1033.01 84.9546 1033.14 86.4208 1033 87.8953C1032.84 89.3538 1032.42 90.735 1031.73 92.0391C1031.03 93.327 1030.08 94.4379 1028.87 95.3718C1027.67 96.3056 1026.35 96.9504 1024.93 97.306C1023.5 97.6455 1022.06 97.7086 1020.6 97.4952C1019.14 97.2658 1017.75 96.7771 1016.42 96.029C1015.11 95.2684 1013.96 94.2532 1012.98 92.9832C1012.01 91.7294 1011.32 90.3735 1010.91 88.9157C1010.52 87.4454 1010.4 85.9811 1010.56 84.5226C1010.7 83.048 1011.12 81.6668 1011.82 80.3788C1012.51 79.0748 1013.46 77.9558 1014.66 77.022ZM1027.17 93.1775C1028.44 92.1939 1029.34 91.0249 1029.86 89.6706C1030.37 88.3002 1030.5 86.8747 1030.25 85.394C1030.01 83.8848 1029.36 82.455 1028.32 81.1047C1027.27 79.7544 1026.05 78.7809 1024.67 78.1843C1023.29 77.5752 1021.88 77.3593 1020.42 77.5365C1018.97 77.6851 1017.61 78.2451 1016.36 79.2163C1015.09 80.1999 1014.19 81.3832 1013.67 82.766C1013.15 84.1203 1013.01 85.5521 1013.26 87.0613C1013.5 88.5419 1014.14 89.9494 1015.18 91.2836C1016.21 92.6179 1017.42 93.5976 1018.8 94.2227C1020.2 94.8355 1021.64 95.0612 1023.11 94.9001C1024.56 94.7229 1025.92 94.1487 1027.17 93.1775Z" fill="#AB4D05"/>
<path d="M1040.02 63.4197C1040.61 63.9247 1041.21 64.165 1041.83 64.1408C1042.45 64.0882 1043.09 63.8787 1043.76 63.5122C1044.45 63.1293 1045.15 62.671 1045.86 62.1372C1046.58 61.6034 1047.32 61.0876 1048.09 60.5898C1048.84 60.08 1049.62 59.6816 1050.43 59.3946C1051.24 59.0793 1052.08 58.971 1052.94 59.0699C1053.79 59.1403 1054.68 59.5112 1055.6 60.1828C1056.6 60.9142 1057.3 61.8387 1057.69 62.9562C1058.09 64.0573 1058.19 65.2437 1057.96 66.5154C1057.74 67.7872 1057.19 69.0142 1056.33 70.1965C1055.25 71.6744 1054.09 72.7142 1052.84 73.3157C1051.58 73.9052 1050.43 74.2371 1049.4 74.3114C1048.62 74.3741 1047.96 74.2077 1047.42 73.812C1046.96 73.4762 1046.68 73.0406 1046.56 72.5052C1046.45 71.9698 1046.6 71.4229 1047.01 70.8646C1047.34 70.4048 1047.79 70.1531 1048.35 70.1093C1048.92 70.0491 1049.42 70.1749 1049.85 70.4867C1050.06 70.6426 1050.25 70.8537 1050.41 71.1201C1050.5 71.2653 1050.61 71.3209 1050.74 71.2867C1051.38 71.0996 1051.97 70.8033 1052.52 70.3977C1053.08 69.9757 1053.56 69.4938 1053.95 68.9519C1054.48 68.2294 1054.86 67.4497 1055.1 66.613C1055.31 65.7643 1055.34 64.9668 1055.18 64.2205C1055 63.4623 1054.6 62.8553 1053.98 62.3996C1053.42 61.9919 1052.84 61.8286 1052.22 61.9096C1051.59 61.9786 1050.95 62.2106 1050.28 62.6055C1049.61 62.9719 1048.92 63.4138 1048.22 63.9312C1047.51 64.4486 1046.78 64.9562 1046.01 65.454C1045.25 65.9354 1044.48 66.3256 1043.68 66.6245C1042.88 66.895 1042.07 66.9929 1041.24 66.918C1040.41 66.8432 1039.57 66.494 1038.72 65.8704C1037.78 65.1869 1037.11 64.4411 1036.69 63.633C1036.27 62.7965 1036.07 61.947 1036.1 61.0845C1036.1 60.21 1036.28 59.3537 1036.61 58.5157C1036.93 57.6657 1037.36 56.8712 1037.9 56.1323C1038.58 55.1963 1039.37 54.3973 1040.25 53.7352C1041.14 53.0732 1042 52.6473 1042.85 52.4576C1043.7 52.2515 1044.43 52.3642 1045.02 52.7959C1045.47 53.1481 1045.73 53.6083 1045.82 54.1766C1045.92 54.7284 1045.81 55.2342 1045.47 55.694C1045.13 56.1538 1044.68 56.428 1044.11 56.5166C1043.56 56.5887 1043.05 56.4569 1042.59 56.1212C1042.43 56.0013 1042.32 55.9091 1042.26 55.8447C1042.16 55.716 1042.08 55.6702 1042.02 55.7075C1041.75 55.837 1041.42 56.0853 1041.03 56.4523C1040.64 56.8028 1040.28 57.2162 1039.93 57.6924C1039.54 58.2343 1039.22 58.8444 1038.97 59.5226C1038.73 60.1725 1038.67 60.8361 1038.8 61.5136C1038.92 62.179 1039.33 62.8144 1040.02 63.4197Z" fill="#AB4D05"/>
</g>
<defs>
<clipPath id="clip0_188_998">
<rect width="1920" height="1098" fill="white"/>
</clipPath>
</defs>
</svg>
