<svg width="3244" height="1098" viewBox="0 0 3244 1098" fill="none" xmlns="http://www.w3.org/2000/svg">
<g clip-path="url(#clip0_188_998)">
<rect width="3244" height="1098" fill="#FEF0E7"/>
<path d="M1428.31 819.137C1319.03 840.502 1189.25 896.051 861.405 797.772C613.814 723.552 216.9 818.652 20 884.653V1098H3244V797.772C3079.44 764.514 2893.78 750.774 2746.54 797.772C2411.86 904.597 2152.31 819.137 2097.67 819.137C1660.54 695.22 1537.59 797.772 1428.31 819.137Z" fill="#F8C459" stroke="#F8C459" stroke-width="37" stroke-linecap="round"/>
<path d="M2295.32 958.616C2230.03 937.231 2152.51 881.632 1956.65 980C1808.74 1054.29 1571.63 959.101 1454 893.041V-387H3380V980C3281.69 1013.29 3170.78 1027.04 3082.82 980C2882.88 873.078 2727.83 958.616 2695.19 958.616C2434.05 1082.64 2360.6 980 2295.32 958.616Z" fill="#FF9894"/>
<path d="M841.317 947.616C776.032 926.231 698.506 870.632 502.651 969C354.742 1043.29 117.627 948.101 0 882.041V-398H1926V969C1827.69 1002.29 1716.78 1016.04 1628.82 969C1428.88 862.078 1273.83 947.616 1241.19 947.616C980.048 1071.64 906.602 969 841.317 947.616Z" fill="#FF9894"/>
<path d="M1604.42 147.5C1686.4 147.5 1752.85 81.462 1752.85 0H1456C1456 81.462 1522.45 147.5 1604.42 147.5Z" fill="#FEF0E7"/>
<path d="M1514.57 46.5759L1514.73 42.5794C1514.74 42.2047 1514.91 41.8902 1515.22 41.636C1515.48 41.4326 1515.78 41.3499 1516.12 41.3878C1516.48 41.4131 1516.77 41.5606 1516.98 41.8304C1517.22 42.1319 1517.31 42.4669 1517.24 42.8353L1516.57 46.7749C1516.53 46.9877 1516.4 47.1831 1516.18 47.361C1515.95 47.5389 1515.71 47.6137 1515.46 47.5852C1515.17 47.5536 1514.94 47.4267 1514.76 47.2045C1514.63 47.0458 1514.57 46.8363 1514.57 46.5759ZM1504.41 69.5592C1504.65 69.8608 1504.75 70.1973 1504.71 70.5689C1504.69 70.9277 1504.52 71.2343 1504.2 71.4885C1503.88 71.7427 1503.52 71.8334 1503.13 71.7605C1502.74 71.7036 1502.43 71.51 1502.19 71.1799C1501.56 70.1989 1501.03 69.4387 1500.6 68.8991C1500.13 68.3118 1499.5 67.6278 1498.72 66.847C1498.45 66.5423 1498.33 66.1962 1498.36 65.8088C1498.39 65.4214 1498.56 65.1006 1498.88 64.8464C1499.2 64.5922 1499.53 64.484 1499.87 64.522C1500.24 64.5631 1500.55 64.7344 1500.79 65.0359C1500.9 65.1788 1501.02 65.3359 1501.13 65.5073C1501.25 65.6946 1501.36 65.8803 1501.46 66.0645C1501.61 66.2549 1501.73 66.2469 1501.83 66.0405L1503.43 62.9197C1503.5 62.7831 1503.5 62.6592 1503.41 62.5481L1496.81 54.311C1496.74 54.2158 1496.62 54.1809 1496.45 54.2064L1493.06 55.0893C1493.01 55.0989 1492.98 55.1164 1492.94 55.1418C1492.85 55.218 1492.85 55.3197 1492.95 55.4466C1493.13 55.5958 1493.28 55.7434 1493.43 55.8894C1493.57 56.0354 1493.7 56.1798 1493.81 56.3226C1494.05 56.6242 1494.15 56.9528 1494.09 57.3085C1494.07 57.6674 1493.9 57.9739 1493.58 58.2281C1493.26 58.4823 1492.91 58.5809 1492.53 58.5239C1492.14 58.467 1491.83 58.2734 1491.59 57.9433C1490.95 56.9465 1490.42 56.1862 1490 55.6625C1489.52 55.0594 1488.89 54.3754 1488.12 53.6105C1487.85 53.3058 1487.73 52.9517 1487.74 52.5484C1487.77 52.161 1487.94 51.8402 1488.26 51.586C1488.58 51.3318 1488.91 51.2316 1489.27 51.2854C1489.64 51.3265 1489.95 51.4978 1490.19 51.7994C1490.32 51.9581 1490.43 52.1152 1490.53 52.2708C1490.63 52.4263 1490.72 52.5819 1490.82 52.7374L1490.86 52.785C1490.92 52.8644 1491.03 52.8977 1491.18 52.8849L1512.06 47.4917C1512.55 47.3581 1512.96 47.4897 1513.27 47.8864C1513.58 48.2673 1513.61 48.6833 1513.38 49.1344L1503.59 68.3831C1503.54 68.5228 1503.55 68.6324 1503.62 68.7118C1503.74 68.8705 1503.87 69.0149 1504 69.145C1504.16 69.2783 1504.3 69.4164 1504.41 69.5592ZM1509.44 51.1941C1509.52 51.102 1509.53 51.0163 1509.47 50.9369C1509.43 50.8893 1509.34 50.8798 1509.21 50.9084L1499.76 53.3568C1499.71 53.3664 1499.68 53.3839 1499.65 53.4093C1499.53 53.4983 1499.53 53.6062 1499.63 53.7332L1504.59 59.923C1504.74 60.1134 1504.87 60.0991 1504.98 59.8799L1509.44 51.1941Z" fill="#AB4D05"/>
<path d="M1546.89 79.7058C1549.17 80.87 1550.7 82.3328 1551.46 84.094C1552.24 85.8372 1552.14 87.6687 1551.16 89.5887C1550.18 91.5087 1548.75 92.6748 1546.88 93.087C1545.03 93.4904 1542.92 93.0869 1540.54 91.8765L1536.85 89.9916C1536.69 89.9085 1536.56 89.9484 1536.48 90.1114L1533.72 95.5181C1533.65 95.663 1533.67 95.7678 1533.8 95.8324C1534.04 95.9526 1534.27 96.059 1534.49 96.1518C1534.73 96.2264 1534.96 96.3101 1535.19 96.4029C1535.57 96.5515 1535.82 96.8172 1535.94 97.2001C1536.08 97.565 1536.05 97.9285 1535.87 98.2908C1535.69 98.6349 1535.41 98.8554 1535.02 98.9523C1534.63 99.0765 1534.28 99.0327 1533.95 98.8209C1533.45 98.5168 1533 98.2449 1532.62 98.0054C1532.23 97.784 1531.86 97.5809 1531.5 97.3962C1531.13 97.2114 1530.76 97.031 1530.37 96.8551C1529.99 96.7065 1529.53 96.521 1529.01 96.2985C1528.65 96.1592 1528.39 95.9025 1528.24 95.5284C1528.09 95.1544 1528.1 94.7862 1528.29 94.4239C1528.47 94.0617 1528.74 93.8319 1529.08 93.7347C1529.44 93.6194 1529.79 93.6495 1530.13 93.825C1530.26 93.8897 1530.38 93.9634 1530.5 94.0462C1530.64 94.1382 1530.78 94.2349 1530.93 94.3362L1530.99 94.3639C1531.12 94.4286 1531.22 94.3884 1531.29 94.2435L1539.15 78.8386C1539.22 78.6937 1539.2 78.5889 1539.07 78.5243C1538.92 78.4503 1538.77 78.3945 1538.61 78.3568C1538.47 78.3103 1538.33 78.25 1538.18 78.1761C1537.84 78.0006 1537.6 77.7304 1537.47 77.3656C1537.34 76.9826 1537.37 76.6191 1537.55 76.2749C1537.75 75.8765 1538.05 75.6288 1538.44 75.5319C1538.86 75.4262 1539.25 75.4884 1539.61 75.7187C1539.94 75.9578 1540.29 76.2016 1540.64 76.4499C1541.02 76.6894 1541.39 76.9016 1541.75 77.0864L1546.89 79.7058ZM1537.95 87.2315C1537.87 87.3945 1537.91 87.5176 1538.07 87.6007L1542.01 89.6104C1545.29 91.2828 1547.56 90.8782 1548.82 88.3968C1550.13 85.8429 1549.07 83.7292 1545.66 82.0557L1541.88 80.1292C1541.72 80.0461 1541.59 80.086 1541.51 80.249L1537.95 87.2315Z" fill="#AB4D05"/>
<path d="M1577.6 112.229C1578.01 112.272 1578.32 112.461 1578.54 112.797C1578.79 113.118 1578.87 113.477 1578.79 113.876C1578.71 114.274 1578.49 114.572 1578.14 114.769C1577.8 114.97 1577.44 115.02 1577.05 114.917C1576.97 114.881 1576.66 114.775 1576.12 114.6C1575.57 114.426 1575.04 114.285 1574.52 114.178C1573.66 114.001 1573.08 113.507 1572.77 112.695L1569.37 104.114C1569.34 103.982 1569.24 103.9 1569.08 103.867L1565.5 103.127C1565.32 103.09 1565.21 103.161 1565.17 103.34L1563.95 109.284C1563.91 109.443 1563.97 109.537 1564.11 109.566C1564.36 109.62 1564.62 109.661 1564.86 109.69C1565.11 109.7 1565.35 109.72 1565.59 109.749C1566 109.791 1566.31 109.981 1566.54 110.317C1566.76 110.634 1566.83 110.991 1566.75 111.389C1566.67 111.787 1566.46 112.087 1566.13 112.289C1565.8 112.49 1565.43 112.539 1565.04 112.437C1564.49 112.262 1564.01 112.11 1563.58 111.979C1563.16 111.873 1562.76 111.779 1562.36 111.697C1561.96 111.614 1561.55 111.54 1561.13 111.473C1560.7 111.427 1560.19 111.374 1559.6 111.314C1559.2 111.252 1558.88 111.061 1558.63 110.74C1558.41 110.424 1558.33 110.066 1558.42 109.668C1558.5 109.27 1558.69 108.978 1559 108.792C1559.31 108.587 1559.66 108.523 1560.04 108.601C1560.18 108.63 1560.31 108.669 1560.45 108.718C1560.61 108.77 1560.77 108.825 1560.95 108.882L1561.01 108.895C1561.14 108.923 1561.23 108.858 1561.26 108.699L1564.76 91.7628C1564.8 91.5637 1564.73 91.4656 1564.54 91.4684L1563.81 91.38C1563.4 91.3575 1563.06 91.1839 1562.8 90.8592C1562.54 90.5146 1562.45 90.1333 1562.54 89.7151C1562.63 89.277 1562.85 88.9594 1563.2 88.7622C1563.58 88.5492 1563.97 88.5058 1564.38 88.632C1564.77 88.774 1565.16 88.9181 1565.57 89.0642C1566 89.1945 1566.41 89.3008 1566.81 89.3831L1572.27 90.542C1574.88 91.1007 1576.78 92.1176 1577.99 93.5928C1579.23 95.0521 1579.63 96.8371 1579.19 98.9479C1578.85 100.601 1578.11 101.89 1576.96 102.816C1575.84 103.726 1574.41 104.21 1572.67 104.266C1572.45 104.261 1572.38 104.36 1572.46 104.564L1575.27 111.748C1575.31 111.88 1575.41 111.964 1575.59 112.001C1576.3 112.105 1576.97 112.181 1577.6 112.229ZM1572.07 93.1786L1567.74 92.284C1567.56 92.247 1567.45 92.3181 1567.41 92.4973L1565.83 100.174C1565.79 100.353 1565.86 100.461 1566.04 100.498L1570.37 101.393C1573.98 102.137 1576.06 101.145 1576.62 98.4173C1577.19 95.6693 1575.67 93.9231 1572.07 93.1786Z" fill="#AB4D05"/>
<path d="M1601.17 94.1501C1602.69 94.0245 1604.14 94.2105 1605.53 94.7079C1606.92 95.1851 1608.16 95.9188 1609.26 96.9091C1610.36 97.8792 1611.26 99.0399 1611.94 100.391C1612.64 101.741 1613.06 103.206 1613.19 104.787C1613.32 106.388 1613.15 107.911 1612.68 109.358C1612.23 110.803 1611.54 112.105 1610.61 113.262C1609.69 114.4 1608.58 115.328 1607.29 116.046C1606.01 116.744 1604.6 117.156 1603.08 117.282C1601.56 117.407 1600.11 117.232 1598.72 116.754C1597.33 116.257 1596.09 115.523 1594.99 114.553C1593.89 113.563 1592.99 112.393 1592.28 111.043C1591.6 109.692 1591.19 108.216 1591.06 106.615C1590.93 105.034 1591.09 103.521 1591.54 102.076C1592.01 100.629 1592.71 99.3373 1593.64 98.1998C1594.56 97.0421 1595.67 96.1142 1596.96 95.416C1598.25 94.6976 1599.65 94.2756 1601.17 94.1501ZM1602.85 114.516C1604.45 114.383 1605.84 113.891 1607.02 113.039C1608.19 112.167 1609.07 111.043 1609.67 109.668C1610.29 108.27 1610.53 106.72 1610.39 105.018C1610.25 103.316 1609.76 101.836 1608.92 100.579C1608.11 99.3204 1607.04 98.3682 1605.72 97.7222C1604.42 97.0542 1602.98 96.7856 1601.4 96.9161C1599.8 97.0484 1598.4 97.5514 1597.21 98.4253C1596.03 99.2772 1595.14 100.402 1594.52 101.8C1593.92 103.175 1593.69 104.704 1593.83 106.386C1593.97 108.068 1594.44 109.549 1595.26 110.827C1596.1 112.105 1597.18 113.076 1598.5 113.743C1599.82 114.389 1601.27 114.646 1602.85 114.516Z" fill="#AB4D05"/>
<path d="M1632.89 89.3177C1635.28 88.3906 1637.38 88.2272 1639.21 88.8274C1641.03 89.4087 1642.33 90.704 1643.11 92.7133C1643.89 94.7225 1643.81 96.5644 1642.86 98.2388C1641.93 99.887 1640.23 101.193 1637.74 102.157L1633.88 103.658C1633.7 103.724 1633.65 103.842 1633.72 104.013L1635.92 109.671C1635.97 109.823 1636.07 109.873 1636.2 109.821C1636.45 109.726 1636.68 109.624 1636.9 109.517C1637.11 109.391 1637.33 109.274 1637.55 109.167C1637.92 108.982 1638.28 108.97 1638.65 109.133C1639.01 109.276 1639.27 109.538 1639.41 109.917C1639.55 110.277 1639.53 110.635 1639.34 110.992C1639.18 111.36 1638.91 111.596 1638.53 111.697C1637.97 111.873 1637.47 112.023 1637.04 112.147C1636.62 112.289 1636.21 112.434 1635.83 112.582C1635.46 112.729 1635.07 112.889 1634.68 113.063C1634.32 113.248 1633.87 113.462 1633.36 113.706C1633.01 113.884 1632.65 113.905 1632.27 113.769C1631.89 113.632 1631.63 113.375 1631.48 112.996C1631.33 112.617 1631.34 112.266 1631.5 111.942C1631.65 111.6 1631.9 111.359 1632.26 111.22C1632.4 111.168 1632.53 111.126 1632.67 111.094C1632.83 111.054 1633 111.01 1633.18 110.963L1633.23 110.941C1633.37 110.889 1633.4 110.788 1633.35 110.636L1627.09 94.5144C1627.03 94.3627 1626.93 94.3127 1626.8 94.3642C1626.65 94.423 1626.5 94.5008 1626.37 94.5976C1626.24 94.6681 1626.1 94.7327 1625.95 94.7916C1625.59 94.9314 1625.23 94.9296 1624.87 94.7862C1624.5 94.6238 1624.25 94.3625 1624.11 94.0024C1623.95 93.5854 1623.96 93.1985 1624.15 92.8417C1624.35 92.4586 1624.65 92.2087 1625.07 92.0921C1625.47 92.0018 1625.88 91.9079 1626.3 91.8102C1626.73 91.6863 1627.14 91.5507 1627.52 91.4036L1632.89 89.3177ZM1632.55 100.999C1632.62 101.17 1632.73 101.222 1632.9 101.156L1637.03 99.5553C1640.46 98.2236 1641.67 96.2593 1640.66 93.6624C1639.62 90.9897 1637.34 90.3697 1633.82 91.8024L1629.87 93.3365C1629.7 93.4027 1629.65 93.5211 1629.71 93.6917L1632.55 100.999Z" fill="#AB4D05"/>
<path d="M1658.41 77.022C1659.61 76.0882 1660.93 75.4515 1662.37 75.1119C1663.79 74.7563 1665.23 74.6932 1666.7 74.9227C1668.15 75.136 1669.53 75.623 1670.84 76.3835C1672.16 77.1316 1673.31 78.1326 1674.28 79.3864C1675.26 80.6564 1675.95 82.0265 1676.35 83.4968C1676.76 84.9546 1676.89 86.4208 1676.74 87.8953C1676.59 89.3538 1676.17 90.735 1675.48 92.0391C1674.78 93.327 1673.83 94.4379 1672.62 95.3718C1671.41 96.3056 1670.1 96.9504 1668.68 97.306C1667.24 97.6455 1665.8 97.7086 1664.35 97.4952C1662.89 97.2658 1661.49 96.7771 1660.17 96.029C1658.86 95.2684 1657.71 94.2532 1656.73 92.9832C1655.76 91.7294 1655.07 90.3735 1654.66 88.9157C1654.26 87.4454 1654.15 85.9811 1654.3 84.5226C1654.45 83.048 1654.87 81.6668 1655.57 80.3788C1656.25 79.0748 1657.2 77.9558 1658.41 77.022ZM1670.92 93.1775C1672.19 92.1939 1673.09 91.0249 1673.61 89.6706C1674.11 88.3002 1674.24 86.8747 1674 85.394C1673.75 83.8848 1673.11 82.455 1672.06 81.1047C1671.02 79.7544 1669.8 78.7809 1668.41 78.1843C1667.04 77.5752 1665.63 77.3593 1664.17 77.5365C1662.71 77.6851 1661.36 78.2451 1660.11 79.2163C1658.84 80.1999 1657.94 81.3832 1657.42 82.766C1656.9 84.1203 1656.76 85.5521 1657 87.0613C1657.25 88.5419 1657.89 89.9494 1658.92 91.2836C1659.95 92.6179 1661.16 93.5976 1662.55 94.2227C1663.95 94.8355 1665.38 95.0612 1666.85 94.9001C1668.31 94.7229 1669.67 94.1487 1670.92 93.1775Z" fill="#AB4D05"/>
<path d="M1683.76 63.4197C1684.35 63.9247 1684.96 64.165 1685.58 64.1408C1686.2 64.0882 1686.84 63.8787 1687.51 63.5122C1688.19 63.1293 1688.89 62.671 1689.61 62.1372C1690.33 61.6034 1691.07 61.0876 1691.83 60.5898C1692.58 60.08 1693.37 59.6816 1694.18 59.3946C1694.99 59.0793 1695.82 58.971 1696.68 59.0699C1697.54 59.1403 1698.43 59.5112 1699.35 60.1828C1700.35 60.9142 1701.04 61.8387 1701.44 62.9562C1701.84 64.0573 1701.93 65.2437 1701.71 66.5154C1701.48 67.7872 1700.94 69.0142 1700.08 70.1965C1699 71.6744 1697.84 72.7142 1696.59 73.3157C1695.33 73.9052 1694.18 74.2371 1693.14 74.3114C1692.37 74.3741 1691.71 74.2077 1691.17 73.812C1690.71 73.4762 1690.42 73.0406 1690.31 72.5052C1690.2 71.9698 1690.34 71.4229 1690.75 70.8646C1691.09 70.4048 1691.54 70.1531 1692.1 70.1093C1692.67 70.0491 1693.17 70.1749 1693.6 70.4867C1693.81 70.6426 1694 70.8537 1694.15 71.1201C1694.25 71.2653 1694.36 71.3209 1694.48 71.2867C1695.12 71.0996 1695.72 70.8033 1696.27 70.3977C1696.83 69.9757 1697.3 69.4938 1697.7 68.9519C1698.23 68.2294 1698.61 67.4497 1698.84 66.613C1699.06 65.7643 1699.09 64.9668 1698.93 64.2205C1698.75 63.4623 1698.35 62.8553 1697.73 62.3996C1697.17 61.9919 1696.58 61.8286 1695.97 61.9096C1695.34 61.9786 1694.69 62.2106 1694.03 62.6055C1693.36 62.9719 1692.67 63.4138 1691.96 63.9312C1691.26 64.4486 1690.52 64.9562 1689.76 65.454C1689 65.9354 1688.23 66.3256 1687.43 66.6245C1686.63 66.895 1685.81 66.9929 1684.99 66.918C1684.16 66.8432 1683.32 66.494 1682.46 65.8704C1681.53 65.1869 1680.85 64.4411 1680.44 63.633C1680.01 62.7965 1679.82 61.947 1679.84 61.0845C1679.85 60.21 1680.02 59.3537 1680.36 58.5157C1680.68 57.6657 1681.11 56.8712 1681.64 56.1323C1682.33 55.1963 1683.11 54.3973 1684 53.7352C1684.89 53.0732 1685.75 52.6473 1686.59 52.4576C1687.45 52.2515 1688.17 52.3642 1688.76 52.7959C1689.21 53.1481 1689.48 53.6083 1689.57 54.1766C1689.67 54.7284 1689.55 55.2342 1689.22 55.694C1688.88 56.1538 1688.43 56.428 1687.86 56.5166C1687.3 56.5887 1686.8 56.4569 1686.34 56.1212C1686.17 56.0013 1686.06 55.9091 1686.01 55.8447C1685.9 55.716 1685.82 55.6702 1685.77 55.7075C1685.5 55.837 1685.17 56.0853 1684.77 56.4523C1684.39 56.8028 1684.03 57.2162 1683.68 57.6924C1683.28 58.2343 1682.96 58.8444 1682.72 59.5226C1682.47 60.1725 1682.41 60.8361 1682.55 61.5136C1682.67 62.179 1683.07 62.8144 1683.76 63.4197Z" fill="#AB4D05"/>
</g>
<defs>
<clipPath id="clip0_188_998">
<rect width="3244" height="1098" fill="white"/>
</clipPath>
</defs>
</svg>
