<svg width="1920" height="1287" viewBox="0 0 1920 1287" fill="none" xmlns="http://www.w3.org/2000/svg">
<g clip-path="url(#clip0_136_49)">
<path d="M883.318 1185.29C998.885 1149.15 1136.12 1055.2 1482.82 1221.42C1603.82 1279.43 1768.02 1276.29 1920 1245.11V713H0V1143.93C89.5529 1160.14 142.315 1170.26 175.466 1185.29C637.736 1394.87 767.75 1221.42 883.318 1185.29Z" fill="#FF9894"/>
<path d="M1036.68 109.882C921.115 148.92 783.878 250.419 437.175 70.8438C316.182 8.17493 151.98 11.5728 0 45.2605V1065.5H1920V154.56C1830.45 137.053 1772.23 123.448 1744.53 109.882C1282.26 -116.54 1152.25 70.8437 1036.68 109.882Z" fill="#FF9894"/>
</g>
<defs>
<clipPath id="clip0_136_49">
<rect width="1920" height="1287" fill="white"/>
</clipPath>
</defs>
</svg>
