<svg width="1920" height="1491" viewBox="0 0 1920 1491" fill="none" xmlns="http://www.w3.org/2000/svg">
<g clip-path="url(#clip0_136_54)">
<rect x="-9" y="1301" width="1929" height="177" fill="#AAC8CA"/>
<path d="M-8 1347H1921V114L1630.5 90.5L1263.5 168L916.5 90.5L566 172L260 90.5L-8 114V1347Z" fill="#FF9894"/>
<path d="M-90 1258C18.9016 1320.63 275.909 1427.09 432.728 1351.94C628.75 1258 706.343 1311.1 771.684 1331.52C837.025 1351.94 910.533 1449.96 1171.9 1331.52C1204.57 1331.52 1359.75 1249.83 1559.86 1351.94C1719.94 1433.63 1955.99 1323.35 2054 1258" stroke="#FF9894" stroke-width="99" stroke-linecap="round"/>
<path d="M-147 210C-38.0984 147.373 218.909 40.9079 375.728 116.06C571.75 210 649.343 156.903 714.684 136.482C780.025 116.06 853.533 18.0355 1114.9 136.482C1167 160.094 1302.75 218.169 1502.86 116.06C1662.94 34.3729 1898.99 144.65 1997 210" stroke="#FFC759" stroke-width="99" stroke-linecap="round"/>
</g>
<defs>
<clipPath id="clip0_136_54">
<rect width="1920" height="1491" fill="white"/>
</clipPath>
</defs>
</svg>
