<svg width="3244" height="1225" viewBox="0 0 3244 1225" fill="none" xmlns="http://www.w3.org/2000/svg">
<g clip-path="url(#clip0_193_7)">
<rect width="3244" height="1225" fill="#FEF0E7"/>
<path d="M0 1317L549.075 1367L1158.69 1317L1690.95 1389L2260.21 1289.5L2969.88 1367L3244 1317V309.208L2755.47 290L2138.28 353.345L1554.73 290L965.296 356.614L450.696 290L0 309.208V1317Z" fill="#AAC8CA"/>
<path d="M-4 1098L322.5 1148L685 1098L1001.5 1170L1340 1070.5L1762 1148L1925 1098V90.2078L1634.5 71L1267.5 134.345L920.5 71L570 137.614L264 71L-4 90.2078V1098Z" fill="#FF9894"/>
<path d="M-143 191C-34.0984 128.373 222.909 21.9079 379.728 97.0599C575.75 191 653.343 137.903 718.684 117.482C784.025 97.0599 857.533 -0.964455 1118.9 117.482C1171 141.094 1306.75 199.169 1506.86 97.0599C1666.94 15.3729 1902.99 125.65 2001 191" stroke="#FFC759" stroke-width="99" stroke-linecap="round"/>
<path d="M-22 1033C86.9016 1095.63 343.909 1202.09 500.728 1126.94C696.75 1033 774.343 1086.1 839.684 1106.52C905.025 1126.94 978.533 1224.96 1239.9 1106.52C1272.57 1106.52 1427.75 1024.83 1627.86 1126.94C1787.94 1208.63 2023.99 1098.35 2122 1033" stroke="#FF9894" stroke-width="99" stroke-linecap="round"/>
<path d="M1418 1092L1744.5 1142L2107 1092L2423.5 1164L2762 1064.5L3184 1142L3347 1092V84.2078L3056.5 65L2689.5 128.345L2342.5 65L1992 131.614L1686 65L1418 84.2078V1092Z" fill="#FF9894"/>
<path d="M3423 185C3324.99 119.65 3088.94 9.37294 2928.86 91.0599C2728.75 193.169 2593 135.094 2540.9 111.482C2279.53 -6.96445 2206.02 91.0599 2140.68 111.482C2075.34 131.903 2007.24 161.883 1801.73 91.0599C1626 30.5 1524.99 89.4338 1401.5 138.5" stroke="#FFC759" stroke-width="99" stroke-linecap="round"/>
<path d="M1400 1027C1508.9 1089.63 1765.91 1196.09 1922.73 1120.94C2118.75 1027 2196.34 1080.1 2261.68 1100.52C2327.02 1120.94 2400.53 1218.96 2661.9 1100.52C2694.57 1100.52 2849.75 1018.83 3049.86 1120.94C3209.94 1202.63 3445.99 1092.35 3544 1027" stroke="#FF9894" stroke-width="99" stroke-linecap="round"/>
</g>
<defs>
<clipPath id="clip0_193_7">
<rect width="3244" height="1225" fill="white"/>
</clipPath>
</defs>
</svg>
