<svg width="3244" height="1098" viewBox="0 0 3244 1098" fill="none" xmlns="http://www.w3.org/2000/svg">
<g clip-path="url(#clip0_188_1010)">
<rect width="3244" height="1098" fill="#FEF0E7"/>
<path d="M1923 -488V711H0V651.102V-488H1923Z" fill="#F8C459"/>
<path d="M842.075 990.116C777.197 968.731 700.154 913.132 505.519 1011.5C358.531 1085.79 122.894 990.601 6 924.541V711H1920V1011.5C1822.31 1044.79 1712.08 1058.54 1624.67 1011.5C1425.98 904.578 1271.89 990.116 1239.46 990.116C979.942 1114.14 906.954 1011.5 842.075 990.116Z" fill="#F8C459" stroke="#F8C459" stroke-width="37" stroke-linecap="round"/>
<path d="M1669 -507V692H3592V632.102V-507H1669Z" fill="#F8C459"/>
<path d="M2749.92 971.116C2814.8 949.731 2891.85 894.132 3086.48 992.5C3233.47 1066.79 3469.11 971.601 3586 905.541V692H1672V992.5C1769.69 1025.79 1879.92 1039.54 1967.33 992.5C2166.02 885.578 2320.11 971.116 2352.54 971.116C2612.06 1095.14 2685.05 992.5 2749.92 971.116Z" fill="#F8C459" stroke="#F8C459" stroke-width="37" stroke-linecap="round"/>
</g>
<defs>
<clipPath id="clip0_188_1010">
<rect width="3244" height="1098" fill="white"/>
</clipPath>
</defs>
</svg>
