<svg width="1920" height="1287" viewBox="0 0 1920 1287" fill="none" xmlns="http://www.w3.org/2000/svg">
<g clip-path="url(#clip0_136_20)">
<rect width="1920" height="1287" fill="white"/>
<path d="M1920 19V1287H-3V1177.09V19H1920Z" fill="#F8C459"/>
<path d="M842.075 135.809C777.197 114.425 700.154 58.8253 505.519 157.193C358.531 231.48 122.894 136.294 6 70.2337V0H1920V157.193C1822.31 190.481 1712.08 204.233 1624.67 157.193C1425.98 50.2716 1271.89 135.809 1239.46 135.809C979.942 259.838 906.954 157.193 842.075 135.809Z" fill="#AAC8CA" stroke="#AAC8CA" stroke-width="37" stroke-linecap="round"/>
<path d="M958.5 1140C1039.96 1140 1106 1206.04 1106 1287.5H811C811 1206.04 877.038 1140 958.5 1140Z" fill="#FEF0E7"/>
<path d="M874.314 1214.43C874.556 1214.25 874.823 1214.17 875.116 1214.21C875.399 1214.24 875.639 1214.38 875.835 1214.63C876.031 1214.88 876.097 1215.17 876.033 1215.48C875.982 1215.78 875.825 1216.03 875.56 1216.21C874.776 1216.69 874.167 1217.1 873.734 1217.43C873.263 1217.79 872.713 1218.28 872.084 1218.88C871.839 1219.09 871.564 1219.18 871.258 1219.15C870.953 1219.13 870.702 1218.98 870.506 1218.73C870.31 1218.48 870.23 1218.21 870.265 1217.94C870.303 1217.65 870.443 1217.41 870.685 1217.22C870.8 1217.14 870.925 1217.05 871.063 1216.96C871.212 1216.87 871.361 1216.79 871.508 1216.71C871.661 1216.59 871.656 1216.5 871.494 1216.42L869.054 1215.1C868.947 1215.04 868.849 1215.05 868.76 1215.12L862.151 1220.2C862.075 1220.26 862.045 1220.35 862.063 1220.48L862.708 1223.18C862.715 1223.21 862.728 1223.24 862.748 1223.27C862.807 1223.35 862.887 1223.35 862.989 1223.27C863.109 1223.13 863.228 1223.01 863.346 1222.9C863.463 1222.79 863.579 1222.69 863.694 1222.6C863.936 1222.42 864.197 1222.35 864.477 1222.4C864.76 1222.42 865 1222.56 865.196 1222.82C865.392 1223.07 865.464 1223.35 865.413 1223.65C865.362 1223.95 865.205 1224.2 864.94 1224.38C864.143 1224.87 863.534 1225.28 863.114 1225.6C862.63 1225.98 862.08 1226.46 861.464 1227.06C861.219 1227.26 860.937 1227.36 860.619 1227.34C860.313 1227.31 860.063 1227.17 859.867 1226.92C859.671 1226.66 859.597 1226.39 859.645 1226.11C859.683 1225.82 859.823 1225.58 860.065 1225.39C860.192 1225.3 860.318 1225.21 860.443 1225.13C860.567 1225.06 860.691 1224.98 860.816 1224.91L860.854 1224.88C860.918 1224.83 860.946 1224.75 860.938 1224.63L856.998 1208.05C856.9 1207.66 857.01 1207.34 857.328 1207.1C857.634 1206.86 857.963 1206.84 858.316 1207.04L873.372 1215.07C873.482 1215.1 873.569 1215.1 873.632 1215.05C873.76 1214.95 873.876 1214.85 873.981 1214.75C874.088 1214.63 874.199 1214.52 874.314 1214.43ZM859.883 1210.18C859.811 1210.11 859.744 1210.1 859.68 1210.15C859.642 1210.18 859.633 1210.25 859.653 1210.36L861.442 1217.86C861.449 1217.89 861.463 1217.92 861.482 1217.95C861.551 1218.04 861.636 1218.04 861.738 1217.97L866.704 1214.14C866.857 1214.03 866.847 1213.92 866.676 1213.83L859.883 1210.18Z" fill="#AB4D05"/>
<path d="M893.442 1190.23C894.369 1189.82 895.256 1189.64 896.102 1189.69C896.949 1189.74 897.722 1189.96 898.421 1190.36C899.135 1190.75 899.757 1191.25 900.287 1191.86C900.811 1192.45 901.224 1193.1 901.527 1193.79C901.837 1194.49 902.021 1195.26 902.08 1196.07C902.139 1196.89 902.052 1197.69 901.818 1198.48C901.583 1199.26 901.19 1199.99 900.639 1200.65C900.087 1201.31 899.355 1201.84 898.442 1202.24C897.898 1202.48 897.333 1202.61 896.749 1202.64C896.18 1202.66 895.608 1202.6 895.032 1202.45C894.813 1202.39 894.722 1202.4 894.761 1202.49C894.877 1202.75 894.881 1203.02 894.773 1203.3C894.666 1203.57 894.48 1203.77 894.215 1203.88C893.95 1204 893.68 1204 893.405 1203.9C893.144 1203.78 892.956 1203.59 892.84 1203.33L886.778 1189.49C886.726 1189.37 886.649 1189.33 886.546 1189.38C886.399 1189.44 886.258 1189.52 886.124 1189.62C885.983 1189.69 885.839 1189.77 885.692 1189.83C885.457 1189.93 885.215 1189.94 884.968 1189.86C884.714 1189.76 884.532 1189.59 884.422 1189.33C884.3 1189.06 884.296 1188.79 884.41 1188.52C884.524 1188.26 884.719 1188.09 884.997 1188C885.224 1187.92 885.462 1187.84 885.711 1187.77C885.967 1187.68 886.217 1187.58 886.458 1187.5C886.862 1187.34 887.265 1187.34 887.667 1187.49C888.084 1187.64 888.38 1187.92 888.554 1188.31L890.594 1192.97C890.632 1193.06 890.68 1193.11 890.737 1193.12C890.794 1193.13 890.839 1193.09 890.872 1193.01C891.119 1192.41 891.452 1191.87 891.872 1191.39C892.286 1190.89 892.809 1190.5 893.442 1190.23ZM897.643 1200.36C898.334 1200.05 898.882 1199.6 899.287 1199.01C899.685 1198.39 899.911 1197.71 899.964 1196.95C900.017 1196.19 899.872 1195.42 899.531 1194.64C899.183 1193.84 898.712 1193.21 898.117 1192.73C897.537 1192.25 896.901 1191.96 896.208 1191.86C895.509 1191.74 894.799 1191.84 894.078 1192.16C893.489 1192.42 892.973 1192.8 892.53 1193.31C892.101 1193.81 891.791 1194.39 891.6 1195.03C891.574 1195.13 891.58 1195.22 891.618 1195.31L893.687 1200.04C893.72 1200.11 893.777 1200.18 893.86 1200.25C894.998 1200.93 896.259 1200.96 897.643 1200.36Z" fill="#AB4D05"/>
<path d="M923.772 1193.08C922.875 1193.27 921.999 1193.28 921.144 1193.11C920.289 1192.94 919.502 1192.63 918.784 1192.17C918.065 1191.71 917.453 1191.13 916.948 1190.44C916.454 1189.72 916.116 1188.92 915.934 1188.04C915.752 1187.16 915.746 1186.3 915.917 1185.46C916.1 1184.6 916.43 1183.82 916.907 1183.11C917.385 1182.4 917.982 1181.8 918.701 1181.31C919.419 1180.82 920.226 1180.48 921.123 1180.29C922.02 1180.11 922.888 1180.1 923.727 1180.27C924.582 1180.44 925.371 1180.76 926.092 1181.23C926.811 1181.69 927.415 1182.27 927.905 1182.97C928.411 1183.67 928.755 1184.46 928.937 1185.34C929.12 1186.23 929.118 1187.09 928.931 1187.93C928.76 1188.77 928.438 1189.55 927.964 1190.27C927.487 1190.98 926.889 1191.58 926.171 1192.07C925.468 1192.56 924.669 1192.9 923.772 1193.08ZM923.366 1191.12C924.2 1190.95 924.914 1190.6 925.51 1190.07C926.105 1189.53 926.529 1188.89 926.782 1188.13C927.035 1187.37 927.077 1186.58 926.908 1185.76C926.738 1184.95 926.381 1184.25 925.835 1183.67C925.301 1183.08 924.656 1182.65 923.898 1182.4C923.152 1182.13 922.363 1182.08 921.529 1182.25C920.679 1182.43 919.957 1182.78 919.362 1183.32C918.767 1183.85 918.343 1184.49 918.089 1185.25C917.833 1185.99 917.791 1186.78 917.964 1187.62C918.133 1188.43 918.484 1189.14 919.018 1189.74C919.551 1190.33 920.197 1190.76 920.955 1191.01C921.729 1191.26 922.532 1191.3 923.366 1191.12Z" fill="#AB4D05"/>
<path d="M959.742 1187C960.063 1186.97 960.335 1187.06 960.557 1187.27C960.779 1187.47 960.888 1187.73 960.883 1188.05C960.878 1188.35 960.754 1188.61 960.51 1188.82C960.282 1189.02 960.015 1189.11 959.711 1189.07C959.486 1189.03 959.246 1188.99 958.989 1188.94C958.733 1188.9 958.492 1188.87 958.268 1188.85C957.834 1188.83 957.459 1188.66 957.142 1188.35C956.842 1188.05 956.695 1187.67 956.701 1187.24C956.702 1187.16 956.679 1187.12 956.631 1187.12C956.566 1187.12 956.502 1187.15 956.436 1187.21C955.31 1188.4 954.08 1188.98 952.746 1188.96C951.59 1188.95 950.598 1188.63 949.772 1188.03C949.406 1187.75 949.043 1187.35 948.681 1186.83C948.335 1186.29 948.169 1185.59 948.182 1184.73L948.284 1177.95C948.286 1177.83 948.23 1177.76 948.118 1177.76C947.957 1177.76 947.796 1177.77 947.635 1177.8C947.491 1177.81 947.33 1177.82 947.153 1177.82C946.896 1177.81 946.672 1177.72 946.482 1177.54C946.292 1177.35 946.2 1177.1 946.204 1176.81C946.208 1176.53 946.316 1176.29 946.528 1176.1C946.74 1175.91 946.99 1175.83 947.279 1175.87C947.648 1175.9 947.936 1175.93 948.145 1175.95C948.354 1175.95 948.579 1175.97 948.819 1175.99C949.253 1175.99 949.62 1176.16 949.921 1176.48C950.237 1176.79 950.393 1177.17 950.386 1177.6L950.279 1184.76C950.271 1185.26 950.37 1185.65 950.574 1185.94C950.795 1186.22 951.049 1186.42 951.336 1186.56C951.64 1186.69 951.928 1186.77 952.2 1186.81C952.473 1186.85 952.665 1186.87 952.778 1186.87C953.485 1186.88 954.179 1186.66 954.861 1186.2C955.542 1185.74 956.147 1185.1 956.673 1184.27C956.723 1184.18 956.748 1184.09 956.749 1184.01L956.838 1178.08C956.84 1177.95 956.785 1177.89 956.673 1177.89C956.512 1177.88 956.351 1177.9 956.19 1177.93C956.029 1177.94 955.868 1177.95 955.708 1177.95C955.451 1177.94 955.227 1177.85 955.037 1177.67C954.847 1177.47 954.754 1177.23 954.758 1176.94C954.763 1176.65 954.871 1176.41 955.083 1176.22C955.294 1176.03 955.545 1175.96 955.833 1175.99C956.202 1176.03 956.491 1176.06 956.7 1176.08C956.908 1176.08 957.133 1176.09 957.374 1176.11C957.808 1176.12 958.175 1176.29 958.475 1176.61C958.792 1176.92 958.947 1177.29 958.941 1177.73L958.803 1186.89C958.801 1187.06 958.88 1187.14 959.041 1187.11L959.742 1187Z" fill="#AB4D05"/>
<path d="M984.371 1187.25C984.686 1187.32 984.924 1187.48 985.085 1187.74C985.245 1188 985.278 1188.29 985.184 1188.6C984.862 1189.63 984.362 1190.37 983.685 1190.8C983.023 1191.24 982.227 1191.37 981.298 1191.19C980.699 1191.07 980.192 1190.82 979.776 1190.44C979.36 1190.06 979.06 1189.6 978.874 1189.05C978.704 1188.51 978.679 1187.94 978.799 1187.34L980.257 1180.06C980.286 1179.92 980.229 1179.84 980.087 1179.81L978.811 1179.55C978.559 1179.5 978.35 1179.36 978.183 1179.13C978.035 1178.89 977.986 1178.64 978.036 1178.39C978.09 1178.12 978.229 1177.92 978.453 1177.79C978.695 1177.64 978.943 1177.59 979.195 1177.64L980.471 1177.89C980.613 1177.92 980.698 1177.87 980.726 1177.72L981.507 1173.83C981.564 1173.54 981.715 1173.32 981.961 1173.15C982.207 1172.99 982.472 1172.94 982.755 1172.99C983.039 1173.05 983.255 1173.2 983.403 1173.44C983.567 1173.69 983.62 1173.95 983.563 1174.24L982.782 1178.14C982.753 1178.28 982.81 1178.36 982.952 1178.39L985.669 1178.94C985.937 1178.99 986.139 1179.13 986.274 1179.35C986.429 1179.56 986.479 1179.8 986.425 1180.07C986.375 1180.32 986.234 1180.53 986.004 1180.7C985.793 1180.85 985.554 1180.9 985.286 1180.85L982.568 1180.31C982.427 1180.28 982.342 1180.33 982.313 1180.48L980.855 1187.75C980.845 1187.8 980.837 1187.92 980.831 1188.12C980.84 1188.32 980.899 1188.52 981.006 1188.72C981.128 1188.92 981.363 1189.06 981.71 1189.13C982.088 1189.21 982.384 1189.16 982.598 1188.99C982.828 1188.82 983.029 1188.48 983.199 1187.95C983.284 1187.69 983.437 1187.5 983.658 1187.38C983.881 1187.25 984.119 1187.2 984.371 1187.25Z" fill="#AB4D05"/>
<path d="M1026.04 1205.24C1026.3 1205.39 1026.47 1205.61 1026.55 1205.89C1026.64 1206.17 1026.6 1206.44 1026.44 1206.72C1026.28 1207 1026.05 1207.17 1025.73 1207.23C1025.43 1207.3 1025.15 1207.25 1024.88 1207.08C1024.51 1206.81 1024.18 1206.58 1023.89 1206.38C1023.61 1206.19 1023.32 1206.02 1023.05 1205.86C1022.78 1205.71 1022.49 1205.56 1022.17 1205.4C1021.87 1205.26 1021.5 1205.09 1021.07 1204.9C1020.78 1204.76 1020.59 1204.54 1020.5 1204.25C1020.41 1203.95 1020.44 1203.67 1020.6 1203.39C1020.76 1203.11 1020.99 1202.94 1021.29 1202.87C1021.59 1202.78 1021.88 1202.83 1022.14 1203.02C1022.29 1203.12 1022.44 1203.23 1022.6 1203.34C1022.77 1203.45 1022.94 1203.57 1023.1 1203.68L1023.14 1203.7C1023.24 1203.76 1023.32 1203.73 1023.38 1203.62L1029.41 1193.04C1029.47 1192.95 1029.47 1192.88 1029.41 1192.85C1029.37 1192.8 1029.3 1192.82 1029.23 1192.88L1019.23 1200.39C1019.01 1200.56 1018.76 1200.65 1018.48 1200.68C1018.23 1200.7 1017.98 1200.65 1017.75 1200.51C1017.52 1200.39 1017.35 1200.19 1017.22 1199.93C1017.1 1199.68 1017.06 1199.43 1017.1 1199.17L1018.81 1186.92C1018.85 1186.83 1018.84 1186.76 1018.78 1186.73C1018.71 1186.69 1018.64 1186.73 1018.58 1186.84L1012.54 1197.43C1012.48 1197.54 1012.49 1197.63 1012.59 1197.68C1012.77 1197.79 1012.95 1197.88 1013.13 1197.96C1013.32 1198.04 1013.51 1198.12 1013.69 1198.2C1013.98 1198.33 1014.17 1198.55 1014.25 1198.85C1014.35 1199.15 1014.31 1199.43 1014.15 1199.71C1013.99 1199.99 1013.76 1200.17 1013.47 1200.24C1013.17 1200.31 1012.88 1200.25 1012.61 1200.08C1012.24 1199.82 1011.91 1199.58 1011.62 1199.38C1011.34 1199.2 1011.06 1199.03 1010.78 1198.87C1010.5 1198.71 1010.21 1198.55 1009.91 1198.4C1009.6 1198.26 1009.23 1198.1 1008.8 1197.91C1008.51 1197.76 1008.32 1197.54 1008.21 1197.24C1008.12 1196.95 1008.15 1196.66 1008.31 1196.38C1008.47 1196.1 1008.69 1195.93 1008.97 1195.87C1009.25 1195.79 1009.53 1195.82 1009.79 1195.98C1010.01 1196.1 1010.21 1196.24 1010.36 1196.39C1010.5 1196.46 1010.61 1196.44 1010.68 1196.32L1017.46 1184.43C1017.53 1184.3 1017.51 1184.2 1017.38 1184.13C1017.29 1184.1 1017.19 1184.06 1017.08 1184.02C1016.99 1183.96 1016.88 1183.9 1016.77 1183.84C1016.5 1183.69 1016.33 1183.47 1016.25 1183.18C1016.18 1182.9 1016.21 1182.62 1016.36 1182.36C1016.52 1182.08 1016.76 1181.91 1017.07 1181.85C1017.39 1181.78 1017.67 1181.85 1017.94 1182.03C1018.37 1182.35 1018.73 1182.61 1019.02 1182.82C1019.31 1183.02 1019.61 1183.21 1019.93 1183.39C1020.34 1183.63 1020.64 1183.94 1020.83 1184.35C1021.04 1184.76 1021.11 1185.2 1021.03 1185.66L1019.29 1197.62C1019.28 1197.73 1019.3 1197.79 1019.34 1197.82C1019.41 1197.85 1019.48 1197.84 1019.54 1197.76L1029.25 1190.32C1029.61 1190.04 1030.02 1189.89 1030.48 1189.85C1030.95 1189.82 1031.37 1189.92 1031.76 1190.14C1032.1 1190.33 1032.42 1190.5 1032.73 1190.64C1033.04 1190.77 1033.42 1190.94 1033.89 1191.13C1034.18 1191.26 1034.38 1191.48 1034.48 1191.8C1034.58 1192.1 1034.56 1192.39 1034.4 1192.67C1034.25 1192.93 1034.03 1193.11 1033.74 1193.18C1033.47 1193.25 1033.2 1193.2 1032.93 1193.05C1032.83 1193 1032.74 1192.94 1032.65 1192.87C1032.57 1192.8 1032.48 1192.74 1032.37 1192.68L1032.33 1192.65C1032.23 1192.6 1032.15 1192.63 1032.09 1192.74L1025.29 1204.65C1025.22 1204.78 1025.25 1204.88 1025.39 1204.96C1025.63 1205.03 1025.84 1205.13 1026.04 1205.24Z" fill="#AB4D05"/>
<path d="M1056.3 1223.93L1050.42 1218.12C1050.31 1218.01 1050.2 1218.02 1050.11 1218.15C1049.61 1219.03 1049.41 1219.96 1049.51 1220.95C1049.63 1221.93 1050.05 1222.77 1050.75 1223.47C1051.6 1224.31 1052.66 1224.69 1053.95 1224.63C1054.31 1224.6 1054.61 1224.71 1054.85 1224.95C1055 1225.09 1055.09 1225.28 1055.13 1225.49C1055.2 1225.85 1055.11 1226.16 1054.86 1226.41C1054.7 1226.57 1054.51 1226.66 1054.28 1226.69C1053.37 1226.76 1052.49 1226.64 1051.62 1226.33C1050.76 1226.01 1050 1225.53 1049.35 1224.89C1048.72 1224.27 1048.25 1223.57 1047.94 1222.78C1047.64 1222.01 1047.49 1221.21 1047.48 1220.37C1047.5 1219.53 1047.67 1218.71 1047.98 1217.91C1048.31 1217.12 1048.78 1216.42 1049.4 1215.79C1050.26 1214.92 1051.23 1214.33 1052.29 1214C1053.38 1213.68 1054.46 1213.64 1055.53 1213.88C1056.6 1214.13 1057.54 1214.65 1058.35 1215.45C1059.54 1216.63 1060.14 1217.97 1060.18 1219.47C1060.21 1220.97 1059.65 1222.43 1058.51 1223.86C1058.24 1224.2 1057.88 1224.38 1057.44 1224.39C1057.01 1224.41 1056.63 1224.26 1056.3 1223.93ZM1057.01 1216.81C1056.28 1216.08 1055.46 1215.69 1054.57 1215.61C1053.67 1215.54 1052.77 1215.79 1051.88 1216.37L1051.84 1216.41C1051.75 1216.5 1051.75 1216.59 1051.84 1216.68L1057.1 1221.89C1057.22 1222 1057.33 1221.98 1057.43 1221.83C1058.66 1219.97 1058.52 1218.3 1057.01 1216.81Z" fill="#AB4D05"/>
</g>
<defs>
<clipPath id="clip0_136_20">
<rect width="1920" height="1287" fill="white"/>
</clipPath>
</defs>
</svg>
