<svg width="1920" height="466" viewBox="0 0 1920 466" fill="none" xmlns="http://www.w3.org/2000/svg">
<path d="M254.461 422.346C136.685 510.49 69.155 422.346 50.1116 367.256C-51.8433 331.998 -43.6401 242.385 -26.7941 201.985C24.1834 113.84 108.706 131.471 144.596 151.304C139.469 110.905 157.78 27.4612 272.039 16.8839C386.299 6.30659 425.118 93.2749 430.246 138.081C495.286 125.741 521.8 175.542 526.927 201.985C630.64 198.46 647.779 290.13 643.384 336.405C628.003 444.383 500.559 439.975 456.613 411.328C381.026 504.76 290.35 457.603 254.461 422.346Z" fill="#FBEFD8"/>
<path d="M1583.46 406.346C1465.69 494.49 1398.15 406.346 1379.11 351.256C1277.16 315.998 1285.36 226.385 1302.21 185.985C1353.18 97.8401 1437.71 115.471 1473.6 135.304C1468.47 94.9047 1486.78 11.4612 1601.04 0.88388C1715.3 -9.69341 1754.12 77.2749 1759.25 122.081C1824.29 109.741 1850.8 159.542 1855.93 185.985C1959.64 182.46 1976.78 274.13 1972.38 320.405C1957 428.383 1829.56 423.975 1785.61 395.328C1710.03 488.76 1619.35 441.603 1583.46 406.346Z" fill="#FFF8EA"/>
<path d="M1583.46 406.346C1465.69 494.49 1398.15 406.346 1379.11 351.256C1277.16 315.998 1285.36 226.385 1302.21 185.985C1353.18 97.8401 1437.71 115.471 1473.6 135.304C1468.47 94.9047 1486.78 11.4612 1601.04 0.88388C1715.3 -9.69341 1754.12 77.2749 1759.25 122.081C1824.29 109.741 1850.8 159.542 1855.93 185.985C1959.64 182.46 1976.78 274.13 1972.38 320.405C1957 428.383 1829.56 423.975 1785.61 395.328C1710.03 488.76 1619.35 441.603 1583.46 406.346Z" fill="#FFF8EA"/>
<path d="M1583.46 406.346C1465.69 494.49 1398.15 406.346 1379.11 351.256C1277.16 315.998 1285.36 226.385 1302.21 185.985C1353.18 97.8401 1437.71 115.471 1473.6 135.304C1468.47 94.9047 1486.78 11.4612 1601.04 0.88388C1715.3 -9.69341 1754.12 77.2749 1759.25 122.081C1824.29 109.741 1850.8 159.542 1855.93 185.985C1959.64 182.46 1976.78 274.13 1972.38 320.405C1957 428.383 1829.56 423.975 1785.61 395.328C1710.03 488.76 1619.35 441.603 1583.46 406.346Z" fill="#FFF8EA"/>
<path d="M1583.46 406.346C1465.69 494.49 1398.15 406.346 1379.11 351.256C1277.16 315.998 1285.36 226.385 1302.21 185.985C1353.18 97.8401 1437.71 115.471 1473.6 135.304C1468.47 94.9047 1486.78 11.4612 1601.04 0.88388C1715.3 -9.69341 1754.12 77.2749 1759.25 122.081C1824.29 109.741 1850.8 159.542 1855.93 185.985C1959.64 182.46 1976.78 274.13 1972.38 320.405C1957 428.383 1829.56 423.975 1785.61 395.328C1710.03 488.76 1619.35 441.603 1583.46 406.346Z" fill="#FFFBF4"/>
<path d="M1583.46 406.346C1465.69 494.49 1398.15 406.346 1379.11 351.256C1277.16 315.998 1285.36 226.385 1302.21 185.985C1353.18 97.8401 1437.71 115.471 1473.6 135.304C1468.47 94.9047 1486.78 11.4612 1601.04 0.88388C1715.3 -9.69341 1754.12 77.2749 1759.25 122.081C1824.29 109.741 1850.8 159.542 1855.93 185.985C1959.64 182.46 1976.78 274.13 1972.38 320.405C1957 428.383 1829.56 423.975 1785.61 395.328C1710.03 488.76 1619.35 441.603 1583.46 406.346Z" fill="#FBEFD8"/>
</svg>
