<svg width="589" height="450" viewBox="0 0 589 450" fill="none" xmlns="http://www.w3.org/2000/svg">
<path d="M199.461 406.346C81.6855 494.49 14.1549 406.346 -4.88837 351.256C-106.843 315.998 -98.6401 226.385 -81.7941 185.985C-30.8166 97.8401 53.7064 115.471 89.5958 135.304C84.4687 94.9046 102.78 11.4612 217.039 0.88388C331.299 -9.69341 370.118 77.2748 375.245 122.081C440.286 109.741 466.8 159.542 471.927 185.985C575.64 182.46 592.779 274.13 588.384 320.405C573.003 428.383 445.559 423.975 401.613 395.328C326.026 488.76 235.35 441.603 199.461 406.346Z" fill="#FFF8EA"/>
<path d="M199.461 406.346C81.6855 494.49 14.1549 406.346 -4.88837 351.256C-106.843 315.998 -98.6401 226.385 -81.7941 185.985C-30.8166 97.8401 53.7064 115.471 89.5958 135.304C84.4687 94.9046 102.78 11.4612 217.039 0.88388C331.299 -9.69341 370.118 77.2748 375.245 122.081C440.286 109.741 466.8 159.542 471.927 185.985C575.64 182.46 592.779 274.13 588.384 320.405C573.003 428.383 445.559 423.975 401.613 395.328C326.026 488.76 235.35 441.603 199.461 406.346Z" fill="#FFF8EA"/>
<path d="M199.461 406.346C81.6855 494.49 14.1549 406.346 -4.88837 351.256C-106.843 315.998 -98.6401 226.385 -81.7941 185.985C-30.8166 97.8401 53.7064 115.471 89.5958 135.304C84.4687 94.9046 102.78 11.4612 217.039 0.88388C331.299 -9.69341 370.118 77.2748 375.245 122.081C440.286 109.741 466.8 159.542 471.927 185.985C575.64 182.46 592.779 274.13 588.384 320.405C573.003 428.383 445.559 423.975 401.613 395.328C326.026 488.76 235.35 441.603 199.461 406.346Z" fill="#FFF8EA"/>
<path d="M199.461 406.346C81.6855 494.49 14.1549 406.346 -4.88837 351.256C-106.843 315.998 -98.6401 226.385 -81.7941 185.985C-30.8166 97.8401 53.7064 115.471 89.5958 135.304C84.4687 94.9046 102.78 11.4612 217.039 0.88388C331.299 -9.69341 370.118 77.2748 375.245 122.081C440.286 109.741 466.8 159.542 471.927 185.985C575.64 182.46 592.779 274.13 588.384 320.405C573.003 428.383 445.559 423.975 401.613 395.328C326.026 488.76 235.35 441.603 199.461 406.346Z" fill="#FFFBF4"/>
</svg>
