<svg width="1091" height="572" viewBox="0 0 1091 572" fill="none" xmlns="http://www.w3.org/2000/svg">
<path d="M701.461 406.346C583.685 494.49 516.155 406.346 497.112 351.256C395.157 315.998 403.36 226.385 420.206 185.985C471.183 97.8401 555.706 115.471 591.596 135.304C586.469 94.9046 604.78 11.4612 719.039 0.88388C833.299 -9.69341 872.118 77.2748 877.245 122.081C942.286 109.741 968.8 159.542 973.927 185.985C1077.64 182.46 1094.78 274.13 1090.38 320.405C1075 428.383 947.559 423.975 903.613 395.328C828.026 488.76 737.35 441.603 701.461 406.346Z" fill="#FFF7E8"/>
<path d="M291.461 528.346C173.685 616.49 106.155 528.346 87.1116 473.256C-14.8433 437.998 -6.64007 348.385 10.2059 307.985C61.1834 219.84 145.706 237.471 181.596 257.304C176.469 216.905 194.78 133.461 309.039 122.884C423.299 112.307 462.118 199.275 467.245 244.081C532.286 231.741 558.8 281.542 563.927 307.985C667.64 304.46 684.779 396.13 680.384 442.405C665.003 550.383 537.559 545.975 493.613 517.328C418.026 610.76 327.35 563.603 291.461 528.346Z" fill="#FFF7E8"/>
</svg>
