<svg width="691" height="567" viewBox="0 0 691 567" fill="none" xmlns="http://www.w3.org/2000/svg">
<path d="M291.461 523.346C173.685 611.49 106.155 523.346 87.1116 468.256C-14.8433 432.998 -6.64007 343.385 10.2059 302.985C61.1834 214.84 145.706 232.471 181.596 252.304C176.469 211.905 194.78 128.461 309.039 117.884C423.299 107.307 462.118 194.275 467.245 239.081C532.286 226.741 558.8 276.542 563.927 302.985C667.64 299.46 684.779 391.13 680.384 437.405C665.003 545.383 537.559 540.975 493.613 512.328C418.026 605.76 327.35 558.603 291.461 523.346Z" fill="#FFF8EA"/>
<path d="M291.461 523.346C173.685 611.49 106.155 523.346 87.1116 468.256C-14.8433 432.998 -6.64007 343.385 10.2059 302.985C61.1834 214.84 145.706 232.471 181.596 252.304C176.469 211.905 194.78 128.461 309.039 117.884C423.299 107.307 462.118 194.275 467.245 239.081C532.286 226.741 558.8 276.542 563.927 302.985C667.64 299.46 684.779 391.13 680.384 437.405C665.003 545.383 537.559 540.975 493.613 512.328C418.026 605.76 327.35 558.603 291.461 523.346Z" fill="#FFF8EA"/>
<path d="M291.461 523.346C173.685 611.49 106.155 523.346 87.1116 468.256C-14.8433 432.998 -6.64007 343.385 10.2059 302.985C61.1834 214.84 145.706 232.471 181.596 252.304C176.469 211.905 194.78 128.461 309.039 117.884C423.299 107.307 462.118 194.275 467.245 239.081C532.286 226.741 558.8 276.542 563.927 302.985C667.64 299.46 684.779 391.13 680.384 437.405C665.003 545.383 537.559 540.975 493.613 512.328C418.026 605.76 327.35 558.603 291.461 523.346Z" fill="#FFF7E8"/>
<path d="M516.461 406.346C398.685 494.49 331.155 406.346 312.112 351.256C210.157 315.998 218.36 226.385 235.206 185.985C286.183 97.8401 370.706 115.471 406.596 135.304C401.469 94.9046 419.78 11.4612 534.039 0.88388C648.299 -9.69341 687.118 77.2748 692.245 122.081C757.286 109.741 783.8 159.542 788.927 185.985C892.64 182.46 909.779 274.13 905.384 320.405C890.003 428.383 762.559 423.975 718.613 395.328C643.026 488.76 552.35 441.603 516.461 406.346Z" fill="#FFF8EA"/>
<path d="M516.461 406.346C398.685 494.49 331.155 406.346 312.112 351.256C210.157 315.998 218.36 226.385 235.206 185.985C286.183 97.8401 370.706 115.471 406.596 135.304C401.469 94.9046 419.78 11.4612 534.039 0.88388C648.299 -9.69341 687.118 77.2748 692.245 122.081C757.286 109.741 783.8 159.542 788.927 185.985C892.64 182.46 909.779 274.13 905.384 320.405C890.003 428.383 762.559 423.975 718.613 395.328C643.026 488.76 552.35 441.603 516.461 406.346Z" fill="#FFF8EA"/>
<path d="M516.461 406.346C398.685 494.49 331.155 406.346 312.112 351.256C210.157 315.998 218.36 226.385 235.206 185.985C286.183 97.8401 370.706 115.471 406.596 135.304C401.469 94.9046 419.78 11.4612 534.039 0.88388C648.299 -9.69341 687.118 77.2748 692.245 122.081C757.286 109.741 783.8 159.542 788.927 185.985C892.64 182.46 909.779 274.13 905.384 320.405C890.003 428.383 762.559 423.975 718.613 395.328C643.026 488.76 552.35 441.603 516.461 406.346Z" fill="#FFF7E8"/>
</svg>
