<svg width="889" height="643" viewBox="0 0 889 643" fill="none" xmlns="http://www.w3.org/2000/svg">
<path d="M168.461 406.346C50.6855 494.49 -16.8451 406.346 -35.8884 351.256C-137.843 315.998 -129.64 226.385 -112.794 185.985C-61.8166 97.8401 22.7064 115.471 58.5958 135.304C53.4687 94.9046 71.7796 11.4612 186.039 0.88388C300.299 -9.69341 339.118 77.2748 344.245 122.081C409.286 109.741 435.8 159.542 440.927 185.985C544.64 182.46 561.779 274.13 557.384 320.405C542.003 428.383 414.559 423.975 370.613 395.328C295.026 488.76 204.35 441.603 168.461 406.346Z" fill="#FFF8EA"/>
<path d="M168.461 406.346C50.6855 494.49 -16.8451 406.346 -35.8884 351.256C-137.843 315.998 -129.64 226.385 -112.794 185.985C-61.8166 97.8401 22.7064 115.471 58.5958 135.304C53.4687 94.9046 71.7796 11.4612 186.039 0.88388C300.299 -9.69341 339.118 77.2748 344.245 122.081C409.286 109.741 435.8 159.542 440.927 185.985C544.64 182.46 561.779 274.13 557.384 320.405C542.003 428.383 414.559 423.975 370.613 395.328C295.026 488.76 204.35 441.603 168.461 406.346Z" fill="#FFF8EA"/>
<path d="M168.461 406.346C50.6855 494.49 -16.8451 406.346 -35.8884 351.256C-137.843 315.998 -129.64 226.385 -112.794 185.985C-61.8166 97.8401 22.7064 115.471 58.5958 135.304C53.4687 94.9046 71.7796 11.4612 186.039 0.88388C300.299 -9.69341 339.118 77.2748 344.245 122.081C409.286 109.741 435.8 159.542 440.927 185.985C544.64 182.46 561.779 274.13 557.384 320.405C542.003 428.383 414.559 423.975 370.613 395.328C295.026 488.76 204.35 441.603 168.461 406.346Z" fill="#FFF2D9"/>
<path d="M499.461 599.346C381.685 687.49 314.155 599.346 295.112 544.256C193.157 508.998 201.36 419.385 218.206 378.985C269.183 290.84 353.706 308.471 389.596 328.304C384.469 287.905 402.78 204.461 517.039 193.884C631.299 183.307 670.118 270.275 675.245 315.081C740.286 302.741 766.8 352.542 771.927 378.985C875.64 375.46 892.779 467.13 888.384 513.405C873.003 621.383 745.559 616.975 701.613 588.328C626.026 681.76 535.35 634.603 499.461 599.346Z" fill="#FFF8EA"/>
<path d="M499.461 599.346C381.685 687.49 314.155 599.346 295.112 544.256C193.157 508.998 201.36 419.385 218.206 378.985C269.183 290.84 353.706 308.471 389.596 328.304C384.469 287.905 402.78 204.461 517.039 193.884C631.299 183.307 670.118 270.275 675.245 315.081C740.286 302.741 766.8 352.542 771.927 378.985C875.64 375.46 892.779 467.13 888.384 513.405C873.003 621.383 745.559 616.975 701.613 588.328C626.026 681.76 535.35 634.603 499.461 599.346Z" fill="#FFF8EA"/>
<path d="M499.461 599.346C381.685 687.49 314.155 599.346 295.112 544.256C193.157 508.998 201.36 419.385 218.206 378.985C269.183 290.84 353.706 308.471 389.596 328.304C384.469 287.905 402.78 204.461 517.039 193.884C631.299 183.307 670.118 270.275 675.245 315.081C740.286 302.741 766.8 352.542 771.927 378.985C875.64 375.46 892.779 467.13 888.384 513.405C873.003 621.383 745.559 616.975 701.613 588.328C626.026 681.76 535.35 634.603 499.461 599.346Z" fill="#FFF2D9"/>
</svg>
