<svg width="158" height="161" viewBox="0 0 158 161" fill="none" xmlns="http://www.w3.org/2000/svg">
<path d="M103.711 53.7386L99.8757 45.6361C91.8843 28.7524 67.4799 29.9226 61.1408 47.4936L59.6469 51.6343C57.457 57.7043 52.598 62.4305 46.4696 64.4513L41.7272 66.0151C24.964 71.5428 22.0851 94.0301 36.9151 103.602L51.2869 112.879C54.4871 114.945 57.0653 117.842 58.7453 121.26L61.8988 127.677C69.1021 142.334 89.5453 143.52 98.3952 129.794L104.979 119.584C106.488 117.242 108.449 115.224 110.747 113.648L125.397 103.596C139.277 94.072 136.872 72.9066 121.209 66.7398L114.999 64.2945C110.031 62.3386 105.995 58.5642 103.711 53.7386Z" fill="#D67470"/>
<path d="M78 107C78 108.657 79.3431 110 81 110C82.6569 110 84 108.657 84 107H78ZM83.1213 63.8787C81.9497 62.7071 80.0503 62.7071 78.8787 63.8787L59.7868 82.9706C58.6152 84.1421 58.6152 86.0416 59.7868 87.2132C60.9584 88.3848 62.8579 88.3848 64.0294 87.2132L81 70.2426L97.9706 87.2132C99.1421 88.3848 101.042 88.3848 102.213 87.2132C103.385 86.0416 103.385 84.1421 102.213 82.9706L83.1213 63.8787ZM84 107V66H78V107H84Z" fill="#FEF0E7"/>
</svg>
