<svg width="158" height="161" viewBox="0 0 158 161" fill="none" xmlns="http://www.w3.org/2000/svg">
<path d="M103.711 53.7386L99.8757 45.6361C91.8843 28.7524 67.4799 29.9226 61.1408 47.4936L59.6469 51.6343C57.457 57.7043 52.598 62.4305 46.4696 64.4513L41.7272 66.0151C24.964 71.5428 22.0851 94.0301 36.9151 103.602L51.2869 112.879C54.4871 114.945 57.0653 117.842 58.7453 121.26L61.8988 127.677C69.1021 142.334 89.5453 143.52 98.3952 129.794L104.979 119.584C106.488 117.242 108.449 115.224 110.747 113.648L125.397 103.596C139.277 94.072 136.872 72.9066 121.209 66.7398L114.999 64.2945C110.031 62.3386 105.995 58.5642 103.711 53.7386Z" fill="#FF9894"/>
<path d="M80 110C80 111.105 80.8954 112 82 112C83.1046 112 84 111.105 84 110H80ZM83.4142 67.5858C82.6332 66.8047 81.3668 66.8047 80.5858 67.5858L67.8579 80.3137C67.0768 81.0948 67.0768 82.3611 67.8579 83.1421C68.6389 83.9232 69.9052 83.9232 70.6863 83.1421L82 71.8284L93.3137 83.1421C94.0948 83.9232 95.3611 83.9232 96.1421 83.1421C96.9232 82.3611 96.9232 81.0948 96.1421 80.3137L83.4142 67.5858ZM84 110V69H80V110H84Z" fill="white"/>
</svg>
