<svg width="1920" height="1446" viewBox="0 0 1920 1446" fill="none" xmlns="http://www.w3.org/2000/svg">
<g clip-path="url(#clip0_207_10)">
<rect width="1920" height="1446" fill="#FEF0E7"/>
<path d="M3244 619V1818H-81V1758.1V619H3244Z" fill="#F8C459"/>
<path d="M838.696 1345.62C773.615 1324.23 696.33 1268.63 501.085 1367C353.636 1441.29 117.26 1346.1 0 1280.04V0H1920V1367C1822 1400.29 1711.43 1414.04 1623.74 1367C1424.43 1260.08 1269.86 1345.62 1237.32 1345.62C976.995 1469.64 903.778 1367 838.696 1345.62Z" fill="#FF9894"/>
<path d="M955.962 147.5C1037.68 147.5 1103.92 81.462 1103.92 0H808C808 81.462 874.245 147.5 955.962 147.5Z" fill="#FEF0E7"/>
<path d="M870.824 40.5759L870.984 36.5794C870.996 36.2047 871.161 35.8902 871.478 35.636C871.732 35.4326 872.031 35.3499 872.374 35.3878C872.733 35.4131 873.02 35.5606 873.236 35.8304C873.478 36.1319 873.564 36.4669 873.494 36.8353L872.82 40.7749C872.782 40.9877 872.651 41.1831 872.429 41.361C872.207 41.5389 871.967 41.6137 871.71 41.5852C871.424 41.5536 871.192 41.4267 871.014 41.2045C870.887 41.0458 870.824 40.8363 870.824 40.5759ZM860.666 63.5592C860.907 63.8608 861.007 64.1973 860.966 64.5689C860.941 64.9277 860.77 65.2343 860.452 65.4885C860.135 65.7427 859.778 65.8334 859.381 65.7605C858.996 65.7036 858.685 65.51 858.447 65.1799C857.818 64.1989 857.287 63.4387 856.855 62.8991C856.384 62.3118 855.759 61.6278 854.977 60.847C854.707 60.5423 854.586 60.1962 854.614 59.8088C854.643 59.4214 854.816 59.1006 855.133 58.8464C855.451 58.5922 855.781 58.484 856.124 58.522C856.495 58.5631 856.802 58.7344 857.043 59.0359C857.158 59.1788 857.27 59.3359 857.382 59.5073C857.506 59.6946 857.615 59.8803 857.711 60.0645C857.863 60.2549 857.987 60.2469 858.082 60.0405L859.686 56.9197C859.759 56.7831 859.751 56.6592 859.662 56.5481L853.065 48.311C852.989 48.2158 852.87 48.1809 852.708 48.2064L849.312 49.0893C849.268 49.0989 849.23 49.1164 849.198 49.1418C849.103 49.218 849.106 49.3197 849.208 49.4466C849.379 49.5958 849.536 49.7434 849.679 49.8894C849.822 50.0354 849.951 50.1798 850.065 50.3226C850.307 50.6242 850.401 50.9528 850.347 51.3085C850.322 51.6674 850.15 51.9739 849.833 52.2281C849.516 52.4823 849.165 52.5809 848.78 52.5239C848.396 52.467 848.085 52.2734 847.847 51.9433C847.205 50.9465 846.674 50.1862 846.254 49.6625C845.771 49.0594 845.145 48.3754 844.377 47.6105C844.107 47.3058 843.979 46.9517 843.995 46.5484C844.023 46.161 844.196 45.8402 844.514 45.586C844.831 45.3318 845.168 45.2316 845.523 45.2854C845.895 45.3265 846.201 45.4978 846.443 45.7994C846.57 45.9581 846.683 46.1152 846.781 46.2708C846.88 46.4263 846.978 46.5819 847.077 46.7374L847.115 46.785C847.179 46.8644 847.283 46.8977 847.43 46.8849L868.314 41.4917C868.806 41.3581 869.211 41.4897 869.529 41.8864C869.834 42.2673 869.867 42.6833 869.629 43.1344L859.841 62.3831C859.797 62.5228 859.806 62.6324 859.87 62.7118C859.997 62.8705 860.126 63.0149 860.256 63.145C860.415 63.2783 860.551 63.4164 860.666 63.5592ZM865.691 45.1941C865.774 45.102 865.783 45.0163 865.72 44.9369C865.681 44.8893 865.596 44.8798 865.462 44.9084L856.013 47.3568C855.969 47.3664 855.931 47.3839 855.899 47.4093C855.788 47.4983 855.783 47.6062 855.885 47.7332L860.842 53.923C860.994 54.1134 861.126 54.0991 861.237 53.8799L865.691 45.1941Z" fill="#AB4D05"/>
<path d="M903.143 73.7068C905.425 74.871 906.95 76.3338 907.718 78.095C908.495 79.8382 908.394 81.6697 907.414 83.5897C906.435 85.5096 905.007 86.6757 903.13 87.088C901.281 87.4914 899.17 87.0879 896.797 85.8775L893.102 83.9926C892.939 83.9094 892.816 83.9494 892.733 84.1124L889.975 89.519C889.901 89.664 889.928 89.7687 890.054 89.8334C890.29 89.9535 890.521 90.06 890.747 90.1527C890.983 90.2274 891.214 90.3111 891.441 90.4039C891.822 90.5524 892.074 90.8182 892.198 91.2011C892.332 91.5659 892.306 91.9295 892.121 92.2917C891.946 92.6359 891.662 92.8564 891.27 92.9533C890.887 93.0775 890.533 93.0337 890.208 92.8219C889.701 92.5177 889.257 92.2459 888.877 92.0064C888.488 91.785 888.112 91.5819 887.75 91.3971C887.388 91.2123 887.012 91.032 886.622 90.8561C886.242 90.7075 885.788 90.522 885.263 90.2995C884.9 90.1601 884.643 89.9035 884.491 89.5294C884.34 89.1553 884.356 88.7872 884.541 88.4249C884.726 88.0627 884.992 87.8329 885.338 87.7357C885.694 87.6203 886.043 87.6504 886.388 87.826C886.514 87.8907 886.637 87.9644 886.754 88.0472C886.89 88.1392 887.034 88.2359 887.188 88.3371L887.243 88.3649C887.369 88.4295 887.47 88.3894 887.544 88.2445L895.402 72.8396C895.476 72.6947 895.449 72.5899 895.323 72.5252C895.178 72.4513 895.024 72.3955 894.86 72.3578C894.724 72.3113 894.584 72.251 894.439 72.1771C894.095 72.0015 893.856 71.7314 893.722 71.3665C893.598 70.9836 893.624 70.6201 893.799 70.2759C894.003 69.8774 894.3 69.6298 894.692 69.5329C895.111 69.4272 895.502 69.4894 895.864 69.7197C896.198 69.9588 896.542 70.2026 896.894 70.4509C897.274 70.6904 897.646 70.9026 898.008 71.0874L903.143 73.7068ZM894.202 81.2325C894.119 81.3955 894.159 81.5186 894.322 81.6017L898.261 83.6114C901.54 85.2837 903.812 84.8792 905.078 82.3978C906.381 79.8439 905.325 77.7302 901.91 76.0567L898.133 74.1302C897.97 74.047 897.847 74.087 897.764 74.25L894.202 81.2325Z" fill="#AB4D05"/>
<path d="M933.855 106.229C934.262 106.272 934.576 106.461 934.797 106.797C935.042 107.118 935.124 107.477 935.041 107.876C934.959 108.274 934.742 108.572 934.39 108.769C934.058 108.97 933.694 109.02 933.3 108.917C933.225 108.881 932.914 108.775 932.369 108.6C931.824 108.426 931.292 108.285 930.775 108.178C929.918 108.001 929.335 107.507 929.025 106.695L925.628 98.1141C925.593 97.9823 925.496 97.8999 925.336 97.867L921.752 97.1267C921.573 97.0896 921.465 97.1607 921.428 97.34L920.2 103.284C920.167 103.443 920.22 103.537 920.36 103.566C920.618 103.62 920.869 103.661 921.113 103.69C921.36 103.7 921.605 103.72 921.848 103.749C922.254 103.791 922.568 103.981 922.789 104.317C923.015 104.634 923.086 104.991 923.004 105.389C922.922 105.787 922.714 106.087 922.382 106.289C922.05 106.49 921.687 106.539 921.293 106.437C920.747 106.262 920.26 106.11 919.83 105.979C919.416 105.873 919.01 105.779 918.612 105.697C918.213 105.614 917.803 105.54 917.381 105.473C916.954 105.427 916.446 105.374 915.856 105.314C915.454 105.252 915.13 105.061 914.885 104.74C914.66 104.424 914.588 104.066 914.67 103.668C914.753 103.27 914.948 102.978 915.256 102.792C915.568 102.587 915.914 102.523 916.292 102.601C916.432 102.63 916.569 102.669 916.704 102.718C916.859 102.77 917.025 102.825 917.2 102.882L917.259 102.895C917.399 102.923 917.485 102.858 917.518 102.699L921.016 85.7628C921.057 85.5637 920.984 85.4656 920.797 85.4684L920.067 85.38C919.657 85.3575 919.319 85.1839 919.054 84.8592C918.793 84.5146 918.705 84.1333 918.792 83.7151C918.882 83.277 919.104 82.9594 919.456 82.7622C919.832 82.5492 920.225 82.5058 920.635 82.632C921.021 82.774 921.417 82.9181 921.823 83.0642C922.252 83.1945 922.666 83.3008 923.065 83.3831L928.525 84.542C931.129 85.1007 933.037 86.1176 934.248 87.5928C935.483 89.0521 935.882 90.8371 935.446 92.9479C935.105 94.6007 934.361 95.89 933.215 96.816C932.093 97.7261 930.664 98.2096 928.929 98.2665C928.702 98.261 928.629 98.3603 928.712 98.5642L931.526 105.748C931.561 105.88 931.668 105.964 931.847 106.001C932.552 106.105 933.222 106.181 933.855 106.229ZM928.323 87.1786L923.992 86.284C923.812 86.247 923.704 86.3181 923.667 86.4973L922.082 94.1738C922.045 94.353 922.116 94.4611 922.295 94.4981L926.626 95.3927C930.23 96.1372 932.314 95.1454 932.878 92.4173C933.445 89.6693 931.927 87.9231 928.323 87.1786Z" fill="#AB4D05"/>
<path d="M957.424 88.1501C958.944 88.0245 960.398 88.2105 961.785 88.7079C963.171 89.1851 964.415 89.9188 965.517 90.9091C966.618 91.8792 967.509 93.0399 968.192 94.3912C968.895 95.7409 969.312 97.2061 969.443 98.7867C969.575 100.388 969.405 101.911 968.933 103.358C968.481 104.803 967.793 106.105 966.868 107.262C965.942 108.4 964.835 109.328 963.548 110.046C962.259 110.744 960.855 111.156 959.335 111.282C957.815 111.407 956.362 111.232 954.976 110.754C953.589 110.257 952.345 109.523 951.244 108.553C950.142 107.563 949.24 106.393 948.537 105.043C947.854 103.692 947.446 102.216 947.314 100.615C947.183 99.0341 947.344 97.5213 947.796 96.0762C948.268 94.6294 948.967 93.3373 949.893 92.1998C950.818 91.0421 951.925 90.1142 953.214 89.416C954.501 88.6976 955.904 88.2756 957.424 88.1501ZM959.107 108.516C960.707 108.383 962.095 107.891 963.269 107.039C964.442 106.167 965.328 105.043 965.929 103.668C966.548 102.27 966.787 100.72 966.646 99.0177C966.506 97.3155 966.016 95.8359 965.178 94.579C964.36 93.3204 963.291 92.3682 961.973 91.7222C960.673 91.0542 959.233 90.7856 957.653 90.9161C956.052 91.0484 954.655 91.5514 953.462 92.4253C952.288 93.2772 951.391 94.402 950.772 95.7997C950.172 97.1755 949.941 98.7043 950.08 100.386C950.219 102.068 950.698 103.549 951.518 104.827C952.358 106.105 953.438 107.076 954.758 107.743C956.076 108.389 957.526 108.646 959.107 108.516Z" fill="#AB4D05"/>
<path d="M989.144 83.3187C991.532 82.3916 993.639 82.2282 995.464 82.8284C997.282 83.4097 998.581 84.705 999.361 86.7142C1000.14 88.7235 1000.06 90.5654 999.117 92.2398C998.186 93.8879 996.479 95.1939 993.996 96.1578L990.129 97.6587C989.959 97.7249 989.907 97.8433 989.973 98.0139L992.169 103.672C992.228 103.824 992.324 103.874 992.456 103.822C992.703 103.727 992.936 103.625 993.156 103.518C993.369 103.392 993.585 103.275 993.805 103.168C994.17 102.983 994.536 102.971 994.905 103.134C995.266 103.277 995.52 103.538 995.667 103.918C995.807 104.278 995.782 104.636 995.594 104.993C995.431 105.361 995.163 105.597 994.788 105.698C994.223 105.874 993.725 106.024 993.293 106.148C992.869 106.29 992.467 106.435 992.088 106.583C991.709 106.73 991.324 106.89 990.933 107.064C990.569 107.249 990.129 107.463 989.613 107.707C989.267 107.885 988.905 107.906 988.525 107.769C988.145 107.633 987.881 107.376 987.734 106.997C987.587 106.618 987.592 106.267 987.75 105.943C987.901 105.601 988.157 105.36 988.517 105.221C988.65 105.169 988.786 105.127 988.926 105.095C989.085 105.055 989.253 105.011 989.431 104.964L989.488 104.942C989.621 104.89 989.658 104.789 989.599 104.637L983.341 88.5154C983.282 88.3637 983.187 88.3136 983.054 88.3651C982.902 88.424 982.758 88.5018 982.621 88.5986C982.496 88.6691 982.357 88.7337 982.206 88.7926C981.846 88.9324 981.485 88.9306 981.124 88.7871C980.756 88.6248 980.501 88.3635 980.362 88.0034C980.2 87.5863 980.213 87.1994 980.402 86.8426C980.602 86.4595 980.909 86.2097 981.321 86.0931C981.723 86.0028 982.133 85.9089 982.553 85.8112C982.985 85.6873 983.391 85.5517 983.77 85.4045L989.144 83.3187ZM988.803 95C988.869 95.1706 988.988 95.2228 989.158 95.1566L993.281 93.5563C996.712 92.2246 997.923 90.2603 996.915 87.6634C995.878 84.9906 993.598 84.3707 990.075 85.8034L986.123 87.3375C985.953 87.4037 985.9 87.5221 985.967 87.6927L988.803 95Z" fill="#AB4D05"/>
<path d="M1014.66 71.021C1015.87 70.0872 1017.19 69.4505 1018.62 69.111C1020.04 68.7554 1021.49 68.6923 1022.95 68.9217C1024.4 69.135 1025.78 69.622 1027.09 70.3825C1028.42 71.1306 1029.56 72.1316 1030.54 73.3855C1031.52 74.6554 1032.21 76.0255 1032.6 77.4958C1033.01 78.9536 1033.14 80.4198 1033 81.8943C1032.84 83.3528 1032.42 84.7341 1031.73 86.0381C1031.03 87.3261 1030.08 88.437 1028.87 89.3708C1027.67 90.3047 1026.35 90.9494 1024.93 91.305C1023.5 91.6445 1022.06 91.7076 1020.6 91.4943C1019.14 91.2648 1017.75 90.7761 1016.42 90.028C1015.11 89.2674 1013.96 88.2522 1012.98 86.9823C1012.01 85.7284 1011.32 84.3726 1010.91 82.9147C1010.52 81.4445 1010.4 79.9801 1010.56 78.5216C1010.7 77.0471 1011.12 75.6658 1011.82 74.3779C1012.51 73.0738 1013.46 71.9549 1014.66 71.021ZM1027.17 87.1766C1028.44 86.1929 1029.34 85.0239 1029.86 83.6696C1030.37 82.2992 1030.5 80.8737 1030.25 79.393C1030.01 77.8838 1029.36 76.4541 1028.32 75.1037C1027.27 73.7534 1026.05 72.78 1024.67 72.1833C1023.29 71.5742 1021.88 71.3583 1020.42 71.5355C1018.97 71.6842 1017.61 72.2441 1016.36 73.2153C1015.09 74.1989 1014.19 75.3822 1013.67 76.765C1013.15 78.1193 1013.01 79.5511 1013.26 81.0603C1013.5 82.541 1014.14 83.9484 1015.18 85.2827C1016.21 86.6169 1017.42 87.5966 1018.8 88.2218C1020.2 88.8345 1021.64 89.0603 1023.11 88.8991C1024.56 88.722 1025.92 88.1478 1027.17 87.1766Z" fill="#AB4D05"/>
<path d="M1040.02 57.4187C1040.61 57.9237 1041.21 58.164 1041.83 58.1398C1042.45 58.0872 1043.09 57.8777 1043.76 57.5112C1044.45 57.1284 1045.15 56.67 1045.86 56.1362C1046.58 55.6024 1047.32 55.0866 1048.09 54.5888C1048.84 54.079 1049.62 53.6806 1050.43 53.3937C1051.24 53.0783 1052.08 52.97 1052.94 53.0689C1053.79 53.1393 1054.68 53.5103 1055.6 54.1818C1056.6 54.9133 1057.3 55.8377 1057.69 56.9552C1058.09 58.0563 1058.19 59.2427 1057.96 60.5145C1057.74 61.7862 1057.19 63.0133 1056.33 64.1956C1055.25 65.6735 1054.09 66.7132 1052.84 67.3147C1051.58 67.9043 1050.43 68.2362 1049.4 68.3104C1048.62 68.3732 1047.96 68.2067 1047.42 67.811C1046.96 67.4752 1046.68 67.0396 1046.56 66.5042C1046.45 65.9688 1046.6 65.422 1047.01 64.8636C1047.34 64.4039 1047.79 64.1521 1048.35 64.1083C1048.92 64.0481 1049.42 64.1739 1049.85 64.4857C1050.06 64.6416 1050.25 64.8528 1050.41 65.1192C1050.5 65.2644 1050.61 65.3199 1050.74 65.2857C1051.38 65.0986 1051.97 64.8023 1052.52 64.3967C1053.08 63.9747 1053.56 63.4928 1053.95 62.9509C1054.48 62.2284 1054.86 61.4488 1055.1 60.612C1055.31 59.7633 1055.34 58.9658 1055.18 58.2196C1055 57.4613 1054.6 56.8543 1053.98 56.3986C1053.42 55.9909 1052.84 55.8276 1052.22 55.9086C1051.59 55.9777 1050.95 56.2096 1050.28 56.6045C1049.61 56.9709 1048.92 57.4129 1048.22 57.9302C1047.51 58.4476 1046.78 58.9552 1046.01 59.453C1045.25 59.9344 1044.48 60.3246 1043.68 60.6235C1042.88 60.8941 1042.07 60.9919 1041.24 60.917C1040.41 60.8422 1039.57 60.493 1038.72 59.8694C1037.78 59.1859 1037.11 58.4401 1036.69 57.632C1036.27 56.7956 1036.07 55.946 1036.1 55.0835C1036.1 54.209 1036.28 53.3527 1036.61 52.5147C1036.93 51.6647 1037.36 50.8702 1037.9 50.1313C1038.58 49.1953 1039.37 48.3963 1040.25 47.7342C1041.14 47.0722 1042 46.6463 1042.85 46.4566C1043.7 46.2505 1044.43 46.3633 1045.02 46.7949C1045.47 47.1471 1045.73 47.6073 1045.82 48.1756C1045.92 48.7274 1045.81 49.2332 1045.47 49.693C1045.13 50.1528 1044.68 50.427 1044.11 50.5156C1043.56 50.5878 1043.05 50.456 1042.59 50.1202C1042.43 50.0003 1042.32 49.9081 1042.26 49.8438C1042.16 49.715 1042.08 49.6692 1042.02 49.7065C1041.75 49.836 1041.42 50.0843 1041.03 50.4513C1040.64 50.8019 1040.28 51.2153 1039.93 51.6915C1039.54 52.2334 1039.22 52.8434 1038.97 53.5217C1038.73 54.1715 1038.67 54.8351 1038.8 55.5126C1038.92 56.1781 1039.33 56.8135 1040.02 57.4187Z" fill="#AB4D05"/>
</g>
<defs>
<clipPath id="clip0_207_10">
<rect width="1920" height="1446" fill="white"/>
</clipPath>
</defs>
</svg>
