<svg width="1920" height="1748" viewBox="0 0 1920 1748" fill="none" xmlns="http://www.w3.org/2000/svg">
<rect y="201" width="1920" height="1547" fill="#FEF0E7"/>
<path d="M984.5 54C1065.96 54 1132 120.038 1132 201.5H837C837 120.038 903.038 54 984.5 54Z" fill="#FEF0E7"/>
<path d="M899.316 128.431C899.558 128.245 899.825 128.171 900.118 128.21C900.401 128.235 900.641 128.375 900.837 128.63C901.033 128.884 901.099 129.168 901.035 129.48C900.984 129.783 900.827 130.026 900.562 130.209C899.778 130.691 899.169 131.099 898.736 131.432C898.265 131.795 897.715 132.279 897.086 132.884C896.841 133.093 896.566 133.183 896.26 133.154C895.955 133.126 895.704 132.985 895.508 132.73C895.312 132.475 895.231 132.213 895.267 131.942C895.305 131.649 895.445 131.41 895.687 131.224C895.801 131.136 895.927 131.049 896.064 130.964C896.214 130.869 896.363 130.785 896.51 130.712C896.662 130.595 896.658 130.497 896.496 130.418L894.056 129.104C893.949 129.044 893.851 129.048 893.762 129.117L887.153 134.202C887.076 134.26 887.047 134.354 887.065 134.482L887.71 137.179C887.717 137.214 887.73 137.244 887.75 137.27C887.809 137.346 887.889 137.345 887.991 137.267C888.111 137.133 888.23 137.012 888.348 136.901C888.465 136.79 888.581 136.691 888.696 136.602C888.938 136.416 889.199 136.347 889.479 136.395C889.762 136.421 890.002 136.561 890.198 136.815C890.394 137.07 890.466 137.349 890.415 137.651C890.364 137.954 890.207 138.197 889.942 138.38C889.145 138.872 888.536 139.28 888.116 139.603C887.632 139.975 887.082 140.459 886.466 141.055C886.221 141.264 885.939 141.359 885.621 141.34C885.315 141.312 885.065 141.17 884.869 140.916C884.673 140.661 884.599 140.393 884.647 140.113C884.685 139.82 884.825 139.581 885.067 139.395C885.194 139.297 885.32 139.21 885.444 139.135C885.569 139.059 885.693 138.984 885.818 138.908L885.856 138.879C885.92 138.83 885.947 138.748 885.94 138.632L882 122.05C881.902 121.659 882.012 121.341 882.33 121.097C882.636 120.861 882.965 120.841 883.318 121.036L898.374 129.065C898.484 129.102 898.571 129.096 898.634 129.047C898.762 128.949 898.878 128.85 898.982 128.749C899.09 128.625 899.201 128.52 899.316 128.431ZM884.885 124.179C884.813 124.112 884.745 124.104 884.682 124.153C884.644 124.182 884.635 124.25 884.655 124.355L886.444 131.858C886.451 131.893 886.464 131.924 886.484 131.949C886.553 132.038 886.638 132.044 886.74 131.965L891.706 128.144C891.859 128.027 891.849 127.922 891.678 127.831L884.885 124.179Z" fill="#AB4D05"/>
<path d="M918.442 104.225C919.369 103.819 920.256 103.641 921.102 103.692C921.949 103.742 922.722 103.965 923.421 104.36C924.135 104.749 924.757 105.248 925.287 105.858C925.811 106.453 926.224 107.096 926.527 107.788C926.837 108.494 927.021 109.256 927.08 110.072C927.139 110.888 927.052 111.689 926.818 112.476C926.583 113.262 926.19 113.987 925.639 114.649C925.087 115.312 924.355 115.843 923.442 116.243C922.898 116.481 922.333 116.614 921.749 116.642C921.18 116.664 920.608 116.599 920.032 116.447C919.813 116.385 919.722 116.399 919.761 116.487C919.877 116.752 919.881 117.022 919.773 117.297C919.666 117.572 919.48 117.768 919.215 117.884C918.95 118 918.68 118.004 918.405 117.897C918.144 117.783 917.956 117.593 917.84 117.328L911.778 103.487C911.726 103.369 911.649 103.333 911.546 103.378C911.399 103.442 911.258 103.522 911.124 103.615C910.983 103.695 910.839 103.766 910.692 103.831C910.457 103.934 910.215 103.943 909.968 103.859C909.714 103.76 909.532 103.585 909.422 103.335C909.3 103.055 909.296 102.785 909.41 102.525C909.524 102.264 909.719 102.091 909.997 102.004C910.224 101.922 910.462 101.844 910.711 101.771C910.967 101.676 911.217 101.584 911.458 101.496C911.862 101.336 912.265 101.335 912.667 101.492C913.084 101.643 913.38 101.917 913.554 102.315L915.594 106.973C915.632 107.061 915.68 107.11 915.737 107.12C915.794 107.13 915.839 107.093 915.872 107.008C916.119 106.409 916.452 105.869 916.872 105.386C917.286 104.89 917.809 104.502 918.442 104.225ZM922.643 114.357C923.334 114.054 923.882 113.603 924.287 113.005C924.685 112.392 924.911 111.706 924.964 110.946C925.017 110.186 924.872 109.416 924.531 108.636C924.183 107.841 923.712 107.206 923.117 106.729C922.537 106.247 921.901 105.955 921.208 105.855C920.509 105.741 919.799 105.841 919.078 106.157C918.489 106.415 917.973 106.799 917.53 107.308C917.101 107.812 916.791 108.386 916.6 109.031C916.574 109.13 916.58 109.224 916.618 109.313L918.687 114.037C918.72 114.11 918.777 114.182 918.86 114.251C919.998 114.927 921.259 114.963 922.643 114.357Z" fill="#AB4D05"/>
<path d="M948.772 107.083C947.875 107.269 946.999 107.278 946.144 107.111C945.289 106.943 944.502 106.63 943.784 106.172C943.065 105.714 942.453 105.135 941.948 104.435C941.454 103.717 941.116 102.918 940.934 102.037C940.752 101.156 940.746 100.295 940.917 99.456C941.1 98.5977 941.43 97.8156 941.907 97.1097C942.385 96.4038 942.982 95.8042 943.701 95.3109C944.419 94.8176 945.226 94.4781 946.123 94.2924C947.02 94.1067 947.888 94.0993 948.727 94.27C949.582 94.4375 950.371 94.7583 951.092 95.2324C951.811 95.6907 952.415 96.2711 952.905 96.9736C953.411 97.6729 953.755 98.463 953.937 99.3441C954.12 100.225 954.118 101.087 953.931 101.929C953.76 102.769 953.438 103.549 952.964 104.271C952.487 104.977 951.889 105.576 951.171 106.07C950.468 106.56 949.669 106.898 948.772 107.083ZM948.366 105.125C949.2 104.952 949.914 104.599 950.51 104.065C951.105 103.532 951.529 102.886 951.782 102.128C952.035 101.37 952.077 100.582 951.908 99.7643C951.738 98.9462 951.381 98.2491 950.835 97.673C950.301 97.0779 949.656 96.6538 948.898 96.4005C948.152 96.1283 947.363 96.0785 946.529 96.2512C945.679 96.4271 944.957 96.7818 944.362 97.3152C943.767 97.8486 943.343 98.4943 943.089 99.2522C942.833 99.9944 942.791 100.782 942.964 101.616C943.133 102.434 943.484 103.141 944.018 103.736C944.551 104.331 945.197 104.755 945.955 105.009C946.729 105.259 947.532 105.297 948.366 105.125Z" fill="#AB4D05"/>
<path d="M984.742 100.996C985.063 100.969 985.335 101.061 985.557 101.273C985.779 101.469 985.888 101.728 985.883 102.049C985.878 102.355 985.754 102.61 985.51 102.815C985.282 103.021 985.015 103.105 984.711 103.068C984.486 103.033 984.246 102.989 983.989 102.937C983.733 102.901 983.492 102.873 983.268 102.854C982.834 102.831 982.459 102.665 982.142 102.355C981.842 102.045 981.695 101.673 981.701 101.24C981.702 101.159 981.679 101.119 981.631 101.118C981.566 101.117 981.502 101.148 981.436 101.212C980.31 102.4 979.08 102.984 977.746 102.964C976.59 102.947 975.598 102.634 974.772 102.027C974.406 101.749 974.043 101.35 973.681 100.83C973.335 100.295 973.169 99.5932 973.182 98.7257L973.284 91.9544C973.286 91.8258 973.23 91.7607 973.118 91.7591C972.957 91.7566 972.796 91.7703 972.635 91.8C972.491 91.8139 972.33 91.8195 972.153 91.8169C971.896 91.813 971.672 91.7213 971.482 91.5417C971.292 91.346 971.2 91.1036 971.204 90.8144C971.208 90.5253 971.316 90.2859 971.528 90.0962C971.74 89.9066 971.99 89.83 972.279 89.8665C972.648 89.9041 972.936 89.9326 973.145 89.9518C973.354 89.9549 973.579 89.9663 973.819 89.986C974.253 89.9925 974.62 90.1587 974.921 90.4845C975.237 90.7946 975.393 91.1665 975.386 91.6002L975.279 98.7571C975.271 99.2551 975.37 99.6503 975.574 99.9426C975.795 100.219 976.049 100.424 976.336 100.557C976.64 100.69 976.928 100.774 977.2 100.811C977.473 100.847 977.665 100.866 977.778 100.867C978.485 100.878 979.179 100.655 979.861 100.2C980.542 99.7439 981.147 99.1022 981.673 98.2746C981.723 98.1789 981.748 98.0909 981.749 98.0106L981.838 92.0826C981.84 91.9541 981.785 91.889 981.673 91.8873C981.512 91.8849 981.351 91.8986 981.19 91.9283C981.029 91.9419 980.868 91.9476 980.708 91.9452C980.451 91.9413 980.227 91.8496 980.037 91.67C979.847 91.4743 979.754 91.2319 979.758 90.9427C979.763 90.6536 979.871 90.4141 980.083 90.2245C980.294 90.0349 980.545 89.9583 980.833 89.9947C981.202 90.0324 981.491 90.0608 981.7 90.08C981.908 90.0832 982.133 90.0946 982.374 90.1142C982.808 90.1207 983.175 90.2869 983.475 90.6128C983.792 90.9229 983.947 91.2948 983.941 91.7285L983.803 100.885C983.801 101.062 983.88 101.136 984.041 101.106L984.742 100.996Z" fill="#AB4D05"/>
<path d="M1009.37 101.255C1009.69 101.318 1009.92 101.48 1010.08 101.742C1010.25 102.003 1010.28 102.288 1010.18 102.597C1009.86 103.63 1009.36 104.366 1008.68 104.804C1008.02 105.245 1007.23 105.372 1006.3 105.186C1005.7 105.066 1005.19 104.817 1004.78 104.438C1004.36 104.06 1004.06 103.598 1003.87 103.053C1003.7 102.511 1003.68 101.941 1003.8 101.342L1005.26 94.0642C1005.29 93.9224 1005.23 93.8373 1005.09 93.8089L1003.81 93.5532C1003.56 93.5027 1003.35 93.3624 1003.18 93.1323C1003.03 92.8896 1002.99 92.6423 1003.04 92.3902C1003.09 92.1224 1003.23 91.9208 1003.45 91.7854C1003.7 91.6374 1003.94 91.5886 1004.19 91.6391L1005.47 91.8948C1005.61 91.9232 1005.7 91.8665 1005.73 91.7248L1006.51 87.8258C1006.56 87.5422 1006.72 87.3185 1006.96 87.1548C1007.21 86.991 1007.47 86.9376 1007.76 86.9944C1008.04 87.0512 1008.25 87.2009 1008.4 87.4436C1008.57 87.6895 1008.62 87.9541 1008.56 88.2377L1007.78 92.1367C1007.75 92.2785 1007.81 92.3636 1007.95 92.392L1010.67 92.9365C1010.94 92.9902 1011.14 93.1289 1011.27 93.3527C1011.43 93.5638 1011.48 93.8033 1011.43 94.0711C1011.37 94.3232 1011.23 94.5327 1011 94.6996C1010.79 94.8539 1010.55 94.9042 1010.29 94.8506L1007.57 94.306C1007.43 94.2776 1007.34 94.3343 1007.31 94.4761L1005.85 101.754C1005.85 101.801 1005.84 101.923 1005.83 102.118C1005.84 102.317 1005.9 102.517 1006.01 102.718C1006.13 102.923 1006.36 103.06 1006.71 103.13C1007.09 103.206 1007.38 103.159 1007.6 102.988C1007.83 102.822 1008.03 102.477 1008.2 101.954C1008.28 101.692 1008.44 101.502 1008.66 101.382C1008.88 101.246 1009.12 101.204 1009.37 101.255Z" fill="#AB4D05"/>
<path d="M1051.04 119.241C1051.3 119.392 1051.47 119.61 1051.55 119.895C1051.64 120.166 1051.6 120.441 1051.44 120.72C1051.28 120.999 1051.05 121.17 1050.73 121.232C1050.43 121.302 1050.15 121.25 1049.88 121.077C1049.51 120.812 1049.18 120.578 1048.89 120.375C1048.61 120.194 1048.32 120.024 1048.05 119.865C1047.78 119.714 1047.49 119.558 1047.17 119.396C1046.87 119.257 1046.5 119.093 1046.07 118.904C1045.78 118.759 1045.59 118.54 1045.5 118.247C1045.41 117.954 1045.44 117.668 1045.6 117.389C1045.76 117.11 1045.99 116.935 1046.29 116.865C1046.59 116.781 1046.88 116.833 1047.14 117.02C1047.29 117.122 1047.44 117.227 1047.6 117.336C1047.77 117.454 1047.94 117.567 1048.1 117.677L1048.14 117.701C1048.24 117.756 1048.32 117.728 1048.38 117.617L1054.41 107.045C1054.47 106.947 1054.47 106.882 1054.41 106.85C1054.37 106.804 1054.3 106.815 1054.23 106.883L1044.23 114.389C1044.01 114.557 1043.76 114.654 1043.48 114.683C1043.23 114.705 1042.98 114.648 1042.75 114.513C1042.52 114.386 1042.35 114.192 1042.22 113.933C1042.1 113.682 1042.06 113.428 1042.1 113.171L1043.81 100.917C1043.85 100.825 1043.84 100.763 1043.78 100.732C1043.71 100.692 1043.64 100.728 1043.58 100.839L1037.54 111.432C1037.48 111.544 1037.49 111.628 1037.59 111.684C1037.77 111.787 1037.95 111.88 1038.13 111.961C1038.32 112.037 1038.51 112.115 1038.69 112.197C1038.98 112.328 1039.17 112.547 1039.25 112.854C1039.35 113.147 1039.31 113.433 1039.15 113.712C1038.99 113.991 1038.76 114.166 1038.47 114.236C1038.17 114.306 1037.88 114.254 1037.61 114.081C1037.24 113.816 1036.91 113.582 1036.62 113.379C1036.34 113.198 1036.06 113.028 1035.78 112.869C1035.5 112.71 1035.21 112.553 1034.91 112.4C1034.6 112.261 1034.23 112.097 1033.8 111.908C1033.51 111.763 1033.32 111.54 1033.21 111.239C1033.12 110.946 1033.15 110.66 1033.31 110.381C1033.47 110.102 1033.69 109.93 1033.97 109.866C1034.25 109.788 1034.53 109.825 1034.79 109.976C1035.01 110.103 1035.21 110.24 1035.36 110.385C1035.5 110.465 1035.61 110.442 1035.68 110.316L1042.46 98.425C1042.53 98.2994 1042.51 98.2008 1042.38 98.1292C1042.29 98.0954 1042.19 98.0576 1042.08 98.0158C1041.99 97.9601 1041.88 97.9004 1041.77 97.8367C1041.5 97.6855 1041.33 97.4675 1041.25 97.1826C1041.18 96.8976 1041.21 96.6226 1041.36 96.3574C1041.52 96.0783 1041.76 95.9077 1042.07 95.8457C1042.39 95.7836 1042.67 95.8461 1042.94 96.0332C1043.37 96.3517 1043.73 96.6125 1044.02 96.8155C1044.31 97.0185 1044.61 97.2115 1044.93 97.3946C1045.34 97.6254 1045.64 97.944 1045.83 98.3504C1046.04 98.7647 1046.11 99.2001 1046.03 99.6565L1044.29 111.618C1044.28 111.726 1044.3 111.791 1044.34 111.815C1044.41 111.855 1044.48 111.837 1044.54 111.761L1054.25 104.316C1054.61 104.04 1055.02 103.886 1055.48 103.854C1055.95 103.822 1056.37 103.917 1056.76 104.14C1057.1 104.331 1057.42 104.496 1057.73 104.635C1058.04 104.775 1058.42 104.94 1058.89 105.131C1059.18 105.262 1059.38 105.485 1059.48 105.8C1059.58 106.1 1059.56 106.39 1059.4 106.67C1059.25 106.935 1059.03 107.106 1058.74 107.184C1058.47 107.248 1058.2 107.205 1057.93 107.053C1057.83 106.998 1057.74 106.935 1057.65 106.865C1057.57 106.804 1057.48 106.741 1057.37 106.677L1057.33 106.653C1057.23 106.598 1057.15 106.626 1057.09 106.737L1050.29 118.649C1050.22 118.775 1050.25 118.878 1050.39 118.957C1050.63 119.035 1050.84 119.129 1051.04 119.241Z" fill="#AB4D05"/>
<path d="M1081.3 137.935L1075.42 132.119C1075.31 132.006 1075.2 132.018 1075.11 132.155C1074.61 133.032 1074.41 133.965 1074.51 134.953C1074.63 135.929 1075.05 136.768 1075.75 137.469C1076.6 138.305 1077.66 138.692 1078.95 138.628C1079.31 138.604 1079.61 138.71 1079.85 138.948C1080 139.095 1080.09 139.276 1080.13 139.492C1080.2 139.855 1080.11 140.162 1079.86 140.413C1079.7 140.573 1079.51 140.665 1079.28 140.689C1078.37 140.761 1077.49 140.641 1076.62 140.327C1075.76 140.014 1075 139.535 1074.35 138.89C1073.72 138.269 1073.25 137.567 1072.94 136.784C1072.64 136.013 1072.49 135.207 1072.48 134.367C1072.5 133.526 1072.67 132.707 1072.98 131.91C1073.31 131.125 1073.78 130.418 1074.4 129.79C1075.26 128.922 1076.23 128.326 1077.29 128.003C1078.38 127.679 1079.46 127.64 1080.53 127.884C1081.6 128.129 1082.54 128.652 1083.35 129.455C1084.54 130.63 1085.14 131.968 1085.18 133.467C1085.21 134.967 1084.65 136.43 1083.51 137.856C1083.24 138.198 1082.88 138.376 1082.44 138.389C1082.01 138.414 1081.63 138.263 1081.3 137.935ZM1082.01 130.808C1081.28 130.085 1080.46 129.685 1079.57 129.61C1078.67 129.535 1077.77 129.79 1076.88 130.374L1076.84 130.408C1076.75 130.499 1076.75 130.59 1076.84 130.681L1082.1 135.886C1082.22 135.999 1082.33 135.981 1082.43 135.833C1083.66 133.975 1083.52 132.3 1082.01 130.808Z" fill="#AB4D05"/>
</svg>
