<svg width="295" height="148" viewBox="0 0 295 148" fill="none" xmlns="http://www.w3.org/2000/svg">
<path d="M147.5 147.5C228.962 147.5 295 81.462 295 0H0C0 81.462 66.038 147.5 147.5 147.5Z" fill="#FEF0E7"/>
<path d="M65.8236 46.5759L65.9836 42.5794C65.9961 42.2047 66.161 41.8902 66.4785 41.636C66.7324 41.4326 67.0309 41.3499 67.3738 41.3878C67.7327 41.4131 68.0201 41.5606 68.2362 41.8304C68.4777 42.1319 68.5636 42.4669 68.4939 42.8353L67.8196 46.7749C67.7816 46.9877 67.6515 47.1831 67.4293 47.361C67.2071 47.5389 66.9674 47.6137 66.7101 47.5852C66.4243 47.5536 66.1924 47.4267 66.0145 47.2045C65.8874 47.0458 65.8238 46.8363 65.8236 46.5759ZM55.6657 69.5592C55.9072 69.8608 56.0074 70.1973 55.9663 70.5689C55.9411 70.9277 55.7698 71.2343 55.4523 71.4885C55.1349 71.7427 54.7777 71.8334 54.3807 71.7605C53.9965 71.7036 53.6852 71.51 53.4468 71.1799C52.8176 70.1989 52.2869 69.4387 51.8547 68.8991C51.3845 68.3118 50.7585 67.6278 49.9769 66.847C49.7069 66.5423 49.586 66.1962 49.6144 65.8088C49.6428 65.4214 49.8157 65.1006 50.1331 64.8464C50.4505 64.5922 50.7807 64.484 51.1237 64.522C51.4953 64.5631 51.8018 64.7344 52.0433 65.0359C52.1577 65.1788 52.2705 65.3359 52.3817 65.5073C52.5057 65.6946 52.6153 65.8803 52.7107 66.0645C52.8632 66.2549 52.987 66.2469 53.0822 66.0405L54.6858 62.9197C54.7588 62.7831 54.7508 62.6592 54.6618 62.5481L48.0652 54.311C47.989 54.2158 47.8699 54.1809 47.7079 54.2064L44.3122 55.0893C44.2677 55.0989 44.2296 55.1164 44.1979 55.1418C44.1026 55.218 44.1059 55.3197 44.2075 55.4466C44.3791 55.5958 44.5364 55.7434 44.6793 55.8894C44.8223 56.0354 44.951 56.1798 45.0654 56.3226C45.3069 56.6242 45.4007 56.9528 45.3469 57.3085C45.3217 57.6674 45.1504 57.9739 44.833 58.2281C44.5155 58.4823 44.1647 58.5809 43.7804 58.5239C43.3961 58.467 43.0848 58.2734 42.8465 57.9433C42.2045 56.9465 41.6738 56.1862 41.2544 55.6625C40.7714 55.0594 40.1455 54.3754 39.3766 53.6105C39.1065 53.3058 38.9793 52.9517 38.995 52.5484C39.0234 52.161 39.1963 51.8402 39.5137 51.586C39.8311 51.3318 40.1677 51.2316 40.5234 51.2854C40.8949 51.3265 41.2015 51.4978 41.443 51.7994C41.5701 51.9581 41.6829 52.1152 41.7814 52.2708C41.8799 52.4263 41.9784 52.5819 42.077 52.7374L42.1151 52.785C42.1786 52.8644 42.2835 52.8977 42.4295 52.8849L63.3138 47.4917C63.806 47.3581 64.2109 47.4897 64.5287 47.8864C64.8337 48.2673 64.8673 48.6833 64.6294 49.1344L54.8411 68.3831C54.7967 68.5228 54.8063 68.6324 54.8698 68.7118C54.9969 68.8705 55.1256 69.0149 55.2559 69.145C55.4147 69.2783 55.5513 69.4164 55.6657 69.5592ZM60.6912 51.1941C60.7737 51.102 60.7832 51.0163 60.7196 50.9369C60.6815 50.8893 60.5957 50.8798 60.4624 50.9084L51.0132 53.3568C50.9688 53.3664 50.9307 53.3839 50.8989 53.4093C50.7878 53.4983 50.7831 53.6062 50.8848 53.7332L55.8418 59.923C55.9943 60.1134 56.1261 60.0991 56.2371 59.8799L60.6912 51.1941Z" fill="#AB4D05"/>
<path d="M98.1428 79.7063C100.425 80.8705 101.95 82.3333 102.718 84.0945C103.495 85.8377 103.394 87.6692 102.414 89.5892C101.435 91.5091 100.007 92.6753 98.1304 93.0875C96.2811 93.4909 94.1701 93.0874 91.7973 91.877L88.1023 89.9921C87.9393 89.909 87.8162 89.9489 87.7331 90.1119L84.975 95.5186C84.9011 95.6635 84.9275 95.7683 85.0543 95.8329C85.2898 95.953 85.5208 96.0595 85.7474 96.1523C85.9832 96.2269 86.2144 96.3106 86.441 96.4034C86.8218 96.5519 87.0742 96.8177 87.1985 97.2006C87.3319 97.5654 87.3063 97.929 87.1215 98.2912C86.9459 98.6354 86.6622 98.8559 86.2704 98.9528C85.8875 99.077 85.5332 99.0332 85.2075 98.8214C84.7007 98.5173 84.2573 98.2454 83.8773 98.0059C83.4881 97.7845 83.1124 97.5814 82.7501 97.3966C82.3878 97.2118 82.0119 97.0315 81.6223 96.8556C81.2416 96.707 80.7884 96.5215 80.2627 96.299C79.9001 96.1597 79.643 95.903 79.4915 95.5289C79.3399 95.1548 79.3565 94.7867 79.5413 94.4244C79.7261 94.0622 79.9916 93.8324 80.338 93.7352C80.6936 93.6198 81.0434 93.6499 81.3876 93.8255C81.5144 93.8902 81.6365 93.9639 81.7541 94.0467C81.8897 94.1387 82.0345 94.2354 82.1882 94.3366L82.2426 94.3644C82.3694 94.429 82.4697 94.3889 82.5436 94.244L90.402 78.8391C90.4759 78.6942 90.4495 78.5894 90.3227 78.5248C90.1778 78.4508 90.0237 78.395 89.8603 78.3573C89.7242 78.3108 89.5838 78.2505 89.4389 78.1766C89.0947 78.0011 88.8559 77.7309 88.7225 77.366C88.5982 76.9831 88.6239 76.6196 88.7995 76.2754C89.0027 75.877 89.3003 75.6293 89.6921 75.5324C90.1112 75.4267 90.5018 75.4889 90.8637 75.7192C91.1982 75.9583 91.5418 76.2021 91.8944 76.4504C92.2744 76.6899 92.6456 76.9021 93.0078 77.0869L98.1428 79.7063ZM89.2022 87.232C89.119 87.395 89.1589 87.5181 89.322 87.6012L93.2615 89.6109C96.5399 91.2832 98.812 90.8787 100.078 88.3973C101.381 85.8434 100.325 83.7297 96.9098 82.0562L93.1333 80.1297C92.9703 80.0466 92.8472 80.0865 92.7641 80.2495L89.2022 87.232Z" fill="#AB4D05"/>
<path d="M128.855 112.229C129.262 112.271 129.576 112.46 129.797 112.797C130.042 113.117 130.124 113.477 130.041 113.875C129.959 114.273 129.742 114.571 129.39 114.768C129.058 114.97 128.694 115.019 128.3 114.917C128.225 114.881 127.914 114.775 127.369 114.6C126.824 114.425 126.292 114.284 125.775 114.177C124.918 114 124.335 113.506 124.025 112.695L120.628 104.114C120.593 103.982 120.496 103.899 120.336 103.867L116.752 103.126C116.573 103.089 116.465 103.16 116.428 103.339L115.2 109.283C115.167 109.443 115.22 109.537 115.36 109.566C115.618 109.619 115.869 109.661 116.113 109.69C116.36 109.7 116.605 109.719 116.848 109.748C117.254 109.791 117.568 109.98 117.789 110.317C118.015 110.633 118.086 110.99 118.004 111.389C117.922 111.787 117.714 112.087 117.382 112.288C117.05 112.489 116.687 112.539 116.293 112.437C115.747 112.262 115.26 112.109 114.83 111.979C114.416 111.873 114.01 111.778 113.612 111.696C113.213 111.614 112.803 111.539 112.381 111.473C111.954 111.426 111.446 111.373 110.856 111.314C110.454 111.251 110.13 111.06 109.885 110.739C109.66 110.423 109.588 110.066 109.67 109.667C109.753 109.269 109.948 108.977 110.256 108.792C110.568 108.586 110.914 108.523 111.292 108.601C111.432 108.63 111.569 108.668 111.704 108.717C111.859 108.77 112.025 108.825 112.2 108.882L112.259 108.894C112.399 108.923 112.485 108.858 112.518 108.698L116.016 91.7624C116.057 91.5632 115.984 91.4651 115.797 91.4679L115.067 91.3795C114.657 91.357 114.319 91.1834 114.054 90.8587C113.793 90.5142 113.705 90.1328 113.792 89.7146C113.882 89.2765 114.104 88.9589 114.456 88.7617C114.832 88.5487 115.225 88.5054 115.635 88.6316C116.021 88.7736 116.417 88.9176 116.823 89.0637C117.252 89.194 117.666 89.3003 118.065 89.3826L123.525 90.5415C126.129 91.1002 128.037 92.1172 129.248 93.5923C130.483 95.0516 130.882 96.8366 130.446 98.9474C130.105 100.6 129.361 101.89 128.215 102.815C127.093 103.726 125.664 104.209 123.929 104.266C123.702 104.261 123.629 104.36 123.712 104.564L126.526 111.747C126.561 111.879 126.668 111.964 126.847 112.001C127.552 112.105 128.222 112.181 128.855 112.229ZM123.323 93.1781L118.992 92.2835C118.812 92.2465 118.704 92.3176 118.667 92.4968L117.082 100.173C117.045 100.353 117.116 100.461 117.295 100.498L121.626 101.392C125.23 102.137 127.314 101.145 127.878 98.4168C128.445 95.6688 126.927 93.9226 123.323 93.1781Z" fill="#AB4D05"/>
<path d="M152.424 94.1501C153.944 94.0245 155.398 94.2105 156.785 94.7079C158.171 95.1851 159.415 95.9188 160.517 96.9091C161.618 97.8792 162.509 99.0399 163.192 100.391C163.895 101.741 164.312 103.206 164.443 104.787C164.575 106.388 164.405 107.911 163.933 109.358C163.481 110.803 162.793 112.105 161.868 113.262C160.942 114.4 159.835 115.328 158.548 116.046C157.259 116.744 155.855 117.156 154.335 117.282C152.815 117.407 151.362 117.232 149.976 116.754C148.589 116.257 147.345 115.523 146.244 114.553C145.142 113.563 144.24 112.393 143.537 111.043C142.854 109.692 142.446 108.216 142.314 106.615C142.183 105.034 142.344 103.521 142.796 102.076C143.268 100.629 143.967 99.3373 144.893 98.1998C145.818 97.0421 146.925 96.1142 148.214 95.416C149.501 94.6976 150.904 94.2756 152.424 94.1501ZM154.107 114.516C155.707 114.383 157.095 113.891 158.269 113.039C159.442 112.167 160.328 111.043 160.929 109.668C161.548 108.27 161.787 106.72 161.646 105.018C161.506 103.316 161.016 101.836 160.178 100.579C159.36 99.3204 158.291 98.3682 156.973 97.7222C155.673 97.0542 154.233 96.7856 152.653 96.9161C151.052 97.0484 149.655 97.5514 148.462 98.4253C147.288 99.2772 146.391 100.402 145.772 101.8C145.172 103.175 144.941 104.704 145.08 106.386C145.219 108.068 145.698 109.549 146.518 110.827C147.358 112.105 148.438 113.076 149.758 113.743C151.076 114.389 152.526 114.646 154.107 114.516Z" fill="#AB4D05"/>
<path d="M184.144 89.3182C186.532 88.3911 188.639 88.2277 190.464 88.8279C192.282 89.4092 193.581 90.7045 194.361 92.7138C195.141 94.723 195.059 96.5649 194.117 98.2393C193.186 99.8874 191.479 101.193 188.996 102.157L185.129 103.658C184.959 103.724 184.907 103.843 184.973 104.013L187.169 109.672C187.228 109.823 187.324 109.873 187.456 109.822C187.703 109.726 187.936 109.625 188.156 109.518C188.369 109.391 188.585 109.275 188.805 109.167C189.17 108.982 189.536 108.971 189.905 109.133C190.266 109.277 190.52 109.538 190.667 109.917C190.807 110.277 190.782 110.636 190.594 110.993C190.431 111.361 190.163 111.596 189.788 111.698C189.223 111.873 188.725 112.023 188.293 112.147C187.869 112.29 187.467 112.435 187.088 112.582C186.709 112.729 186.324 112.89 185.933 113.063C185.569 113.248 185.129 113.463 184.613 113.707C184.267 113.884 183.905 113.905 183.525 113.769C183.145 113.633 182.881 113.375 182.734 112.996C182.587 112.617 182.592 112.266 182.75 111.943C182.901 111.601 183.157 111.36 183.517 111.22C183.65 111.169 183.786 111.127 183.926 111.094C184.085 111.054 184.253 111.011 184.431 110.963L184.488 110.941C184.621 110.89 184.658 110.788 184.599 110.637L178.341 94.5149C178.282 94.3632 178.187 94.3132 178.054 94.3647C177.902 94.4235 177.758 94.5013 177.621 94.5981C177.496 94.6686 177.357 94.7332 177.206 94.7921C176.846 94.9319 176.485 94.9301 176.124 94.7867C175.756 94.6243 175.501 94.363 175.362 94.0029C175.2 93.5858 175.213 93.1989 175.402 92.8422C175.602 92.4591 175.909 92.2092 176.321 92.0926C176.723 92.0023 177.133 91.9084 177.553 91.8107C177.985 91.6868 178.391 91.5512 178.77 91.4041L184.144 89.3182ZM183.803 101C183.869 101.17 183.988 101.222 184.158 101.156L188.281 99.5558C191.712 98.2241 192.923 96.2598 191.915 93.6629C190.878 90.9902 188.598 90.3702 185.075 91.8029L181.123 93.337C180.953 93.4032 180.9 93.5216 180.967 93.6922L183.803 101Z" fill="#AB4D05"/>
<path d="M209.661 77.021C210.866 76.0872 212.187 75.4505 213.621 75.111C215.043 74.7554 216.486 74.6923 217.95 74.9217C219.401 75.135 220.781 75.622 222.09 76.3825C223.416 77.1306 224.564 78.1316 225.535 79.3855C226.519 80.6554 227.207 82.0255 227.6 83.4958C228.009 84.9536 228.142 86.4198 227.998 87.8943C227.841 89.3528 227.42 90.7341 226.732 92.0381C226.032 93.3261 225.08 94.437 223.874 95.3708C222.668 96.3047 221.354 96.9494 219.932 97.305C218.498 97.6445 217.055 97.7076 215.604 97.4943C214.14 97.2648 212.746 96.7761 211.42 96.028C210.111 95.2674 208.965 94.2522 207.981 92.9823C207.01 91.7284 206.32 90.3726 205.911 88.9147C205.518 87.4445 205.399 85.9801 205.556 84.5216C205.699 83.0471 206.121 81.6658 206.821 80.3779C207.509 79.0738 208.455 77.9549 209.661 77.021ZM222.174 93.1766C223.444 92.1929 224.339 91.0239 224.859 89.6696C225.367 88.2992 225.497 86.8737 225.25 85.393C225.007 83.8838 224.363 82.4541 223.317 81.1037C222.271 79.7534 221.054 78.78 219.666 78.1833C218.294 77.5742 216.879 77.3583 215.422 77.5355C213.968 77.6842 212.614 78.2441 211.36 79.2153C210.09 80.1989 209.194 81.3822 208.67 82.765C208.15 84.1193 208.012 85.5511 208.255 87.0603C208.502 88.541 209.142 89.9484 210.175 91.2827C211.209 92.6169 212.418 93.5966 213.802 94.2218C215.203 94.8345 216.638 95.0603 218.108 94.8991C219.565 94.722 220.92 94.1478 222.174 93.1766Z" fill="#AB4D05"/>
<path d="M235.017 63.4192C235.605 63.9242 236.21 64.1645 236.832 64.1403C237.45 64.0877 238.094 63.8782 238.764 63.5117C239.446 63.1288 240.146 62.6705 240.863 62.1367C241.58 61.6029 242.322 61.0871 243.089 60.5893C243.838 60.0795 244.62 59.6811 245.434 59.3941C246.244 59.0788 247.078 58.9705 247.937 59.0694C248.792 59.1398 249.68 59.5108 250.599 60.1823C251.601 60.9138 252.298 61.8382 252.69 62.9557C253.095 64.0568 253.185 65.2432 252.962 66.5149C252.738 67.7867 252.194 69.0137 251.331 70.1961C250.252 71.674 249.09 72.7137 247.845 73.3152C246.583 73.9048 245.434 74.2366 244.398 74.3109C243.622 74.3737 242.963 74.2072 242.422 73.8115C241.962 73.4757 241.676 73.0401 241.563 72.5047C241.45 71.9693 241.598 71.4225 242.006 70.8641C242.341 70.4043 242.79 70.1526 243.35 70.1088C243.923 70.0486 244.423 70.1744 244.85 70.4862C245.063 70.6421 245.249 70.8532 245.407 71.1196C245.502 71.2648 245.613 71.3204 245.738 71.2862C246.379 71.0991 246.973 70.8028 247.521 70.3972C248.081 69.9752 248.558 69.4933 248.954 68.9514C249.482 68.2289 249.862 67.4492 250.096 66.6125C250.312 65.7638 250.341 64.9663 250.181 64.22C250.005 63.4618 249.604 62.8548 248.98 62.3991C248.422 61.9914 247.836 61.8281 247.223 61.9091C246.594 61.9782 245.946 62.2101 245.28 62.605C244.609 62.9714 243.922 63.4133 243.217 63.9307C242.511 64.4481 241.776 64.9557 241.009 65.4535C240.255 65.9349 239.479 66.3251 238.682 66.624C237.88 66.8945 237.066 66.9924 236.239 66.9175C235.413 66.8427 234.572 66.4935 233.718 65.8699C232.782 65.1864 232.106 64.4406 231.689 63.6325C231.267 62.796 231.07 61.9465 231.095 61.084C231.104 60.2095 231.276 59.3532 231.611 58.5152C231.93 57.6652 232.359 56.8707 232.899 56.1318C233.582 55.1958 234.367 54.3968 235.253 53.7347C236.14 53.0727 237.005 52.6468 237.848 52.4571C238.704 52.251 239.427 52.3637 240.018 52.7954C240.466 53.1476 240.734 53.6078 240.823 54.1761C240.923 54.7279 240.806 55.2337 240.47 55.6935C240.134 56.1533 239.682 56.4275 239.114 56.5161C238.558 56.5883 238.05 56.4565 237.59 56.1207C237.426 56.0008 237.317 55.9086 237.263 55.8443C237.156 55.7155 237.076 55.6697 237.023 55.707C236.752 55.8365 236.42 56.0848 236.026 56.4518C235.644 56.8024 235.28 57.2157 234.932 57.692C234.536 58.2339 234.216 58.8439 233.973 59.5221C233.725 60.172 233.668 60.8356 233.803 61.5131C233.921 62.1786 234.326 62.8139 235.017 63.4192Z" fill="#AB4D05"/>
</svg>
