<svg width="384" height="280" viewBox="0 0 384 280" fill="none" xmlns="http://www.w3.org/2000/svg">
<path d="M377.698 279.488C380.453 279.685 382.846 277.612 383.043 274.858C383.24 272.104 381.167 269.711 378.413 269.514L377.698 279.488ZM234.551 96.3333L239.499 97.0509C239.521 96.8986 239.536 96.7454 239.544 96.5917L234.551 96.3333ZM142.799 158.458L143.794 153.558L143.794 153.558L142.799 158.458ZM40.5959 1.769C38.6432 -0.183623 35.4774 -0.183623 33.5248 1.769L1.70498 33.5888C-0.247642 35.5414 -0.247642 38.7072 1.70498 40.6599C3.6576 42.6125 6.82343 42.6125 8.77605 40.6599L37.0603 12.3756L65.3446 40.6599C67.2972 42.6125 70.463 42.6125 72.4157 40.6599C74.3683 38.7072 74.3683 35.5414 72.4157 33.5888L40.5959 1.769ZM378.413 269.514C271.213 261.839 206.129 223.032 172.509 180.908C138.562 138.375 137.028 93.4104 154.11 71.4877L146.222 65.3414C125.11 92.4362 129.272 142.765 164.693 187.146C200.442 231.936 268.399 271.663 377.698 279.488L378.413 269.514ZM154.11 71.4877C163.15 59.8852 172.461 53.8762 181.045 51.5576C189.603 49.2462 197.883 50.4782 205.174 54.1469C220.003 61.6075 230.441 79.0067 229.557 96.0748L239.544 96.5917C240.636 75.4944 227.978 54.4255 209.669 45.2138C200.392 40.5462 189.591 38.8911 178.438 41.9036C167.311 44.909 156.278 52.4352 146.222 65.3414L154.11 71.4877ZM229.602 95.6156C227.825 107.874 221.339 125.548 207.897 138.494C194.709 151.196 174.409 159.773 143.794 153.558L141.805 163.358C175.49 170.196 199.169 160.784 214.834 145.697C230.244 130.855 237.485 110.94 239.499 97.0509L229.602 95.6156ZM143.794 153.558C105.519 145.788 80.1374 119.734 64.2029 89.799C48.2282 59.7884 42.0603 26.3951 42.0603 5.30453L32.0603 5.30453C32.0603 27.9094 38.5745 62.9347 55.3756 94.4978C72.217 126.137 99.705 154.812 141.805 163.358L143.794 153.558Z" fill="#D67470"/>
</svg>
