<svg width="3244" height="1647" viewBox="0 0 3244 1647" fill="none" xmlns="http://www.w3.org/2000/svg">
<g clip-path="url(#clip0_193_7)">
<rect width="3244" height="1647" fill="#AAC8CA"/>
<path d="M-91 1535.13H2128V117.154L1793.83 90.1289L1371.65 179.255L972.487 90.1289L569.293 183.856L217.29 90.1289L-91 117.154V1535.13Z" fill="#FF9894"/>
<path d="M-181 1433.13C-55.7429 1505.32 239.864 1628.04 420.234 1541.41C645.697 1433.13 734.943 1494.33 810.097 1517.87C885.251 1541.41 969.8 1654.4 1270.42 1517.87C1307.99 1517.87 1486.49 1423.71 1716.65 1541.41C1900.77 1635.57 2172.27 1508.46 2285 1433.13" stroke="#FF9894" stroke-width="99" stroke-linecap="round"/>
<path d="M-251 228.129C-125.743 155.941 169.864 33.2212 350.234 119.847C575.697 228.129 664.943 166.926 740.097 143.386C815.251 119.847 899.8 6.85689 1200.42 143.386C1260.35 170.604 1416.49 237.545 1646.65 119.847C1830.77 25.6885 2102.27 152.802 2215 228.129" stroke="#FFC759" stroke-width="99" stroke-linecap="round"/>
<path d="M3901 1535.13H1682V117.154L2016.17 90.1289L2438.35 179.255L2837.51 90.1289L3240.71 183.856L3592.71 90.1289L3901 117.154V1535.13Z" fill="#FF9894"/>
<path d="M3991 1433.13C3865.74 1505.32 3570.14 1628.04 3389.77 1541.41C3164.3 1433.13 3075.06 1494.33 2999.9 1517.87C2924.75 1541.41 2840.2 1654.4 2539.58 1517.87C2502.01 1517.87 2323.51 1423.71 2093.35 1541.41C1909.23 1635.57 1637.73 1508.46 1525 1433.13" stroke="#FF9894" stroke-width="99" stroke-linecap="round"/>
<path d="M4061 228.129C3935.74 155.941 3640.14 33.2212 3459.77 119.847C3234.3 228.129 3145.06 166.926 3069.9 143.386C2994.75 119.847 2910.2 6.85691 2609.58 143.386C2549.65 170.604 2393.51 237.545 2163.35 119.847C1979.23 25.6886 1739.23 55.8023 1626.5 131.129" stroke="#FFC759" stroke-width="99" stroke-linecap="round"/>
</g>
<defs>
<clipPath id="clip0_193_7">
<rect width="3244" height="1647" fill="white"/>
</clipPath>
</defs>
</svg>
