<svg width="158" height="161" viewBox="0 0 158 161" fill="none" xmlns="http://www.w3.org/2000/svg">
<path d="M54.2892 53.7386L58.1243 45.6361C66.1157 28.7524 90.5201 29.9226 96.8592 47.4936L98.3531 51.6343C100.543 57.7043 105.402 62.4305 111.53 64.4513L116.273 66.0151C133.036 71.5428 135.915 94.0301 121.085 103.602L106.713 112.879C103.513 114.945 100.935 117.842 99.2547 121.26L96.1012 127.677C88.8979 142.334 68.4547 143.52 59.6048 129.794L53.0215 119.584C51.5116 117.242 49.5507 115.224 47.2531 113.648L32.603 103.596C18.7232 94.072 21.1281 72.9066 36.7908 66.7398L43.0014 64.2945C47.969 62.3386 52.0052 58.5642 54.2892 53.7386Z" fill="#FF9894"/>
<path d="M82.768 103.768C83.2367 103.299 83.5 102.663 83.5 102C83.5 101.337 83.2367 100.701 82.768 100.233L69.5355 87L82.768 73.7675C83.2234 73.296 83.4754 72.6645 83.4697 72.009C83.464 71.3535 83.2011 70.7265 82.7376 70.263C82.2741 69.7995 81.647 69.5366 80.9915 69.5309C80.336 69.5252 79.7045 69.7771 79.233 70.2325L64.233 85.2325C63.7644 85.7014 63.5011 86.3371 63.5011 87C63.5011 87.663 63.7644 88.2987 64.233 88.7675L79.233 103.768C79.7019 104.236 80.3376 104.5 81.0005 104.5C81.6634 104.5 82.2992 104.236 82.768 103.768Z" fill="#FEF0E7"/>
</svg>
