<svg width="158" height="161" viewBox="0 0 158 161" fill="none" xmlns="http://www.w3.org/2000/svg">
<path d="M103.711 53.7386L99.8757 45.6361C91.8843 28.7524 67.4799 29.9226 61.1408 47.4936L59.6469 51.6343C57.457 57.7043 52.598 62.4305 46.4696 64.4513L41.7272 66.0151C24.964 71.5428 22.0851 94.0301 36.9151 103.602L51.2869 112.879C54.4871 114.945 57.0653 117.842 58.7453 121.26L61.8988 127.677C69.1021 142.334 89.5453 143.52 98.3952 129.794L104.979 119.584C106.488 117.242 108.449 115.224 110.747 113.648L125.397 103.596C139.277 94.072 136.872 72.9066 121.209 66.7398L114.999 64.2945C110.031 62.3386 105.995 58.5642 103.711 53.7386Z" fill="#FF9894"/>
<path d="M75.232 103.768C74.7633 103.299 74.5 102.663 74.5 102C74.5 101.337 74.7633 100.701 75.232 100.233L88.4645 87L75.232 73.7675C74.7766 73.296 74.5246 72.6645 74.5303 72.009C74.536 71.3535 74.7989 70.7265 75.2624 70.263C75.7259 69.7995 76.353 69.5366 77.0085 69.5309C77.664 69.5252 78.2955 69.7771 78.767 70.2325L93.767 85.2325C94.2356 85.7014 94.4989 86.3371 94.4989 87C94.4989 87.663 94.2356 88.2987 93.767 88.7675L78.767 103.768C78.2981 104.236 77.6624 104.5 76.9995 104.5C76.3366 104.5 75.7008 104.236 75.232 103.768Z" fill="#FEF0E7"/>
</svg>
