<svg width="109" height="110" viewBox="0 0 109 110" fill="none" xmlns="http://www.w3.org/2000/svg">
<path d="M50.918 55.6965C50.918 56.9958 51.4272 58.2418 52.3336 59.1605C53.24 60.0793 54.4694 60.5954 55.7513 60.5954C57.0332 60.5954 58.2626 60.0793 59.169 59.1605C60.0754 58.2418 60.5846 56.9958 60.5846 55.6965C60.5846 54.3972 60.0754 53.1512 59.169 52.2325C58.2626 51.3137 57.0332 50.7976 55.7513 50.7976C54.4694 50.7976 53.24 51.3137 52.3336 52.2325C51.4272 53.1512 50.918 54.3972 50.918 55.6965Z" fill="#FEF0E7" stroke="#FEF0E7" stroke-width="3" stroke-linecap="round" stroke-linejoin="round"/>
<path d="M77.5 55.6967C71.7 65.4945 64.45 70.3934 55.75 70.3934C47.05 70.3934 39.8 65.4945 34 55.6967C39.8 45.8989 47.05 41 55.75 41C64.45 41 71.7 45.8989 77.5 55.6967Z" stroke="#FEF0E7" stroke-width="3" stroke-linecap="round" stroke-linejoin="round"/>
<path d="M62.5586 9.28056C62.7208 9.2988 62.8569 9.37691 62.967 9.51488C63.0781 9.64331 63.1145 9.79231 63.0761 9.96188L62.855 11.1542C62.8187 11.3917 62.705 11.5866 62.5139 11.739C62.324 11.8818 62.1097 11.9398 61.8712 11.913L56.8056 11.3432C56.6243 11.3228 56.4367 11.3162 56.2427 11.3233C56.0582 11.3315 55.879 11.3355 55.7052 11.3353C55.5207 11.3435 55.3687 11.2781 55.2491 11.1391C55.1379 11.0106 55.0925 10.8558 55.1129 10.6745C55.1333 10.4933 55.212 10.3524 55.3489 10.2519C55.4953 10.1524 55.6575 10.1272 55.8356 10.1762L56.1599 10.2562L56.1885 10.2594C56.2648 10.268 56.3073 10.2341 56.3158 10.1578L57.2415 1.92968C57.2511 1.84382 57.2178 1.7966 57.1415 1.78801C57.0651 1.77943 56.9872 1.78515 56.9077 1.80518C56.8388 1.81675 56.7661 1.81824 56.6898 1.80966C56.5372 1.79249 56.4101 1.72022 56.3085 1.59287C56.2079 1.45597 56.1663 1.3112 56.1834 1.15857C56.2038 0.977311 56.2825 0.83642 56.4194 0.735893C56.5669 0.626899 56.7296 0.596908 56.9077 0.645918C57.0963 0.686461 57.2892 0.73231 57.4863 0.783467C57.693 0.835696 57.8869 0.872006 58.0682 0.892396L63.048 1.45259C63.2865 1.47942 63.4819 1.58836 63.6343 1.77939C63.7878 1.96088 63.8559 2.17142 63.8386 2.41098L63.7892 3.62266C63.7901 3.78698 63.7215 3.92418 63.5835 4.03425C63.4551 4.14539 63.305 4.1913 63.1333 4.17198C62.9711 4.15374 62.8393 4.08094 62.7377 3.95358C62.6361 3.82622 62.5938 3.68623 62.611 3.53359C62.626 3.40003 62.6464 3.26224 62.672 3.12022C62.7083 2.96973 62.7397 2.8187 62.7664 2.66713L62.7697 2.63852C62.7772 2.57174 62.7428 2.53405 62.6665 2.52547L58.488 2.05542C58.4022 2.04576 58.3544 2.08386 58.3447 2.16972L57.9938 5.28924C57.9841 5.3751 58.0222 5.42286 58.1081 5.43252L61.6998 5.83657C61.8525 5.85374 61.9754 5.9207 62.0685 6.03744C62.1616 6.15418 62.1996 6.28887 62.1824 6.44151C62.1653 6.59415 62.0983 6.71703 61.9816 6.81016C61.8659 6.89376 61.7318 6.92697 61.5791 6.9098L57.9874 6.50575C57.9015 6.49609 57.8538 6.53419 57.8441 6.62005L57.4449 10.1689C57.4352 10.2547 57.4733 10.3025 57.5592 10.3121L61.7376 10.7822C61.833 10.7929 61.876 10.7543 61.8666 10.6663C61.8753 10.503 61.8782 10.3488 61.8752 10.2035C61.8828 10.0498 61.8936 9.91096 61.9075 9.78695C61.9258 9.62477 61.998 9.49765 62.1243 9.40559C62.2517 9.30399 62.3965 9.26231 62.5586 9.28056Z" fill="white"/>
<path d="M77.4355 5.6094C77.5954 5.64757 77.7095 5.74056 77.778 5.88838C77.8465 6.0362 77.8527 6.18672 77.7965 6.33994C77.7403 6.49316 77.6383 6.60402 77.4905 6.67251C77.3459 6.73199 77.1987 6.72913 77.0488 6.66393L76.604 6.45481L76.577 6.44489C76.5139 6.42175 76.4691 6.44624 76.4427 6.51834L73.4035 14.8059C73.3374 14.9861 73.2181 15.1162 73.0457 15.1961C72.8855 15.2703 72.7153 15.2744 72.5351 15.2083C72.2557 15.1058 72.0778 14.9077 72.0015 14.6138L69.8762 5.35265C69.8656 5.29767 69.8469 5.26522 69.8198 5.2553C69.7748 5.23878 69.739 5.26657 69.7126 5.33867L67.2336 12.0985C67.2039 12.1796 67.2296 12.235 67.3107 12.2648C67.4435 12.293 67.5746 12.3258 67.7041 12.363C67.8426 12.4036 67.9676 12.4392 68.0791 12.4699C68.2389 12.508 68.3531 12.601 68.4216 12.7488C68.4991 12.9 68.5097 13.0521 68.4535 13.2053C68.3973 13.3586 68.2925 13.4633 68.139 13.5194C67.9911 13.5879 67.8423 13.5896 67.6924 13.5244C67.4499 13.4048 67.2328 13.2996 67.0412 13.2089C66.8462 13.1272 66.6586 13.0532 66.4783 12.9871C66.307 12.9243 66.1206 12.8611 65.919 12.7974C65.7141 12.7427 65.476 12.6809 65.2047 12.6121C65.0572 12.5683 64.9447 12.4708 64.8672 12.3196C64.7954 12.1808 64.7876 12.0348 64.8438 11.8816C64.9 11.7284 65.002 11.6175 65.1498 11.549C65.3066 11.4838 65.4539 11.4867 65.5915 11.5576L66.0363 11.7667L66.0633 11.7766C66.1264 11.7998 66.1711 11.7753 66.1976 11.7032L69.0632 3.88887C69.093 3.80775 69.0718 3.75397 68.9997 3.72753C68.9186 3.69778 68.8325 3.68155 68.7415 3.67884C68.6594 3.67944 68.5779 3.66487 68.4968 3.63512C68.3435 3.57893 68.2327 3.47693 68.1642 3.32911C68.099 3.17227 68.0962 3.01274 68.1556 2.8505C68.2184 2.67926 68.3328 2.56269 68.4986 2.50081C68.6678 2.42991 68.833 2.43938 68.9943 2.52922C69.1049 2.59021 69.22 2.65286 69.3395 2.71716C69.4591 2.78146 69.5742 2.84411 69.6847 2.9051C69.9338 3.00666 70.145 3.15569 70.3183 3.35218C70.5007 3.55198 70.6215 3.78032 70.6806 4.0372L72.6997 13.0446C72.7102 13.0996 72.729 13.1321 72.756 13.142C72.8011 13.1585 72.8368 13.1307 72.8633 13.0586L75.4066 6.12307C75.4364 6.04195 75.4107 5.98652 75.3296 5.95677C75.2001 5.91951 75.0661 5.8806 74.9276 5.84003C74.7981 5.80277 74.676 5.77332 74.5612 5.75169C74.4047 5.70451 74.286 5.60987 74.2052 5.46775C74.1367 5.31994 74.1306 5.16941 74.1867 5.01619C74.2429 4.86297 74.3449 4.75211 74.4928 4.68362C74.6496 4.61843 74.8013 4.62294 74.9479 4.69716C75.1994 4.82005 75.4164 4.92521 75.5991 5.01265C75.7941 5.09438 75.9817 5.16829 76.162 5.2344C76.3422 5.3005 76.5287 5.36375 76.7212 5.42415C76.9261 5.47884 77.1642 5.54059 77.4355 5.6094Z" fill="white"/>
<path d="M86.6033 14.7991C86.3349 15.0616 86.1901 15.3433 86.169 15.644C86.1552 15.951 86.2172 16.2735 86.3551 16.6114C86.5065 16.9484 86.689 17.2935 86.9027 17.6468C87.1236 18.0065 87.3382 18.3733 87.5465 18.7474C87.762 19.1278 87.9233 19.5118 88.0304 19.8993C88.1447 20.2932 88.1637 20.6865 88.0875 21.0792C88.0185 21.4783 87.8131 21.8728 87.4714 22.2626C87.0727 22.7174 86.6019 23.0068 86.059 23.131C85.5297 23.2542 84.9806 23.2324 84.4118 23.0657C83.8494 22.8918 83.3299 22.596 82.8535 22.1783C82.2182 21.6214 81.7889 21.0408 81.5655 20.4364C81.3421 19.832 81.2352 19.2914 81.2446 18.8146C81.2466 18.6376 81.2734 18.476 81.325 18.3297C81.383 18.1762 81.4562 18.049 81.5448 17.9479C81.7031 17.7674 81.8969 17.6629 82.1263 17.6342C82.3629 17.6118 82.5931 17.6987 82.8169 17.8949C82.9974 18.0531 83.0852 18.2514 83.0805 18.4899C83.083 18.7346 83.0114 18.94 82.8659 19.106C82.7646 19.2215 82.6476 19.304 82.5148 19.3536C82.4425 19.3924 82.4086 19.4456 82.413 19.5133C82.4624 19.8502 82.575 20.166 82.7508 20.4605C82.9402 20.7542 83.1648 21.015 83.4247 21.2428C83.7567 21.5339 84.1214 21.7515 84.5186 21.8954C84.9158 22.0394 85.3032 22.0854 85.6808 22.0333C86.0583 21.9813 86.3736 21.8109 86.6268 21.5222C86.8546 21.2623 86.9655 20.9829 86.9595 20.684C86.9597 20.3778 86.8842 20.0563 86.7328 19.7193C86.5886 19.3886 86.4097 19.0466 86.196 18.6933C85.9886 18.3328 85.7808 17.9655 85.5725 17.5914C85.3778 17.2164 85.2269 16.8352 85.1198 16.4476C85.0199 16.0664 85.0018 15.6867 85.0653 15.3083C85.1289 14.93 85.3221 14.5568 85.6448 14.1886C86.1195 13.6472 86.6219 13.3216 87.1521 13.212C87.6895 13.1086 88.2164 13.1556 88.7328 13.353C89.2564 13.5567 89.7276 13.8421 90.1463 14.2091C90.5505 14.5635 90.8825 14.9567 91.1422 15.3886C91.4082 15.8133 91.5712 16.2243 91.6314 16.6218C91.6915 17.0192 91.6108 17.3442 91.3893 17.5969C91.2239 17.771 91.0161 17.8697 90.7659 17.893C90.5293 17.9153 90.3171 17.8442 90.1294 17.6797C89.949 17.5215 89.8507 17.3204 89.8347 17.0766C89.825 16.8255 89.8993 16.6097 90.0575 16.4293C90.0828 16.4004 90.1081 16.3715 90.1334 16.3426C90.1659 16.3201 90.1985 16.2976 90.231 16.275C90.3024 16.2227 90.3345 16.1934 90.3273 16.187C90.2913 16.0534 90.1912 15.8763 90.027 15.6557C89.8692 15.428 89.6676 15.2066 89.4221 14.9914C89.1695 14.7699 88.882 14.5881 88.5598 14.446C88.251 14.303 87.9278 14.2495 87.59 14.2853C87.2585 14.3138 86.9296 14.4851 86.6033 14.7991Z" fill="white"/>
<path d="M93.8665 33.5241C93.9789 33.644 94.023 33.7844 93.9989 33.9456C93.9804 34.1144 93.9055 34.2473 93.7743 34.3443C93.643 34.4413 93.4978 34.471 93.3388 34.4334C93.1776 34.4092 93.0524 34.3286 92.9632 34.1917C92.6843 33.7174 92.445 33.3451 92.2453 33.0749C92.0285 32.7815 91.7429 32.4434 91.3885 32.0608C91.2838 31.9352 91.2435 31.7919 91.2677 31.6308C91.2841 31.4754 91.358 31.3492 91.4893 31.2522C91.6205 31.1552 91.7667 31.1188 91.9278 31.143C92.0889 31.1671 92.2102 31.2506 92.2918 31.3932C92.3468 31.4839 92.4019 31.5745 92.4569 31.6651C92.5177 31.7635 92.5784 31.8618 92.6391 31.9602L92.6563 31.9833C92.7133 32.0606 92.7662 32.0513 92.8149 31.9557L93.7163 30.3406C93.7532 30.2775 93.7517 30.2189 93.7117 30.1649L90.6993 26.0884C90.665 26.042 90.6095 26.0234 90.5326 26.0325L88.7241 26.42C88.7029 26.4237 88.6808 26.4341 88.6576 26.4512C88.619 26.4797 88.6168 26.5171 88.6511 26.5635C88.7195 26.6561 88.7918 26.7459 88.868 26.8328C88.9576 26.9218 89.0377 27.0059 89.1082 27.0851C89.2206 27.205 89.2647 27.3454 89.2405 27.5065C89.2164 27.6677 89.1386 27.7967 89.0074 27.8937C88.8761 27.9907 88.7338 28.0242 88.5804 27.9944C88.4193 27.9702 88.2941 27.8896 88.2049 27.7526C87.9203 27.2706 87.681 26.8984 87.487 26.6359C87.2645 26.3347 86.9789 25.9967 86.6302 25.6218C86.5255 25.4962 86.4823 25.349 86.5008 25.1802C86.5173 25.0248 86.5911 24.8986 86.7224 24.8016C86.8536 24.7046 86.9998 24.6682 87.1609 24.6924C87.3277 24.7243 87.4519 24.8116 87.5335 24.9542C87.613 25.1103 87.707 25.2617 87.8154 25.4084L87.8325 25.4316C87.861 25.4702 87.9099 25.4878 87.979 25.4844L97.994 23.3118C98.1921 23.2729 98.351 23.3345 98.4708 23.4967C98.5849 23.6511 98.5943 23.8172 98.499 23.9951L93.4904 32.9426C93.4592 33.0134 93.4674 33.073 93.5151 33.1213C93.6235 33.268 93.7406 33.4023 93.8665 33.5241ZM96.8313 24.8156C96.872 24.7737 96.878 24.7334 96.8495 24.6948C96.8324 24.6716 96.7921 24.6656 96.7286 24.6767L91.9172 25.7255C91.8961 25.7292 91.8778 25.7367 91.8624 25.7481C91.8083 25.7881 91.8041 25.8389 91.8498 25.9007L94.2289 29.1202C94.2974 29.2128 94.3598 29.2085 94.4162 29.1071L96.8313 24.8156Z" fill="white"/>
<path d="M105.87 37.7297C105.953 37.8719 105.964 38.0187 105.904 38.1702C105.844 38.3217 105.739 38.4298 105.589 38.4946C105.44 38.5595 105.289 38.5619 105.138 38.5019C104.995 38.4382 104.896 38.3295 104.84 38.1759C104.819 38.0802 104.788 37.9839 104.746 37.8869C104.716 37.795 104.685 37.6987 104.652 37.598L104.641 37.5716C104.618 37.5187 104.57 37.4924 104.497 37.4927L95.1025 38.3737C94.8996 38.3883 94.7128 38.3436 94.5423 38.2396C94.3629 38.1394 94.2313 37.9924 94.1474 37.7985C94.0673 37.6135 94.0521 37.4213 94.1018 37.222C94.1427 37.0265 94.2379 36.8597 94.3874 36.7218L101.459 30.4754C101.509 30.4223 101.523 30.3693 101.5 30.3165C101.462 30.2284 101.418 30.1378 101.367 30.0447C101.316 29.9516 101.261 29.8604 101.201 29.7711C101.132 29.6339 101.12 29.4871 101.168 29.3306C101.228 29.1792 101.333 29.071 101.482 29.0062C101.632 28.9414 101.783 28.9389 101.934 28.9989C102.09 29.0676 102.189 29.1763 102.232 29.3249C102.316 29.5918 102.392 29.826 102.458 30.0275C102.533 30.2251 102.607 30.4076 102.679 30.575C102.755 30.7512 102.84 30.9343 102.933 31.1243C103.034 31.3105 103.152 31.5213 103.285 31.7565C103.367 31.8986 103.378 32.0455 103.318 32.1969C103.262 32.3572 103.159 32.4698 103.01 32.5346C102.86 32.5994 102.707 32.5975 102.552 32.5287C102.409 32.4649 102.31 32.3563 102.254 32.2027C102.233 32.1069 102.202 32.0106 102.16 31.9137C102.131 31.8218 102.1 31.7255 102.067 31.6248L102.055 31.5983C102.021 31.519 101.965 31.5117 101.889 31.5762L95.5593 37.109C95.5128 37.1709 95.4935 37.2107 95.5011 37.2283C95.5163 37.2635 95.5586 37.2766 95.6279 37.2675L104.005 36.4658C104.014 36.462 104.023 36.4582 104.032 36.4544C104.044 36.4594 104.055 36.46 104.064 36.4562C104.117 36.4333 104.13 36.391 104.103 36.3293C104.057 36.2236 104.007 36.1198 103.952 36.0179C103.902 35.9248 103.847 35.8336 103.787 35.7443C103.713 35.5984 103.7 35.4471 103.748 35.2907C103.807 35.1392 103.912 35.031 104.062 34.9662C104.212 34.9014 104.363 34.8989 104.514 34.9589C104.669 35.0277 104.771 35.1408 104.818 35.2981C104.902 35.5651 104.975 35.7949 105.038 35.9875C105.113 36.1851 105.188 36.3721 105.265 36.5483C105.341 36.7245 105.424 36.9032 105.512 37.0844C105.614 37.2706 105.733 37.4857 105.87 37.7297Z" fill="white"/>
<path d="M107.615 45.8129C107.732 46.5136 107.704 47.1946 107.532 47.8559C107.36 48.5172 107.067 49.121 106.652 49.6671C106.246 50.2117 105.744 50.6702 105.144 51.0428C104.544 51.4154 103.88 51.6625 103.151 51.7841C102.412 51.9073 101.699 51.8901 101.011 51.7324C100.323 51.5747 99.6937 51.3049 99.1239 50.9231C98.5635 50.5397 98.0947 50.0631 97.7174 49.4935C97.3401 48.9238 97.093 48.2886 96.9761 47.5879C96.8592 46.8872 96.8867 46.2061 97.0586 45.5448C97.2305 44.8835 97.5193 44.2806 97.9248 43.736C98.3398 43.1899 98.8471 42.7305 99.4467 42.358C100.046 41.9854 100.716 41.7375 101.454 41.6143C102.183 41.4926 102.892 41.5107 103.58 41.6684C104.268 41.8261 104.892 42.0966 105.453 42.4801C106.023 42.8619 106.496 43.3376 106.873 43.9073C107.251 44.477 107.498 45.1122 107.615 45.8129ZM98.0982 47.4007C98.223 48.1487 98.5096 48.7871 98.9579 49.3157C99.4173 49.8522 99.9934 50.2427 100.686 50.4872C101.379 50.7317 102.137 50.7853 102.961 50.6478C103.776 50.512 104.466 50.2167 105.033 49.7621C105.61 49.3153 106.029 48.7637 106.289 48.1071C106.55 47.4505 106.617 46.7482 106.493 46.0001C106.365 45.2331 106.066 44.5822 105.597 44.0472C105.138 43.5107 104.563 43.1249 103.871 42.8899C103.18 42.6548 102.437 42.6037 101.641 42.7364C100.836 42.8707 100.146 43.1659 99.5701 43.6221C98.9941 44.0783 98.5712 44.6355 98.3014 45.2937C98.0412 45.9503 97.9734 46.6526 98.0982 47.4007Z" fill="white"/>
<path d="M98.5938 57.0449C98.6055 57.2088 98.5512 57.3456 98.4309 57.4554C98.3101 57.5748 98.1682 57.6308 98.0052 57.6234C97.8421 57.6159 97.7107 57.5474 97.6109 57.4179C97.5011 57.2976 97.4547 57.1561 97.4718 56.9935C97.5129 56.7263 97.5485 56.4733 97.5786 56.2344C97.5987 56.0047 97.6138 55.7795 97.6239 55.559C97.6336 55.348 97.6387 55.132 97.6392 54.911C97.6297 54.6991 97.6164 54.4631 97.5995 54.2028C97.5974 54.0394 97.6567 53.8979 97.7775 53.7785C97.8883 53.6683 98.0252 53.6169 98.1882 53.6243C98.3512 53.6318 98.4876 53.6957 98.5975 53.8161C98.7068 53.946 98.7482 54.092 98.7215 54.2542C98.7071 54.3592 98.6923 54.4739 98.677 54.5981C98.6617 54.7223 98.6464 54.8466 98.6311 54.9708L98.6298 54.9996C98.6267 55.0667 98.6635 55.102 98.7402 55.1055L107.155 55.4907C107.232 55.4942 107.272 55.4624 107.275 55.3953C107.281 55.2706 107.282 55.1409 107.279 55.0062C107.275 54.8811 107.266 54.7606 107.252 54.6446C107.25 54.4811 107.304 54.3395 107.415 54.2197C107.536 54.1098 107.677 54.0587 107.84 54.0661C108.004 54.0736 108.14 54.1375 108.25 54.2578C108.359 54.3878 108.4 54.5338 108.374 54.696C108.332 54.9728 108.297 55.2258 108.267 55.4551C108.247 55.6848 108.232 55.9099 108.222 56.1305C108.212 56.3415 108.207 56.5527 108.207 56.7641C108.216 56.9856 108.229 57.2264 108.246 57.4866C108.258 57.6506 108.204 57.7874 108.083 57.8972C107.962 58.0166 107.82 58.0726 107.657 58.0651C107.494 58.0577 107.358 57.989 107.249 57.859C107.149 57.7391 107.107 57.5979 107.124 57.4353C107.148 57.3307 107.163 57.216 107.169 57.0914C107.184 56.9767 107.198 56.8621 107.213 56.7475L107.215 56.7187C107.218 56.6516 107.181 56.6162 107.104 56.6127L98.6889 56.2276C98.6122 56.224 98.5721 56.2606 98.5685 56.3374C98.5633 56.4524 98.5628 56.5677 98.5671 56.6833C98.5806 56.8088 98.5895 56.9293 98.5938 57.0449Z" fill="white"/>
<path d="M96.2166 69.7982C96.1951 69.9611 96.1144 70.0843 95.9745 70.1677C95.8322 70.2604 95.6819 70.2867 95.5237 70.2466C95.3655 70.2066 95.2505 70.1131 95.1788 69.9662C95.0954 69.8262 95.0784 69.6783 95.1277 69.5225C95.1465 69.4876 95.204 69.3388 95.3002 69.076C95.3941 68.8225 95.4717 68.5747 95.533 68.3328C95.6249 67.9698 95.8503 67.7249 96.2093 67.5979L100.377 66.1576C100.44 66.1438 100.48 66.0997 100.499 66.0252L100.955 64.2245C100.977 64.1407 100.945 64.0882 100.861 64.067L97.916 63.3212C97.8323 63.3 97.7798 63.3313 97.7586 63.415C97.7442 63.55 97.7264 63.6792 97.705 63.8025C97.6814 63.9352 97.6588 64.0632 97.6375 64.1865C97.6161 64.3494 97.5354 64.4726 97.3954 64.556C97.2555 64.6394 97.1064 64.661 96.9482 64.621C96.79 64.5809 96.6738 64.4921 96.5997 64.3545C96.5163 64.2145 96.4993 64.0666 96.5487 63.9108C96.6449 63.648 96.7283 63.4166 96.7987 63.2165C96.8575 63.0235 96.9105 62.8339 96.9576 62.6477C97.0048 62.4616 97.0496 62.265 97.0921 62.0579C97.123 61.8578 97.1586 61.6192 97.1991 61.3423C97.2298 61.1817 97.3163 61.0551 97.4587 60.9624C97.5893 60.8766 97.7337 60.8537 97.8919 60.8938C98.0501 60.9339 98.1675 61.018 98.2439 61.1463C98.318 61.2839 98.3362 61.4272 98.2985 61.5761C98.2797 61.6505 98.255 61.7285 98.2245 61.8099C98.1916 61.9006 98.1587 61.9913 98.1258 62.082L98.1188 62.1099C98.1023 62.175 98.1313 62.217 98.2057 62.2359L106.302 64.286C106.377 64.3049 106.422 64.2817 106.439 64.2166C106.462 64.1235 106.476 64.0281 106.481 63.9303C106.484 63.8418 106.497 63.7511 106.521 63.658C106.558 63.5091 106.647 63.393 106.787 63.3096C106.925 63.2355 107.068 63.2173 107.217 63.255C107.394 63.2997 107.523 63.3968 107.604 63.546C107.682 63.7046 107.691 63.8653 107.63 64.0281C107.555 64.2071 107.478 64.3955 107.398 64.5932C107.327 64.7932 107.269 64.9863 107.222 65.1724L106.561 67.7234C106.25 68.9123 105.744 69.7746 105.044 70.3103C104.353 70.8484 103.524 70.9949 102.556 70.7498C101.719 70.5378 101.121 70.139 100.765 69.5535C100.405 68.9773 100.235 68.3004 100.254 67.5228C100.261 67.4157 100.216 67.3795 100.118 67.4141L96.5064 68.6535C96.4435 68.6673 96.4015 68.7161 96.3802 68.7998C96.3495 68.9604 96.3176 69.1256 96.2845 69.2955C96.2583 69.477 96.2357 69.6446 96.2166 69.7982ZM105.489 67.6154L106.023 65.5075C106.044 65.4238 106.013 65.3713 105.929 65.3501L102.174 64.3993C102.09 64.3781 102.037 64.4093 102.016 64.4931L101.482 66.601C101.275 67.4199 101.267 68.0963 101.459 68.6301C101.657 69.1755 102.11 69.5377 102.818 69.7168C103.33 69.8464 103.76 69.8268 104.11 69.6579C104.467 69.5006 104.756 69.2372 104.979 68.8677C105.199 68.5075 105.369 68.09 105.489 67.6154Z" fill="white"/>
<path d="M99.6239 83.8271L98.0898 85.9698C97.3745 86.9689 96.5893 87.5874 95.7342 87.8253C94.8869 88.0687 94.0573 87.8998 93.2456 87.3186C92.6523 86.8939 92.2651 86.4041 92.0838 85.8493C91.9103 85.3 91.9043 84.723 92.0656 84.1184C92.227 83.5137 92.5201 82.9147 92.9448 82.3215L94.1352 80.6589C94.1855 80.5886 94.1755 80.5284 94.1052 80.4781L91.6348 78.7093C91.5645 78.659 91.5042 78.669 91.4539 78.7392C91.3913 78.8597 91.3276 78.9734 91.2627 79.0805C91.1923 79.1954 91.1246 79.3063 91.0598 79.4134C90.9804 79.5573 90.8603 79.6425 90.6996 79.6691C90.5389 79.6957 90.3922 79.6615 90.2595 79.5665C90.1346 79.4771 90.0588 79.352 90.0322 79.1913C90.0056 79.0305 90.0476 78.8894 90.1582 78.7679C90.3415 78.5449 90.5024 78.3531 90.641 78.1926C90.7717 78.0265 90.893 77.8653 91.0048 77.7092C91.1166 77.5531 91.2272 77.3903 91.3368 77.2208C91.4385 77.0457 91.5598 76.8433 91.7007 76.6136C91.7801 76.4697 91.903 76.3805 92.0693 76.3461C92.23 76.3195 92.3728 76.3509 92.4977 76.4403C92.6304 76.5354 92.71 76.6632 92.7367 76.824C92.7577 76.9925 92.7129 77.1375 92.6022 77.259C92.495 77.3594 92.3883 77.4837 92.2821 77.632L92.2653 77.6554C92.2262 77.71 92.2379 77.7597 92.3003 77.8044L99.0912 82.6665C99.1537 82.7112 99.2044 82.7062 99.2436 82.6516C99.2939 82.5813 99.3375 82.5122 99.3744 82.4442C99.4113 82.3761 99.4443 82.3053 99.4734 82.2317C99.5583 82.08 99.6868 81.9831 99.8587 81.9408C100.025 81.9064 100.178 81.9395 100.319 82.0401C100.467 82.1463 100.552 82.2837 100.573 82.4522C100.588 82.6285 100.538 82.7814 100.422 82.9107C100.287 83.05 100.146 83.1972 99.9994 83.3521C99.8609 83.5127 99.7357 83.671 99.6239 83.8271ZM95.2058 81.2661C95.1356 81.2158 95.0753 81.2257 95.025 81.296L93.7592 83.064C93.2674 83.7509 93.0134 84.3778 92.9971 84.9447C92.9831 85.5249 93.2727 86.0275 93.8659 86.4522C94.2952 86.7596 94.7035 86.8984 95.0908 86.8687C95.4803 86.8524 95.8459 86.7128 96.1877 86.4498C96.5239 86.1946 96.8345 85.8679 97.1195 85.4699L98.3853 83.7019C98.4356 83.6316 98.4256 83.5714 98.3554 83.5211L95.2058 81.2661Z" fill="white"/>
<path d="M83.1474 90.8362C83.0192 90.9521 82.8706 91.0025 82.7014 90.9872C82.5251 90.9784 82.3858 90.9102 82.2835 90.7827C82.1489 90.6197 82.005 90.4392 81.8518 90.2412C81.705 90.0503 81.5551 89.8559 81.4019 89.6579C81.248 89.4735 81.1771 89.2592 81.1894 89.0152C81.208 88.7782 81.3063 88.5792 81.4843 88.4182L84.7307 85.4815C84.9023 85.3134 85.0706 85.1417 85.2357 84.9665C85.3943 84.7841 85.5455 84.615 85.6893 84.459C85.8117 84.3224 85.9646 84.2553 86.1479 84.2577C86.3178 84.2594 86.4639 84.3279 86.5862 84.4632C86.7086 84.5984 86.7618 84.7574 86.7459 84.9401C86.7299 85.1229 86.6514 85.265 86.5104 85.3667L86.1611 85.6245L86.1397 85.6438C86.0899 85.6889 86.0907 85.7399 86.1422 85.7969L91.6969 91.9372C91.7613 92.0084 91.8191 92.0079 91.8703 91.9357L92.2044 91.5752C92.319 91.4586 92.458 91.3976 92.6214 91.3922C92.7841 91.4004 92.9202 91.465 93.0297 91.586C93.1391 91.707 93.1898 91.8489 93.1817 92.0116C93.1664 92.1808 93.0918 92.313 92.9579 92.4082C92.7321 92.5736 92.538 92.7168 92.3756 92.8378C92.2126 92.9724 92.0599 93.1041 91.9175 93.2329C91.7751 93.3617 91.6288 93.5005 91.4786 93.6493C91.3349 93.8052 91.173 93.984 90.993 94.1857C90.8848 94.3094 90.7494 94.3672 90.5867 94.3591C90.424 94.3509 90.2879 94.2863 90.1784 94.1653C90.0689 94.0443 90.0182 93.9024 90.0264 93.7397C90.041 93.5841 90.112 93.4551 90.2395 93.3527C90.3449 93.2833 90.4507 93.207 90.5568 93.1239C90.6558 93.0473 90.7583 92.9675 90.8644 92.8845C90.9285 92.8265 90.9316 92.7655 90.8736 92.7014L85.3479 86.5931C85.29 86.529 85.2289 86.526 85.1649 86.5839L82.4097 89.0763C82.3385 89.1407 82.339 89.1985 82.4112 89.2497C82.5471 89.3856 82.6866 89.5183 82.8297 89.6479C82.9727 89.7774 83.0958 89.8991 83.1988 90.013C83.3083 90.134 83.3557 90.2723 83.3411 90.4279C83.333 90.5906 83.2684 90.7267 83.1474 90.8362Z" fill="white"/>
<path d="M77.1206 103.668C76.9879 103.765 76.843 103.791 76.6861 103.747C76.5209 103.708 76.3982 103.617 76.3181 103.475C76.238 103.333 76.224 103.181 76.2762 103.02C76.3247 102.871 76.4225 102.761 76.5694 102.689C76.6541 102.663 76.7382 102.627 76.8219 102.58C76.9102 102.541 77.0028 102.5 77.0995 102.457L77.1246 102.442C77.1831 102.409 77.1912 102.355 77.1488 102.28L74.4064 97.4122C74.0059 96.7012 73.7827 96.0116 73.7368 95.3433C73.6956 94.6834 73.829 94.0793 74.1372 93.531C74.4454 92.9828 74.9257 92.5249 75.5781 92.1574C76.3141 91.7427 77.0041 91.5689 77.6478 91.636C78.2916 91.703 78.8707 91.9388 79.385 92.3432C79.904 92.756 80.3355 93.2677 80.6795 93.8782L83.4218 98.7461C83.4642 98.8214 83.5147 98.8426 83.5733 98.8096C83.6653 98.7577 83.7549 98.7017 83.8422 98.6415C83.9211 98.586 83.9977 98.5264 84.0719 98.4625C84.2094 98.3741 84.3584 98.3452 84.519 98.376C84.6759 98.4198 84.7944 98.5128 84.8745 98.655C84.9546 98.7972 84.9728 98.9467 84.9289 99.1036C84.8767 99.2653 84.7748 99.3778 84.6232 99.4411C84.3665 99.5527 84.1457 99.6496 83.9606 99.7318C83.7719 99.8271 83.5939 99.9219 83.4266 100.016C83.2593 100.11 83.0902 100.211 82.9193 100.318C82.7447 100.439 82.5432 100.58 82.3147 100.742C82.182 100.838 82.0371 100.865 81.8802 100.821C81.7233 100.777 81.6048 100.684 81.5247 100.542C81.4446 100.4 81.4265 100.25 81.4703 100.093C81.5188 99.9449 81.6165 99.8348 81.7635 99.763C81.8649 99.7279 81.97 99.6797 82.0787 99.6185C82.1921 99.5656 82.3056 99.5127 82.419 99.4598L82.4441 99.4457C82.5027 99.4127 82.5131 99.3627 82.4754 99.2958L79.7189 94.4028C79.6483 94.2774 79.5456 94.1148 79.4111 93.9151C79.2682 93.7202 79.0932 93.5268 78.886 93.335C78.6788 93.1432 78.4344 92.9834 78.153 92.8554C77.8763 92.7358 77.5664 92.6845 77.2234 92.7015C76.8803 92.7184 76.5039 92.8424 76.0941 93.0732C75.6759 93.3088 75.3706 93.5689 75.1784 93.8536C74.9908 94.1465 74.8765 94.4423 74.8354 94.7409C74.799 95.0479 74.8133 95.3374 74.8783 95.6093C74.9349 95.8859 75.0138 96.1334 75.1149 96.352C75.2076 96.5752 75.2869 96.7454 75.3529 96.8625L78.1093 101.755C78.147 101.822 78.1952 101.839 78.2537 101.806C78.3624 101.745 78.473 101.677 78.5854 101.603C78.6894 101.533 78.7869 101.462 78.8778 101.389C79.007 101.305 79.1518 101.278 79.3124 101.309C79.4693 101.353 79.5878 101.446 79.6679 101.588C79.748 101.73 79.7661 101.88 79.7223 102.037C79.6701 102.198 79.5724 102.309 79.4291 102.367C79.1724 102.479 78.9474 102.578 78.7539 102.665C78.5652 102.76 78.3914 102.853 78.2325 102.942C78.0652 103.036 77.8919 103.14 77.7126 103.252C77.538 103.372 77.3407 103.511 77.1206 103.668Z" fill="white"/>
<path d="M70.9017 103.055C70.8251 102.687 70.6658 102.414 70.4238 102.234C70.1725 102.057 69.8674 101.935 69.5085 101.87C69.143 101.816 68.7539 101.783 68.3411 101.773C67.9191 101.766 67.4944 101.749 67.0671 101.723C66.6305 101.699 66.2201 101.629 65.8359 101.51C65.4425 101.394 65.1009 101.198 64.811 100.923C64.5119 100.649 64.2902 100.264 64.1458 99.7661C63.9774 99.1852 63.9871 98.6326 64.175 98.1084C64.3563 97.596 64.6703 97.1451 65.1172 96.7557C65.5667 96.3755 66.0957 96.0972 66.7042 95.9207C67.5156 95.6855 68.2361 95.6365 68.8656 95.7738C69.4952 95.9112 70.0082 96.1122 70.4049 96.3771C70.5529 96.4741 70.6747 96.5837 70.7701 96.706C70.8682 96.8374 70.936 96.9677 70.9734 97.0968C71.0402 97.3273 71.0239 97.5469 70.9245 97.7557C70.8159 97.9671 70.6187 98.1142 70.3329 98.1971C70.1024 98.2639 69.8879 98.2311 69.6896 98.0987C69.4821 97.969 69.3476 97.7981 69.2861 97.586C69.2433 97.4385 69.2368 97.2955 69.2666 97.1569C69.2729 97.0751 69.2463 97.0178 69.1868 96.9851C68.8764 96.8452 68.5497 96.77 68.2068 96.7595C67.8574 96.7608 67.5167 96.8096 67.1848 96.9059C66.7606 97.0289 66.3809 97.2189 66.0457 97.476C65.7104 97.7332 65.463 98.0348 65.3035 98.3809C65.144 98.727 65.1177 99.0845 65.2246 99.4533C65.3209 99.7852 65.4965 100.029 65.7516 100.185C66.0094 100.35 66.3211 100.46 66.6865 100.514C67.0428 100.57 67.4273 100.604 67.8401 100.614C68.2556 100.634 68.677 100.656 69.1043 100.682C69.5251 100.72 69.9276 100.798 70.3118 100.917C70.6868 101.038 71.0165 101.227 71.3011 101.485C71.5856 101.742 71.796 102.106 71.9323 102.576C72.1328 103.268 72.1365 103.866 71.9433 104.372C71.7409 104.881 71.4175 105.299 70.9731 105.628C70.5194 105.959 70.0252 106.203 69.4904 106.358C68.9741 106.507 68.464 106.575 67.9602 106.561C67.4591 106.557 67.025 106.473 66.6577 106.309C66.2905 106.146 66.0601 105.903 65.9665 105.58C65.9089 105.347 65.9377 105.119 66.0529 104.896C66.1615 104.684 66.3357 104.544 66.5754 104.474C66.8059 104.407 67.0282 104.433 67.2423 104.551C67.459 104.678 67.6008 104.857 67.6677 105.087C67.6784 105.124 67.6891 105.161 67.6998 105.198C67.7012 105.237 67.7027 105.277 67.7042 105.316C67.7098 105.405 67.7172 105.447 67.7264 105.445C67.8585 105.486 68.0616 105.498 68.3358 105.478C68.6127 105.468 68.9079 105.417 69.2213 105.326C69.5441 105.233 69.8521 105.088 70.1454 104.893C70.4321 104.71 70.6514 104.467 70.8032 104.163C70.9576 103.868 70.9905 103.499 70.9017 103.055Z" fill="white"/>
<path d="M47.8535 100.141C47.6908 100.128 47.5521 100.055 47.4374 99.9206C47.322 99.796 47.2806 99.6483 47.3132 99.4776L47.4938 98.2784C47.5221 98.0399 47.6291 97.8412 47.8148 97.6824C47.9999 97.5332 48.212 97.468 48.4513 97.4867L53.5333 97.8845C53.7152 97.8988 53.9029 97.899 54.0966 97.8853C54.2807 97.8708 54.4596 97.8607 54.6334 97.8551C54.8175 97.8406 54.9716 97.9008 55.0959 98.0357C55.2113 98.1603 55.2619 98.3135 55.2477 98.4954C55.2334 98.6772 55.1596 98.8207 55.0262 98.9258C54.8832 99.0302 54.7219 99.0609 54.5423 99.0179L54.2155 98.949L54.1868 98.9468C54.1102 98.9408 54.069 98.9761 54.063 99.0526L53.4168 107.307C53.41 107.394 53.4449 107.44 53.5215 107.446C53.5981 107.452 53.6758 107.443 53.7546 107.42C53.8231 107.407 53.8956 107.403 53.9722 107.409C54.1253 107.421 54.2548 107.489 54.3607 107.612C54.4658 107.746 54.5123 107.889 54.5003 108.042C54.4861 108.224 54.4123 108.368 54.2789 108.473C54.1351 108.587 53.9735 108.622 53.7939 108.579C53.604 108.545 53.4096 108.506 53.2109 108.461C53.0026 108.416 52.8075 108.386 52.6257 108.372L47.6298 107.981C47.3905 107.962 47.1915 107.86 47.0327 107.674C46.8731 107.498 46.798 107.29 46.8071 107.05L46.8154 105.837C46.809 105.673 46.8728 105.534 47.007 105.419C47.1316 105.304 47.28 105.253 47.4523 105.266C47.615 105.279 47.7493 105.347 47.8551 105.471C47.961 105.595 48.0079 105.733 47.9959 105.886C47.9855 106.02 47.9698 106.159 47.949 106.302C47.9179 106.453 47.8915 106.605 47.87 106.758L47.8677 106.786C47.8625 106.853 47.8981 106.89 47.9747 106.896L52.1667 107.224C52.2528 107.231 52.2993 107.191 52.306 107.105L52.551 103.975C52.5577 103.889 52.518 103.843 52.4319 103.836L48.8285 103.554C48.6754 103.542 48.5503 103.479 48.4533 103.366C48.3562 103.252 48.3137 103.119 48.3257 102.966C48.3377 102.812 48.4004 102.687 48.514 102.59C48.6267 102.503 48.7597 102.465 48.9128 102.477L52.5162 102.759C52.6023 102.766 52.6488 102.726 52.6555 102.64L52.9342 99.0798C52.941 98.9937 52.9013 98.9472 52.8151 98.9405L48.6231 98.6123C48.5274 98.6049 48.4858 98.6449 48.4982 98.7326C48.495 98.896 48.4974 99.0503 48.5053 99.1953C48.5029 99.3492 48.4968 99.4884 48.4871 99.6128C48.4743 99.7755 48.4064 99.905 48.2833 100.001C48.1595 100.107 48.0162 100.154 47.8535 100.141Z" fill="white"/>
<path d="M33.1079 104.317C32.9469 104.284 32.8296 104.195 32.7561 104.05C32.6826 103.904 32.6713 103.754 32.7222 103.599C32.7732 103.444 32.8713 103.33 33.0167 103.256C33.1591 103.192 33.3063 103.19 33.4584 103.25L33.9101 103.444L33.9374 103.453C34.0013 103.474 34.0452 103.448 34.0691 103.375L36.8235 94.9881C36.8834 94.8057 36.9981 94.6716 37.1678 94.5858C37.3253 94.5062 37.4952 94.4964 37.6776 94.5563C37.9604 94.6491 38.1449 94.8411 38.2312 95.1321L40.6716 104.315C40.684 104.37 40.7039 104.402 40.7313 104.411C40.7769 104.426 40.8117 104.397 40.8356 104.324L43.0822 97.4832C43.1092 97.4011 43.0816 97.3466 42.9995 97.3196C42.8658 97.2959 42.7337 97.2676 42.603 97.2348C42.4632 97.199 42.337 97.1677 42.2246 97.1409C42.0636 97.1082 41.9463 97.0192 41.8728 96.8738C41.7902 96.7254 41.7743 96.5736 41.8252 96.4186C41.8761 96.2635 41.9774 96.1553 42.1289 96.0939C42.2743 96.0204 42.423 96.0137 42.5751 96.0737C42.8215 96.185 43.042 96.2827 43.2367 96.3668C43.4343 96.4418 43.6243 96.5093 43.8068 96.5692C43.9801 96.6261 44.1685 96.683 44.3722 96.7397C44.5788 96.7874 44.8189 96.841 45.0924 96.9005C45.2413 96.9393 45.3571 97.0329 45.4397 97.1813C45.5162 97.3176 45.529 97.4632 45.4781 97.6183C45.4271 97.7733 45.329 97.8876 45.1836 97.9611C45.0291 98.0316 44.8818 98.0338 44.7419 97.9676L44.2902 97.7738L44.2629 97.7648C44.199 97.7439 44.1551 97.7699 44.1312 97.8428L41.5341 105.75C41.5071 105.833 41.5301 105.886 41.6031 105.91C41.6852 105.937 41.7718 105.95 41.8628 105.949C41.9448 105.946 42.0268 105.958 42.1089 105.985C42.264 106.036 42.3782 106.134 42.4517 106.279C42.5222 106.434 42.5305 106.593 42.4766 106.757C42.4197 106.931 42.3094 107.051 42.1458 107.118C41.9792 107.195 41.8137 107.191 41.6494 107.107C41.5368 107.05 41.4197 106.991 41.298 106.931C41.1763 106.871 41.0591 106.812 40.9466 106.755C40.6942 106.662 40.478 106.52 40.298 106.33C40.109 106.136 39.9805 105.912 39.9126 105.657L37.5871 96.7242C37.5747 96.6696 37.5548 96.6379 37.5274 96.6289C37.4818 96.6139 37.4471 96.6429 37.4231 96.7159L35.1181 103.734C35.0911 103.816 35.1187 103.871 35.2008 103.898C35.3315 103.931 35.4667 103.965 35.6065 104.001C35.7372 104.034 35.8603 104.059 35.9757 104.077C36.1337 104.118 36.2556 104.209 36.3412 104.348C36.4147 104.494 36.426 104.644 36.3751 104.799C36.3241 104.954 36.226 105.068 36.0806 105.142C35.9261 105.212 35.7743 105.213 35.6252 105.144C35.3697 105.029 35.1492 104.932 34.9636 104.851C34.766 104.776 34.5759 104.708 34.3935 104.648C34.2111 104.588 34.0226 104.531 33.8281 104.478C33.6215 104.43 33.3814 104.376 33.1079 104.317Z" fill="white"/>
<path d="M23.6314 95.4458C23.8908 95.1743 24.026 94.8879 24.0368 94.5867C24.0403 94.2794 23.9674 93.9592 23.8182 93.6261C23.6555 93.2945 23.4614 92.9557 23.2358 92.6098C23.0029 92.2578 22.776 91.8985 22.5552 91.5316C22.327 91.1587 22.1528 90.7804 22.0326 90.3968C21.9051 90.007 21.8727 89.6146 21.9356 89.2194C21.9911 88.8182 22.183 88.417 22.5114 88.0159C22.8944 87.5479 23.3552 87.2427 23.8935 87.1003C24.4184 86.9592 24.9679 86.9624 25.542 87.1097C26.11 87.2645 26.6392 87.5426 27.1294 87.9439C27.7832 88.479 28.2319 89.0448 28.4756 89.6413C28.7193 90.2377 28.8445 90.7744 28.8512 91.2513C28.8552 91.4283 28.8339 91.5907 28.7872 91.7386C28.7345 91.894 28.6656 92.0236 28.5805 92.1276C28.4284 92.3134 28.2383 92.4244 28.01 92.4609C27.7742 92.4912 27.5412 92.4121 27.3109 92.2236C27.1252 92.0716 27.0307 91.8764 27.0274 91.6379C27.0166 91.3934 27.0811 91.1857 27.221 91.0149C27.3183 90.896 27.4325 90.8096 27.5635 90.7556C27.6344 90.7144 27.6665 90.66 27.6598 90.5925C27.5991 90.2574 27.4759 89.9457 27.2902 89.6572C27.091 89.3701 26.8577 89.1171 26.5902 88.8982C26.2485 88.6185 25.8767 88.4134 25.4749 88.283C25.073 88.1525 24.6843 88.1197 24.3087 88.1845C23.9331 88.2492 23.6237 88.4302 23.3805 88.7273C23.1616 88.9948 23.0602 89.2778 23.0764 89.5763C23.0865 89.8823 23.1728 90.2011 23.3356 90.5328C23.4908 90.8584 23.6813 91.1941 23.9068 91.54C24.1262 91.8933 24.3464 92.2534 24.5671 92.6202C24.7744 92.9884 24.9382 93.3643 25.0583 93.748C25.171 94.1256 25.202 94.5045 25.1513 94.8848C25.1005 95.2651 24.9201 95.6446 24.61 96.0235C24.154 96.5807 23.6628 96.923 23.1366 97.0506C22.603 97.172 22.0748 97.1429 21.552 96.9631C21.0218 96.7772 20.5413 96.508 20.1104 96.1553C19.6944 95.8148 19.3494 95.4331 19.0752 95.0102C18.795 94.5947 18.6181 94.1894 18.5446 93.7942C18.471 93.3991 18.5407 93.0715 18.7535 92.8115C18.9129 92.6319 19.1173 92.5262 19.3665 92.4945C19.6023 92.4642 19.8167 92.528 20.0098 92.6861C20.1956 92.8381 20.3006 93.0357 20.3248 93.2789C20.343 93.5295 20.2761 93.7477 20.1241 93.9334C20.0998 93.9631 20.0754 93.9928 20.0511 94.0225C20.0194 94.0462 19.9876 94.0698 19.9559 94.0934C19.8863 94.1481 19.8552 94.1785 19.8626 94.1846C19.9031 94.317 20.0091 94.4906 20.1807 94.7054C20.3461 94.9277 20.5551 95.1422 20.8077 95.3489C21.0677 95.5618 21.3611 95.7337 21.688 95.8648C22.0014 95.9973 22.3263 96.0399 22.6627 95.9927C22.993 95.9529 23.3159 95.7706 23.6314 95.4458Z" fill="white"/>
<path d="M15.7413 76.9783C15.6249 76.8623 15.576 76.7234 15.5947 76.5616C15.6075 76.3922 15.6778 76.2568 15.8057 76.1554C15.9336 76.0541 16.0777 76.0195 16.2379 76.0517C16.3998 76.0704 16.5276 76.1466 16.6215 76.2805C16.9163 76.7451 17.1681 77.109 17.3768 77.3723C17.6034 77.6582 17.9003 77.9863 18.2675 78.3568C18.3764 78.4787 18.4215 78.6206 18.4028 78.7824C18.3917 78.9383 18.3221 79.0669 18.1942 79.1683C18.0663 79.2697 17.9215 79.311 17.7596 79.2923C17.5978 79.2736 17.4737 79.1944 17.3874 79.0545C17.3293 78.9658 17.2712 78.8771 17.2131 78.7884C17.1491 78.6922 17.085 78.5959 17.021 78.4997L17.0031 78.4771C16.9435 78.4019 16.8909 78.4129 16.8455 78.5102L15.9994 80.1549C15.9647 80.2192 15.9681 80.2777 16.0099 80.3304L19.1588 84.3024C19.1946 84.3475 19.2508 84.3642 19.3273 84.3526L21.1217 83.904C21.1427 83.8996 21.1645 83.8884 21.187 83.8705C21.2246 83.8407 21.2256 83.8032 21.1898 83.7581C21.1182 83.6678 21.0429 83.5805 20.9638 83.4962C20.8712 83.4104 20.7884 83.329 20.7152 83.2522C20.5988 83.1363 20.5499 82.9974 20.5686 82.8355C20.5874 82.6737 20.6607 82.5421 20.7885 82.4407C20.9164 82.3393 21.0575 82.301 21.2118 82.3256C21.3737 82.3443 21.5015 82.4206 21.5954 82.5545C21.8962 83.0266 22.1479 83.3905 22.3507 83.6463C22.5833 83.9397 22.8802 84.2678 23.2414 84.6307C23.3504 84.7527 23.3984 84.8983 23.3857 85.0677C23.3745 85.2235 23.305 85.3522 23.1771 85.4536C23.0492 85.5549 22.9043 85.5963 22.7425 85.5776C22.5747 85.5514 22.4476 85.4683 22.3613 85.3285C22.2765 85.1752 22.1775 85.0271 22.0641 84.8842L22.0462 84.8616C22.0164 84.824 21.967 84.808 21.898 84.8137L11.9624 87.3246C11.7658 87.3702 11.6049 87.3141 11.4797 87.1561C11.3604 87.0056 11.3454 86.8399 11.4346 86.6589L16.1369 77.5467C16.1657 77.4749 16.1555 77.4156 16.1062 77.3689C15.9929 77.226 15.8712 77.0958 15.7413 76.9783ZM13.0735 85.7823C13.0343 85.8256 13.0296 85.866 13.0594 85.9037C13.0773 85.9262 13.1178 85.9309 13.1808 85.9177L17.9539 84.7063C17.9749 84.7019 17.9929 84.6938 18.008 84.6818C18.0606 84.6401 18.0631 84.5891 18.0154 84.529L15.5284 81.392C15.4569 81.3017 15.3946 81.3082 15.3417 81.4114L13.0735 85.7823Z" fill="white"/>
<path d="M3.60432 73.1932C3.51704 73.054 3.50076 72.9076 3.55547 72.7542C3.61019 72.6007 3.71128 72.489 3.85873 72.4191C4.00619 72.3491 4.15664 72.3415 4.3101 72.3963C4.45488 72.4551 4.5579 72.5603 4.61916 72.7119C4.64295 72.8068 4.67748 72.902 4.72273 72.9974C4.7552 73.0883 4.78972 73.1835 4.8263 73.283L4.83864 73.309C4.86333 73.3611 4.9122 73.3857 4.98525 73.3829L14.3436 72.1796C14.5459 72.158 14.7341 72.1963 14.9081 72.2944C15.0908 72.3883 15.2274 72.5307 15.3179 72.7216C15.4043 72.9037 15.4261 73.0953 15.3833 73.2962C15.3491 73.493 15.2597 73.6629 15.115 73.8059L8.26204 80.2916C8.21366 80.3464 8.20182 80.3999 8.2265 80.4519C8.26764 80.5386 8.31518 80.6277 8.3691 80.719C8.42303 80.8103 8.4813 80.8995 8.5439 80.9867C8.61839 81.1214 8.63468 81.2677 8.59275 81.4257C8.53803 81.5792 8.43694 81.6909 8.28949 81.7608C8.14203 81.8307 7.99158 81.8383 7.83813 81.7836C7.68056 81.7202 7.57754 81.615 7.52906 81.468C7.43578 81.2041 7.35255 80.9727 7.27939 80.7736C7.19756 80.5787 7.11756 80.3988 7.0394 80.234C6.95712 80.0605 6.86639 79.8804 6.7672 79.6937C6.65935 79.5111 6.53481 79.3046 6.3936 79.074C6.30632 78.9348 6.29003 78.7885 6.34475 78.635C6.39536 78.4729 6.49438 78.3569 6.64184 78.2869C6.78929 78.217 6.94181 78.2137 7.09937 78.2771C7.24415 78.3359 7.34718 78.4411 7.40844 78.5927C7.43223 78.6877 7.46675 78.7829 7.51201 78.8783C7.54447 78.9691 7.579 79.0643 7.61558 79.1638L7.62792 79.1899C7.66494 79.2679 7.72066 79.2734 7.79505 79.2062L13.9306 73.4593C13.9748 73.3958 13.9929 73.3553 13.9846 73.338C13.9682 73.3033 13.9255 73.2917 13.8565 73.3031L5.51179 74.3922C5.50312 74.3964 5.49445 74.4005 5.48577 74.4046C5.47298 74.4 5.46225 74.3998 5.45358 74.4039C5.40154 74.4286 5.38991 74.4713 5.41871 74.532C5.46808 74.6361 5.52178 74.7381 5.57983 74.8381C5.63375 74.9294 5.69202 75.0186 5.75462 75.1058C5.83323 75.2492 5.85157 75.3999 5.80964 75.5579C5.75492 75.7113 5.65384 75.823 5.50638 75.893C5.35893 75.9629 5.20847 75.9705 5.05502 75.9158C4.89745 75.8524 4.79237 75.7429 4.73978 75.5872C4.6465 75.3233 4.56533 75.0962 4.49629 74.9058C4.41445 74.7108 4.3324 74.5266 4.25012 74.3532C4.16784 74.1797 4.07916 74.0039 3.9841 73.8259C3.87624 73.6433 3.74965 73.4324 3.60432 73.1932Z" fill="white"/>
<path d="M1.57651 65.1402C1.43607 64.4438 1.44061 63.7623 1.59016 63.0956C1.7397 62.4288 2.01264 61.8156 2.40899 61.2558C2.79593 60.6979 3.28279 60.2226 3.86957 59.8301C4.45634 59.4375 5.11203 59.1682 5.83664 59.0221C6.57067 58.874 7.2842 58.8672 7.97726 59.0017C8.67032 59.1361 9.30802 59.3845 9.89036 59.747C10.4633 60.1113 10.9479 60.5718 11.3442 61.1284C11.7404 61.685 12.0088 62.3116 12.1492 63.0079C12.2897 63.7043 12.2851 64.3859 12.1356 65.0526C11.986 65.7193 11.7178 66.3316 11.3309 66.8895C10.9345 67.4493 10.443 67.9255 9.85618 68.3181C9.2694 68.7106 8.60901 68.9809 7.87498 69.129C7.15037 69.2751 6.44154 69.2809 5.74848 69.1465C5.05543 69.0121 4.42243 68.7627 3.8495 68.3984C3.26715 68.0359 2.77785 67.5764 2.38158 67.0198C1.98531 66.4631 1.71695 65.8366 1.57651 65.1402ZM11.0341 63.2328C10.8842 62.4894 10.5763 61.8611 10.1104 61.3478C9.63323 60.8271 9.04428 60.4562 8.34356 60.2352C7.64283 60.0142 6.88311 59.9862 6.06439 60.1513C5.25509 60.3145 4.575 60.6329 4.02413 61.1063C3.46194 61.5723 3.06184 62.1377 2.8238 62.8027C2.58577 63.4677 2.54172 64.1719 2.69166 64.9153C2.84539 65.6776 3.16554 66.3181 3.65212 66.837C4.12928 67.3577 4.71728 67.7239 5.41611 67.9355C6.11494 68.1471 6.8596 68.1732 7.65008 68.0138C8.44998 67.8525 9.13007 67.5342 9.69035 67.0588C10.2506 66.5835 10.6545 66.0123 10.9019 65.3455C11.14 64.6805 11.184 63.9763 11.0341 63.2328Z" fill="white"/>
<path d="M10.2156 53.655C10.1983 53.4916 10.248 53.353 10.3645 53.2392C10.4812 53.1157 10.6211 53.055 10.7843 53.0569C10.9475 53.0588 11.0811 53.1228 11.1853 53.2488C11.2991 53.3653 11.3503 53.5052 11.3387 53.6682C11.3068 53.9367 11.2798 54.1908 11.2578 54.4305C11.2455 54.6608 11.238 54.8863 11.2354 55.1071C11.2329 55.3183 11.2352 55.5343 11.2422 55.7552C11.2589 55.9667 11.2802 56.2021 11.3059 56.4616C11.3136 56.6249 11.2591 56.7683 11.1424 56.8918C11.0355 57.0057 10.9004 57.0617 10.7372 57.0598C10.5741 57.0579 10.4355 56.9987 10.3217 56.8821C10.208 56.756 10.1617 56.6114 10.1828 56.4484C10.1936 56.343 10.2046 56.2279 10.2156 56.1032C10.2267 55.9785 10.2378 55.8539 10.2488 55.7292L10.2492 55.7004C10.25 55.6332 10.212 55.5991 10.1352 55.5982L1.71176 55.4993C1.63496 55.4984 1.59617 55.5315 1.59538 55.5987C1.59392 55.7235 1.59719 55.8531 1.60521 55.9876C1.61335 56.1125 1.62634 56.2327 1.64418 56.3481C1.65186 56.5114 1.60217 56.6549 1.49511 56.7784C1.37857 56.8922 1.2387 56.9482 1.07551 56.9463C0.912325 56.9444 0.773811 56.8851 0.659973 56.7686C0.546247 56.6424 0.499942 56.4979 0.521058 56.3349C0.553127 56.0569 0.580114 55.8028 0.60202 55.5726C0.614326 55.3424 0.621776 55.1168 0.62437 54.896C0.626851 54.6849 0.624533 54.4736 0.617415 54.2623C0.60081 54.0413 0.579631 53.801 0.553879 53.5415C0.536597 53.3781 0.586229 53.2395 0.702775 53.1256C0.819432 53.0022 0.959356 52.9414 1.12254 52.9434C1.28573 52.9453 1.42419 53.0093 1.53792 53.1355C1.64216 53.2519 1.68852 53.3916 1.677 53.5547C1.65656 53.6601 1.64561 53.7752 1.64414 53.9C1.63319 54.015 1.62224 54.1301 1.61128 54.2452L1.61095 54.274C1.61016 54.3412 1.64816 54.3752 1.72495 54.3761L10.1484 54.4751C10.2252 54.476 10.264 54.4381 10.2649 54.3613C10.2663 54.2461 10.2628 54.1308 10.2546 54.0155C10.2368 53.8905 10.2239 53.7703 10.2156 53.655Z" fill="white"/>
<path d="M12.1542 40.8174C12.17 40.6538 12.2464 40.528 12.3834 40.4398C12.5224 40.3422 12.6717 40.3107 12.8312 40.3453C12.9907 40.3798 13.1088 40.4693 13.1856 40.6136C13.2738 40.7506 13.2959 40.8978 13.2519 41.0553C13.2344 41.0908 13.1821 41.2415 13.095 41.5075C13.0099 41.7641 12.9409 42.0144 12.8881 42.2583C12.8088 42.6242 12.5919 42.8768 12.2376 43.0161L8.12239 44.5996C8.05999 44.6155 8.02066 44.661 8.00439 44.7361L7.61091 46.5515C7.59261 46.636 7.62568 46.6873 7.71012 46.7056L10.6796 47.3492C10.764 47.3675 10.8154 47.3345 10.8337 47.25C10.8434 47.1146 10.8568 46.9849 10.8738 46.8609C10.8929 46.7275 10.911 46.5988 10.928 46.4748C10.9438 46.3113 11.0202 46.1854 11.1572 46.0972C11.2942 46.009 11.4425 45.9822 11.6019 46.0168C11.7614 46.0514 11.8806 46.1361 11.9594 46.2711C12.0476 46.4081 12.0697 46.5553 12.0257 46.7128C11.9386 46.9787 11.8633 47.2129 11.7998 47.4152C11.7477 47.6102 11.7014 47.8015 11.6607 47.9892C11.62 48.1768 11.582 48.3749 11.5466 48.5833C11.5227 48.7844 11.4953 49.024 11.4645 49.3022C11.4393 49.4638 11.3572 49.5933 11.2182 49.6909C11.0906 49.7811 10.947 49.8089 10.7875 49.7743C10.628 49.7398 10.5079 49.6597 10.427 49.5341C10.3482 49.3992 10.3251 49.2566 10.3576 49.1065C10.3739 49.0315 10.3959 48.9527 10.4236 48.8703C10.4533 48.7785 10.483 48.6868 10.5127 48.595L10.5188 48.5668C10.5331 48.5011 10.5026 48.4602 10.4276 48.4439L2.2651 46.6748C2.19005 46.6585 2.1454 46.6832 2.13117 46.7489C2.11083 46.8427 2.09988 46.9386 2.09831 47.0364C2.09877 47.125 2.08883 47.2161 2.0685 47.3099C2.03596 47.4601 1.9512 47.5792 1.81421 47.6674C1.67926 47.7462 1.53673 47.7693 1.38661 47.7368C1.20835 47.6981 1.07614 47.6056 0.989993 47.4593C0.905876 47.3035 0.891501 47.1432 0.946869 46.9784C1.01568 46.7969 1.08653 46.606 1.15942 46.4057C1.22292 46.2033 1.275 46.0083 1.31567 45.8207L1.88794 43.2483C2.15761 42.0494 2.63304 41.1702 3.31424 40.6106C3.98605 40.049 4.80983 39.8739 5.78557 40.0854C6.62997 40.2684 7.24057 40.6463 7.61739 41.2191C7.99624 41.7825 8.18978 42.4532 8.19801 43.2309C8.19441 43.3382 8.24092 43.3729 8.33756 43.3349L11.9041 41.9714C11.9665 41.9554 12.0068 41.9053 12.0252 41.8208C12.0503 41.6593 12.0765 41.4931 12.1038 41.3222C12.1236 41.1398 12.1405 40.9716 12.1542 40.8174ZM2.96291 43.3192L2.50233 45.4443C2.48403 45.5287 2.5171 45.5801 2.60153 45.5984L6.38724 46.4189C6.47168 46.4372 6.52305 46.4042 6.54135 46.3197L7.00193 44.1947C7.18088 43.369 7.16537 42.6928 6.9554 42.166C6.73808 41.6277 6.2729 41.2813 5.55985 41.1268C5.04384 41.0149 4.61397 41.0495 4.27025 41.2304C3.91918 41.3998 3.63895 41.6731 3.42954 42.0501C3.22216 42.4177 3.06662 42.8407 2.96291 43.3192Z" fill="white"/>
<path d="M8.275 26.8998L9.7354 24.7063C10.4164 23.6835 11.1802 23.0386 12.0267 22.7719C12.8652 22.4998 13.7 22.6404 14.5311 23.1937C15.1384 23.598 15.5421 24.0744 15.7421 24.6227C15.9341 25.1658 15.9598 25.7422 15.819 26.352C15.6783 26.9618 15.4058 27.5704 15.0014 28.1777L13.8682 29.8798C13.8203 29.9517 13.8323 30.0116 13.9043 30.0595L16.4334 31.7433C16.5053 31.7912 16.5652 31.7792 16.6131 31.7073C16.6716 31.5848 16.7314 31.4689 16.7926 31.3597C16.8591 31.2425 16.9229 31.1293 16.9841 31.0201C17.0586 30.8736 17.1757 30.7844 17.3354 30.7523C17.4951 30.7203 17.6429 30.7495 17.7788 30.8399C17.9066 30.925 17.9866 31.0475 18.0186 31.2072C18.0507 31.3669 18.0135 31.5094 17.9071 31.6346C17.7315 31.8637 17.5772 32.0608 17.4441 32.226C17.3191 32.3964 17.2034 32.5616 17.097 32.7214C16.9906 32.8812 16.8855 33.0477 16.7818 33.2208C16.686 33.3993 16.5717 33.6057 16.4387 33.8401C16.3642 33.9866 16.2445 34.0798 16.0794 34.1199C15.9197 34.1519 15.7759 34.1254 15.648 34.0403C15.5122 33.9498 15.4282 33.8247 15.3962 33.665C15.3694 33.4973 15.4093 33.3508 15.5157 33.2256C15.6195 33.1217 15.7219 32.9938 15.823 32.842L15.839 32.818C15.8762 32.7621 15.8629 32.7129 15.7989 32.6703L8.84682 28.0417C8.78289 27.9991 8.73231 28.0058 8.69506 28.0618C8.64718 28.1337 8.60596 28.2043 8.57139 28.2735C8.53682 28.3428 8.50624 28.4147 8.47966 28.4892C8.39988 28.6437 8.2748 28.745 8.10442 28.793C7.93937 28.833 7.78492 28.8052 7.64109 28.7094C7.48926 28.6083 7.39998 28.4739 7.37325 28.3062C7.35184 28.1305 7.39701 27.976 7.50876 27.8428C7.63914 27.699 7.77483 27.5471 7.91585 27.3873C8.04888 27.2221 8.1686 27.0596 8.275 26.8998ZM12.7775 29.3093C12.8495 29.3572 12.9094 29.3452 12.9572 29.2733L14.1623 27.4633C14.6304 26.7601 14.863 26.125 14.86 25.5578C14.8543 24.9774 14.5478 24.485 13.9405 24.0807C13.501 23.7881 13.0883 23.6632 12.7022 23.706C12.3135 23.7355 11.9528 23.8875 11.6202 24.162C11.2928 24.4284 10.9935 24.7654 10.7222 25.173L9.51714 26.9829C9.46925 27.0548 9.48127 27.1147 9.55319 27.1626L12.7775 29.3093Z" fill="white"/>
<path d="M24.5088 19.3347C24.633 19.2145 24.7798 19.1592 24.9494 19.1688C25.1259 19.1716 25.2674 19.235 25.374 19.359C25.514 19.5174 25.6639 19.693 25.8237 19.8856C25.9769 20.0714 26.1333 20.2607 26.2931 20.4534C26.4532 20.6325 26.5312 20.8442 26.5272 21.0886C26.5166 21.326 26.425 21.5282 26.2526 21.6951L23.1073 24.7399C22.9415 24.9137 22.7791 25.091 22.62 25.2717C22.4676 25.4593 22.3222 25.6335 22.1838 25.7941C22.0661 25.9348 21.9156 26.007 21.7322 26.0108C21.5624 26.0149 21.4141 25.9514 21.2872 25.8203C21.1604 25.6893 21.1018 25.5322 21.1116 25.349C21.1213 25.1659 21.195 25.0211 21.3325 24.9147L21.6729 24.6453L21.6936 24.6252C21.7419 24.5785 21.7393 24.5275 21.6859 24.4724L15.927 18.5232C15.8602 18.4542 15.8025 18.4567 15.7537 18.5305L15.432 18.9021C15.3214 19.0225 15.1846 19.0882 15.0214 19.0991C14.8586 19.0965 14.7203 19.0365 14.6068 18.9193C14.4933 18.802 14.4379 18.6619 14.4405 18.499C14.4501 18.3295 14.5202 18.1948 14.6508 18.0951C14.8708 17.9222 15.06 17.7725 15.2182 17.646C15.3766 17.506 15.5248 17.3693 15.6627 17.2357C15.8007 17.1022 15.9422 16.9585 16.0873 16.8047C16.2257 16.644 16.3814 16.4599 16.5545 16.2522C16.6584 16.1249 16.7918 16.0626 16.9547 16.0652C17.1176 16.0679 17.2558 16.1278 17.3693 16.2451C17.4828 16.3624 17.5383 16.5024 17.5356 16.6653C17.5263 16.8213 17.4597 16.9526 17.3357 17.0592C17.2327 17.1323 17.1296 17.212 17.0263 17.2986C16.93 17.3785 16.8302 17.4618 16.727 17.5484C16.6649 17.6084 16.6639 17.6695 16.724 17.7316L22.4529 23.6498C22.513 23.7118 22.5741 23.7128 22.6361 23.6527L25.3055 21.0687C25.3745 21.0019 25.372 20.9442 25.2981 20.8955C25.1577 20.7642 25.0138 20.6363 24.8665 20.5117C24.7192 20.3871 24.5921 20.2696 24.4852 20.1592C24.3717 20.042 24.3196 19.9053 24.329 19.7493C24.3316 19.5864 24.3916 19.4482 24.5088 19.3347Z" fill="white"/>
<path d="M30.0966 6.30543C30.226 6.20414 30.3698 6.17273 30.5281 6.2112C30.6947 6.24468 30.8203 6.33111 30.9052 6.47049C30.9901 6.60988 31.0092 6.76122 30.9626 6.92453C30.9191 7.07464 30.8252 7.18804 30.6808 7.26473C30.597 7.29327 30.5141 7.33251 30.4322 7.38244C30.3452 7.42418 30.2541 7.46841 30.1589 7.51514L30.1343 7.53012C30.0769 7.56507 30.0707 7.61944 30.1156 7.69324L33.0218 12.4651C33.4462 13.1621 33.6928 13.8437 33.7614 14.51C33.825 15.1682 33.7121 15.7765 33.4227 16.3349C33.1334 16.8933 32.6689 17.3672 32.0294 17.7567C31.3079 18.1961 30.6242 18.3933 29.9785 18.3481C29.3329 18.303 28.7461 18.0871 28.2184 17.7004C27.6856 17.3055 27.237 16.8087 26.8724 16.2102L23.9663 11.4383C23.9213 11.3645 23.8702 11.3451 23.8128 11.38C23.7226 11.435 23.6349 11.494 23.5497 11.5571C23.4727 11.6153 23.3982 11.6775 23.3262 11.7438C23.1918 11.8369 23.0438 11.8708 22.8823 11.8455C22.724 11.8071 22.6024 11.7181 22.5175 11.5788C22.4326 11.4394 22.4094 11.2905 22.4479 11.1322C22.4946 10.9689 22.5926 10.853 22.742 10.7845C22.9947 10.6643 23.2122 10.56 23.3943 10.4715C23.5797 10.3699 23.7544 10.2691 23.9184 10.1692C24.0824 10.0694 24.2479 9.96289 24.4151 9.84983C24.5855 9.72358 24.7821 9.57575 25.0049 9.40634C25.1343 9.30506 25.2782 9.27365 25.4365 9.31212C25.5948 9.35058 25.7164 9.43951 25.8013 9.5789C25.8862 9.71828 25.9094 9.86713 25.8709 10.0254C25.8274 10.1756 25.7335 10.289 25.5891 10.3656C25.489 10.4042 25.3856 10.4559 25.279 10.5208C25.1674 10.5775 25.0558 10.6342 24.9443 10.691L24.9197 10.7059C24.8623 10.7409 24.8535 10.7912 24.8935 10.8568L27.8146 15.6532C27.8895 15.7762 27.9976 15.9352 28.1388 16.1302C28.2883 16.3202 28.4698 16.5075 28.6834 16.6922C28.897 16.8768 29.1466 17.0283 29.4322 17.1466C29.7129 17.2567 30.0243 17.2974 30.3666 17.2688C30.7088 17.2402 31.0808 17.1036 31.4826 16.8589C31.8926 16.6092 32.1888 16.3389 32.3712 16.0479C32.5487 15.7488 32.6529 15.4492 32.6839 15.1494C32.7099 14.8413 32.6857 14.5525 32.6115 14.283C32.5455 14.0085 32.4582 13.7638 32.3498 13.5488C32.2496 13.3288 32.1645 13.1615 32.0946 13.0467L29.1734 8.25019C29.1335 8.1846 29.0848 8.16928 29.0274 8.20423C28.9208 8.26914 28.8126 8.34065 28.7028 8.41876C28.6012 8.49188 28.5063 8.56659 28.4178 8.64291C28.2917 8.73101 28.1478 8.76241 27.9863 8.73714C27.828 8.69867 27.7064 8.60974 27.6215 8.47036C27.5366 8.33097 27.5134 8.18212 27.5519 8.02381C27.5985 7.86051 27.6924 7.74711 27.8336 7.68361C28.0864 7.5634 28.3079 7.45657 28.4983 7.36311C28.6837 7.26145 28.8543 7.16319 29.01 7.06831C29.174 6.96844 29.3437 6.85948 29.5191 6.74143C29.6895 6.61517 29.882 6.46984 30.0966 6.30543Z" fill="white"/>
<path d="M36.3306 6.70684C36.4197 7.07161 36.5883 7.33965 36.8364 7.51096C37.0935 7.67928 37.4026 7.79019 37.7636 7.8437C38.1307 7.88509 38.5207 7.90384 38.9336 7.89993C39.3556 7.89304 39.7806 7.89527 40.2086 7.90663C40.6457 7.91499 41.0583 7.9718 41.4463 8.07706C41.8435 8.17933 42.1916 8.3633 42.4908 8.62899C42.7991 8.89169 43.0339 9.26937 43.1952 9.76202C43.3835 10.3368 43.3927 10.8893 43.223 11.4197C43.0593 11.938 42.7609 12.3994 42.3277 12.8039C41.8915 13.1993 41.3723 13.4956 40.7702 13.6928C39.9674 13.9558 39.249 14.0294 38.6151 13.9138C37.9812 13.7981 37.4616 13.6147 37.0561 13.3637C36.9048 13.2718 36.7793 13.1664 36.6798 13.0475C36.5772 12.9194 36.505 12.7916 36.4632 12.6638C36.3885 12.4358 36.3973 12.2157 36.4895 12.0037C36.5908 11.7887 36.7828 11.6349 37.0656 11.5422C37.2937 11.4675 37.5091 11.4929 37.7119 11.6185C37.9237 11.741 38.064 11.9072 38.1328 12.117C38.1806 12.263 38.192 12.4058 38.1669 12.5453C38.1635 12.6272 38.192 12.6835 38.2526 12.7142C38.5676 12.8434 38.8967 12.9073 39.2397 12.9061C39.5889 12.8928 39.9277 12.8323 40.2562 12.7247C40.6758 12.5873 41.0488 12.3843 41.375 12.1159C41.7013 11.8474 41.9382 11.5375 42.0857 11.1861C42.2333 10.8347 42.2473 10.4765 42.1278 10.1116C42.0202 9.78317 41.8363 9.54541 41.576 9.39833C41.3127 9.24212 40.9975 9.14331 40.6304 9.10192C40.2724 9.05754 39.8869 9.0373 39.474 9.0412C39.0582 9.03599 38.6362 9.0277 38.2082 9.01634C37.7864 8.99288 37.3814 8.92852 36.9934 8.82326C36.6145 8.71502 36.2784 8.53718 35.9853 8.28973C35.6921 8.04229 35.4693 7.68593 35.3169 7.22065C35.0928 6.53641 35.0687 5.93823 35.2444 5.42609C35.4292 4.91097 35.7381 4.48151 36.171 4.1377C36.613 3.7909 37.0986 3.53085 37.6277 3.35755C38.1386 3.19022 38.6461 3.10485 39.15 3.10142C39.651 3.08887 40.0878 3.15796 40.4604 3.30867C40.833 3.45938 41.0716 3.69439 41.1762 4.0137C41.2418 4.24477 41.2209 4.47386 41.1134 4.70099C41.0121 4.916 40.8428 5.06235 40.6056 5.14003C40.3776 5.21473 40.1545 5.19686 39.9365 5.08643C39.7155 4.96687 39.5677 4.79305 39.493 4.56497C39.481 4.52848 39.4691 4.49199 39.4571 4.4555C39.4543 4.41602 39.4515 4.37654 39.4487 4.33706C39.44 4.24897 39.4311 4.20642 39.422 4.20941C39.2886 4.17228 39.0852 4.16818 38.8119 4.1971C38.5355 4.2169 38.2422 4.27759 37.932 4.37918C37.6127 4.48376 37.3098 4.63852 37.0234 4.84345C36.7431 5.03627 36.5323 5.28714 36.391 5.59605C36.2468 5.89584 36.2266 6.2661 36.3306 6.70684Z" fill="white"/>
</svg>
