<svg width="327" height="307" viewBox="0 0 327 307" fill="none" xmlns="http://www.w3.org/2000/svg">
<path d="M6.28135 20.2614C3.86939 20.8606 1.42835 19.3911 0.829139 16.9791C0.229927 14.5671 1.69945 12.1261 4.11142 11.5269L6.28135 20.2614ZM222.677 117.432L227.083 116.517L222.677 117.432ZM194.69 144.41L195.402 139.967L194.69 144.41ZM196.658 106.877L197.355 111.322L197.355 111.322L196.658 106.877ZM295.201 247.403L299.701 247.346L299.704 247.601L299.678 247.854L295.201 247.403ZM295.329 305.72C293.482 307.383 290.636 307.234 288.974 305.387L261.875 275.289C260.212 273.442 260.361 270.597 262.208 268.934C264.055 267.271 266.9 267.42 268.563 269.267L292.651 296.021L319.405 271.933C321.252 270.27 324.097 270.42 325.76 272.267C327.423 274.113 327.274 276.959 325.427 278.622L295.329 305.72ZM4.11142 11.5269C65.7636 -3.78956 116.023 -4.20644 153.78 12.818C191.843 29.9799 216.272 64.4221 227.083 116.517L218.271 118.346C207.871 68.2343 184.824 36.6876 150.081 21.0225C115.033 5.21981 67.158 5.13761 6.28135 20.2614L4.11142 11.5269ZM227.083 116.517C228.24 122.092 228.504 131.305 223.957 138.74C221.607 142.583 218.023 145.843 212.91 147.745C207.866 149.621 201.608 150.077 193.978 148.854L195.402 139.967C201.977 141.021 206.58 140.497 209.772 139.31C212.895 138.148 214.923 136.262 216.279 134.045C219.144 129.361 219.197 122.808 218.271 118.346L227.083 116.517ZM193.978 148.854C180.766 146.736 174.872 135.724 175.473 125.353C176.069 115.07 183.044 104.455 195.962 102.431L197.355 111.322C189.341 112.578 184.853 119.049 184.458 125.874C184.068 132.61 187.656 138.726 195.402 139.967L193.978 148.854ZM195.962 102.431C216.188 99.2624 242.179 99.3073 263.19 119.221C284.013 138.956 298.826 177.188 299.701 247.346L290.701 247.459C289.836 178.066 275.133 142.94 256.999 125.753C239.052 108.744 216.642 108.301 197.355 111.322L195.962 102.431ZM299.678 247.854C298.537 259.181 297.945 280.997 296.812 302.612L287.824 302.141C288.933 280.998 289.555 258.552 290.724 246.952L299.678 247.854Z" fill="#E97D01"/>
</svg>
