<svg width="97" height="99" viewBox="0 0 97 99" fill="none" xmlns="http://www.w3.org/2000/svg">
<path d="M62.2041 29.6294C66.0929 24.1322 66.7656 16.1556 62.5682 10.5964C57.409 3.76323 43.5408 5.85073 36.8084 8.56196C30.4852 11.1083 24.8331 15.9117 24.5429 23.1193C24.1717 32.3366 30.0582 38.8015 37.6276 43.0565C46.4369 48.0084 56.3341 50.7313 60.7022 60.7558C64.2328 68.8582 64.3244 80.7802 56.8792 86.8188C47.5795 94.3617 32.373 94.3732 21.6301 90.5938C11.6923 87.0976 5.15887 82.6107 6.08772 71.5382" stroke="#FF9894" stroke-width="11" stroke-linecap="round"/>
<path d="M62.9335 32.202C66.8968 29.5502 71.3776 27.9656 75.4721 25.5765C78.9898 23.5239 81.8099 20.5116 85.1751 18.2839C86.81 17.2016 88.3254 16.0265 89.8272 14.7933C92.3228 12.7439 90.1177 17.5806 89.7386 18.5952C84.8133 31.777 64.9912 76.4848 59.9023 89.6177" stroke="#FF9894" stroke-width="11" stroke-linecap="round"/>
</svg>
