<svg width="139" height="142" viewBox="0 0 139 142" fill="none" xmlns="http://www.w3.org/2000/svg">
<path d="M89.3307 42.1931C94.958 34.2384 95.9314 22.6957 89.8576 14.6512C82.3919 4.76327 62.3238 7.784 52.5815 11.7073C43.4316 15.3921 35.2526 22.3429 34.8326 32.7726C34.2955 46.1106 42.8137 55.4657 53.767 61.6229C66.5146 68.7886 80.8365 72.7288 87.1573 87.2349C92.2662 98.9596 92.3988 116.211 81.6252 124.95C68.1679 135.865 46.1632 135.881 30.6177 130.412C16.2371 125.353 6.78283 118.86 8.12693 102.838" stroke="#E97D01" stroke-width="15" stroke-linecap="round"/>
<path d="M90.3863 45.9162C96.1214 42.0788 102.605 39.7859 108.53 36.3286C113.621 33.3583 117.701 28.9994 122.571 25.7758C124.937 24.2097 127.13 22.5093 129.303 20.7247C132.914 17.7592 129.723 24.7581 129.175 26.2263C122.048 45.3012 93.3639 109.996 86 129" stroke="#E97D01" stroke-width="15" stroke-linecap="round"/>
</svg>
