<svg width="74" height="73" viewBox="0 0 74 73" fill="none" xmlns="http://www.w3.org/2000/svg">
<path d="M64.1382 40.2662C63.4967 40.2662 62.8321 40.1042 62.181 39.9456C62.0118 39.9043 61.8435 39.8633 61.6767 39.8254C60.04 39.4647 58.4315 38.9859 56.864 38.3926C55.1597 37.7726 53.2863 37.8048 51.6042 38.483C49.9222 39.1612 48.5505 40.4376 47.7529 42.0664L46.9447 43.7196C43.3664 41.7291 40.0783 39.2568 37.1723 36.372C34.2875 33.4661 31.8153 30.1779 29.8247 26.5996L31.3677 25.571C32.9965 24.7734 34.2729 23.4017 34.9511 21.7197C35.6294 20.0376 35.6616 18.1642 35.0415 16.4599C34.4582 14.889 33.9796 13.2813 33.6087 11.6472C33.425 10.8389 33.2781 9.99396 33.1679 9.14898C32.7217 6.56121 31.3663 4.21776 29.3457 2.54066C27.3251 0.863546 24.7721 -0.0370095 22.1464 0.00116571H11.1249C9.54164 -0.0137005 7.97372 0.312755 6.52793 0.958308C5.08213 1.60386 3.7924 2.55335 2.74654 3.74215C1.70068 4.93095 0.923238 6.33114 0.467146 7.8474C0.0110534 9.36366 -0.112983 10.9604 0.103481 12.5289C2.06067 27.9199 9.08975 42.2203 20.0804 53.171C31.0711 64.1218 45.3969 71.0988 60.795 73H62.1911C64.9002 73.004 67.5159 72.01 69.5387 70.2079C70.701 69.1684 71.6294 67.894 72.2627 66.4691C72.896 65.0442 73.2197 63.5011 73.2125 61.9418V50.9203C73.1675 48.3684 72.2382 45.9113 70.5833 43.9682C68.9284 42.0252 66.6504 40.7168 64.1382 40.2662ZM65.9751 62.3092C65.9744 62.8308 65.8627 63.3463 65.6473 63.8214C65.4319 64.2965 65.1179 64.7203 64.726 65.0645C64.3167 65.4209 63.8368 65.6869 63.3177 65.8452C62.7986 66.0035 62.252 66.0504 61.7135 65.983C47.9546 64.2188 35.1746 57.9244 25.3893 48.0925C15.6041 38.2607 9.37036 25.451 7.67155 11.6839C7.61308 11.1458 7.66432 10.6014 7.82219 10.0836C7.98005 9.56578 8.24125 9.08538 8.59001 8.67138C8.93428 8.2795 9.35806 7.96543 9.83315 7.75005C10.3082 7.53468 10.8237 7.42294 11.3454 7.42228H22.3668C23.2212 7.40327 24.0554 7.68268 24.726 8.21241C25.3965 8.74215 25.8614 9.48906 26.0407 10.3246C26.1876 11.3288 26.3713 12.3207 26.5917 13.3004C27.0161 15.237 27.5809 17.1402 28.2817 18.9948L23.1383 21.3828C22.6986 21.5846 22.303 21.8712 21.9743 22.2263C21.6456 22.5814 21.3903 22.9979 21.2231 23.4519C21.0558 23.9059 20.9799 24.3885 20.9996 24.8719C21.0194 25.3554 21.1344 25.8301 21.3382 26.269C26.6255 37.5945 35.7294 46.6984 47.0549 51.9857C47.9493 52.3532 48.9526 52.3532 49.847 51.9857C50.3052 51.8218 50.7262 51.5686 51.0857 51.2406C51.4452 50.9127 51.736 50.5166 51.9411 50.0753L54.2189 44.932C56.1181 45.6112 58.0565 46.1755 60.0235 46.622C61.0032 46.8424 61.9951 47.0261 62.9993 47.173C63.8348 47.3523 64.5817 47.8172 65.1115 48.4877C65.6412 49.1583 65.9206 49.9925 65.9016 50.8468L65.9751 62.3092Z" fill="#FA8C4F"/>
<path d="M64.1382 40.2662C63.4967 40.2662 62.8321 40.1042 62.181 39.9456C62.0118 39.9043 61.8435 39.8633 61.6767 39.8254C60.04 39.4647 58.4315 38.9859 56.864 38.3926C55.1597 37.7726 53.2863 37.8048 51.6042 38.483C49.9222 39.1612 48.5505 40.4376 47.7529 42.0664L46.9447 43.7196C43.3664 41.7291 40.0783 39.2568 37.1723 36.372C34.2875 33.4661 31.8153 30.1779 29.8247 26.5996L31.3677 25.571C32.9965 24.7734 34.2729 23.4017 34.9511 21.7197C35.6294 20.0376 35.6616 18.1642 35.0415 16.4599C34.4582 14.889 33.9796 13.2813 33.6087 11.6472C33.425 10.8389 33.2781 9.99396 33.1679 9.14898C32.7217 6.56121 31.3663 4.21776 29.3457 2.54066C27.3251 0.863546 24.7721 -0.0370095 22.1464 0.00116571H11.1249C9.54164 -0.0137005 7.97372 0.312755 6.52793 0.958308C5.08213 1.60386 3.7924 2.55335 2.74654 3.74215C1.70068 4.93095 0.923238 6.33114 0.467146 7.8474C0.0110534 9.36366 -0.112983 10.9604 0.103481 12.5289C2.06067 27.9199 9.08975 42.2203 20.0804 53.171C31.0711 64.1218 45.3969 71.0988 60.795 73H62.1911C64.9002 73.004 67.5159 72.01 69.5387 70.2079C70.701 69.1684 71.6294 67.894 72.2627 66.4691C72.896 65.0442 73.2197 63.5011 73.2125 61.9418V50.9203C73.1675 48.3684 72.2382 45.9113 70.5833 43.9682C68.9284 42.0252 66.6504 40.7168 64.1382 40.2662ZM65.9751 62.3092C65.9744 62.8308 65.8627 63.3463 65.6473 63.8214C65.4319 64.2965 65.1179 64.7203 64.726 65.0645C64.3167 65.4209 63.8368 65.6869 63.3177 65.8452C62.7986 66.0035 62.252 66.0504 61.7135 65.983C47.9546 64.2188 35.1746 57.9244 25.3893 48.0925C15.6041 38.2607 9.37036 25.451 7.67155 11.6839C7.61308 11.1458 7.66432 10.6014 7.82219 10.0836C7.98005 9.56578 8.24125 9.08538 8.59001 8.67138C8.93428 8.2795 9.35806 7.96543 9.83315 7.75005C10.3082 7.53468 10.8237 7.42294 11.3454 7.42228H22.3668C23.2212 7.40327 24.0554 7.68268 24.726 8.21241C25.3965 8.74215 25.8614 9.48906 26.0407 10.3246C26.1876 11.3288 26.3713 12.3207 26.5917 13.3004C27.0161 15.237 27.5809 17.1402 28.2817 18.9948L23.1383 21.3828C22.6986 21.5846 22.303 21.8712 21.9743 22.2263C21.6456 22.5814 21.3903 22.9979 21.2231 23.4519C21.0558 23.9059 20.9799 24.3885 20.9996 24.8719C21.0194 25.3554 21.1344 25.8301 21.3382 26.269C26.6255 37.5945 35.7294 46.6984 47.0549 51.9857C47.9493 52.3532 48.9526 52.3532 49.847 51.9857C50.3052 51.8218 50.7262 51.5686 51.0857 51.2406C51.4452 50.9127 51.736 50.5166 51.9411 50.0753L54.2189 44.932C56.1181 45.6112 58.0565 46.1755 60.0235 46.622C61.0032 46.8424 61.9951 47.0261 62.9993 47.173C63.8348 47.3523 64.5817 47.8172 65.1115 48.4877C65.6412 49.1583 65.9206 49.9925 65.9016 50.8468L65.9751 62.3092Z" stroke="black"/>
</svg>
