<svg width="279" height="337" viewBox="0 0 279 337" fill="none" xmlns="http://www.w3.org/2000/svg">
<path d="M272.845 313.868C275.199 313.071 277.753 314.332 278.551 316.686C279.349 319.04 278.087 321.595 275.733 322.392L272.845 313.868ZM91.2007 208.703L86.7486 209.358L91.2007 208.703ZM115.307 178.461L114.451 182.879L115.307 178.461ZM113.126 220.031L112.16 215.636L112.16 215.636L113.126 220.031ZM31.4529 65.8322L26.9529 65.8199L26.9535 65.6254L26.9708 65.4316L31.4529 65.8322ZM31.6353 1.60174C33.4823 -0.0611771 36.3276 0.0880414 37.9905 1.93502L65.0893 32.0333C66.7522 33.8803 66.603 36.7257 64.756 38.3886C62.909 40.0515 60.0637 39.9023 58.4007 38.0553L34.313 11.3012L7.55893 35.389C5.71195 37.0519 2.86661 36.9027 1.2037 35.0557C-0.459212 33.2087 -0.309993 30.3634 1.53699 28.7005L31.6353 1.60174ZM275.733 322.392C223.091 340.231 179.912 341.52 147.594 322.889C115.204 304.216 95.1361 266.364 86.7486 209.358L95.6527 208.048C103.867 263.879 123.171 298.42 152.089 315.092C181.078 331.804 221.142 331.389 272.845 313.868L275.733 322.392ZM86.7486 209.358C85.8719 203.399 85.7949 193.646 89.5682 185.743C91.5073 181.681 94.5532 177.935 99.1637 175.637C103.77 173.341 109.437 172.741 116.162 174.043L114.451 182.879C109.158 181.854 105.599 182.485 103.178 183.692C100.761 184.897 98.9768 186.925 97.6901 189.62C95.0115 195.231 94.8992 202.926 95.6527 208.048L86.7486 209.358ZM116.162 174.043C122.147 175.202 126.373 178.999 128.913 183.723C131.405 188.359 132.338 193.946 132.033 199.32C131.447 209.671 125.89 221.832 114.093 224.426L112.16 215.636C118.162 214.316 122.561 207.409 123.048 198.811C123.28 194.712 122.528 190.854 120.986 187.985C119.491 185.205 117.332 183.436 114.451 182.879L116.162 174.043ZM114.093 224.426C105.364 226.346 95.3135 227.407 85.1612 225.167C74.8973 222.902 64.8058 217.32 56.0294 206.442C38.7213 184.987 26.7416 143.207 26.9529 65.8199L35.9529 65.8445C35.7425 142.894 47.7999 181.907 63.0341 200.791C70.5289 210.081 78.8349 214.554 87.1006 216.378C95.478 218.227 104.089 217.411 112.16 215.636L114.093 224.426ZM26.9708 65.4316C28.0969 52.8321 28.9012 28.5687 30.1525 4.71032L39.1401 5.18166C37.9078 28.6789 37.0799 53.4234 35.935 66.2328L26.9708 65.4316Z" fill="#E97D01"/>
</svg>
