<svg width="173" height="188" viewBox="0 0 173 188" fill="none" xmlns="http://www.w3.org/2000/svg">
<path d="M142 124.593L88 157L34 124.593V63.4153L88 32L140.354 63.4153L142 124.593Z" fill="#FF9894"/>
<path d="M34 63.4153L88 95.1614M34 63.4153L88 32L140.354 63.4153M34 63.4153V124.593L88 157M88 95.1614V157M88 95.1614L140.354 63.4153M88 157L142 124.593L140.354 63.4153" stroke="#B2605D" stroke-width="7" stroke-linecap="round" stroke-linejoin="round"/>
<path d="M14.6968 141.993C15.7977 143.582 17.9782 143.978 19.5671 142.877C21.1559 141.776 21.5515 139.595 20.4506 138.007L14.6968 141.993ZM34.1235 30.6546L36.4995 33.2246L36.4995 33.2245L34.1235 30.6546ZM146.079 39.455C148.012 39.4111 149.543 37.8089 149.499 35.8764L148.784 4.38452C148.74 2.45202 147.137 0.921017 145.205 0.964926C143.272 1.00883 141.741 2.61103 141.785 4.54353L142.421 32.5363L114.429 33.1723C112.496 33.2162 110.965 34.8184 111.009 36.7509C111.053 38.6834 112.655 40.2144 114.588 40.1705L146.079 39.455ZM20.4506 138.007C14.1913 128.973 7.34397 112.737 7.50271 93.7978C7.66025 75.0012 14.7129 53.3666 36.4995 33.2246L31.7475 28.0846C8.51864 49.5601 0.676409 73.0443 0.502956 93.7391C0.330696 114.292 7.71625 131.919 14.6968 141.993L20.4506 138.007ZM36.4995 33.2245C45.0864 25.2854 61.4105 16.5089 80.8391 14.7979C100.109 13.1009 122.501 18.3419 143.582 38.4863L148.418 33.4254C125.808 11.8197 101.4 5.96007 80.225 7.8249C59.208 9.67579 41.4397 19.1237 31.7475 28.0847L36.4995 33.2245Z" fill="#B2605D"/>
<path d="M158.303 46.0066C157.202 44.4178 155.022 44.0222 153.433 45.1231C151.844 46.224 151.449 48.4045 152.549 49.9934L158.303 46.0066ZM138.877 157.345L136.501 154.775L136.5 154.775L138.877 157.345ZM26.9205 148.545C24.988 148.589 23.457 150.191 23.5009 152.124L24.2164 183.615C24.2603 185.548 25.8625 187.079 27.795 187.035C29.7275 186.991 31.2585 185.389 31.2146 183.456L30.5786 155.464L58.5714 154.828C60.5039 154.784 62.0349 153.182 61.991 151.249C61.9471 149.317 60.3449 147.786 58.4124 147.829L26.9205 148.545ZM152.549 49.9934C158.809 59.0268 165.656 75.2633 165.497 94.2022C165.34 112.999 158.287 134.633 136.501 154.775L141.252 159.915C164.481 138.44 172.324 114.956 172.497 94.2609C172.669 73.7085 165.284 56.081 158.303 46.0066L152.549 49.9934ZM136.5 154.775C127.914 162.715 111.589 171.491 92.1609 173.202C72.8907 174.899 50.4992 169.658 29.418 149.514L24.582 154.575C47.1924 176.18 71.5995 182.04 92.775 180.175C113.792 178.324 131.56 168.876 141.253 159.915L136.5 154.775Z" fill="#B2605D"/>
</svg>
