<svg width="179" height="157" viewBox="0 0 179 157" fill="none" xmlns="http://www.w3.org/2000/svg">
<rect width="179" height="157" rx="6" fill="#FF9894"/>
<rect x="16.6523" y="18.0391" width="22.2015" height="15.2636" fill="#B2605D"/>
<rect x="58.2812" y="18.0391" width="22.2015" height="15.2636" fill="#B2605D"/>
<rect x="101.297" y="18.0391" width="22.2015" height="15.2636" fill="#B2605D"/>
<rect x="142.922" y="18.0391" width="22.2015" height="15.2636" fill="#B2605D"/>
<rect x="16.6523" y="124.884" width="22.2015" height="15.2636" fill="#B2605D"/>
<rect x="58.2812" y="124.884" width="22.2015" height="15.2636" fill="#B2605D"/>
<rect x="101.297" y="124.884" width="22.2015" height="15.2636" fill="#B2605D"/>
<rect x="142.922" y="124.884" width="22.2015" height="15.2636" fill="#B2605D"/>
<path d="M117.917 80.8016C119.197 80.0223 119.197 78.1643 117.917 77.385L66.5244 46.0951C65.1916 45.2836 63.4843 46.243 63.4843 47.8034L63.4843 110.383C63.4843 111.944 65.1916 112.903 66.5244 112.092L117.917 80.8016Z" fill="#B2605D"/>
</svg>
