<svg width="201" height="171" viewBox="0 0 201 171" fill="none" xmlns="http://www.w3.org/2000/svg">
<rect x="74" y="134" width="53" height="31" fill="#FF9894" stroke="#B2605D" stroke-width="2"/>
<path d="M1.5 5C1.5 3.067 3.067 1.5 5 1.5H196C197.933 1.5 199.5 3.067 199.5 5V119.82V135C199.5 136.933 197.933 138.5 196 138.5H5C3.06701 138.5 1.5 136.933 1.5 135V119.82V5Z" fill="#FF9894" stroke="#B2605D" stroke-width="3"/>
<path d="M10 10H191V31.1538V120H10V31.1538V10Z" fill="#FFFAF6" stroke="#B2605D" stroke-width="2"/>
<path d="M62 75H140" stroke="#C42121" stroke-width="3" stroke-linecap="round"/>
<path d="M62 75H140" stroke="#FF9894" stroke-width="3" stroke-linecap="round"/>
<path d="M84 82H119" stroke="#FF9894" stroke-width="3" stroke-linecap="round"/>
<path d="M53 22H69" stroke="#B2605D" stroke-linecap="square"/>
<path d="M75 22H92" stroke="#B2605D" stroke-linecap="square"/>
<path d="M97 22H113" stroke="#B2605D" stroke-linecap="square"/>
<path d="M118 22H135" stroke="#B2605D" stroke-linecap="square"/>
<path d="M174 72L180 77.8235L174 83" stroke="#FF9894" stroke-width="3" stroke-linecap="round" stroke-linejoin="round"/>
<path d="M27 72L21 77.2941L27 82" stroke="#FF9894" stroke-width="3" stroke-linecap="round" stroke-linejoin="round"/>
<circle cx="102" cy="112" r="3.25" stroke="#B2605D" stroke-width="1.5"/>
<circle cx="113" cy="112" r="3.25" stroke="#B2605D" stroke-width="1.5"/>
<circle cx="123" cy="112" r="3.25" stroke="#B2605D" stroke-width="1.5"/>
<circle cx="81" cy="112" r="3.25" stroke="#B2605D" stroke-width="1.5"/>
<circle cx="91" cy="112" r="3.25" stroke="#B2605D" stroke-width="1.5"/>
<path d="M113.25 55C113.25 62.3437 107.516 68.25 100.5 68.25C93.4838 68.25 87.75 62.3437 87.75 55C87.75 47.6563 93.4838 41.75 100.5 41.75C107.516 41.75 113.25 47.6563 113.25 55Z" stroke="#DB3A3A" stroke-width="1.5" stroke-linejoin="round"/>
<path d="M113.25 55C113.25 62.3437 107.516 68.25 100.5 68.25C93.4838 68.25 87.75 62.3437 87.75 55C87.75 47.6563 93.4838 41.75 100.5 41.75C107.516 41.75 113.25 47.6563 113.25 55Z" stroke="#DB3A3A" stroke-width="1.5" stroke-linejoin="round"/>
<path d="M113.25 55C113.25 62.3437 107.516 68.25 100.5 68.25C93.4838 68.25 87.75 62.3437 87.75 55C87.75 47.6563 93.4838 41.75 100.5 41.75C107.516 41.75 113.25 47.6563 113.25 55Z" stroke="#B2605D" stroke-width="1.5" stroke-linejoin="round"/>
<circle cx="99" cy="50" r="2.5" stroke="#B2605D"/>
<path d="M156.25 22C156.25 24.9623 154.063 27.25 151.5 27.25C148.937 27.25 146.75 24.9623 146.75 22C146.75 19.0377 148.937 16.75 151.5 16.75C154.063 16.75 156.25 19.0377 156.25 22Z" stroke="#B2605D" stroke-width="1.5"/>
<path d="M170.25 22C170.25 24.9623 168.063 27.25 165.5 27.25C162.937 27.25 160.75 24.9623 160.75 22C160.75 19.0377 162.937 16.75 165.5 16.75C168.063 16.75 170.25 19.0377 170.25 22Z" stroke="#B2605D" stroke-width="1.5"/>
<path d="M184.25 22C184.25 24.9623 182.063 27.25 179.5 27.25C176.937 27.25 174.75 24.9623 174.75 22C174.75 19.0377 176.937 16.75 179.5 16.75C182.063 16.75 184.25 19.0377 184.25 22Z" stroke="#B2605D" stroke-width="1.5"/>
<rect x="84.5" y="89.5" width="33" height="11" rx="5.5" fill="#FF9894" stroke="#B2605D"/>
<rect x="55" y="161" width="91" height="9" rx="4.5" fill="#FF9894" stroke="#B2605D" stroke-width="2"/>
<rect x="18.5" y="18.5" width="25" height="7" rx="3.5" fill="#FF9894" stroke="#B2605D"/>
<rect x="74" y="134" width="53" height="31" fill="#FF9894" stroke="#B2605D" stroke-width="2"/>
<path d="M1.5 121.32H199.5V135C199.5 136.933 197.933 138.5 196 138.5H5C3.06701 138.5 1.5 136.933 1.5 135V121.32ZM199.5 118.32H1.5V5C1.5 3.067 3.067 1.5 5 1.5H196C197.933 1.5 199.5 3.067 199.5 5V118.32Z" fill="#FF9894" stroke="#B2605D" stroke-width="3"/>
<path d="M10 32.1538H191V120H10V32.1538ZM191 30.1538H10V10H191V30.1538Z" fill="#FFFAF6" stroke="#B2605D" stroke-width="2"/>
<path d="M62 75H140" stroke="#C42121" stroke-width="3" stroke-linecap="round"/>
<path d="M62 75H140" stroke="#FF9894" stroke-width="3" stroke-linecap="round"/>
<path d="M84 82H119" stroke="#FF9894" stroke-width="3" stroke-linecap="round"/>
<path d="M53 22H69" stroke="#B2605D" stroke-linecap="square"/>
<path d="M75 22H92" stroke="#B2605D" stroke-linecap="square"/>
<path d="M97 22H113" stroke="#B2605D" stroke-linecap="square"/>
<path d="M118 22H135" stroke="#B2605D" stroke-linecap="square"/>
<path d="M174 72L180 77.8235L174 83" stroke="#FF9894" stroke-width="3" stroke-linecap="round" stroke-linejoin="round"/>
<path d="M27 72L21 77.2941L27 82" stroke="#FF9894" stroke-width="3" stroke-linecap="round" stroke-linejoin="round"/>
<circle cx="102" cy="112" r="3.25" stroke="#B2605D" stroke-width="1.5"/>
<circle cx="113" cy="112" r="3.25" stroke="#B2605D" stroke-width="1.5"/>
<circle cx="123" cy="112" r="3.25" stroke="#B2605D" stroke-width="1.5"/>
<circle cx="81" cy="112" r="3.25" stroke="#B2605D" stroke-width="1.5"/>
<circle cx="91" cy="112" r="3.25" stroke="#B2605D" stroke-width="1.5"/>
<path d="M93.6762 53.843C93.5296 53.6909 93.3256 53.6078 93.1144 53.614C92.9032 53.6201 92.7044 53.7151 92.5669 53.8755L88.2977 58.8563C87.9416 57.6371 87.75 56.3426 87.75 55C87.75 47.6563 93.4838 41.75 100.5 41.75C107.516 41.75 113.25 47.6563 113.25 55C113.25 55.827 113.177 56.6358 113.038 57.42L105.899 51.2507C105.746 51.1183 105.546 51.0534 105.344 51.071C105.142 51.0886 104.956 51.1871 104.828 51.344L98.6123 58.9619L93.6762 53.843ZM88.8853 60.4756L93.169 55.478L98.1192 60.6115C98.2681 60.7659 98.4759 60.8491 98.6901 60.8403C98.9044 60.8314 99.1046 60.7312 99.2402 60.5651L105.502 52.8901L112.282 58.7493L112.92 58.0118C111.605 63.8937 106.526 68.25 100.5 68.25C95.3518 68.25 90.8941 65.0701 88.8853 60.4756Z" stroke="#DB3A3A" stroke-width="1.5" stroke-linejoin="round"/>
<path d="M93.6762 53.843C93.5296 53.6909 93.3256 53.6078 93.1144 53.614C92.9032 53.6201 92.7044 53.7151 92.5669 53.8755L88.2977 58.8563C87.9416 57.6371 87.75 56.3426 87.75 55C87.75 47.6563 93.4838 41.75 100.5 41.75C107.516 41.75 113.25 47.6563 113.25 55C113.25 55.827 113.177 56.6358 113.038 57.42L105.899 51.2507C105.746 51.1183 105.546 51.0534 105.344 51.071C105.142 51.0886 104.956 51.1871 104.828 51.344L98.6123 58.9619L93.6762 53.843ZM88.8853 60.4756L93.169 55.478L98.1192 60.6115C98.2681 60.7659 98.4759 60.8491 98.6901 60.8403C98.9044 60.8314 99.1046 60.7312 99.2402 60.5651L105.502 52.8901L112.282 58.7493L112.92 58.0118C111.605 63.8937 106.526 68.25 100.5 68.25C95.3518 68.25 90.8941 65.0701 88.8853 60.4756Z" stroke="#DB3A3A" stroke-width="1.5" stroke-linejoin="round"/>
<path d="M93.6762 53.843C93.5296 53.6909 93.3256 53.6078 93.1144 53.614C92.9032 53.6201 92.7044 53.7151 92.5669 53.8755L88.2977 58.8563C87.9416 57.6371 87.75 56.3426 87.75 55C87.75 47.6563 93.4838 41.75 100.5 41.75C107.516 41.75 113.25 47.6563 113.25 55C113.25 55.827 113.177 56.6358 113.038 57.42L105.899 51.2507C105.746 51.1183 105.546 51.0534 105.344 51.071C105.142 51.0886 104.956 51.1871 104.828 51.344L98.6123 58.9619L93.6762 53.843ZM88.8853 60.4756L93.169 55.478L98.1192 60.6115C98.2681 60.7659 98.4759 60.8491 98.6901 60.8403C98.9044 60.8314 99.1046 60.7312 99.2402 60.5651L105.502 52.8901L112.282 58.7493L112.92 58.0118C111.605 63.8937 106.526 68.25 100.5 68.25C95.3518 68.25 90.8941 65.0701 88.8853 60.4756Z" stroke="#B2605D" stroke-width="1.5" stroke-linejoin="round"/>
<circle cx="99" cy="50" r="2.5" stroke="#B2605D"/>
<path d="M156.25 22C156.25 24.9623 154.063 27.25 151.5 27.25C148.937 27.25 146.75 24.9623 146.75 22C146.75 19.0377 148.937 16.75 151.5 16.75C154.063 16.75 156.25 19.0377 156.25 22Z" stroke="#B2605D" stroke-width="1.5"/>
<path d="M170.25 22C170.25 24.9623 168.063 27.25 165.5 27.25C162.937 27.25 160.75 24.9623 160.75 22C160.75 19.0377 162.937 16.75 165.5 16.75C168.063 16.75 170.25 19.0377 170.25 22Z" stroke="#B2605D" stroke-width="1.5"/>
<path d="M184.25 22C184.25 24.9623 182.063 27.25 179.5 27.25C176.937 27.25 174.75 24.9623 174.75 22C174.75 19.0377 176.937 16.75 179.5 16.75C182.063 16.75 184.25 19.0377 184.25 22Z" stroke="#B2605D" stroke-width="1.5"/>
<rect x="84.5" y="89.5" width="33" height="11" rx="5.5" fill="#FF9894" stroke="#B2605D"/>
<rect x="55" y="161" width="91" height="9" rx="4.5" fill="#FF9894" stroke="#B2605D" stroke-width="2"/>
<rect x="18.5" y="18.5" width="25" height="7" rx="3.5" fill="#FF9894" stroke="#B2605D"/>
<rect x="74" y="134" width="53" height="31" fill="#FF9894" stroke="#B2605D" stroke-width="2"/>
<path d="M1.5 121.32H199.5V135C199.5 136.933 197.933 138.5 196 138.5H5C3.06701 138.5 1.5 136.933 1.5 135V121.32ZM199.5 118.32H1.5V5C1.5 3.067 3.067 1.5 5 1.5H196C197.933 1.5 199.5 3.067 199.5 5V118.32Z" fill="#FF9894" stroke="#B2605D" stroke-width="3"/>
<path d="M10 32.1538H191V120H10V32.1538ZM191 30.1538H10V10H191V30.1538Z" fill="#FFFAF6" stroke="#B2605D" stroke-width="2"/>
<path d="M62 75H140" stroke="#C42121" stroke-width="3" stroke-linecap="round"/>
<path d="M62 75H140" stroke="#FF9894" stroke-width="3" stroke-linecap="round"/>
<path d="M84 82H119" stroke="#FF9894" stroke-width="3" stroke-linecap="round"/>
<path d="M53 22H69" stroke="#B2605D" stroke-linecap="square"/>
<path d="M75 22H92" stroke="#B2605D" stroke-linecap="square"/>
<path d="M97 22H113" stroke="#B2605D" stroke-linecap="square"/>
<path d="M118 22H135" stroke="#B2605D" stroke-linecap="square"/>
<path d="M174 72L180 77.8235L174 83" stroke="#FF9894" stroke-width="3" stroke-linecap="round" stroke-linejoin="round"/>
<path d="M27 72L21 77.2941L27 82" stroke="#FF9894" stroke-width="3" stroke-linecap="round" stroke-linejoin="round"/>
<circle cx="102" cy="112" r="3.25" stroke="#B2605D" stroke-width="1.5"/>
<circle cx="113" cy="112" r="3.25" stroke="#B2605D" stroke-width="1.5"/>
<circle cx="123" cy="112" r="3.25" stroke="#B2605D" stroke-width="1.5"/>
<circle cx="81" cy="112" r="3.25" stroke="#B2605D" stroke-width="1.5"/>
<circle cx="91" cy="112" r="3.25" stroke="#B2605D" stroke-width="1.5"/>
<path d="M93.6762 53.843C93.5296 53.6909 93.3256 53.6078 93.1144 53.614C92.9032 53.6201 92.7044 53.7151 92.5669 53.8755L88.2977 58.8563C87.9416 57.6371 87.75 56.3426 87.75 55C87.75 47.6563 93.4838 41.75 100.5 41.75C107.516 41.75 113.25 47.6563 113.25 55C113.25 55.827 113.177 56.6358 113.038 57.42L105.899 51.2507C105.746 51.1183 105.546 51.0534 105.344 51.071C105.142 51.0886 104.956 51.1871 104.828 51.344L98.6123 58.9619L93.6762 53.843ZM88.8853 60.4756L93.169 55.478L98.1192 60.6115C98.2681 60.7659 98.4759 60.8491 98.6901 60.8403C98.9044 60.8314 99.1046 60.7312 99.2402 60.5651L105.502 52.8901L112.282 58.7493L112.92 58.0118C111.605 63.8937 106.526 68.25 100.5 68.25C95.3518 68.25 90.8941 65.0701 88.8853 60.4756Z" stroke="#DB3A3A" stroke-width="1.5" stroke-linejoin="round"/>
<path d="M93.6762 53.843C93.5296 53.6909 93.3256 53.6078 93.1144 53.614C92.9032 53.6201 92.7044 53.7151 92.5669 53.8755L88.2977 58.8563C87.9416 57.6371 87.75 56.3426 87.75 55C87.75 47.6563 93.4838 41.75 100.5 41.75C107.516 41.75 113.25 47.6563 113.25 55C113.25 55.827 113.177 56.6358 113.038 57.42L105.899 51.2507C105.746 51.1183 105.546 51.0534 105.344 51.071C105.142 51.0886 104.956 51.1871 104.828 51.344L98.6123 58.9619L93.6762 53.843ZM88.8853 60.4756L93.169 55.478L98.1192 60.6115C98.2681 60.7659 98.4759 60.8491 98.6901 60.8403C98.9044 60.8314 99.1046 60.7312 99.2402 60.5651L105.502 52.8901L112.282 58.7493L112.92 58.0118C111.605 63.8937 106.526 68.25 100.5 68.25C95.3518 68.25 90.8941 65.0701 88.8853 60.4756Z" stroke="#DB3A3A" stroke-width="1.5" stroke-linejoin="round"/>
<path d="M93.6762 53.843C93.5296 53.6909 93.3256 53.6078 93.1144 53.614C92.9032 53.6201 92.7044 53.7151 92.5669 53.8755L88.2977 58.8563C87.9416 57.6371 87.75 56.3426 87.75 55C87.75 47.6563 93.4838 41.75 100.5 41.75C107.516 41.75 113.25 47.6563 113.25 55C113.25 55.827 113.177 56.6358 113.038 57.42L105.899 51.2507C105.746 51.1183 105.546 51.0534 105.344 51.071C105.142 51.0886 104.956 51.1871 104.828 51.344L98.6123 58.9619L93.6762 53.843ZM88.8853 60.4756L93.169 55.478L98.1192 60.6115C98.2681 60.7659 98.4759 60.8491 98.6901 60.8403C98.9044 60.8314 99.1046 60.7312 99.2402 60.5651L105.502 52.8901L112.282 58.7493L112.92 58.0118C111.605 63.8937 106.526 68.25 100.5 68.25C95.3518 68.25 90.8941 65.0701 88.8853 60.4756Z" stroke="#B2605D" stroke-width="1.5" stroke-linejoin="round"/>
<circle cx="99" cy="50" r="2.5" stroke="#B2605D"/>
<path d="M156.25 22C156.25 24.9623 154.063 27.25 151.5 27.25C148.937 27.25 146.75 24.9623 146.75 22C146.75 19.0377 148.937 16.75 151.5 16.75C154.063 16.75 156.25 19.0377 156.25 22Z" stroke="#B2605D" stroke-width="1.5"/>
<path d="M170.25 22C170.25 24.9623 168.063 27.25 165.5 27.25C162.937 27.25 160.75 24.9623 160.75 22C160.75 19.0377 162.937 16.75 165.5 16.75C168.063 16.75 170.25 19.0377 170.25 22Z" stroke="#B2605D" stroke-width="1.5"/>
<path d="M184.25 22C184.25 24.9623 182.063 27.25 179.5 27.25C176.937 27.25 174.75 24.9623 174.75 22C174.75 19.0377 176.937 16.75 179.5 16.75C182.063 16.75 184.25 19.0377 184.25 22Z" stroke="#B2605D" stroke-width="1.5"/>
<rect x="84.5" y="89.5" width="33" height="11" rx="5.5" fill="#FF9894" stroke="#B2605D"/>
<rect x="55" y="161" width="91" height="9" rx="4.5" fill="#FF9894" stroke="#B2605D" stroke-width="2"/>
<rect x="18.5" y="18.5" width="25" height="7" rx="3.5" fill="#FF9894" stroke="#B2605D"/>
</svg>
