<svg width="164" height="163" viewBox="0 0 164 163" fill="none" xmlns="http://www.w3.org/2000/svg">
<path d="M2 160.505V122.546L33.0849 92.0589L54.6052 84.2877L68.3542 44.2361L124.845 31.9814L128.432 34.3726L132.018 36.7637L121.258 95.0479L80.0111 107.9L75.169 120.454L71.9409 128.823L41.7528 160.505H2Z" fill="#FFBDBA"/>
<path d="M71.9409 128.823L41.7528 160.505H2V122.546L33.0849 92.0589M71.9409 128.823L33.0849 92.0589M71.9409 128.823L75.169 120.454M33.0849 92.0589L54.6052 84.2877M54.6052 84.2877L80.0111 107.9M54.6052 84.2877L68.3542 44.2361L124.845 31.9814L128.432 34.3726M80.0111 107.9L75.169 120.454M80.0111 107.9L121.258 95.0479L132.018 36.7637L128.432 34.3726M75.169 120.454L62.0775 107.9M128.432 34.3726L97.9446 65.7563" stroke="#B2605D" stroke-width="4"/>
<path d="M50.4219 95.3469L54.9053 100.129" stroke="#B2605D" stroke-width="4"/>
<path d="M96.1523 12.2545H164.001" stroke="#B2605D" stroke-width="4"/>
<path d="M151.148 0V69.0443" stroke="#B2605D" stroke-width="4"/>
<path d="M136.801 12.2545V25.7047H151.745" stroke="#B2605D" stroke-width="4"/>
<path d="M81.5078 12.2545H88.3824" stroke="#B2605D" stroke-width="4"/>
<path d="M150.848 82.4945V75.321" stroke="#B2605D" stroke-width="4"/>
<circle cx="90.772" cy="72.93" r="9.35793" fill="#FF9894" stroke="#B2605D" stroke-width="4"/>
</svg>
