<svg width="119" height="120" viewBox="0 0 119 120" fill="none" xmlns="http://www.w3.org/2000/svg">
<path d="M12.75 0.5625C5.71094 0.5625 0 6.27344 0 13.3125V106.812C0 113.852 5.71094 119.562 12.75 119.562H106.25C113.289 119.562 119 113.852 119 106.812V13.3125C119 6.27344 113.289 0.5625 106.25 0.5625H12.75ZM39.015 35.9528C44.2308 35.9528 48.8649 37.7561 52.2774 40.4607C55.433 42.9714 56.911 45.4829 58.2003 47.737L49.1895 52.239C48.5448 50.7608 47.7692 49.2144 45.7773 47.5423C43.5864 45.8019 41.4003 45.2887 39.5287 45.2887C32.1906 45.2887 28.3273 52.1134 28.3273 59.7087C28.3273 69.689 33.417 74.6421 39.5287 74.6421C45.4522 74.6421 47.8369 70.5223 49.3781 67.886L58.3313 72.4566C56.6538 75.0932 55.0444 77.6721 51.4383 80.178C49.5093 81.53 45.0694 84.1722 38.7584 84.1722C26.7182 84.1722 17 75.4183 17 60.028C17 46.5778 26.1415 35.9528 39.015 35.9528ZM59.0652 37.3678H71.1684L80.5667 69.6887L89.8968 37.368H102L86.2275 82.8197H74.6433L59.0652 37.3678Z" fill="#B2605D"/>
</svg>
