<svg width="119" height="119" viewBox="0 0 119 119" fill="none" xmlns="http://www.w3.org/2000/svg">
<g clip-path="url(#clip0_299_2)">
<path d="M107.844 0H11.1562C5.02031 0 0 5.02031 0 11.1562V107.844C0 113.98 5.02031 119 11.1562 119H107.844C113.98 119 119 113.98 119 107.844V11.1562C119 5.02031 113.98 0 107.844 0ZM44.625 96.6875H29.75V44.625H44.625V96.6875ZM37.1875 37.1875C35.215 37.1875 33.3232 36.4039 31.9284 35.0091C30.5336 33.6143 29.75 31.7225 29.75 29.75C29.75 27.7775 30.5336 25.8857 31.9284 24.4909C33.3232 23.0961 35.215 22.3125 37.1875 22.3125C39.16 22.3125 41.0518 23.0961 42.4466 24.4909C43.8414 25.8857 44.625 27.7775 44.625 29.75C44.625 31.7225 43.8414 33.6143 42.4466 35.0091C41.0518 36.4039 39.16 37.1875 37.1875 37.1875ZM96.6875 96.6875H81.8125V66.9375C81.8125 64.965 81.0289 63.0732 79.6341 61.6784C78.2393 60.2836 76.3475 59.5 74.375 59.5C72.4025 59.5 70.5107 60.2836 69.1159 61.6784C67.7211 63.0732 66.9375 64.965 66.9375 66.9375V96.6875H52.0625V44.625H66.9375V53.8549C70.0018 49.6453 74.7023 44.625 79.9531 44.625C89.2054 44.625 96.6875 52.9476 96.6875 63.2188V96.6875Z" fill="#B2605D"/>
</g>
<defs>
<clipPath id="clip0_299_2">
<rect width="119" height="119" fill="white"/>
</clipPath>
</defs>
</svg>
