<svg width="149" height="119" viewBox="0 0 149 119" fill="none" xmlns="http://www.w3.org/2000/svg">
<path d="M0 14.875C0 10.9299 1.56718 7.14639 4.35679 4.35679C7.14639 1.56718 10.9299 0 14.875 0H133.875C137.82 0 141.604 1.56718 144.393 4.35679C147.183 7.14639 148.75 10.9299 148.75 14.875V104.125C148.75 108.07 147.183 111.854 144.393 114.643C141.604 117.433 137.82 119 133.875 119H14.875C10.9299 119 7.14639 117.433 4.35679 114.643C1.56718 111.854 0 108.07 0 104.125V14.875ZM26.1726 14.875L74.375 57.0531L122.577 14.875H26.1726ZM133.875 24.7594L79.2763 72.5379C77.92 73.7263 76.1782 74.3814 74.375 74.3814C72.5718 74.3814 70.83 73.7263 69.4737 72.5379L14.875 24.7594V104.125H133.875V24.7594Z" fill="#B2605D"/>
</svg>
