<svg width="412" height="122" viewBox="0 0 412 122" fill="none" xmlns="http://www.w3.org/2000/svg">
<path d="M45.248 61.456C46.016 62.1387 46.4 62.992 46.4 64.016C46.4 64.6987 46.2293 65.2747 45.888 65.744C43.6693 68.8587 40.9173 71.2693 37.632 72.976C34.3467 74.6827 30.8693 75.536 27.2 75.536C24 75.536 20.992 74.9173 18.176 73.68C15.36 72.4 12.8853 70.6507 10.752 68.432C8.61867 66.1707 6.93333 63.568 5.696 60.624C4.50133 57.68 3.904 54.5227 3.904 51.152C3.904 47.7813 4.50133 44.624 5.696 41.68C6.89067 38.736 8.55467 36.1547 10.688 33.936C12.8213 31.7173 15.296 29.9893 18.112 28.752C20.928 27.472 23.9573 26.832 27.2 26.832C33.2587 26.832 38.3573 28.816 42.496 32.784C44.8 34.8747 45.952 36.9227 45.952 38.928C45.952 40.1653 45.5253 41.2107 44.672 42.064C43.8187 42.9173 42.7947 43.344 41.6 43.344C40.32 43.344 39.2747 42.896 38.464 42C37.6533 41.104 37.248 40.1013 37.248 38.992C37.248 38.224 37.44 37.52 37.824 36.88C38.0373 36.5387 38.016 36.2613 37.76 36.048C35.2853 33.5733 31.7653 32.336 27.2 32.336C23.872 32.336 20.8853 33.168 18.24 34.832C15.5947 36.4533 13.504 38.6933 11.968 41.552C10.432 44.368 9.664 47.568 9.664 51.152C9.664 54.6933 10.432 57.872 11.968 60.688C13.504 63.4613 15.5947 65.6587 18.24 67.28C20.8853 68.9013 23.872 69.712 27.2 69.712C30.144 69.712 32.8747 69.0507 35.392 67.728C37.9093 66.4053 39.9573 64.5493 41.536 62.16C42.048 61.3067 42.7733 60.88 43.712 60.88C44.3093 60.88 44.8213 61.072 45.248 61.456ZM94.2805 69.776C95.1338 69.6907 95.8592 69.9467 96.4565 70.544C97.0965 71.0987 97.4165 71.8027 97.4165 72.656C97.4165 73.5093 97.0965 74.2133 96.4565 74.768C95.8592 75.3227 95.1338 75.5787 94.2805 75.536C94.1098 75.4933 93.4272 75.408 92.2325 75.28C91.0378 75.152 89.8858 75.088 88.7765 75.088C86.9418 75.088 85.5338 74.32 84.5525 72.784L73.9285 56.592C73.8005 56.336 73.5658 56.208 73.2245 56.208H65.5445C65.1605 56.208 64.9685 56.4 64.9685 56.784V69.52C64.9685 69.8613 65.1178 70.032 65.4165 70.032C65.9712 70.032 66.5045 70.0107 67.0165 69.968C67.5285 69.8827 68.0405 69.8187 68.5525 69.776C69.4058 69.6907 70.1312 69.9467 70.7285 70.544C71.3258 71.0987 71.6245 71.8027 71.6245 72.656C71.6245 73.5093 71.3258 74.2133 70.7285 74.768C70.1312 75.3227 69.4058 75.5787 68.5525 75.536C67.3578 75.408 66.2912 75.3013 65.3525 75.216C64.4565 75.1733 63.5818 75.152 62.7285 75.152C61.8752 75.152 61.0005 75.1733 60.1045 75.216C59.2085 75.3013 58.1418 75.408 56.9045 75.536C56.0512 75.5787 55.3045 75.3227 54.6645 74.768C54.0672 74.2133 53.7685 73.5093 53.7685 72.656C53.7685 71.8027 54.0458 71.12 54.6005 70.608C55.1552 70.0533 55.8378 69.776 56.6485 69.776C56.9472 69.776 57.2458 69.7973 57.5445 69.84C57.8858 69.8827 58.2485 69.9253 58.6325 69.968H58.7605C59.0592 69.968 59.2085 69.7973 59.2085 69.456V33.168C59.2085 32.7413 59.0165 32.5707 58.6325 32.656L57.0965 32.784C56.2432 32.912 55.4752 32.6987 54.7925 32.144C54.1098 31.5467 53.7685 30.8 53.7685 29.904C53.7685 28.9653 54.0885 28.2187 54.7285 27.664C55.4112 27.0667 56.2005 26.8107 57.0965 26.896C57.9498 27.024 58.8245 27.152 59.7205 27.28C60.6592 27.3653 61.5552 27.408 62.4085 27.408L74.1205 27.472C79.7098 27.5147 84.0618 28.7947 87.1765 31.312C90.3338 33.7867 91.9125 37.2853 91.9125 41.808C91.9125 45.3493 90.9312 48.3147 88.9685 50.704C87.0485 53.0507 84.3178 54.6507 80.7765 55.504C80.3072 55.5893 80.2005 55.824 80.4565 56.208L89.2885 69.776C89.4165 70.032 89.6725 70.16 90.0565 70.16C91.5498 70.0747 92.9578 69.9467 94.2805 69.776ZM74.8245 32.976H65.5445C65.1605 32.976 64.9685 33.168 64.9685 33.552V50C64.9685 50.384 65.1605 50.576 65.5445 50.576H74.8245C82.5472 50.576 86.4085 47.6533 86.4085 41.808C86.4085 35.92 82.5472 32.976 74.8245 32.976ZM116.88 69.776C117.733 69.6907 118.459 69.9467 119.056 70.544C119.696 71.0987 120.016 71.8027 120.016 72.656C120.016 73.5093 119.696 74.2133 119.056 74.768C118.459 75.3227 117.733 75.5787 116.88 75.536C115.685 75.408 114.576 75.3013 113.552 75.216C112.528 75.1733 111.525 75.152 110.544 75.152C108.837 75.152 106.853 75.28 104.592 75.536C103.739 75.5787 102.992 75.3227 102.352 74.768C101.755 74.2133 101.456 73.5093 101.456 72.656C101.456 71.8027 101.755 71.0987 102.352 70.544C102.992 69.9467 103.739 69.6907 104.592 69.776C105.019 69.8187 105.467 69.8613 105.936 69.904C106.405 69.9467 106.875 69.9893 107.344 70.032H107.472C107.771 70.032 107.92 69.8613 107.92 69.52V32.848C107.92 32.5067 107.771 32.336 107.472 32.336C106.96 32.336 106.469 32.3573 106 32.4C105.531 32.4427 105.061 32.5067 104.592 32.592C103.739 32.6347 102.992 32.3787 102.352 31.824C101.755 31.2693 101.456 30.5653 101.456 29.712C101.456 28.8587 101.755 28.1547 102.352 27.6C102.992 27.0027 103.739 26.7467 104.592 26.832C105.829 26.96 106.939 27.0667 107.92 27.152C108.944 27.1947 109.947 27.216 110.928 27.216C112.592 27.216 114.576 27.088 116.88 26.832C117.733 26.7467 118.459 27.0027 119.056 27.6C119.696 28.1547 120.016 28.8587 120.016 29.712C120.016 30.5653 119.696 31.2693 119.056 31.824C118.459 32.3787 117.733 32.6347 116.88 32.592C116.453 32.5067 116.027 32.464 115.6 32.464C115.173 32.4213 114.725 32.3787 114.256 32.336H114.128C113.829 32.336 113.68 32.5067 113.68 32.848V69.52C113.68 69.8613 113.851 70.032 114.192 70.032C114.619 70.032 115.067 70.0107 115.536 69.968C116.005 69.8827 116.453 69.8187 116.88 69.776ZM135.788 39.504C135.66 41.1253 136.001 42.448 136.812 43.472C137.665 44.4533 138.817 45.2853 140.268 45.968C141.761 46.6507 143.404 47.2693 145.196 47.824C146.988 48.3787 148.78 48.9973 150.572 49.68C152.364 50.32 154.007 51.152 155.5 52.176C157.036 53.1573 158.252 54.4373 159.148 56.016C160.087 57.552 160.556 59.5147 160.556 61.904C160.556 64.5067 159.852 66.832 158.444 68.88C157.079 70.928 155.18 72.5493 152.748 73.744C150.316 74.9387 147.564 75.536 144.492 75.536C140.652 75.536 137.452 74.8533 134.892 73.488C132.332 72.08 130.348 70.544 128.94 68.88C127.873 67.6427 127.34 66.32 127.34 64.912C127.34 63.7173 127.724 62.6933 128.492 61.84C129.26 60.9867 130.369 60.56 131.82 60.56C133.015 60.56 133.996 61.008 134.764 61.904C135.575 62.8 135.98 63.8027 135.98 64.912C135.98 65.4667 135.852 66.0427 135.596 66.64C135.468 66.9813 135.511 67.2373 135.724 67.408C136.833 68.2613 138.071 68.9013 139.436 69.328C140.844 69.7547 142.252 69.968 143.66 69.968C145.537 69.968 147.329 69.648 149.036 69.008C150.743 68.3253 152.129 67.3867 153.196 66.192C154.263 64.9547 154.796 63.5253 154.796 61.904C154.796 60.4533 154.348 59.2587 153.452 58.32C152.556 57.3387 151.361 56.528 149.868 55.888C148.417 55.2053 146.817 54.5867 145.068 54.032C143.319 53.4773 141.548 52.8587 139.756 52.176C138.007 51.4933 136.385 50.6613 134.892 49.68C133.441 48.656 132.268 47.3973 131.372 45.904C130.476 44.4107 130.028 42.5547 130.028 40.336C130.028 37.904 130.455 35.8347 131.308 34.128C132.204 32.3787 133.399 30.992 134.892 29.968C136.385 28.9013 138.049 28.1333 139.884 27.664C141.719 27.152 143.596 26.896 145.516 26.896C147.948 26.896 150.273 27.2373 152.492 27.92C154.711 28.6027 156.503 29.5413 157.868 30.736C159.276 31.9307 159.98 33.296 159.98 34.832C159.937 36.0267 159.489 37.0507 158.636 37.904C157.825 38.7573 156.823 39.184 155.628 39.184C154.433 39.184 153.409 38.7573 152.556 37.904C151.745 37.0507 151.34 36.0267 151.34 34.832C151.34 34.4053 151.361 34.1067 151.404 33.936C151.489 33.5947 151.468 33.4027 151.34 33.36C150.785 33.0613 149.953 32.8053 148.844 32.592C147.777 32.3787 146.625 32.272 145.388 32.272C143.98 32.272 142.551 32.4853 141.1 32.912C139.692 33.296 138.497 34.0213 137.516 35.088C136.535 36.112 135.959 37.584 135.788 39.504ZM205.844 38.288C205.929 39.0987 205.673 39.824 205.076 40.464C204.479 41.104 203.732 41.424 202.836 41.424C201.94 41.424 201.193 41.104 200.596 40.464C200.041 39.824 199.785 39.0987 199.828 38.288L200.148 33.616C200.148 33.232 199.977 33.04 199.636 33.04H190.292C189.908 33.04 189.716 33.232 189.716 33.616V69.52C189.716 69.8613 189.865 70.032 190.164 70.032C190.676 70.032 191.167 70.0107 191.636 69.968C192.148 69.8827 192.617 69.8187 193.044 69.776C193.897 69.6907 194.623 69.9467 195.22 70.544C195.817 71.0987 196.116 71.8027 196.116 72.656C196.116 73.4667 195.817 74.1493 195.22 74.704C194.623 75.2587 193.897 75.5147 193.044 75.472C191.807 75.344 190.825 75.2587 190.1 75.216C189.417 75.1733 188.841 75.1307 188.372 75.088C187.903 75.088 187.391 75.088 186.836 75.088C186.239 75.088 185.705 75.088 185.236 75.088C184.767 75.1307 184.191 75.1733 183.508 75.216C182.868 75.2587 181.929 75.344 180.692 75.472C179.881 75.5147 179.156 75.2587 178.516 74.704C177.919 74.1493 177.62 73.4667 177.62 72.656C177.62 71.8027 177.919 71.0987 178.516 70.544C179.156 69.9467 179.881 69.6907 180.692 69.776C181.119 69.8187 181.567 69.8613 182.036 69.904C182.505 69.9467 182.975 69.9893 183.444 70.032H183.572C183.871 70.032 184.02 69.8613 184.02 69.52V33.616C184.02 33.232 183.828 33.04 183.444 33.04H174.036C173.695 33.04 173.524 33.232 173.524 33.616L173.844 38.288C173.929 39.0987 173.673 39.824 173.076 40.464C172.479 41.104 171.732 41.424 170.836 41.424C169.94 41.424 169.193 41.104 168.596 40.464C168.041 39.824 167.785 39.0987 167.828 38.288C167.913 37.3067 167.999 36.24 168.084 35.088C168.169 33.936 168.233 32.784 168.276 31.632C168.361 30.4373 168.809 29.4347 169.62 28.624C170.473 27.8133 171.476 27.408 172.628 27.408H201.108C202.217 27.408 203.199 27.8133 204.052 28.624C204.905 29.4347 205.353 30.4373 205.396 31.632C205.481 32.784 205.567 33.936 205.652 35.088C205.737 36.24 205.801 37.3067 205.844 38.288ZM252.346 69.776C253.157 69.776 253.839 70.0533 254.394 70.608C254.949 71.12 255.226 71.8027 255.226 72.656C255.226 73.5093 254.906 74.2133 254.266 74.768C253.669 75.3227 252.943 75.5787 252.09 75.536C249.658 75.28 247.717 75.152 246.266 75.152C244.687 75.152 242.746 75.28 240.442 75.536C239.589 75.5787 238.863 75.3227 238.266 74.768C237.669 74.2133 237.37 73.5093 237.37 72.656C237.37 71.8027 237.626 71.12 238.138 70.608C238.693 70.0533 239.375 69.776 240.186 69.776C240.57 69.776 240.975 69.7973 241.402 69.84C241.871 69.8827 242.319 69.9467 242.746 70.032C243.258 70.032 243.407 69.8187 243.194 69.392L240.186 62.672C240.058 62.3733 239.845 62.224 239.546 62.224H217.402C217.146 62.224 216.933 62.3733 216.762 62.672L213.754 69.392C213.711 69.4773 213.69 69.5627 213.69 69.648C213.69 69.904 213.861 70.032 214.202 70.032C214.671 69.9467 215.119 69.8827 215.546 69.84C215.973 69.7973 216.378 69.776 216.762 69.776C217.573 69.776 218.234 70.0533 218.746 70.608C219.301 71.12 219.578 71.8027 219.578 72.656C219.578 73.5093 219.279 74.2133 218.682 74.768C218.085 75.3227 217.359 75.5787 216.506 75.536C214.031 75.28 212.09 75.152 210.682 75.152C209.061 75.152 207.119 75.28 204.858 75.536C204.005 75.5787 203.258 75.3227 202.618 74.768C202.021 74.2133 201.722 73.5093 201.722 72.656C201.722 71.8027 201.999 71.12 202.554 70.608C203.109 70.0533 203.791 69.776 204.602 69.776C205.029 69.776 205.434 69.7973 205.818 69.84C206.202 69.8827 206.586 69.9253 206.97 69.968H207.098C207.311 69.968 207.503 69.84 207.674 69.584L226.234 28.304C226.661 27.3227 227.407 26.832 228.474 26.832C229.498 26.832 230.223 27.3227 230.65 28.304L249.338 69.584C249.509 69.84 249.701 69.968 249.914 69.968C250.341 69.968 250.746 69.9467 251.13 69.904C251.557 69.8187 251.962 69.776 252.346 69.776ZM228.858 37.456C228.815 37.2 228.687 37.072 228.474 37.072C228.346 37.072 228.218 37.2 228.09 37.456L219.706 56.144C219.663 56.2293 219.642 56.3147 219.642 56.4C219.642 56.6987 219.813 56.848 220.154 56.848H236.794C237.306 56.848 237.455 56.6133 237.242 56.144L228.858 37.456ZM290.864 61.264C291.717 61.264 292.442 61.584 293.04 62.224C293.68 62.8213 293.978 63.5467 293.936 64.4C293.893 65.3387 293.829 66.3627 293.744 67.472C293.658 68.5387 293.573 69.6267 293.488 70.736C293.445 71.9307 292.997 72.9333 292.144 73.744C291.29 74.5547 290.288 74.96 289.136 74.96H269.68C268.57 75.0027 267.461 75.088 266.352 75.216C265.242 75.3867 264.197 75.472 263.216 75.472C262.362 75.472 261.637 75.1733 261.04 74.576C260.442 73.9787 260.144 73.2533 260.144 72.4C260.144 71.5467 260.442 70.8213 261.04 70.224C261.68 69.584 262.405 69.264 263.216 69.264C263.472 69.264 263.706 69.2853 263.92 69.328C264.176 69.3707 264.517 69.392 264.944 69.392H265.072C265.413 69.392 265.584 69.2213 265.584 68.88V32.912C265.584 32.5707 265.434 32.4 265.135 32.4C264.709 32.4 264.325 32.4427 263.984 32.528C263.685 32.5707 263.365 32.592 263.024 32.592C262.213 32.592 261.53 32.3147 260.976 31.76C260.421 31.2053 260.144 30.5227 260.144 29.712C260.144 28.8587 260.442 28.1547 261.04 27.6C261.68 27.0027 262.426 26.7467 263.28 26.832C264.517 26.96 265.584 27.0667 266.48 27.152C267.418 27.1947 268.293 27.216 269.104 27.216C269.957 27.216 270.832 27.1947 271.728 27.152C272.666 27.0667 273.733 26.96 274.928 26.832C275.781 26.7467 276.506 27.0027 277.104 27.6C277.701 28.1547 278 28.8587 278 29.712C278 30.5653 277.701 31.2693 277.104 31.824C276.506 32.3787 275.781 32.6347 274.928 32.592C274.458 32.5067 273.968 32.464 273.456 32.464C272.944 32.4213 272.432 32.3787 271.92 32.336H271.792C271.493 32.336 271.344 32.5067 271.344 32.848V68.688C271.344 69.072 271.536 69.264 271.92 69.264H287.664C288.09 69.264 288.261 69.072 288.176 68.688C288.133 67.8773 288.069 67.088 287.984 66.32C287.898 65.552 287.856 64.848 287.856 64.208C287.856 63.3973 288.133 62.7147 288.688 62.16C289.285 61.5627 290.01 61.264 290.864 61.264ZM316.255 69.776C317.108 69.6907 317.834 69.9467 318.431 70.544C319.071 71.0987 319.391 71.8027 319.391 72.656C319.391 73.5093 319.071 74.2133 318.431 74.768C317.834 75.3227 317.108 75.5787 316.255 75.536C315.06 75.408 313.951 75.3013 312.927 75.216C311.903 75.1733 310.9 75.152 309.919 75.152C308.212 75.152 306.228 75.28 303.967 75.536C303.114 75.5787 302.367 75.3227 301.727 74.768C301.13 74.2133 300.831 73.5093 300.831 72.656C300.831 71.8027 301.13 71.0987 301.727 70.544C302.367 69.9467 303.114 69.6907 303.967 69.776C304.394 69.8187 304.842 69.8613 305.311 69.904C305.78 69.9467 306.25 69.9893 306.719 70.032H306.847C307.146 70.032 307.295 69.8613 307.295 69.52V32.848C307.295 32.5067 307.146 32.336 306.847 32.336C306.335 32.336 305.844 32.3573 305.375 32.4C304.906 32.4427 304.436 32.5067 303.967 32.592C303.114 32.6347 302.367 32.3787 301.727 31.824C301.13 31.2693 300.831 30.5653 300.831 29.712C300.831 28.8587 301.13 28.1547 301.727 27.6C302.367 27.0027 303.114 26.7467 303.967 26.832C305.204 26.96 306.314 27.0667 307.295 27.152C308.319 27.1947 309.322 27.216 310.303 27.216C311.967 27.216 313.951 27.088 316.255 26.832C317.108 26.7467 317.834 27.0027 318.431 27.6C319.071 28.1547 319.391 28.8587 319.391 29.712C319.391 30.5653 319.071 31.2693 318.431 31.824C317.834 32.3787 317.108 32.6347 316.255 32.592C315.828 32.5067 315.402 32.464 314.975 32.464C314.548 32.4213 314.1 32.3787 313.631 32.336H313.503C313.204 32.336 313.055 32.5067 313.055 32.848V69.52C313.055 69.8613 313.226 70.032 313.567 70.032C313.994 70.032 314.442 70.0107 314.911 69.968C315.38 69.8827 315.828 69.8187 316.255 69.776ZM360.123 74.96H329.787C328.976 74.96 328.23 74.704 327.547 74.192C326.864 73.7227 326.395 73.104 326.139 72.336C326.011 71.8667 325.947 71.376 325.947 70.864C325.947 69.6693 326.31 68.6027 327.035 67.664L354.811 33.744C354.896 33.6587 354.939 33.5307 354.939 33.36C354.939 33.1467 354.79 33.04 354.491 33.04H332.347C331.963 33.04 331.792 33.232 331.835 33.616C331.92 34.4267 331.984 35.2373 332.027 36.048C332.112 36.816 332.176 37.5627 332.219 38.288C332.304 39.0987 332.027 39.824 331.387 40.464C330.79 41.104 330.064 41.424 329.211 41.424C328.315 41.424 327.568 41.104 326.971 40.464C326.416 39.824 326.16 39.0987 326.203 38.288C326.288 37.3067 326.374 36.24 326.459 35.088C326.544 33.936 326.608 32.784 326.651 31.632C326.694 30.48 327.12 29.4987 327.931 28.688C328.784 27.8347 329.787 27.408 330.939 27.408H358.843C359.824 27.408 360.678 27.792 361.403 28.56C362.171 29.2853 362.555 30.224 362.555 31.376C362.555 32.4853 362.192 33.5093 361.467 34.448L333.499 68.624C333.414 68.7093 333.371 68.8373 333.371 69.008C333.371 69.2213 333.52 69.328 333.819 69.328H358.651C359.078 69.328 359.248 69.136 359.163 68.752C359.12 67.8987 359.056 67.088 358.971 66.32C358.928 65.5093 358.864 64.7627 358.779 64.08C358.736 63.2267 359.014 62.48 359.611 61.84C360.208 61.2 360.955 60.88 361.851 60.88C362.704 60.88 363.43 61.2 364.027 61.84C364.624 62.48 364.902 63.2267 364.859 64.08C364.816 65.0613 364.731 66.128 364.603 67.28C364.518 68.3893 364.432 69.5413 364.347 70.736C364.304 71.888 363.878 72.8907 363.067 73.744C362.256 74.5547 361.275 74.96 360.123 74.96ZM403.97 62.224C404.866 62.224 405.612 62.544 406.21 63.184C406.807 63.7813 407.063 64.5067 406.978 65.36L406.594 70.736C406.551 71.9307 406.103 72.9333 405.25 73.744C404.396 74.5547 403.394 74.96 402.242 74.96H379.586C378.818 74.96 378.007 75.024 377.154 75.152C376.343 75.28 375.554 75.3867 374.786 75.472C373.89 75.6 373.1 75.3653 372.418 74.768C371.735 74.1707 371.394 73.4027 371.394 72.464C371.394 71.5253 371.735 70.7787 372.418 70.224C373.1 69.6267 373.89 69.392 374.786 69.52C374.914 69.5627 375.063 69.584 375.234 69.584C375.404 69.584 375.596 69.6053 375.81 69.648H375.938C376.279 69.648 376.45 69.4773 376.45 69.136V33.168C376.45 32.784 376.279 32.592 375.938 32.592C375.767 32.592 375.575 32.6347 375.362 32.72C375.191 32.7627 374.999 32.8053 374.786 32.848C373.89 32.976 373.1 32.7627 372.418 32.208C371.735 31.6107 371.394 30.8427 371.394 29.904C371.394 28.9653 371.735 28.1973 372.418 27.6C373.1 27.0027 373.89 26.768 374.786 26.896C375.639 26.9813 376.514 27.088 377.41 27.216C378.306 27.344 379.159 27.408 379.97 27.408H402.242C403.394 27.408 404.396 27.8133 405.25 28.624C406.103 29.4347 406.551 30.4373 406.594 31.632L406.978 37.008C407.063 37.8187 406.807 38.544 406.21 39.184C405.612 39.824 404.866 40.144 403.97 40.144C403.116 40.144 402.391 39.8667 401.794 39.312C401.239 38.7147 400.962 38.0107 400.962 37.2C400.962 36.688 400.983 36.1333 401.026 35.536C401.111 34.896 401.175 34.2773 401.218 33.68C401.218 33.296 401.026 33.104 400.642 33.104H382.786C382.402 33.104 382.21 33.296 382.21 33.68V46.864C382.21 47.248 382.402 47.44 382.786 47.44H398.466C399.234 47.44 399.895 47.7173 400.45 48.272C401.004 48.8267 401.282 49.488 401.282 50.256C401.282 51.024 401.004 51.6853 400.45 52.24C399.895 52.752 399.234 53.008 398.466 53.008H382.786C382.402 53.008 382.21 53.2 382.21 53.584V68.688C382.21 69.072 382.402 69.264 382.786 69.264H400.642C401.026 69.264 401.218 69.072 401.218 68.688C401.175 68.048 401.111 67.4507 401.026 66.896C400.983 66.2987 400.962 65.7227 400.962 65.168C400.962 64.3573 401.239 63.6747 401.794 63.12C402.391 62.5227 403.116 62.224 403.97 62.224Z" fill="white"/>
<path d="M8.94 108.62C8.87333 108.647 8.84 108.68 8.84 108.72C8.84 108.747 8.88 108.773 8.96 108.8C10.5067 109.36 11.28 110.5 11.28 112.22C11.28 113.033 11.0467 113.76 10.58 114.4C10.1267 115.04 9.5 115.547 8.7 115.92C7.91333 116.28 7.02 116.46 6.02 116.46C4.72667 116.46 3.63333 116.16 2.74 115.56C1.84667 114.947 1.26667 114.107 1 113.04C0.96 112.893 0.933333 112.76 0.92 112.64C0.906667 112.507 0.9 112.373 0.9 112.24C0.9 111.733 1.02667 111.313 1.28 110.98C1.54667 110.647 1.90667 110.48 2.36 110.48C2.78667 110.48 3.11333 110.62 3.34 110.9C3.58 111.18 3.7 111.493 3.7 111.84C3.7 112.08 3.64 112.313 3.52 112.54C3.41333 112.753 3.23333 112.92 2.98 113.04C2.87333 113.08 2.84 113.153 2.88 113.26C3.29333 114.3 4.34 114.82 6.02 114.82C6.38 114.82 6.76 114.773 7.16 114.68C7.57333 114.573 7.96 114.42 8.32 114.22C8.68 114.007 8.97333 113.747 9.2 113.44C9.42667 113.12 9.54 112.747 9.54 112.32C9.54 112.013 9.50667 111.713 9.44 111.42C9.37333 111.113 9.22 110.833 8.98 110.58C8.74 110.313 8.35333 110.093 7.82 109.92C7.3 109.747 6.58 109.64 5.66 109.6C5.44667 109.587 5.26 109.507 5.1 109.36C4.95333 109.2 4.88 109.013 4.88 108.8C4.88 108.587 4.96 108.407 5.12 108.26C5.28 108.1 5.46667 108.013 5.68 108C8.12 107.88 9.34 107.027 9.34 105.44C9.34 105.04 9.22 104.647 8.98 104.26C8.74 103.873 8.38667 103.553 7.92 103.3C7.45333 103.047 6.88 102.92 6.2 102.92C4.69333 102.92 3.68 103.413 3.16 104.4C3.14667 104.427 3.14 104.453 3.14 104.48C3.14 104.547 3.17333 104.6 3.24 104.64C3.44 104.773 3.58667 104.94 3.68 105.14C3.78667 105.34 3.84 105.547 3.84 105.76C3.84 106.093 3.72 106.407 3.48 106.7C3.25333 106.98 2.92667 107.12 2.5 107.12C2.06 107.12 1.70667 106.96 1.44 106.64C1.18667 106.32 1.06 105.913 1.06 105.42C1.06 105.313 1.06667 105.2 1.08 105.08C1.09333 104.947 1.12 104.813 1.16 104.68C1.46667 103.64 2.06667 102.813 2.96 102.2C3.86667 101.587 4.94667 101.28 6.2 101.28C7.02667 101.28 7.74667 101.413 8.36 101.68C8.97333 101.933 9.48 102.273 9.88 102.7C10.2933 103.127 10.6 103.58 10.8 104.06C11 104.54 11.1 105 11.1 105.44C11.1 106.133 10.9067 106.76 10.52 107.32C10.1333 107.88 9.60667 108.313 8.94 108.62ZM24.0833 114.7C24.3099 114.7 24.5033 114.787 24.6633 114.96C24.8366 115.12 24.9233 115.327 24.9233 115.58C24.9233 115.847 24.8233 116.067 24.6233 116.24C24.4366 116.427 24.2099 116.493 23.9433 116.44C23.4233 116.347 23.0299 116.3 22.7633 116.3C22.4966 116.3 22.2499 116.22 22.0233 116.06C21.8099 115.913 21.6499 115.72 21.5433 115.48C21.5033 115.36 21.4299 115.34 21.3233 115.42C20.9366 115.753 20.5099 116.007 20.0433 116.18C19.5899 116.367 19.1099 116.46 18.6033 116.46C17.7766 116.46 17.0433 116.3 16.4033 115.98C15.7633 115.66 15.2233 115.24 14.7833 114.72C14.3433 114.2 14.0099 113.62 13.7833 112.98C13.5566 112.34 13.4433 111.7 13.4433 111.06C13.4433 110.433 13.5433 109.807 13.7433 109.18C13.9433 108.54 14.2433 107.953 14.6433 107.42C15.0566 106.887 15.5766 106.46 16.2033 106.14C16.8299 105.82 17.5633 105.66 18.4033 105.66C18.9499 105.66 19.4633 105.773 19.9433 106C20.4233 106.227 20.8499 106.52 21.2233 106.88C21.2633 106.92 21.3033 106.94 21.3433 106.94C21.4099 106.94 21.4433 106.887 21.4433 106.78V102.88C21.4433 102.773 21.3966 102.72 21.3033 102.72C21.1699 102.72 21.0366 102.733 20.9033 102.76C20.7833 102.773 20.6499 102.78 20.5033 102.78C20.2899 102.78 20.1033 102.707 19.9433 102.56C19.7833 102.4 19.7033 102.207 19.7033 101.98C19.7033 101.727 19.7899 101.52 19.9633 101.36C20.1366 101.2 20.3499 101.133 20.6033 101.16C20.7899 101.173 20.9899 101.193 21.2033 101.22C21.4299 101.233 21.6499 101.247 21.8633 101.26C22.2233 101.273 22.5299 101.407 22.7833 101.66C23.0499 101.913 23.1833 102.22 23.1833 102.58V114.66C23.1833 114.767 23.2366 114.82 23.3433 114.82C23.4766 114.82 23.5966 114.8 23.7033 114.76C23.8233 114.72 23.9499 114.7 24.0833 114.7ZM18.5833 114.76C19.7699 114.76 20.6966 114.327 21.3633 113.46C21.4166 113.393 21.4433 113.32 21.4433 113.24V108.88C21.4433 108.8 21.4166 108.727 21.3633 108.66C21.0033 108.26 20.5766 107.94 20.0833 107.7C19.5899 107.46 19.0833 107.34 18.5633 107.34C17.9233 107.34 17.3499 107.5 16.8433 107.82C16.3499 108.127 15.9566 108.56 15.6633 109.12C15.3833 109.68 15.2433 110.32 15.2433 111.04C15.2433 111.747 15.3899 112.38 15.6833 112.94C15.9766 113.5 16.3766 113.947 16.8833 114.28C17.3899 114.6 17.9566 114.76 18.5833 114.76ZM47.8873 114.68C48.1407 114.68 48.354 114.767 48.5273 114.94C48.7007 115.1 48.7873 115.313 48.7873 115.58C48.7873 115.847 48.6873 116.067 48.4873 116.24C48.3007 116.413 48.074 116.493 47.8073 116.48C47.434 116.44 47.1007 116.407 46.8073 116.38C46.5273 116.367 46.254 116.36 45.9873 116.36C45.734 116.36 45.4607 116.367 45.1673 116.38C44.8873 116.407 44.554 116.44 44.1673 116.48C43.9007 116.493 43.674 116.413 43.4873 116.24C43.3007 116.067 43.2073 115.847 43.2073 115.58C43.2073 115.313 43.3007 115.093 43.4873 114.92C43.674 114.733 43.9007 114.653 44.1673 114.68C44.314 114.693 44.4673 114.707 44.6273 114.72C44.8007 114.733 44.9673 114.747 45.1273 114.76H45.1673C45.2607 114.76 45.3073 114.707 45.3073 114.6V104.5C45.3073 104.407 45.2807 104.36 45.2273 104.36C45.174 104.347 45.134 104.38 45.1073 104.46L40.9873 113.98C40.894 114.193 40.754 114.367 40.5673 114.5C40.394 114.62 40.194 114.68 39.9673 114.68C39.754 114.68 39.5473 114.613 39.3473 114.48C39.1607 114.347 39.0273 114.18 38.9473 113.98L35.1473 104.44C35.134 104.36 35.1007 104.32 35.0473 104.32C34.9807 104.32 34.9473 104.373 34.9473 104.48V114.6C34.9473 114.707 34.994 114.76 35.0873 114.76C35.2607 114.76 35.4273 114.753 35.5873 114.74C35.7607 114.713 35.9273 114.693 36.0873 114.68C36.354 114.653 36.5807 114.733 36.7673 114.92C36.954 115.093 37.0473 115.313 37.0473 115.58C37.0473 115.847 36.954 116.067 36.7673 116.24C36.5807 116.413 36.354 116.493 36.0873 116.48C35.714 116.44 35.3807 116.407 35.0873 116.38C34.8073 116.367 34.534 116.36 34.2673 116.36C34.0007 116.36 33.7273 116.367 33.4473 116.38C33.1673 116.407 32.834 116.44 32.4473 116.48C32.1807 116.493 31.9473 116.413 31.7473 116.24C31.5607 116.067 31.4673 115.847 31.4673 115.58C31.4673 115.313 31.554 115.1 31.7273 114.94C31.9007 114.767 32.114 114.68 32.3673 114.68C32.5807 114.68 32.774 114.7 32.9473 114.74C33.0807 114.74 33.1473 114.68 33.1473 114.56V103.2C33.1473 103.08 33.0873 103.02 32.9673 103.02C32.8873 103.033 32.8007 103.047 32.7073 103.06C32.614 103.06 32.514 103.06 32.4073 103.06C32.154 103.06 31.9407 102.973 31.7673 102.8C31.594 102.627 31.5073 102.413 31.5073 102.16C31.5073 101.893 31.6073 101.673 31.8073 101.5C32.0073 101.327 32.2407 101.253 32.5073 101.28C32.9473 101.333 33.314 101.373 33.6073 101.4C33.9007 101.427 34.2007 101.44 34.5073 101.44C34.894 101.44 35.2407 101.547 35.5473 101.76C35.8673 101.973 36.094 102.26 36.2273 102.62L39.8873 111.96C39.9273 112.04 39.9673 112.08 40.0073 112.08C40.074 112.08 40.114 112.04 40.1273 111.96L44.0673 102.6C44.214 102.253 44.4473 101.973 44.7673 101.76C45.0873 101.547 45.434 101.44 45.8073 101.44C46.1273 101.44 46.4273 101.427 46.7073 101.4C46.9873 101.373 47.334 101.333 47.7473 101.28C48.014 101.253 48.2473 101.333 48.4473 101.52C48.6473 101.693 48.7473 101.913 48.7473 102.18C48.7473 102.433 48.6607 102.647 48.4873 102.82C48.314 102.98 48.1007 103.06 47.8473 103.06C47.754 103.06 47.6607 103.053 47.5673 103.04C47.4873 103.027 47.394 103.02 47.2873 103.02H47.2473C47.154 103.02 47.1073 103.073 47.1073 103.18V114.56C47.1073 114.68 47.174 114.74 47.3073 114.74C47.5073 114.7 47.7007 114.68 47.8873 114.68ZM56.3833 116.48C55.6233 116.48 54.9099 116.34 54.2433 116.06C53.5766 115.78 52.9899 115.393 52.4833 114.9C51.9766 114.407 51.5766 113.833 51.2833 113.18C51.0033 112.513 50.8633 111.807 50.8633 111.06C50.8633 110.313 51.0033 109.613 51.2833 108.96C51.5766 108.293 51.9766 107.713 52.4833 107.22C52.9899 106.727 53.5766 106.34 54.2433 106.06C54.9099 105.78 55.6233 105.64 56.3833 105.64C57.1433 105.64 57.8499 105.78 58.5033 106.06C59.1699 106.34 59.7566 106.733 60.2633 107.24C60.7699 107.733 61.1633 108.307 61.4433 108.96C61.7366 109.613 61.8833 110.313 61.8833 111.06C61.8833 111.807 61.7366 112.507 61.4433 113.16C61.1633 113.813 60.7699 114.393 60.2633 114.9C59.7566 115.393 59.1699 115.78 58.5033 116.06C57.8499 116.34 57.1433 116.48 56.3833 116.48ZM56.3833 114.82C57.0899 114.82 57.7299 114.653 58.3033 114.32C58.8766 113.987 59.3299 113.533 59.6633 112.96C59.9966 112.387 60.1633 111.753 60.1633 111.06C60.1633 110.367 59.9899 109.74 59.6433 109.18C59.3099 108.607 58.8566 108.153 58.2833 107.82C57.7233 107.473 57.0899 107.3 56.3833 107.3C55.6633 107.3 55.0166 107.467 54.4433 107.8C53.8699 108.133 53.4166 108.587 53.0833 109.16C52.7499 109.72 52.5833 110.353 52.5833 111.06C52.5833 111.753 52.7499 112.387 53.0833 112.96C53.4166 113.533 53.8699 113.987 54.4433 114.32C55.0299 114.653 55.6766 114.82 56.3833 114.82ZM74.6106 114.7C74.8373 114.7 75.0306 114.787 75.1906 114.96C75.364 115.12 75.4506 115.327 75.4506 115.58C75.4506 115.847 75.3506 116.067 75.1506 116.24C74.964 116.427 74.7373 116.493 74.4706 116.44C73.9506 116.347 73.5573 116.3 73.2906 116.3C73.024 116.3 72.7773 116.22 72.5506 116.06C72.3373 115.913 72.1773 115.72 72.0706 115.48C72.0306 115.36 71.9573 115.34 71.8506 115.42C71.464 115.753 71.0373 116.007 70.5706 116.18C70.1173 116.367 69.6373 116.46 69.1306 116.46C68.304 116.46 67.5706 116.3 66.9306 115.98C66.2906 115.66 65.7506 115.24 65.3106 114.72C64.8706 114.2 64.5373 113.62 64.3106 112.98C64.084 112.34 63.9706 111.7 63.9706 111.06C63.9706 110.433 64.0706 109.807 64.2706 109.18C64.4706 108.54 64.7706 107.953 65.1706 107.42C65.584 106.887 66.104 106.46 66.7306 106.14C67.3573 105.82 68.0906 105.66 68.9306 105.66C69.4773 105.66 69.9906 105.773 70.4706 106C70.9506 106.227 71.3773 106.52 71.7506 106.88C71.7906 106.92 71.8306 106.94 71.8706 106.94C71.9373 106.94 71.9706 106.887 71.9706 106.78V102.88C71.9706 102.773 71.924 102.72 71.8306 102.72C71.6973 102.72 71.564 102.733 71.4306 102.76C71.3106 102.773 71.1773 102.78 71.0306 102.78C70.8173 102.78 70.6306 102.707 70.4706 102.56C70.3106 102.4 70.2306 102.207 70.2306 101.98C70.2306 101.727 70.3173 101.52 70.4906 101.36C70.664 101.2 70.8773 101.133 71.1306 101.16C71.3173 101.173 71.5173 101.193 71.7306 101.22C71.9573 101.233 72.1773 101.247 72.3906 101.26C72.7506 101.273 73.0573 101.407 73.3106 101.66C73.5773 101.913 73.7106 102.22 73.7106 102.58V114.66C73.7106 114.767 73.764 114.82 73.8706 114.82C74.004 114.82 74.124 114.8 74.2306 114.76C74.3506 114.72 74.4773 114.7 74.6106 114.7ZM69.1106 114.76C70.2973 114.76 71.224 114.327 71.8906 113.46C71.944 113.393 71.9706 113.32 71.9706 113.24V108.88C71.9706 108.8 71.944 108.727 71.8906 108.66C71.5306 108.26 71.104 107.94 70.6106 107.7C70.1173 107.46 69.6106 107.34 69.0906 107.34C68.4506 107.34 67.8773 107.5 67.3706 107.82C66.8773 108.127 66.484 108.56 66.1906 109.12C65.9106 109.68 65.7706 110.32 65.7706 111.04C65.7706 111.747 65.9173 112.38 66.2106 112.94C66.504 113.5 66.904 113.947 67.4106 114.28C67.9173 114.6 68.484 114.76 69.1106 114.76ZM85.8347 111.84H78.9747C78.8414 111.84 78.788 111.907 78.8147 112.04C79.028 112.853 79.4547 113.52 80.0947 114.04C80.7347 114.547 81.468 114.8 82.2947 114.8C83.2814 114.8 84.1347 114.407 84.8547 113.62C85.0547 113.393 85.2947 113.28 85.5747 113.28C85.748 113.28 85.908 113.333 86.0547 113.44C86.308 113.613 86.4347 113.847 86.4347 114.14C86.4347 114.327 86.3747 114.493 86.2547 114.64C85.7614 115.213 85.168 115.66 84.4747 115.98C83.7814 116.3 83.0547 116.46 82.2947 116.46C81.5614 116.46 80.8747 116.32 80.2347 116.04C79.608 115.76 79.048 115.373 78.5547 114.88C78.0747 114.373 77.6947 113.793 77.4147 113.14C77.148 112.487 77.0147 111.793 77.0147 111.06C77.0147 110.047 77.2347 109.133 77.6747 108.32C78.128 107.493 78.7414 106.84 79.5147 106.36C80.288 105.88 81.148 105.64 82.0947 105.64C83.4814 105.64 84.6214 106.073 85.5147 106.94C86.408 107.807 86.9347 108.993 87.0947 110.5C87.1347 110.86 87.028 111.173 86.7747 111.44C86.5347 111.707 86.2214 111.84 85.8347 111.84ZM82.0947 107.22C81.2414 107.22 80.528 107.46 79.9547 107.94C79.3814 108.42 79.0014 109.093 78.8147 109.96V110C78.8147 110.107 78.868 110.16 78.9747 110.16H85.1147C85.248 110.16 85.3014 110.087 85.2747 109.94C84.9147 108.127 83.8547 107.22 82.0947 107.22ZM93.2669 114.84C93.4935 114.84 93.6869 114.92 93.8469 115.08C94.0069 115.227 94.0869 115.42 94.0869 115.66C94.0869 115.9 93.9935 116.1 93.8069 116.26C93.6335 116.42 93.4269 116.493 93.1869 116.48C92.7735 116.44 92.4402 116.407 92.1869 116.38C91.9469 116.367 91.7069 116.36 91.4669 116.36C91.1869 116.36 90.9269 116.367 90.6869 116.38C90.4469 116.407 90.1335 116.44 89.7469 116.48C89.5069 116.493 89.2935 116.42 89.1069 116.26C88.9335 116.1 88.8469 115.9 88.8469 115.66C88.8469 115.42 88.9269 115.227 89.0869 115.08C89.2469 114.92 89.4402 114.84 89.6669 114.84C89.7735 114.84 89.8869 114.847 90.0069 114.86C90.1402 114.873 90.2735 114.887 90.4069 114.9H90.4469C90.5402 114.9 90.5869 114.847 90.5869 114.74V102.88C90.5869 102.773 90.5402 102.72 90.4469 102.72C90.3135 102.72 90.1802 102.733 90.0469 102.76C89.9269 102.773 89.7935 102.78 89.6469 102.78C89.4335 102.78 89.2469 102.707 89.0869 102.56C88.9269 102.4 88.8469 102.207 88.8469 101.98C88.8469 101.727 88.9335 101.52 89.1069 101.36C89.2802 101.2 89.4935 101.133 89.7469 101.16C89.9469 101.173 90.1535 101.193 90.3669 101.22C90.5935 101.233 90.8135 101.247 91.0269 101.26C91.3869 101.273 91.6935 101.413 91.9469 101.68C92.2135 101.933 92.3469 102.233 92.3469 102.58V114.74C92.3469 114.847 92.4002 114.9 92.5069 114.9C92.6269 114.9 92.7535 114.893 92.8869 114.88C93.0202 114.853 93.1469 114.84 93.2669 114.84ZM98.5828 104.14C98.2228 104.14 97.9095 104.013 97.6428 103.76C97.3895 103.493 97.2628 103.18 97.2628 102.82C97.2628 102.447 97.3895 102.133 97.6428 101.88C97.9095 101.627 98.2228 101.5 98.5828 101.5C98.9428 101.5 99.2495 101.627 99.5028 101.88C99.7695 102.133 99.9028 102.447 99.9028 102.82C99.9028 103.18 99.7695 103.493 99.5028 103.76C99.2495 104.013 98.9428 104.14 98.5828 104.14ZM96.8628 116.48C96.5961 116.493 96.3628 116.413 96.1628 116.24C95.9761 116.067 95.8828 115.847 95.8828 115.58C95.8828 115.313 95.9761 115.093 96.1628 114.92C96.3628 114.733 96.5961 114.653 96.8628 114.68C97.0628 114.72 97.2828 114.74 97.5228 114.74H97.5628C97.6561 114.74 97.7028 114.687 97.7028 114.58V107.54C97.7028 107.433 97.6561 107.38 97.5628 107.38C97.3228 107.38 97.0895 107.4 96.8628 107.44C96.5961 107.453 96.3628 107.373 96.1628 107.2C95.9761 107.027 95.8828 106.807 95.8828 106.54C95.8828 106.273 95.9828 106.053 96.1828 105.88C96.3828 105.693 96.6095 105.613 96.8628 105.64C97.2228 105.667 97.4761 105.693 97.6228 105.72C97.7828 105.733 97.8895 105.74 97.9428 105.74C97.9961 105.74 98.0628 105.74 98.1428 105.74C98.5028 105.74 98.8095 105.873 99.0628 106.14C99.3295 106.393 99.4628 106.7 99.4628 107.06V114.58C99.4628 114.687 99.5095 114.74 99.6028 114.74C99.8561 114.74 100.089 114.72 100.303 114.68C100.569 114.653 100.796 114.733 100.983 114.92C101.169 115.093 101.263 115.313 101.263 115.58C101.263 115.847 101.169 116.067 100.983 116.24C100.796 116.413 100.569 116.493 100.303 116.48C100.036 116.453 99.7495 116.427 99.4428 116.4C99.1495 116.373 98.8628 116.36 98.5828 116.36C98.3028 116.36 98.0095 116.373 97.7028 116.4C97.4095 116.427 97.1295 116.453 96.8628 116.48ZM113.991 114.84C114.231 114.813 114.438 114.88 114.611 115.04C114.785 115.2 114.871 115.407 114.871 115.66C114.871 115.9 114.785 116.093 114.611 116.24C114.438 116.4 114.231 116.473 113.991 116.46C113.578 116.42 113.251 116.393 113.011 116.38C112.785 116.367 112.565 116.36 112.351 116.36C112.111 116.36 111.878 116.367 111.651 116.38C111.425 116.407 111.111 116.433 110.711 116.46C110.471 116.473 110.265 116.4 110.091 116.24C109.918 116.093 109.831 115.9 109.831 115.66C109.831 115.407 109.918 115.2 110.091 115.04C110.265 114.88 110.471 114.813 110.711 114.84L111.291 114.88H111.331C111.425 114.88 111.471 114.827 111.471 114.72V109.3C111.471 108.647 111.371 108.18 111.171 107.9C110.971 107.62 110.645 107.48 110.191 107.48C109.111 107.48 107.905 108.087 106.571 109.3C106.505 109.367 106.471 109.447 106.471 109.54V114.72C106.471 114.84 106.531 114.893 106.651 114.88L107.231 114.84C107.471 114.813 107.678 114.88 107.851 115.04C108.025 115.2 108.111 115.407 108.111 115.66C108.111 115.9 108.025 116.093 107.851 116.24C107.678 116.4 107.471 116.473 107.231 116.46C106.818 116.42 106.491 116.393 106.251 116.38C106.025 116.367 105.805 116.36 105.591 116.36C105.351 116.36 105.118 116.367 104.891 116.38C104.665 116.407 104.351 116.433 103.951 116.46C103.711 116.473 103.505 116.4 103.331 116.24C103.158 116.093 103.071 115.9 103.071 115.66C103.071 115.407 103.158 115.2 103.331 115.04C103.505 114.88 103.711 114.813 103.951 114.84L104.551 114.88C104.671 114.88 104.731 114.827 104.731 114.72V107.38C104.731 107.273 104.685 107.22 104.591 107.22C104.458 107.22 104.331 107.233 104.211 107.26C104.091 107.273 103.965 107.28 103.831 107.28C103.618 107.28 103.431 107.2 103.271 107.04C103.111 106.88 103.031 106.687 103.031 106.46C103.031 106.22 103.118 106.02 103.291 105.86C103.465 105.687 103.671 105.613 103.911 105.64C104.098 105.653 104.298 105.673 104.511 105.7C104.725 105.713 104.938 105.727 105.151 105.74C105.525 105.753 105.838 105.893 106.091 106.16C106.345 106.427 106.471 106.733 106.471 107.08V107.28C106.471 107.36 106.491 107.413 106.531 107.44C106.585 107.453 106.638 107.433 106.691 107.38C107.985 106.22 109.231 105.64 110.431 105.64C112.298 105.64 113.231 106.867 113.231 109.32V114.72C113.231 114.84 113.291 114.893 113.411 114.88L113.991 114.84ZM127.186 105.66C127.44 105.633 127.66 105.7 127.846 105.86C128.033 106.02 128.126 106.233 128.126 106.5C128.126 106.753 128.033 106.967 127.846 107.14C127.66 107.313 127.44 107.387 127.186 107.36L126.506 107.26H126.466C126.36 107.26 126.306 107.32 126.306 107.44V115.58C126.306 116.153 126.213 116.767 126.026 117.42C125.84 118.087 125.546 118.713 125.146 119.3C124.746 119.887 124.233 120.367 123.606 120.74C122.98 121.113 122.233 121.3 121.366 121.3C119.873 121.3 118.726 120.813 117.926 119.84C117.713 119.573 117.553 119.293 117.446 119C117.34 118.72 117.286 118.447 117.286 118.18C117.286 117.753 117.4 117.387 117.626 117.08C117.866 116.787 118.206 116.64 118.646 116.64C119.06 116.64 119.386 116.78 119.626 117.06C119.866 117.34 119.986 117.653 119.986 118C119.986 118.373 119.86 118.687 119.606 118.94C119.526 119.02 119.52 119.107 119.586 119.2C119.906 119.56 120.5 119.74 121.366 119.74C122.113 119.74 122.72 119.527 123.186 119.1C123.653 118.687 124 118.16 124.226 117.52C124.453 116.88 124.566 116.233 124.566 115.58V115.38C124.566 115.313 124.546 115.267 124.506 115.24C124.466 115.213 124.413 115.227 124.346 115.28C123.586 115.96 122.713 116.3 121.726 116.3C120.873 116.3 120.12 116.147 119.466 115.84C118.826 115.52 118.286 115.1 117.846 114.58C117.42 114.06 117.1 113.487 116.886 112.86C116.673 112.233 116.566 111.607 116.566 110.98C116.566 110.367 116.666 109.747 116.866 109.12C117.066 108.493 117.373 107.92 117.786 107.4C118.2 106.88 118.713 106.46 119.326 106.14C119.953 105.82 120.686 105.66 121.526 105.66C122.073 105.66 122.58 105.747 123.046 105.92C123.526 106.093 123.96 106.333 124.346 106.64C124.413 106.693 124.466 106.72 124.506 106.72C124.546 106.72 124.566 106.7 124.566 106.66C124.566 106.42 124.653 106.213 124.826 106.04C125 105.867 125.206 105.78 125.446 105.78H126.186C126.226 105.78 126.32 105.773 126.466 105.76C126.613 105.733 126.76 105.713 126.906 105.7C127.053 105.673 127.146 105.66 127.186 105.66ZM121.706 114.6C122.293 114.6 122.82 114.493 123.286 114.28C123.766 114.053 124.166 113.74 124.486 113.34C124.54 113.273 124.566 113.2 124.566 113.12V108.74C124.566 108.66 124.54 108.587 124.486 108.52C123.753 107.72 122.82 107.32 121.686 107.32C121.033 107.32 120.453 107.48 119.946 107.8C119.453 108.107 119.066 108.533 118.786 109.08C118.506 109.627 118.366 110.253 118.366 110.96C118.366 111.653 118.513 112.273 118.806 112.82C119.1 113.367 119.5 113.8 120.006 114.12C120.513 114.44 121.08 114.6 121.706 114.6Z" fill="white"/>
</svg>
