<svg width="1362" height="349" viewBox="0 0 1362 349" fill="none" xmlns="http://www.w3.org/2000/svg">
<path d="M92.8 140.32C94.2507 140.149 95.488 140.576 96.512 141.6C97.536 142.624 98.048 143.861 98.048 145.312C98.048 146.763 97.536 147.957 96.512 148.896C95.488 149.92 94.2507 150.389 92.8 150.304C90.4107 150.048 88.2347 149.835 86.272 149.664C84.3093 149.579 82.3893 149.536 80.512 149.536C78.8053 149.536 77.0133 149.579 75.136 149.664C73.344 149.835 71.3387 150.048 69.12 150.304C67.7547 150.389 66.5173 149.92 65.408 148.896C64.384 147.957 63.872 146.763 63.872 145.312C63.872 143.861 64.384 142.624 65.408 141.6C66.5173 140.576 67.7547 140.149 69.12 140.32C70.2293 140.405 71.3813 140.491 72.576 140.576C73.7707 140.661 74.9653 140.789 76.16 140.96C76.928 140.96 77.312 140.576 77.312 139.808V106.528C77.312 105.76 76.928 105.376 76.16 105.376H28.8C28.032 105.376 27.648 105.76 27.648 106.528V139.808C27.648 140.576 28.032 140.96 28.8 140.96C29.9947 140.789 31.1893 140.661 32.384 140.576C33.5787 140.491 34.7307 140.405 35.84 140.32C37.2907 140.149 38.528 140.576 39.552 141.6C40.576 142.624 41.088 143.861 41.088 145.312C41.088 146.763 40.576 147.957 39.552 148.896C38.528 149.92 37.2907 150.389 35.84 150.304C33.4507 150.048 31.2747 149.835 29.312 149.664C27.3493 149.579 25.4293 149.536 23.552 149.536C21.8453 149.536 20.0533 149.579 18.176 149.664C16.384 149.835 14.3787 150.048 12.16 150.304C10.7947 150.389 9.55733 149.92 8.448 148.896C7.424 147.957 6.912 146.763 6.912 145.312C6.912 143.861 7.424 142.624 8.448 141.6C9.55733 140.576 10.7947 140.149 12.16 140.32C13.6107 140.576 15.104 140.704 16.64 140.704H16.896C17.4933 140.704 17.792 140.363 17.792 139.68V65.056C17.792 64.2027 17.408 63.8613 16.64 64.032C15.104 64.032 13.6107 64.16 12.16 64.416C10.7947 64.5013 9.55733 64.0747 8.448 63.136C7.424 62.112 6.912 60.8747 6.912 59.424C6.912 57.9733 7.424 56.736 8.448 55.712C9.55733 54.688 10.7947 54.2613 12.16 54.432C14.6347 54.688 16.8107 54.9013 18.688 55.072C20.6507 55.1573 22.5707 55.2 24.448 55.2C26.1547 55.2 27.904 55.1573 29.696 55.072C31.5733 54.9013 33.6213 54.688 35.84 54.432C37.2907 54.2613 38.528 54.688 39.552 55.712C40.576 56.736 41.088 57.9733 41.088 59.424C41.088 60.8747 40.576 62.112 39.552 63.136C38.528 64.0747 37.2907 64.5013 35.84 64.416C34.7307 64.2453 33.5787 64.1173 32.384 64.032C31.1893 63.9467 29.9947 63.8613 28.8 63.776C28.032 63.776 27.648 64.16 27.648 64.928V94.496C27.648 95.264 28.032 95.648 28.8 95.648H76.16C76.928 95.648 77.312 95.264 77.312 94.496V64.928C77.312 64.16 76.928 63.776 76.16 63.776C74.9653 63.8613 73.7707 63.9467 72.576 64.032C71.3813 64.1173 70.2293 64.2453 69.12 64.416C67.7547 64.5013 66.5173 64.0747 65.408 63.136C64.384 62.112 63.872 60.8747 63.872 59.424C63.872 57.9733 64.384 56.736 65.408 55.712C66.5173 54.688 67.7547 54.2613 69.12 54.432C71.5947 54.688 73.7707 54.9013 75.648 55.072C77.6107 55.1573 79.5307 55.2 81.408 55.2C83.1147 55.2 84.864 55.1573 86.656 55.072C88.5333 54.9013 90.5813 54.688 92.8 54.432C94.2507 54.2613 95.488 54.688 96.512 55.712C97.536 56.736 98.048 57.9733 98.048 59.424C98.048 60.8747 97.536 62.112 96.512 63.136C95.488 64.0747 94.2507 64.5013 92.8 64.416C91.4347 64.16 89.9413 64.032 88.32 64.032H88.064C87.4667 64.032 87.168 64.3733 87.168 65.056V139.68C87.168 140.363 87.5093 140.704 88.192 140.704C89.728 140.704 91.264 140.576 92.8 140.32ZM169.768 140.448C171.048 140.448 172.115 140.96 172.968 141.984C173.907 142.923 174.376 144.032 174.376 145.312C174.376 146.848 173.821 148.085 172.712 149.024C171.603 150.048 170.323 150.432 168.872 150.176C167.763 149.92 166.568 149.707 165.288 149.536C164.008 149.365 162.728 149.237 161.448 149.152C159.741 149.152 158.205 148.64 156.84 147.616C155.475 146.592 154.536 145.269 154.024 143.648C153.768 142.88 153.341 142.752 152.744 143.264C149.843 145.483 146.685 147.189 143.272 148.384C139.859 149.579 135.805 150.176 131.112 150.176C125.48 150.176 120.787 148.555 117.032 145.312C113.277 141.984 111.4 137.675 111.4 132.384C111.4 126.325 113.533 121.376 117.8 117.536C122.067 113.696 127.699 111.776 134.696 111.776C137.341 111.776 140.157 112.075 143.144 112.672C146.131 113.269 149.203 114.208 152.36 115.488C152.445 115.488 152.531 115.531 152.616 115.616C152.701 115.616 152.787 115.616 152.872 115.616C153.469 115.616 153.768 115.275 153.768 114.592V109.472C153.768 103.413 152.147 98.8907 148.904 95.904C145.747 92.9173 142.035 91.424 137.768 91.424C134.952 91.424 132.051 92.064 129.064 93.344C128.467 93.6853 128.253 94.1973 128.424 94.88C128.68 95.648 128.808 96.3733 128.808 97.056C128.808 98.9333 128.125 100.64 126.76 102.176C125.48 103.712 123.731 104.48 121.512 104.48C119.208 104.48 117.373 103.712 116.008 102.176C114.728 100.555 114.088 98.72 114.088 96.672C114.088 94.5387 114.856 92.576 116.392 90.784C118.696 88.1387 121.555 86.0907 124.968 84.64C128.467 83.1893 132.179 82.464 136.104 82.464C142.76 82.464 148.051 83.7013 151.976 86.176C155.987 88.6507 158.845 91.936 160.552 96.032C162.344 100.128 163.24 104.608 163.24 109.472V140.32C163.24 141.003 163.581 141.344 164.264 141.344C165.203 141.344 166.141 141.216 167.08 140.96C168.019 140.619 168.915 140.448 169.768 140.448ZM131.112 140.96C136.061 140.789 140.2 139.979 143.528 138.528C146.856 137.077 150.099 134.731 153.256 131.488C153.597 131.061 153.768 130.592 153.768 130.08V126.496C153.768 125.899 153.512 125.472 153 125.216C151.208 124.192 148.947 123.168 146.216 122.144C143.485 121.12 139.816 120.608 135.208 120.608C129.917 120.608 126.12 121.803 123.816 124.192C121.597 126.581 120.488 129.312 120.488 132.384C120.488 134.432 121.043 136.096 122.152 137.376C123.261 138.571 124.627 139.467 126.248 140.064C127.955 140.661 129.576 140.96 131.112 140.96ZM242.244 86.816C242.756 87.9253 243.012 88.992 243.012 90.016C243.012 91.9787 242.287 93.6427 240.836 95.008C239.385 96.3733 237.679 97.056 235.716 97.056C234.265 97.056 232.943 96.672 231.748 95.904C230.639 95.0507 229.743 94.0267 229.06 92.832C228.804 92.2347 228.335 91.936 227.652 91.936C224.58 92.192 221.636 93.472 218.82 95.776C216.089 97.9947 213.657 100.811 211.524 104.224C209.391 107.637 207.684 111.307 206.404 115.232C206.233 115.573 206.148 116.043 206.148 116.64V140.704C206.148 141.387 206.447 141.728 207.044 141.728C208.068 141.728 209.049 141.685 209.988 141.6C211.012 141.429 212.036 141.344 213.06 141.344C214.255 141.344 215.279 141.771 216.132 142.624C216.985 143.477 217.412 144.544 217.412 145.824C217.412 147.104 216.943 148.171 216.004 149.024C215.065 149.963 213.913 150.389 212.548 150.304C209.903 150.048 207.769 149.835 206.148 149.664C204.527 149.579 202.948 149.536 201.412 149.536C199.62 149.536 197.913 149.579 196.292 149.664C194.756 149.835 192.751 150.048 190.276 150.304C188.911 150.389 187.759 149.963 186.82 149.024C185.881 148.171 185.412 147.104 185.412 145.824C185.412 144.544 185.839 143.477 186.692 142.624C187.545 141.771 188.569 141.344 189.764 141.344C190.617 141.344 191.513 141.387 192.452 141.472C193.476 141.557 194.457 141.643 195.396 141.728H195.652C196.249 141.728 196.548 141.387 196.548 140.704V93.088C196.548 92.4053 196.249 92.064 195.652 92.064C193.775 92.064 191.983 92.192 190.276 92.448C188.825 92.5333 187.545 92.1067 186.436 91.168C185.412 90.144 184.9 88.9067 184.9 87.456C184.9 86.0053 185.412 84.8107 186.436 83.872C187.545 82.848 188.825 82.4213 190.276 82.592C192.068 82.7627 193.433 82.8907 194.372 82.976C195.396 83.0613 196.377 83.104 197.316 83.104C198.34 83.104 199.705 83.104 201.412 83.104C202.777 83.104 203.887 83.5733 204.74 84.512C205.679 85.4507 206.148 86.56 206.148 87.84V95.264C206.148 95.776 206.276 96.1173 206.532 96.288C206.873 96.3733 207.215 96.2027 207.556 95.776C210.116 92.0213 213.145 88.9067 216.644 86.432C220.228 83.9573 224.409 82.4213 229.188 81.824C229.7 81.7387 230.212 81.696 230.724 81.696C231.236 81.6107 231.748 81.568 232.26 81.568C234.479 81.568 236.484 81.952 238.276 82.72C240.153 83.488 241.476 84.8533 242.244 86.816ZM318.74 140.448C320.02 140.448 321.087 140.917 321.94 141.856C322.879 142.795 323.348 143.947 323.348 145.312C323.348 146.763 322.793 147.957 321.684 148.896C320.66 149.92 319.423 150.304 317.972 150.048C314.644 149.451 312.084 149.152 310.292 149.152C308.5 149.152 306.921 148.597 305.556 147.488C304.191 146.293 303.295 144.885 302.868 143.264C302.612 142.411 302.185 142.283 301.588 142.88C299.199 145.099 296.468 146.848 293.396 148.128C290.409 149.493 287.167 150.176 283.668 150.176C278.463 150.176 273.855 149.195 269.844 147.232C265.833 145.269 262.463 142.667 259.732 139.424C257.001 136.096 254.911 132.427 253.46 128.416C252.095 124.405 251.412 120.395 251.412 116.384C251.412 112.459 252.009 108.533 253.204 104.608C254.484 100.597 256.404 96.928 258.964 93.6C261.524 90.272 264.724 87.6267 268.564 85.664C272.489 83.616 277.097 82.592 282.388 82.592C286.143 82.592 289.599 83.4453 292.756 85.152C295.999 86.7733 298.815 88.864 301.204 91.424C301.46 91.68 301.716 91.808 301.972 91.808C302.399 91.808 302.612 91.5093 302.612 90.912V63.264C302.612 62.5813 302.313 62.24 301.716 62.24C300.692 62.24 299.668 62.3253 298.644 62.496C297.705 62.5813 296.767 62.624 295.828 62.624C294.633 62.624 293.609 62.1973 292.756 61.344C291.903 60.4907 291.476 59.4667 291.476 58.272C291.476 56.9067 291.945 55.7973 292.884 54.944C293.823 54.0053 294.975 53.6213 296.34 53.792C297.535 53.8773 298.857 54.0053 300.308 54.176C301.759 54.2613 303.167 54.3467 304.532 54.432C306.665 54.5173 308.457 55.2853 309.908 56.736C311.444 58.1867 312.212 59.9787 312.212 62.112V140.32C312.212 141.003 312.553 141.344 313.236 141.344C314.175 141.344 315.113 141.216 316.052 140.96C316.991 140.619 317.887 140.448 318.74 140.448ZM283.54 140.832C287.807 140.832 291.476 140.021 294.548 138.4C297.705 136.693 300.223 134.56 302.1 132C302.441 131.573 302.612 131.104 302.612 130.592V102.176C302.612 101.664 302.441 101.195 302.1 100.768C299.711 98.0373 296.852 95.8613 293.524 94.24C290.281 92.6187 286.911 91.808 283.412 91.808C278.975 91.808 275.092 92.9173 271.764 95.136C268.521 97.2693 265.961 100.171 264.084 103.84C262.292 107.509 261.396 111.648 261.396 116.256C261.396 120.779 262.335 124.917 264.212 128.672C266.175 132.427 268.82 135.413 272.148 137.632C275.476 139.765 279.273 140.832 283.54 140.832ZM464.21 82.464C465.49 82.3787 466.599 82.8053 467.538 83.744C468.477 84.5973 468.946 85.664 468.946 86.944C468.946 88.3093 468.477 89.4187 467.538 90.272C466.599 91.1253 465.49 91.5093 464.21 91.424L460.37 91.168C459.602 91.168 459.133 91.4667 458.962 92.064L441.042 146.208C440.701 147.403 439.975 148.384 438.866 149.152C437.842 149.92 436.69 150.304 435.41 150.304C434.13 150.304 432.978 149.92 431.954 149.152C431.015 148.384 430.333 147.403 429.906 146.208L415.57 100C415.485 99.488 415.229 99.232 414.802 99.232C414.461 99.232 414.205 99.488 414.034 100L399.57 146.08C399.229 147.36 398.503 148.384 397.394 149.152C396.37 149.92 395.218 150.304 393.938 150.304C392.658 150.304 391.506 149.92 390.482 149.152C389.458 148.384 388.733 147.36 388.306 146.08L370.642 92.064C370.471 91.4667 370.002 91.168 369.234 91.168L365.65 91.424C364.37 91.5093 363.261 91.1253 362.322 90.272C361.383 89.4187 360.914 88.3093 360.914 86.944C360.914 85.664 361.383 84.5973 362.322 83.744C363.261 82.8053 364.37 82.3787 365.65 82.464C367.869 82.6347 369.789 82.8053 371.41 82.976C373.117 83.0613 374.738 83.104 376.274 83.104C377.81 83.104 379.389 83.0613 381.01 82.976C382.717 82.8053 384.679 82.6347 386.898 82.464C388.178 82.3787 389.287 82.8053 390.226 83.744C391.165 84.5973 391.634 85.664 391.634 86.944C391.634 88.224 391.207 89.2907 390.354 90.144C389.501 90.9973 388.477 91.424 387.282 91.424C386.258 91.424 385.191 91.3813 384.082 91.296C383.058 91.1253 381.991 90.9973 380.882 90.912C379.943 90.912 379.602 91.3387 379.858 92.192L393.426 134.176C393.597 134.688 393.853 134.944 394.194 134.944C394.535 134.944 394.791 134.645 394.962 134.048L408.53 88.608C408.957 87.1573 409.767 86.0053 410.962 85.152C412.157 84.2987 413.437 83.872 414.802 83.872C416.253 83.872 417.533 84.2987 418.642 85.152C419.837 86.0053 420.647 87.1573 421.074 88.608L434.642 134.048C434.813 134.645 435.069 134.944 435.41 134.944C435.837 134.944 436.093 134.688 436.178 134.176L449.746 92.32C449.746 92.2347 449.746 92.1493 449.746 92.064C449.831 91.9787 449.874 91.8933 449.874 91.808C449.874 91.296 449.575 91.04 448.978 91.04C447.869 91.04 446.759 91.1253 445.65 91.296C444.626 91.3813 443.602 91.424 442.578 91.424C441.383 91.424 440.359 90.9973 439.506 90.144C438.653 89.2907 438.226 88.224 438.226 86.944C438.226 85.664 438.695 84.5973 439.634 83.744C440.573 82.8053 441.682 82.3787 442.962 82.464C445.181 82.6347 447.101 82.8053 448.722 82.976C450.429 83.0613 452.05 83.104 453.586 83.104C455.122 83.104 456.743 83.0613 458.45 82.976C460.157 82.8053 462.077 82.6347 464.21 82.464ZM511.585 150.304C506.806 150.304 502.326 149.451 498.145 147.744C493.964 145.952 490.294 143.52 487.137 140.448C483.98 137.291 481.505 133.664 479.713 129.568C477.921 125.472 477.025 121.077 477.025 116.384C477.025 111.691 477.921 107.296 479.713 103.2C481.505 99.104 483.98 95.52 487.137 92.448C490.294 89.2907 493.964 86.8587 498.145 85.152C502.326 83.36 506.806 82.464 511.585 82.464C516.364 82.464 520.801 83.36 524.897 85.152C529.078 86.8587 532.748 89.2907 535.905 92.448C539.062 95.52 541.537 99.104 543.329 103.2C545.121 107.296 546.017 111.691 546.017 116.384C546.017 121.077 545.121 125.472 543.329 129.568C541.537 133.664 539.062 137.291 535.905 140.448C532.748 143.52 529.078 145.952 524.897 147.744C520.801 149.451 516.364 150.304 511.585 150.304ZM511.585 141.216C516.449 141.216 520.758 140.064 524.513 137.76C528.268 135.456 531.212 132.427 533.345 128.672C535.478 124.917 536.545 120.821 536.545 116.384C536.545 111.947 535.436 107.851 533.217 104.096C531.084 100.341 528.14 97.312 524.385 95.008C520.63 92.704 516.364 91.552 511.585 91.552C506.636 91.552 502.284 92.704 498.529 95.008C494.774 97.312 491.83 100.341 489.697 104.096C487.564 107.851 486.497 111.947 486.497 116.384C486.497 120.821 487.564 124.917 489.697 128.672C491.916 132.427 494.902 135.456 498.657 137.76C502.412 140.064 506.721 141.216 511.585 141.216ZM608.494 86.816C609.006 87.9253 609.262 88.992 609.262 90.016C609.262 91.9787 608.537 93.6427 607.086 95.008C605.635 96.3733 603.929 97.056 601.966 97.056C600.515 97.056 599.193 96.672 597.998 95.904C596.889 95.0507 595.993 94.0267 595.31 92.832C595.054 92.2347 594.585 91.936 593.902 91.936C590.83 92.192 587.886 93.472 585.07 95.776C582.339 97.9947 579.907 100.811 577.774 104.224C575.641 107.637 573.934 111.307 572.654 115.232C572.483 115.573 572.398 116.043 572.398 116.64V140.704C572.398 141.387 572.697 141.728 573.294 141.728C574.318 141.728 575.299 141.685 576.238 141.6C577.262 141.429 578.286 141.344 579.31 141.344C580.505 141.344 581.529 141.771 582.382 142.624C583.235 143.477 583.662 144.544 583.662 145.824C583.662 147.104 583.193 148.171 582.254 149.024C581.315 149.963 580.163 150.389 578.798 150.304C576.153 150.048 574.019 149.835 572.398 149.664C570.777 149.579 569.198 149.536 567.662 149.536C565.87 149.536 564.163 149.579 562.542 149.664C561.006 149.835 559.001 150.048 556.526 150.304C555.161 150.389 554.009 149.963 553.07 149.024C552.131 148.171 551.662 147.104 551.662 145.824C551.662 144.544 552.089 143.477 552.942 142.624C553.795 141.771 554.819 141.344 556.014 141.344C556.867 141.344 557.763 141.387 558.702 141.472C559.726 141.557 560.707 141.643 561.646 141.728H561.902C562.499 141.728 562.798 141.387 562.798 140.704V93.088C562.798 92.4053 562.499 92.064 561.902 92.064C560.025 92.064 558.233 92.192 556.526 92.448C555.075 92.5333 553.795 92.1067 552.686 91.168C551.662 90.144 551.15 88.9067 551.15 87.456C551.15 86.0053 551.662 84.8107 552.686 83.872C553.795 82.848 555.075 82.4213 556.526 82.592C558.318 82.7627 559.683 82.8907 560.622 82.976C561.646 83.0613 562.627 83.104 563.566 83.104C564.59 83.104 565.955 83.104 567.662 83.104C569.027 83.104 570.137 83.5733 570.99 84.512C571.929 85.4507 572.398 86.56 572.398 87.84V95.264C572.398 95.776 572.526 96.1173 572.782 96.288C573.123 96.3733 573.465 96.2027 573.806 95.776C576.366 92.0213 579.395 88.9067 582.894 86.432C586.478 83.9573 590.659 82.4213 595.438 81.824C595.95 81.7387 596.462 81.696 596.974 81.696C597.486 81.6107 597.998 81.568 598.51 81.568C600.729 81.568 602.734 81.952 604.526 82.72C606.403 83.488 607.726 84.8533 608.494 86.816ZM681.406 141.344C682.601 141.344 683.625 141.771 684.478 142.624C685.331 143.477 685.758 144.544 685.758 145.824C685.758 147.104 685.289 148.171 684.35 149.024C683.411 149.877 682.259 150.261 680.894 150.176C678.249 149.92 676.158 149.749 674.622 149.664C673.086 149.579 671.635 149.536 670.27 149.536C668.734 149.536 667.198 149.579 665.662 149.664C664.211 149.835 662.249 150.005 659.774 150.176C658.409 150.261 657.257 149.877 656.318 149.024C655.379 148.171 654.91 147.104 654.91 145.824C654.91 144.459 655.379 143.349 656.318 142.496C657.257 141.557 658.409 141.173 659.774 141.344H660.542C660.883 141.344 661.097 141.216 661.182 140.96C661.353 140.704 661.31 140.405 661.054 140.064L645.438 117.152C645.011 116.384 644.499 116.299 643.902 116.896L636.478 123.168C636.051 123.595 635.838 124.064 635.838 124.576V140.704C635.838 141.387 636.137 141.728 636.734 141.728C637.673 141.728 638.569 141.685 639.422 141.6C640.361 141.429 641.257 141.344 642.11 141.344C643.305 141.344 644.329 141.771 645.182 142.624C646.035 143.477 646.462 144.544 646.462 145.824C646.462 147.104 645.993 148.171 645.054 149.024C644.115 149.877 642.963 150.261 641.598 150.176C638.953 149.92 636.862 149.749 635.326 149.664C633.79 149.579 632.382 149.536 631.102 149.536C630.163 149.536 629.267 149.536 628.414 149.536C627.646 149.621 626.665 149.707 625.47 149.792C624.361 149.877 622.697 150.005 620.478 150.176C619.113 150.261 617.961 149.877 617.022 149.024C616.083 148.171 615.614 147.104 615.614 145.824C615.614 144.544 616.041 143.477 616.894 142.624C617.747 141.771 618.771 141.344 619.966 141.344C620.734 141.344 621.545 141.387 622.398 141.472C623.337 141.557 624.233 141.643 625.086 141.728H625.342C625.939 141.728 626.238 141.387 626.238 140.704V63.264C626.238 62.5813 625.939 62.24 625.342 62.24C624.403 62.24 623.507 62.3253 622.654 62.496C621.801 62.5813 620.905 62.624 619.966 62.624C618.771 62.624 617.747 62.1973 616.894 61.344C616.041 60.4907 615.614 59.4667 615.614 58.272C615.614 56.9067 616.083 55.7973 617.022 54.944C617.961 54.0053 619.113 53.6213 620.478 53.792C621.673 53.8773 622.91 54.0053 624.19 54.176C625.555 54.2613 626.878 54.3467 628.158 54.432C630.291 54.5173 632.083 55.2853 633.534 56.736C635.07 58.1867 635.838 59.9787 635.838 62.112V110.88C635.838 111.307 635.966 111.605 636.222 111.776C636.563 111.947 636.905 111.861 637.246 111.52L659.774 92.576C660.03 92.32 660.158 92.064 660.158 91.808C660.158 91.2107 659.817 90.9973 659.134 91.168L656.446 91.424C655.081 91.5093 653.929 91.1253 652.99 90.272C652.051 89.3333 651.582 88.224 651.582 86.944C651.582 85.664 652.051 84.5547 652.99 83.616C653.929 82.6773 655.081 82.2933 656.446 82.464C659.177 82.72 661.267 82.9333 662.718 83.104C664.254 83.1893 665.662 83.232 666.942 83.232C668.563 83.232 670.099 83.1893 671.55 83.104C673.001 82.9333 675.006 82.72 677.566 82.464C678.931 82.2933 680.083 82.6773 681.022 83.616C681.961 84.5547 682.43 85.664 682.43 86.944C682.43 88.1387 682.003 89.2053 681.15 90.144C680.297 90.9973 679.23 91.424 677.95 91.424C677.609 91.424 677.267 91.424 676.926 91.424C676.67 91.3387 676.371 91.296 676.03 91.296H675.518C675.091 91.296 674.75 91.424 674.494 91.68L652.99 109.856C652.393 110.453 652.307 111.008 652.734 111.52L673.086 141.088C673.513 141.6 673.982 141.856 674.494 141.856C675.689 141.771 676.841 141.685 677.95 141.6C679.145 141.429 680.297 141.344 681.406 141.344ZM785.143 140.448C786.423 140.448 787.49 140.96 788.343 141.984C789.282 142.923 789.751 144.032 789.751 145.312C789.751 146.848 789.196 148.085 788.087 149.024C786.978 150.048 785.698 150.432 784.247 150.176C783.138 149.92 781.943 149.707 780.663 149.536C779.383 149.365 778.103 149.237 776.823 149.152C775.116 149.152 773.58 148.64 772.215 147.616C770.85 146.592 769.911 145.269 769.399 143.648C769.143 142.88 768.716 142.752 768.119 143.264C765.218 145.483 762.06 147.189 758.647 148.384C755.234 149.579 751.18 150.176 746.487 150.176C740.855 150.176 736.162 148.555 732.407 145.312C728.652 141.984 726.775 137.675 726.775 132.384C726.775 126.325 728.908 121.376 733.175 117.536C737.442 113.696 743.074 111.776 750.071 111.776C752.716 111.776 755.532 112.075 758.519 112.672C761.506 113.269 764.578 114.208 767.735 115.488C767.82 115.488 767.906 115.531 767.991 115.616C768.076 115.616 768.162 115.616 768.247 115.616C768.844 115.616 769.143 115.275 769.143 114.592V109.472C769.143 103.413 767.522 98.8907 764.279 95.904C761.122 92.9173 757.41 91.424 753.143 91.424C750.327 91.424 747.426 92.064 744.439 93.344C743.842 93.6853 743.628 94.1973 743.799 94.88C744.055 95.648 744.183 96.3733 744.183 97.056C744.183 98.9333 743.5 100.64 742.135 102.176C740.855 103.712 739.106 104.48 736.887 104.48C734.583 104.48 732.748 103.712 731.383 102.176C730.103 100.555 729.463 98.72 729.463 96.672C729.463 94.5387 730.231 92.576 731.767 90.784C734.071 88.1387 736.93 86.0907 740.343 84.64C743.842 83.1893 747.554 82.464 751.479 82.464C758.135 82.464 763.426 83.7013 767.351 86.176C771.362 88.6507 774.22 91.936 775.927 96.032C777.719 100.128 778.615 104.608 778.615 109.472V140.32C778.615 141.003 778.956 141.344 779.639 141.344C780.578 141.344 781.516 141.216 782.455 140.96C783.394 140.619 784.29 140.448 785.143 140.448ZM746.487 140.96C751.436 140.789 755.575 139.979 758.903 138.528C762.231 137.077 765.474 134.731 768.631 131.488C768.972 131.061 769.143 130.592 769.143 130.08V126.496C769.143 125.899 768.887 125.472 768.375 125.216C766.583 124.192 764.322 123.168 761.591 122.144C758.86 121.12 755.191 120.608 750.583 120.608C745.292 120.608 741.495 121.803 739.191 124.192C736.972 126.581 735.863 129.312 735.863 132.384C735.863 134.432 736.418 136.096 737.527 137.376C738.636 138.571 740.002 139.467 741.623 140.064C743.33 140.661 744.951 140.96 746.487 140.96ZM870.163 141.344C871.358 141.344 872.382 141.771 873.235 142.624C874.088 143.477 874.515 144.544 874.515 145.824C874.515 147.104 874.046 148.171 873.107 149.024C872.168 149.877 871.059 150.261 869.779 150.176C867.134 149.92 865.043 149.749 863.507 149.664C861.971 149.579 860.52 149.536 859.155 149.536C857.619 149.536 856.083 149.579 854.547 149.664C853.096 149.835 851.091 150.005 848.531 150.176C847.251 150.261 846.142 149.877 845.203 149.024C844.264 148.171 843.795 147.104 843.795 145.824C843.795 144.544 844.222 143.477 845.075 142.624C845.928 141.771 846.952 141.344 848.147 141.344C848.915 141.344 849.726 141.387 850.579 141.472C851.432 141.557 852.286 141.643 853.139 141.728H853.395C853.992 141.728 854.291 141.387 854.291 140.704V105.12C854.291 101.365 853.651 98.3787 852.371 96.16C851.176 93.856 848.83 92.704 845.331 92.704C842.43 92.704 839.016 93.5147 835.091 95.136C831.166 96.7573 826.6 99.9573 821.395 104.736C820.968 105.163 820.755 105.675 820.755 106.272V140.704C820.755 141.387 821.054 141.728 821.651 141.728C822.59 141.728 823.486 141.685 824.339 141.6C825.192 141.429 826.046 141.344 826.899 141.344C828.094 141.344 829.118 141.771 829.971 142.624C830.824 143.477 831.251 144.544 831.251 145.824C831.251 147.104 830.782 148.171 829.843 149.024C828.904 149.877 827.795 150.261 826.515 150.176C823.87 149.92 821.779 149.749 820.243 149.664C818.707 149.579 817.256 149.536 815.891 149.536C814.355 149.536 812.819 149.579 811.283 149.664C809.832 149.835 807.827 150.005 805.267 150.176C803.987 150.261 802.878 149.877 801.939 149.024C801 148.171 800.531 147.104 800.531 145.824C800.531 144.544 800.958 143.477 801.811 142.624C802.664 141.771 803.688 141.344 804.883 141.344C805.736 141.344 806.59 141.387 807.443 141.472C808.296 141.557 809.15 141.643 810.003 141.728H810.259C810.856 141.728 811.155 141.387 811.155 140.704V92.064C811.155 91.3813 810.856 91.04 810.259 91.04C809.235 91.04 808.254 91.1253 807.315 91.296C806.462 91.3813 805.566 91.424 804.627 91.424C803.432 91.424 802.408 90.9973 801.555 90.144C800.702 89.2053 800.275 88.1387 800.275 86.944C800.275 85.664 800.744 84.5547 801.683 83.616C802.622 82.6773 803.731 82.2933 805.011 82.464C806.206 82.5493 807.486 82.6773 808.851 82.848C810.302 82.9333 811.71 83.0187 813.075 83.104C815.208 83.1893 817 84 818.451 85.536C819.987 86.9867 820.755 88.7787 820.755 90.912V93.984C820.755 94.496 820.883 94.7947 821.139 94.88C821.48 94.9653 821.822 94.8373 822.163 94.496C826.942 89.9733 831.336 86.8587 835.347 85.152C839.443 83.36 843.283 82.464 846.867 82.464C851.304 82.464 854.76 83.5307 857.235 85.664C859.71 87.712 861.459 90.4853 862.483 93.984C863.507 97.3973 864.019 101.152 864.019 105.248V140.704C864.019 141.387 864.36 141.728 865.043 141.728C865.982 141.728 866.835 141.685 867.603 141.6C868.456 141.429 869.31 141.344 870.163 141.344ZM953.24 140.448C954.52 140.448 955.587 140.917 956.44 141.856C957.379 142.795 957.848 143.947 957.848 145.312C957.848 146.763 957.293 147.957 956.184 148.896C955.16 149.92 953.923 150.304 952.472 150.048C949.144 149.451 946.584 149.152 944.792 149.152C943 149.152 941.421 148.597 940.056 147.488C938.691 146.293 937.795 144.885 937.368 143.264C937.112 142.411 936.685 142.283 936.088 142.88C933.699 145.099 930.968 146.848 927.896 148.128C924.909 149.493 921.667 150.176 918.168 150.176C912.963 150.176 908.355 149.195 904.344 147.232C900.333 145.269 896.963 142.667 894.232 139.424C891.501 136.096 889.411 132.427 887.96 128.416C886.595 124.405 885.912 120.395 885.912 116.384C885.912 112.459 886.509 108.533 887.704 104.608C888.984 100.597 890.904 96.928 893.464 93.6C896.024 90.272 899.224 87.6267 903.064 85.664C906.989 83.616 911.597 82.592 916.888 82.592C920.643 82.592 924.099 83.4453 927.256 85.152C930.499 86.7733 933.315 88.864 935.704 91.424C935.96 91.68 936.216 91.808 936.472 91.808C936.899 91.808 937.112 91.5093 937.112 90.912V63.264C937.112 62.5813 936.813 62.24 936.216 62.24C935.192 62.24 934.168 62.3253 933.144 62.496C932.205 62.5813 931.267 62.624 930.328 62.624C929.133 62.624 928.109 62.1973 927.256 61.344C926.403 60.4907 925.976 59.4667 925.976 58.272C925.976 56.9067 926.445 55.7973 927.384 54.944C928.323 54.0053 929.475 53.6213 930.84 53.792C932.035 53.8773 933.357 54.0053 934.808 54.176C936.259 54.2613 937.667 54.3467 939.032 54.432C941.165 54.5173 942.957 55.2853 944.408 56.736C945.944 58.1867 946.712 59.9787 946.712 62.112V140.32C946.712 141.003 947.053 141.344 947.736 141.344C948.675 141.344 949.613 141.216 950.552 140.96C951.491 140.619 952.387 140.448 953.24 140.448ZM918.04 140.832C922.307 140.832 925.976 140.021 929.048 138.4C932.205 136.693 934.723 134.56 936.6 132C936.941 131.573 937.112 131.104 937.112 130.592V102.176C937.112 101.664 936.941 101.195 936.6 100.768C934.211 98.0373 931.352 95.8613 928.024 94.24C924.781 92.6187 921.411 91.808 917.912 91.808C913.475 91.808 909.592 92.9173 906.264 95.136C903.021 97.2693 900.461 100.171 898.584 103.84C896.792 107.509 895.896 111.648 895.896 116.256C895.896 120.779 896.835 124.917 898.712 128.672C900.675 132.427 903.32 135.413 906.648 137.632C909.976 139.765 913.773 140.832 918.04 140.832Z" fill="#FEF0E7"/>
<path d="M1134.1 285.04C1133.43 285.04 1132.86 284.813 1132.38 284.36C1131.93 283.88 1131.7 283.307 1131.7 282.64C1131.7 281.947 1131.93 281.373 1132.38 280.92C1132.86 280.467 1133.43 280.24 1134.1 280.24C1134.77 280.24 1135.33 280.467 1135.78 280.92C1136.26 281.373 1136.5 281.947 1136.5 282.64C1136.5 283.307 1136.26 283.88 1135.78 284.36C1135.33 284.813 1134.77 285.04 1134.1 285.04ZM1130.62 309.72C1130.17 309.747 1129.77 309.6 1129.42 309.28C1129.1 308.987 1128.94 308.613 1128.94 308.16C1128.94 307.707 1129.1 307.32 1129.42 307C1129.77 306.68 1130.17 306.547 1130.62 306.6C1130.86 306.627 1131.11 306.653 1131.38 306.68C1131.67 306.707 1131.95 306.733 1132.22 306.76H1132.3C1132.49 306.76 1132.58 306.64 1132.58 306.4V291.84C1132.58 291.627 1132.49 291.52 1132.3 291.52C1131.71 291.52 1131.15 291.56 1130.62 291.64C1130.17 291.667 1129.77 291.533 1129.42 291.24C1129.1 290.92 1128.94 290.533 1128.94 290.08C1128.94 289.627 1129.1 289.24 1129.42 288.92C1129.77 288.6 1130.17 288.467 1130.62 288.52C1131.37 288.573 1131.89 288.627 1132.18 288.68C1132.47 288.707 1132.67 288.72 1132.78 288.72C1132.91 288.72 1133.06 288.72 1133.22 288.72C1133.89 288.72 1134.45 288.96 1134.9 289.44C1135.38 289.893 1135.62 290.453 1135.62 291.12V306.4C1135.62 306.64 1135.71 306.76 1135.9 306.76C1136.19 306.76 1136.47 306.747 1136.74 306.72C1137.03 306.667 1137.31 306.627 1137.58 306.6C1138.03 306.547 1138.42 306.68 1138.74 307C1139.06 307.32 1139.22 307.707 1139.22 308.16C1139.22 308.613 1139.06 308.987 1138.74 309.28C1138.42 309.6 1138.03 309.747 1137.58 309.72C1137.05 309.667 1136.47 309.613 1135.86 309.56C1135.25 309.507 1134.66 309.48 1134.1 309.48C1133.54 309.48 1132.95 309.507 1132.34 309.56C1131.73 309.613 1131.15 309.667 1130.62 309.72ZM1164.57 306.92C1164.94 306.92 1165.26 307.053 1165.53 307.32C1165.8 307.587 1165.93 307.92 1165.93 308.32C1165.93 308.72 1165.78 309.053 1165.49 309.32C1165.2 309.587 1164.85 309.707 1164.45 309.68C1163.62 309.6 1162.97 309.547 1162.49 309.52C1162.01 309.493 1161.56 309.48 1161.13 309.48C1160.65 309.48 1160.17 309.493 1159.69 309.52C1159.24 309.573 1158.61 309.627 1157.81 309.68C1157.41 309.707 1157.06 309.587 1156.77 309.32C1156.48 309.053 1156.33 308.72 1156.33 308.32C1156.33 307.92 1156.46 307.587 1156.73 307.32C1157 307.053 1157.32 306.92 1157.69 306.92C1157.93 306.92 1158.18 306.933 1158.45 306.96C1158.72 306.987 1158.98 307.013 1159.25 307.04H1159.33C1159.52 307.04 1159.61 306.933 1159.61 306.72V295.6C1159.61 294.427 1159.41 293.493 1159.01 292.8C1158.64 292.08 1157.9 291.72 1156.81 291.72C1155.9 291.72 1154.84 291.973 1153.61 292.48C1152.38 292.987 1150.96 293.987 1149.33 295.48C1149.2 295.613 1149.13 295.773 1149.13 295.96V306.72C1149.13 306.933 1149.22 307.04 1149.41 307.04C1149.7 307.04 1149.98 307.027 1150.25 307C1150.52 306.947 1150.78 306.92 1151.05 306.92C1151.42 306.92 1151.74 307.053 1152.01 307.32C1152.28 307.587 1152.41 307.92 1152.41 308.32C1152.41 308.72 1152.26 309.053 1151.97 309.32C1151.68 309.587 1151.33 309.707 1150.93 309.68C1150.1 309.6 1149.45 309.547 1148.97 309.52C1148.49 309.493 1148.04 309.48 1147.61 309.48C1147.13 309.48 1146.65 309.493 1146.17 309.52C1145.72 309.573 1145.09 309.627 1144.29 309.68C1143.89 309.707 1143.54 309.587 1143.25 309.32C1142.96 309.053 1142.81 308.72 1142.81 308.32C1142.81 307.92 1142.94 307.587 1143.21 307.32C1143.48 307.053 1143.8 306.92 1144.17 306.92C1144.44 306.92 1144.7 306.933 1144.97 306.96C1145.24 306.987 1145.5 307.013 1145.77 307.04H1145.85C1146.04 307.04 1146.13 306.933 1146.13 306.72V291.52C1146.13 291.307 1146.04 291.2 1145.85 291.2C1145.53 291.2 1145.22 291.227 1144.93 291.28C1144.66 291.307 1144.38 291.32 1144.09 291.32C1143.72 291.32 1143.4 291.187 1143.13 290.92C1142.86 290.627 1142.73 290.293 1142.73 289.92C1142.73 289.52 1142.88 289.173 1143.17 288.88C1143.46 288.587 1143.81 288.467 1144.21 288.52C1144.58 288.547 1144.98 288.587 1145.41 288.64C1145.86 288.667 1146.3 288.693 1146.73 288.72C1147.4 288.747 1147.96 289 1148.41 289.48C1148.89 289.933 1149.13 290.493 1149.13 291.16V292.12C1149.13 292.28 1149.17 292.373 1149.25 292.4C1149.36 292.427 1149.46 292.387 1149.57 292.28C1151.06 290.867 1152.44 289.893 1153.69 289.36C1154.97 288.8 1156.17 288.52 1157.29 288.52C1158.68 288.52 1159.76 288.853 1160.53 289.52C1161.3 290.16 1161.85 291.027 1162.17 292.12C1162.49 293.187 1162.65 294.36 1162.65 295.64V306.72C1162.65 306.933 1162.76 307.04 1162.97 307.04C1163.26 307.04 1163.53 307.027 1163.77 307C1164.04 306.947 1164.3 306.92 1164.57 306.92ZM1213.49 306.92C1213.87 306.92 1214.19 307.053 1214.45 307.32C1214.72 307.587 1214.85 307.92 1214.85 308.32C1214.85 308.72 1214.71 309.053 1214.41 309.32C1214.12 309.613 1213.77 309.747 1213.37 309.72C1212.55 309.64 1211.89 309.573 1211.41 309.52C1210.93 309.493 1210.48 309.48 1210.05 309.48C1209.57 309.48 1209.09 309.493 1208.61 309.52C1208.16 309.573 1207.53 309.64 1206.73 309.72C1206.33 309.747 1205.99 309.613 1205.69 309.32C1205.4 309.053 1205.25 308.72 1205.25 308.32C1205.25 307.92 1205.39 307.587 1205.65 307.32C1205.92 307.053 1206.24 306.92 1206.61 306.92C1206.85 306.92 1207.11 306.933 1207.37 306.96C1207.64 306.987 1207.91 307.013 1208.17 307.04H1208.25C1208.44 307.04 1208.53 306.933 1208.53 306.72V296.28C1208.53 295.027 1208.35 294.013 1207.97 293.24C1207.63 292.467 1207.19 292 1206.65 291.84C1206.36 291.733 1205.97 291.68 1205.49 291.68C1204.75 291.68 1203.81 291.947 1202.69 292.48C1201.6 293.013 1200.28 294.08 1198.73 295.68C1198.6 295.813 1198.53 295.96 1198.53 296.12V306.72C1198.53 306.933 1198.63 307.04 1198.81 307.04C1199.11 307.04 1199.4 307.027 1199.69 307C1199.99 306.947 1200.27 306.92 1200.53 306.92C1200.91 306.92 1201.23 307.053 1201.49 307.32C1201.76 307.587 1201.89 307.92 1201.89 308.32C1201.89 308.72 1201.75 309.053 1201.45 309.32C1201.16 309.613 1200.8 309.747 1200.37 309.72C1199.55 309.64 1198.89 309.573 1198.41 309.52C1197.93 309.493 1197.49 309.48 1197.09 309.48C1196.59 309.48 1196.11 309.493 1195.65 309.52C1195.2 309.573 1194.57 309.64 1193.77 309.72C1193.35 309.747 1192.99 309.613 1192.69 309.32C1192.4 309.053 1192.25 308.72 1192.25 308.32C1192.25 307.92 1192.39 307.587 1192.65 307.32C1192.92 307.053 1193.24 306.92 1193.61 306.92C1193.85 306.92 1194.12 306.933 1194.41 306.96C1194.71 306.987 1194.99 307.013 1195.25 307.04H1195.33C1195.52 307.04 1195.61 306.933 1195.61 306.72V296.28C1195.61 293.667 1195.05 292.173 1193.93 291.8C1193.8 291.747 1193.65 291.707 1193.49 291.68C1193.33 291.653 1193.16 291.64 1192.97 291.64C1192.23 291.64 1191.28 291.92 1190.13 292.48C1188.99 293.04 1187.63 294.133 1186.05 295.76C1185.92 295.893 1185.85 296.04 1185.85 296.2V306.72C1185.85 306.933 1185.95 307.04 1186.13 307.04C1186.43 307.04 1186.71 307.027 1186.97 307C1187.27 306.947 1187.55 306.92 1187.81 306.92C1188.19 306.92 1188.51 307.053 1188.77 307.32C1189.04 307.587 1189.17 307.92 1189.17 308.32C1189.17 308.72 1189.03 309.053 1188.73 309.32C1188.44 309.613 1188.09 309.747 1187.69 309.72C1186.87 309.64 1186.21 309.573 1185.73 309.52C1185.25 309.493 1184.8 309.48 1184.37 309.48C1183.89 309.48 1183.41 309.493 1182.93 309.52C1182.48 309.573 1181.85 309.64 1181.05 309.72C1180.65 309.747 1180.31 309.613 1180.01 309.32C1179.72 309.053 1179.57 308.72 1179.57 308.32C1179.57 307.92 1179.71 307.587 1179.97 307.32C1180.24 307.053 1180.56 306.92 1180.93 306.92C1181.15 306.92 1181.4 306.933 1181.69 306.96C1181.99 306.987 1182.27 307.013 1182.53 307.04H1182.61C1182.8 307.04 1182.89 306.933 1182.89 306.72V291.6C1182.89 291.387 1182.8 291.28 1182.61 291.28C1182.35 291.28 1182.05 291.293 1181.73 291.32C1181.44 291.347 1181.15 291.387 1180.85 291.44C1180.43 291.493 1180.05 291.373 1179.73 291.08C1179.41 290.787 1179.25 290.427 1179.25 290C1179.25 289.573 1179.41 289.213 1179.73 288.92C1180.05 288.627 1180.43 288.507 1180.85 288.56C1181.47 288.667 1182.15 288.747 1182.89 288.8H1184.37C1184.8 288.8 1185.15 288.947 1185.41 289.24C1185.71 289.507 1185.85 289.853 1185.85 290.28V291.8C1185.85 291.96 1185.89 292.053 1185.97 292.08C1186.08 292.107 1186.19 292.067 1186.29 291.96C1187.55 290.787 1188.76 289.92 1189.93 289.36C1191.13 288.8 1192.24 288.52 1193.25 288.52C1194.08 288.52 1194.89 288.707 1195.69 289.08C1196.31 289.373 1196.8 289.8 1197.17 290.36C1197.57 290.92 1197.87 291.533 1198.05 292.2C1198.13 292.52 1198.29 292.56 1198.53 292.32C1199.87 290.987 1201.15 290.027 1202.37 289.44C1203.6 288.827 1204.76 288.52 1205.85 288.52C1206.79 288.52 1207.65 288.72 1208.45 289.12C1209.31 289.52 1209.95 290.147 1210.37 291C1210.83 291.827 1211.13 292.72 1211.29 293.68C1211.45 294.64 1211.53 295.507 1211.53 296.28V306.72C1211.53 306.933 1211.64 307.04 1211.85 307.04C1212.15 307.04 1212.43 307.027 1212.69 307C1212.96 306.947 1213.23 306.92 1213.49 306.92ZM1239.92 288.56C1240.32 288.507 1240.66 288.627 1240.96 288.92C1241.25 289.187 1241.4 289.533 1241.4 289.96C1241.4 290.36 1241.25 290.707 1240.96 291C1240.66 291.267 1240.32 291.387 1239.92 291.36L1239.2 291.28H1239.12C1238.98 291.28 1238.86 291.36 1238.76 291.52L1228.92 313.44C1227.02 317.36 1224.64 319.32 1221.76 319.32C1220.85 319.32 1220.01 319.107 1219.24 318.68C1218.49 318.28 1217.89 317.733 1217.44 317.04C1216.98 316.373 1216.76 315.64 1216.76 314.84C1216.76 313.987 1217 313.28 1217.48 312.72C1217.96 312.187 1218.57 311.92 1219.32 311.92C1219.96 311.92 1220.49 312.147 1220.92 312.6C1221.37 313.08 1221.6 313.64 1221.6 314.28C1221.6 314.653 1221.53 314.973 1221.4 315.24C1221.29 315.533 1221.14 315.747 1220.96 315.88C1220.74 316.067 1220.72 316.227 1220.88 316.36C1221.17 316.573 1221.48 316.68 1221.8 316.68C1223.5 316.68 1224.92 315.427 1226.04 312.92L1227.48 309.64C1227.53 309.48 1227.53 309.32 1227.48 309.16L1219.72 291.48C1219.61 291.32 1219.49 291.24 1219.36 291.24C1219.17 291.24 1218.98 291.267 1218.8 291.32C1218.61 291.347 1218.41 291.36 1218.2 291.36C1217.82 291.36 1217.5 291.227 1217.24 290.96C1216.97 290.667 1216.84 290.333 1216.84 289.96C1216.84 289.533 1216.98 289.187 1217.28 288.92C1217.57 288.627 1217.92 288.507 1218.32 288.56C1219.09 288.613 1219.72 288.653 1220.2 288.68C1220.7 288.707 1221.18 288.72 1221.64 288.72C1222.09 288.72 1222.57 288.707 1223.08 288.68C1223.58 288.653 1224.21 288.613 1224.96 288.56C1225.36 288.507 1225.7 288.627 1226 288.92C1226.29 289.187 1226.44 289.533 1226.44 289.96C1226.44 290.36 1226.29 290.707 1226 291C1225.7 291.267 1225.36 291.387 1224.96 291.36C1224.69 291.307 1224.4 291.28 1224.08 291.28C1223.76 291.253 1223.44 291.227 1223.12 291.2H1223.04C1222.77 291.2 1222.7 291.333 1222.84 291.6L1228.92 305.4C1229 305.56 1229.08 305.64 1229.16 305.64C1229.29 305.64 1229.37 305.56 1229.4 305.4L1235.56 291.56C1235.58 291.507 1235.6 291.44 1235.6 291.36C1235.6 291.227 1235.52 291.16 1235.36 291.16C1235.01 291.16 1234.65 291.187 1234.28 291.24C1233.93 291.267 1233.6 291.307 1233.28 291.36C1232.88 291.387 1232.53 291.267 1232.24 291C1231.94 290.707 1231.8 290.36 1231.8 289.96C1231.8 289.533 1231.94 289.187 1232.24 288.92C1232.53 288.627 1232.88 288.507 1233.28 288.56C1234.05 288.613 1234.68 288.653 1235.16 288.68C1235.66 288.707 1236.14 288.72 1236.6 288.72C1237.05 288.72 1237.53 288.707 1238.04 288.68C1238.54 288.653 1239.17 288.613 1239.92 288.56ZM1287.95 306.92C1288.32 306.92 1288.64 307.053 1288.91 307.32C1289.17 307.587 1289.31 307.92 1289.31 308.32C1289.31 308.72 1289.16 309.053 1288.87 309.32C1288.57 309.613 1288.23 309.747 1287.83 309.72C1287 309.64 1286.35 309.573 1285.87 309.52C1285.39 309.493 1284.93 309.48 1284.51 309.48C1284.03 309.48 1283.55 309.493 1283.07 309.52C1282.61 309.573 1281.99 309.64 1281.19 309.72C1280.79 309.747 1280.44 309.613 1280.15 309.32C1279.85 309.053 1279.71 308.72 1279.71 308.32C1279.71 307.92 1279.84 307.587 1280.11 307.32C1280.37 307.053 1280.69 306.92 1281.07 306.92C1281.31 306.92 1281.56 306.933 1281.83 306.96C1282.09 306.987 1282.36 307.013 1282.63 307.04H1282.71C1282.89 307.04 1282.99 306.933 1282.99 306.72V296.28C1282.99 295.027 1282.8 294.013 1282.43 293.24C1282.08 292.467 1281.64 292 1281.11 291.84C1280.81 291.733 1280.43 291.68 1279.95 291.68C1279.2 291.68 1278.27 291.947 1277.15 292.48C1276.05 293.013 1274.73 294.08 1273.19 295.68C1273.05 295.813 1272.99 295.96 1272.99 296.12V306.72C1272.99 306.933 1273.08 307.04 1273.27 307.04C1273.56 307.04 1273.85 307.027 1274.15 307C1274.44 306.947 1274.72 306.92 1274.99 306.92C1275.36 306.92 1275.68 307.053 1275.95 307.32C1276.21 307.587 1276.35 307.92 1276.35 308.32C1276.35 308.72 1276.2 309.053 1275.91 309.32C1275.61 309.613 1275.25 309.747 1274.83 309.72C1274 309.64 1273.35 309.573 1272.87 309.52C1272.39 309.493 1271.95 309.48 1271.55 309.48C1271.04 309.48 1270.56 309.493 1270.11 309.52C1269.65 309.573 1269.03 309.64 1268.23 309.72C1267.8 309.747 1267.44 309.613 1267.15 309.32C1266.85 309.053 1266.71 308.72 1266.71 308.32C1266.71 307.92 1266.84 307.587 1267.11 307.32C1267.37 307.053 1267.69 306.92 1268.07 306.92C1268.31 306.92 1268.57 306.933 1268.87 306.96C1269.16 306.987 1269.44 307.013 1269.71 307.04H1269.79C1269.97 307.04 1270.07 306.933 1270.07 306.72V296.28C1270.07 293.667 1269.51 292.173 1268.39 291.8C1268.25 291.747 1268.11 291.707 1267.95 291.68C1267.79 291.653 1267.61 291.64 1267.43 291.64C1266.68 291.64 1265.73 291.92 1264.59 292.48C1263.44 293.04 1262.08 294.133 1260.51 295.76C1260.37 295.893 1260.31 296.04 1260.31 296.2V306.72C1260.31 306.933 1260.4 307.04 1260.59 307.04C1260.88 307.04 1261.16 307.027 1261.43 307C1261.72 306.947 1262 306.92 1262.27 306.92C1262.64 306.92 1262.96 307.053 1263.23 307.32C1263.49 307.587 1263.63 307.92 1263.63 308.32C1263.63 308.72 1263.48 309.053 1263.19 309.32C1262.89 309.613 1262.55 309.747 1262.15 309.72C1261.32 309.64 1260.67 309.573 1260.19 309.52C1259.71 309.493 1259.25 309.48 1258.83 309.48C1258.35 309.48 1257.87 309.493 1257.39 309.52C1256.93 309.573 1256.31 309.64 1255.51 309.72C1255.11 309.747 1254.76 309.613 1254.47 309.32C1254.17 309.053 1254.03 308.72 1254.03 308.32C1254.03 307.92 1254.16 307.587 1254.43 307.32C1254.69 307.053 1255.01 306.92 1255.39 306.92C1255.6 306.92 1255.85 306.933 1256.15 306.96C1256.44 306.987 1256.72 307.013 1256.99 307.04H1257.07C1257.25 307.04 1257.35 306.933 1257.35 306.72V291.6C1257.35 291.387 1257.25 291.28 1257.07 291.28C1256.8 291.28 1256.51 291.293 1256.19 291.32C1255.89 291.347 1255.6 291.387 1255.31 291.44C1254.88 291.493 1254.51 291.373 1254.19 291.08C1253.87 290.787 1253.71 290.427 1253.71 290C1253.71 289.573 1253.87 289.213 1254.19 288.92C1254.51 288.627 1254.88 288.507 1255.31 288.56C1255.92 288.667 1256.6 288.747 1257.35 288.8H1258.83C1259.25 288.8 1259.6 288.947 1259.87 289.24C1260.16 289.507 1260.31 289.853 1260.31 290.28V291.8C1260.31 291.96 1260.35 292.053 1260.43 292.08C1260.53 292.107 1260.64 292.067 1260.75 291.96C1262 290.787 1263.21 289.92 1264.39 289.36C1265.59 288.8 1266.69 288.52 1267.71 288.52C1268.53 288.52 1269.35 288.707 1270.15 289.08C1270.76 289.373 1271.25 289.8 1271.63 290.36C1272.03 290.92 1272.32 291.533 1272.51 292.2C1272.59 292.52 1272.75 292.56 1272.99 292.32C1274.32 290.987 1275.6 290.027 1276.83 289.44C1278.05 288.827 1279.21 288.52 1280.31 288.52C1281.24 288.52 1282.11 288.72 1282.91 289.12C1283.76 289.52 1284.4 290.147 1284.83 291C1285.28 291.827 1285.59 292.72 1285.75 293.68C1285.91 294.64 1285.99 295.507 1285.99 296.28V306.72C1285.99 306.933 1286.09 307.04 1286.31 307.04C1286.6 307.04 1286.88 307.027 1287.15 307C1287.41 306.947 1287.68 306.92 1287.95 306.92ZM1297.97 285.04C1297.3 285.04 1296.73 284.813 1296.25 284.36C1295.8 283.88 1295.57 283.307 1295.57 282.64C1295.57 281.947 1295.8 281.373 1296.25 280.92C1296.73 280.467 1297.3 280.24 1297.97 280.24C1298.64 280.24 1299.2 280.467 1299.65 280.92C1300.13 281.373 1300.37 281.947 1300.37 282.64C1300.37 283.307 1300.13 283.88 1299.65 284.36C1299.2 284.813 1298.64 285.04 1297.97 285.04ZM1294.49 309.72C1294.04 309.747 1293.64 309.6 1293.29 309.28C1292.97 308.987 1292.81 308.613 1292.81 308.16C1292.81 307.707 1292.97 307.32 1293.29 307C1293.64 306.68 1294.04 306.547 1294.49 306.6C1294.73 306.627 1294.98 306.653 1295.25 306.68C1295.54 306.707 1295.82 306.733 1296.09 306.76H1296.17C1296.36 306.76 1296.45 306.64 1296.45 306.4V291.84C1296.45 291.627 1296.36 291.52 1296.17 291.52C1295.58 291.52 1295.02 291.56 1294.49 291.64C1294.04 291.667 1293.64 291.533 1293.29 291.24C1292.97 290.92 1292.81 290.533 1292.81 290.08C1292.81 289.627 1292.97 289.24 1293.29 288.92C1293.64 288.6 1294.04 288.467 1294.49 288.52C1295.24 288.573 1295.76 288.627 1296.05 288.68C1296.34 288.707 1296.54 288.72 1296.65 288.72C1296.78 288.72 1296.93 288.72 1297.09 288.72C1297.76 288.72 1298.32 288.96 1298.77 289.44C1299.25 289.893 1299.49 290.453 1299.49 291.12V306.4C1299.49 306.64 1299.58 306.76 1299.77 306.76C1300.06 306.76 1300.34 306.747 1300.61 306.72C1300.9 306.667 1301.18 306.627 1301.45 306.6C1301.9 306.547 1302.29 306.68 1302.61 307C1302.93 307.32 1303.09 307.707 1303.09 308.16C1303.09 308.613 1302.93 308.987 1302.61 309.28C1302.29 309.6 1301.9 309.747 1301.45 309.72C1300.92 309.667 1300.34 309.613 1299.73 309.56C1299.12 309.507 1298.53 309.48 1297.97 309.48C1297.41 309.48 1296.82 309.507 1296.21 309.56C1295.6 309.613 1295.02 309.667 1294.49 309.72ZM1328.44 306.92C1328.81 306.92 1329.13 307.053 1329.4 307.32C1329.66 307.587 1329.8 307.92 1329.8 308.32C1329.8 308.72 1329.65 309.053 1329.36 309.32C1329.06 309.587 1328.72 309.707 1328.32 309.68C1327.49 309.6 1326.84 309.547 1326.36 309.52C1325.88 309.493 1325.42 309.48 1325 309.48C1324.52 309.48 1324.04 309.493 1323.56 309.52C1323.1 309.573 1322.48 309.627 1321.68 309.68C1321.28 309.707 1320.93 309.587 1320.64 309.32C1320.34 309.053 1320.2 308.72 1320.2 308.32C1320.2 307.92 1320.33 307.587 1320.6 307.32C1320.86 307.053 1321.18 306.92 1321.56 306.92C1321.8 306.92 1322.05 306.933 1322.32 306.96C1322.58 306.987 1322.85 307.013 1323.12 307.04H1323.2C1323.38 307.04 1323.48 306.933 1323.48 306.72V295.6C1323.48 294.427 1323.28 293.493 1322.88 292.8C1322.5 292.08 1321.77 291.72 1320.68 291.72C1319.77 291.72 1318.7 291.973 1317.48 292.48C1316.25 292.987 1314.82 293.987 1313.2 295.48C1313.06 295.613 1313 295.773 1313 295.96V306.72C1313 306.933 1313.09 307.04 1313.28 307.04C1313.57 307.04 1313.85 307.027 1314.12 307C1314.38 306.947 1314.65 306.92 1314.92 306.92C1315.29 306.92 1315.61 307.053 1315.88 307.32C1316.14 307.587 1316.28 307.92 1316.28 308.32C1316.28 308.72 1316.13 309.053 1315.84 309.32C1315.54 309.587 1315.2 309.707 1314.8 309.68C1313.97 309.6 1313.32 309.547 1312.84 309.52C1312.36 309.493 1311.9 309.48 1311.48 309.48C1311 309.48 1310.52 309.493 1310.04 309.52C1309.58 309.573 1308.96 309.627 1308.16 309.68C1307.76 309.707 1307.41 309.587 1307.12 309.32C1306.82 309.053 1306.68 308.72 1306.68 308.32C1306.68 307.92 1306.81 307.587 1307.08 307.32C1307.34 307.053 1307.66 306.92 1308.04 306.92C1308.3 306.92 1308.57 306.933 1308.84 306.96C1309.1 306.987 1309.37 307.013 1309.64 307.04H1309.72C1309.9 307.04 1310 306.933 1310 306.72V291.52C1310 291.307 1309.9 291.2 1309.72 291.2C1309.4 291.2 1309.09 291.227 1308.8 291.28C1308.53 291.307 1308.25 291.32 1307.96 291.32C1307.58 291.32 1307.26 291.187 1307 290.92C1306.73 290.627 1306.6 290.293 1306.6 289.92C1306.6 289.52 1306.74 289.173 1307.04 288.88C1307.33 288.587 1307.68 288.467 1308.08 288.52C1308.45 288.547 1308.85 288.587 1309.28 288.64C1309.73 288.667 1310.17 288.693 1310.6 288.72C1311.26 288.747 1311.82 289 1312.28 289.48C1312.76 289.933 1313 290.493 1313 291.16V292.12C1313 292.28 1313.04 292.373 1313.12 292.4C1313.22 292.427 1313.33 292.387 1313.44 292.28C1314.93 290.867 1316.3 289.893 1317.56 289.36C1318.84 288.8 1320.04 288.52 1321.16 288.52C1322.54 288.52 1323.62 288.853 1324.4 289.52C1325.17 290.16 1325.72 291.027 1326.04 292.12C1326.36 293.187 1326.52 294.36 1326.52 295.64V306.72C1326.52 306.933 1326.62 307.04 1326.84 307.04C1327.13 307.04 1327.4 307.027 1327.64 307C1327.9 306.947 1328.17 306.92 1328.44 306.92ZM1354.4 306.64C1354.8 306.64 1355.13 306.787 1355.4 307.08C1355.69 307.373 1355.84 307.733 1355.84 308.16C1355.84 308.613 1355.67 308.987 1355.32 309.28C1355 309.6 1354.61 309.72 1354.16 309.64C1353.12 309.453 1352.32 309.36 1351.76 309.36C1351.2 309.36 1350.71 309.187 1350.28 308.84C1349.85 308.467 1349.57 308.027 1349.44 307.52C1349.36 307.253 1349.23 307.213 1349.04 307.4C1348.29 308.093 1347.44 308.64 1346.48 309.04C1345.55 309.467 1344.53 309.68 1343.44 309.68C1341.81 309.68 1340.37 309.373 1339.12 308.76C1337.87 308.147 1336.81 307.333 1335.96 306.32C1335.11 305.28 1334.45 304.133 1334 302.88C1333.57 301.627 1333.36 300.373 1333.36 299.12C1333.36 297.893 1333.55 296.667 1333.92 295.44C1334.32 294.187 1334.92 293.04 1335.72 292C1336.52 290.96 1337.52 290.133 1338.72 289.52C1339.95 288.88 1341.39 288.56 1343.04 288.56C1344.21 288.56 1345.29 288.827 1346.28 289.36C1347.29 289.867 1348.17 290.52 1348.92 291.32C1349 291.4 1349.08 291.44 1349.16 291.44C1349.29 291.44 1349.36 291.347 1349.36 291.16V282.52C1349.36 282.307 1349.27 282.2 1349.08 282.2C1348.76 282.2 1348.44 282.227 1348.12 282.28C1347.83 282.307 1347.53 282.32 1347.24 282.32C1346.87 282.32 1346.55 282.187 1346.28 281.92C1346.01 281.653 1345.88 281.333 1345.88 280.96C1345.88 280.533 1346.03 280.187 1346.32 279.92C1346.61 279.627 1346.97 279.507 1347.4 279.56C1347.77 279.587 1348.19 279.627 1348.64 279.68C1349.09 279.707 1349.53 279.733 1349.96 279.76C1350.63 279.787 1351.19 280.027 1351.64 280.48C1352.12 280.933 1352.36 281.493 1352.36 282.16V306.6C1352.36 306.813 1352.47 306.92 1352.68 306.92C1352.97 306.92 1353.27 306.88 1353.56 306.8C1353.85 306.693 1354.13 306.64 1354.4 306.64ZM1343.4 306.76C1344.73 306.76 1345.88 306.507 1346.84 306C1347.83 305.467 1348.61 304.8 1349.2 304C1349.31 303.867 1349.36 303.72 1349.36 303.56V294.68C1349.36 294.52 1349.31 294.373 1349.2 294.24C1348.45 293.387 1347.56 292.707 1346.52 292.2C1345.51 291.693 1344.45 291.44 1343.36 291.44C1341.97 291.44 1340.76 291.787 1339.72 292.48C1338.71 293.147 1337.91 294.053 1337.32 295.2C1336.76 296.347 1336.48 297.64 1336.48 299.08C1336.48 300.493 1336.77 301.787 1337.36 302.96C1337.97 304.133 1338.8 305.067 1339.84 305.76C1340.88 306.427 1342.07 306.76 1343.4 306.76Z" fill="#AC5015"/>
<path d="M510.706 299.128C511.73 300.237 512.242 301.517 512.242 302.968C512.242 304.333 511.815 305.443 510.962 306.296C507.804 309.709 504.05 312.397 499.698 314.36C495.346 316.237 490.866 317.176 486.258 317.176C480.796 317.176 475.932 316.237 471.666 314.36C467.399 312.397 463.772 309.795 460.786 306.552C457.799 303.224 455.538 299.555 454.002 295.544C452.466 291.533 451.698 287.48 451.698 283.384C451.698 277.069 453.106 271.352 455.922 266.232C458.823 261.112 462.748 257.059 467.698 254.072C472.647 251 478.279 249.464 484.594 249.464C494.578 249.464 502.386 252.877 508.018 259.704C509.212 261.069 510.236 262.648 511.09 264.44C512.028 266.147 512.498 267.853 512.498 269.56C512.498 271.181 512.156 272.547 511.474 273.656C510.876 274.765 510.023 275.661 508.914 276.344C507.804 277.027 506.524 277.368 505.074 277.368C503.026 277.368 501.276 276.643 499.826 275.192C498.46 273.656 497.778 271.864 497.778 269.816C497.778 269.048 497.906 268.323 498.162 267.64C498.503 266.872 498.844 266.232 499.186 265.72C499.612 265.123 499.612 264.568 499.186 264.056C497.65 262.093 495.602 260.643 493.042 259.704C490.482 258.765 487.666 258.296 484.594 258.296C479.986 258.296 475.932 259.405 472.434 261.624C468.935 263.843 466.204 266.829 464.242 270.584C462.279 274.339 461.298 278.605 461.298 283.384C461.298 287.821 462.322 291.917 464.37 295.672C466.503 299.341 469.404 302.328 473.074 304.632C476.743 306.851 481.01 307.96 485.874 307.96C489.628 307.96 493.084 307.149 496.242 305.528C499.399 303.907 502.172 301.816 504.562 299.256C505.5 298.317 506.567 297.848 507.762 297.848C508.956 297.848 509.938 298.275 510.706 299.128ZM581.557 253.816C582.069 254.925 582.325 255.992 582.325 257.016C582.325 258.979 581.599 260.643 580.149 262.008C578.698 263.373 576.991 264.056 575.029 264.056C573.578 264.056 572.255 263.672 571.061 262.904C569.951 262.051 569.055 261.027 568.373 259.832C568.117 259.235 567.647 258.936 566.965 258.936C563.893 259.192 560.949 260.472 558.133 262.776C555.402 264.995 552.97 267.811 550.837 271.224C548.703 274.637 546.997 278.307 545.717 282.232C545.546 282.573 545.461 283.043 545.461 283.64V307.704C545.461 308.387 545.759 308.728 546.357 308.728C547.381 308.728 548.362 308.685 549.301 308.6C550.325 308.429 551.349 308.344 552.373 308.344C553.567 308.344 554.591 308.771 555.444 309.624C556.298 310.477 556.725 311.544 556.725 312.824C556.725 314.104 556.255 315.171 555.317 316.024C554.378 316.963 553.226 317.389 551.861 317.304C549.215 317.048 547.082 316.835 545.461 316.664C543.839 316.579 542.261 316.536 540.725 316.536C538.933 316.536 537.226 316.579 535.605 316.664C534.069 316.835 532.063 317.048 529.589 317.304C528.223 317.389 527.071 316.963 526.133 316.024C525.194 315.171 524.725 314.104 524.725 312.824C524.725 311.544 525.151 310.477 526.005 309.624C526.858 308.771 527.882 308.344 529.077 308.344C529.93 308.344 530.826 308.387 531.765 308.472C532.789 308.557 533.77 308.643 534.708 308.728H534.965C535.562 308.728 535.861 308.387 535.861 307.704V260.088C535.861 259.405 535.562 259.064 534.965 259.064C533.087 259.064 531.295 259.192 529.589 259.448C528.138 259.533 526.858 259.107 525.749 258.168C524.725 257.144 524.213 255.907 524.213 254.456C524.213 253.005 524.725 251.811 525.749 250.872C526.858 249.848 528.138 249.421 529.589 249.592C531.381 249.763 532.746 249.891 533.685 249.976C534.709 250.061 535.69 250.104 536.628 250.104C537.653 250.104 539.018 250.104 540.725 250.104C542.09 250.104 543.199 250.573 544.053 251.512C544.991 252.451 545.461 253.56 545.461 254.84V262.264C545.461 262.776 545.589 263.117 545.845 263.288C546.186 263.373 546.527 263.203 546.869 262.776C549.429 259.021 552.458 255.907 555.957 253.432C559.541 250.957 563.722 249.421 568.501 248.824C569.013 248.739 569.525 248.696 570.037 248.696C570.549 248.611 571.061 248.568 571.573 248.568C573.791 248.568 575.797 248.952 577.589 249.72C579.466 250.488 580.789 251.853 581.557 253.816ZM645.637 287.608H600.837C599.983 287.608 599.642 288.035 599.812 288.888C600.581 292.643 602.074 295.971 604.293 298.872C606.511 301.773 609.242 304.035 612.485 305.656C615.727 307.277 619.226 308.088 622.981 308.088C626.223 308.088 629.295 307.405 632.197 306.04C635.183 304.589 637.743 302.669 639.877 300.28C641.157 299 642.522 298.36 643.973 298.36C644.911 298.36 645.807 298.659 646.661 299.256C648.026 300.195 648.709 301.475 648.709 303.096C648.709 304.205 648.367 305.101 647.685 305.784C644.613 309.368 640.901 312.184 636.549 314.232C632.282 316.195 627.759 317.176 622.981 317.176C616.837 317.176 611.247 315.64 606.213 312.568C601.263 309.496 597.295 305.4 594.309 300.28C591.407 295.16 589.957 289.528 589.957 283.384C589.957 277.155 591.322 271.48 594.053 266.36C596.783 261.24 600.538 257.144 605.317 254.072C610.181 251 615.642 249.464 621.701 249.464C627.674 249.464 632.879 250.744 637.317 253.304C641.754 255.864 645.295 259.448 647.941 264.056C650.671 268.579 652.335 273.869 652.933 279.928C653.189 282.061 652.549 283.896 651.013 285.432C649.562 286.883 647.77 287.608 645.637 287.608ZM621.701 258.04C615.727 258.04 610.821 259.789 606.981 263.288C603.141 266.787 600.751 271.395 599.812 277.112C599.812 277.197 599.77 277.283 599.685 277.368C599.685 277.368 599.685 277.411 599.685 277.496C599.685 278.093 600.069 278.392 600.837 278.392H641.925C642.863 278.392 643.205 277.965 642.949 277.112C641.925 271.139 639.663 266.488 636.165 263.16C632.751 259.747 627.93 258.04 621.701 258.04ZM723.831 307.448C725.111 307.448 726.177 307.96 727.031 308.984C727.969 309.923 728.439 311.032 728.439 312.312C728.439 313.848 727.884 315.085 726.775 316.024C725.665 317.048 724.385 317.432 722.935 317.176C721.825 316.92 720.631 316.707 719.351 316.536C718.071 316.365 716.791 316.237 715.511 316.152C713.804 316.152 712.268 315.64 710.903 314.616C709.537 313.592 708.599 312.269 708.087 310.648C707.831 309.88 707.404 309.752 706.807 310.264C703.905 312.483 700.748 314.189 697.335 315.384C693.921 316.579 689.868 317.176 685.175 317.176C679.543 317.176 674.849 315.555 671.095 312.312C667.34 308.984 665.463 304.675 665.463 299.384C665.463 293.325 667.596 288.376 671.863 284.536C676.129 280.696 681.761 278.776 688.759 278.776C691.404 278.776 694.22 279.075 697.207 279.672C700.193 280.269 703.265 281.208 706.423 282.488C706.508 282.488 706.593 282.531 706.679 282.616C706.764 282.616 706.849 282.616 706.935 282.616C707.532 282.616 707.831 282.275 707.831 281.592V276.472C707.831 270.413 706.209 265.891 702.967 262.904C699.809 259.917 696.097 258.424 691.831 258.424C689.015 258.424 686.113 259.064 683.127 260.344C682.529 260.685 682.316 261.197 682.487 261.88C682.743 262.648 682.871 263.373 682.871 264.056C682.871 265.933 682.188 267.64 680.823 269.176C679.543 270.712 677.793 271.48 675.575 271.48C673.271 271.48 671.436 270.712 670.071 269.176C668.791 267.555 668.151 265.72 668.151 263.672C668.151 261.539 668.919 259.576 670.455 257.784C672.759 255.139 675.617 253.091 679.031 251.64C682.529 250.189 686.241 249.464 690.167 249.464C696.823 249.464 702.113 250.701 706.039 253.176C710.049 255.651 712.908 258.936 714.615 263.032C716.407 267.128 717.303 271.608 717.303 276.472V307.32C717.303 308.003 717.644 308.344 718.327 308.344C719.265 308.344 720.204 308.216 721.143 307.96C722.081 307.619 722.977 307.448 723.831 307.448ZM685.175 307.96C690.124 307.789 694.263 306.979 697.591 305.528C700.919 304.077 704.161 301.731 707.319 298.488C707.66 298.061 707.831 297.592 707.831 297.08V293.496C707.831 292.899 707.575 292.472 707.063 292.216C705.271 291.192 703.009 290.168 700.279 289.144C697.548 288.12 693.879 287.608 689.271 287.608C683.98 287.608 680.183 288.803 677.878 291.192C675.66 293.581 674.551 296.312 674.551 299.384C674.551 301.432 675.105 303.096 676.215 304.376C677.324 305.571 678.689 306.467 680.311 307.064C682.017 307.661 683.639 307.96 685.175 307.96ZM776.851 295.16C778.301 295.16 779.539 295.672 780.563 296.696C781.587 297.72 782.013 298.957 781.843 300.408C780.563 311.672 774.973 317.304 765.075 317.304C761.832 317.304 758.973 316.536 756.499 315C754.109 313.464 752.232 311.459 750.867 308.984C749.501 306.424 748.819 303.651 748.819 300.664V260.472C748.819 259.704 748.435 259.32 747.667 259.32H739.987C738.792 259.32 737.725 258.893 736.786 258.04C735.933 257.101 735.507 256.035 735.507 254.84C735.507 253.645 735.933 252.621 736.786 251.768C737.725 250.915 738.792 250.488 739.987 250.488H747.667C748.435 250.488 748.819 250.104 748.819 249.336V227.448C748.819 226.083 749.288 224.931 750.227 223.992C751.165 223.053 752.317 222.584 753.683 222.584C754.963 222.584 756.072 223.053 757.011 223.992C757.949 224.931 758.419 226.083 758.419 227.448V249.336C758.419 250.104 758.803 250.488 759.571 250.488H775.059C776.253 250.488 777.277 250.915 778.131 251.768C778.984 252.621 779.411 253.645 779.411 254.84C779.411 256.035 778.984 257.101 778.131 258.04C777.277 258.893 776.253 259.32 775.059 259.32H759.571C758.803 259.32 758.419 259.704 758.419 260.472V300.664C758.419 300.92 758.504 301.645 758.675 302.84C758.931 303.949 759.528 305.059 760.467 306.168C761.405 307.192 762.941 307.704 765.075 307.704C767.549 307.704 769.299 307.021 770.323 305.656C771.347 304.291 772.029 302.2 772.371 299.384C772.541 298.189 773.053 297.208 773.907 296.44C774.76 295.587 775.741 295.16 776.851 295.16ZM809.6 238.328C807.466 238.328 805.632 237.603 804.096 236.152C802.645 234.616 801.92 232.781 801.92 230.648C801.92 228.429 802.645 226.595 804.096 225.144C805.632 223.693 807.466 222.968 809.6 222.968C811.733 222.968 813.525 223.693 814.976 225.144C816.512 226.595 817.28 228.429 817.28 230.648C817.28 232.781 816.512 234.616 814.976 236.152C813.525 237.603 811.733 238.328 809.6 238.328ZM798.464 317.304C797.013 317.389 795.733 316.92 794.624 315.896C793.6 314.957 793.088 313.763 793.088 312.312C793.088 310.861 793.6 309.624 794.624 308.6C795.733 307.576 797.013 307.149 798.464 307.32C799.232 307.405 800.042 307.491 800.896 307.576C801.834 307.661 802.73 307.747 803.583 307.832H803.84C804.437 307.832 804.736 307.448 804.736 306.68V260.088C804.736 259.405 804.437 259.064 803.84 259.064C801.962 259.064 800.17 259.192 798.464 259.448C797.013 259.533 795.733 259.107 794.624 258.168C793.6 257.144 793.088 255.907 793.088 254.456C793.088 253.005 793.6 251.768 794.624 250.744C795.733 249.72 797.013 249.293 798.464 249.464C800.853 249.635 802.517 249.805 803.456 249.976C804.394 250.061 805.034 250.104 805.376 250.104C805.802 250.104 806.272 250.104 806.784 250.104C808.917 250.104 810.709 250.872 812.16 252.408C813.696 253.859 814.464 255.651 814.464 257.784V306.68C814.464 307.448 814.762 307.832 815.36 307.832C816.298 307.832 817.194 307.789 818.048 307.704C818.986 307.533 819.882 307.405 820.736 307.32C822.186 307.149 823.424 307.576 824.448 308.6C825.472 309.624 825.984 310.861 825.984 312.312C825.984 313.763 825.472 314.957 824.448 315.896C823.424 316.92 822.186 317.389 820.736 317.304C819.029 317.133 817.194 316.963 815.232 316.792C813.269 316.621 811.392 316.536 809.6 316.536C807.808 316.536 805.93 316.621 803.968 316.792C802.005 316.963 800.17 317.133 798.464 317.304ZM905.949 249.592C907.314 249.421 908.466 249.805 909.405 250.744C910.343 251.597 910.812 252.664 910.812 253.944C910.812 255.309 910.343 256.419 909.405 257.272C908.466 258.125 907.314 258.509 905.949 258.424L902.493 258.168C901.81 258.168 901.341 258.424 901.085 258.936L877.021 314.104C876.167 316.237 874.546 317.304 872.157 317.304C869.853 317.304 868.189 316.237 867.165 314.104L842.205 258.936C841.949 258.424 841.479 258.168 840.797 258.168L837.341 258.424C835.975 258.509 834.823 258.125 833.885 257.272C832.946 256.419 832.477 255.309 832.477 253.944C832.477 252.664 832.946 251.597 833.885 250.744C834.823 249.805 835.975 249.421 837.341 249.592C839.559 249.763 841.479 249.891 843.101 249.976C844.722 250.061 846.343 250.104 847.965 250.104C849.501 250.104 851.079 250.061 852.701 249.976C854.407 249.891 856.327 249.763 858.461 249.592C859.826 249.421 860.978 249.805 861.917 250.744C862.855 251.597 863.325 252.664 863.325 253.944C863.325 255.224 862.898 256.291 862.045 257.144C861.191 257.997 860.167 258.424 858.973 258.424C858.205 258.424 857.351 258.381 856.413 258.296C855.559 258.211 854.663 258.125 853.725 258.04H853.469C852.615 258.04 852.402 258.467 852.829 259.32L871.517 301.432C871.773 301.944 872.029 302.2 872.285 302.2C872.711 302.2 872.967 301.944 873.053 301.432L890.589 259.32C890.674 259.149 890.717 258.936 890.717 258.68C890.717 258.253 890.461 258.04 889.949 258.04C889.095 258.04 888.157 258.125 887.133 258.296C886.194 258.381 885.255 258.424 884.317 258.424C883.122 258.424 882.098 257.997 881.245 257.144C880.391 256.291 879.965 255.224 879.965 253.944C879.965 252.664 880.434 251.597 881.373 250.744C882.311 249.805 883.463 249.421 884.829 249.592C887.047 249.763 888.967 249.891 890.589 249.976C892.295 250.061 893.917 250.104 895.452 250.104C896.988 250.104 898.567 250.061 900.189 249.976C901.895 249.891 903.815 249.763 905.949 249.592ZM935.35 238.328C933.216 238.328 931.382 237.603 929.846 236.152C928.395 234.616 927.67 232.781 927.67 230.648C927.67 228.429 928.395 226.595 929.846 225.144C931.382 223.693 933.216 222.968 935.35 222.968C937.483 222.968 939.275 223.693 940.726 225.144C942.262 226.595 943.03 228.429 943.03 230.648C943.03 232.781 942.262 234.616 940.726 236.152C939.275 237.603 937.483 238.328 935.35 238.328ZM924.214 317.304C922.763 317.389 921.483 316.92 920.374 315.896C919.35 314.957 918.838 313.763 918.838 312.312C918.838 310.861 919.35 309.624 920.374 308.6C921.483 307.576 922.763 307.149 924.214 307.32C924.982 307.405 925.792 307.491 926.646 307.576C927.584 307.661 928.48 307.747 929.333 307.832H929.59C930.187 307.832 930.486 307.448 930.486 306.68V260.088C930.486 259.405 930.187 259.064 929.59 259.064C927.712 259.064 925.92 259.192 924.214 259.448C922.763 259.533 921.483 259.107 920.374 258.168C919.35 257.144 918.838 255.907 918.838 254.456C918.838 253.005 919.35 251.768 920.374 250.744C921.483 249.72 922.763 249.293 924.214 249.464C926.603 249.635 928.267 249.805 929.206 249.976C930.144 250.061 930.784 250.104 931.126 250.104C931.552 250.104 932.022 250.104 932.534 250.104C934.667 250.104 936.459 250.872 937.91 252.408C939.446 253.859 940.214 255.651 940.214 257.784V306.68C940.214 307.448 940.512 307.832 941.11 307.832C942.048 307.832 942.944 307.789 943.798 307.704C944.736 307.533 945.632 307.405 946.486 307.32C947.936 307.149 949.174 307.576 950.198 308.6C951.222 309.624 951.734 310.861 951.734 312.312C951.734 313.763 951.222 314.957 950.198 315.896C949.174 316.92 947.936 317.389 946.486 317.304C944.779 317.133 942.944 316.963 940.982 316.792C939.019 316.621 937.142 316.536 935.35 316.536C933.558 316.536 931.68 316.621 929.718 316.792C927.755 316.963 925.92 317.133 924.214 317.304ZM1000.85 295.16C1002.3 295.16 1003.54 295.672 1004.56 296.696C1005.59 297.72 1006.01 298.957 1005.84 300.408C1004.56 311.672 998.973 317.304 989.075 317.304C985.832 317.304 982.973 316.536 980.499 315C978.109 313.464 976.232 311.459 974.867 308.984C973.501 306.424 972.819 303.651 972.819 300.664V260.472C972.819 259.704 972.435 259.32 971.667 259.32H963.987C962.792 259.32 961.725 258.893 960.786 258.04C959.933 257.101 959.507 256.035 959.507 254.84C959.507 253.645 959.933 252.621 960.786 251.768C961.725 250.915 962.792 250.488 963.987 250.488H971.667C972.435 250.488 972.819 250.104 972.819 249.336V227.448C972.819 226.083 973.288 224.931 974.227 223.992C975.165 223.053 976.317 222.584 977.683 222.584C978.963 222.584 980.072 223.053 981.011 223.992C981.949 224.931 982.419 226.083 982.419 227.448V249.336C982.419 250.104 982.803 250.488 983.571 250.488H999.059C1000.25 250.488 1001.28 250.915 1002.13 251.768C1002.98 252.621 1003.41 253.645 1003.41 254.84C1003.41 256.035 1002.98 257.101 1002.13 258.04C1001.28 258.893 1000.25 259.32 999.059 259.32H983.571C982.803 259.32 982.419 259.704 982.419 260.472V300.664C982.419 300.92 982.504 301.645 982.675 302.84C982.931 303.949 983.528 305.059 984.467 306.168C985.405 307.192 986.941 307.704 989.075 307.704C991.549 307.704 993.299 307.021 994.323 305.656C995.347 304.291 996.029 302.2 996.371 299.384C996.541 298.189 997.053 297.208 997.907 296.44C998.76 295.587 999.741 295.16 1000.85 295.16ZM1086.08 249.592C1087.36 249.421 1088.47 249.805 1089.41 250.744C1090.35 251.597 1090.82 252.707 1090.82 254.072C1090.82 255.352 1090.35 256.461 1089.41 257.4C1088.47 258.253 1087.36 258.637 1086.08 258.552L1083.78 258.296H1083.52C1083.09 258.296 1082.71 258.552 1082.37 259.064L1050.88 329.208C1044.82 341.752 1037.18 348.024 1027.97 348.024C1025.07 348.024 1022.38 347.341 1019.9 345.976C1017.51 344.696 1015.59 342.947 1014.14 340.728C1012.69 338.595 1011.97 336.248 1011.97 333.688C1011.97 330.957 1012.74 328.696 1014.27 326.904C1015.81 325.197 1017.77 324.344 1020.16 324.344C1022.21 324.344 1023.91 325.069 1025.28 326.52C1026.73 328.056 1027.46 329.848 1027.46 331.896C1027.46 333.091 1027.24 334.115 1026.82 334.968C1026.47 335.907 1026 336.589 1025.41 337.016C1024.72 337.613 1024.64 338.125 1025.15 338.552C1026.09 339.235 1027.07 339.576 1028.1 339.576C1033.56 339.576 1038.08 335.565 1041.66 327.544L1046.27 317.048C1046.44 316.536 1046.44 316.024 1046.27 315.512L1021.44 258.936C1021.1 258.424 1020.71 258.168 1020.29 258.168C1019.69 258.168 1019.09 258.253 1018.5 258.424C1017.9 258.509 1017.26 258.552 1016.58 258.552C1015.38 258.552 1014.36 258.125 1013.5 257.272C1012.65 256.333 1012.22 255.267 1012.22 254.072C1012.22 252.707 1012.69 251.597 1013.63 250.744C1014.57 249.805 1015.68 249.421 1016.96 249.592C1019.43 249.763 1021.44 249.891 1022.98 249.976C1024.6 250.061 1026.13 250.104 1027.58 250.104C1029.03 250.104 1030.57 250.061 1032.19 249.976C1033.81 249.891 1035.82 249.763 1038.21 249.592C1039.49 249.421 1040.6 249.805 1041.54 250.744C1042.47 251.597 1042.94 252.707 1042.94 254.072C1042.94 255.352 1042.47 256.461 1041.54 257.4C1040.6 258.253 1039.49 258.637 1038.21 258.552C1037.35 258.381 1036.42 258.296 1035.39 258.296C1034.37 258.211 1033.34 258.125 1032.32 258.04H1032.06C1031.21 258.04 1031 258.467 1031.42 259.32L1050.88 303.48C1051.14 303.992 1051.39 304.248 1051.65 304.248C1052.07 304.248 1052.33 303.992 1052.42 303.48L1072.13 259.192C1072.21 259.021 1072.26 258.808 1072.26 258.552C1072.26 258.125 1072 257.912 1071.49 257.912C1070.38 257.912 1069.23 257.997 1068.03 258.168C1066.92 258.253 1065.86 258.381 1064.83 258.552C1063.55 258.637 1062.44 258.253 1061.5 257.4C1060.56 256.461 1060.1 255.352 1060.1 254.072C1060.1 252.707 1060.56 251.597 1061.5 250.744C1062.44 249.805 1063.55 249.421 1064.83 249.592C1067.31 249.763 1069.31 249.891 1070.85 249.976C1072.47 250.061 1074 250.104 1075.46 250.104C1076.91 250.104 1078.44 250.061 1080.06 249.976C1081.68 249.891 1083.69 249.763 1086.08 249.592Z" fill="#FEF0E7"/>
</svg>
