<svg width="1182" height="348" viewBox="0 0 1182 348" fill="none" xmlns="http://www.w3.org/2000/svg">
<path d="M568.525 141.344C569.719 141.344 570.743 141.771 571.597 142.624C572.45 143.477 572.877 144.544 572.877 145.824C572.877 147.104 572.407 148.171 571.469 149.024C570.53 149.963 569.421 150.389 568.141 150.304C565.495 150.048 563.405 149.835 561.869 149.664C560.333 149.579 558.882 149.536 557.517 149.536C555.981 149.536 554.445 149.579 552.909 149.664C551.458 149.835 549.453 150.048 546.893 150.304C545.613 150.389 544.503 149.963 543.565 149.024C542.626 148.171 542.157 147.104 542.157 145.824C542.157 144.544 542.583 143.477 543.437 142.624C544.29 141.771 545.314 141.344 546.509 141.344C547.277 141.344 548.087 141.387 548.941 141.472C549.794 141.557 550.647 141.643 551.501 141.728H551.757C552.354 141.728 552.653 141.387 552.653 140.704V107.296C552.653 103.285 552.055 100.043 550.861 97.568C549.751 95.0933 548.343 93.6 546.637 93.088C545.698 92.7467 544.461 92.576 542.925 92.576C540.535 92.576 537.549 93.4293 533.965 95.136C530.466 96.8427 526.242 100.256 521.293 105.376C520.866 105.803 520.653 106.272 520.653 106.784V140.704C520.653 141.387 520.951 141.728 521.549 141.728C522.487 141.728 523.426 141.685 524.365 141.6C525.303 141.429 526.199 141.344 527.053 141.344C528.247 141.344 529.271 141.771 530.125 142.624C530.978 143.477 531.405 144.544 531.405 145.824C531.405 147.104 530.935 148.171 529.997 149.024C529.058 149.963 527.906 150.389 526.541 150.304C523.895 150.048 521.805 149.835 520.269 149.664C518.733 149.579 517.325 149.536 516.045 149.536C514.423 149.536 512.887 149.579 511.437 149.664C509.986 149.835 507.981 150.048 505.421 150.304C504.055 150.389 502.903 149.963 501.965 149.024C501.026 148.171 500.557 147.104 500.557 145.824C500.557 144.544 500.983 143.477 501.837 142.624C502.69 141.771 503.714 141.344 504.909 141.344C505.677 141.344 506.53 141.387 507.469 141.472C508.407 141.557 509.303 141.643 510.157 141.728H510.413C511.01 141.728 511.309 141.387 511.309 140.704V107.296C511.309 98.9333 509.517 94.1547 505.933 92.96C505.506 92.7893 505.037 92.6613 504.525 92.576C504.013 92.4907 503.458 92.448 502.861 92.448C500.471 92.448 497.442 93.344 493.773 95.136C490.103 96.928 485.751 100.427 480.717 105.632C480.29 106.059 480.077 106.528 480.077 107.04V140.704C480.077 141.387 480.375 141.728 480.973 141.728C481.911 141.728 482.807 141.685 483.661 141.6C484.599 141.429 485.495 141.344 486.349 141.344C487.543 141.344 488.567 141.771 489.421 142.624C490.274 143.477 490.701 144.544 490.701 145.824C490.701 147.104 490.231 148.171 489.293 149.024C488.354 149.963 487.245 150.389 485.965 150.304C483.319 150.048 481.229 149.835 479.693 149.664C478.157 149.579 476.706 149.536 475.341 149.536C473.805 149.536 472.269 149.579 470.733 149.664C469.282 149.835 467.277 150.048 464.717 150.304C463.437 150.389 462.327 149.963 461.389 149.024C460.45 148.171 459.981 147.104 459.981 145.824C459.981 144.544 460.407 143.477 461.26 142.624C462.114 141.771 463.138 141.344 464.333 141.344C465.015 141.344 465.826 141.387 466.765 141.472C467.703 141.557 468.599 141.643 469.453 141.728H469.708C470.306 141.728 470.605 141.387 470.605 140.704V92.32C470.605 91.6373 470.306 91.296 469.708 91.296C468.855 91.296 467.917 91.3387 466.893 91.424C465.954 91.5093 465.015 91.6373 464.077 91.808C462.711 91.9787 461.517 91.5947 460.493 90.656C459.469 89.7173 458.957 88.5653 458.957 87.2C458.957 85.8347 459.469 84.6827 460.493 83.744C461.517 82.8053 462.711 82.4213 464.077 82.592C466.039 82.9333 468.215 83.1893 470.605 83.36H475.341C476.706 83.36 477.815 83.8293 478.669 84.768C479.607 85.6213 480.077 86.7307 480.077 88.096V92.96C480.077 93.472 480.205 93.7707 480.461 93.856C480.802 93.9413 481.143 93.8133 481.485 93.472C485.495 89.7173 489.378 86.944 493.133 85.152C496.973 83.36 500.514 82.464 503.757 82.464C506.402 82.464 509.005 83.0613 511.565 84.256C513.527 85.1947 515.106 86.56 516.301 88.352C517.581 90.144 518.519 92.1067 519.117 94.24C519.373 95.264 519.885 95.392 520.653 94.624C524.919 90.3573 529.015 87.2853 532.941 85.408C536.866 83.4453 540.578 82.464 544.077 82.464C547.063 82.464 549.837 83.104 552.397 84.384C555.127 85.664 557.175 87.6693 558.541 90.4C559.991 93.0453 560.973 95.904 561.485 98.976C561.997 102.048 562.253 104.821 562.253 107.296V140.704C562.253 141.387 562.594 141.728 563.277 141.728C564.215 141.728 565.111 141.685 565.965 141.6C566.818 141.429 567.671 141.344 568.525 141.344ZM642.456 140.448C643.736 140.448 644.802 140.96 645.656 141.984C646.594 142.923 647.064 144.032 647.064 145.312C647.064 146.848 646.509 148.085 645.4 149.024C644.29 150.048 643.01 150.432 641.56 150.176C640.45 149.92 639.256 149.707 637.976 149.536C636.696 149.365 635.416 149.237 634.136 149.152C632.429 149.152 630.893 148.64 629.528 147.616C628.162 146.592 627.224 145.269 626.712 143.648C626.456 142.88 626.029 142.752 625.432 143.264C622.53 145.483 619.373 147.189 615.96 148.384C612.546 149.579 608.493 150.176 603.8 150.176C598.168 150.176 593.474 148.555 589.72 145.312C585.965 141.984 584.088 137.675 584.088 132.384C584.088 126.325 586.221 121.376 590.488 117.536C594.754 113.696 600.386 111.776 607.384 111.776C610.029 111.776 612.845 112.075 615.832 112.672C618.818 113.269 621.89 114.208 625.048 115.488C625.133 115.488 625.218 115.531 625.304 115.616C625.389 115.616 625.474 115.616 625.56 115.616C626.157 115.616 626.456 115.275 626.456 114.592V109.472C626.456 103.413 624.834 98.8907 621.592 95.904C618.434 92.9173 614.722 91.424 610.456 91.424C607.64 91.424 604.738 92.064 601.752 93.344C601.154 93.6853 600.941 94.1973 601.112 94.88C601.368 95.648 601.496 96.3733 601.496 97.056C601.496 98.9333 600.813 100.64 599.448 102.176C598.168 103.712 596.418 104.48 594.2 104.48C591.896 104.48 590.061 103.712 588.696 102.176C587.416 100.555 586.776 98.72 586.776 96.672C586.776 94.5387 587.544 92.576 589.08 90.784C591.384 88.1387 594.242 86.0907 597.656 84.64C601.154 83.1893 604.866 82.464 608.792 82.464C615.448 82.464 620.738 83.7013 624.664 86.176C628.674 88.6507 631.533 91.936 633.24 96.032C635.032 100.128 635.928 104.608 635.928 109.472V140.32C635.928 141.003 636.269 141.344 636.952 141.344C637.89 141.344 638.829 141.216 639.768 140.96C640.706 140.619 641.602 140.448 642.456 140.448ZM603.8 140.96C608.749 140.789 612.888 139.979 616.216 138.528C619.544 137.077 622.786 134.731 625.944 131.488C626.285 131.061 626.456 130.592 626.456 130.08V126.496C626.456 125.899 626.2 125.472 625.688 125.216C623.896 124.192 621.634 123.168 618.904 122.144C616.173 121.12 612.504 120.608 607.896 120.608C602.605 120.608 598.808 121.803 596.503 124.192C594.285 126.581 593.176 129.312 593.176 132.384C593.176 134.432 593.73 136.096 594.84 137.376C595.949 138.571 597.314 139.467 598.936 140.064C600.642 140.661 602.264 140.96 603.8 140.96ZM722.178 140.448C723.458 140.448 724.524 140.917 725.378 141.856C726.316 142.795 726.786 143.947 726.786 145.312C726.786 146.763 726.231 147.957 725.122 148.896C724.098 149.92 722.86 150.304 721.41 150.048C718.082 149.451 715.522 149.152 713.729 149.152C711.938 149.152 710.359 148.597 708.994 147.488C707.628 146.293 706.732 144.885 706.306 143.264C706.05 142.411 705.623 142.283 705.026 142.88C702.636 145.099 699.906 146.848 696.834 148.128C693.847 149.493 690.604 150.176 687.106 150.176C681.9 150.176 677.292 149.195 673.282 147.232C669.271 145.269 665.9 142.667 663.17 139.424C660.439 136.096 658.348 132.427 656.898 128.416C655.532 124.405 654.85 120.395 654.85 116.384C654.85 112.459 655.447 108.533 656.642 104.608C657.922 100.597 659.842 96.928 662.402 93.6C664.962 90.272 668.162 87.6267 672.002 85.664C675.927 83.616 680.535 82.592 685.826 82.592C689.58 82.592 693.036 83.4453 696.194 85.152C699.436 86.7733 702.252 88.864 704.642 91.424C704.898 91.68 705.154 91.808 705.41 91.808C705.836 91.808 706.05 91.5093 706.05 90.912V63.264C706.05 62.5813 705.751 62.24 705.154 62.24C704.13 62.24 703.106 62.3253 702.082 62.496C701.143 62.5813 700.204 62.624 699.266 62.624C698.071 62.624 697.047 62.1973 696.194 61.344C695.34 60.4907 694.914 59.4667 694.914 58.272C694.914 56.9067 695.383 55.7973 696.322 54.944C697.26 54.0053 698.412 53.6213 699.778 53.792C700.972 53.8773 702.295 54.0053 703.746 54.176C705.196 54.2613 706.604 54.3467 707.97 54.432C710.103 54.5173 711.895 55.2853 713.346 56.736C714.882 58.1867 715.65 59.9787 715.65 62.112V140.32C715.65 141.003 715.991 141.344 716.674 141.344C717.612 141.344 718.551 141.216 719.49 140.96C720.428 140.619 721.324 140.448 722.178 140.448ZM686.978 140.832C691.244 140.832 694.914 140.021 697.986 138.4C701.143 136.693 703.66 134.56 705.538 132C705.879 131.573 706.05 131.104 706.05 130.592V102.176C706.05 101.664 705.879 101.195 705.538 100.768C703.148 98.0373 700.29 95.8613 696.962 94.24C693.719 92.6187 690.348 91.808 686.85 91.808C682.412 91.808 678.53 92.9173 675.202 95.136C671.959 97.2693 669.399 100.171 667.522 103.84C665.73 107.509 664.833 111.648 664.833 116.256C664.833 120.779 665.772 124.917 667.65 128.672C669.612 132.427 672.258 135.413 675.586 137.632C678.914 139.765 682.711 140.832 686.978 140.832ZM792.512 120.608H747.712C746.858 120.608 746.517 121.035 746.688 121.888C747.456 125.643 748.949 128.971 751.168 131.872C753.386 134.773 756.117 137.035 759.36 138.656C762.602 140.277 766.101 141.088 769.856 141.088C773.098 141.088 776.17 140.405 779.072 139.04C782.058 137.589 784.618 135.669 786.752 133.28C788.032 132 789.397 131.36 790.848 131.36C791.786 131.36 792.682 131.659 793.536 132.256C794.901 133.195 795.584 134.475 795.584 136.096C795.584 137.205 795.242 138.101 794.56 138.784C791.488 142.368 787.776 145.184 783.424 147.232C779.157 149.195 774.634 150.176 769.856 150.176C763.712 150.176 758.122 148.64 753.088 145.568C748.138 142.496 744.17 138.4 741.184 133.28C738.282 128.16 736.832 122.528 736.832 116.384C736.832 110.155 738.197 104.48 740.928 99.36C743.658 94.24 747.413 90.144 752.192 87.072C757.056 84 762.517 82.464 768.576 82.464C774.549 82.464 779.754 83.744 784.192 86.304C788.629 88.864 792.17 92.448 794.816 97.056C797.546 101.579 799.21 106.869 799.808 112.928C800.064 115.061 799.424 116.896 797.888 118.432C796.437 119.883 794.645 120.608 792.512 120.608ZM768.576 91.04C762.602 91.04 757.696 92.7893 753.856 96.288C750.016 99.7867 747.626 104.395 746.688 110.112C746.688 110.197 746.645 110.283 746.56 110.368C746.56 110.368 746.56 110.411 746.56 110.496C746.56 111.093 746.944 111.392 747.712 111.392H788.8C789.738 111.392 790.08 110.965 789.824 110.112C788.8 104.139 786.538 99.488 783.04 96.16C779.626 92.7467 774.805 91.04 768.576 91.04ZM942.898 82.464C944.178 82.3787 945.287 82.8053 946.226 83.744C947.164 84.5973 947.634 85.664 947.634 86.944C947.634 88.3093 947.164 89.4187 946.226 90.272C945.287 91.1253 944.178 91.5093 942.898 91.424L939.058 91.168C938.29 91.168 937.82 91.4667 937.65 92.064L919.73 146.208C919.388 147.403 918.663 148.384 917.554 149.152C916.53 149.92 915.378 150.304 914.098 150.304C912.818 150.304 911.666 149.92 910.642 149.152C909.703 148.384 909.02 147.403 908.594 146.208L894.258 100C894.172 99.488 893.916 99.232 893.49 99.232C893.148 99.232 892.892 99.488 892.722 100L878.258 146.08C877.916 147.36 877.191 148.384 876.082 149.152C875.058 149.92 873.906 150.304 872.626 150.304C871.346 150.304 870.194 149.92 869.17 149.152C868.146 148.384 867.42 147.36 866.994 146.08L849.33 92.064C849.159 91.4667 848.69 91.168 847.922 91.168L844.338 91.424C843.058 91.5093 841.948 91.1253 841.01 90.272C840.071 89.4187 839.602 88.3093 839.602 86.944C839.602 85.664 840.071 84.5973 841.01 83.744C841.948 82.8053 843.058 82.3787 844.338 82.464C846.556 82.6347 848.476 82.8053 850.098 82.976C851.804 83.0613 853.426 83.104 854.962 83.104C856.498 83.104 858.076 83.0613 859.698 82.976C861.404 82.8053 863.367 82.6347 865.586 82.464C866.866 82.3787 867.975 82.8053 868.914 83.744C869.852 84.5973 870.322 85.664 870.322 86.944C870.322 88.224 869.895 89.2907 869.042 90.144C868.188 90.9973 867.164 91.424 865.97 91.424C864.946 91.424 863.879 91.3813 862.77 91.296C861.746 91.1253 860.679 90.9973 859.57 90.912C858.631 90.912 858.29 91.3387 858.546 92.192L872.114 134.176C872.284 134.688 872.54 134.944 872.882 134.944C873.223 134.944 873.479 134.645 873.65 134.048L887.218 88.608C887.644 87.1573 888.455 86.0053 889.65 85.152C890.844 84.2987 892.124 83.872 893.49 83.872C894.94 83.872 896.22 84.2987 897.33 85.152C898.524 86.0053 899.335 87.1573 899.762 88.608L913.33 134.048C913.5 134.645 913.756 134.944 914.098 134.944C914.524 134.944 914.78 134.688 914.866 134.176L928.434 92.32C928.434 92.2347 928.434 92.1493 928.434 92.064C928.519 91.9787 928.562 91.8933 928.562 91.808C928.562 91.296 928.263 91.04 927.666 91.04C926.556 91.04 925.447 91.1253 924.338 91.296C923.314 91.3813 922.29 91.424 921.266 91.424C920.071 91.424 919.047 90.9973 918.194 90.144C917.34 89.2907 916.914 88.224 916.914 86.944C916.914 85.664 917.383 84.5973 918.322 83.744C919.26 82.8053 920.37 82.3787 921.65 82.464C923.868 82.6347 925.788 82.8053 927.41 82.976C929.116 83.0613 930.738 83.104 932.274 83.104C933.81 83.104 935.431 83.0613 937.138 82.976C938.844 82.8053 940.764 82.6347 942.898 82.464ZM972.225 71.328C970.091 71.328 968.257 70.6027 966.721 69.152C965.27 67.616 964.545 65.7813 964.545 63.648C964.545 61.4293 965.27 59.5947 966.721 58.144C968.257 56.6933 970.091 55.968 972.225 55.968C974.358 55.968 976.15 56.6933 977.601 58.144C979.137 59.5947 979.905 61.4293 979.905 63.648C979.905 65.7813 979.137 67.616 977.601 69.152C976.15 70.6027 974.358 71.328 972.225 71.328ZM961.089 150.304C959.638 150.389 958.358 149.92 957.249 148.896C956.225 147.957 955.713 146.763 955.713 145.312C955.713 143.861 956.225 142.624 957.249 141.6C958.358 140.576 959.638 140.149 961.089 140.32C961.857 140.405 962.667 140.491 963.521 140.576C964.459 140.661 965.355 140.747 966.208 140.832H966.465C967.062 140.832 967.361 140.448 967.361 139.68V93.088C967.361 92.4053 967.062 92.064 966.465 92.064C964.587 92.064 962.795 92.192 961.089 92.448C959.638 92.5333 958.358 92.1067 957.249 91.168C956.225 90.144 955.713 88.9067 955.713 87.456C955.713 86.0053 956.225 84.768 957.249 83.744C958.358 82.72 959.638 82.2933 961.089 82.464C963.478 82.6347 965.142 82.8053 966.081 82.976C967.019 83.0613 967.659 83.104 968.001 83.104C968.427 83.104 968.897 83.104 969.409 83.104C971.542 83.104 973.334 83.872 974.785 85.408C976.321 86.8587 977.089 88.6507 977.089 90.784V139.68C977.089 140.448 977.387 140.832 977.985 140.832C978.923 140.832 979.819 140.789 980.673 140.704C981.611 140.533 982.507 140.405 983.361 140.32C984.811 140.149 986.049 140.576 987.073 141.6C988.097 142.624 988.609 143.861 988.609 145.312C988.609 146.763 988.097 147.957 987.073 148.896C986.049 149.92 984.811 150.389 983.361 150.304C981.654 150.133 979.819 149.963 977.857 149.792C975.894 149.621 974.017 149.536 972.225 149.536C970.433 149.536 968.555 149.621 966.593 149.792C964.63 149.963 962.795 150.133 961.089 150.304ZM1037.73 128.16C1039.18 128.16 1040.41 128.672 1041.44 129.696C1042.46 130.72 1042.89 131.957 1042.72 133.408C1041.44 144.672 1035.85 150.304 1025.95 150.304C1022.71 150.304 1019.85 149.536 1017.37 148C1014.98 146.464 1013.11 144.459 1011.74 141.984C1010.38 139.424 1009.69 136.651 1009.69 133.664V93.472C1009.69 92.704 1009.31 92.32 1008.54 92.32H1000.86C999.667 92.32 998.6 91.8933 997.661 91.04C996.808 90.1013 996.382 89.0347 996.382 87.84C996.382 86.6453 996.808 85.6213 997.661 84.768C998.6 83.9147 999.667 83.488 1000.86 83.488H1008.54C1009.31 83.488 1009.69 83.104 1009.69 82.336V60.448C1009.69 59.0827 1010.16 57.9307 1011.1 56.992C1012.04 56.0533 1013.19 55.584 1014.56 55.584C1015.84 55.584 1016.95 56.0533 1017.89 56.992C1018.82 57.9307 1019.29 59.0827 1019.29 60.448V82.336C1019.29 83.104 1019.68 83.488 1020.45 83.488H1035.93C1037.13 83.488 1038.15 83.9147 1039.01 84.768C1039.86 85.6213 1040.29 86.6453 1040.29 87.84C1040.29 89.0347 1039.86 90.1013 1039.01 91.04C1038.15 91.8933 1037.13 92.32 1035.93 92.32H1020.45C1019.68 92.32 1019.29 92.704 1019.29 93.472V133.664C1019.29 133.92 1019.38 134.645 1019.55 135.84C1019.81 136.949 1020.4 138.059 1021.34 139.168C1022.28 140.192 1023.82 140.704 1025.95 140.704C1028.42 140.704 1030.17 140.021 1031.2 138.656C1032.22 137.291 1032.9 135.2 1033.25 132.384C1033.42 131.189 1033.93 130.208 1034.78 129.44C1035.63 128.587 1036.62 128.16 1037.73 128.16ZM1122.31 141.344C1123.51 141.344 1124.53 141.771 1125.39 142.624C1126.24 143.477 1126.67 144.544 1126.67 145.824C1126.67 147.104 1126.2 148.171 1125.26 149.024C1124.32 149.877 1123.21 150.261 1121.93 150.176C1119.2 149.92 1117.07 149.749 1115.53 149.664C1113.99 149.579 1112.59 149.536 1111.31 149.536C1109.69 149.536 1108.15 149.579 1106.7 149.664C1105.25 149.835 1103.24 150.005 1100.68 150.176C1099.4 150.261 1098.29 149.877 1097.35 149.024C1096.42 148.171 1095.95 147.104 1095.95 145.824C1095.95 144.544 1096.37 143.477 1097.23 142.624C1098.08 141.771 1099.1 141.344 1100.3 141.344C1101.07 141.344 1101.88 141.387 1102.73 141.472C1103.58 141.557 1104.44 141.643 1105.29 141.728H1105.55C1106.14 141.728 1106.44 141.387 1106.44 140.704V105.12C1106.44 101.365 1105.8 98.3787 1104.52 96.16C1103.33 93.856 1100.98 92.704 1097.48 92.704C1094.58 92.704 1091.17 93.5147 1087.24 95.136C1083.32 96.7573 1078.75 99.9573 1073.55 104.736C1073.12 105.163 1072.91 105.675 1072.91 106.272V140.704C1072.91 141.387 1073.21 141.728 1073.8 141.728C1074.74 141.728 1075.64 141.685 1076.49 141.6C1077.34 141.429 1078.2 141.344 1079.05 141.344C1080.25 141.344 1081.27 141.771 1082.12 142.624C1082.98 143.477 1083.4 144.544 1083.4 145.824C1083.4 147.104 1082.93 148.171 1081.99 149.024C1081.06 149.877 1079.95 150.261 1078.67 150.176C1076.02 149.92 1073.93 149.749 1072.39 149.664C1070.86 149.579 1069.41 149.536 1068.04 149.536C1066.51 149.536 1064.97 149.579 1063.43 149.664C1061.98 149.835 1059.98 150.005 1057.42 150.176C1056.14 150.261 1055.03 149.877 1054.09 149.024C1053.15 148.171 1052.68 147.104 1052.68 145.824C1052.68 144.544 1053.11 143.477 1053.96 142.624C1054.82 141.771 1055.84 141.344 1057.03 141.344C1057.72 141.344 1058.53 141.387 1059.47 141.472C1060.41 141.557 1061.3 141.643 1062.15 141.728H1062.41C1063.01 141.728 1063.31 141.387 1063.31 140.704V63.264C1063.31 62.5813 1063.01 62.24 1062.41 62.24C1061.39 62.24 1060.41 62.3253 1059.47 62.496C1058.61 62.5813 1057.72 62.624 1056.78 62.624C1055.58 62.624 1054.56 62.1973 1053.71 61.344C1052.85 60.4907 1052.43 59.424 1052.43 58.144C1052.43 56.864 1052.9 55.7973 1053.83 54.944C1054.77 54.0053 1055.88 53.6213 1057.16 53.792C1058.36 53.8773 1059.64 54.0053 1061 54.176C1062.45 54.2613 1063.86 54.3467 1065.23 54.432C1067.36 54.5173 1069.15 55.2853 1070.6 56.736C1072.14 58.1867 1072.91 59.9787 1072.91 62.112V93.984C1072.91 94.496 1073.03 94.7947 1073.29 94.88C1073.63 94.9653 1073.97 94.8373 1074.31 94.496C1079.09 89.9733 1083.49 86.8587 1087.5 85.152C1091.59 83.36 1095.43 82.464 1099.02 82.464C1103.46 82.464 1106.91 83.5307 1109.39 85.664C1111.86 87.712 1113.61 90.4853 1114.63 93.984C1115.66 97.3973 1116.17 101.152 1116.17 105.248V140.704C1116.17 141.387 1116.51 141.728 1117.19 141.728C1118.13 141.728 1118.99 141.685 1119.75 141.6C1120.61 141.429 1121.46 141.344 1122.31 141.344Z" fill="#657C7D"/>
<path d="M58.1793 97.792H66.6913C71.4699 97.792 75.6299 98.7947 79.1713 100.8C82.7126 102.805 85.4646 105.557 87.4273 109.056C89.4326 112.555 90.4353 116.587 90.4353 121.152C90.4353 126.144 89.4326 130.389 87.4273 133.888C85.4646 137.344 82.6699 139.989 79.0433 141.824C75.4593 143.659 71.2139 144.576 66.3073 144.576H57.7953C56.9846 144.576 56.1526 144.619 55.2993 144.704C54.4459 144.832 53.6353 144.96 52.8673 145.088C52.0993 145.173 51.4166 144.96 50.8193 144.448C50.2646 143.936 49.9873 143.275 49.9873 142.464C49.9873 141.653 50.2646 140.992 50.8193 140.48C51.4166 139.925 52.0993 139.712 52.8673 139.84C53.2086 139.883 53.5499 139.947 53.8913 140.032C54.2753 140.075 54.6593 140.117 55.0433 140.16H55.1713C55.4699 140.16 55.6193 139.989 55.6193 139.648V102.72C55.6193 102.251 55.4059 102.059 54.9792 102.144L52.8673 102.464C52.0993 102.592 51.4166 102.4 50.8193 101.888C50.2646 101.333 49.9873 100.672 49.9873 99.904C49.9873 99.0933 50.2646 98.432 50.8193 97.92C51.4166 97.3653 52.0993 97.152 52.8673 97.28C53.7206 97.3653 54.5953 97.472 55.4913 97.6C56.4299 97.728 57.3259 97.792 58.1793 97.792ZM60.6113 139.072C60.6113 139.456 60.8033 139.648 61.1873 139.648H66.3073C67.7579 139.648 69.3366 139.52 71.0433 139.264C72.7499 139.008 74.4566 138.517 76.1633 137.792C77.8699 137.067 79.4273 136.021 80.8353 134.656C82.2859 133.291 83.4379 131.52 84.2913 129.344C85.1446 127.125 85.5713 124.395 85.5713 121.152C85.5713 119.019 85.2299 116.885 84.5473 114.752C83.9073 112.576 82.8406 110.592 81.3473 108.8C79.8966 106.965 77.9553 105.493 75.5233 104.384C73.1339 103.275 70.1899 102.72 66.6913 102.72H61.1873C60.8033 102.72 60.6113 102.912 60.6113 103.296V139.072ZM105.925 105.664C104.858 105.664 103.941 105.301 103.173 104.576C102.447 103.808 102.085 102.891 102.085 101.824C102.085 100.715 102.447 99.7973 103.173 99.072C103.941 98.3467 104.858 97.984 105.925 97.984C106.991 97.984 107.887 98.3467 108.613 99.072C109.381 99.7973 109.765 100.715 109.765 101.824C109.765 102.891 109.381 103.808 108.613 104.576C107.887 105.301 106.991 105.664 105.925 105.664ZM100.357 145.152C99.6314 145.195 98.9914 144.96 98.4368 144.448C97.9248 143.979 97.6688 143.381 97.6688 142.656C97.6688 141.931 97.9248 141.312 98.4368 140.8C98.9914 140.288 99.6314 140.075 100.357 140.16C100.741 140.203 101.146 140.245 101.573 140.288C102.042 140.331 102.49 140.373 102.917 140.416H103.045C103.343 140.416 103.493 140.224 103.493 139.84V116.544C103.493 116.203 103.343 116.032 103.045 116.032C102.106 116.032 101.21 116.096 100.357 116.224C99.6314 116.267 98.9914 116.053 98.4368 115.584C97.9248 115.072 97.6688 114.453 97.6688 113.728C97.6688 113.003 97.9248 112.384 98.4368 111.872C98.9914 111.36 99.6314 111.147 100.357 111.232C101.551 111.317 102.383 111.403 102.853 111.488C103.322 111.531 103.642 111.552 103.813 111.552C104.026 111.552 104.261 111.552 104.517 111.552C105.583 111.552 106.479 111.936 107.205 112.704C107.973 113.429 108.357 114.325 108.357 115.392V139.84C108.357 140.224 108.506 140.416 108.805 140.416C109.274 140.416 109.722 140.395 110.149 140.352C110.618 140.267 111.066 140.203 111.493 140.16C112.218 140.075 112.837 140.288 113.349 140.8C113.861 141.312 114.117 141.931 114.117 142.656C114.117 143.381 113.861 143.979 113.349 144.448C112.837 144.96 112.218 145.195 111.493 145.152C110.639 145.067 109.722 144.981 108.741 144.896C107.759 144.811 106.821 144.768 105.925 144.768C105.029 144.768 104.09 144.811 103.109 144.896C102.127 144.981 101.21 145.067 100.357 145.152ZM153.395 111.296C154.078 111.211 154.675 111.403 155.187 111.872C155.699 112.299 155.955 112.875 155.955 113.6C155.955 114.283 155.699 114.88 155.187 115.392C154.675 115.861 154.078 116.053 153.395 115.968C152.969 115.883 152.521 115.819 152.051 115.776C151.625 115.733 151.177 115.691 150.707 115.648H150.579C150.281 115.648 150.131 115.819 150.131 116.16V142.656C150.131 144.448 149.833 146.368 149.235 148.416C148.638 150.507 147.721 152.469 146.483 154.304C145.246 156.139 143.646 157.632 141.683 158.784C139.763 159.979 137.438 160.576 134.707 160.576C132.233 160.576 130.121 160.171 128.371 159.36C126.622 158.549 125.171 157.44 124.019 156.032C123.337 155.221 122.825 154.368 122.483 153.472C122.185 152.576 122.035 151.723 122.035 150.912C122.035 149.675 122.377 148.608 123.059 147.712C123.742 146.859 124.723 146.432 126.003 146.432C127.241 146.432 128.201 146.837 128.883 147.648C129.609 148.501 129.971 149.44 129.971 150.464C129.971 151.616 129.523 152.576 128.627 153.344C128.329 153.643 128.265 153.899 128.435 154.112C128.947 154.837 129.694 155.392 130.675 155.776C131.657 156.16 133.001 156.352 134.707 156.352C136.542 156.352 138.121 155.947 139.443 155.136C140.809 154.325 141.918 153.237 142.771 151.872C143.625 150.549 144.265 149.077 144.691 147.456C145.118 145.835 145.331 144.235 145.331 142.656V141.12C145.331 140.864 145.267 140.715 145.139 140.672C145.011 140.587 144.841 140.629 144.627 140.8C143.475 141.952 142.153 142.869 140.659 143.552C139.209 144.235 137.609 144.576 135.859 144.576C133.171 144.576 130.803 144.085 128.755 143.104C126.75 142.123 125.065 140.843 123.699 139.264C122.377 137.643 121.374 135.851 120.691 133.888C120.051 131.883 119.731 129.899 119.731 127.936C119.731 126.016 120.051 124.075 120.691 122.112C121.331 120.149 122.27 118.357 123.507 116.736C124.787 115.072 126.409 113.749 128.371 112.768C130.334 111.787 132.617 111.296 135.219 111.296C137.225 111.296 138.995 111.616 140.531 112.256C142.067 112.896 143.433 113.771 144.627 114.88C144.755 115.008 144.883 115.072 145.011 115.072C145.225 115.072 145.331 114.923 145.331 114.624V114.112C145.331 113.429 145.566 112.853 146.035 112.384C146.505 111.915 147.081 111.68 147.763 111.68H150.131C150.259 111.68 150.558 111.659 151.027 111.616C151.539 111.531 152.03 111.467 152.499 111.424C152.969 111.339 153.267 111.296 153.395 111.296ZM135.795 139.904C137.929 139.904 139.763 139.499 141.299 138.688C142.878 137.877 144.137 136.853 145.075 135.616C145.246 135.403 145.331 135.168 145.331 134.912V120.64C145.331 120.384 145.246 120.149 145.075 119.936C143.881 118.656 142.473 117.653 140.851 116.928C139.23 116.203 137.523 115.84 135.731 115.84C133.513 115.84 131.571 116.373 129.907 117.44C128.286 118.507 127.006 119.957 126.067 121.792C125.171 123.584 124.723 125.611 124.723 127.872C124.723 130.091 125.193 132.117 126.131 133.952C127.113 135.787 128.435 137.237 130.099 138.304C131.806 139.371 133.705 139.904 135.795 139.904ZM169.737 105.664C168.671 105.664 167.753 105.301 166.985 104.576C166.26 103.808 165.897 102.891 165.897 101.824C165.897 100.715 166.26 99.7973 166.985 99.072C167.753 98.3467 168.671 97.984 169.737 97.984C170.804 97.984 171.7 98.3467 172.425 99.072C173.193 99.7973 173.577 100.715 173.577 101.824C173.577 102.891 173.193 103.808 172.425 104.576C171.7 105.301 170.804 105.664 169.737 105.664ZM164.169 145.152C163.444 145.195 162.804 144.96 162.249 144.448C161.737 143.979 161.481 143.381 161.481 142.656C161.481 141.931 161.737 141.312 162.249 140.8C162.804 140.288 163.444 140.075 164.169 140.16C164.553 140.203 164.959 140.245 165.385 140.288C165.855 140.331 166.303 140.373 166.729 140.416H166.857C167.156 140.416 167.305 140.224 167.305 139.84V116.544C167.305 116.203 167.156 116.032 166.857 116.032C165.919 116.032 165.023 116.096 164.169 116.224C163.444 116.267 162.804 116.053 162.249 115.584C161.737 115.072 161.481 114.453 161.481 113.728C161.481 113.003 161.737 112.384 162.249 111.872C162.804 111.36 163.444 111.147 164.169 111.232C165.364 111.317 166.196 111.403 166.665 111.488C167.135 111.531 167.455 111.552 167.625 111.552C167.839 111.552 168.073 111.552 168.329 111.552C169.396 111.552 170.292 111.936 171.017 112.704C171.785 113.429 172.169 114.325 172.169 115.392V139.84C172.169 140.224 172.319 140.416 172.617 140.416C173.087 140.416 173.535 140.395 173.961 140.352C174.431 140.267 174.879 140.203 175.305 140.16C176.031 140.075 176.649 140.288 177.161 140.8C177.673 141.312 177.929 141.931 177.929 142.656C177.929 143.381 177.673 143.979 177.161 144.448C176.649 144.96 176.031 145.195 175.305 145.152C174.452 145.067 173.535 144.981 172.553 144.896C171.572 144.811 170.633 144.768 169.737 144.768C168.841 144.768 167.903 144.811 166.921 144.896C165.94 144.981 165.023 145.067 164.169 145.152ZM202.488 134.08C203.213 134.08 203.832 134.336 204.344 134.848C204.856 135.36 205.069 135.979 204.984 136.704C204.344 142.336 201.549 145.152 196.6 145.152C194.978 145.152 193.549 144.768 192.312 144C191.117 143.232 190.178 142.229 189.496 140.992C188.813 139.712 188.472 138.325 188.472 136.832V116.736C188.472 116.352 188.28 116.16 187.896 116.16H184.056C183.458 116.16 182.925 115.947 182.456 115.52C182.029 115.051 181.816 114.517 181.816 113.92C181.816 113.323 182.029 112.811 182.456 112.384C182.925 111.957 183.458 111.744 184.056 111.744H187.896C188.28 111.744 188.472 111.552 188.472 111.168V100.224C188.472 99.5413 188.706 98.9653 189.176 98.496C189.645 98.0267 190.221 97.792 190.904 97.792C191.544 97.792 192.098 98.0267 192.568 98.496C193.037 98.9653 193.272 99.5413 193.272 100.224V111.168C193.272 111.552 193.464 111.744 193.848 111.744H201.592C202.189 111.744 202.701 111.957 203.128 112.384C203.554 112.811 203.768 113.323 203.768 113.92C203.768 114.517 203.554 115.051 203.128 115.52C202.701 115.947 202.189 116.16 201.592 116.16H193.848C193.464 116.16 193.272 116.352 193.272 116.736V136.832C193.272 136.96 193.314 137.323 193.4 137.92C193.528 138.475 193.826 139.029 194.296 139.584C194.765 140.096 195.533 140.352 196.6 140.352C197.837 140.352 198.712 140.011 199.224 139.328C199.736 138.645 200.077 137.6 200.248 136.192C200.333 135.595 200.589 135.104 201.016 134.72C201.442 134.293 201.933 134.08 202.488 134.08ZM239.79 140.224C240.43 140.224 240.964 140.48 241.39 140.992C241.86 141.461 242.094 142.016 242.094 142.656C242.094 143.424 241.817 144.043 241.262 144.512C240.708 145.024 240.068 145.216 239.342 145.088C238.788 144.96 238.19 144.853 237.55 144.768C236.91 144.683 236.27 144.619 235.63 144.576C234.777 144.576 234.009 144.32 233.326 143.808C232.644 143.296 232.174 142.635 231.918 141.824C231.79 141.44 231.577 141.376 231.278 141.632C229.828 142.741 228.249 143.595 226.542 144.192C224.836 144.789 222.809 145.088 220.462 145.088C217.646 145.088 215.3 144.277 213.422 142.656C211.545 140.992 210.606 138.837 210.606 136.192C210.606 133.163 211.673 130.688 213.806 128.768C215.94 126.848 218.756 125.888 222.254 125.888C223.577 125.888 224.985 126.037 226.478 126.336C227.972 126.635 229.508 127.104 231.086 127.744C231.129 127.744 231.172 127.765 231.214 127.808C231.257 127.808 231.3 127.808 231.342 127.808C231.641 127.808 231.79 127.637 231.79 127.296V124.736C231.79 121.707 230.98 119.445 229.358 117.952C227.78 116.459 225.924 115.712 223.79 115.712C222.382 115.712 220.932 116.032 219.438 116.672C219.14 116.843 219.033 117.099 219.118 117.44C219.246 117.824 219.31 118.187 219.31 118.528C219.31 119.467 218.969 120.32 218.286 121.088C217.646 121.856 216.772 122.24 215.662 122.24C214.51 122.24 213.593 121.856 212.91 121.088C212.27 120.277 211.95 119.36 211.95 118.336C211.95 117.269 212.334 116.288 213.102 115.392C214.254 114.069 215.684 113.045 217.39 112.32C219.14 111.595 220.996 111.232 222.958 111.232C226.286 111.232 228.932 111.851 230.894 113.088C232.9 114.325 234.329 115.968 235.182 118.016C236.078 120.064 236.526 122.304 236.526 124.736V140.16C236.526 140.501 236.697 140.672 237.038 140.672C237.508 140.672 237.977 140.608 238.446 140.48C238.916 140.309 239.364 140.224 239.79 140.224ZM220.462 140.48C222.937 140.395 225.006 139.989 226.67 139.264C228.334 138.539 229.956 137.365 231.534 135.744C231.705 135.531 231.79 135.296 231.79 135.04V133.248C231.79 132.949 231.662 132.736 231.406 132.608C230.51 132.096 229.38 131.584 228.014 131.072C226.649 130.56 224.814 130.304 222.51 130.304C219.865 130.304 217.966 130.901 216.814 132.096C215.705 133.291 215.15 134.656 215.15 136.192C215.15 137.216 215.428 138.048 215.982 138.688C216.537 139.285 217.22 139.733 218.03 140.032C218.884 140.331 219.694 140.48 220.462 140.48ZM260.54 140.672C261.138 140.672 261.65 140.885 262.076 141.312C262.503 141.739 262.716 142.272 262.716 142.912C262.716 143.552 262.482 144.085 262.012 144.512C261.543 144.981 260.967 145.195 260.284 145.152C258.962 145.024 257.895 144.917 257.084 144.832C256.274 144.789 255.484 144.768 254.716 144.768C253.82 144.768 252.967 144.789 252.156 144.832C251.388 144.917 250.386 145.024 249.148 145.152C248.466 145.195 247.89 144.981 247.42 144.512C246.951 144.085 246.716 143.552 246.716 142.912C246.716 142.272 246.93 141.739 247.356 141.312C247.783 140.885 248.295 140.672 248.892 140.672C249.319 140.672 249.767 140.693 250.236 140.736C250.748 140.779 251.239 140.821 251.708 140.864H251.836C252.135 140.864 252.284 140.693 252.284 140.352V101.632C252.284 101.291 252.135 101.12 251.836 101.12C251.324 101.12 250.812 101.163 250.3 101.248C249.831 101.291 249.362 101.312 248.892 101.312C248.295 101.312 247.783 101.099 247.356 100.672C246.93 100.245 246.716 99.7333 246.716 99.136C246.716 98.4533 246.951 97.8987 247.42 97.472C247.89 97.0027 248.466 96.8107 249.148 96.896C249.788 96.9387 250.471 97.0027 251.196 97.088C251.922 97.1307 252.626 97.1733 253.308 97.216C254.332 97.2587 255.228 97.6427 255.996 98.368C256.764 99.0933 257.148 99.9893 257.148 101.056V140.352C257.148 140.693 257.319 140.864 257.66 140.864C258.172 140.864 258.663 140.843 259.132 140.8C259.644 140.715 260.114 140.672 260.54 140.672ZM313.665 140.224C314.305 140.224 314.839 140.48 315.265 140.992C315.735 141.461 315.969 142.016 315.969 142.656C315.969 143.424 315.692 144.043 315.137 144.512C314.583 145.024 313.943 145.216 313.217 145.088C312.663 144.96 312.065 144.853 311.425 144.768C310.785 144.683 310.145 144.619 309.505 144.576C308.652 144.576 307.884 144.32 307.201 143.808C306.519 143.296 306.049 142.635 305.793 141.824C305.665 141.44 305.452 141.376 305.153 141.632C303.703 142.741 302.124 143.595 300.417 144.192C298.711 144.789 296.684 145.088 294.337 145.088C291.521 145.088 289.175 144.277 287.297 142.656C285.42 140.992 284.481 138.837 284.481 136.192C284.481 133.163 285.548 130.688 287.681 128.768C289.815 126.848 292.631 125.888 296.129 125.888C297.452 125.888 298.86 126.037 300.353 126.336C301.847 126.635 303.383 127.104 304.961 127.744C305.004 127.744 305.047 127.765 305.089 127.808C305.132 127.808 305.175 127.808 305.217 127.808C305.516 127.808 305.665 127.637 305.665 127.296V124.736C305.665 121.707 304.855 119.445 303.233 117.952C301.655 116.459 299.799 115.712 297.665 115.712C296.257 115.712 294.807 116.032 293.313 116.672C293.015 116.843 292.908 117.099 292.993 117.44C293.121 117.824 293.185 118.187 293.185 118.528C293.185 119.467 292.844 120.32 292.161 121.088C291.521 121.856 290.647 122.24 289.537 122.24C288.385 122.24 287.468 121.856 286.785 121.088C286.145 120.277 285.825 119.36 285.825 118.336C285.825 117.269 286.209 116.288 286.977 115.392C288.129 114.069 289.559 113.045 291.265 112.32C293.015 111.595 294.871 111.232 296.833 111.232C300.161 111.232 302.807 111.851 304.769 113.088C306.775 114.325 308.204 115.968 309.057 118.016C309.953 120.064 310.401 122.304 310.401 124.736V140.16C310.401 140.501 310.572 140.672 310.913 140.672C311.383 140.672 311.852 140.608 312.321 140.48C312.791 140.309 313.239 140.224 313.665 140.224ZM294.337 140.48C296.812 140.395 298.881 139.989 300.545 139.264C302.209 138.539 303.831 137.365 305.409 135.744C305.58 135.531 305.665 135.296 305.665 135.04V133.248C305.665 132.949 305.537 132.736 305.281 132.608C304.385 132.096 303.255 131.584 301.889 131.072C300.524 130.56 298.689 130.304 296.385 130.304C293.74 130.304 291.841 130.901 290.689 132.096C289.58 133.291 289.025 134.656 289.025 136.192C289.025 137.216 289.303 138.048 289.857 138.688C290.412 139.285 291.095 139.733 291.905 140.032C292.759 140.331 293.569 140.48 294.337 140.48ZM349.903 113.408C350.159 113.963 350.287 114.496 350.287 115.008C350.287 115.989 349.925 116.821 349.199 117.504C348.474 118.187 347.621 118.528 346.639 118.528C345.914 118.528 345.253 118.336 344.655 117.952C344.101 117.525 343.653 117.013 343.311 116.416C343.183 116.117 342.949 115.968 342.607 115.968C341.071 116.096 339.599 116.736 338.191 117.888C336.826 118.997 335.61 120.405 334.543 122.112C333.477 123.819 332.623 125.653 331.983 127.616C331.898 127.787 331.855 128.021 331.855 128.32V140.352C331.855 140.693 332.005 140.864 332.303 140.864C332.815 140.864 333.306 140.843 333.775 140.8C334.287 140.715 334.799 140.672 335.311 140.672C335.909 140.672 336.421 140.885 336.847 141.312C337.274 141.739 337.487 142.272 337.487 142.912C337.487 143.552 337.253 144.085 336.783 144.512C336.314 144.981 335.738 145.195 335.055 145.152C333.733 145.024 332.666 144.917 331.855 144.832C331.045 144.789 330.255 144.768 329.487 144.768C328.591 144.768 327.738 144.789 326.927 144.832C326.159 144.917 325.157 145.024 323.919 145.152C323.237 145.195 322.661 144.981 322.191 144.512C321.722 144.085 321.487 143.552 321.487 142.912C321.487 142.272 321.701 141.739 322.127 141.312C322.554 140.885 323.066 140.672 323.663 140.672C324.09 140.672 324.538 140.693 325.007 140.736C325.519 140.779 326.01 140.821 326.479 140.864H326.607C326.906 140.864 327.055 140.693 327.055 140.352V116.544C327.055 116.203 326.906 116.032 326.607 116.032C325.669 116.032 324.773 116.096 323.919 116.224C323.194 116.267 322.554 116.053 321.999 115.584C321.487 115.072 321.231 114.453 321.231 113.728C321.231 113.003 321.487 112.405 321.999 111.936C322.554 111.424 323.194 111.211 323.919 111.296C324.815 111.381 325.498 111.445 325.967 111.488C326.479 111.531 326.97 111.552 327.439 111.552C327.951 111.552 328.634 111.552 329.487 111.552C330.17 111.552 330.725 111.787 331.151 112.256C331.621 112.725 331.855 113.28 331.855 113.92V117.632C331.855 117.888 331.919 118.059 332.047 118.144C332.218 118.187 332.389 118.101 332.559 117.888C333.839 116.011 335.354 114.453 337.103 113.216C338.895 111.979 340.986 111.211 343.375 110.912C343.631 110.869 343.887 110.848 344.143 110.848C344.399 110.805 344.655 110.784 344.911 110.784C346.021 110.784 347.023 110.976 347.919 111.36C348.858 111.744 349.519 112.427 349.903 113.408ZM373.175 134.08C373.901 134.08 374.519 134.336 375.031 134.848C375.543 135.36 375.757 135.979 375.671 136.704C375.031 142.336 372.237 145.152 367.287 145.152C365.666 145.152 364.237 144.768 362.999 144C361.805 143.232 360.866 142.229 360.183 140.992C359.501 139.712 359.159 138.325 359.159 136.832V116.736C359.159 116.352 358.967 116.16 358.583 116.16H354.743C354.146 116.16 353.613 115.947 353.143 115.52C352.717 115.051 352.503 114.517 352.503 113.92C352.503 113.323 352.717 112.811 353.143 112.384C353.613 111.957 354.146 111.744 354.743 111.744H358.583C358.967 111.744 359.159 111.552 359.159 111.168V100.224C359.159 99.5413 359.394 98.9653 359.863 98.496C360.333 98.0267 360.909 97.792 361.591 97.792C362.231 97.792 362.786 98.0267 363.255 98.496C363.725 98.9653 363.959 99.5413 363.959 100.224V111.168C363.959 111.552 364.151 111.744 364.535 111.744H372.279C372.877 111.744 373.389 111.957 373.815 112.384C374.242 112.811 374.455 113.323 374.455 113.92C374.455 114.517 374.242 115.051 373.815 115.52C373.389 115.947 372.877 116.16 372.279 116.16H364.535C364.151 116.16 363.959 116.352 363.959 116.736V136.832C363.959 136.96 364.002 137.323 364.087 137.92C364.215 138.475 364.514 139.029 364.983 139.584C365.453 140.096 366.221 140.352 367.287 140.352C368.525 140.352 369.399 140.011 369.911 139.328C370.423 138.645 370.765 137.6 370.935 136.192C371.021 135.595 371.277 135.104 371.703 134.72C372.13 134.293 372.621 134.08 373.175 134.08ZM388.398 120.832C388.398 121.899 388.91 122.731 389.934 123.328C391 123.925 392.344 124.416 393.966 124.8C395.63 125.184 397.379 125.589 399.214 126.016C401.048 126.443 402.776 126.997 404.398 127.68C406.062 128.363 407.406 129.323 408.43 130.56C409.496 131.755 410.03 133.376 410.03 135.424C410.03 137.173 409.475 138.795 408.366 140.288C407.299 141.739 405.699 142.912 403.566 143.808C401.475 144.661 398.894 145.088 395.822 145.088C394.2 145.088 392.536 144.896 390.83 144.512C389.166 144.128 387.63 143.595 386.222 142.912C384.814 142.187 383.683 141.355 382.83 140.416C381.976 139.435 381.55 138.347 381.55 137.152C381.55 136.128 381.912 135.253 382.638 134.528C383.363 133.803 384.216 133.44 385.198 133.44C386.307 133.44 387.182 133.824 387.822 134.592C388.504 135.317 388.846 136.171 388.846 137.152C388.846 137.323 388.824 137.493 388.782 137.664C388.782 137.792 388.76 137.941 388.718 138.112C388.675 138.155 388.654 138.24 388.654 138.368C388.654 138.581 388.782 138.752 389.038 138.88C389.976 139.264 391.022 139.627 392.174 139.968C393.326 140.309 394.542 140.48 395.822 140.48C397.486 140.48 399.022 140.288 400.43 139.904C401.88 139.477 403.032 138.88 403.886 138.112C404.782 137.344 405.23 136.384 405.23 135.232C405.23 134.037 404.696 133.12 403.63 132.48C402.606 131.797 401.262 131.264 399.598 130.88C397.976 130.453 396.248 130.048 394.414 129.664C392.579 129.237 390.83 128.704 389.166 128.064C387.544 127.381 386.2 126.485 385.134 125.376C384.11 124.224 383.598 122.709 383.598 120.832C383.598 119.125 384.067 117.568 385.006 116.16C385.987 114.709 387.438 113.557 389.358 112.704C391.32 111.808 393.752 111.36 396.654 111.36C398.616 111.36 400.472 111.616 402.222 112.128C404.014 112.64 405.464 113.387 406.574 114.368C407.726 115.349 408.302 116.523 408.302 117.888C408.302 118.016 408.302 118.165 408.302 118.336C408.302 118.464 408.28 118.592 408.238 118.72C408.11 119.573 407.704 120.299 407.022 120.896C406.339 121.451 405.55 121.728 404.654 121.728C403.587 121.728 402.712 121.365 402.03 120.64C401.347 119.915 401.006 119.061 401.006 118.08C401.006 117.952 401.006 117.824 401.006 117.696C401.006 117.525 401.027 117.376 401.07 117.248C401.112 117.205 401.134 117.12 401.134 116.992C401.134 116.736 401.006 116.587 400.75 116.544C399.683 116.075 398.318 115.84 396.654 115.84C395.374 115.84 394.094 116.032 392.814 116.416C391.534 116.757 390.467 117.291 389.614 118.016C388.803 118.741 388.398 119.68 388.398 120.832Z" fill="#FEF0E7"/>
<path d="M78.518 304.344C79.7127 304.344 80.7367 304.771 81.59 305.624C82.4433 306.477 82.87 307.544 82.87 308.824C82.87 310.104 82.4007 311.171 81.462 312.024C80.5233 312.963 79.3713 313.389 78.006 313.304C75.3607 313.048 73.2273 312.835 71.606 312.664C69.9847 312.579 68.406 312.536 66.87 312.536C65.078 312.536 63.3713 312.579 61.75 312.664C60.214 312.835 58.2087 313.048 55.734 313.304C54.3687 313.389 53.2167 312.963 52.278 312.024C51.3393 311.171 50.87 310.104 50.87 308.824C50.87 307.544 51.2967 306.477 52.15 305.624C53.0033 304.771 54.0273 304.344 55.222 304.344C56.0753 304.344 56.9713 304.387 57.91 304.472C58.934 304.557 59.9153 304.643 60.854 304.728H61.11C61.7073 304.728 62.006 304.387 62.006 303.704L62.006 226.264C62.006 225.581 61.7073 225.24 61.11 225.24C60.086 225.24 59.062 225.325 58.038 225.496C57.0993 225.581 56.1607 225.624 55.222 225.624C54.0273 225.624 53.0033 225.197 52.15 224.344C51.2967 223.491 50.87 222.467 50.87 221.272C50.87 219.907 51.3393 218.797 52.278 217.944C53.2167 217.005 54.3687 216.621 55.734 216.792C57.014 216.877 58.3793 217.005 59.83 217.176C61.2807 217.261 62.6887 217.347 64.054 217.432C66.102 217.517 67.894 218.285 69.43 219.736C70.966 221.187 71.734 222.979 71.734 225.112V303.704C71.734 304.387 72.0753 304.728 72.758 304.728C73.782 304.728 74.7633 304.685 75.702 304.6C76.726 304.429 77.6647 304.344 78.518 304.344ZM128.96 313.304C124.181 313.304 119.701 312.451 115.52 310.744C111.339 308.952 107.669 306.52 104.512 303.448C101.355 300.291 98.88 296.664 97.088 292.568C95.296 288.472 94.4 284.077 94.4 279.384C94.4 274.691 95.296 270.296 97.088 266.2C98.88 262.104 101.355 258.52 104.512 255.448C107.669 252.291 111.339 249.859 115.52 248.152C119.701 246.36 124.181 245.464 128.96 245.464C133.739 245.464 138.176 246.36 142.272 248.152C146.453 249.859 150.123 252.291 153.28 255.448C156.437 258.52 158.912 262.104 160.704 266.2C162.496 270.296 163.392 274.691 163.392 279.384C163.392 284.077 162.496 288.472 160.704 292.568C158.912 296.664 156.437 300.291 153.28 303.448C150.123 306.52 146.453 308.952 142.272 310.744C138.176 312.451 133.739 313.304 128.96 313.304ZM128.96 304.216C133.824 304.216 138.133 303.064 141.888 300.76C145.643 298.456 148.587 295.427 150.72 291.672C152.853 287.917 153.92 283.821 153.92 279.384C153.92 274.947 152.811 270.851 150.592 267.096C148.459 263.341 145.515 260.312 141.76 258.008C138.005 255.704 133.739 254.552 128.96 254.552C124.011 254.552 119.659 255.704 115.904 258.008C112.149 260.312 109.205 263.341 107.072 267.096C104.939 270.851 103.872 274.947 103.872 279.384C103.872 283.821 104.939 287.917 107.072 291.672C109.291 295.427 112.277 298.456 116.032 300.76C119.787 303.064 124.096 304.216 128.96 304.216ZM244.886 245.592C246.251 245.421 247.403 245.805 248.342 246.744C249.281 247.597 249.75 248.664 249.75 249.944C249.75 251.309 249.281 252.419 248.342 253.272C247.403 254.125 246.251 254.509 244.886 254.424L241.43 254.168C240.747 254.168 240.278 254.424 240.022 254.936L215.958 310.104C215.105 312.237 213.483 313.304 211.094 313.304C208.79 313.304 207.126 312.237 206.102 310.104L181.142 254.936C180.886 254.424 180.417 254.168 179.734 254.168L176.278 254.424C174.913 254.509 173.761 254.125 172.822 253.272C171.883 252.419 171.414 251.309 171.414 249.944C171.414 248.664 171.883 247.597 172.822 246.744C173.761 245.805 174.913 245.421 176.278 245.592C178.497 245.763 180.417 245.891 182.038 245.976C183.659 246.061 185.281 246.104 186.902 246.104C188.438 246.104 190.017 246.061 191.638 245.976C193.345 245.891 195.265 245.763 197.398 245.592C198.763 245.421 199.915 245.805 200.854 246.744C201.793 247.597 202.262 248.664 202.262 249.944C202.262 251.224 201.835 252.291 200.982 253.144C200.129 253.997 199.105 254.424 197.91 254.424C197.142 254.424 196.289 254.381 195.35 254.296C194.497 254.211 193.601 254.125 192.662 254.04H192.406C191.553 254.04 191.339 254.467 191.766 255.32L210.454 297.432C210.71 297.944 210.966 298.2 211.222 298.2C211.649 298.2 211.905 297.944 211.99 297.432L229.526 255.32C229.611 255.149 229.654 254.936 229.654 254.68C229.654 254.253 229.398 254.04 228.886 254.04C228.033 254.04 227.094 254.125 226.07 254.296C225.131 254.381 224.193 254.424 223.254 254.424C222.059 254.424 221.035 253.997 220.182 253.144C219.329 252.291 218.902 251.224 218.902 249.944C218.902 248.664 219.371 247.597 220.31 246.744C221.249 245.805 222.401 245.421 223.766 245.592C225.985 245.763 227.905 245.891 229.526 245.976C231.233 246.061 232.854 246.104 234.39 246.104C235.926 246.104 237.505 246.061 239.126 245.976C240.833 245.891 242.753 245.763 244.886 245.592ZM313.199 283.608H268.399C267.546 283.608 267.204 284.035 267.375 284.888C268.143 288.643 269.636 291.971 271.855 294.872C274.074 297.773 276.804 300.035 280.047 301.656C283.29 303.277 286.788 304.088 290.543 304.088C293.786 304.088 296.858 303.405 299.759 302.04C302.746 300.589 305.306 298.669 307.439 296.28C308.719 295 310.084 294.36 311.535 294.36C312.474 294.36 313.37 294.659 314.223 295.256C315.588 296.195 316.271 297.475 316.271 299.096C316.271 300.205 315.93 301.101 315.247 301.784C312.175 305.368 308.463 308.184 304.111 310.232C299.844 312.195 295.322 313.176 290.543 313.176C284.399 313.176 278.81 311.64 273.775 308.568C268.826 305.496 264.858 301.4 261.871 296.28C258.97 291.16 257.519 285.528 257.519 279.384C257.519 273.155 258.884 267.48 261.615 262.36C264.346 257.24 268.1 253.144 272.879 250.072C277.743 247 283.204 245.464 289.263 245.464C295.236 245.464 300.442 246.744 304.879 249.304C309.316 251.864 312.858 255.448 315.503 260.056C318.234 264.579 319.898 269.869 320.495 275.928C320.751 278.061 320.111 279.896 318.575 281.432C317.124 282.883 315.332 283.608 313.199 283.608ZM289.263 254.04C283.29 254.04 278.383 255.789 274.543 259.288C270.703 262.787 268.314 267.395 267.375 273.112C267.375 273.197 267.332 273.283 267.247 273.368C267.247 273.368 267.247 273.411 267.247 273.496C267.247 274.093 267.631 274.392 268.399 274.392H309.487C310.426 274.392 310.767 273.965 310.511 273.112C309.487 267.139 307.226 262.488 303.727 259.16C300.314 255.747 295.492 254.04 289.263 254.04ZM423.393 303.448C424.673 303.448 425.74 303.96 426.593 304.984C427.532 305.923 428.001 307.032 428.001 308.312C428.001 309.848 427.446 311.085 426.337 312.024C425.228 313.048 423.948 313.432 422.497 313.176C421.388 312.92 420.193 312.707 418.913 312.536C417.633 312.365 416.353 312.237 415.073 312.152C413.366 312.152 411.83 311.64 410.465 310.616C409.1 309.592 408.161 308.269 407.649 306.648C407.393 305.88 406.966 305.752 406.369 306.264C403.468 308.483 400.31 310.189 396.897 311.384C393.484 312.579 389.43 313.176 384.737 313.176C379.105 313.176 374.412 311.555 370.657 308.312C366.902 304.984 365.025 300.675 365.025 295.384C365.025 289.325 367.158 284.376 371.425 280.536C375.692 276.696 381.324 274.776 388.321 274.776C390.966 274.776 393.782 275.075 396.769 275.672C399.756 276.269 402.828 277.208 405.985 278.488C406.07 278.488 406.156 278.531 406.241 278.616C406.326 278.616 406.412 278.616 406.497 278.616C407.094 278.616 407.393 278.275 407.393 277.592V272.472C407.393 266.413 405.772 261.891 402.529 258.904C399.372 255.917 395.66 254.424 391.393 254.424C388.577 254.424 385.676 255.064 382.689 256.344C382.092 256.685 381.878 257.197 382.049 257.88C382.305 258.648 382.433 259.373 382.433 260.056C382.433 261.933 381.75 263.64 380.385 265.176C379.105 266.712 377.356 267.48 375.137 267.48C372.833 267.48 370.998 266.712 369.633 265.176C368.353 263.555 367.713 261.72 367.713 259.672C367.713 257.539 368.481 255.576 370.017 253.784C372.321 251.139 375.18 249.091 378.593 247.64C382.092 246.189 385.804 245.464 389.729 245.464C396.385 245.464 401.676 246.701 405.601 249.176C409.612 251.651 412.47 254.936 414.177 259.032C415.969 263.128 416.865 267.608 416.865 272.472V303.32C416.865 304.003 417.206 304.344 417.889 304.344C418.828 304.344 419.766 304.216 420.705 303.96C421.644 303.619 422.54 303.448 423.393 303.448ZM384.737 303.96C389.686 303.789 393.825 302.979 397.153 301.528C400.481 300.077 403.724 297.731 406.881 294.488C407.222 294.061 407.393 293.592 407.393 293.08V289.496C407.393 288.899 407.137 288.472 406.625 288.216C404.833 287.192 402.572 286.168 399.841 285.144C397.11 284.12 393.441 283.608 388.833 283.608C383.542 283.608 379.745 284.803 377.441 287.192C375.222 289.581 374.113 292.312 374.113 295.384C374.113 297.432 374.668 299.096 375.777 300.376C376.886 301.571 378.252 302.467 379.873 303.064C381.58 303.661 383.201 303.96 384.737 303.96ZM508.413 304.344C509.608 304.344 510.632 304.771 511.485 305.624C512.338 306.477 512.765 307.544 512.765 308.824C512.765 310.104 512.296 311.171 511.357 312.024C510.418 312.877 509.309 313.261 508.029 313.176C505.384 312.92 503.293 312.749 501.757 312.664C500.221 312.579 498.77 312.536 497.405 312.536C495.869 312.536 494.333 312.579 492.797 312.664C491.346 312.835 489.341 313.005 486.781 313.176C485.501 313.261 484.392 312.877 483.453 312.024C482.514 311.171 482.045 310.104 482.045 308.824C482.045 307.544 482.472 306.477 483.325 305.624C484.178 304.771 485.202 304.344 486.397 304.344C487.165 304.344 487.976 304.387 488.829 304.472C489.682 304.557 490.536 304.643 491.389 304.728H491.645C492.242 304.728 492.541 304.387 492.541 303.704V268.12C492.541 264.365 491.901 261.379 490.621 259.16C489.426 256.856 487.08 255.704 483.581 255.704C480.68 255.704 477.266 256.515 473.341 258.136C469.416 259.757 464.85 262.957 459.645 267.736C459.218 268.163 459.005 268.675 459.005 269.272V303.704C459.005 304.387 459.304 304.728 459.901 304.728C460.84 304.728 461.736 304.685 462.589 304.6C463.442 304.429 464.296 304.344 465.149 304.344C466.344 304.344 467.368 304.771 468.221 305.624C469.074 306.477 469.501 307.544 469.501 308.824C469.501 310.104 469.032 311.171 468.093 312.024C467.154 312.877 466.045 313.261 464.765 313.176C462.12 312.92 460.029 312.749 458.493 312.664C456.957 312.579 455.506 312.536 454.141 312.536C452.605 312.536 451.069 312.579 449.533 312.664C448.082 312.835 446.077 313.005 443.517 313.176C442.237 313.261 441.128 312.877 440.189 312.024C439.25 311.171 438.781 310.104 438.781 308.824C438.781 307.544 439.208 306.477 440.061 305.624C440.914 304.771 441.938 304.344 443.133 304.344C443.986 304.344 444.84 304.387 445.693 304.472C446.546 304.557 447.4 304.643 448.253 304.728H448.509C449.106 304.728 449.405 304.387 449.405 303.704V255.064C449.405 254.381 449.106 254.04 448.509 254.04C447.485 254.04 446.504 254.125 445.565 254.296C444.712 254.381 443.816 254.424 442.877 254.424C441.682 254.424 440.658 253.997 439.805 253.144C438.952 252.205 438.525 251.139 438.525 249.944C438.525 248.664 438.994 247.555 439.933 246.616C440.872 245.677 441.981 245.293 443.261 245.464C444.456 245.549 445.736 245.677 447.101 245.848C448.552 245.933 449.96 246.019 451.325 246.104C453.458 246.189 455.25 247 456.701 248.536C458.237 249.987 459.005 251.779 459.005 253.912V256.984C459.005 257.496 459.133 257.795 459.389 257.88C459.73 257.965 460.072 257.837 460.413 257.496C465.192 252.973 469.586 249.859 473.597 248.152C477.693 246.36 481.533 245.464 485.117 245.464C489.554 245.464 493.01 246.531 495.485 248.664C497.96 250.712 499.709 253.485 500.733 256.984C501.757 260.397 502.269 264.152 502.269 268.248V303.704C502.269 304.387 502.61 304.728 503.293 304.728C504.232 304.728 505.085 304.685 505.853 304.6C506.706 304.429 507.56 304.344 508.413 304.344ZM591.49 303.448C592.77 303.448 593.837 303.917 594.69 304.856C595.629 305.795 596.098 306.947 596.098 308.312C596.098 309.763 595.543 310.957 594.434 311.896C593.41 312.92 592.173 313.304 590.722 313.048C587.394 312.451 584.834 312.152 583.042 312.152C581.25 312.152 579.671 311.597 578.306 310.488C576.941 309.293 576.045 307.885 575.618 306.264C575.362 305.411 574.935 305.283 574.338 305.88C571.949 308.099 569.218 309.848 566.146 311.128C563.159 312.493 559.917 313.176 556.418 313.176C551.213 313.176 546.605 312.195 542.594 310.232C538.583 308.269 535.213 305.667 532.482 302.424C529.751 299.096 527.661 295.427 526.21 291.416C524.845 287.405 524.162 283.395 524.162 279.384C524.162 275.459 524.759 271.533 525.954 267.608C527.234 263.597 529.154 259.928 531.714 256.6C534.274 253.272 537.474 250.627 541.314 248.664C545.239 246.616 549.847 245.592 555.138 245.592C558.893 245.592 562.349 246.445 565.506 248.152C568.749 249.773 571.565 251.864 573.954 254.424C574.21 254.68 574.466 254.808 574.722 254.808C575.149 254.808 575.362 254.509 575.362 253.912V226.264C575.362 225.581 575.063 225.24 574.466 225.24C573.442 225.24 572.418 225.325 571.394 225.496C570.455 225.581 569.517 225.624 568.578 225.624C567.383 225.624 566.359 225.197 565.506 224.344C564.653 223.491 564.226 222.467 564.226 221.272C564.226 219.907 564.695 218.797 565.634 217.944C566.573 217.005 567.725 216.621 569.09 216.792C570.285 216.877 571.607 217.005 573.058 217.176C574.509 217.261 575.917 217.347 577.282 217.432C579.415 217.517 581.207 218.285 582.658 219.736C584.194 221.187 584.962 222.979 584.962 225.112V303.32C584.962 304.003 585.303 304.344 585.986 304.344C586.925 304.344 587.863 304.216 588.802 303.96C589.741 303.619 590.637 303.448 591.49 303.448ZM556.29 303.832C560.557 303.832 564.226 303.021 567.298 301.4C570.455 299.693 572.973 297.56 574.85 295C575.191 294.573 575.362 294.104 575.362 293.592V265.176C575.362 264.664 575.191 264.195 574.85 263.768C572.461 261.037 569.602 258.861 566.274 257.24C563.031 255.619 559.661 254.808 556.162 254.808C551.725 254.808 547.842 255.917 544.514 258.136C541.271 260.269 538.711 263.171 536.834 266.84C535.042 270.509 534.146 274.648 534.146 279.256C534.146 283.779 535.085 287.917 536.962 291.672C538.925 295.427 541.57 298.413 544.898 300.632C548.226 302.765 552.023 303.832 556.29 303.832ZM677.952 245.592C683.243 245.592 687.808 246.616 691.648 248.664C695.573 250.627 698.816 253.272 701.376 256.6C703.936 259.928 705.856 263.597 707.136 267.608C708.416 271.533 709.056 275.459 709.056 279.384C709.056 283.395 708.331 287.405 706.88 291.416C705.515 295.427 703.424 299.096 700.608 302.424C697.877 305.667 694.507 308.269 690.496 310.232C686.485 312.195 681.877 313.176 676.672 313.176C673.429 313.176 670.357 312.579 667.456 311.384C664.555 310.189 661.909 308.568 659.52 306.52C659.349 306.349 659.093 306.264 658.752 306.264C658.325 306.264 658.112 306.563 658.112 307.16V334.296C658.112 334.979 658.411 335.32 659.008 335.32C659.947 335.32 660.843 335.235 661.696 335.064C662.635 334.979 663.531 334.936 664.384 334.936C665.579 334.936 666.603 335.363 667.456 336.216C668.309 337.069 668.736 338.136 668.736 339.416C668.736 340.696 668.267 341.763 667.328 342.616C666.389 343.469 665.237 343.853 663.872 343.768C661.227 343.512 659.136 343.341 657.6 343.256C656.064 343.171 654.656 343.128 653.376 343.128C651.755 343.128 650.219 343.171 648.768 343.256C647.317 343.427 645.312 343.597 642.752 343.768C641.387 343.853 640.235 343.469 639.296 342.616C638.357 341.763 637.888 340.696 637.888 339.416C637.888 338.136 638.315 337.069 639.168 336.216C640.021 335.363 641.045 334.936 642.24 334.936C643.008 334.936 643.819 334.979 644.672 335.064C645.611 335.149 646.507 335.235 647.36 335.32H647.616C648.213 335.32 648.512 334.979 648.512 334.296V255.96C648.512 255.277 648.213 254.936 647.616 254.936C646.507 254.936 645.44 255.021 644.416 255.192C643.477 255.277 642.496 255.32 641.472 255.32C640.192 255.32 639.083 254.851 638.144 253.912C637.291 252.888 636.864 251.736 636.864 250.456C636.864 249.005 637.376 247.768 638.4 246.744C639.509 245.72 640.747 245.293 642.112 245.464C643.819 245.635 645.653 245.805 647.616 245.976C649.579 246.147 651.456 246.232 653.248 246.232C654.613 246.232 655.765 246.701 656.704 247.64C657.643 248.579 658.112 249.731 658.112 251.096V253.528C658.112 254.04 658.24 254.381 658.496 254.552C658.752 254.637 659.051 254.509 659.392 254.168C661.867 251.693 664.64 249.645 667.712 248.024C670.784 246.403 674.197 245.592 677.952 245.592ZM676.928 304.088C681.195 304.088 684.949 302.979 688.192 300.76C691.52 298.541 694.123 295.555 696 291.8C697.963 287.96 698.944 283.779 698.944 279.256C698.944 274.648 698.048 270.509 696.256 266.84C694.464 263.171 691.904 260.269 688.576 258.136C685.333 256.003 681.493 254.936 677.056 254.936C673.387 254.936 669.931 255.832 666.688 257.624C663.531 259.331 660.843 261.72 658.624 264.792C658.283 265.219 658.112 265.688 658.112 266.2V294.104C658.112 294.531 658.24 294.957 658.496 295.384C660.459 297.944 662.976 300.035 666.048 301.656C669.12 303.277 672.747 304.088 676.928 304.088ZM778.893 303.448C780.173 303.448 781.24 303.96 782.093 304.984C783.032 305.923 783.501 307.032 783.501 308.312C783.501 309.848 782.946 311.085 781.837 312.024C780.728 313.048 779.448 313.432 777.997 313.176C776.888 312.92 775.693 312.707 774.413 312.536C773.133 312.365 771.853 312.237 770.573 312.152C768.866 312.152 767.33 311.64 765.965 310.616C764.6 309.592 763.661 308.269 763.149 306.648C762.893 305.88 762.466 305.752 761.869 306.264C758.968 308.483 755.81 310.189 752.397 311.384C748.984 312.579 744.93 313.176 740.237 313.176C734.605 313.176 729.912 311.555 726.157 308.312C722.402 304.984 720.525 300.675 720.525 295.384C720.525 289.325 722.658 284.376 726.925 280.536C731.192 276.696 736.824 274.776 743.821 274.776C746.466 274.776 749.282 275.075 752.269 275.672C755.256 276.269 758.328 277.208 761.485 278.488C761.57 278.488 761.656 278.531 761.741 278.616C761.826 278.616 761.912 278.616 761.997 278.616C762.594 278.616 762.893 278.275 762.893 277.592V272.472C762.893 266.413 761.272 261.891 758.029 258.904C754.872 255.917 751.16 254.424 746.893 254.424C744.077 254.424 741.176 255.064 738.189 256.344C737.592 256.685 737.378 257.197 737.549 257.88C737.805 258.648 737.933 259.373 737.933 260.056C737.933 261.933 737.25 263.64 735.885 265.176C734.605 266.712 732.856 267.48 730.637 267.48C728.333 267.48 726.498 266.712 725.133 265.176C723.853 263.555 723.213 261.72 723.213 259.672C723.213 257.539 723.981 255.576 725.517 253.784C727.821 251.139 730.68 249.091 734.093 247.64C737.592 246.189 741.304 245.464 745.229 245.464C751.885 245.464 757.176 246.701 761.101 249.176C765.112 251.651 767.97 254.936 769.677 259.032C771.469 263.128 772.365 267.608 772.365 272.472V303.32C772.365 304.003 772.706 304.344 773.389 304.344C774.328 304.344 775.266 304.216 776.205 303.96C777.144 303.619 778.04 303.448 778.893 303.448ZM740.237 303.96C745.186 303.789 749.325 302.979 752.653 301.528C755.981 300.077 759.224 297.731 762.381 294.488C762.722 294.061 762.893 293.592 762.893 293.08V289.496C762.893 288.899 762.637 288.472 762.125 288.216C760.333 287.192 758.072 286.168 755.341 285.144C752.61 284.12 748.941 283.608 744.333 283.608C739.042 283.608 735.245 284.803 732.941 287.192C730.722 289.581 729.613 292.312 729.613 295.384C729.613 297.432 730.168 299.096 731.277 300.376C732.386 301.571 733.752 302.467 735.373 303.064C737.08 303.661 738.701 303.96 740.237 303.96ZM808.233 264.664C808.233 266.797 809.257 268.461 811.305 269.656C813.438 270.851 816.126 271.832 819.369 272.6C822.697 273.368 826.196 274.179 829.865 275.032C833.534 275.885 836.99 276.995 840.233 278.36C843.561 279.725 846.249 281.645 848.297 284.12C850.43 286.509 851.497 289.752 851.497 293.848C851.497 297.347 850.388 300.589 848.169 303.576C846.036 306.477 842.836 308.824 838.569 310.616C834.388 312.323 829.225 313.176 823.081 313.176C819.838 313.176 816.51 312.792 813.097 312.024C809.769 311.256 806.697 310.189 803.881 308.824C801.065 307.373 798.804 305.709 797.097 303.832C795.39 301.869 794.537 299.693 794.537 297.304C794.537 295.256 795.262 293.507 796.713 292.056C798.164 290.605 799.87 289.88 801.833 289.88C804.052 289.88 805.801 290.648 807.081 292.184C808.446 293.635 809.129 295.341 809.129 297.304C809.129 297.645 809.086 297.987 809.001 298.328C809.001 298.584 808.958 298.883 808.873 299.224C808.788 299.309 808.745 299.48 808.745 299.736C808.745 300.163 809.001 300.504 809.513 300.76C811.39 301.528 813.481 302.253 815.785 302.936C818.089 303.619 820.521 303.96 823.081 303.96C826.409 303.96 829.481 303.576 832.297 302.808C835.198 301.955 837.502 300.76 839.209 299.224C841.001 297.688 841.897 295.768 841.897 293.464C841.897 291.075 840.83 289.24 838.697 287.96C836.649 286.595 833.961 285.528 830.633 284.76C827.39 283.907 823.934 283.096 820.265 282.328C816.596 281.475 813.097 280.408 809.769 279.128C806.526 277.763 803.838 275.971 801.705 273.752C799.657 271.448 798.633 268.419 798.633 264.664C798.633 261.251 799.572 258.136 801.449 255.32C803.412 252.419 806.313 250.115 810.153 248.408C814.078 246.616 818.942 245.72 824.745 245.72C828.67 245.72 832.382 246.232 835.881 247.256C839.465 248.28 842.366 249.773 844.585 251.736C846.889 253.699 848.041 256.045 848.041 258.776C848.041 259.032 848.041 259.331 848.041 259.672C848.041 259.928 847.998 260.184 847.913 260.44C847.657 262.147 846.846 263.597 845.481 264.792C844.116 265.901 842.537 266.456 840.745 266.456C838.612 266.456 836.862 265.731 835.497 264.28C834.132 262.829 833.449 261.123 833.449 259.16C833.449 258.904 833.449 258.648 833.449 258.392C833.449 258.051 833.492 257.752 833.577 257.496C833.662 257.411 833.705 257.24 833.705 256.984C833.705 256.472 833.449 256.173 832.937 256.088C830.804 255.149 828.073 254.68 824.745 254.68C822.185 254.68 819.625 255.064 817.065 255.832C814.505 256.515 812.372 257.581 810.665 259.032C809.044 260.483 808.233 262.36 808.233 264.664ZM878.983 264.664C878.983 266.797 880.007 268.461 882.055 269.656C884.188 270.851 886.876 271.832 890.119 272.6C893.447 273.368 896.946 274.179 900.615 275.032C904.284 275.885 907.74 276.995 910.983 278.36C914.311 279.725 916.999 281.645 919.047 284.12C921.18 286.509 922.247 289.752 922.247 293.848C922.247 297.347 921.138 300.589 918.919 303.576C916.786 306.477 913.586 308.824 909.319 310.616C905.138 312.323 899.975 313.176 893.831 313.176C890.588 313.176 887.26 312.792 883.847 312.024C880.519 311.256 877.447 310.189 874.631 308.824C871.815 307.373 869.554 305.709 867.847 303.832C866.14 301.869 865.287 299.693 865.287 297.304C865.287 295.256 866.012 293.507 867.463 292.056C868.914 290.605 870.62 289.88 872.583 289.88C874.802 289.88 876.551 290.648 877.831 292.184C879.196 293.635 879.879 295.341 879.879 297.304C879.879 297.645 879.836 297.987 879.751 298.328C879.751 298.584 879.708 298.883 879.623 299.224C879.538 299.309 879.495 299.48 879.495 299.736C879.495 300.163 879.751 300.504 880.263 300.76C882.14 301.528 884.231 302.253 886.535 302.936C888.839 303.619 891.271 303.96 893.831 303.96C897.159 303.96 900.231 303.576 903.047 302.808C905.948 301.955 908.252 300.76 909.959 299.224C911.751 297.688 912.647 295.768 912.647 293.464C912.647 291.075 911.58 289.24 909.447 287.96C907.399 286.595 904.711 285.528 901.383 284.76C898.14 283.907 894.684 283.096 891.015 282.328C887.346 281.475 883.847 280.408 880.519 279.128C877.276 277.763 874.588 275.971 872.455 273.752C870.407 271.448 869.383 268.419 869.383 264.664C869.383 261.251 870.322 258.136 872.199 255.32C874.162 252.419 877.063 250.115 880.903 248.408C884.828 246.616 889.692 245.72 895.495 245.72C899.42 245.72 903.132 246.232 906.631 247.256C910.215 248.28 913.116 249.773 915.335 251.736C917.639 253.699 918.791 256.045 918.791 258.776C918.791 259.032 918.791 259.331 918.791 259.672C918.791 259.928 918.748 260.184 918.663 260.44C918.407 262.147 917.596 263.597 916.231 264.792C914.866 265.901 913.287 266.456 911.495 266.456C909.362 266.456 907.612 265.731 906.247 264.28C904.882 262.829 904.199 261.123 904.199 259.16C904.199 258.904 904.199 258.648 904.199 258.392C904.199 258.051 904.242 257.752 904.327 257.496C904.412 257.411 904.455 257.24 904.455 256.984C904.455 256.472 904.199 256.173 903.687 256.088C901.554 255.149 898.823 254.68 895.495 254.68C892.935 254.68 890.375 255.064 887.815 255.832C885.255 256.515 883.122 257.581 881.415 259.032C879.794 260.483 878.983 262.36 878.983 264.664ZM952.037 234.328C949.904 234.328 948.069 233.603 946.533 232.152C945.082 230.616 944.357 228.781 944.357 226.648C944.357 224.429 945.082 222.595 946.533 221.144C948.069 219.693 949.904 218.968 952.037 218.968C954.17 218.968 955.962 219.693 957.413 221.144C958.949 222.595 959.717 224.429 959.717 226.648C959.717 228.781 958.949 230.616 957.413 232.152C955.962 233.603 954.17 234.328 952.037 234.328ZM940.901 313.304C939.45 313.389 938.17 312.92 937.061 311.896C936.037 310.957 935.525 309.763 935.525 308.312C935.525 306.861 936.037 305.624 937.061 304.6C938.17 303.576 939.45 303.149 940.901 303.32C941.669 303.405 942.48 303.491 943.333 303.576C944.272 303.661 945.168 303.747 946.021 303.832H946.277C946.874 303.832 947.173 303.448 947.173 302.68V256.088C947.173 255.405 946.874 255.064 946.277 255.064C944.4 255.064 942.608 255.192 940.901 255.448C939.45 255.533 938.17 255.107 937.061 254.168C936.037 253.144 935.525 251.907 935.525 250.456C935.525 249.005 936.037 247.768 937.061 246.744C938.17 245.72 939.45 245.293 940.901 245.464C943.29 245.635 944.954 245.805 945.893 245.976C946.832 246.061 947.472 246.104 947.813 246.104C948.24 246.104 948.709 246.104 949.221 246.104C951.354 246.104 953.146 246.872 954.597 248.408C956.133 249.859 956.901 251.651 956.901 253.784V302.68C956.901 303.448 957.2 303.832 957.797 303.832C958.736 303.832 959.632 303.789 960.485 303.704C961.424 303.533 962.32 303.405 963.173 303.32C964.624 303.149 965.861 303.576 966.885 304.6C967.909 305.624 968.421 306.861 968.421 308.312C968.421 309.763 967.909 310.957 966.885 311.896C965.861 312.92 964.624 313.389 963.173 313.304C961.466 313.133 959.632 312.963 957.669 312.792C955.706 312.621 953.829 312.536 952.037 312.536C950.245 312.536 948.368 312.621 946.405 312.792C944.442 312.963 942.608 313.133 940.901 313.304ZM1014.21 313.304C1009.43 313.304 1004.95 312.451 1000.77 310.744C996.589 308.952 992.919 306.52 989.762 303.448C986.605 300.291 984.13 296.664 982.338 292.568C980.546 288.472 979.65 284.077 979.65 279.384C979.65 274.691 980.546 270.296 982.338 266.2C984.13 262.104 986.605 258.52 989.762 255.448C992.919 252.291 996.589 249.859 1000.77 248.152C1004.95 246.36 1009.43 245.464 1014.21 245.464C1018.99 245.464 1023.43 246.36 1027.52 248.152C1031.7 249.859 1035.37 252.291 1038.53 255.448C1041.69 258.52 1044.16 262.104 1045.95 266.2C1047.75 270.296 1048.64 274.691 1048.64 279.384C1048.64 284.077 1047.75 288.472 1045.95 292.568C1044.16 296.664 1041.69 300.291 1038.53 303.448C1035.37 306.52 1031.7 308.952 1027.52 310.744C1023.43 312.451 1018.99 313.304 1014.21 313.304ZM1014.21 304.216C1019.07 304.216 1023.38 303.064 1027.14 300.76C1030.89 298.456 1033.84 295.427 1035.97 291.672C1038.1 287.917 1039.17 283.821 1039.17 279.384C1039.17 274.947 1038.06 270.851 1035.84 267.096C1033.71 263.341 1030.76 260.312 1027.01 258.008C1023.26 255.704 1018.99 254.552 1014.21 254.552C1009.26 254.552 1004.91 255.704 1001.15 258.008C997.399 260.312 994.455 263.341 992.322 267.096C990.189 270.851 989.122 274.947 989.122 279.384C989.122 283.821 990.189 287.917 992.322 291.672C994.541 295.427 997.527 298.456 1001.28 300.76C1005.04 303.064 1009.35 304.216 1014.21 304.216ZM1127.41 304.344C1128.61 304.344 1129.63 304.771 1130.49 305.624C1131.34 306.477 1131.77 307.544 1131.77 308.824C1131.77 310.104 1131.3 311.171 1130.36 312.024C1129.42 312.877 1128.31 313.261 1127.03 313.176C1124.38 312.92 1122.29 312.749 1120.76 312.664C1119.22 312.579 1117.77 312.536 1116.41 312.536C1114.87 312.536 1113.33 312.579 1111.8 312.664C1110.35 312.835 1108.34 313.005 1105.78 313.176C1104.5 313.261 1103.39 312.877 1102.45 312.024C1101.51 311.171 1101.05 310.104 1101.05 308.824C1101.05 307.544 1101.47 306.477 1102.33 305.624C1103.18 304.771 1104.2 304.344 1105.4 304.344C1106.17 304.344 1106.98 304.387 1107.83 304.472C1108.68 304.557 1109.54 304.643 1110.39 304.728H1110.65C1111.24 304.728 1111.54 304.387 1111.54 303.704V268.12C1111.54 264.365 1110.9 261.379 1109.62 259.16C1108.43 256.856 1106.08 255.704 1102.58 255.704C1099.68 255.704 1096.27 256.515 1092.34 258.136C1088.42 259.757 1083.85 262.957 1078.65 267.736C1078.22 268.163 1078.01 268.675 1078.01 269.272V303.704C1078.01 304.387 1078.3 304.728 1078.9 304.728C1079.84 304.728 1080.74 304.685 1081.59 304.6C1082.44 304.429 1083.3 304.344 1084.15 304.344C1085.34 304.344 1086.37 304.771 1087.22 305.624C1088.07 306.477 1088.5 307.544 1088.5 308.824C1088.5 310.104 1088.03 311.171 1087.09 312.024C1086.15 312.877 1085.05 313.261 1083.77 313.176C1081.12 312.92 1079.03 312.749 1077.49 312.664C1075.96 312.579 1074.51 312.536 1073.14 312.536C1071.61 312.536 1070.07 312.579 1068.53 312.664C1067.08 312.835 1065.08 313.005 1062.52 313.176C1061.24 313.261 1060.13 312.877 1059.19 312.024C1058.25 311.171 1057.78 310.104 1057.78 308.824C1057.78 307.544 1058.21 306.477 1059.06 305.624C1059.91 304.771 1060.94 304.344 1062.13 304.344C1062.99 304.344 1063.84 304.387 1064.69 304.472C1065.55 304.557 1066.4 304.643 1067.25 304.728H1067.51C1068.11 304.728 1068.41 304.387 1068.41 303.704V255.064C1068.41 254.381 1068.11 254.04 1067.51 254.04C1066.49 254.04 1065.5 254.125 1064.57 254.296C1063.71 254.381 1062.82 254.424 1061.88 254.424C1060.68 254.424 1059.66 253.997 1058.81 253.144C1057.95 252.205 1057.53 251.139 1057.53 249.944C1057.53 248.664 1057.99 247.555 1058.93 246.616C1059.87 245.677 1060.98 245.293 1062.26 245.464C1063.46 245.549 1064.74 245.677 1066.1 245.848C1067.55 245.933 1068.96 246.019 1070.33 246.104C1072.46 246.189 1074.25 247 1075.7 248.536C1077.24 249.987 1078.01 251.779 1078.01 253.912V256.984C1078.01 257.496 1078.13 257.795 1078.39 257.88C1078.73 257.965 1079.07 257.837 1079.41 257.496C1084.19 252.973 1088.59 249.859 1092.6 248.152C1096.69 246.36 1100.53 245.464 1104.12 245.464C1108.55 245.464 1112.01 246.531 1114.49 248.664C1116.96 250.712 1118.71 253.485 1119.73 256.984C1120.76 260.397 1121.27 264.152 1121.27 268.248V303.704C1121.27 304.387 1121.61 304.728 1122.29 304.728C1123.23 304.728 1124.09 304.685 1124.85 304.6C1125.71 304.429 1126.56 304.344 1127.41 304.344Z" fill="#657C7D"/>
</svg>
